<svg class="main-svg" xmlns="http://www.w3.org/2000/svg" xmlns:xlink="http://www.w3.org/1999/xlink" width="1000" height="1000" style="" viewBox="0 0 1000 1000"><rect x="0" y="0" width="1000" height="1000" style="fill: rgb(255, 255, 255); fill-opacity: 1;"/><defs id="defs-e15b6b"><g class="clips"/><g class="gradients"/><g class="patterns"/></defs><g class="bglayer"/><g class="layer-below"><g class="imagelayer"/><g class="shapelayer"/></g><g class="cartesianlayer"/><g class="polarlayer"/><g class="smithlayer"/><g class="ternarylayer"/><g class="geolayer"/><g class="funnelarealayer"/><g class="pielayer"/><g class="iciclelayer"/><g class="treemaplayer"/><g class="sunburstlayer"/><g class="glimages"/><g class="sankey" transform="translate(80,100)matrix(1 0 0 1 0 0)" style="box-sizing: content-box; position: absolute; left: 0px; shape-rendering: geometricprecision; pointer-events: none;"><g class="sankey-links" style="fill: none;"><path class="sankey-link" d="M94,428.11144614642376C420,428.11144614642376 420,401.2157761428049 746,401.2157761428049L746,408.5755638644307C420,408.5755638644307 420,435.4712338680496 94,435.4712338680496Z" style="stroke: rgb(68, 68, 68); stroke-opacity: 1; fill: rgb(0, 0, 0); fill-opacity: 0.2; stroke-width: 0; opacity: 1;"/><path class="sankey-link" d="M94,420.29574237124586C420,420.29574237124586 420,111.50404052587143 746,111.50404052587143L746,119.31974430104933C420,119.31974430104933 420,428.11144614642376 94,428.11144614642376Z" style="stroke: rgb(68, 68, 68); stroke-opacity: 1; fill: rgb(0, 0, 0); fill-opacity: 0.2; stroke-width: 0; opacity: 1;"/><path class="sankey-link" d="M94,435.47123386804964C420,435.47123386804964 420,625.7141478711856 746,625.7141478711856L746,627.1470268966348C420,627.1470268966348 420,436.90411289349896 94,436.90411289349896Z" style="stroke: rgb(68, 68, 68); stroke-opacity: 1; fill: rgb(0, 0, 0); fill-opacity: 0.2; stroke-width: 0; opacity: 1;"/><path class="sankey-link" d="M94,831.5609697262098C420,831.5609697262098 420,480.28464600168803 746,480.28464600168803L746,480.6103003256538C420,480.6103003256538 420,831.8866240501754 94,831.8866240501754Z" style="stroke: rgb(0, 0, 0); stroke-opacity: 0.2; fill: rgb(0, 0, 0); fill-opacity: 0.2; stroke-width: 1; opacity: 1;"/><path class="sankey-link" d="M94,830.7142684838989C420,830.7142684838989 420,243.0683874080328 746,243.0683874080328L746,243.91508865034373C420,243.91508865034373 420,831.5609697262098 94,831.5609697262098Z" style="stroke: rgb(0, 0, 0); stroke-opacity: 0.2; fill: rgb(0, 0, 0); fill-opacity: 0.2; stroke-width: 1; opacity: 1;"/><path class="sankey-link" d="M94,831.8866240501756C420,831.8866240501756 420,705.4994572427934 746,705.4994572427934L746,705.6948498371728C420,705.6948498371728 420,832.082016644555 94,832.082016644555Z" style="stroke: rgb(0, 0, 0); stroke-opacity: 0.2; fill: rgb(0, 0, 0); fill-opacity: 0.2; stroke-width: 1; opacity: 1;"/><path class="sankey-link" d="M94,220.05451694608615C420,220.05451694608615 420,350.60909419852794 746,350.60909419852794L746,381.54625497527377C420,381.54625497527377 420,250.99167772283204 94,250.99167772283204Z" style="stroke: rgb(68, 68, 68); stroke-opacity: 1; fill: rgb(0, 0, 0); fill-opacity: 0.2; stroke-width: 0; opacity: 1;"/><path class="sankey-link" d="M94,191.9179833554457C420,191.9179833554457 420,62.06971414787118 746,62.06971414787118L746,90.20624773851164C420,90.20624773851164 420,220.05451694608615 94,220.05451694608615Z" style="stroke: rgb(68, 68, 68); stroke-opacity: 1; fill: rgb(0, 0, 0); fill-opacity: 0.2; stroke-width: 0; opacity: 1;"/><path class="sankey-link" d="M94,250.991677722832C420,250.991677722832 420,617.3773971776625 746,617.3773971776625L746,621.8062959835966C420,621.8062959835966 420,255.42057652876613 94,255.42057652876613Z" style="stroke: rgb(68, 68, 68); stroke-opacity: 1; fill: rgb(0, 0, 0); fill-opacity: 0.2; stroke-width: 0; opacity: 1;"/><path class="sankey-link" d="M94,74.1517307924255C420,74.1517307924255 420,283.91508865034314 746,283.91508865034314L746,350.60909419852794C420,350.60909419852794 420,140.84573634061027 94,140.84573634061027Z" style="stroke: rgb(68, 68, 68); stroke-opacity: 1; fill: rgb(0, 0, 0); fill-opacity: 0.2; stroke-width: 0; opacity: 1;"/><path class="sankey-link" d="M94,12.082016644554315C420,12.082016644554315 420,0 746,0L746,62.06971414787118C420,62.06971414787118 420,74.1517307924255 94,74.1517307924255Z" style="stroke: rgb(68, 68, 68); stroke-opacity: 1; fill: rgb(0, 0, 0); fill-opacity: 0.2; stroke-width: 0; opacity: 1;"/><path class="sankey-link" d="M94,140.84573634061027C420,140.84573634061027 420,606.3051501628271 746,606.3051501628271L746,617.3773971776624C420,617.3773971776624 420,151.9179833554456 94,151.9179833554456Z" style="stroke: rgb(68, 68, 68); stroke-opacity: 1; fill: rgb(0, 0, 0); fill-opacity: 0.2; stroke-width: 0; opacity: 1;"/><path class="sankey-link" d="M94,298.0909419852852C420,298.0909419852852 420,381.5462549752738 746,381.5462549752738L746,383.1745265951026C420,383.1745265951026 420,299.71921360511396 94,299.71921360511396Z" style="stroke: rgb(68, 68, 68); stroke-opacity: 1; fill: rgb(0, 0, 0); fill-opacity: 0.2; stroke-width: 0; opacity: 1;"/><path class="sankey-link" d="M94,295.4205765287661C420,295.4205765287661 420,90.20624773851164 746,90.20624773851164L746,92.87661319503074C420,92.87661319503074 420,298.0909419852852 94,298.0909419852852Z" style="stroke: rgb(68, 68, 68); stroke-opacity: 1; fill: rgb(0, 0, 0); fill-opacity: 0.2; stroke-width: 0; opacity: 1;"/><path class="sankey-link" d="M94,299.71921360511396C420,299.71921360511396 420,621.8062959835967 746,621.8062959835967L746,622.0016885779761C420,622.0016885779761 420,299.9146061994934 94,299.9146061994934Z" style="stroke: rgb(0, 0, 0); stroke-opacity: 0.2; fill: rgb(0, 0, 0); fill-opacity: 0.2; stroke-width: 1; opacity: 1;"/><path class="sankey-link" d="M94,688.0680255698948C420,688.0680255698948 420,439.3824629115903 746,439.3824629115903L746,480.284646001688C420,480.284646001688 420,728.9702086599924 94,728.9702086599924Z" style="stroke: rgb(68, 68, 68); stroke-opacity: 1; fill: rgb(0, 0, 0); fill-opacity: 0.2; stroke-width: 0; opacity: 1;"/><path class="sankey-link" d="M94,601.3788445302132C420,601.3788445302132 420,156.37920636835122 746,156.37920636835122L746,243.06838740803278C420,243.06838740803278 420,688.0680255698949 94,688.0680255698949Z" style="stroke: rgb(68, 68, 68); stroke-opacity: 1; fill: rgb(0, 0, 0); fill-opacity: 0.2; stroke-width: 0; opacity: 1;"/><path class="sankey-link" d="M94,728.9702086599924C420,728.9702086599924 420,643.7553974188879 746,643.7553974188879L746,705.4994572427934C420,705.4994572427934 420,790.7142684838979 94,790.7142684838979Z" style="stroke: rgb(68, 68, 68); stroke-opacity: 1; fill: rgb(0, 0, 0); fill-opacity: 0.2; stroke-width: 0; opacity: 1;"/><path class="sankey-link" d="M94,513.9635749608008C420,513.9635749608008 420,408.57556386443076 746,408.57556386443076L746,439.3824629115904C420,439.3824629115904 420,544.7704740079603 94,544.7704740079603Z" style="stroke: rgb(68, 68, 68); stroke-opacity: 1; fill: rgb(0, 0, 0); fill-opacity: 0.2; stroke-width: 0; opacity: 1;"/><path class="sankey-link" d="M94,476.9041128934989C420,476.9041128934989 420,119.31974430104934 746,119.31974430104934L746,156.37920636835122C420,156.37920636835122 420,513.9635749608008 94,513.9635749608008Z" style="stroke: rgb(68, 68, 68); stroke-opacity: 1; fill: rgb(0, 0, 0); fill-opacity: 0.2; stroke-width: 0; opacity: 1;"/><path class="sankey-link" d="M94,544.7704740079604C420,544.7704740079604 420,627.1470268966349 746,627.1470268966349L746,643.755397418888C420,643.755397418888 420,561.3788445302135 94,561.3788445302135Z" style="stroke: rgb(68, 68, 68); stroke-opacity: 1; fill: rgb(0, 0, 0); fill-opacity: 0.2; stroke-width: 0; opacity: 1;"/><path class="sankey-link" d="M94,358.54203353033404C420,358.54203353033404 420,383.1745265951026 746,383.1745265951026L746,401.21577614280494C420,401.21577614280494 420,376.5832830780364 94,376.5832830780364Z" style="stroke: rgb(68, 68, 68); stroke-opacity: 1; fill: rgb(0, 0, 0); fill-opacity: 0.2; stroke-width: 0; opacity: 1;"/><path class="sankey-link" d="M94,339.9146061994934C420,339.9146061994934 420,92.87661319503076 746,92.87661319503076L746,111.50404052587143C420,111.50404052587143 420,358.54203353033404 94,358.54203353033404Z" style="stroke: rgb(68, 68, 68); stroke-opacity: 1; fill: rgb(0, 0, 0); fill-opacity: 0.2; stroke-width: 0; opacity: 1;"/><path class="sankey-link" d="M94,376.58328307803635C420,376.58328307803635 420,622.0016885779761 746,622.0016885779761L746,625.7141478711857C420,625.7141478711857 420,380.2957423712458 94,380.2957423712458Z" style="stroke: rgb(68, 68, 68); stroke-opacity: 1; fill: rgb(0, 0, 0); fill-opacity: 0.2; stroke-width: 0; opacity: 1;"/></g><g class="sankey-node-set" style="cursor: move;"><g class="sankey-node" transform="translate(746.000,283.915)" style="opacity: 1;"><rect class="node-rect" width="20" height="196.69521167531047" style="stroke-width: 0.5; stroke: rgb(68, 68, 68); stroke-opacity: 1; fill: rgb(68, 148, 100); fill-opacity: 1;"/><text class="node-label" data-notex="1" x="0" y="0" text-anchor="end" transform="translate(-3.25,103.24760583765524)" style="cursor: default; font-family: 'Open Sans', verdana, arial, sans-serif; font-size: 14px; fill: rgb(5, 28, 44); fill-opacity: 1; text-shadow: rgb(255, 255, 255) 1px 1px 1px, rgb(255, 255, 255) -1px -1px 1px, rgb(255, 255, 255) 1px -1px 1px, rgb(255, 255, 255) -1px 1px 1px; white-space: pre;">Classic DL</text></g><g class="sankey-node" transform="translate(746.000,0.000)" style="opacity: 1;"><rect class="node-rect" width="20" height="243.91508865034314" style="stroke-width: 0.5; stroke: rgb(68, 68, 68); stroke-opacity: 1; fill: rgb(128, 57, 30); fill-opacity: 1;"/><text class="node-label" data-notex="1" x="0" y="0" text-anchor="end" transform="translate(-3.25,126.85754432517157)" style="cursor: default; font-family: 'Open Sans', verdana, arial, sans-serif; font-size: 14px; fill: rgb(5, 28, 44); fill-opacity: 1; text-shadow: rgb(255, 255, 255) 1px 1px 1px, rgb(255, 255, 255) -1px -1px 1px, rgb(255, 255, 255) 1px -1px 1px, rgb(255, 255, 255) -1px 1px 1px; white-space: pre;">Classic ML</text></g><g class="sankey-node" transform="translate(746.000,606.305)" style="opacity: 1;"><rect class="node-rect" width="20" height="99.38969967434582" style="stroke-width: 0.5; stroke: rgb(68, 68, 68); stroke-opacity: 1; fill: rgb(128, 0, 128); fill-opacity: 1;"/><text class="node-label" data-notex="1" x="0" y="0" text-anchor="end" transform="translate(-3.25,54.59484983717291)" style="cursor: default; font-family: 'Open Sans', verdana, arial, sans-serif; font-size: 14px; fill: rgb(5, 28, 44); fill-opacity: 1; text-shadow: rgb(255, 255, 255) 1px 1px 1px, rgb(255, 255, 255) -1px -1px 1px, rgb(255, 255, 255) 1px -1px 1px, rgb(255, 255, 255) -1px 1px 1px; white-space: pre;">New AI</text></g><g class="sankey-node" transform="translate(74.000,420.296)" style="opacity: 1;"><rect class="node-rect" width="20" height="16.60837052225304" style="stroke-width: 0.5; stroke: rgb(68, 68, 68); stroke-opacity: 1; fill: rgb(185, 116, 85); fill-opacity: 1;"/><text class="node-label" data-notex="1" x="0" y="0" text-anchor="start" transform="translate(23.25,13.204185261126518)" style="cursor: default; font-family: 'Open Sans', verdana, arial, sans-serif; font-size: 14px; fill: rgb(5, 28, 44); fill-opacity: 1; text-shadow: rgb(255, 255, 255) 1px 1px 1px, rgb(255, 255, 255) -1px -1px 1px, rgb(255, 255, 255) 1px -1px 1px, rgb(255, 255, 255) -1px 1px 1px; white-space: pre;">biodiversity</text></g><g class="sankey-node" transform="translate(74.000,830.714)" style="opacity: 1;"><rect class="node-rect" width="20" height="1.3677481606562196" style="stroke-width: 0.5; stroke: rgb(68, 68, 68); stroke-opacity: 1; fill: rgb(224, 123, 57); fill-opacity: 1;"/><text class="node-label" data-notex="1" x="0" y="0" text-anchor="start" transform="translate(23.25,5.583874080328109)" style="cursor: default; font-family: 'Open Sans', verdana, arial, sans-serif; font-size: 14px; fill: rgb(5, 28, 44); fill-opacity: 1; text-shadow: rgb(255, 255, 255) 1px 1px 1px, rgb(255, 255, 255) -1px -1px 1px, rgb(255, 255, 255) 1px -1px 1px, rgb(255, 255, 255) -1px 1px 1px; white-space: pre;">comms</text></g><g class="sankey-node" transform="translate(74.000,191.918)" style="opacity: 1;"><rect class="node-rect" width="20" height="63.502593173320406" style="stroke-width: 0.5; stroke: rgb(68, 68, 68); stroke-opacity: 1; fill: rgb(75, 102, 161); fill-opacity: 1;"/><text class="node-label" data-notex="1" x="0" y="0" text-anchor="start" transform="translate(23.25,36.6512965866602)" style="cursor: default; font-family: 'Open Sans', verdana, arial, sans-serif; font-size: 14px; fill: rgb(5, 28, 44); fill-opacity: 1; text-shadow: rgb(255, 255, 255) 1px 1px 1px, rgb(255, 255, 255) -1px -1px 1px, rgb(255, 255, 255) 1px -1px 1px, rgb(255, 255, 255) -1px 1px 1px; white-space: pre;">earth</text></g><g class="sankey-node" transform="translate(74.000,12.082)" style="opacity: 1;"><rect class="node-rect" width="20" height="139.8359667108914" style="stroke-width: 0.5; stroke: rgb(68, 68, 68); stroke-opacity: 1; fill: rgb(224, 123, 57); fill-opacity: 1;"/><text class="node-label" data-notex="1" x="0" y="0" text-anchor="start" transform="translate(23.25,74.8179833554457)" style="cursor: default; font-family: 'Open Sans', verdana, arial, sans-serif; font-size: 14px; fill: rgb(5, 28, 44); fill-opacity: 1; text-shadow: rgb(255, 255, 255) 1px 1px 1px, rgb(255, 255, 255) -1px -1px 1px, rgb(255, 255, 255) 1px -1px 1px, rgb(255, 255, 255) -1px 1px 1px; white-space: pre;">global</text></g><g class="sankey-node" transform="translate(74.000,295.421)" style="opacity: 1;"><rect class="node-rect" width="20" height="4.494029670727286" style="stroke-width: 0.5; stroke: rgb(68, 68, 68); stroke-opacity: 1; fill: rgb(224, 123, 57); fill-opacity: 1;"/><text class="node-label" data-notex="1" x="0" y="0" text-anchor="start" transform="translate(23.25,7.147014835363643)" style="cursor: default; font-family: 'Open Sans', verdana, arial, sans-serif; font-size: 14px; fill: rgb(5, 28, 44); fill-opacity: 1; text-shadow: rgb(255, 255, 255) 1px 1px 1px, rgb(255, 255, 255) -1px -1px 1px, rgb(255, 255, 255) 1px -1px 1px, rgb(255, 255, 255) -1px 1px 1px; white-space: pre;">ocean</text></g><g class="sankey-node" transform="translate(74.000,601.379)" style="opacity: 1;"><rect class="node-rect" width="20" height="189.33542395368568" style="stroke-width: 0.5; stroke: rgb(68, 68, 68); stroke-opacity: 1; fill: rgb(224, 123, 57); fill-opacity: 1;"/><text class="node-label" data-notex="1" x="0" y="0" text-anchor="start" transform="translate(23.25,99.56771197684284)" style="cursor: default; font-family: 'Open Sans', verdana, arial, sans-serif; font-size: 14px; fill: rgb(5, 28, 44); fill-opacity: 1; text-shadow: rgb(255, 255, 255) 1px 1px 1px, rgb(255, 255, 255) -1px -1px 1px, rgb(255, 255, 255) 1px -1px 1px, rgb(255, 255, 255) -1px 1px 1px; white-space: pre;">policy</text></g><g class="sankey-node" transform="translate(74.000,476.904)" style="opacity: 1;"><rect class="node-rect" width="20" height="84.4747316367143" style="stroke-width: 0.5; stroke: rgb(68, 68, 68); stroke-opacity: 1; fill: rgb(185, 116, 85); fill-opacity: 1;"/><text class="node-label" data-notex="1" x="0" y="0" text-anchor="start" transform="translate(23.25,47.13736581835715)" style="cursor: default; font-family: 'Open Sans', verdana, arial, sans-serif; font-size: 14px; fill: rgb(5, 28, 44); fill-opacity: 1; text-shadow: rgb(255, 255, 255) 1px 1px 1px, rgb(255, 255, 255) -1px -1px 1px, rgb(255, 255, 255) 1px -1px 1px, rgb(255, 255, 255) -1px 1px 1px; white-space: pre;">urban</text></g><g class="sankey-node" transform="translate(74.000,339.915)" style="opacity: 1;"><rect class="node-rect" width="20" height="40.38113617175247" style="stroke-width: 0.5; stroke: rgb(68, 68, 68); stroke-opacity: 1; fill: rgb(68, 148, 100); fill-opacity: 1;"/><text class="node-label" data-notex="1" x="0" y="0" text-anchor="start" transform="translate(23.25,25.090568085876235)" style="cursor: default; font-family: 'Open Sans', verdana, arial, sans-serif; font-size: 14px; fill: rgb(5, 28, 44); fill-opacity: 1; text-shadow: rgb(255, 255, 255) 1px 1px 1px, rgb(255, 255, 255) -1px -1px 1px, rgb(255, 255, 255) 1px -1px 1px, rgb(255, 255, 255) -1px 1px 1px; white-space: pre;">water</text></g></g></g><defs id="topdefs-e15b6b"><g class="clips"/></defs><g class="layer-above"><g class="imagelayer"/><g class="shapelayer"/></g><g class="infolayer"><g class="g-gtitle"/><g class="first-render"/></g></svg>