<svg class="main-svg" xmlns="http://www.w3.org/2000/svg" xmlns:xlink="http://www.w3.org/1999/xlink" width="1000" height="1000" style="" viewBox="0 0 1000 1000"><rect x="0" y="0" width="1000" height="1000" style="fill: rgb(255, 255, 255); fill-opacity: 1;"/><defs id="defs-3ae907"><g class="clips"/><g class="gradients"/><g class="patterns"/></defs><g class="bglayer"/><g class="layer-below"><g class="imagelayer"/><g class="shapelayer"/></g><g class="cartesianlayer"/><g class="polarlayer"/><g class="smithlayer"/><g class="ternarylayer"/><g class="geolayer"/><g class="funnelarealayer"/><g class="pielayer"/><g class="iciclelayer"/><g class="treemaplayer"/><g class="sunburstlayer"/><g class="glimages"/><g class="sankey" transform="translate(80,100)matrix(1 0 0 1 0 0)" style="box-sizing: content-box; position: absolute; left: 0px; shape-rendering: geometricprecision; pointer-events: none;"><g class="sankey-links" style="fill: none;"><path class="sankey-link" d="M94,437.1034228022658C420,437.1034228022658 420,408.73183944841116 746,408.73183944841116L746,416.24476729869434C420,416.24476729869434 420,444.616350652549 94,444.616350652549Z" style="stroke: rgb(68, 68, 68); stroke-opacity: 1; fill: rgb(0, 0, 0); fill-opacity: 0.2; stroke-width: 0; opacity: 1;"/><path class="sankey-link" d="M94,429.1250923417881C420,429.1250923417881 420,113.82418123614873 746,113.82418123614873L746,121.80251169662644C420,121.80251169662644 420,437.10342280226587 94,437.10342280226587Z" style="stroke: rgb(68, 68, 68); stroke-opacity: 1; fill: rgb(0, 0, 0); fill-opacity: 0.2; stroke-width: 0; opacity: 1;"/><path class="sankey-link" d="M94,444.616350652549C420,444.616350652549 420,638.7468603792171 746,638.7468603792171L746,641.6722482147255C420,641.6722482147255 420,447.54173848805743 94,447.54173848805743Z" style="stroke: rgb(68, 68, 68); stroke-opacity: 1; fill: rgb(0, 0, 0); fill-opacity: 0.2; stroke-width: 0; opacity: 1;"/><path class="sankey-link" d="M94,826.9039645407537C420,826.9039645407537 420,489.44594927357736 746,489.44594927357736L746,489.77837970943057C420,489.77837970943057 420,827.2363949766069 94,827.2363949766069Z" style="stroke: rgb(0, 0, 0); stroke-opacity: 0.2; fill: rgb(0, 0, 0); fill-opacity: 0.2; stroke-width: 1; opacity: 1;"/><path class="sankey-link" d="M94,826.0396454075353C420,826.0396454075353 420,248.12607732085692 746,248.12607732085692L746,248.99039645407535C420,248.99039645407535 420,826.9039645407538 94,826.9039645407538Z" style="stroke: rgb(0, 0, 0); stroke-opacity: 0.2; fill: rgb(0, 0, 0); fill-opacity: 0.2; stroke-width: 1; opacity: 1;"/><path class="sankey-link" d="M94,827.2363949766069C420,827.2363949766069 420,700.6454075350899 746,700.6454075350899L746,701.1108101452845C420,701.1108101452845 420,827.7017975868015 94,827.7017975868015Z" style="stroke: rgb(0, 0, 0); stroke-opacity: 0.2; fill: rgb(0, 0, 0); fill-opacity: 0.2; stroke-width: 1; opacity: 1;"/><path class="sankey-link" d="M94,225.0201920709185C420,225.0201920709185 420,357.072149716818 746,357.072149716818L746,388.6530411228756C420,388.6530411228756 420,256.60108347697616 94,256.60108347697616Z" style="stroke: rgb(68, 68, 68); stroke-opacity: 1; fill: rgb(0, 0, 0); fill-opacity: 0.2; stroke-width: 0; opacity: 1;"/><path class="sankey-link" d="M94,196.29820241319874C420,196.29820241319874 420,63.361241073627184 746,63.361241073627184L746,92.08323073134696C420,92.08323073134696 420,225.02019207091848 94,225.02019207091848Z" style="stroke: rgb(68, 68, 68); stroke-opacity: 1; fill: rgb(0, 0, 0); fill-opacity: 0.2; stroke-width: 0; opacity: 1;"/><path class="sankey-link" d="M94,256.60108347697616C420,256.60108347697616 420,628.0426003447428 746,628.0426003447428L746,634.6247229746368C420,634.6247229746368 420,263.1832061068703 94,263.1832061068703Z" style="stroke: rgb(68, 68, 68); stroke-opacity: 1; fill: rgb(0, 0, 0); fill-opacity: 0.2; stroke-width: 0; opacity: 1;"/><path class="sankey-link" d="M94,71.06303866042845C420,71.06303866042845 420,288.9903964540748 746,288.9903964540748L746,357.072149716818C420,357.072149716818 420,139.14479192317162 94,139.14479192317162Z" style="stroke: rgb(68, 68, 68); stroke-opacity: 1; fill: rgb(0, 0, 0); fill-opacity: 0.2; stroke-width: 0; opacity: 1;"/><path class="sankey-link" d="M94,7.701797586801263C420,7.701797586801263 420,0 746,0L746,63.361241073627184C420,63.361241073627184 420,71.06303866042845 94,71.06303866042845Z" style="stroke: rgb(68, 68, 68); stroke-opacity: 1; fill: rgb(0, 0, 0); fill-opacity: 0.2; stroke-width: 0; opacity: 1;"/><path class="sankey-link" d="M94,139.14479192317162C420,139.14479192317162 420,610.8891898547157 746,610.8891898547157L746,628.0426003447427C420,628.0426003447427 420,156.29820241319874 94,156.29820241319874Z" style="stroke: rgb(68, 68, 68); stroke-opacity: 1; fill: rgb(0, 0, 0); fill-opacity: 0.2; stroke-width: 0; opacity: 1;"/><path class="sankey-link" d="M94,305.9091356808672C420,305.9091356808672 420,388.6530411228756 746,388.6530411228756L746,390.3151933021418C420,390.3151933021418 420,307.5712878601334 94,307.5712878601334Z" style="stroke: rgb(68, 68, 68); stroke-opacity: 1; fill: rgb(0, 0, 0); fill-opacity: 0.2; stroke-width: 0; opacity: 1;"/><path class="sankey-link" d="M94,303.18320610687067C420,303.18320610687067 420,92.08323073134696 746,92.08323073134696L746,94.80916030534351C420,94.80916030534351 420,305.9091356808673 94,305.9091356808673Z" style="stroke: rgb(68, 68, 68); stroke-opacity: 1; fill: rgb(0, 0, 0); fill-opacity: 0.2; stroke-width: 0; opacity: 1;"/><path class="sankey-link" d="M94,307.5712878601334C420,307.5712878601334 420,634.6247229746369 746,634.6247229746369L746,635.0236394976608C420,635.0236394976608 420,307.9702043831573 94,307.9702043831573Z" style="stroke: rgb(0, 0, 0); stroke-opacity: 0.2; fill: rgb(0, 0, 0); fill-opacity: 0.2; stroke-width: 1; opacity: 1;"/><path class="sankey-link" d="M94,696.8818025116972C420,696.8818025116972 420,447.69268653041064 746,447.69268653041064L746,489.44594927357736C420,489.44594927357736 420,738.6350652548639 94,738.6350652548639Z" style="stroke: rgb(68, 68, 68); stroke-opacity: 1; fill: rgb(0, 0, 0); fill-opacity: 0.2; stroke-width: 0; opacity: 1;"/><path class="sankey-link" d="M94,608.3888204875652C420,608.3888204875652 420,159.63309529672495 746,159.63309529672495L746,248.1260773208569C420,248.1260773208569 420,696.8818025116973 94,696.8818025116973Z" style="stroke: rgb(68, 68, 68); stroke-opacity: 1; fill: rgb(0, 0, 0); fill-opacity: 0.2; stroke-width: 0; opacity: 1;"/><path class="sankey-link" d="M94,738.6350652548639C420,738.6350652548639 420,653.2408273824182 746,653.2408273824182L746,700.6454075350899C420,700.6454075350899 420,786.0396454075357 94,786.0396454075357Z" style="stroke: rgb(68, 68, 68); stroke-opacity: 1; fill: rgb(0, 0, 0); fill-opacity: 0.2; stroke-width: 0; opacity: 1;"/><path class="sankey-link" d="M94,525.372322088156C420,525.372322088156 420,416.24476729869434 746,416.24476729869434L746,447.6926865304107C420,447.6926865304107 420,556.8202413198723 94,556.8202413198723Z" style="stroke: rgb(68, 68, 68); stroke-opacity: 1; fill: rgb(0, 0, 0); fill-opacity: 0.2; stroke-width: 0; opacity: 1;"/><path class="sankey-link" d="M94,487.5417384880575C420,487.5417384880575 420,121.80251169662644 746,121.80251169662644L746,159.63309529672495C420,159.63309529672495 420,525.372322088156 94,525.372322088156Z" style="stroke: rgb(68, 68, 68); stroke-opacity: 1; fill: rgb(0, 0, 0); fill-opacity: 0.2; stroke-width: 0; opacity: 1;"/><path class="sankey-link" d="M94,556.8202413198724C420,556.8202413198724 420,641.6722482147255 746,641.6722482147255L746,653.2408273824182C420,653.2408273824182 420,568.388820487565 94,568.388820487565Z" style="stroke: rgb(68, 68, 68); stroke-opacity: 1; fill: rgb(0, 0, 0); fill-opacity: 0.2; stroke-width: 0; opacity: 1;"/><path class="sankey-link" d="M94,366.9852253139625C420,366.9852253139625 420,390.3151933021418 746,390.3151933021418L746,408.73183944841116C420,408.73183944841116 420,385.40187146023186 94,385.40187146023186Z" style="stroke: rgb(68, 68, 68); stroke-opacity: 1; fill: rgb(0, 0, 0); fill-opacity: 0.2; stroke-width: 0; opacity: 1;"/><path class="sankey-link" d="M94,347.97020438315724C420,347.97020438315724 420,94.80916030534351 746,94.80916030534351L746,113.82418123614875C420,113.82418123614875 420,366.9852253139625 94,366.9852253139625Z" style="stroke: rgb(68, 68, 68); stroke-opacity: 1; fill: rgb(0, 0, 0); fill-opacity: 0.2; stroke-width: 0; opacity: 1;"/><path class="sankey-link" d="M94,385.40187146023186C420,385.40187146023186 420,635.0236394976608 746,635.0236394976608L746,638.7468603792171C420,638.7468603792171 420,389.1250923417881 94,389.1250923417881Z" style="stroke: rgb(68, 68, 68); stroke-opacity: 1; fill: rgb(0, 0, 0); fill-opacity: 0.2; stroke-width: 0; opacity: 1;"/></g><g class="sankey-node-set" style="cursor: move;"><g class="sankey-node" transform="translate(746.000,288.990)" style="opacity: 1;"><rect class="node-rect" width="20" height="200.78798325535593" style="stroke-width: 0.5; stroke: rgb(68, 68, 68); stroke-opacity: 1; fill: rgb(68, 148, 100); fill-opacity: 1;"/><text class="node-label" data-notex="1" x="0" y="0" text-anchor="end" transform="translate(-3.25,105.29399162767797)" style="cursor: default; font-family: 'Open Sans', verdana, arial, sans-serif; font-size: 14px; fill: rgb(5, 28, 44); fill-opacity: 1; text-shadow: rgb(255, 255, 255) 1px 1px 1px, rgb(255, 255, 255) -1px -1px 1px, rgb(255, 255, 255) 1px -1px 1px, rgb(255, 255, 255) -1px 1px 1px; white-space: pre;">Classic DL</text></g><g class="sankey-node" transform="translate(746.000,0.000)" style="opacity: 1;"><rect class="node-rect" width="20" height="248.9903964540748" style="stroke-width: 0.5; stroke: rgb(68, 68, 68); stroke-opacity: 1; fill: rgb(128, 57, 30); fill-opacity: 1;"/><text class="node-label" data-notex="1" x="0" y="0" text-anchor="end" transform="translate(-3.25,129.3951982270374)" style="cursor: default; font-family: 'Open Sans', verdana, arial, sans-serif; font-size: 14px; fill: rgb(5, 28, 44); fill-opacity: 1; text-shadow: rgb(255, 255, 255) 1px 1px 1px, rgb(255, 255, 255) -1px -1px 1px, rgb(255, 255, 255) 1px -1px 1px, rgb(255, 255, 255) -1px 1px 1px; white-space: pre;">Classic ML</text></g><g class="sankey-node" transform="translate(746.000,610.889)" style="opacity: 1;"><rect class="node-rect" width="20" height="90.22162029056858" style="stroke-width: 0.5; stroke: rgb(68, 68, 68); stroke-opacity: 1; fill: rgb(128, 0, 128); fill-opacity: 1;"/><text class="node-label" data-notex="1" x="0" y="0" text-anchor="end" transform="translate(-3.25,50.01081014528429)" style="cursor: default; font-family: 'Open Sans', verdana, arial, sans-serif; font-size: 14px; fill: rgb(5, 28, 44); fill-opacity: 1; text-shadow: rgb(255, 255, 255) 1px 1px 1px, rgb(255, 255, 255) -1px -1px 1px, rgb(255, 255, 255) 1px -1px 1px, rgb(255, 255, 255) -1px 1px 1px; white-space: pre;">New AI</text></g><g class="sankey-node" transform="translate(74.000,429.125)" style="opacity: 1;"><rect class="node-rect" width="20" height="18.416646146269386" style="stroke-width: 0.5; stroke: rgb(68, 68, 68); stroke-opacity: 1; fill: rgb(185, 116, 85); fill-opacity: 1;"/><text class="node-label" data-notex="1" x="0" y="0" text-anchor="start" transform="translate(23.25,14.108323073134692)" style="cursor: default; font-family: 'Open Sans', verdana, arial, sans-serif; font-size: 14px; fill: rgb(5, 28, 44); fill-opacity: 1; text-shadow: rgb(255, 255, 255) 1px 1px 1px, rgb(255, 255, 255) -1px -1px 1px, rgb(255, 255, 255) 1px -1px 1px, rgb(255, 255, 255) -1px 1px 1px; white-space: pre;">biodiversity</text></g><g class="sankey-node" transform="translate(74.000,826.040)" style="opacity: 1;"><rect class="node-rect" width="20" height="1.6621521792662861" style="stroke-width: 0.5; stroke: rgb(68, 68, 68); stroke-opacity: 1; fill: rgb(224, 123, 57); fill-opacity: 1;"/><text class="node-label" data-notex="1" x="0" y="0" text-anchor="start" transform="translate(23.25,5.7310760896331425)" style="cursor: default; font-family: 'Open Sans', verdana, arial, sans-serif; font-size: 14px; fill: rgb(5, 28, 44); fill-opacity: 1; text-shadow: rgb(255, 255, 255) 1px 1px 1px, rgb(255, 255, 255) -1px -1px 1px, rgb(255, 255, 255) 1px -1px 1px, rgb(255, 255, 255) -1px 1px 1px; white-space: pre;">comms</text></g><g class="sankey-node" transform="translate(74.000,196.298)" style="opacity: 1;"><rect class="node-rect" width="20" height="66.88500369367193" style="stroke-width: 0.5; stroke: rgb(68, 68, 68); stroke-opacity: 1; fill: rgb(75, 102, 161); fill-opacity: 1;"/><text class="node-label" data-notex="1" x="0" y="0" text-anchor="start" transform="translate(23.25,38.342501846835965)" style="cursor: default; font-family: 'Open Sans', verdana, arial, sans-serif; font-size: 14px; fill: rgb(5, 28, 44); fill-opacity: 1; text-shadow: rgb(255, 255, 255) 1px 1px 1px, rgb(255, 255, 255) -1px -1px 1px, rgb(255, 255, 255) 1px -1px 1px, rgb(255, 255, 255) -1px 1px 1px; white-space: pre;">earth</text></g><g class="sankey-node" transform="translate(74.000,7.702)" style="opacity: 1;"><rect class="node-rect" width="20" height="148.59640482639747" style="stroke-width: 0.5; stroke: rgb(68, 68, 68); stroke-opacity: 1; fill: rgb(224, 123, 57); fill-opacity: 1;"/><text class="node-label" data-notex="1" x="0" y="0" text-anchor="start" transform="translate(23.25,79.19820241319874)" style="cursor: default; font-family: 'Open Sans', verdana, arial, sans-serif; font-size: 14px; fill: rgb(5, 28, 44); fill-opacity: 1; text-shadow: rgb(255, 255, 255) 1px 1px 1px, rgb(255, 255, 255) -1px -1px 1px, rgb(255, 255, 255) 1px -1px 1px, rgb(255, 255, 255) -1px 1px 1px; white-space: pre;">global</text></g><g class="sankey-node" transform="translate(74.000,303.183)" style="opacity: 1;"><rect class="node-rect" width="20" height="4.7869982762865675" style="stroke-width: 0.5; stroke: rgb(68, 68, 68); stroke-opacity: 1; fill: rgb(224, 123, 57); fill-opacity: 1;"/><text class="node-label" data-notex="1" x="0" y="0" text-anchor="start" transform="translate(23.25,7.293499138143283)" style="cursor: default; font-family: 'Open Sans', verdana, arial, sans-serif; font-size: 14px; fill: rgb(5, 28, 44); fill-opacity: 1; text-shadow: rgb(255, 255, 255) 1px 1px 1px, rgb(255, 255, 255) -1px -1px 1px, rgb(255, 255, 255) 1px -1px 1px, rgb(255, 255, 255) -1px 1px 1px; white-space: pre;">ocean</text></g><g class="sankey-node" transform="translate(74.000,608.389)" style="opacity: 1;"><rect class="node-rect" width="20" height="177.6508249199701" style="stroke-width: 0.5; stroke: rgb(68, 68, 68); stroke-opacity: 1; fill: rgb(224, 123, 57); fill-opacity: 1;"/><text class="node-label" data-notex="1" x="0" y="0" text-anchor="start" transform="translate(23.25,93.72541245998505)" style="cursor: default; font-family: 'Open Sans', verdana, arial, sans-serif; font-size: 14px; fill: rgb(5, 28, 44); fill-opacity: 1; text-shadow: rgb(255, 255, 255) 1px 1px 1px, rgb(255, 255, 255) -1px -1px 1px, rgb(255, 255, 255) 1px -1px 1px, rgb(255, 255, 255) -1px 1px 1px; white-space: pre;">policy</text></g><g class="sankey-node" transform="translate(74.000,487.542)" style="opacity: 1;"><rect class="node-rect" width="20" height="80.84708199950774" style="stroke-width: 0.5; stroke: rgb(68, 68, 68); stroke-opacity: 1; fill: rgb(185, 116, 85); fill-opacity: 1;"/><text class="node-label" data-notex="1" x="0" y="0" text-anchor="start" transform="translate(23.25,45.32354099975387)" style="cursor: default; font-family: 'Open Sans', verdana, arial, sans-serif; font-size: 14px; fill: rgb(5, 28, 44); fill-opacity: 1; text-shadow: rgb(255, 255, 255) 1px 1px 1px, rgb(255, 255, 255) -1px -1px 1px, rgb(255, 255, 255) 1px -1px 1px, rgb(255, 255, 255) -1px 1px 1px; white-space: pre;">urban</text></g><g class="sankey-node" transform="translate(74.000,347.970)" style="opacity: 1;"><rect class="node-rect" width="20" height="41.154887958630866" style="stroke-width: 0.5; stroke: rgb(68, 68, 68); stroke-opacity: 1; fill: rgb(68, 148, 100); fill-opacity: 1;"/><text class="node-label" data-notex="1" x="0" y="0" text-anchor="start" transform="translate(23.25,25.47744397931543)" style="cursor: default; font-family: 'Open Sans', verdana, arial, sans-serif; font-size: 14px; fill: rgb(5, 28, 44); fill-opacity: 1; text-shadow: rgb(255, 255, 255) 1px 1px 1px, rgb(255, 255, 255) -1px -1px 1px, rgb(255, 255, 255) 1px -1px 1px, rgb(255, 255, 255) -1px 1px 1px; white-space: pre;">water</text></g></g></g><defs id="topdefs-3ae907"><g class="clips"/></defs><g class="layer-above"><g class="imagelayer"/><g class="shapelayer"/></g><g class="infolayer"><g class="g-gtitle"/><g class="first-render"/></g></svg>