<svg class="main-svg" xmlns="http://www.w3.org/2000/svg" xmlns:xlink="http://www.w3.org/1999/xlink" width="1200" height="1200" style="" viewBox="0 0 1200 1200"><rect x="0" y="0" width="1200" height="1200" style="fill: rgb(255, 255, 255); fill-opacity: 1;"/><defs id="defs-35ef91"><g class="clips"/><g class="gradients"/><g class="patterns"/></defs><g class="bglayer"/><g class="layer-below"><g class="imagelayer"/><g class="shapelayer"/></g><g class="cartesianlayer"/><g class="polarlayer"/><g class="smithlayer"/><g class="ternarylayer"/><g class="geolayer"/><g class="funnelarealayer"/><g class="pielayer"/><g class="iciclelayer"/><g class="treemaplayer"/><g class="sunburstlayer"/><g class="glimages"/><g class="sankey" transform="translate(80,100)matrix(1 0 0 1 0 0)" style="box-sizing: content-box; position: absolute; left: 0px; shape-rendering: geometricprecision; pointer-events: none;"><g class="sankey-links" style="fill: none;"><path class="sankey-link" d="M114,569.1317901994584C312,569.1317901994584 312,636.0157596651071 510,636.0157596651071L510,648.6486087170648C312,648.6486087170648 312,581.764639251416 114,581.764639251416Z" style="stroke: rgb(68, 68, 68); stroke-opacity: 1; fill: rgb(0, 0, 0); fill-opacity: 0.2; stroke-width: 0; opacity: 1;"/><path class="sankey-link" d="M114,555.7163752770255C312,555.7163752770255 312,191.393252893376 510,191.393252893376L510,204.8086678158089C312,204.8086678158089 312,569.1317901994585 114,569.1317901994585Z" style="stroke: rgb(68, 68, 68); stroke-opacity: 1; fill: rgb(0, 0, 0); fill-opacity: 0.2; stroke-width: 0; opacity: 1;"/><path class="sankey-link" d="M114,581.764639251416C312,581.764639251416 312,909.3891652302387 510,909.3891652302387L510,914.3081507017974C312,914.3081507017974 312,586.6836247229747 114,586.6836247229747Z" style="stroke: rgb(68, 68, 68); stroke-opacity: 1; fill: rgb(0, 0, 0); fill-opacity: 0.2; stroke-width: 0; opacity: 1;"/><path class="sankey-link" d="M114,1105.2116227530166C312,1105.2116227530166 312,771.7350406303867 510,771.7350406303867L510,772.2940162521547C312,772.2940162521547 312,1105.7705983747849 114,1105.7705983747849Z" style="stroke: rgb(0, 0, 0); stroke-opacity: 0.2; fill: rgb(0, 0, 0); fill-opacity: 0.2; stroke-width: 1; opacity: 1;"/><path class="sankey-link" d="M114,1103.7582861364197C312,1103.7582861364197 312,417.2194040876631 510,417.2194040876631L510,418.67274070426C312,418.67274070426 312,1105.2116227530166 114,1105.2116227530166Z" style="stroke: rgb(68, 68, 68); stroke-opacity: 1; fill: rgb(0, 0, 0); fill-opacity: 0.2; stroke-width: 0; opacity: 1;"/><path class="sankey-link" d="M114,1105.7705983747846C312,1105.7705983747846 312,1013.4704260034473 510,1013.4704260034473L510,1014.2529918739226C312,1014.2529918739226 312,1106.5531642452597 114,1106.5531642452597Z" style="stroke: rgb(0, 0, 0); stroke-opacity: 0.2; fill: rgb(0, 0, 0); fill-opacity: 0.2; stroke-width: 1; opacity: 1;"/><path class="sankey-link" d="M114,314.15759665107095C312,314.15759665107095 312,549.1509480423541 510,549.1509480423541L510,602.2536321103177C312,602.2536321103177 312,367.2602807190345 114,367.2602807190345Z" style="stroke: rgb(68, 68, 68); stroke-opacity: 1; fill: rgb(0, 0, 0); fill-opacity: 0.2; stroke-width: 0; opacity: 1;"/><path class="sankey-link" d="M114,265.8621029303125C312,265.8621029303125 312,106.54075350898793 510,106.54075350898793L510,154.83624722974636C312,154.83624722974636 312,314.157596651071 114,314.157596651071Z" style="stroke: rgb(68, 68, 68); stroke-opacity: 1; fill: rgb(0, 0, 0); fill-opacity: 0.2; stroke-width: 0; opacity: 1;"/><path class="sankey-link" d="M114,367.2602807190345C312,367.2602807190345 312,891.3901502093079 510,891.3901502093079L510,902.457867520315C312,902.457867520315 312,378.32799803004167 114,378.32799803004167Z" style="stroke: rgb(68, 68, 68); stroke-opacity: 1; fill: rgb(0, 0, 0); fill-opacity: 0.2; stroke-width: 0; opacity: 1;"/><path class="sankey-link" d="M114,106.54075350898793C312,106.54075350898793 312,434.67274070426004 510,434.67274070426004L510,549.1509480423541C312,549.1509480423541 312,221.018960847082 114,221.018960847082Z" style="stroke: rgb(68, 68, 68); stroke-opacity: 1; fill: rgb(0, 0, 0); fill-opacity: 0.2; stroke-width: 0; opacity: 1;"/><path class="sankey-link" d="M114,0C312,0 312,0 510,0L510,106.54075350898793C312,106.54075350898793 312,106.54075350898793 114,106.54075350898793Z" style="stroke: rgb(68, 68, 68); stroke-opacity: 1; fill: rgb(0, 0, 0); fill-opacity: 0.2; stroke-width: 0; opacity: 1;"/><path class="sankey-link" d="M114,221.01896084708198C312,221.01896084708198 312,862.5470081260771 510,862.5470081260771L510,891.3901502093079C312,891.3901502093079 312,249.86210293031274 114,249.86210293031274Z" style="stroke: rgb(68, 68, 68); stroke-opacity: 1; fill: rgb(0, 0, 0); fill-opacity: 0.2; stroke-width: 0; opacity: 1;"/><path class="sankey-link" d="M114,398.91159812853977C312,398.91159812853977 312,602.2536321103177 510,602.2536321103177L510,605.048510219158C312,605.048510219158 312,401.70647623737995 114,401.70647623737995Z" style="stroke: rgb(68, 68, 68); stroke-opacity: 1; fill: rgb(0, 0, 0); fill-opacity: 0.2; stroke-width: 0; opacity: 1;"/><path class="sankey-link" d="M114,394.32799803004184C312,394.32799803004184 312,154.83624722974636 510,154.83624722974636L510,159.4198473282443C312,159.4198473282443 312,398.9115981285397 114,398.9115981285397Z" style="stroke: rgb(68, 68, 68); stroke-opacity: 1; fill: rgb(0, 0, 0); fill-opacity: 0.2; stroke-width: 0; opacity: 1;"/><path class="sankey-link" d="M114,401.70647623737995C312,401.70647623737995 312,902.4578675203151 510,902.4578675203151L510,903.1286382664367C312,903.1286382664367 312,402.3772469835016 114,402.3772469835016Z" style="stroke: rgb(0, 0, 0); stroke-opacity: 0.2; fill: rgb(0, 0, 0); fill-opacity: 0.2; stroke-width: 1; opacity: 1;"/><path class="sankey-link" d="M114,937.8410243782321C312,937.8410243782321 312,701.5277025363212 510,701.5277025363212L510,771.7350406303867C312,771.7350406303867 312,1008.0483624722976 114,1008.0483624722976Z" style="stroke: rgb(68, 68, 68); stroke-opacity: 1; fill: rgb(0, 0, 0); fill-opacity: 0.2; stroke-width: 0; opacity: 1;"/><path class="sankey-link" d="M114,789.0417138635805C312,789.0417138635805 312,268.42009357301157 510,268.42009357301157L510,417.2194040876631C312,417.2194040876631 312,937.8410243782321 114,937.8410243782321Z" style="stroke: rgb(68, 68, 68); stroke-opacity: 1; fill: rgb(0, 0, 0); fill-opacity: 0.2; stroke-width: 0; opacity: 1;"/><path class="sankey-link" d="M114,1008.0483624722975C312,1008.0483624722975 312,933.7605023393252 510,933.7605023393252L510,1013.4704260034474C312,1013.4704260034474 312,1087.7582861364197 114,1087.7582861364197Z" style="stroke: rgb(68, 68, 68); stroke-opacity: 1; fill: rgb(0, 0, 0); fill-opacity: 0.2; stroke-width: 0; opacity: 1;"/><path class="sankey-link" d="M114,689.2399901502095C312,689.2399901502095 312,648.6486087170648 510,648.6486087170648L510,701.527702536321C312,701.527702536321 312,742.1190839694657 114,742.1190839694657Z" style="stroke: rgb(68, 68, 68); stroke-opacity: 1; fill: rgb(0, 0, 0); fill-opacity: 0.2; stroke-width: 0; opacity: 1;"/><path class="sankey-link" d="M114,625.6285643930067C312,625.6285643930067 312,204.8086678158089 510,204.8086678158089L510,268.42009357301157C312,268.42009357301157 312,689.2399901502093 114,689.2399901502093Z" style="stroke: rgb(68, 68, 68); stroke-opacity: 1; fill: rgb(0, 0, 0); fill-opacity: 0.2; stroke-width: 0; opacity: 1;"/><path class="sankey-link" d="M114,742.1190839694658C312,742.1190839694658 312,914.3081507017974 510,914.3081507017974L510,933.7605023393252C312,933.7605023393252 312,761.5714356069935 114,761.5714356069935Z" style="stroke: rgb(68, 68, 68); stroke-opacity: 1; fill: rgb(0, 0, 0); fill-opacity: 0.2; stroke-width: 0; opacity: 1;"/><path class="sankey-link" d="M114,450.3506525486333C312,450.3506525486333 312,605.0485102191578 510,605.0485102191578L510,636.015759665107C312,636.015759665107 312,481.3179019945826 114,481.3179019945826Z" style="stroke: rgb(68, 68, 68); stroke-opacity: 1; fill: rgb(0, 0, 0); fill-opacity: 0.2; stroke-width: 0; opacity: 1;"/><path class="sankey-link" d="M114,418.37724698350155C312,418.37724698350155 312,159.41984732824426 510,159.41984732824426L510,191.39325289337603C312,191.39325289337603 312,450.3506525486333 114,450.3506525486333Z" style="stroke: rgb(68, 68, 68); stroke-opacity: 1; fill: rgb(0, 0, 0); fill-opacity: 0.2; stroke-width: 0; opacity: 1;"/><path class="sankey-link" d="M114,481.3179019945826C312,481.3179019945826 312,903.1286382664367 510,903.1286382664367L510,909.3891652302387C312,909.3891652302387 312,487.5784289583846 114,487.5784289583846Z" style="stroke: rgb(68, 68, 68); stroke-opacity: 1; fill: rgb(0, 0, 0); fill-opacity: 0.2; stroke-width: 0; opacity: 1;"/><path class="sankey-link" d="M530,82.28121152425513C728,82.28121152425513 728,637.8084215710419 926,637.8084215710419L926,730.039399162768C728,730.039399162768 728,174.5121891159813 530,174.5121891159813Z" style="stroke: rgb(68, 68, 68); stroke-opacity: 1; fill: rgb(0, 0, 0); fill-opacity: 0.2; stroke-width: 0; opacity: 1;"/><path class="sankey-link" d="M530,257.0169908889436C728,257.0169908889436 728,902.4939670032018 926,902.4939670032018L926,946.4294508741696C728,946.4294508741696 728,300.9524747599114 530,300.9524747599114Z" style="stroke: rgb(68, 68, 68); stroke-opacity: 1; fill: rgb(0, 0, 0); fill-opacity: 0.2; stroke-width: 0; opacity: 1;"/><path class="sankey-link" d="M530,174.5121891159813C728,174.5121891159813 728,749.7286382664372 926,749.7286382664372L926,787.62718542231C728,787.62718542231 728,212.41073627185426 530,212.41073627185426Z" style="stroke: rgb(68, 68, 68); stroke-opacity: 1; fill: rgb(0, 0, 0); fill-opacity: 0.2; stroke-width: 0; opacity: 1;"/><path class="sankey-link" d="M530,38.233932528933764C728,38.233932528933764 728,434.5382910613151 926,434.5382910613151L926,459.58039891652317C728,459.58039891652317 728,63.27604038414184 530,63.27604038414184Z" style="stroke: rgb(68, 68, 68); stroke-opacity: 1; fill: rgb(0, 0, 0); fill-opacity: 0.2; stroke-width: 0; opacity: 1;"/><path class="sankey-link" d="M530,63.27604038414184C728,63.27604038414184 728,601.461708938685 926,601.461708938685L926,620.4668800787983C728,620.4668800787983 728,82.28121152425511 530,82.28121152425511Z" style="stroke: rgb(68, 68, 68); stroke-opacity: 1; fill: rgb(0, 0, 0); fill-opacity: 0.2; stroke-width: 0; opacity: 1;"/><path class="sankey-link" d="M530,238.9061807436592C728,238.9061807436592 728,866.482639743906 926,866.482639743906L926,884.5934498891904C728,884.5934498891904 728,257.0169908889436 530,257.0169908889436Z" style="stroke: rgb(68, 68, 68); stroke-opacity: 1; fill: rgb(0, 0, 0); fill-opacity: 0.2; stroke-width: 0; opacity: 1;"/><path class="sankey-link" d="M530,20.45850775671017C728,20.45850775671017 728,340.4622876138882 926,340.4622876138882L926,358.23771238611175C728,358.23771238611175 728,38.23393252893376 530,38.23393252893376Z" style="stroke: rgb(68, 68, 68); stroke-opacity: 1; fill: rgb(0, 0, 0); fill-opacity: 0.2; stroke-width: 0; opacity: 1;"/><path class="sankey-link" d="M530,212.41073627185423C728,212.41073627185423 728,806.4220635311503 926,806.4220635311503L926,819.9492735779368C728,819.9492735779368 728,225.9379463186407 530,225.9379463186407Z" style="stroke: rgb(68, 68, 68); stroke-opacity: 1; fill: rgb(0, 0, 0); fill-opacity: 0.2; stroke-width: 0; opacity: 1;"/><path class="sankey-link" d="M530,225.93794631864074C728,225.93794631864074 728,837.5144053188874 926,837.5144053188874L926,850.4826397439058C728,850.4826397439058 728,238.9061807436592 530,238.9061807436592Z" style="stroke: rgb(68, 68, 68); stroke-opacity: 1; fill: rgb(0, 0, 0); fill-opacity: 0.2; stroke-width: 0; opacity: 1;"/><path class="sankey-link" d="M530,8.049248953459738C728,8.049248953459738 728,288.086136419601 926,288.086136419601L926,300.4953952228514C728,300.4953952228514 728,20.45850775671017 530,20.45850775671017Z" style="stroke: rgb(68, 68, 68); stroke-opacity: 1; fill: rgb(0, 0, 0); fill-opacity: 0.2; stroke-width: 0; opacity: 1;"/><path class="sankey-link" d="M530,0C728,0 728,72.2651071164738 926,72.2651071164738L926,76.96050233932532C728,76.96050233932532 728,4.695395222851515 530,4.695395222851515Z" style="stroke: rgb(68, 68, 68); stroke-opacity: 1; fill: rgb(0, 0, 0); fill-opacity: 0.2; stroke-width: 0; opacity: 1;"/><path class="sankey-link" d="M530,6.260526963802019C728,6.260526963802019 728,222.18277517852738 926,222.18277517852738L926,223.97149716818512C728,223.97149716818512 728,8.049248953459738 530,8.049248953459738Z" style="stroke: rgb(68, 68, 68); stroke-opacity: 1; fill: rgb(0, 0, 0); fill-opacity: 0.2; stroke-width: 0; opacity: 1;"/><path class="sankey-link" d="M530,4.695395222851515C728,4.695395222851515 728,107.03352622506767 926,107.03352622506767L926,108.59865796601818C728,108.59865796601818 728,6.26052696380202 530,6.26052696380202Z" style="stroke: rgb(68, 68, 68); stroke-opacity: 1; fill: rgb(0, 0, 0); fill-opacity: 0.2; stroke-width: 0; opacity: 1;"/><path class="sankey-link" d="M530,539.7601575966511C728,539.7601575966511 728,459.58039891652317 926,459.58039891652317L926,574.8411721250925C728,574.8411721250925 728,655.0209308052205 530,655.0209308052205Z" style="stroke: rgb(68, 68, 68); stroke-opacity: 1; fill: rgb(0, 0, 0); fill-opacity: 0.2; stroke-width: 0; opacity: 1;"/><path class="sankey-link" d="M530,447.86456537798574C728,447.86456537798574 728,108.59865796601818 926,108.59865796601818L926,160.69518591479928C728,160.69518591479928 728,499.9610933267668 530,499.9610933267668Z" style="stroke: rgb(68, 68, 68); stroke-opacity: 1; fill: rgb(0, 0, 0); fill-opacity: 0.2; stroke-width: 0; opacity: 1;"/><path class="sankey-link" d="M530,499.9610933267669C728,499.9610933267669 728,223.97149716818512 926,223.97149716818512L926,261.4228638266436C728,261.4228638266436 728,537.4124599852254 530,537.4124599852254Z" style="stroke: rgb(68, 68, 68); stroke-opacity: 1; fill: rgb(0, 0, 0); fill-opacity: 0.2; stroke-width: 0; opacity: 1;"/><path class="sankey-link" d="M530,674.249692194041C728,674.249692194041 728,1005.3720758433888 926,1005.3720758433888L926,1021.5823688746618C728,1021.5823688746618 728,690.4599852253141 530,690.4599852253141Z" style="stroke: rgb(68, 68, 68); stroke-opacity: 1; fill: rgb(0, 0, 0); fill-opacity: 0.2; stroke-width: 0; opacity: 1;"/><path class="sankey-link" d="M530,434.67274070426004C728,434.67274070426004 728,76.96050233932532 926,76.96050233932532L926,90.15232701305099C728,90.15232701305099 728,447.86456537798574 530,447.86456537798574Z" style="stroke: rgb(68, 68, 68); stroke-opacity: 1; fill: rgb(0, 0, 0); fill-opacity: 0.2; stroke-width: 0; opacity: 1;"/><path class="sankey-link" d="M530,662.846589509973C728,662.846589509973 728,962.8766313715839 926,962.8766313715839L926,974.2797340556519C728,974.2797340556519 728,674.249692194041 530,674.249692194041Z" style="stroke: rgb(68, 68, 68); stroke-opacity: 1; fill: rgb(0, 0, 0); fill-opacity: 0.2; stroke-width: 0; opacity: 1;"/><path class="sankey-link" d="M530,655.0209308052204C728,655.0209308052204 728,730.0393991627681 926,730.0393991627681L926,732.9460723959618C728,732.9460723959618 728,657.9276040384141 530,657.9276040384141Z" style="stroke: rgb(68, 68, 68); stroke-opacity: 1; fill: rgb(0, 0, 0); fill-opacity: 0.2; stroke-width: 0; opacity: 1;"/><path class="sankey-link" d="M530,657.9276040384142C728,657.9276040384142 728,787.6271854223102 926,787.6271854223102L926,790.1984732824432C728,790.1984732824432 728,660.4988918985472 530,660.4988918985472Z" style="stroke: rgb(68, 68, 68); stroke-opacity: 1; fill: rgb(0, 0, 0); fill-opacity: 0.2; stroke-width: 0; opacity: 1;"/><path class="sankey-link" d="M530,537.4124599852254C728,537.4124599852254 728,300.49539522285147 926,300.49539522285147L926,302.8430928342772C728,302.8430928342772 728,539.7601575966511 530,539.7601575966511Z" style="stroke: rgb(68, 68, 68); stroke-opacity: 1; fill: rgb(0, 0, 0); fill-opacity: 0.2; stroke-width: 0; opacity: 1;"/><path class="sankey-link" d="M530,661.5050480177297C728,661.5050480177297 728,884.5934498891904 926,884.5934498891904L926,885.9349913814337C728,885.9349913814337 728,662.846589509973 530,662.846589509973Z" style="stroke: rgb(68, 68, 68); stroke-opacity: 1; fill: rgb(0, 0, 0); fill-opacity: 0.2; stroke-width: 0; opacity: 1;"/><path class="sankey-link" d="M530,660.4988918985472C728,660.4988918985472 728,819.9492735779369 926,819.9492735779369L926,820.9554296971193C728,820.9554296971193 728,661.5050480177296 530,661.5050480177296Z" style="stroke: rgb(68, 68, 68); stroke-opacity: 1; fill: rgb(0, 0, 0); fill-opacity: 0.2; stroke-width: 0; opacity: 1;"/><path class="sankey-link" d="M530,903.6876138882045C728,903.6876138882045 728,974.2797340556519 926,974.2797340556519L926,989.372075843389C728,989.372075843389 728,918.7799556759416 530,918.7799556759416Z" style="stroke: rgb(68, 68, 68); stroke-opacity: 1; fill: rgb(0, 0, 0); fill-opacity: 0.2; stroke-width: 0; opacity: 1;"/><path class="sankey-link" d="M530,877.080374292046C728,877.080374292046 728,396.86306328490525 926,396.86306328490525L926,408.9369367150948C728,408.9369367150948 728,889.1542477222357 530,889.1542477222357Z" style="stroke: rgb(68, 68, 68); stroke-opacity: 1; fill: rgb(0, 0, 0); fill-opacity: 0.2; stroke-width: 0; opacity: 1;"/><path class="sankey-link" d="M530,889.1542477222356C728,889.1542477222356 728,574.8411721250925 926,574.8411721250925L926,585.4617089386852C728,585.4617089386852 728,899.7747845358283 530,899.7747845358283Z" style="stroke: rgb(68, 68, 68); stroke-opacity: 1; fill: rgb(0, 0, 0); fill-opacity: 0.2; stroke-width: 0; opacity: 1;"/><path class="sankey-link" d="M530,865.9008618566853C728,865.9008618566853 728,183.89280965279482 926,183.89280965279482L926,193.50719034720504C728,193.50719034720504 728,875.5152425510956 530,875.5152425510956Z" style="stroke: rgb(68, 68, 68); stroke-opacity: 1; fill: rgb(0, 0, 0); fill-opacity: 0.2; stroke-width: 0; opacity: 1;"/><path class="sankey-link" d="M530,863.3295739965523C728,863.3295739965523 728,160.69518591479925 926,160.69518591479925L926,163.26647377493225C728,163.26647377493225 728,865.9008618566853 530,865.9008618566853Z" style="stroke: rgb(68, 68, 68); stroke-opacity: 1; fill: rgb(0, 0, 0); fill-opacity: 0.2; stroke-width: 0; opacity: 1;"/><path class="sankey-link" d="M530,899.7747845358283C728,899.7747845358283 728,620.4668800787982 926,620.4668800787982L926,621.8084215710415C728,621.8084215710415 728,901.1163260280716 530,901.1163260280716Z" style="stroke: rgb(68, 68, 68); stroke-opacity: 1; fill: rgb(0, 0, 0); fill-opacity: 0.2; stroke-width: 0; opacity: 1;"/><path class="sankey-link" d="M530,875.5152425510955C728,875.5152425510955 728,261.4228638266436 926,261.4228638266436L926,262.31722482147245C728,262.31722482147245 728,876.4096035459245 530,876.4096035459245Z" style="stroke: rgb(0, 0, 0); stroke-opacity: 0.2; fill: rgb(0, 0, 0); fill-opacity: 0.2; stroke-width: 1; opacity: 1;"/><path class="sankey-link" d="M530,918.7799556759416C728,918.7799556759416 728,1021.5823688746618 926,1021.5823688746618L926,1022.3649347451371C728,1022.3649347451371 728,919.5625215464169 530,919.5625215464169Z" style="stroke: rgb(0, 0, 0); stroke-opacity: 0.2; fill: rgb(0, 0, 0); fill-opacity: 0.2; stroke-width: 1; opacity: 1;"/><path class="sankey-link" d="M530,862.5470081260771C728,862.5470081260771 728,90.152327013051 926,90.152327013051L926,90.93489288352626C728,90.93489288352626 728,863.3295739965524 530,863.3295739965524Z" style="stroke: rgb(0, 0, 0); stroke-opacity: 0.2; fill: rgb(0, 0, 0); fill-opacity: 0.2; stroke-width: 1; opacity: 1;"/><path class="sankey-link" d="M530,901.1163260280716C728,901.1163260280716 728,732.9460723959619 926,732.9460723959619L926,733.7286382664372C728,733.7286382664372 728,901.8988918985469 530,901.8988918985469Z" style="stroke: rgb(0, 0, 0); stroke-opacity: 0.2; fill: rgb(0, 0, 0); fill-opacity: 0.2; stroke-width: 1; opacity: 1;"/><path class="sankey-link" d="M530,876.4096035459244C728,876.4096035459244 728,302.84309283427723 926,302.84309283427723L926,303.5138635803989C728,303.5138635803989 728,877.080374292046 530,877.080374292046Z" style="stroke: rgb(0, 0, 0); stroke-opacity: 0.2; fill: rgb(0, 0, 0); fill-opacity: 0.2; stroke-width: 1; opacity: 1;"/><path class="sankey-link" d="M530,902.681457769022C728,902.681457769022 728,885.9349913814337 926,885.9349913814337L926,886.4939670032018C728,886.4939670032018 728,903.24043339079 530,903.24043339079Z" style="stroke: rgb(0, 0, 0); stroke-opacity: 0.2; fill: rgb(0, 0, 0); fill-opacity: 0.2; stroke-width: 1; opacity: 1;"/><path class="sankey-link" d="M530,902.122482147254C728,902.122482147254 728,820.9554296971194 926,820.9554296971194L926,821.5144053188874C728,821.5144053188874 728,902.681457769022 530,902.681457769022Z" style="stroke: rgb(0, 0, 0); stroke-opacity: 0.2; fill: rgb(0, 0, 0); fill-opacity: 0.2; stroke-width: 1; opacity: 1;"/><path class="sankey-link" d="M530,903.24043339079C728,903.24043339079 728,946.4294508741696 926,946.4294508741696L926,946.8766313715839C728,946.8766313715839 728,903.6876138882044 530,903.6876138882044Z" style="stroke: rgb(0, 0, 0); stroke-opacity: 0.2; fill: rgb(0, 0, 0); fill-opacity: 0.2; stroke-width: 1; opacity: 1;"/><path class="sankey-link" d="M530,901.8988918985468C728,901.8988918985468 728,790.1984732824432 926,790.1984732824432L926,790.4220635311505C728,790.4220635311505 728,902.1224821472541 530,902.1224821472541Z" style="stroke: rgb(0, 0, 0); stroke-opacity: 0.2; fill: rgb(0, 0, 0); fill-opacity: 0.2; stroke-width: 1; opacity: 1;"/></g><g class="sankey-node-set" style="cursor: move;"><g class="sankey-node" transform="translate(94.000,0.000)" style="opacity: 1;"><rect class="node-rect" width="20" height="249.86210293031255" style="stroke-width: 0.5; stroke: rgb(68, 68, 68); stroke-opacity: 1; fill: rgb(68, 148, 100); fill-opacity: 1;"/><text class="node-label" data-notex="1" x="0" y="0" text-anchor="start" transform="translate(23.25,129.83105146515626)" style="cursor: default; font-family: 'Open Sans', verdana, arial, sans-serif; font-size: 14px; fill: rgb(5, 28, 44); fill-opacity: 1; text-shadow: rgb(255, 255, 255) 1px 1px 1px, rgb(255, 255, 255) -1px -1px 1px, rgb(255, 255, 255) 1px -1px 1px, rgb(255, 255, 255) -1px 1px 1px; white-space: pre;">global</text></g><g class="sankey-node" transform="translate(94.000,265.862)" style="opacity: 1;"><rect class="node-rect" width="20" height="112.46589509972932" style="stroke-width: 0.5; stroke: rgb(68, 68, 68); stroke-opacity: 1; fill: rgb(128, 57, 30); fill-opacity: 1;"/><text class="node-label" data-notex="1" x="0" y="0" text-anchor="start" transform="translate(23.25,61.13294754986466)" style="cursor: default; font-family: 'Open Sans', verdana, arial, sans-serif; font-size: 14px; fill: rgb(5, 28, 44); fill-opacity: 1; text-shadow: rgb(255, 255, 255) 1px 1px 1px, rgb(255, 255, 255) -1px -1px 1px, rgb(255, 255, 255) 1px -1px 1px, rgb(255, 255, 255) -1px 1px 1px; white-space: pre;">earth</text></g><g class="sankey-node" transform="translate(94.000,394.328)" style="opacity: 1;"><rect class="node-rect" width="20" height="8.04924895345971" style="stroke-width: 0.5; stroke: rgb(68, 68, 68); stroke-opacity: 1; fill: rgb(128, 0, 128); fill-opacity: 1;"/><text class="node-label" data-notex="1" x="0" y="0" text-anchor="start" transform="translate(23.25,8.924624476729853)" style="cursor: default; font-family: 'Open Sans', verdana, arial, sans-serif; font-size: 14px; fill: rgb(5, 28, 44); fill-opacity: 1; text-shadow: rgb(255, 255, 255) 1px 1px 1px, rgb(255, 255, 255) -1px -1px 1px, rgb(255, 255, 255) 1px -1px 1px, rgb(255, 255, 255) -1px 1px 1px; white-space: pre;">ocean</text></g><g class="sankey-node" transform="translate(94.000,418.377)" style="opacity: 1;"><rect class="node-rect" width="20" height="69.20118197488296" style="stroke-width: 0.5; stroke: rgb(68, 68, 68); stroke-opacity: 1; fill: rgb(185, 116, 85); fill-opacity: 1;"/><text class="node-label" data-notex="1" x="0" y="0" text-anchor="start" transform="translate(23.25,39.50059098744148)" style="cursor: default; font-family: 'Open Sans', verdana, arial, sans-serif; font-size: 14px; fill: rgb(5, 28, 44); fill-opacity: 1; text-shadow: rgb(255, 255, 255) 1px 1px 1px, rgb(255, 255, 255) -1px -1px 1px, rgb(255, 255, 255) 1px -1px 1px, rgb(255, 255, 255) -1px 1px 1px; white-space: pre;">water</text></g><g class="sankey-node" transform="translate(94.000,555.716)" style="opacity: 1;"><rect class="node-rect" width="20" height="30.967249445949165" style="stroke-width: 0.5; stroke: rgb(68, 68, 68); stroke-opacity: 1; fill: rgb(224, 123, 57); fill-opacity: 1;"/><text class="node-label" data-notex="1" x="0" y="0" text-anchor="start" transform="translate(23.25,20.38362472297458)" style="cursor: default; font-family: 'Open Sans', verdana, arial, sans-serif; font-size: 14px; fill: rgb(5, 28, 44); fill-opacity: 1; text-shadow: rgb(255, 255, 255) 1px 1px 1px, rgb(255, 255, 255) -1px -1px 1px, rgb(255, 255, 255) 1px -1px 1px, rgb(255, 255, 255) -1px 1px 1px; white-space: pre;">biodiversity</text></g><g class="sankey-node" transform="translate(94.000,625.629)" style="opacity: 1;"><rect class="node-rect" width="20" height="135.94287121398656" style="stroke-width: 0.5; stroke: rgb(68, 68, 68); stroke-opacity: 1; fill: rgb(75, 102, 161); fill-opacity: 1;"/><text class="node-label" data-notex="1" x="0" y="0" text-anchor="start" transform="translate(23.25,72.87143560699329)" style="cursor: default; font-family: 'Open Sans', verdana, arial, sans-serif; font-size: 14px; fill: rgb(5, 28, 44); fill-opacity: 1; text-shadow: rgb(255, 255, 255) 1px 1px 1px, rgb(255, 255, 255) -1px -1px 1px, rgb(255, 255, 255) 1px -1px 1px, rgb(255, 255, 255) -1px 1px 1px; white-space: pre;">urban</text></g><g class="sankey-node" transform="translate(94.000,1103.758)" style="opacity: 1;"><rect class="node-rect" width="20" height="2.794878108840294" style="stroke-width: 0.5; stroke: rgb(68, 68, 68); stroke-opacity: 1; fill: rgb(224, 123, 57); fill-opacity: 1;"/><text class="node-label" data-notex="1" x="0" y="0" text-anchor="start" transform="translate(23.25,6.297439054420146)" style="cursor: default; font-family: 'Open Sans', verdana, arial, sans-serif; font-size: 14px; fill: rgb(5, 28, 44); fill-opacity: 1; text-shadow: rgb(255, 255, 255) 1px 1px 1px, rgb(255, 255, 255) -1px -1px 1px, rgb(255, 255, 255) 1px -1px 1px, rgb(255, 255, 255) -1px 1px 1px; white-space: pre;">comms</text></g><g class="sankey-node" transform="translate(94.000,789.042)" style="opacity: 1;"><rect class="node-rect" width="20" height="298.71657227283913" style="stroke-width: 0.5; stroke: rgb(68, 68, 68); stroke-opacity: 1; fill: rgb(224, 123, 57); fill-opacity: 1;"/><text class="node-label" data-notex="1" x="0" y="0" text-anchor="start" transform="translate(23.25,154.25828613641957)" style="cursor: default; font-family: 'Open Sans', verdana, arial, sans-serif; font-size: 14px; fill: rgb(5, 28, 44); fill-opacity: 1; text-shadow: rgb(255, 255, 255) 1px 1px 1px, rgb(255, 255, 255) -1px -1px 1px, rgb(255, 255, 255) 1px -1px 1px, rgb(255, 255, 255) -1px 1px 1px; white-space: pre;">policy</text></g><g class="sankey-node" transform="translate(510.000,0.000)" style="opacity: 1;"><rect class="node-rect" width="20" height="418.67274070426004" style="stroke-width: 0.5; stroke: rgb(68, 68, 68); stroke-opacity: 1; fill: rgb(26, 140, 255); fill-opacity: 1;"/><text class="node-label" data-notex="1" x="0" y="0" text-anchor="start" transform="translate(23.25,214.23637035213002)" style="cursor: default; font-family: 'Open Sans', verdana, arial, sans-serif; font-size: 14px; fill: rgb(5, 28, 44); fill-opacity: 1; text-shadow: rgb(255, 255, 255) 1px 1px 1px, rgb(255, 255, 255) -1px -1px 1px, rgb(255, 255, 255) 1px -1px 1px, rgb(255, 255, 255) -1px 1px 1px; white-space: pre;">Classic ML</text></g><g class="sankey-node" transform="translate(510.000,434.673)" style="opacity: 1;"><rect class="node-rect" width="20" height="337.62127554789436" style="stroke-width: 0.5; stroke: rgb(68, 68, 68); stroke-opacity: 1; fill: rgb(51, 204, 204); fill-opacity: 1;"/><text class="node-label" data-notex="1" x="0" y="0" text-anchor="start" transform="translate(23.25,173.71063777394718)" style="cursor: default; font-family: 'Open Sans', verdana, arial, sans-serif; font-size: 14px; fill: rgb(5, 28, 44); fill-opacity: 1; text-shadow: rgb(255, 255, 255) 1px 1px 1px, rgb(255, 255, 255) -1px -1px 1px, rgb(255, 255, 255) 1px -1px 1px, rgb(255, 255, 255) -1px 1px 1px; white-space: pre;">Classic DL</text></g><g class="sankey-node" transform="translate(510.000,862.547)" style="opacity: 1;"><rect class="node-rect" width="20" height="151.70598374784595" style="stroke-width: 0.5; stroke: rgb(68, 68, 68); stroke-opacity: 1; fill: rgb(153, 102, 255); fill-opacity: 1;"/><text class="node-label" data-notex="1" x="0" y="0" text-anchor="start" transform="translate(23.25,80.75299187392298)" style="cursor: default; font-family: 'Open Sans', verdana, arial, sans-serif; font-size: 14px; fill: rgb(5, 28, 44); fill-opacity: 1; text-shadow: rgb(255, 255, 255) 1px 1px 1px, rgb(255, 255, 255) -1px -1px 1px, rgb(255, 255, 255) 1px -1px 1px, rgb(255, 255, 255) -1px 1px 1px; white-space: pre;">New AI</text></g><g class="sankey-node" transform="translate(926.000,72.265)" style="opacity: 1;"><rect class="node-rect" width="20" height="18.669785767052417" style="stroke-width: 0.5; stroke: rgb(68, 68, 68); stroke-opacity: 1; fill: rgb(255, 153, 102); fill-opacity: 1;"/><text class="node-label" data-notex="1" x="0" y="0" text-anchor="end" transform="translate(-3.25,14.234892883526207)" style="cursor: default; font-family: 'Open Sans', verdana, arial, sans-serif; font-size: 14px; fill: rgb(5, 28, 44); fill-opacity: 1; text-shadow: rgb(255, 255, 255) 1px 1px 1px, rgb(255, 255, 255) -1px -1px 1px, rgb(255, 255, 255) 1px -1px 1px, rgb(255, 255, 255) -1px 1px 1px; white-space: pre;">ANN</text></g><g class="sankey-node" transform="translate(926.000,107.034)" style="opacity: 1;"><rect class="node-rect" width="20" height="56.23294754986466" style="stroke-width: 0.5; stroke: rgb(68, 68, 68); stroke-opacity: 1; fill: rgb(102, 178, 102); fill-opacity: 1;"/><text class="node-label" data-notex="1" x="0" y="0" text-anchor="end" transform="translate(-3.25,33.01647377493233)" style="cursor: default; font-family: 'Open Sans', verdana, arial, sans-serif; font-size: 14px; fill: rgb(5, 28, 44); fill-opacity: 1; text-shadow: rgb(255, 255, 255) 1px 1px 1px, rgb(255, 255, 255) -1px -1px 1px, rgb(255, 255, 255) 1px -1px 1px, rgb(255, 255, 255) -1px 1px 1px; white-space: pre;">CNN</text></g><g class="sankey-node" transform="translate(926.000,183.893)" style="opacity: 1;"><rect class="node-rect" width="20" height="9.614380694410329" style="stroke-width: 0.5; stroke: rgb(68, 68, 68); stroke-opacity: 1; fill: rgb(68, 148, 100); fill-opacity: 1;"/><text class="node-label" data-notex="1" x="0" y="0" text-anchor="end" transform="translate(-3.25,9.707190347205163)" style="cursor: default; font-family: 'Open Sans', verdana, arial, sans-serif; font-size: 14px; fill: rgb(5, 28, 44); fill-opacity: 1; text-shadow: rgb(255, 255, 255) 1px 1px 1px, rgb(255, 255, 255) -1px -1px 1px, rgb(255, 255, 255) 1px -1px 1px, rgb(255, 255, 255) -1px 1px 1px; white-space: pre;">LLM</text></g><g class="sankey-node" transform="translate(926.000,222.183)" style="opacity: 1;"><rect class="node-rect" width="20" height="40.134449642945356" style="stroke-width: 0.5; stroke: rgb(68, 68, 68); stroke-opacity: 1; fill: rgb(128, 57, 30); fill-opacity: 1;"/><text class="node-label" data-notex="1" x="0" y="0" text-anchor="end" transform="translate(-3.25,24.967224821472676)" style="cursor: default; font-family: 'Open Sans', verdana, arial, sans-serif; font-size: 14px; fill: rgb(5, 28, 44); fill-opacity: 1; text-shadow: rgb(255, 255, 255) 1px 1px 1px, rgb(255, 255, 255) -1px -1px 1px, rgb(255, 255, 255) 1px -1px 1px, rgb(255, 255, 255) -1px 1px 1px; white-space: pre;">LSTM</text></g><g class="sankey-node" transform="translate(926.000,288.086)" style="opacity: 1;"><rect class="node-rect" width="20" height="15.427727160797986" style="stroke-width: 0.5; stroke: rgb(68, 68, 68); stroke-opacity: 1; fill: rgb(128, 0, 128); fill-opacity: 1;"/><text class="node-label" data-notex="1" x="0" y="0" text-anchor="end" transform="translate(-3.25,12.613863580398991)" style="cursor: default; font-family: 'Open Sans', verdana, arial, sans-serif; font-size: 14px; fill: rgb(5, 28, 44); fill-opacity: 1; text-shadow: rgb(255, 255, 255) 1px 1px 1px, rgb(255, 255, 255) -1px -1px 1px, rgb(255, 255, 255) 1px -1px 1px, rgb(255, 255, 255) -1px 1px 1px; white-space: pre;">classification</text></g><g class="sankey-node" transform="translate(926.000,340.462)" style="opacity: 1;"><rect class="node-rect" width="20" height="17.775424772223687" style="stroke-width: 0.5; stroke: rgb(68, 68, 68); stroke-opacity: 1; fill: rgb(185, 116, 85); fill-opacity: 1;"/><text class="node-label" data-notex="1" x="0" y="0" text-anchor="end" transform="translate(-3.25,13.787712386111842)" style="cursor: default; font-family: 'Open Sans', verdana, arial, sans-serif; font-size: 14px; fill: rgb(5, 28, 44); fill-opacity: 1; text-shadow: rgb(255, 255, 255) 1px 1px 1px, rgb(255, 255, 255) -1px -1px 1px, rgb(255, 255, 255) 1px -1px 1px, rgb(255, 255, 255) -1px 1px 1px; white-space: pre;">decision tree</text></g><g class="sankey-node" transform="translate(926.000,396.863)" style="opacity: 1;"><rect class="node-rect" width="20" height="12.073873430189678" style="stroke-width: 0.5; stroke: rgb(68, 68, 68); stroke-opacity: 1; fill: rgb(224, 123, 57); fill-opacity: 1;"/><text class="node-label" data-notex="1" x="0" y="0" text-anchor="end" transform="translate(-3.25,10.936936715094838)" style="cursor: default; font-family: 'Open Sans', verdana, arial, sans-serif; font-size: 14px; fill: rgb(5, 28, 44); fill-opacity: 1; text-shadow: rgb(255, 255, 255) 1px 1px 1px, rgb(255, 255, 255) -1px -1px 1px, rgb(255, 255, 255) 1px -1px 1px, rgb(255, 255, 255) -1px 1px 1px; white-space: pre;">foundation model</text></g><g class="sankey-node" transform="translate(926.000,601.462)" style="opacity: 1;"><rect class="node-rect" width="20" height="20.346712632356912" style="stroke-width: 0.5; stroke: rgb(68, 68, 68); stroke-opacity: 1; fill: rgb(75, 102, 161); fill-opacity: 1;"/><text class="node-label" data-notex="1" x="0" y="0" text-anchor="end" transform="translate(-3.25,15.073356316178455)" style="cursor: default; font-family: 'Open Sans', verdana, arial, sans-serif; font-size: 14px; fill: rgb(5, 28, 44); fill-opacity: 1; text-shadow: rgb(255, 255, 255) 1px 1px 1px, rgb(255, 255, 255) -1px -1px 1px, rgb(255, 255, 255) 1px -1px 1px, rgb(255, 255, 255) -1px 1px 1px; white-space: pre;">machine learning</text></g><g class="sankey-node" transform="translate(926.000,434.538)" style="opacity: 1;"><rect class="node-rect" width="20" height="150.9234178773699" style="stroke-width: 0.5; stroke: rgb(68, 68, 68); stroke-opacity: 1; fill: rgb(224, 123, 57); fill-opacity: 1;"/><text class="node-label" data-notex="1" x="0" y="0" text-anchor="end" transform="translate(-3.25,80.36170893868496)" style="cursor: default; font-family: 'Open Sans', verdana, arial, sans-serif; font-size: 14px; fill: rgb(5, 28, 44); fill-opacity: 1; text-shadow: rgb(255, 255, 255) 1px 1px 1px, rgb(255, 255, 255) -1px -1px 1px, rgb(255, 255, 255) 1px -1px 1px, rgb(255, 255, 255) -1px 1px 1px; white-space: pre;">neural network</text></g><g class="sankey-node" transform="translate(926.000,637.808)" style="opacity: 1;"><rect class="node-rect" width="20" height="95.92021669539531" style="stroke-width: 0.5; stroke: rgb(68, 68, 68); stroke-opacity: 1; fill: rgb(224, 123, 57); fill-opacity: 1;"/><text class="node-label" data-notex="1" x="0" y="0" text-anchor="end" transform="translate(-3.25,52.860108347697654)" style="cursor: default; font-family: 'Open Sans', verdana, arial, sans-serif; font-size: 14px; fill: rgb(5, 28, 44); fill-opacity: 1; text-shadow: rgb(255, 255, 255) 1px 1px 1px, rgb(255, 255, 255) -1px -1px 1px, rgb(255, 255, 255) 1px -1px 1px, rgb(255, 255, 255) -1px 1px 1px; white-space: pre;">random forest</text></g><g class="sankey-node" transform="translate(926.000,749.729)" style="opacity: 1;"><rect class="node-rect" width="20" height="40.69342526471314" style="stroke-width: 0.5; stroke: rgb(68, 68, 68); stroke-opacity: 1; fill: rgb(26, 140, 255); fill-opacity: 1;"/><text class="node-label" data-notex="1" x="0" y="0" text-anchor="end" transform="translate(-3.25,25.24671263235657)" style="cursor: default; font-family: 'Open Sans', verdana, arial, sans-serif; font-size: 14px; fill: rgb(5, 28, 44); fill-opacity: 1; text-shadow: rgb(255, 255, 255) 1px 1px 1px, rgb(255, 255, 255) -1px -1px 1px, rgb(255, 255, 255) 1px -1px 1px, rgb(255, 255, 255) -1px 1px 1px; white-space: pre;">regression</text></g><g class="sankey-node" transform="translate(926.000,806.422)" style="opacity: 1;"><rect class="node-rect" width="20" height="15.092341787737041" style="stroke-width: 0.5; stroke: rgb(68, 68, 68); stroke-opacity: 1; fill: rgb(51, 204, 204); fill-opacity: 1;"/><text class="node-label" data-notex="1" x="0" y="0" text-anchor="end" transform="translate(-3.25,12.44617089386852)" style="cursor: default; font-family: 'Open Sans', verdana, arial, sans-serif; font-size: 14px; fill: rgb(5, 28, 44); fill-opacity: 1; text-shadow: rgb(255, 255, 255) 1px 1px 1px, rgb(255, 255, 255) -1px -1px 1px, rgb(255, 255, 255) 1px -1px 1px, rgb(255, 255, 255) -1px 1px 1px; white-space: pre;">reinforcement learning</text></g><g class="sankey-node" transform="translate(926.000,837.514)" style="opacity: 1;"><rect class="node-rect" width="20" height="12.968234425018636" style="stroke-width: 0.5; stroke: rgb(68, 68, 68); stroke-opacity: 1; fill: rgb(153, 102, 255); fill-opacity: 1;"/><text class="node-label" data-notex="1" x="0" y="0" text-anchor="end" transform="translate(-3.25,11.384117212509317)" style="cursor: default; font-family: 'Open Sans', verdana, arial, sans-serif; font-size: 14px; fill: rgb(5, 28, 44); fill-opacity: 1; text-shadow: rgb(255, 255, 255) 1px 1px 1px, rgb(255, 255, 255) -1px -1px 1px, rgb(255, 255, 255) 1px -1px 1px, rgb(255, 255, 255) -1px 1px 1px; white-space: pre;">statistical method</text></g><g class="sankey-node" transform="translate(926.000,866.483)" style="opacity: 1;"><rect class="node-rect" width="20" height="20.01132725929574" style="stroke-width: 0.5; stroke: rgb(68, 68, 68); stroke-opacity: 1; fill: rgb(255, 153, 102); fill-opacity: 1;"/><text class="node-label" data-notex="1" x="0" y="0" text-anchor="end" transform="translate(-3.25,14.905663629647869)" style="cursor: default; font-family: 'Open Sans', verdana, arial, sans-serif; font-size: 14px; fill: rgb(5, 28, 44); fill-opacity: 1; text-shadow: rgb(255, 255, 255) 1px 1px 1px, rgb(255, 255, 255) -1px -1px 1px, rgb(255, 255, 255) 1px -1px 1px, rgb(255, 255, 255) -1px 1px 1px; white-space: pre;">supervised learning</text></g><g class="sankey-node" transform="translate(926.000,902.494)" style="opacity: 1;"><rect class="node-rect" width="20" height="44.382664368382166" style="stroke-width: 0.5; stroke: rgb(68, 68, 68); stroke-opacity: 1; fill: rgb(102, 178, 102); fill-opacity: 1;"/><text class="node-label" data-notex="1" x="0" y="0" text-anchor="end" transform="translate(-3.25,27.09133218419108)" style="cursor: default; font-family: 'Open Sans', verdana, arial, sans-serif; font-size: 14px; fill: rgb(5, 28, 44); fill-opacity: 1; text-shadow: rgb(255, 255, 255) 1px 1px 1px, rgb(255, 255, 255) -1px -1px 1px, rgb(255, 255, 255) 1px -1px 1px, rgb(255, 255, 255) -1px 1px 1px; white-space: pre;">support vector machine</text></g><g class="sankey-node" transform="translate(926.000,962.877)" style="opacity: 1;"><rect class="node-rect" width="20" height="26.49544447180483" style="stroke-width: 0.5; stroke: rgb(68, 68, 68); stroke-opacity: 1; fill: rgb(68, 148, 100); fill-opacity: 1;"/><text class="node-label" data-notex="1" x="0" y="0" text-anchor="end" transform="translate(-3.25,18.147722235902414)" style="cursor: default; font-family: 'Open Sans', verdana, arial, sans-serif; font-size: 14px; fill: rgb(5, 28, 44); fill-opacity: 1; text-shadow: rgb(255, 255, 255) 1px 1px 1px, rgb(255, 255, 255) -1px -1px 1px, rgb(255, 255, 255) 1px -1px 1px, rgb(255, 255, 255) -1px 1px 1px; white-space: pre;">transformer</text></g><g class="sankey-node" transform="translate(926.000,1005.372)" style="opacity: 1;"><rect class="node-rect" width="20" height="16.992858901748377" style="stroke-width: 0.5; stroke: rgb(68, 68, 68); stroke-opacity: 1; fill: rgb(128, 57, 30); fill-opacity: 1;"/><text class="node-label" data-notex="1" x="0" y="0" text-anchor="end" transform="translate(-3.25,13.396429450874187)" style="cursor: default; font-family: 'Open Sans', verdana, arial, sans-serif; font-size: 14px; fill: rgb(5, 28, 44); fill-opacity: 1; text-shadow: rgb(255, 255, 255) 1px 1px 1px, rgb(255, 255, 255) -1px -1px 1px, rgb(255, 255, 255) 1px -1px 1px, rgb(255, 255, 255) -1px 1px 1px; white-space: pre;">unet</text></g></g></g><defs id="topdefs-35ef91"><g class="clips"/></defs><g class="layer-above"><g class="imagelayer"/><g class="shapelayer"/></g><g class="infolayer"><g class="g-gtitle"><text class="gtitle" x="60" y="50" text-anchor="start" dy="0em" style="opacity: 1; font-family: 'Open Sans', verdana, arial, sans-serif; font-size: 20px; fill: rgb(5, 28, 44); fill-opacity: 1; white-space: pre;">Sankey: Issue Area → AI_gen → Method (fixed order, custom x/y)</text></g><g class="first-render"/></g></svg>