<?xml version="1.0" encoding="UTF-8" standalone="no"?>
<svg
   xmlns:dc="http://purl.org/dc/elements/1.1/"
   xmlns:cc="http://creativecommons.org/ns#"
   xmlns:rdf="http://www.w3.org/1999/02/22-rdf-syntax-ns#"
   xmlns:svg="http://www.w3.org/2000/svg"
   xmlns="http://www.w3.org/2000/svg"
   xmlns:sodipodi="http://sodipodi.sourceforge.net/DTD/sodipodi-0.dtd"
   xmlns:inkscape="http://www.inkscape.org/namespaces/inkscape"
   class="svglite"
   width="1008.00pt"
   height="864.00pt"
   viewBox="0 0 1008.00 864.00"
   version="1.1"
   id="svg104"
   sodipodi:docname="keyword_network_comms.svg"
   inkscape:export-filename="/home/erikz/SRC/AI/Deep_mind_roundtable/Lit search/lit_review_deepmind/plots/final_new_networks/keyword_network_comms.png"
   inkscape:export-xdpi="150"
   inkscape:export-ydpi="150"
   inkscape:version="0.92.5 (2060ec1f9f, 2020-04-08)">
  <metadata
     id="metadata108">
    <rdf:RDF>
      <cc:Work
         rdf:about="">
        <dc:format>image/svg+xml</dc:format>
        <dc:type
           rdf:resource="http://purl.org/dc/dcmitype/StillImage" />
      </cc:Work>
    </rdf:RDF>
  </metadata>
  <sodipodi:namedview
     pagecolor="#ffffff"
     bordercolor="#666666"
     borderopacity="1"
     objecttolerance="10"
     gridtolerance="10"
     guidetolerance="10"
     inkscape:pageopacity="0"
     inkscape:pageshadow="2"
     inkscape:window-width="1848"
     inkscape:window-height="1016"
     id="namedview106"
     showgrid="false"
     inkscape:zoom="0.20486111"
     inkscape:cx="672"
     inkscape:cy="576"
     inkscape:window-x="72"
     inkscape:window-y="27"
     inkscape:window-maximized="1"
     inkscape:current-layer="svg104" />
  <defs
     id="defs4">
    <style
       type="text/css"
       id="style2"><![CDATA[
    .svglite line, .svglite polyline, .svglite polygon, .svglite path, .svglite rect, .svglite circle {
      fill: none;
      stroke: #000000;
      stroke-linecap: round;
      stroke-linejoin: round;
      stroke-miterlimit: 10.00;
    }
    .svglite text {
      white-space: pre;
    }
  ]]></style>
  </defs>
  <rect
     width="100%"
     height="100%"
     style="stroke: none; fill: none;"
     id="rect6" />
  <defs
     id="defs11">
    <clipPath
       id="cpMC4wMHwxMDA4LjAwfDAuMDB8ODY0LjAw">
      <rect
         x="0.00"
         y="0.00"
         width="1008.00"
         height="864.00"
         id="rect8" />
    </clipPath>
  </defs>
  <g
     clip-path="url(#cpMC4wMHwxMDA4LjAwfDAuMDB8ODY0LjAw)"
     id="g13" />
  <defs
     id="defs18">
    <clipPath
       id="cpNTYuNjl8OTUxLjMxfDczLjc1fDgwNy4zMQ==">
      <rect
         x="56.69"
         y="73.75"
         width="894.61"
         height="733.56"
         id="rect15" />
    </clipPath>
  </defs>
  <g
     clip-path="url(#cpNTYuNjl8OTUxLjMxfDczLjc1fDgwNy4zMQ==)"
     id="g98">
    <rect
       x="56.69"
       y="73.75"
       width="894.61"
       height="733.56"
       style="stroke-width: 0.75; stroke: none; fill: #FFFFFF;"
       id="rect20" />
    <polyline
       points="860.11,543.88 860.62,541.98 861.13,540.09 861.64,538.19 862.15,536.29 862.66,534.39 863.18,532.50 863.69,530.60 864.20,528.70 864.71,526.80 865.22,524.91 865.73,523.01 866.24,521.11 866.75,519.21 867.26,517.32 867.77,515.42 868.28,513.52 868.79,511.62 869.30,509.73 869.81,507.83 870.32,505.93 870.83,504.03 871.34,502.14 871.85,500.24 872.36,498.34 872.87,496.44 873.38,494.55 873.89,492.65 874.40,490.75 874.91,488.85 875.43,486.96 875.94,485.06 876.45,483.16 876.96,481.26 877.47,479.37 877.98,477.47 878.49,475.57 879.00,473.67 879.51,471.78 880.02,469.88 880.53,467.98 881.04,466.08 881.55,464.19 882.06,462.29 882.57,460.39 883.08,458.49 883.59,456.60 884.10,454.70 884.61,452.80 885.12,450.90 885.63,449.01 886.14,447.11 886.65,445.21 887.16,443.31 887.67,441.42 888.19,439.52 888.70,437.62 889.21,435.72 889.72,433.83 890.23,431.93 890.74,430.03 891.25,428.14 891.76,426.24 892.27,424.34 892.78,422.44 893.29,420.55 893.80,418.65 894.31,416.75 894.82,414.85 895.33,412.96 895.84,411.06 896.35,409.16 896.86,407.26 897.37,405.37 897.88,403.47 898.39,401.57 898.90,399.67 899.41,397.78 899.92,395.88 900.43,393.98 900.95,392.08 901.46,390.19 901.97,388.29 902.48,386.39 902.99,384.49 903.50,382.60 904.01,380.70 904.52,378.80 905.03,376.90 905.54,375.01 906.05,373.11 906.56,371.21 907.07,369.31 907.58,367.42 908.09,365.52 908.60,363.62 909.11,361.72 909.62,359.83 910.13,357.93 910.64,356.03 "
       style="stroke-width: 6.40; stroke: #666666; stroke-opacity: 0.40; stroke-linecap: butt;"
       id="polyline22" />
    <polyline
       points="860.11,543.88 859.09,546.13 858.07,548.38 857.04,550.63 856.02,552.89 855.00,555.14 853.97,557.39 852.95,559.64 851.93,561.89 850.90,564.14 849.88,566.39 848.85,568.64 847.83,570.90 846.81,573.15 845.78,575.40 844.76,577.65 843.74,579.90 842.71,582.15 841.69,584.40 840.67,586.66 839.64,588.91 838.62,591.16 837.60,593.41 836.57,595.66 835.55,597.91 834.53,600.16 833.50,602.41 832.48,604.67 831.46,606.92 830.43,609.17 829.41,611.42 828.39,613.67 827.36,615.92 826.34,618.17 825.32,620.43 824.29,622.68 823.27,624.93 822.24,627.18 821.22,629.43 820.20,631.68 819.17,633.93 818.15,636.18 817.13,638.44 816.10,640.69 815.08,642.94 814.06,645.19 813.03,647.44 812.01,649.69 810.99,651.94 809.96,654.20 808.94,656.45 807.92,658.70 806.89,660.95 805.87,663.20 804.85,665.45 803.82,667.70 802.80,669.95 801.78,672.21 800.75,674.46 799.73,676.71 798.70,678.96 797.68,681.21 796.66,683.46 795.63,685.71 794.61,687.97 793.59,690.22 792.56,692.47 791.54,694.72 790.52,696.97 789.49,699.22 788.47,701.47 787.45,703.72 786.42,705.98 785.40,708.23 784.38,710.48 783.35,712.73 782.33,714.98 781.31,717.23 780.28,719.48 779.26,721.74 778.24,723.99 777.21,726.24 776.19,728.49 775.17,730.74 774.14,732.99 773.12,735.24 772.09,737.49 771.07,739.75 770.05,742.00 769.02,744.25 768.00,746.50 766.98,748.75 765.95,751.00 764.93,753.25 763.91,755.50 762.88,757.76 761.86,760.01 760.84,762.26 759.81,764.51 758.79,766.76 "
       style="stroke-width: 1.07; stroke: #666666; stroke-opacity: 0.40; stroke-linecap: butt;"
       id="polyline24" />
    <polyline
       points="309.54,350.60 311.54,348.59 313.54,346.57 315.54,344.55 317.54,342.53 319.55,340.52 321.55,338.50 323.55,336.48 325.55,334.47 327.55,332.45 329.55,330.43 331.55,328.41 333.56,326.40 335.56,324.38 337.56,322.36 339.56,320.34 341.56,318.33 343.56,316.31 345.56,314.29 347.57,312.27 349.57,310.26 351.57,308.24 353.57,306.22 355.57,304.20 357.57,302.19 359.58,300.17 361.58,298.15 363.58,296.13 365.58,294.12 367.58,292.10 369.58,290.08 371.58,288.06 373.59,286.05 375.59,284.03 377.59,282.01 379.59,280.00 381.59,277.98 383.59,275.96 385.60,273.94 387.60,271.93 389.60,269.91 391.60,267.89 393.60,265.87 395.60,263.86 397.60,261.84 399.61,259.82 401.61,257.80 403.61,255.79 405.61,253.77 407.61,251.75 409.61,249.73 411.61,247.72 413.62,245.70 415.62,243.68 417.62,241.66 419.62,239.65 421.62,237.63 423.62,235.61 425.63,233.60 427.63,231.58 429.63,229.56 431.63,227.54 433.63,225.53 435.63,223.51 437.63,221.49 439.64,219.47 441.64,217.46 443.64,215.44 445.64,213.42 447.64,211.40 449.64,209.39 451.64,207.37 453.65,205.35 455.65,203.33 457.65,201.32 459.65,199.30 461.65,197.28 463.65,195.26 465.66,193.25 467.66,191.23 469.66,189.21 471.66,187.19 473.66,185.18 475.66,183.16 477.66,181.14 479.67,179.13 481.67,177.11 483.67,175.09 485.67,173.07 487.67,171.06 489.67,169.04 491.68,167.02 493.68,165.00 495.68,162.99 497.68,160.97 499.68,158.95 501.68,156.93 503.68,154.92 505.69,152.90 507.69,150.88 "
       style="stroke-width: 1.07; stroke: #666666; stroke-opacity: 0.40; stroke-linecap: butt;"
       id="polyline26" />
    <polyline
       points="309.54,350.60 307.39,351.95 305.25,353.30 303.11,354.65 300.96,356.00 298.82,357.34 296.68,358.69 294.53,360.04 292.39,361.39 290.25,362.74 288.11,364.08 285.96,365.43 283.82,366.78 281.68,368.13 279.53,369.48 277.39,370.82 275.25,372.17 273.10,373.52 270.96,374.87 268.82,376.22 266.67,377.56 264.53,378.91 262.39,380.26 260.24,381.61 258.10,382.96 255.96,384.30 253.81,385.65 251.67,387.00 249.53,388.35 247.38,389.70 245.24,391.04 243.10,392.39 240.95,393.74 238.81,395.09 236.67,396.44 234.52,397.78 232.38,399.13 230.24,400.48 228.09,401.83 225.95,403.18 223.81,404.52 221.66,405.87 219.52,407.22 217.38,408.57 215.24,409.92 213.09,411.26 210.95,412.61 208.81,413.96 206.66,415.31 204.52,416.66 202.38,418.00 200.23,419.35 198.09,420.70 195.95,422.05 193.80,423.40 191.66,424.74 189.52,426.09 187.37,427.44 185.23,428.79 183.09,430.14 180.94,431.48 178.80,432.83 176.66,434.18 174.51,435.53 172.37,436.88 170.23,438.22 168.08,439.57 165.94,440.92 163.80,442.27 161.65,443.62 159.51,444.96 157.37,446.31 155.22,447.66 153.08,449.01 150.94,450.36 148.79,451.70 146.65,453.05 144.51,454.40 142.37,455.75 140.22,457.10 138.08,458.44 135.94,459.79 133.79,461.14 131.65,462.49 129.51,463.84 127.36,465.19 125.22,466.53 123.08,467.88 120.93,469.23 118.79,470.58 116.65,471.93 114.50,473.27 112.36,474.62 110.22,475.97 108.07,477.32 105.93,478.67 103.79,480.01 101.64,481.36 99.50,482.71 97.36,484.06 "
       style="stroke-width: 1.07; stroke: #666666; stroke-opacity: 0.40; stroke-linecap: butt;"
       id="polyline28" />
    <polyline
       points="309.54,350.60 309.81,353.48 310.09,356.36 310.36,359.24 310.64,362.11 310.91,364.99 311.19,367.87 311.46,370.74 311.74,373.62 312.01,376.50 312.29,379.37 312.56,382.25 312.84,385.13 313.11,388.00 313.39,390.88 313.66,393.76 313.94,396.64 314.21,399.51 314.49,402.39 314.77,405.27 315.04,408.14 315.32,411.02 315.59,413.90 315.87,416.77 316.14,419.65 316.42,422.53 316.69,425.41 316.97,428.28 317.24,431.16 317.52,434.04 317.79,436.91 318.07,439.79 318.34,442.67 318.62,445.54 318.89,448.42 319.17,451.30 319.44,454.17 319.72,457.05 319.99,459.93 320.27,462.81 320.54,465.68 320.82,468.56 321.09,471.44 321.37,474.31 321.64,477.19 321.92,480.07 322.19,482.94 322.47,485.82 322.74,488.70 323.02,491.57 323.29,494.45 323.57,497.33 323.84,500.21 324.12,503.08 324.39,505.96 324.67,508.84 324.95,511.71 325.22,514.59 325.50,517.47 325.77,520.34 326.05,523.22 326.32,526.10 326.60,528.97 326.87,531.85 327.15,534.73 327.42,537.61 327.70,540.48 327.97,543.36 328.25,546.24 328.52,549.11 328.80,551.99 329.07,554.87 329.35,557.74 329.62,560.62 329.90,563.50 330.17,566.38 330.45,569.25 330.72,572.13 331.00,575.01 331.27,577.88 331.55,580.76 331.82,583.64 332.10,586.51 332.37,589.39 332.65,592.27 332.92,595.14 333.20,598.02 333.47,600.90 333.75,603.78 334.02,606.65 334.30,609.53 334.57,612.41 334.85,615.28 335.13,618.16 335.40,621.04 335.68,623.91 335.95,626.79 336.23,629.67 336.50,632.54 336.78,635.42 "
       style="stroke-width: 1.07; stroke: #666666; stroke-opacity: 0.40; stroke-linecap: butt;"
       id="polyline30" />
    <polyline
       points="309.54,350.60 308.74,348.14 307.94,345.69 307.13,343.23 306.33,340.77 305.53,338.31 304.73,335.85 303.93,333.39 303.13,330.93 302.33,328.47 301.53,326.01 300.73,323.55 299.93,321.09 299.13,318.63 298.32,316.17 297.52,313.71 296.72,311.25 295.92,308.79 295.12,306.33 294.32,303.87 293.52,301.41 292.72,298.95 291.92,296.49 291.12,294.03 290.32,291.57 289.51,289.11 288.71,286.65 287.91,284.19 287.11,281.73 286.31,279.27 285.51,276.81 284.71,274.35 283.91,271.89 283.11,269.43 282.31,266.97 281.51,264.51 280.70,262.06 279.90,259.60 279.10,257.14 278.30,254.68 277.50,252.22 276.70,249.76 275.90,247.30 275.10,244.84 274.30,242.38 273.50,239.92 272.70,237.46 271.89,235.00 271.09,232.54 270.29,230.08 269.49,227.62 268.69,225.16 267.89,222.70 267.09,220.24 266.29,217.78 265.49,215.32 264.69,212.86 263.89,210.40 263.09,207.94 262.28,205.48 261.48,203.02 260.68,200.56 259.88,198.10 259.08,195.64 258.28,193.18 257.48,190.72 256.68,188.26 255.88,185.80 255.08,183.34 254.28,180.88 253.47,178.43 252.67,175.97 251.87,173.51 251.07,171.05 250.27,168.59 249.47,166.13 248.67,163.67 247.87,161.21 247.07,158.75 246.27,156.29 245.47,153.83 244.66,151.37 243.86,148.91 243.06,146.45 242.26,143.99 241.46,141.53 240.66,139.07 239.86,136.61 239.06,134.15 238.26,131.69 237.46,129.23 236.66,126.77 235.85,124.31 235.05,121.85 234.25,119.39 233.45,116.93 232.65,114.47 231.85,112.01 231.05,109.55 230.25,107.09 "
       style="stroke-width: 1.07; stroke: #666666; stroke-opacity: 0.40; stroke-linecap: butt;"
       id="polyline32" />
    <circle
       cx="860.11"
       cy="543.88"
       r="14.01"
       style="stroke-width: 0.71; fill: #449464;"
       id="circle34" />
    <circle
       cx="309.54"
       cy="350.60"
       r="16.36"
       style="stroke-width: 0.71; fill: #449464;"
       id="circle36" />
    <circle
       cx="910.64"
       cy="356.03"
       r="10.95"
       style="stroke-width: 0.71; fill: #F7BE8A;"
       id="circle38" />
    <circle
       cx="758.79"
       cy="766.76"
       r="3.56"
       style="stroke-width: 0.71; fill: #F7BE8A;"
       id="circle40" />
    <circle
       cx="507.69"
       cy="150.88"
       r="3.56"
       style="stroke-width: 0.71; fill: #F7BE8A;"
       id="circle42" />
    <circle
       cx="97.36"
       cy="484.06"
       r="3.56"
       style="stroke-width: 0.71; fill: #F7BE8A;"
       id="circle44" />
    <circle
       cx="336.78"
       cy="635.42"
       r="3.56"
       style="stroke-width: 0.71; fill: #F7BE8A;"
       id="circle46" />
    <circle
       cx="230.25"
       cy="107.09"
       r="3.56"
       style="stroke-width: 0.71; fill: #F7BE8A;"
       id="circle48" />
    <polyline
       points="841.09,562.65 841.11,562.65 841.18,562.62 841.31,562.56 841.47,562.47 841.69,562.32 842.00,562.10 842.40,561.81 842.86,561.47 843.40,561.05 844.02,560.54 844.67,559.98 845.28,559.42 845.86,558.89 846.50,558.28 847.22,557.57 847.97,556.81 848.67,556.08 849.32,555.38 850.04,554.61 850.83,553.73 851.67,552.78 852.60,551.70 853.66,550.44 854.51,549.45 854.70,549.23 "
       style="stroke-width: 1.71; stroke: #4D4D4D; stroke-opacity: 0.60;"
       id="polyline50" />
    <polyline
       points="290.49,369.41 290.50,369.41 290.58,369.38 290.70,369.32 290.86,369.22 291.08,369.08 291.39,368.85 291.79,368.56 292.25,368.22 292.79,367.81 293.42,367.30 294.07,366.73 294.68,366.17 295.26,365.63 295.91,365.02 296.63,364.31 297.38,363.55 298.08,362.82 298.73,362.12 299.45,361.35 300.25,360.46 301.08,359.51 302.02,358.43 303.09,357.17 303.93,356.17 304.12,355.95 "
       style="stroke-width: 1.71; stroke: #4D4D4D; stroke-opacity: 0.60;"
       id="polyline52" />
    <polyline
       points="916.92,337.19 916.88,337.22 916.70,337.35 916.48,337.52 916.28,337.67 916.09,337.83 915.89,338.00 915.71,338.17 915.54,338.33 915.34,338.51 915.12,338.72 914.90,338.95 914.69,339.17 914.49,339.38 914.28,339.61 914.04,339.88 913.79,340.17 913.57,340.53 913.37,340.99 913.20,341.59 913.07,342.35 912.99,343.30 912.94,344.69 912.90,346.63 912.88,348.52 912.88,349.30 912.88,349.33 "
       style="stroke-width: 1.71; stroke: #4D4D4D; stroke-opacity: 0.60;"
       id="polyline54" />
    <polyline
       points="777.84,747.95 777.83,747.95 777.75,747.98 777.63,748.04 777.47,748.13 777.25,748.28 776.94,748.50 776.54,748.80 776.08,749.14 775.54,749.55 774.92,750.06 774.27,750.63 773.65,751.19 773.07,751.73 772.42,752.34 771.70,753.05 770.95,753.81 770.25,754.54 769.60,755.24 768.88,756.01 768.08,756.90 767.24,757.85 766.31,758.94 765.24,760.20 764.40,761.19 764.20,761.41 "
       style="stroke-width: 1.71; stroke: #4D4D4D; stroke-opacity: 0.60;"
       id="polyline56" />
    <polyline
       points="495.04,176.35 495.14,176.29 495.55,175.98 496.07,175.59 496.53,175.23 496.98,174.87 497.43,174.47 497.87,174.08 498.27,173.70 498.72,173.28 499.23,172.78 499.76,172.24 500.25,171.73 500.71,171.24 501.21,170.69 501.77,170.07 502.35,169.40 502.88,168.68 503.34,167.87 503.73,166.93 504.04,165.84 504.21,164.75 504.33,163.28 504.41,161.27 504.47,159.05 504.49,157.59 504.49,157.32 "
       style="stroke-width: 1.71; stroke: #4D4D4D; stroke-opacity: 0.60;"
       id="polyline58" />
    <polyline
       points="105.23,509.26 105.23,508.97 105.22,507.46 105.21,504.97 105.19,502.50 105.16,500.58 105.12,499.22 105.09,498.48 104.99,497.39 104.87,496.59 104.72,496.04 104.54,495.67 104.32,495.38 104.08,495.10 103.84,494.83 103.61,494.59 103.35,494.31 103.04,494.00 102.72,493.68 102.40,493.38 102.11,493.10 101.77,492.79 101.39,492.45 100.99,492.09 100.52,491.69 99.98,491.23 99.56,490.87 99.46,490.79 "
       style="stroke-width: 1.71; stroke: #4D4D4D; stroke-opacity: 0.60;"
       id="polyline60" />
    <polyline
       points="355.83,616.62 355.81,616.63 355.74,616.65 355.61,616.71 355.45,616.81 355.23,616.96 354.92,617.18 354.52,617.47 354.06,617.81 353.52,618.23 352.90,618.74 352.24,619.30 351.63,619.86 351.05,620.40 350.41,621.01 349.68,621.72 348.93,622.48 348.23,623.21 347.58,623.90 346.86,624.68 346.06,625.57 345.23,626.52 344.30,627.60 343.23,628.86 342.38,629.85 342.19,630.08 "
       style="stroke-width: 1.71; stroke: #4D4D4D; stroke-opacity: 0.60;"
       id="polyline62" />
    <polyline
       points="249.09,100.88 248.74,100.88 247.18,100.88 245.25,100.90 243.84,100.92 242.92,100.96 242.84,100.97 242.20,101.03 241.73,101.10 241.40,101.20 241.17,101.31 240.99,101.45 240.82,101.60 240.65,101.75 240.50,101.89 240.32,102.06 240.13,102.25 239.93,102.45 239.74,102.65 239.56,102.84 239.37,103.05 239.15,103.29 238.93,103.54 238.68,103.83 238.39,104.17 238.16,104.44 238.11,104.50 "
       style="stroke-width: 1.71; stroke: #4D4D4D; stroke-opacity: 0.60;"
       id="polyline64" />
    <polygon
       points="788.97,581.16 862.90,581.16 862.82,581.15 863.16,581.14 863.51,581.07 863.83,580.95 864.13,580.77 864.40,580.55 864.63,580.29 864.82,580.00 864.95,579.68 865.04,579.34 865.06,579.00 865.06,579.00 865.06,564.81 865.06,564.81 865.04,564.47 864.95,564.13 864.82,563.81 864.63,563.51 864.40,563.25 864.13,563.03 863.83,562.86 863.51,562.74 863.16,562.67 862.90,562.65 788.97,562.65 789.23,562.67 788.88,562.65 788.54,562.70 788.20,562.79 787.89,562.94 787.60,563.14 787.35,563.38 787.14,563.66 786.98,563.97 786.87,564.30 786.81,564.64 786.81,564.81 786.81,579.00 786.81,578.82 786.81,579.17 786.87,579.51 786.98,579.84 787.14,580.15 787.35,580.43 787.60,580.67 787.89,580.87 788.20,581.02 788.54,581.11 788.88,581.15 "
       style="stroke-width: 0.53; stroke: #000000; stroke-opacity: 0.85; fill: #449464; fill-opacity: 0.85;"
       id="polygon66" />
    <text
       x="825.94"
       y="577.56"
       text-anchor="middle"
       style="font-size: 17.07px;fill: #000000; fill-opacity: 0.85; font-family: &quot;Times New Roman&quot;;"
       textLength="71.06px"
       lengthAdjust="spacingAndGlyphs"
       id="text68">Relevance</text>
    <polygon
       points="207.76,387.91 342.87,387.91 342.78,387.91 343.13,387.90 343.47,387.83 343.79,387.71 344.10,387.53 344.36,387.31 344.60,387.05 344.78,386.76 344.92,386.44 345.00,386.10 345.03,385.75 345.03,385.75 345.03,371.57 345.03,371.57 345.00,371.22 344.92,370.89 344.78,370.57 344.60,370.27 344.36,370.01 344.10,369.79 343.79,369.62 343.47,369.50 343.13,369.43 342.87,369.41 207.76,369.41 208.02,369.43 207.67,369.41 207.33,369.45 206.99,369.55 206.68,369.70 206.39,369.90 206.14,370.14 205.94,370.42 205.77,370.72 205.66,371.05 205.61,371.40 205.60,371.57 205.60,385.75 205.61,385.58 205.61,385.93 205.66,386.27 205.77,386.60 205.94,386.91 206.14,387.19 206.39,387.43 206.68,387.62 206.99,387.77 207.33,387.87 207.67,387.91 "
       style="stroke-width: 0.53; stroke: #000000; stroke-opacity: 0.85; fill: #449464; fill-opacity: 0.85;"
       id="polygon70" />
    <text
       x="275.31"
       y="384.31"
       text-anchor="middle"
       style="font-size: 17.07px;fill: #000000; fill-opacity: 0.85; font-family: &quot;Times New Roman&quot;;"
       textLength="132.23px"
       lengthAdjust="spacingAndGlyphs"
       id="text72">Sentiment Analysis</text>
    <polygon
       points="902.46,337.19 931.87,337.19 931.78,337.19 932.13,337.18 932.47,337.11 932.79,336.99 933.09,336.81 933.36,336.59 933.59,336.33 933.78,336.04 933.92,335.72 934.00,335.38 934.03,335.03 934.03,335.03 934.03,320.85 934.03,320.85 934.00,320.50 933.92,320.17 933.78,319.85 933.59,319.55 933.36,319.29 933.09,319.07 932.79,318.90 932.47,318.78 932.13,318.71 931.87,318.69 902.46,318.69 902.72,318.71 902.38,318.69 902.03,318.73 901.70,318.83 901.38,318.98 901.10,319.18 900.85,319.42 900.64,319.70 900.48,320.00 900.37,320.33 900.31,320.68 900.30,320.85 900.30,335.03 900.31,334.86 900.31,335.21 900.37,335.55 900.48,335.88 900.64,336.19 900.85,336.47 901.10,336.71 901.38,336.90 901.70,337.05 902.03,337.15 902.38,337.19 "
       style="stroke-width: 0.53; stroke: #000000; stroke-opacity: 0.85; fill: #F7BE8A; fill-opacity: 0.85;"
       id="polygon74" />
    <text
       x="917.16"
       y="333.59"
       text-anchor="middle"
       style="font-size: 17.07px;fill: #000000; fill-opacity: 0.85; font-family: &quot;Times New Roman&quot;;"
       textLength="26.52px"
       lengthAdjust="spacingAndGlyphs"
       id="text76">bert</text>
    <polygon
       points="740.14,747.95 845.84,747.95 845.75,747.95 846.10,747.93 846.44,747.86 846.77,747.74 847.07,747.57 847.34,747.35 847.57,747.09 847.75,746.79 847.89,746.47 847.97,746.13 848.00,745.79 848.00,745.79 848.00,731.60 848.00,731.60 847.97,731.26 847.89,730.92 847.75,730.60 847.57,730.31 847.34,730.05 847.07,729.83 846.77,729.65 846.44,729.53 846.10,729.46 845.84,729.44 740.14,729.44 740.40,729.46 740.06,729.45 739.71,729.49 739.38,729.58 739.06,729.73 738.78,729.93 738.53,730.17 738.32,730.45 738.16,730.76 738.05,731.09 737.99,731.43 737.98,731.60 737.98,745.79 737.99,745.61 737.99,745.96 738.05,746.31 738.16,746.63 738.32,746.94 738.53,747.22 738.78,747.46 739.06,747.66 739.38,747.81 739.71,747.90 740.06,747.95 "
       style="stroke-width: 0.53; stroke: #000000; stroke-opacity: 0.85; fill: #F7BE8A; fill-opacity: 0.85;"
       id="polygon78" />
    <text
       x="792.99"
       y="744.35"
       text-anchor="middle"
       style="font-size: 17.07px;fill: #000000; fill-opacity: 0.85; font-family: &quot;Times New Roman&quot;;"
       textLength="102.82px"
       lengthAdjust="spacingAndGlyphs"
       id="text80">neural network</text>
    <polygon
       points="453.97,188.21 492.88,188.21 492.80,188.21 493.14,188.20 493.48,188.13 493.81,188.01 494.11,187.83 494.38,187.61 494.61,187.35 494.80,187.06 494.93,186.74 495.01,186.40 495.04,186.05 495.04,186.05 495.04,171.87 495.04,171.87 495.01,171.52 494.93,171.19 494.80,170.87 494.61,170.57 494.38,170.31 494.11,170.09 493.81,169.92 493.48,169.80 493.14,169.73 492.88,169.71 453.97,169.71 454.23,169.73 453.88,169.71 453.53,169.75 453.20,169.85 452.89,170.00 452.60,170.20 452.35,170.44 452.14,170.72 451.98,171.02 451.87,171.35 451.81,171.70 451.81,171.87 451.81,186.05 451.81,185.88 451.81,186.23 451.87,186.57 451.98,186.90 452.14,187.21 452.35,187.49 452.60,187.73 452.89,187.93 453.20,188.07 453.53,188.17 453.88,188.21 "
       style="stroke-width: 0.53; stroke: #000000; stroke-opacity: 0.85; fill: #F7BE8A; fill-opacity: 0.85;"
       id="polygon82" />
    <text
       x="473.42"
       y="184.61"
       text-anchor="middle"
       style="font-size: 17.07px;fill: #000000; fill-opacity: 0.85; font-family: &quot;Times New Roman&quot;;"
       textLength="36.04px"
       lengthAdjust="spacingAndGlyphs"
       id="text84">CNN</text>
    <polygon
       points="107.39,521.38 155.78,521.38 155.69,521.37 156.04,521.36 156.38,521.29 156.71,521.17 157.01,520.99 157.28,520.77 157.51,520.51 157.69,520.22 157.83,519.90 157.91,519.56 157.94,519.22 157.94,519.22 157.94,505.03 157.94,505.03 157.91,504.69 157.83,504.35 157.69,504.03 157.51,503.73 157.28,503.47 157.01,503.25 156.71,503.08 156.38,502.96 156.04,502.89 155.78,502.87 107.39,502.87 107.65,502.89 107.30,502.87 106.96,502.92 106.62,503.01 106.31,503.16 106.02,503.36 105.77,503.60 105.56,503.88 105.40,504.18 105.29,504.51 105.24,504.86 105.23,505.03 105.23,519.22 105.24,519.04 105.24,519.39 105.29,519.73 105.40,520.06 105.56,520.37 105.77,520.65 106.02,520.89 106.31,521.09 106.62,521.24 106.96,521.33 107.30,521.37 "
       style="stroke-width: 0.53; stroke: #000000; stroke-opacity: 0.85; fill: #F7BE8A; fill-opacity: 0.85;"
       id="polygon86" />
    <text
       x="131.58"
       y="517.78"
       text-anchor="middle"
       style="font-size: 17.07px;fill: #000000; fill-opacity: 0.85; font-family: &quot;Times New Roman&quot;;"
       textLength="45.51px"
       lengthAdjust="spacingAndGlyphs"
       id="text88">LSTM</text>
    <polygon
       points="264.42,616.62 477.65,616.62 477.57,616.62 477.91,616.61 478.25,616.54 478.58,616.41 478.88,616.24 479.15,616.02 479.38,615.76 479.57,615.47 479.70,615.15 479.79,614.81 479.81,614.46 479.81,614.46 479.81,600.28 479.81,600.28 479.79,599.93 479.70,599.59 479.57,599.27 479.38,598.98 479.15,598.72 478.88,598.50 478.58,598.33 478.25,598.20 477.91,598.13 477.65,598.12 264.42,598.12 264.68,598.13 264.33,598.12 263.99,598.16 263.65,598.26 263.34,598.41 263.05,598.61 262.80,598.85 262.59,599.12 262.43,599.43 262.32,599.76 262.27,600.10 262.26,600.28 262.26,614.46 262.27,614.29 262.27,614.64 262.32,614.98 262.43,615.31 262.59,615.62 262.80,615.89 263.05,616.14 263.34,616.33 263.65,616.48 263.99,616.58 264.33,616.62 "
       style="stroke-width: 0.53; stroke: #000000; stroke-opacity: 0.85; fill: #F7BE8A; fill-opacity: 0.85;"
       id="polygon90" />
    <text
       x="371.04"
       y="613.02"
       text-anchor="middle"
       style="font-size: 17.07px;fill: #000000; fill-opacity: 0.85; font-family: &quot;Times New Roman&quot;;"
       textLength="210.36px"
       lengthAdjust="spacingAndGlyphs"
       id="text92">multivariate statistical analysis</text>
    <polygon
       points="251.25,109.56 379.70,109.56 379.62,109.55 379.96,109.54 380.30,109.47 380.63,109.35 380.93,109.17 381.20,108.95 381.43,108.69 381.62,108.40 381.75,108.08 381.83,107.74 381.86,107.40 381.86,107.40 381.86,93.21 381.86,93.21 381.83,92.86 381.75,92.53 381.62,92.21 381.43,91.91 381.20,91.65 380.93,91.43 380.63,91.26 380.30,91.14 379.96,91.07 379.70,91.05 251.25,91.05 251.51,91.07 251.17,91.05 250.82,91.09 250.49,91.19 250.17,91.34 249.89,91.54 249.64,91.78 249.43,92.06 249.27,92.36 249.16,92.69 249.10,93.04 249.09,93.21 249.09,107.40 249.10,107.22 249.10,107.57 249.16,107.91 249.27,108.24 249.43,108.55 249.64,108.83 249.89,109.07 250.17,109.27 250.49,109.41 250.82,109.51 251.17,109.55 "
       style="stroke-width: 0.53; stroke: #000000; stroke-opacity: 0.85; fill: #F7BE8A; fill-opacity: 0.85;"
       id="polygon94" />
    <text
       x="315.48"
       y="105.96"
       text-anchor="middle"
       style="font-size: 17.07px;fill: #000000; fill-opacity: 0.85; font-family: &quot;Times New Roman&quot;;"
       textLength="125.57px"
       lengthAdjust="spacingAndGlyphs"
       id="text96">sentiment analysis</text>
  </g>
  <g
     clip-path="url(#cpMC4wMHwxMDA4LjAwfDAuMDB8ODY0LjAw)"
     id="g102">
    <text
       x="56.69"
       y="70.91"
       style="font-size: 13.20px; font-family: &quot;Times New Roman&quot;;"
       textLength="359.38px"
       lengthAdjust="spacingAndGlyphs"
       id="text100">Keyword Network Analysis: Sustainability Science Communication</text>
  </g>
</svg>
