<?xml version="1.0" encoding="UTF-8" standalone="no"?>
<svg
   xmlns:dc="http://purl.org/dc/elements/1.1/"
   xmlns:cc="http://creativecommons.org/ns#"
   xmlns:rdf="http://www.w3.org/1999/02/22-rdf-syntax-ns#"
   xmlns:svg="http://www.w3.org/2000/svg"
   xmlns="http://www.w3.org/2000/svg"
   xmlns:sodipodi="http://sodipodi.sourceforge.net/DTD/sodipodi-0.dtd"
   xmlns:inkscape="http://www.inkscape.org/namespaces/inkscape"
   class="svglite"
   width="1008.00pt"
   height="864.00pt"
   viewBox="0 0 1008.00 864.00"
   version="1.1"
   id="svg256"
   sodipodi:docname="keyword_network_water.svg"
   inkscape:export-filename="/home/erikz/SRC/AI/Deep_mind_roundtable/Lit search/lit_review_deepmind/plots/final_new_networks/keyword_network_water.png"
   inkscape:export-xdpi="150"
   inkscape:export-ydpi="150"
   inkscape:version="0.92.5 (2060ec1f9f, 2020-04-08)">
  <metadata
     id="metadata260">
    <rdf:RDF>
      <cc:Work
         rdf:about="">
        <dc:format>image/svg+xml</dc:format>
        <dc:type
           rdf:resource="http://purl.org/dc/dcmitype/StillImage" />
      </cc:Work>
    </rdf:RDF>
  </metadata>
  <sodipodi:namedview
     pagecolor="#ffffff"
     bordercolor="#666666"
     borderopacity="1"
     objecttolerance="10"
     gridtolerance="10"
     guidetolerance="10"
     inkscape:pageopacity="0"
     inkscape:pageshadow="2"
     inkscape:window-width="1848"
     inkscape:window-height="1016"
     id="namedview258"
     showgrid="false"
     inkscape:zoom="0.20486111"
     inkscape:cx="672"
     inkscape:cy="576"
     inkscape:window-x="72"
     inkscape:window-y="27"
     inkscape:window-maximized="1"
     inkscape:current-layer="svg256" />
  <defs
     id="defs4">
    <style
       type="text/css"
       id="style2"><![CDATA[
    .svglite line, .svglite polyline, .svglite polygon, .svglite path, .svglite rect, .svglite circle {
      fill: none;
      stroke: #000000;
      stroke-linecap: round;
      stroke-linejoin: round;
      stroke-miterlimit: 10.00;
    }
    .svglite text {
      white-space: pre;
    }
  ]]></style>
  </defs>
  <rect
     width="100%"
     height="100%"
     style="stroke: none; fill: none;"
     id="rect6" />
  <defs
     id="defs11">
    <clipPath
       id="cpMC4wMHwxMDA4LjAwfDAuMDB8ODY0LjAw">
      <rect
         x="0.00"
         y="0.00"
         width="1008.00"
         height="864.00"
         id="rect8" />
    </clipPath>
  </defs>
  <g
     clip-path="url(#cpMC4wMHwxMDA4LjAwfDAuMDB8ODY0LjAw)"
     id="g13" />
  <defs
     id="defs18">
    <clipPath
       id="cpNTYuNjl8OTUxLjMxfDczLjc1fDgwNy4zMQ==">
      <rect
         x="56.69"
         y="73.75"
         width="894.61"
         height="733.56"
         id="rect15" />
    </clipPath>
  </defs>
  <g
     clip-path="url(#cpNTYuNjl8OTUxLjMxfDczLjc1fDgwNy4zMQ==)"
     id="g250">
    <rect
       x="56.69"
       y="73.75"
       width="894.61"
       height="733.56"
       style="stroke-width: 0.75; stroke: none; fill: #FFFFFF;"
       id="rect20" />
    <polyline
       points="197.12,372.22 199.12,373.44 201.12,374.67 203.12,375.89 205.12,377.12 207.13,378.34 209.13,379.57 211.13,380.79 213.13,382.02 215.13,383.24 217.13,384.47 219.14,385.69 221.14,386.92 223.14,388.14 225.14,389.37 227.14,390.59 229.14,391.82 231.15,393.04 233.15,394.27 235.15,395.49 237.15,396.72 239.15,397.94 241.15,399.17 243.16,400.39 245.16,401.62 247.16,402.84 249.16,404.07 251.16,405.29 253.17,406.52 255.17,407.74 257.17,408.97 259.17,410.19 261.17,411.42 263.17,412.64 265.18,413.87 267.18,415.09 269.18,416.32 271.18,417.54 273.18,418.77 275.18,419.99 277.19,421.22 279.19,422.44 281.19,423.67 283.19,424.89 285.19,426.12 287.19,427.34 289.20,428.57 291.20,429.79 293.20,431.02 295.20,432.24 297.20,433.47 299.20,434.69 301.21,435.92 303.21,437.14 305.21,438.37 307.21,439.59 309.21,440.82 311.22,442.04 313.22,443.27 315.22,444.49 317.22,445.72 319.22,446.94 321.22,448.17 323.23,449.39 325.23,450.62 327.23,451.84 329.23,453.07 331.23,454.29 333.23,455.52 335.24,456.74 337.24,457.97 339.24,459.19 341.24,460.42 343.24,461.64 345.24,462.87 347.25,464.09 349.25,465.32 351.25,466.54 353.25,467.77 355.25,468.99 357.26,470.22 359.26,471.44 361.26,472.67 363.26,473.89 365.26,475.12 367.26,476.34 369.27,477.57 371.27,478.79 373.27,480.02 375.27,481.24 377.27,482.47 379.27,483.69 381.28,484.92 383.28,486.14 385.28,487.37 387.28,488.59 389.28,489.82 391.28,491.04 393.29,492.27 395.29,493.49 "
       style="stroke-width: 1.07; stroke: #666666; stroke-opacity: 0.40; stroke-linecap: butt;"
       id="polyline22" />
    <polyline
       points="308.50,605.32 309.38,604.19 310.25,603.06 311.13,601.93 312.01,600.80 312.88,599.67 313.76,598.54 314.64,597.41 315.51,596.29 316.39,595.16 317.27,594.03 318.14,592.90 319.02,591.77 319.90,590.64 320.77,589.51 321.65,588.38 322.53,587.25 323.40,586.12 324.28,584.99 325.16,583.86 326.03,582.73 326.91,581.60 327.79,580.47 328.66,579.34 329.54,578.21 330.42,577.08 331.29,575.95 332.17,574.82 333.05,573.69 333.92,572.56 334.80,571.43 335.68,570.30 336.55,569.17 337.43,568.05 338.31,566.92 339.18,565.79 340.06,564.66 340.94,563.53 341.81,562.40 342.69,561.27 343.57,560.14 344.44,559.01 345.32,557.88 346.20,556.75 347.07,555.62 347.95,554.49 348.83,553.36 349.70,552.23 350.58,551.10 351.46,549.97 352.33,548.84 353.21,547.71 354.09,546.58 354.96,545.45 355.84,544.32 356.72,543.19 357.59,542.06 358.47,540.94 359.35,539.81 360.22,538.68 361.10,537.55 361.98,536.42 362.85,535.29 363.73,534.16 364.61,533.03 365.48,531.90 366.36,530.77 367.24,529.64 368.11,528.51 368.99,527.38 369.87,526.25 370.74,525.12 371.62,523.99 372.50,522.86 373.37,521.73 374.25,520.60 375.13,519.47 376.00,518.34 376.88,517.21 377.76,516.08 378.63,514.95 379.51,513.82 380.39,512.70 381.26,511.57 382.14,510.44 383.01,509.31 383.89,508.18 384.77,507.05 385.64,505.92 386.52,504.79 387.40,503.66 388.27,502.53 389.15,501.40 390.03,500.27 390.90,499.14 391.78,498.01 392.66,496.88 393.53,495.75 394.41,494.62 395.29,493.49 "
       style="stroke-width: 6.40; stroke: #666666; stroke-opacity: 0.40; stroke-linecap: butt;"
       id="polyline24" />
    <polyline
       points="308.50,605.32 307.05,607.03 305.60,608.73 304.15,610.43 302.70,612.14 301.25,613.84 299.80,615.54 298.35,617.25 296.90,618.95 295.45,620.65 294.00,622.36 292.55,624.06 291.10,625.76 289.65,627.47 288.20,629.17 286.75,630.87 285.30,632.58 283.85,634.28 282.40,635.98 280.95,637.69 279.50,639.39 278.05,641.09 276.60,642.80 275.15,644.50 273.70,646.20 272.25,647.91 270.80,649.61 269.35,651.32 267.90,653.02 266.45,654.72 265.00,656.43 263.55,658.13 262.10,659.83 260.65,661.54 259.20,663.24 257.75,664.94 256.30,666.65 254.85,668.35 253.40,670.05 251.95,671.76 250.50,673.46 249.05,675.16 247.60,676.87 246.15,678.57 244.70,680.27 243.25,681.98 241.80,683.68 240.35,685.38 238.90,687.09 237.45,688.79 236.00,690.49 234.55,692.20 233.10,693.90 231.65,695.60 230.20,697.31 228.75,699.01 227.30,700.72 225.85,702.42 224.40,704.12 222.95,705.83 221.50,707.53 220.05,709.23 218.60,710.94 217.15,712.64 215.70,714.34 214.25,716.05 212.80,717.75 211.35,719.45 209.90,721.16 208.45,722.86 207.00,724.56 205.55,726.27 204.10,727.97 202.65,729.67 201.20,731.38 199.75,733.08 198.30,734.78 196.85,736.49 195.40,738.19 193.95,739.89 192.50,741.60 191.05,743.30 189.60,745.00 188.15,746.71 186.70,748.41 185.25,750.12 183.80,751.82 182.35,753.52 180.90,755.23 179.45,756.93 178.00,758.63 176.55,760.34 175.10,762.04 173.65,763.74 172.20,765.45 170.75,767.15 169.30,768.85 167.85,770.56 166.40,772.26 164.95,773.96 "
       style="stroke-width: 1.07; stroke: #666666; stroke-opacity: 0.40; stroke-linecap: butt;"
       id="polyline26" />
    <polyline
       points="308.50,605.32 310.76,605.61 313.02,605.90 315.29,606.19 317.55,606.47 319.81,606.76 322.07,607.05 324.33,607.34 326.59,607.62 328.85,607.91 331.12,608.20 333.38,608.49 335.64,608.78 337.90,609.06 340.16,609.35 342.42,609.64 344.69,609.93 346.95,610.21 349.21,610.50 351.47,610.79 353.73,611.08 355.99,611.37 358.25,611.65 360.52,611.94 362.78,612.23 365.04,612.52 367.30,612.81 369.56,613.09 371.82,613.38 374.08,613.67 376.35,613.96 378.61,614.24 380.87,614.53 383.13,614.82 385.39,615.11 387.65,615.40 389.91,615.68 392.18,615.97 394.44,616.26 396.70,616.55 398.96,616.83 401.22,617.12 403.48,617.41 405.75,617.70 408.01,617.99 410.27,618.27 412.53,618.56 414.79,618.85 417.05,619.14 419.31,619.43 421.58,619.71 423.84,620.00 426.10,620.29 428.36,620.58 430.62,620.86 432.88,621.15 435.14,621.44 437.41,621.73 439.67,622.02 441.93,622.30 444.19,622.59 446.45,622.88 448.71,623.17 450.98,623.45 453.24,623.74 455.50,624.03 457.76,624.32 460.02,624.61 462.28,624.89 464.54,625.18 466.81,625.47 469.07,625.76 471.33,626.04 473.59,626.33 475.85,626.62 478.11,626.91 480.37,627.20 482.64,627.48 484.90,627.77 487.16,628.06 489.42,628.35 491.68,628.64 493.94,628.92 496.21,629.21 498.47,629.50 500.73,629.79 502.99,630.07 505.25,630.36 507.51,630.65 509.77,630.94 512.04,631.23 514.30,631.51 516.56,631.80 518.82,632.09 521.08,632.38 523.34,632.66 525.60,632.95 527.87,633.24 530.13,633.53 532.39,633.82 "
       style="stroke-width: 1.07; stroke: #666666; stroke-opacity: 0.40; stroke-linecap: butt;"
       id="polyline28" />
    <polyline
       points="480.39,309.69 479.53,311.55 478.67,313.41 477.81,315.26 476.95,317.12 476.09,318.98 475.23,320.83 474.37,322.69 473.51,324.55 472.66,326.40 471.80,328.26 470.94,330.12 470.08,331.97 469.22,333.83 468.36,335.69 467.50,337.54 466.64,339.40 465.78,341.26 464.92,343.11 464.06,344.97 463.20,346.82 462.34,348.68 461.48,350.54 460.62,352.39 459.76,354.25 458.90,356.11 458.04,357.96 457.18,359.82 456.32,361.68 455.46,363.53 454.60,365.39 453.74,367.25 452.88,369.10 452.02,370.96 451.16,372.82 450.30,374.67 449.44,376.53 448.59,378.39 447.73,380.24 446.87,382.10 446.01,383.96 445.15,385.81 444.29,387.67 443.43,389.53 442.57,391.38 441.71,393.24 440.85,395.10 439.99,396.95 439.13,398.81 438.27,400.66 437.41,402.52 436.55,404.38 435.69,406.23 434.83,408.09 433.97,409.95 433.11,411.80 432.25,413.66 431.39,415.52 430.53,417.37 429.67,419.23 428.81,421.09 427.95,422.94 427.09,424.80 426.23,426.66 425.38,428.51 424.52,430.37 423.66,432.23 422.80,434.08 421.94,435.94 421.08,437.80 420.22,439.65 419.36,441.51 418.50,443.37 417.64,445.22 416.78,447.08 415.92,448.94 415.06,450.79 414.20,452.65 413.34,454.50 412.48,456.36 411.62,458.22 410.76,460.07 409.90,461.93 409.04,463.79 408.18,465.64 407.32,467.50 406.46,469.36 405.60,471.21 404.74,473.07 403.88,474.93 403.02,476.78 402.16,478.64 401.31,480.50 400.45,482.35 399.59,484.21 398.73,486.07 397.87,487.92 397.01,489.78 396.15,491.64 395.29,493.49 "
       style="stroke-width: 1.07; stroke: #666666; stroke-opacity: 0.40; stroke-linecap: butt;"
       id="polyline30" />
    <polyline
       points="480.39,309.69 482.32,310.08 484.25,310.47 486.18,310.85 488.10,311.24 490.03,311.63 491.96,312.02 493.89,312.40 495.82,312.79 497.75,313.18 499.67,313.56 501.60,313.95 503.53,314.34 505.46,314.72 507.39,315.11 509.31,315.50 511.24,315.88 513.17,316.27 515.10,316.66 517.03,317.05 518.96,317.43 520.88,317.82 522.81,318.21 524.74,318.59 526.67,318.98 528.60,319.37 530.52,319.75 532.45,320.14 534.38,320.53 536.31,320.91 538.24,321.30 540.17,321.69 542.09,322.07 544.02,322.46 545.95,322.85 547.88,323.24 549.81,323.62 551.74,324.01 553.66,324.40 555.59,324.78 557.52,325.17 559.45,325.56 561.38,325.94 563.30,326.33 565.23,326.72 567.16,327.10 569.09,327.49 571.02,327.88 572.95,328.27 574.87,328.65 576.80,329.04 578.73,329.43 580.66,329.81 582.59,330.20 584.51,330.59 586.44,330.97 588.37,331.36 590.30,331.75 592.23,332.13 594.16,332.52 596.08,332.91 598.01,333.29 599.94,333.68 601.87,334.07 603.80,334.46 605.72,334.84 607.65,335.23 609.58,335.62 611.51,336.00 613.44,336.39 615.37,336.78 617.29,337.16 619.22,337.55 621.15,337.94 623.08,338.32 625.01,338.71 626.93,339.10 628.86,339.48 630.79,339.87 632.72,340.26 634.65,340.65 636.58,341.03 638.50,341.42 640.43,341.81 642.36,342.19 644.29,342.58 646.22,342.97 648.14,343.35 650.07,343.74 652.00,344.13 653.93,344.51 655.86,344.90 657.79,345.29 659.71,345.68 661.64,346.06 663.57,346.45 665.50,346.84 667.43,347.22 669.35,347.61 671.28,348.00 "
       style="stroke-width: 1.07; stroke: #666666; stroke-opacity: 0.40; stroke-linecap: butt;"
       id="polyline32" />
    <polyline
       points="667.19,541.71 664.44,541.22 661.69,540.73 658.95,540.25 656.20,539.76 653.45,539.27 650.71,538.78 647.96,538.30 645.21,537.81 642.47,537.32 639.72,536.84 636.98,536.35 634.23,535.86 631.48,535.38 628.74,534.89 625.99,534.40 623.24,533.91 620.50,533.43 617.75,532.94 615.00,532.45 612.26,531.97 609.51,531.48 606.76,530.99 604.02,530.51 601.27,530.02 598.53,529.53 595.78,529.04 593.03,528.56 590.29,528.07 587.54,527.58 584.79,527.10 582.05,526.61 579.30,526.12 576.55,525.63 573.81,525.15 571.06,524.66 568.31,524.17 565.57,523.69 562.82,523.20 560.07,522.71 557.33,522.23 554.58,521.74 551.84,521.25 549.09,520.76 546.34,520.28 543.60,519.79 540.85,519.30 538.10,518.82 535.36,518.33 532.61,517.84 529.86,517.36 527.12,516.87 524.37,516.38 521.62,515.89 518.88,515.41 516.13,514.92 513.39,514.43 510.64,513.95 507.89,513.46 505.15,512.97 502.40,512.49 499.65,512.00 496.91,511.51 494.16,511.02 491.41,510.54 488.67,510.05 485.92,509.56 483.17,509.08 480.43,508.59 477.68,508.10 474.93,507.62 472.19,507.13 469.44,506.64 466.70,506.15 463.95,505.67 461.20,505.18 458.46,504.69 455.71,504.21 452.96,503.72 450.22,503.23 447.47,502.75 444.72,502.26 441.98,501.77 439.23,501.28 436.48,500.80 433.74,500.31 430.99,499.82 428.25,499.34 425.50,498.85 422.75,498.36 420.01,497.88 417.26,497.39 414.51,496.90 411.77,496.41 409.02,495.93 406.27,495.44 403.53,494.95 400.78,494.47 398.03,493.98 395.29,493.49 "
       style="stroke-width: 1.07; stroke: #666666; stroke-opacity: 0.40; stroke-linecap: butt;"
       id="polyline34" />
    <polyline
       points="667.19,541.71 668.87,543.59 670.56,545.48 672.25,547.37 673.93,549.26 675.62,551.15 677.31,553.04 678.99,554.92 680.68,556.81 682.37,558.70 684.05,560.59 685.74,562.48 687.43,564.36 689.11,566.25 690.80,568.14 692.49,570.03 694.18,571.92 695.86,573.81 697.55,575.69 699.24,577.58 700.92,579.47 702.61,581.36 704.30,583.25 705.98,585.14 707.67,587.02 709.36,588.91 711.04,590.80 712.73,592.69 714.42,594.58 716.10,596.46 717.79,598.35 719.48,600.24 721.16,602.13 722.85,604.02 724.54,605.91 726.22,607.79 727.91,609.68 729.60,611.57 731.29,613.46 732.97,615.35 734.66,617.23 736.35,619.12 738.03,621.01 739.72,622.90 741.41,624.79 743.09,626.68 744.78,628.56 746.47,630.45 748.15,632.34 749.84,634.23 751.53,636.12 753.21,638.01 754.90,639.89 756.59,641.78 758.27,643.67 759.96,645.56 761.65,647.45 763.33,649.33 765.02,651.22 766.71,653.11 768.40,655.00 770.08,656.89 771.77,658.78 773.46,660.66 775.14,662.55 776.83,664.44 778.52,666.33 780.20,668.22 781.89,670.10 783.58,671.99 785.26,673.88 786.95,675.77 788.64,677.66 790.32,679.55 792.01,681.43 793.70,683.32 795.38,685.21 797.07,687.10 798.76,688.99 800.44,690.88 802.13,692.76 803.82,694.65 805.50,696.54 807.19,698.43 808.88,700.32 810.57,702.20 812.25,704.09 813.94,705.98 815.63,707.87 817.31,709.76 819.00,711.65 820.69,713.53 822.37,715.42 824.06,717.31 825.75,719.20 827.43,721.09 829.12,722.97 830.81,724.86 832.49,726.75 834.18,728.64 "
       style="stroke-width: 1.07; stroke: #666666; stroke-opacity: 0.40; stroke-linecap: butt;"
       id="polyline36" />
    <polyline
       points="667.19,541.71 667.23,539.75 667.27,537.79 667.31,535.84 667.35,533.88 667.39,531.92 667.43,529.97 667.48,528.01 667.52,526.05 667.56,524.10 667.60,522.14 667.64,520.18 667.68,518.23 667.72,516.27 667.77,514.31 667.81,512.36 667.85,510.40 667.89,508.44 667.93,506.49 667.97,504.53 668.01,502.57 668.06,500.62 668.10,498.66 668.14,496.70 668.18,494.75 668.22,492.79 668.26,490.83 668.30,488.88 668.35,486.92 668.39,484.96 668.43,483.01 668.47,481.05 668.51,479.09 668.55,477.14 668.59,475.18 668.63,473.22 668.68,471.27 668.72,469.31 668.76,467.35 668.80,465.40 668.84,463.44 668.88,461.48 668.92,459.53 668.97,457.57 669.01,455.61 669.05,453.66 669.09,451.70 669.13,449.74 669.17,447.79 669.21,445.83 669.26,443.87 669.30,441.92 669.34,439.96 669.38,438.00 669.42,436.05 669.46,434.09 669.50,432.13 669.55,430.18 669.59,428.22 669.63,426.26 669.67,424.31 669.71,422.35 669.75,420.39 669.79,418.44 669.83,416.48 669.88,414.52 669.92,412.57 669.96,410.61 670.00,408.65 670.04,406.70 670.08,404.74 670.12,402.78 670.17,400.83 670.21,398.87 670.25,396.91 670.29,394.96 670.33,393.00 670.37,391.04 670.41,389.09 670.46,387.13 670.50,385.17 670.54,383.22 670.58,381.26 670.62,379.30 670.66,377.35 670.70,375.39 670.75,373.43 670.79,371.48 670.83,369.52 670.87,367.56 670.91,365.61 670.95,363.65 670.99,361.69 671.03,359.74 671.08,357.78 671.12,355.82 671.16,353.87 671.20,351.91 671.24,349.95 671.28,348.00 "
       style="stroke-width: 2.40; stroke: #666666; stroke-opacity: 0.40; stroke-linecap: butt;"
       id="polyline38" />
    <polyline
       points="667.19,541.71 668.17,542.11 669.16,542.51 670.14,542.91 671.13,543.31 672.12,543.72 673.10,544.12 674.09,544.52 675.08,544.92 676.06,545.32 677.05,545.72 678.03,546.13 679.02,546.53 680.01,546.93 680.99,547.33 681.98,547.73 682.96,548.13 683.95,548.54 684.94,548.94 685.92,549.34 686.91,549.74 687.90,550.14 688.88,550.55 689.87,550.95 690.85,551.35 691.84,551.75 692.83,552.15 693.81,552.55 694.80,552.96 695.78,553.36 696.77,553.76 697.76,554.16 698.74,554.56 699.73,554.97 700.72,555.37 701.70,555.77 702.69,556.17 703.67,556.57 704.66,556.97 705.65,557.38 706.63,557.78 707.62,558.18 708.60,558.58 709.59,558.98 710.58,559.39 711.56,559.79 712.55,560.19 713.53,560.59 714.52,560.99 715.51,561.39 716.49,561.80 717.48,562.20 718.47,562.60 719.45,563.00 720.44,563.40 721.42,563.81 722.41,564.21 723.40,564.61 724.38,565.01 725.37,565.41 726.35,565.81 727.34,566.22 728.33,566.62 729.31,567.02 730.30,567.42 731.29,567.82 732.27,568.22 733.26,568.63 734.24,569.03 735.23,569.43 736.22,569.83 737.20,570.23 738.19,570.64 739.17,571.04 740.16,571.44 741.15,571.84 742.13,572.24 743.12,572.64 744.11,573.05 745.09,573.45 746.08,573.85 747.06,574.25 748.05,574.65 749.04,575.06 750.02,575.46 751.01,575.86 751.99,576.26 752.98,576.66 753.97,577.06 754.95,577.47 755.94,577.87 756.93,578.27 757.91,578.67 758.90,579.07 759.88,579.48 760.87,579.88 761.86,580.28 762.84,580.68 763.83,581.08 764.81,581.48 "
       style="stroke-width: 2.40; stroke: #666666; stroke-opacity: 0.40; stroke-linecap: butt;"
       id="polyline40" />
    <polyline
       points="667.19,541.71 668.55,540.81 669.91,539.91 671.28,539.01 672.64,538.11 674.00,537.21 675.36,536.31 676.73,535.41 678.09,534.51 679.45,533.61 680.82,532.71 682.18,531.81 683.54,530.92 684.91,530.02 686.27,529.12 687.63,528.22 688.99,527.32 690.36,526.42 691.72,525.52 693.08,524.62 694.45,523.72 695.81,522.82 697.17,521.92 698.54,521.02 699.90,520.12 701.26,519.23 702.62,518.33 703.99,517.43 705.35,516.53 706.71,515.63 708.08,514.73 709.44,513.83 710.80,512.93 712.17,512.03 713.53,511.13 714.89,510.23 716.25,509.33 717.62,508.43 718.98,507.53 720.34,506.64 721.71,505.74 723.07,504.84 724.43,503.94 725.80,503.04 727.16,502.14 728.52,501.24 729.88,500.34 731.25,499.44 732.61,498.54 733.97,497.64 735.34,496.74 736.70,495.84 738.06,494.95 739.43,494.05 740.79,493.15 742.15,492.25 743.51,491.35 744.88,490.45 746.24,489.55 747.60,488.65 748.97,487.75 750.33,486.85 751.69,485.95 753.06,485.05 754.42,484.15 755.78,483.26 757.14,482.36 758.51,481.46 759.87,480.56 761.23,479.66 762.60,478.76 763.96,477.86 765.32,476.96 766.69,476.06 768.05,475.16 769.41,474.26 770.77,473.36 772.14,472.46 773.50,471.57 774.86,470.67 776.23,469.77 777.59,468.87 778.95,467.97 780.32,467.07 781.68,466.17 783.04,465.27 784.40,464.37 785.77,463.47 787.13,462.57 788.49,461.67 789.86,460.77 791.22,459.87 792.58,458.98 793.95,458.08 795.31,457.18 796.67,456.28 798.03,455.38 799.40,454.48 800.76,453.58 802.12,452.68 "
       style="stroke-width: 1.07; stroke: #666666; stroke-opacity: 0.40; stroke-linecap: butt;"
       id="polyline42" />
    <polyline
       points="663.60,107.09 663.68,109.53 663.76,111.96 663.83,114.39 663.91,116.83 663.99,119.26 664.07,121.69 664.14,124.13 664.22,126.56 664.30,128.99 664.38,131.43 664.45,133.86 664.53,136.29 664.61,138.73 664.69,141.16 664.76,143.59 664.84,146.03 664.92,148.46 665.00,150.89 665.07,153.33 665.15,155.76 665.23,158.19 665.31,160.63 665.39,163.06 665.46,165.49 665.54,167.93 665.62,170.36 665.70,172.79 665.77,175.23 665.85,177.66 665.93,180.09 666.01,182.53 666.08,184.96 666.16,187.39 666.24,189.83 666.32,192.26 666.39,194.69 666.47,197.13 666.55,199.56 666.63,201.99 666.70,204.43 666.78,206.86 666.86,209.29 666.94,211.73 667.01,214.16 667.09,216.59 667.17,219.03 667.25,221.46 667.33,223.90 667.40,226.33 667.48,228.76 667.56,231.20 667.64,233.63 667.71,236.06 667.79,238.50 667.87,240.93 667.95,243.36 668.02,245.80 668.10,248.23 668.18,250.66 668.26,253.10 668.33,255.53 668.41,257.96 668.49,260.40 668.57,262.83 668.64,265.26 668.72,267.70 668.80,270.13 668.88,272.56 668.96,275.00 669.03,277.43 669.11,279.86 669.19,282.30 669.27,284.73 669.34,287.16 669.42,289.60 669.50,292.03 669.58,294.46 669.65,296.90 669.73,299.33 669.81,301.76 669.89,304.20 669.96,306.63 670.04,309.06 670.12,311.50 670.20,313.93 670.27,316.36 670.35,318.80 670.43,321.23 670.51,323.66 670.58,326.10 670.66,328.53 670.74,330.96 670.82,333.40 670.90,335.83 670.97,338.26 671.05,340.70 671.13,343.13 671.21,345.56 671.28,348.00 "
       style="stroke-width: 1.07; stroke: #666666; stroke-opacity: 0.40; stroke-linecap: butt;"
       id="polyline44" />
    <polyline
       points="667.19,541.71 665.82,542.64 664.46,543.57 663.10,544.50 661.74,545.43 660.38,546.36 659.02,547.29 657.66,548.22 656.29,549.15 654.93,550.08 653.57,551.01 652.21,551.94 650.85,552.87 649.49,553.80 648.12,554.73 646.76,555.66 645.40,556.59 644.04,557.52 642.68,558.45 641.32,559.38 639.95,560.31 638.59,561.24 637.23,562.18 635.87,563.11 634.51,564.04 633.15,564.97 631.79,565.90 630.42,566.83 629.06,567.76 627.70,568.69 626.34,569.62 624.98,570.55 623.62,571.48 622.25,572.41 620.89,573.34 619.53,574.27 618.17,575.20 616.81,576.13 615.45,577.06 614.08,577.99 612.72,578.92 611.36,579.85 610.00,580.78 608.64,581.71 607.28,582.64 605.91,583.57 604.55,584.50 603.19,585.44 601.83,586.37 600.47,587.30 599.11,588.23 597.75,589.16 596.38,590.09 595.02,591.02 593.66,591.95 592.30,592.88 590.94,593.81 589.58,594.74 588.21,595.67 586.85,596.60 585.49,597.53 584.13,598.46 582.77,599.39 581.41,600.32 580.04,601.25 578.68,602.18 577.32,603.11 575.96,604.04 574.60,604.97 573.24,605.90 571.88,606.83 570.51,607.76 569.15,608.70 567.79,609.63 566.43,610.56 565.07,611.49 563.71,612.42 562.34,613.35 560.98,614.28 559.62,615.21 558.26,616.14 556.90,617.07 555.54,618.00 554.17,618.93 552.81,619.86 551.45,620.79 550.09,621.72 548.73,622.65 547.37,623.58 546.01,624.51 544.64,625.44 543.28,626.37 541.92,627.30 540.56,628.23 539.20,629.16 537.84,630.09 536.47,631.02 535.11,631.96 533.75,632.89 532.39,633.82 "
       style="stroke-width: 1.07; stroke: #666666; stroke-opacity: 0.40; stroke-linecap: butt;"
       id="polyline46" />
    <polyline
       points="670.82,756.67 669.81,756.62 668.80,756.56 667.79,756.50 666.79,756.44 665.78,756.39 664.77,756.33 663.76,756.27 662.75,756.21 661.75,756.15 660.74,756.10 659.73,756.04 658.72,755.98 657.72,755.92 656.71,755.86 655.70,755.81 654.69,755.75 653.68,755.69 652.68,755.63 651.67,755.58 650.66,755.52 649.65,755.46 648.65,755.40 647.64,755.34 646.63,755.29 645.62,755.23 644.61,755.17 643.61,755.11 642.60,755.05 641.59,755.00 640.58,754.94 639.58,754.88 638.57,754.82 637.56,754.77 636.55,754.71 635.54,754.65 634.54,754.59 633.53,754.53 632.52,754.48 631.51,754.42 630.50,754.36 629.50,754.30 628.49,754.25 627.48,754.19 626.47,754.13 625.47,754.07 624.46,754.01 623.45,753.96 622.44,753.90 621.43,753.84 620.43,753.78 619.42,753.72 618.41,753.67 617.40,753.61 616.40,753.55 615.39,753.49 614.38,753.44 613.37,753.38 612.36,753.32 611.36,753.26 610.35,753.20 609.34,753.15 608.33,753.09 607.32,753.03 606.32,752.97 605.31,752.91 604.30,752.86 603.29,752.80 602.29,752.74 601.28,752.68 600.27,752.63 599.26,752.57 598.25,752.51 597.25,752.45 596.24,752.39 595.23,752.34 594.22,752.28 593.22,752.22 592.21,752.16 591.20,752.10 590.19,752.05 589.18,751.99 588.18,751.93 587.17,751.87 586.16,751.82 585.15,751.76 584.15,751.70 583.14,751.64 582.13,751.58 581.12,751.53 580.11,751.47 579.11,751.41 578.10,751.35 577.09,751.30 576.08,751.24 575.07,751.18 574.07,751.12 573.06,751.06 572.05,751.01 571.04,750.95 "
       style="stroke-width: 1.07; stroke: #666666; stroke-opacity: 0.40; stroke-linecap: butt;"
       id="polyline48" />
    <polyline
       points="670.82,756.67 671.77,754.90 672.72,753.14 673.67,751.37 674.62,749.60 675.56,747.83 676.51,746.06 677.46,744.29 678.41,742.52 679.36,740.75 680.31,738.98 681.26,737.21 682.21,735.44 683.16,733.67 684.11,731.90 685.06,730.13 686.01,728.36 686.96,726.59 687.91,724.82 688.86,723.05 689.81,721.28 690.76,719.51 691.71,717.74 692.66,715.97 693.60,714.20 694.55,712.43 695.50,710.66 696.45,708.90 697.40,707.13 698.35,705.36 699.30,703.59 700.25,701.82 701.20,700.05 702.15,698.28 703.10,696.51 704.05,694.74 705.00,692.97 705.95,691.20 706.90,689.43 707.85,687.66 708.80,685.89 709.75,684.12 710.69,682.35 711.64,680.58 712.59,678.81 713.54,677.04 714.49,675.27 715.44,673.50 716.39,671.73 717.34,669.96 718.29,668.19 719.24,666.42 720.19,664.66 721.14,662.89 722.09,661.12 723.04,659.35 723.99,657.58 724.94,655.81 725.89,654.04 726.84,652.27 727.79,650.50 728.73,648.73 729.68,646.96 730.63,645.19 731.58,643.42 732.53,641.65 733.48,639.88 734.43,638.11 735.38,636.34 736.33,634.57 737.28,632.80 738.23,631.03 739.18,629.26 740.13,627.49 741.08,625.72 742.03,623.95 742.98,622.18 743.93,620.42 744.88,618.65 745.83,616.88 746.77,615.11 747.72,613.34 748.67,611.57 749.62,609.80 750.57,608.03 751.52,606.26 752.47,604.49 753.42,602.72 754.37,600.95 755.32,599.18 756.27,597.41 757.22,595.64 758.17,593.87 759.12,592.10 760.07,590.33 761.02,588.56 761.97,586.79 762.92,585.02 763.86,583.25 764.81,581.48 "
       style="stroke-width: 1.07; stroke: #666666; stroke-opacity: 0.40; stroke-linecap: butt;"
       id="polyline50" />
    <polyline
       points="670.82,756.67 669.42,755.43 668.02,754.19 666.62,752.95 665.22,751.71 663.83,750.47 662.43,749.23 661.03,747.99 659.63,746.75 658.23,745.51 656.83,744.26 655.44,743.02 654.04,741.78 652.64,740.54 651.24,739.30 649.84,738.06 648.45,736.82 647.05,735.58 645.65,734.34 644.25,733.10 642.85,731.85 641.45,730.61 640.06,729.37 638.66,728.13 637.26,726.89 635.86,725.65 634.46,724.41 633.06,723.17 631.67,721.93 630.27,720.69 628.87,719.44 627.47,718.20 626.07,716.96 624.67,715.72 623.28,714.48 621.88,713.24 620.48,712.00 619.08,710.76 617.68,709.52 616.29,708.28 614.89,707.03 613.49,705.79 612.09,704.55 610.69,703.31 609.29,702.07 607.90,700.83 606.50,699.59 605.10,698.35 603.70,697.11 602.30,695.87 600.90,694.62 599.51,693.38 598.11,692.14 596.71,690.90 595.31,689.66 593.91,688.42 592.51,687.18 591.12,685.94 589.72,684.70 588.32,683.46 586.92,682.21 585.52,680.97 584.13,679.73 582.73,678.49 581.33,677.25 579.93,676.01 578.53,674.77 577.13,673.53 575.74,672.29 574.34,671.05 572.94,669.80 571.54,668.56 570.14,667.32 568.74,666.08 567.35,664.84 565.95,663.60 564.55,662.36 563.15,661.12 561.75,659.88 560.35,658.64 558.96,657.39 557.56,656.15 556.16,654.91 554.76,653.67 553.36,652.43 551.97,651.19 550.57,649.95 549.17,648.71 547.77,647.47 546.37,646.23 544.97,644.98 543.58,643.74 542.18,642.50 540.78,641.26 539.38,640.02 537.98,638.78 536.58,637.54 535.19,636.30 533.79,635.06 532.39,633.82 "
       style="stroke-width: 1.07; stroke: #666666; stroke-opacity: 0.40; stroke-linecap: butt;"
       id="polyline52" />
    <polyline
       points="781.27,301.07 780.16,301.54 779.05,302.02 777.94,302.49 776.83,302.97 775.72,303.44 774.61,303.91 773.50,304.39 772.39,304.86 771.28,305.34 770.16,305.81 769.05,306.28 767.94,306.76 766.83,307.23 765.72,307.71 764.61,308.18 763.50,308.65 762.39,309.13 761.28,309.60 760.17,310.08 759.05,310.55 757.94,311.02 756.83,311.50 755.72,311.97 754.61,312.45 753.50,312.92 752.39,313.39 751.28,313.87 750.17,314.34 749.05,314.82 747.94,315.29 746.83,315.76 745.72,316.24 744.61,316.71 743.50,317.19 742.39,317.66 741.28,318.13 740.17,318.61 739.06,319.08 737.94,319.56 736.83,320.03 735.72,320.50 734.61,320.98 733.50,321.45 732.39,321.93 731.28,322.40 730.17,322.87 729.06,323.35 727.95,323.82 726.83,324.30 725.72,324.77 724.61,325.24 723.50,325.72 722.39,326.19 721.28,326.67 720.17,327.14 719.06,327.61 717.95,328.09 716.84,328.56 715.72,329.04 714.61,329.51 713.50,329.98 712.39,330.46 711.28,330.93 710.17,331.41 709.06,331.88 707.95,332.35 706.84,332.83 705.72,333.30 704.61,333.78 703.50,334.25 702.39,334.72 701.28,335.20 700.17,335.67 699.06,336.15 697.95,336.62 696.84,337.09 695.73,337.57 694.61,338.04 693.50,338.52 692.39,338.99 691.28,339.46 690.17,339.94 689.06,340.41 687.95,340.89 686.84,341.36 685.73,341.83 684.62,342.31 683.50,342.78 682.39,343.26 681.28,343.73 680.17,344.20 679.06,344.68 677.95,345.15 676.84,345.63 675.73,346.10 674.62,346.57 673.51,347.05 672.39,347.52 671.28,348.00 "
       style="stroke-width: 3.73; stroke: #666666; stroke-opacity: 0.40; stroke-linecap: butt;"
       id="polyline54" />
    <polyline
       points="781.27,301.07 781.49,302.60 781.70,304.13 781.91,305.66 782.12,307.20 782.33,308.73 782.54,310.26 782.75,311.79 782.96,313.32 783.17,314.85 783.38,316.38 783.59,317.92 783.80,319.45 784.01,320.98 784.22,322.51 784.43,324.04 784.64,325.57 784.85,327.10 785.07,328.64 785.28,330.17 785.49,331.70 785.70,333.23 785.91,334.76 786.12,336.29 786.33,337.82 786.54,339.36 786.75,340.89 786.96,342.42 787.17,343.95 787.38,345.48 787.59,347.01 787.80,348.54 788.01,350.08 788.22,351.61 788.43,353.14 788.65,354.67 788.86,356.20 789.07,357.73 789.28,359.26 789.49,360.80 789.70,362.33 789.91,363.86 790.12,365.39 790.33,366.92 790.54,368.45 790.75,369.98 790.96,371.52 791.17,373.05 791.38,374.58 791.59,376.11 791.80,377.64 792.01,379.17 792.23,380.70 792.44,382.24 792.65,383.77 792.86,385.30 793.07,386.83 793.28,388.36 793.49,389.89 793.70,391.42 793.91,392.96 794.12,394.49 794.33,396.02 794.54,397.55 794.75,399.08 794.96,400.61 795.17,402.14 795.38,403.68 795.60,405.21 795.81,406.74 796.02,408.27 796.23,409.80 796.44,411.33 796.65,412.86 796.86,414.40 797.07,415.93 797.28,417.46 797.49,418.99 797.70,420.52 797.91,422.05 798.12,423.58 798.33,425.12 798.54,426.65 798.75,428.18 798.96,429.71 799.18,431.24 799.39,432.77 799.60,434.30 799.81,435.84 800.02,437.37 800.23,438.90 800.44,440.43 800.65,441.96 800.86,443.49 801.07,445.02 801.28,446.56 801.49,448.09 801.70,449.62 801.91,451.15 802.12,452.68 "
       style="stroke-width: 1.07; stroke: #666666; stroke-opacity: 0.40; stroke-linecap: butt;"
       id="polyline56" />
    <polyline
       points="662.79,476.94 660.08,477.11 657.38,477.28 654.68,477.44 651.98,477.61 649.28,477.78 646.57,477.95 643.87,478.11 641.17,478.28 638.47,478.45 635.77,478.62 633.06,478.78 630.36,478.95 627.66,479.12 624.96,479.28 622.26,479.45 619.55,479.62 616.85,479.79 614.15,479.95 611.45,480.12 608.75,480.29 606.04,480.45 603.34,480.62 600.64,480.79 597.94,480.96 595.24,481.12 592.53,481.29 589.83,481.46 587.13,481.62 584.43,481.79 581.73,481.96 579.02,482.13 576.32,482.29 573.62,482.46 570.92,482.63 568.22,482.79 565.51,482.96 562.81,483.13 560.11,483.30 557.41,483.46 554.71,483.63 552.00,483.80 549.30,483.96 546.60,484.13 543.90,484.30 541.20,484.47 538.49,484.63 535.79,484.80 533.09,484.97 530.39,485.13 527.69,485.30 524.98,485.47 522.28,485.64 519.58,485.80 516.88,485.97 514.18,486.14 511.47,486.30 508.77,486.47 506.07,486.64 503.37,486.81 500.67,486.97 497.96,487.14 495.26,487.31 492.56,487.47 489.86,487.64 487.16,487.81 484.45,487.98 481.75,488.14 479.05,488.31 476.35,488.48 473.65,488.64 470.94,488.81 468.24,488.98 465.54,489.15 462.84,489.31 460.14,489.48 457.43,489.65 454.73,489.81 452.03,489.98 449.33,490.15 446.63,490.32 443.92,490.48 441.22,490.65 438.52,490.82 435.82,490.98 433.12,491.15 430.41,491.32 427.71,491.49 425.01,491.65 422.31,491.82 419.61,491.99 416.90,492.15 414.20,492.32 411.50,492.49 408.80,492.66 406.10,492.82 403.39,492.99 400.69,493.16 397.99,493.32 395.29,493.49 "
       style="stroke-width: 1.07; stroke: #666666; stroke-opacity: 0.40; stroke-linecap: butt;"
       id="polyline58" />
    <polyline
       points="662.79,476.94 662.87,475.64 662.96,474.34 663.04,473.04 663.13,471.73 663.22,470.43 663.30,469.13 663.39,467.83 663.47,466.52 663.56,465.22 663.64,463.92 663.73,462.62 663.82,461.31 663.90,460.01 663.99,458.71 664.07,457.41 664.16,456.10 664.25,454.80 664.33,453.50 664.42,452.20 664.50,450.89 664.59,449.59 664.67,448.29 664.76,446.99 664.85,445.68 664.93,444.38 665.02,443.08 665.10,441.78 665.19,440.47 665.28,439.17 665.36,437.87 665.45,436.57 665.53,435.26 665.62,433.96 665.70,432.66 665.79,431.36 665.88,430.05 665.96,428.75 666.05,427.45 666.13,426.15 666.22,424.84 666.31,423.54 666.39,422.24 666.48,420.94 666.56,419.63 666.65,418.33 666.73,417.03 666.82,415.73 666.91,414.42 666.99,413.12 667.08,411.82 667.16,410.52 667.25,409.21 667.34,407.91 667.42,406.61 667.51,405.31 667.59,404.00 667.68,402.70 667.76,401.40 667.85,400.10 667.94,398.79 668.02,397.49 668.11,396.19 668.19,394.89 668.28,393.58 668.36,392.28 668.45,390.98 668.54,389.68 668.62,388.37 668.71,387.07 668.79,385.77 668.88,384.47 668.97,383.16 669.05,381.86 669.14,380.56 669.22,379.26 669.31,377.95 669.39,376.65 669.48,375.35 669.57,374.05 669.65,372.74 669.74,371.44 669.82,370.14 669.91,368.84 670.00,367.53 670.08,366.23 670.17,364.93 670.25,363.63 670.34,362.32 670.42,361.02 670.51,359.72 670.60,358.42 670.68,357.11 670.77,355.81 670.85,354.51 670.94,353.21 671.03,351.90 671.11,350.60 671.20,349.30 671.28,348.00 "
       style="stroke-width: 3.73; stroke: #666666; stroke-opacity: 0.40; stroke-linecap: butt;"
       id="polyline60" />
    <polyline
       points="662.79,476.94 663.82,478.00 664.85,479.06 665.88,480.11 666.91,481.17 667.94,482.22 668.97,483.28 670.00,484.34 671.03,485.39 672.06,486.45 673.09,487.50 674.12,488.56 675.15,489.62 676.18,490.67 677.21,491.73 678.24,492.78 679.28,493.84 680.31,494.89 681.34,495.95 682.37,497.01 683.40,498.06 684.43,499.12 685.46,500.17 686.49,501.23 687.52,502.29 688.55,503.34 689.58,504.40 690.61,505.45 691.64,506.51 692.67,507.57 693.70,508.62 694.73,509.68 695.76,510.73 696.80,511.79 697.83,512.85 698.86,513.90 699.89,514.96 700.92,516.01 701.95,517.07 702.98,518.13 704.01,519.18 705.04,520.24 706.07,521.29 707.10,522.35 708.13,523.41 709.16,524.46 710.19,525.52 711.22,526.57 712.25,527.63 713.28,528.69 714.32,529.74 715.35,530.80 716.38,531.85 717.41,532.91 718.44,533.97 719.47,535.02 720.50,536.08 721.53,537.13 722.56,538.19 723.59,539.25 724.62,540.30 725.65,541.36 726.68,542.41 727.71,543.47 728.74,544.53 729.77,545.58 730.80,546.64 731.84,547.69 732.87,548.75 733.90,549.81 734.93,550.86 735.96,551.92 736.99,552.97 738.02,554.03 739.05,555.08 740.08,556.14 741.11,557.20 742.14,558.25 743.17,559.31 744.20,560.36 745.23,561.42 746.26,562.48 747.29,563.53 748.32,564.59 749.36,565.64 750.39,566.70 751.42,567.76 752.45,568.81 753.48,569.87 754.51,570.92 755.54,571.98 756.57,573.04 757.60,574.09 758.63,575.15 759.66,576.20 760.69,577.26 761.72,578.32 762.75,579.37 763.78,580.43 764.81,581.48 "
       style="stroke-width: 3.73; stroke: #666666; stroke-opacity: 0.40; stroke-linecap: butt;"
       id="polyline62" />
    <polyline
       points="662.79,476.94 664.19,476.70 665.60,476.45 667.01,476.21 668.42,475.96 669.82,475.72 671.23,475.47 672.64,475.23 674.05,474.98 675.45,474.74 676.86,474.49 678.27,474.25 679.68,474.00 681.08,473.76 682.49,473.51 683.90,473.27 685.31,473.02 686.71,472.78 688.12,472.53 689.53,472.29 690.94,472.04 692.34,471.80 693.75,471.55 695.16,471.31 696.56,471.06 697.97,470.82 699.38,470.57 700.79,470.33 702.19,470.08 703.60,469.84 705.01,469.59 706.42,469.35 707.82,469.10 709.23,468.86 710.64,468.61 712.05,468.37 713.45,468.12 714.86,467.88 716.27,467.63 717.68,467.39 719.08,467.14 720.49,466.90 721.90,466.65 723.31,466.41 724.71,466.16 726.12,465.92 727.53,465.67 728.94,465.42 730.34,465.18 731.75,464.93 733.16,464.69 734.57,464.44 735.97,464.20 737.38,463.95 738.79,463.71 740.20,463.46 741.60,463.22 743.01,462.97 744.42,462.73 745.83,462.48 747.23,462.24 748.64,461.99 750.05,461.75 751.46,461.50 752.86,461.26 754.27,461.01 755.68,460.77 757.09,460.52 758.49,460.28 759.90,460.03 761.31,459.79 762.71,459.54 764.12,459.30 765.53,459.05 766.94,458.81 768.34,458.56 769.75,458.32 771.16,458.07 772.57,457.83 773.97,457.58 775.38,457.34 776.79,457.09 778.20,456.85 779.60,456.60 781.01,456.36 782.42,456.11 783.83,455.87 785.23,455.62 786.64,455.38 788.05,455.13 789.46,454.89 790.86,454.64 792.27,454.40 793.68,454.15 795.09,453.91 796.49,453.66 797.90,453.42 799.31,453.17 800.72,452.93 802.12,452.68 "
       style="stroke-width: 2.40; stroke: #666666; stroke-opacity: 0.40; stroke-linecap: butt;"
       id="polyline64" />
    <polyline
       points="800.47,140.33 799.17,142.43 797.86,144.52 796.56,146.62 795.25,148.72 793.95,150.82 792.64,152.92 791.34,155.01 790.03,157.11 788.73,159.21 787.42,161.31 786.12,163.40 784.81,165.50 783.51,167.60 782.20,169.70 780.90,171.79 779.59,173.89 778.29,175.99 776.98,178.09 775.68,180.18 774.37,182.28 773.07,184.38 771.76,186.48 770.46,188.58 769.15,190.67 767.85,192.77 766.54,194.87 765.24,196.97 763.93,199.06 762.63,201.16 761.32,203.26 760.02,205.36 758.71,207.45 757.41,209.55 756.10,211.65 754.80,213.75 753.49,215.84 752.19,217.94 750.88,220.04 749.58,222.14 748.27,224.24 746.97,226.33 745.66,228.43 744.36,230.53 743.05,232.63 741.75,234.72 740.44,236.82 739.14,238.92 737.83,241.02 736.53,243.11 735.22,245.21 733.92,247.31 732.61,249.41 731.31,251.50 730.00,253.60 728.70,255.70 727.39,257.80 726.09,259.90 724.78,261.99 723.48,264.09 722.17,266.19 720.87,268.29 719.57,270.38 718.26,272.48 716.96,274.58 715.65,276.68 714.35,278.77 713.04,280.87 711.74,282.97 710.43,285.07 709.13,287.16 707.82,289.26 706.52,291.36 705.21,293.46 703.91,295.56 702.60,297.65 701.30,299.75 699.99,301.85 698.69,303.95 697.38,306.04 696.08,308.14 694.77,310.24 693.47,312.34 692.16,314.43 690.86,316.53 689.55,318.63 688.25,320.73 686.94,322.82 685.64,324.92 684.33,327.02 683.03,329.12 681.72,331.22 680.42,333.31 679.11,335.41 677.81,337.51 676.50,339.61 675.20,341.70 673.89,343.80 672.59,345.90 671.28,348.00 "
       style="stroke-width: 1.07; stroke: #666666; stroke-opacity: 0.40; stroke-linecap: butt;"
       id="polyline66" />
    <polyline
       points="662.79,476.94 661.47,478.53 660.15,480.11 658.83,481.70 657.52,483.28 656.20,484.87 654.88,486.45 653.57,488.04 652.25,489.62 650.93,491.20 649.61,492.79 648.30,494.37 646.98,495.96 645.66,497.54 644.35,499.13 643.03,500.71 641.71,502.30 640.39,503.88 639.08,505.47 637.76,507.05 636.44,508.63 635.13,510.22 633.81,511.80 632.49,513.39 631.17,514.97 629.86,516.56 628.54,518.14 627.22,519.73 625.91,521.31 624.59,522.90 623.27,524.48 621.95,526.07 620.64,527.65 619.32,529.23 618.00,530.82 616.69,532.40 615.37,533.99 614.05,535.57 612.73,537.16 611.42,538.74 610.10,540.33 608.78,541.91 607.47,543.50 606.15,545.08 604.83,546.66 603.51,548.25 602.20,549.83 600.88,551.42 599.56,553.00 598.25,554.59 596.93,556.17 595.61,557.76 594.29,559.34 592.98,560.93 591.66,562.51 590.34,564.09 589.03,565.68 587.71,567.26 586.39,568.85 585.07,570.43 583.76,572.02 582.44,573.60 581.12,575.19 579.81,576.77 578.49,578.36 577.17,579.94 575.85,581.53 574.54,583.11 573.22,584.69 571.90,586.28 570.59,587.86 569.27,589.45 567.95,591.03 566.63,592.62 565.32,594.20 564.00,595.79 562.68,597.37 561.37,598.96 560.05,600.54 558.73,602.12 557.41,603.71 556.10,605.29 554.78,606.88 553.46,608.46 552.15,610.05 550.83,611.63 549.51,613.22 548.19,614.80 546.88,616.39 545.56,617.97 544.24,619.55 542.93,621.14 541.61,622.72 540.29,624.31 538.97,625.89 537.66,627.48 536.34,629.06 535.02,630.65 533.71,632.23 532.39,633.82 "
       style="stroke-width: 1.07; stroke: #666666; stroke-opacity: 0.40; stroke-linecap: butt;"
       id="polyline68" />
    <polyline
       points="584.39,502.85 584.26,505.36 584.12,507.87 583.99,510.37 583.85,512.88 583.72,515.38 583.58,517.89 583.45,520.40 583.31,522.90 583.18,525.41 583.04,527.91 582.91,530.42 582.77,532.93 582.64,535.43 582.50,537.94 582.37,540.44 582.23,542.95 582.10,545.46 581.96,547.96 581.83,550.47 581.69,552.97 581.56,555.48 581.43,557.99 581.29,560.49 581.16,563.00 581.02,565.50 580.89,568.01 580.75,570.52 580.62,573.02 580.48,575.53 580.35,578.03 580.21,580.54 580.08,583.05 579.94,585.55 579.81,588.06 579.67,590.56 579.54,593.07 579.40,595.58 579.27,598.08 579.13,600.59 579.00,603.09 578.86,605.60 578.73,608.11 578.59,610.61 578.46,613.12 578.32,615.62 578.19,618.13 578.05,620.64 577.92,623.14 577.78,625.65 577.65,628.15 577.52,630.66 577.38,633.17 577.25,635.67 577.11,638.18 576.98,640.68 576.84,643.19 576.71,645.70 576.57,648.20 576.44,650.71 576.30,653.21 576.17,655.72 576.03,658.23 575.90,660.73 575.76,663.24 575.63,665.74 575.49,668.25 575.36,670.76 575.22,673.26 575.09,675.77 574.95,678.27 574.82,680.78 574.68,683.29 574.55,685.79 574.41,688.30 574.28,690.80 574.14,693.31 574.01,695.82 573.87,698.32 573.74,700.83 573.61,703.33 573.47,705.84 573.34,708.35 573.20,710.85 573.07,713.36 572.93,715.86 572.80,718.37 572.66,720.88 572.53,723.38 572.39,725.89 572.26,728.39 572.12,730.90 571.99,733.41 571.85,735.91 571.72,738.42 571.58,740.92 571.45,743.43 571.31,745.94 571.18,748.44 571.04,750.95 "
       style="stroke-width: 1.07; stroke: #666666; stroke-opacity: 0.40; stroke-linecap: butt;"
       id="polyline70" />
    <polyline
       points="584.39,502.85 585.27,501.29 586.15,499.73 587.02,498.16 587.90,496.60 588.78,495.03 589.66,493.47 590.54,491.90 591.41,490.34 592.29,488.78 593.17,487.21 594.05,485.65 594.92,484.08 595.80,482.52 596.68,480.95 597.56,479.39 598.43,477.83 599.31,476.26 600.19,474.70 601.07,473.13 601.95,471.57 602.82,470.01 603.70,468.44 604.58,466.88 605.46,465.31 606.33,463.75 607.21,462.18 608.09,460.62 608.97,459.06 609.84,457.49 610.72,455.93 611.60,454.36 612.48,452.80 613.36,451.23 614.23,449.67 615.11,448.11 615.99,446.54 616.87,444.98 617.74,443.41 618.62,441.85 619.50,440.29 620.38,438.72 621.25,437.16 622.13,435.59 623.01,434.03 623.89,432.46 624.77,430.90 625.64,429.34 626.52,427.77 627.40,426.21 628.28,424.64 629.15,423.08 630.03,421.51 630.91,419.95 631.79,418.39 632.66,416.82 633.54,415.26 634.42,413.69 635.30,412.13 636.18,410.57 637.05,409.00 637.93,407.44 638.81,405.87 639.69,404.31 640.56,402.74 641.44,401.18 642.32,399.62 643.20,398.05 644.07,396.49 644.95,394.92 645.83,393.36 646.71,391.79 647.59,390.23 648.46,388.67 649.34,387.10 650.22,385.54 651.10,383.97 651.97,382.41 652.85,380.85 653.73,379.28 654.61,377.72 655.48,376.15 656.36,374.59 657.24,373.02 658.12,371.46 659.00,369.90 659.87,368.33 660.75,366.77 661.63,365.20 662.51,363.64 663.38,362.07 664.26,360.51 665.14,358.95 666.02,357.38 666.89,355.82 667.77,354.25 668.65,352.69 669.53,351.13 670.41,349.56 671.28,348.00 "
       style="stroke-width: 2.40; stroke: #666666; stroke-opacity: 0.40; stroke-linecap: butt;"
       id="polyline72" />
    <polyline
       points="300.95,450.85 301.90,451.28 302.86,451.71 303.81,452.14 304.76,452.57 305.71,453.00 306.67,453.43 307.62,453.86 308.57,454.30 309.53,454.73 310.48,455.16 311.43,455.59 312.38,456.02 313.34,456.45 314.29,456.88 315.24,457.31 316.20,457.74 317.15,458.17 318.10,458.60 319.06,459.03 320.01,459.46 320.96,459.89 321.91,460.33 322.87,460.76 323.82,461.19 324.77,461.62 325.73,462.05 326.68,462.48 327.63,462.91 328.58,463.34 329.54,463.77 330.49,464.20 331.44,464.63 332.40,465.06 333.35,465.49 334.30,465.92 335.25,466.36 336.21,466.79 337.16,467.22 338.11,467.65 339.07,468.08 340.02,468.51 340.97,468.94 341.93,469.37 342.88,469.80 343.83,470.23 344.78,470.66 345.74,471.09 346.69,471.52 347.64,471.96 348.60,472.39 349.55,472.82 350.50,473.25 351.45,473.68 352.41,474.11 353.36,474.54 354.31,474.97 355.27,475.40 356.22,475.83 357.17,476.26 358.12,476.69 359.08,477.12 360.03,477.55 360.98,477.99 361.94,478.42 362.89,478.85 363.84,479.28 364.79,479.71 365.75,480.14 366.70,480.57 367.65,481.00 368.61,481.43 369.56,481.86 370.51,482.29 371.47,482.72 372.42,483.15 373.37,483.59 374.32,484.02 375.28,484.45 376.23,484.88 377.18,485.31 378.14,485.74 379.09,486.17 380.04,486.60 380.99,487.03 381.95,487.46 382.90,487.89 383.85,488.32 384.81,488.75 385.76,489.18 386.71,489.62 387.66,490.05 388.62,490.48 389.57,490.91 390.52,491.34 391.48,491.77 392.43,492.20 393.38,492.63 394.33,493.06 395.29,493.49 "
       style="stroke-width: 5.07; stroke: #666666; stroke-opacity: 0.40; stroke-linecap: butt;"
       id="polyline74" />
    <polyline
       points="910.64,560.29 909.17,560.51 907.70,560.72 906.22,560.94 904.75,561.15 903.28,561.36 901.80,561.58 900.33,561.79 898.86,562.01 897.39,562.22 895.91,562.43 894.44,562.65 892.97,562.86 891.49,563.08 890.02,563.29 888.55,563.50 887.07,563.72 885.60,563.93 884.13,564.15 882.66,564.36 881.18,564.57 879.71,564.79 878.24,565.00 876.76,565.22 875.29,565.43 873.82,565.65 872.34,565.86 870.87,566.07 869.40,566.29 867.93,566.50 866.45,566.72 864.98,566.93 863.51,567.14 862.03,567.36 860.56,567.57 859.09,567.79 857.61,568.00 856.14,568.21 854.67,568.43 853.20,568.64 851.72,568.86 850.25,569.07 848.78,569.28 847.30,569.50 845.83,569.71 844.36,569.93 842.88,570.14 841.41,570.35 839.94,570.57 838.47,570.78 836.99,571.00 835.52,571.21 834.05,571.42 832.57,571.64 831.10,571.85 829.63,572.07 828.15,572.28 826.68,572.49 825.21,572.71 823.73,572.92 822.26,573.14 820.79,573.35 819.32,573.56 817.84,573.78 816.37,573.99 814.90,574.21 813.42,574.42 811.95,574.63 810.48,574.85 809.00,575.06 807.53,575.28 806.06,575.49 804.59,575.70 803.11,575.92 801.64,576.13 800.17,576.35 798.69,576.56 797.22,576.78 795.75,576.99 794.27,577.20 792.80,577.42 791.33,577.63 789.86,577.85 788.38,578.06 786.91,578.27 785.44,578.49 783.96,578.70 782.49,578.92 781.02,579.13 779.54,579.34 778.07,579.56 776.60,579.77 775.13,579.99 773.65,580.20 772.18,580.41 770.71,580.63 769.23,580.84 767.76,581.06 766.29,581.27 764.81,581.48 "
       style="stroke-width: 2.40; stroke: #666666; stroke-opacity: 0.40; stroke-linecap: butt;"
       id="polyline76" />
    <polyline
       points="910.64,560.29 909.55,559.21 908.45,558.12 907.35,557.03 906.26,555.95 905.16,554.86 904.07,553.77 902.97,552.69 901.87,551.60 900.78,550.51 899.68,549.42 898.59,548.34 897.49,547.25 896.39,546.16 895.30,545.08 894.20,543.99 893.10,542.90 892.01,541.82 890.91,540.73 889.82,539.64 888.72,538.55 887.62,537.47 886.53,536.38 885.43,535.29 884.34,534.21 883.24,533.12 882.14,532.03 881.05,530.95 879.95,529.86 878.85,528.77 877.76,527.68 876.66,526.60 875.57,525.51 874.47,524.42 873.37,523.34 872.28,522.25 871.18,521.16 870.09,520.08 868.99,518.99 867.89,517.90 866.80,516.81 865.70,515.73 864.60,514.64 863.51,513.55 862.41,512.47 861.32,511.38 860.22,510.29 859.12,509.21 858.03,508.12 856.93,507.03 855.84,505.94 854.74,504.86 853.64,503.77 852.55,502.68 851.45,501.60 850.35,500.51 849.26,499.42 848.16,498.34 847.07,497.25 845.97,496.16 844.87,495.07 843.78,493.99 842.68,492.90 841.59,491.81 840.49,490.73 839.39,489.64 838.30,488.55 837.20,487.46 836.10,486.38 835.01,485.29 833.91,484.20 832.82,483.12 831.72,482.03 830.62,480.94 829.53,479.86 828.43,478.77 827.34,477.68 826.24,476.59 825.14,475.51 824.05,474.42 822.95,473.33 821.85,472.25 820.76,471.16 819.66,470.07 818.57,468.99 817.47,467.90 816.37,466.81 815.28,465.72 814.18,464.64 813.09,463.55 811.99,462.46 810.89,461.38 809.80,460.29 808.70,459.20 807.60,458.12 806.51,457.03 805.41,455.94 804.32,454.85 803.22,453.77 802.12,452.68 "
       style="stroke-width: 1.07; stroke: #666666; stroke-opacity: 0.40; stroke-linecap: butt;"
       id="polyline78" />
    <polyline
       points="308.50,605.32 306.37,605.73 304.24,606.14 302.10,606.54 299.97,606.95 297.84,607.36 295.70,607.77 293.57,608.17 291.44,608.58 289.31,608.99 287.17,609.40 285.04,609.80 282.91,610.21 280.78,610.62 278.64,611.02 276.51,611.43 274.38,611.84 272.24,612.25 270.11,612.65 267.98,613.06 265.85,613.47 263.71,613.88 261.58,614.28 259.45,614.69 257.31,615.10 255.18,615.51 253.05,615.91 250.92,616.32 248.78,616.73 246.65,617.14 244.52,617.54 242.39,617.95 240.25,618.36 238.12,618.76 235.99,619.17 233.85,619.58 231.72,619.99 229.59,620.39 227.46,620.80 225.32,621.21 223.19,621.62 221.06,622.02 218.92,622.43 216.79,622.84 214.66,623.25 212.53,623.65 210.39,624.06 208.26,624.47 206.13,624.88 204.00,625.28 201.86,625.69 199.73,626.10 197.60,626.50 195.46,626.91 193.33,627.32 191.20,627.73 189.07,628.13 186.93,628.54 184.80,628.95 182.67,629.36 180.54,629.76 178.40,630.17 176.27,630.58 174.14,630.99 172.00,631.39 169.87,631.80 167.74,632.21 165.61,632.62 163.47,633.02 161.34,633.43 159.21,633.84 157.07,634.24 154.94,634.65 152.81,635.06 150.68,635.47 148.54,635.87 146.41,636.28 144.28,636.69 142.15,637.10 140.01,637.50 137.88,637.91 135.75,638.32 133.61,638.73 131.48,639.13 129.35,639.54 127.22,639.95 125.08,640.36 122.95,640.76 120.82,641.17 118.68,641.58 116.55,641.98 114.42,642.39 112.29,642.80 110.15,643.21 108.02,643.61 105.89,644.02 103.76,644.43 101.62,644.84 99.49,645.24 97.36,645.65 "
       style="stroke-width: 1.07; stroke: #666666; stroke-opacity: 0.40; stroke-linecap: butt;"
       id="polyline80" />
    <circle
       cx="197.12"
       cy="372.22"
       r="3.56"
       style="stroke-width: 0.71; fill: #449464;"
       id="circle82" />
    <circle
       cx="663.60"
       cy="107.09"
       r="3.56"
       style="stroke-width: 0.71; fill: #449464;"
       id="circle84" />
    <circle
       cx="800.47"
       cy="140.33"
       r="3.56"
       style="stroke-width: 0.71; fill: #449464;"
       id="circle86" />
    <circle
       cx="584.39"
       cy="502.85"
       r="8.78"
       style="stroke-width: 0.71; fill: #449464;"
       id="circle88" />
    <circle
       cx="300.95"
       cy="450.85"
       r="9.96"
       style="stroke-width: 0.71; fill: #449464;"
       id="circle90" />
    <circle
       cx="910.64"
       cy="560.29"
       r="8.78"
       style="stroke-width: 0.71; fill: #449464;"
       id="circle92" />
    <circle
       cx="308.50"
       cy="605.32"
       r="13.33"
       style="stroke-width: 0.71; fill: #449464;"
       id="circle94" />
    <circle
       cx="480.39"
       cy="309.69"
       r="7.25"
       style="stroke-width: 0.71; fill: #449464;"
       id="circle96" />
    <circle
       cx="667.19"
       cy="541.71"
       r="13.33"
       style="stroke-width: 0.71; fill: #449464;"
       id="circle98" />
    <circle
       cx="670.82"
       cy="756.67"
       r="8.78"
       style="stroke-width: 0.71; fill: #449464;"
       id="circle100" />
    <circle
       cx="781.27"
       cy="301.07"
       r="9.96"
       style="stroke-width: 0.71; fill: #449464;"
       id="circle102" />
    <circle
       cx="662.79"
       cy="476.94"
       r="14.64"
       style="stroke-width: 0.71; fill: #449464;"
       id="circle104" />
    <circle
       cx="395.29"
       cy="493.49"
       r="16.36"
       style="stroke-width: 0.71; fill: #F7BE8A;"
       id="circle106" />
    <circle
       cx="671.28"
       cy="348.00"
       r="16.36"
       style="stroke-width: 0.71; fill: #F7BE8A;"
       id="circle108" />
    <circle
       cx="571.04"
       cy="750.95"
       r="7.25"
       style="stroke-width: 0.71; fill: #F7BE8A;"
       id="circle110" />
    <circle
       cx="764.81"
       cy="581.48"
       r="13.33"
       style="stroke-width: 0.71; fill: #F7BE8A;"
       id="circle112" />
    <circle
       cx="802.12"
       cy="452.68"
       r="10.95"
       style="stroke-width: 0.71; fill: #F7BE8A;"
       id="circle114" />
    <circle
       cx="97.36"
       cy="645.65"
       r="3.56"
       style="stroke-width: 0.71; fill: #F7BE8A;"
       id="circle116" />
    <circle
       cx="164.95"
       cy="773.96"
       r="3.56"
       style="stroke-width: 0.71; fill: #F7BE8A;"
       id="circle118" />
    <circle
       cx="532.39"
       cy="633.82"
       r="9.96"
       style="stroke-width: 0.71; fill: #F7BE8A;"
       id="circle120" />
    <circle
       cx="834.18"
       cy="728.64"
       r="3.56"
       style="stroke-width: 0.71; fill: #F7BE8A;"
       id="circle122" />
    <polyline
       points="216.19,353.39 216.17,353.40 216.10,353.42 215.97,353.48 215.81,353.58 215.59,353.73 215.28,353.95 214.88,354.24 214.42,354.58 213.88,355.00 213.26,355.51 212.60,356.07 211.98,356.64 211.41,357.17 210.76,357.78 210.04,358.50 209.29,359.26 208.58,359.99 207.93,360.69 207.21,361.47 206.41,362.35 205.57,363.31 204.64,364.39 203.57,365.65 202.72,366.65 202.53,366.87 "
       style="stroke-width: 1.71; stroke: #4D4D4D; stroke-opacity: 0.60;"
       id="polyline124" />
    <polyline
       points="644.63,100.86 644.65,100.89 644.77,101.05 644.92,101.25 645.06,101.43 645.20,101.60 645.35,101.78 645.50,101.95 645.65,102.11 645.82,102.28 646.01,102.48 646.21,102.68 646.41,102.87 646.60,103.05 646.81,103.24 647.05,103.46 647.32,103.68 647.64,103.88 648.06,104.06 648.61,104.22 649.31,104.33 650.22,104.41 651.59,104.46 653.49,104.49 655.20,104.50 655.73,104.51 655.73,104.51 "
       style="stroke-width: 1.71; stroke: #4D4D4D; stroke-opacity: 0.60;"
       id="polyline126" />
    <polyline
       points="819.50,159.11 819.41,158.98 818.97,158.40 818.42,157.66 817.91,156.99 817.39,156.36 816.83,155.71 816.27,155.10 815.73,154.52 815.13,153.88 814.42,153.15 813.66,152.41 812.92,151.71 812.23,151.06 811.46,150.34 810.57,149.54 809.64,148.72 808.77,147.97 807.99,147.32 807.32,146.75 806.80,146.32 806.44,146.03 806.19,145.85 806.01,145.74 805.91,145.68 805.89,145.67 "
       style="stroke-width: 1.71; stroke: #4D4D4D; stroke-opacity: 0.60;"
       id="polyline128" />
    <polyline
       points="576.48,477.61 576.48,477.90 576.49,479.41 576.50,481.90 576.52,484.37 576.55,486.29 576.59,487.66 576.62,488.40 576.72,489.49 576.85,490.29 576.99,490.84 577.17,491.22 577.39,491.51 577.63,491.79 577.88,492.05 578.11,492.30 578.37,492.58 578.68,492.89 579.01,493.22 579.32,493.52 579.62,493.80 579.96,494.11 580.34,494.45 580.75,494.81 581.21,495.21 581.76,495.68 582.19,496.04 582.28,496.12 "
       style="stroke-width: 1.71; stroke: #4D4D4D; stroke-opacity: 0.60;"
       id="polyline130" />
    <polyline
       points="297.98,475.92 298.00,475.90 298.10,475.83 298.21,475.75 298.32,475.66 298.42,475.58 298.52,475.49 298.62,475.40 298.72,475.32 298.82,475.22 298.93,475.11 299.05,474.98 299.17,474.87 299.27,474.76 299.38,474.63 299.51,474.49 299.64,474.32 299.76,474.00 299.87,473.42 299.96,472.52 300.03,471.22 300.06,470.05 300.08,468.47 300.10,466.30 300.12,463.56 300.12,460.68 300.13,458.57 300.13,457.80 300.13,457.77 "
       style="stroke-width: 1.71; stroke: #4D4D4D; stroke-opacity: 0.60;"
       id="polyline132" />
    <polyline
       points="890.62,541.42 890.72,541.56 891.16,542.15 891.72,542.90 892.23,543.57 892.76,544.21 893.33,544.87 893.90,545.50 894.44,546.08 895.06,546.73 895.78,547.47 896.55,548.22 897.29,548.93 897.99,549.59 898.78,550.32 899.68,551.13 900.62,551.96 901.51,552.72 902.32,553.39 903.04,553.96 903.61,554.39 904.05,554.69 904.42,554.87 904.78,554.99 905.03,555.04 905.08,555.05 "
       style="stroke-width: 1.71; stroke: #4D4D4D; stroke-opacity: 0.60;"
       id="polyline134" />
    <polyline
       points="289.39,624.19 289.41,624.18 289.48,624.15 289.61,624.10 289.77,624.00 289.99,623.85 290.30,623.63 290.70,623.34 291.16,622.99 291.71,622.58 292.33,622.06 292.99,621.50 293.61,620.93 294.19,620.39 294.83,619.78 295.56,619.07 296.31,618.30 297.02,617.57 297.67,616.87 298.39,616.09 299.20,615.20 300.03,614.25 300.97,613.15 302.05,611.89 302.89,610.89 303.09,610.67 "
       style="stroke-width: 1.71; stroke: #4D4D4D; stroke-opacity: 0.60;"
       id="polyline136" />
    <polyline
       points="499.41,290.92 499.40,290.92 499.32,290.95 499.19,291.01 499.04,291.11 498.82,291.25 498.51,291.47 498.11,291.77 497.65,292.10 497.11,292.52 496.49,293.03 495.84,293.59 495.22,294.15 494.65,294.69 494.00,295.30 493.28,296.01 492.54,296.76 491.84,297.50 491.19,298.19 490.47,298.96 489.67,299.85 488.84,300.79 487.91,301.88 486.84,303.13 486.00,304.12 485.81,304.35 "
       style="stroke-width: 1.71; stroke: #4D4D4D; stroke-opacity: 0.60;"
       id="polyline138" />
    <polyline
       points="685.23,560.45 685.22,560.42 685.19,560.28 685.14,560.07 685.05,559.86 684.91,559.61 684.70,559.29 684.42,558.89 684.10,558.44 683.70,557.93 683.22,557.33 682.68,556.72 682.15,556.13 681.64,555.58 681.06,554.97 680.38,554.28 679.66,553.57 678.96,552.90 678.30,552.28 677.57,551.60 676.72,550.84 675.82,550.05 674.79,549.16 673.59,548.15 672.65,547.34 672.44,547.16 "
       style="stroke-width: 1.71; stroke: #4D4D4D; stroke-opacity: 0.60;"
       id="polyline140" />
    <polyline
       points="688.73,771.52 688.66,771.43 688.34,771.00 687.94,770.45 687.56,769.96 687.18,769.50 686.76,769.02 686.35,768.56 685.96,768.14 685.51,767.66 684.98,767.13 684.42,766.58 683.88,766.06 683.37,765.58 682.80,765.05 682.15,764.46 681.46,763.86 680.79,763.31 680.17,762.83 679.58,762.41 679.05,762.09 678.56,761.88 678.02,761.75 677.39,761.66 676.89,761.62 676.78,761.61 "
       style="stroke-width: 1.71; stroke: #4D4D4D; stroke-opacity: 0.60;"
       id="polyline142" />
    <polyline
       points="800.34,282.25 800.33,282.26 800.25,282.28 800.12,282.34 799.96,282.44 799.74,282.59 799.43,282.81 799.03,283.10 798.57,283.44 798.03,283.86 797.41,284.37 796.76,284.93 796.14,285.50 795.56,286.03 794.91,286.64 794.19,287.36 793.44,288.12 792.74,288.85 792.09,289.54 791.37,290.32 790.57,291.21 789.73,292.16 788.80,293.25 787.73,294.51 786.88,295.50 786.69,295.72 "
       style="stroke-width: 1.71; stroke: #4D4D4D; stroke-opacity: 0.60;"
       id="polyline144" />
    <polyline
       points="681.86,458.11 681.84,458.12 681.77,458.14 681.64,458.20 681.48,458.30 681.26,458.45 680.95,458.67 680.55,458.96 680.09,459.30 679.55,459.72 678.93,460.23 678.27,460.80 677.66,461.36 677.08,461.90 676.43,462.51 675.71,463.22 674.96,463.98 674.25,464.72 673.60,465.41 672.88,466.19 672.08,467.08 671.24,468.03 670.31,469.12 669.24,470.38 668.39,471.37 668.20,471.60 "
       style="stroke-width: 1.71; stroke: #4D4D4D; stroke-opacity: 0.60;"
       id="polyline146" />
    <polyline
       points="403.18,468.29 403.12,468.34 402.87,468.52 402.55,468.76 402.27,468.98 401.99,469.20 401.72,469.45 401.45,469.69 401.20,469.92 400.92,470.18 400.61,470.48 400.29,470.81 399.99,471.13 399.71,471.42 399.40,471.76 399.06,472.14 398.71,472.56 398.38,473.08 398.10,473.76 397.86,474.68 397.67,475.86 397.58,476.99 397.51,478.53 397.46,480.62 397.42,483.19 397.40,485.50 397.40,486.64 397.40,486.76 "
       style="stroke-width: 1.71; stroke: #4D4D4D; stroke-opacity: 0.60;"
       id="polyline148" />
    <polyline
       points="652.20,366.83 652.22,366.82 652.29,366.80 652.42,366.74 652.58,366.64 652.80,366.49 653.11,366.27 653.51,365.98 653.97,365.64 654.52,365.22 655.14,364.71 655.79,364.15 656.41,363.58 656.99,363.05 657.63,362.43 658.36,361.72 659.11,360.96 659.81,360.22 660.46,359.53 661.19,358.75 661.99,357.86 662.82,356.91 663.76,355.82 664.83,354.56 665.68,353.57 665.87,353.34 "
       style="stroke-width: 1.71; stroke: #4D4D4D; stroke-opacity: 0.60;"
       id="polyline150" />
    <polyline
       points="558.83,725.46 558.83,725.77 558.84,727.30 558.87,729.57 558.91,731.58 558.97,733.02 559.06,734.02 559.21,734.97 559.40,735.73 559.63,736.32 559.92,736.79 560.26,737.23 560.64,737.67 561.02,738.09 561.39,738.48 561.80,738.92 562.28,739.41 562.80,739.91 563.29,740.39 563.76,740.83 564.29,741.32 564.89,741.86 565.53,742.42 566.27,743.05 567.12,743.78 567.79,744.35 567.94,744.48 "
       style="stroke-width: 1.71; stroke: #4D4D4D; stroke-opacity: 0.60;"
       id="polyline152" />
    <polyline
       points="793.70,613.38 793.69,613.25 793.64,612.64 793.54,611.84 793.37,611.16 793.11,610.51 792.71,609.80 792.20,608.98 791.60,608.11 790.86,607.13 789.95,606.02 789.08,605.01 788.20,604.03 787.36,603.12 786.48,602.18 785.45,601.12 784.67,600.33 783.59,599.27 782.53,598.24 781.53,597.30 780.54,596.37 779.42,595.33 778.17,594.20 777.85,593.92 776.60,592.81 775.23,591.63 773.68,590.31 771.98,588.86 770.54,587.64 769.91,587.10 769.87,587.06 "
       style="stroke-width: 1.71; stroke: #4D4D4D; stroke-opacity: 0.60;"
       id="polyline154" />
    <polyline
       points="821.11,476.75 821.11,476.55 821.08,475.66 821.01,474.57 820.91,473.72 820.75,473.06 820.52,472.45 820.21,471.84 819.84,471.25 819.40,470.63 818.85,469.96 818.25,469.26 817.65,468.60 817.08,467.98 816.42,467.30 815.66,466.52 814.85,465.72 814.07,464.97 813.33,464.28 812.50,463.51 811.55,462.65 810.56,461.79 809.44,460.83 808.14,459.72 807.05,458.79 806.73,458.52 806.73,458.52 "
       style="stroke-width: 1.71; stroke: #4D4D4D; stroke-opacity: 0.60;"
       id="polyline156" />
    <polyline
       points="109.44,620.28 109.35,620.35 108.96,620.64 108.46,621.01 108.02,621.35 107.60,621.70 107.16,622.07 106.75,622.45 106.36,622.81 105.93,623.22 105.45,623.69 104.95,624.20 104.48,624.69 104.04,625.15 103.56,625.67 103.03,626.27 102.48,626.90 101.98,627.60 101.54,628.39 101.16,629.33 100.87,630.42 100.71,631.52 100.59,633.00 100.52,635.01 100.47,637.28 100.44,638.84 100.44,639.18 100.44,639.18 "
       style="stroke-width: 1.71; stroke: #4D4D4D; stroke-opacity: 0.60;"
       id="polyline158" />
    <polyline
       points="182.34,748.20 182.21,748.30 181.64,748.73 180.90,749.27 180.25,749.78 179.62,750.29 178.98,750.85 178.37,751.40 177.80,751.93 177.16,752.53 176.45,753.23 175.71,753.99 175.02,754.71 174.38,755.39 173.67,756.16 172.88,757.04 172.07,757.96 171.33,758.90 170.68,759.84 170.12,760.82 169.70,761.80 169.41,762.86 169.23,764.24 169.12,766.03 169.06,767.51 169.05,767.88 169.05,767.88 "
       style="stroke-width: 1.71; stroke: #4D4D4D; stroke-opacity: 0.60;"
       id="polyline160" />
    <polyline
       points="513.36,652.59 513.38,652.58 513.46,652.56 513.58,652.50 513.74,652.40 513.96,652.25 514.27,652.03 514.67,651.74 515.13,651.40 515.67,650.99 516.29,650.48 516.94,649.92 517.56,649.36 518.13,648.82 518.78,648.21 519.50,647.50 520.24,646.74 520.94,646.01 521.59,645.32 522.31,644.55 523.11,643.66 523.94,642.71 524.87,641.63 525.94,640.37 526.78,639.38 526.97,639.16 "
       style="stroke-width: 1.71; stroke: #4D4D4D; stroke-opacity: 0.60;"
       id="polyline162" />
    <polyline
       points="853.25,709.81 853.23,709.82 853.16,709.85 853.03,709.91 852.87,710.00 852.65,710.15 852.34,710.37 851.94,710.66 851.48,711.00 850.94,711.42 850.32,711.93 849.67,712.50 849.05,713.06 848.47,713.60 847.82,714.21 847.10,714.92 846.35,715.68 845.65,716.42 844.99,717.11 844.27,717.89 843.47,718.78 842.64,719.73 841.70,720.81 840.63,722.07 839.79,723.07 839.60,723.29 "
       style="stroke-width: 1.71; stroke: #4D4D4D; stroke-opacity: 0.60;"
       id="polyline164" />
    <polygon
       points="164.76,353.39 297.96,353.39 297.87,353.39 298.22,353.38 298.56,353.31 298.88,353.18 299.18,353.01 299.45,352.79 299.68,352.53 299.87,352.23 300.01,351.92 300.09,351.58 300.12,351.23 300.12,351.23 300.12,337.05 300.12,337.05 300.09,336.70 300.01,336.36 299.87,336.04 299.68,335.75 299.45,335.49 299.18,335.27 298.88,335.10 298.56,334.97 298.22,334.90 297.96,334.89 164.76,334.89 165.02,334.90 164.67,334.89 164.33,334.93 163.99,335.03 163.68,335.18 163.39,335.37 163.14,335.61 162.93,335.89 162.77,336.20 162.66,336.53 162.60,336.87 162.60,337.05 162.60,351.23 162.60,351.06 162.60,351.40 162.66,351.75 162.77,352.08 162.93,352.39 163.14,352.66 163.39,352.90 163.68,353.10 163.99,353.25 164.33,353.35 164.67,353.39 "
       style="stroke-width: 0.53; stroke: #000000; stroke-opacity: 0.85; fill: #449464; fill-opacity: 0.85;"
       id="polygon166" />
    <text
       x="231.36"
       y="349.79"
       text-anchor="middle"
       style="font-size: 17.07px;fill: #000000; fill-opacity: 0.85; font-family: &quot;Times New Roman&quot;;"
       textLength="130.32px"
       lengthAdjust="spacingAndGlyphs"
       id="text168">Anomaly (physics)</text>
    <polygon
       points="523.02,109.54 642.47,109.54 642.38,109.54 642.73,109.52 643.07,109.45 643.39,109.33 643.69,109.16 643.96,108.94 644.19,108.68 644.38,108.38 644.51,108.06 644.60,107.73 644.63,107.38 644.63,107.38 644.63,93.20 644.63,93.20 644.60,92.85 644.51,92.51 644.38,92.19 644.19,91.90 643.96,91.64 643.69,91.42 643.39,91.24 643.07,91.12 642.73,91.05 642.47,91.04 523.02,91.04 523.29,91.05 522.94,91.04 522.59,91.08 522.26,91.18 521.94,91.32 521.66,91.52 521.41,91.76 521.20,92.04 521.04,92.35 520.93,92.68 520.87,93.02 520.86,93.20 520.86,107.38 520.87,107.21 520.87,107.55 520.93,107.90 521.04,108.23 521.20,108.53 521.41,108.81 521.66,109.05 521.94,109.25 522.26,109.40 522.59,109.50 522.94,109.54 "
       style="stroke-width: 0.53; stroke: #000000; stroke-opacity: 0.85; fill: #449464; fill-opacity: 0.85;"
       id="polygon170" />
    <text
       x="582.75"
       y="105.94"
       text-anchor="middle"
       style="font-size: 17.07px;fill: #000000; fill-opacity: 0.85; font-family: &quot;Times New Roman&quot;;"
       textLength="116.56px"
       lengthAdjust="spacingAndGlyphs"
       id="text172">Backpropagation</text>
    <polygon
       points="752.46,177.62 916.91,177.62 916.83,177.61 917.17,177.60 917.52,177.53 917.84,177.41 918.14,177.23 918.41,177.01 918.64,176.75 918.83,176.46 918.96,176.14 919.05,175.80 919.07,175.46 919.07,175.46 919.07,161.27 919.07,161.27 919.05,160.92 918.96,160.59 918.83,160.27 918.64,159.97 918.41,159.71 918.14,159.49 917.84,159.32 917.52,159.20 917.17,159.13 916.91,159.11 752.46,159.11 752.72,159.13 752.37,159.11 752.03,159.15 751.69,159.25 751.38,159.40 751.09,159.60 750.84,159.84 750.63,160.12 750.47,160.42 750.36,160.75 750.31,161.10 750.30,161.27 750.30,175.46 750.31,175.28 750.31,175.63 750.36,175.97 750.47,176.30 750.63,176.61 750.84,176.89 751.09,177.13 751.38,177.33 751.69,177.47 752.03,177.57 752.37,177.61 "
       style="stroke-width: 0.53; stroke: #000000; stroke-opacity: 0.85; fill: #449464; fill-opacity: 0.85;"
       id="polygon174" />
    <text
       x="834.69"
       y="174.02"
       text-anchor="middle"
       style="font-size: 17.07px;fill: #000000; fill-opacity: 0.85; font-family: &quot;Times New Roman&quot;;"
       textLength="161.58px"
       lengthAdjust="spacingAndGlyphs"
       id="text176">Benchmark (surveying)</text>
    <polygon
       points="525.94,484.00 574.32,484.00 574.23,484.00 574.58,483.99 574.92,483.92 575.25,483.79 575.55,483.62 575.82,483.40 576.05,483.14 576.23,482.85 576.37,482.53 576.45,482.19 576.48,481.84 576.48,481.84 576.48,467.66 576.48,467.66 576.45,467.31 576.37,466.97 576.23,466.65 576.05,466.36 575.82,466.10 575.55,465.88 575.25,465.71 574.92,465.58 574.58,465.51 574.32,465.50 525.94,465.50 526.20,465.51 525.86,465.50 525.51,465.54 525.18,465.64 524.86,465.79 524.58,465.98 524.33,466.23 524.12,466.50 523.96,466.81 523.85,467.14 523.79,467.48 523.78,467.66 523.78,481.84 523.79,481.67 523.79,482.02 523.85,482.36 523.96,482.69 524.12,483.00 524.33,483.27 524.58,483.51 524.86,483.71 525.18,483.86 525.51,483.96 525.86,484.00 "
       style="stroke-width: 0.53; stroke: #000000; stroke-opacity: 0.85; fill: #449464; fill-opacity: 0.85;"
       id="polygon178" />
    <text
       x="550.13"
       y="480.40"
       text-anchor="middle"
       style="font-size: 17.07px;fill: #000000; fill-opacity: 0.85; font-family: &quot;Times New Roman&quot;;"
       textLength="45.50px"
       lengthAdjust="spacingAndGlyphs"
       id="text180">Biome</text>
    <polygon
       points="237.51,488.19 295.82,488.19 295.73,488.19 296.08,488.17 296.42,488.11 296.75,487.98 297.05,487.81 297.32,487.59 297.55,487.33 297.73,487.03 297.87,486.71 297.95,486.38 297.98,486.03 297.98,486.03 297.98,471.85 297.98,471.85 297.95,471.50 297.87,471.16 297.73,470.84 297.55,470.55 297.32,470.29 297.05,470.07 296.75,469.90 296.42,469.77 296.08,469.70 295.82,469.69 237.51,469.69 237.77,469.70 237.42,469.69 237.08,469.73 236.74,469.83 236.43,469.98 236.14,470.17 235.89,470.41 235.68,470.69 235.52,471.00 235.41,471.33 235.36,471.67 235.35,471.85 235.35,486.03 235.36,485.86 235.36,486.20 235.41,486.55 235.52,486.88 235.68,487.18 235.89,487.46 236.14,487.70 236.43,487.90 236.74,488.05 237.08,488.15 237.42,488.19 "
       style="stroke-width: 0.53; stroke: #000000; stroke-opacity: 0.85; fill: #449464; fill-opacity: 0.85;"
       id="polygon182" />
    <text
       x="266.66"
       y="484.59"
       text-anchor="middle"
       style="font-size: 17.07px;fill: #000000; fill-opacity: 0.85; font-family: &quot;Times New Roman&quot;;"
       textLength="55.43px"
       lengthAdjust="spacingAndGlyphs"
       id="text184">Data set</text>
    <polygon
       points="808.16,541.42 931.86,541.42 931.77,541.42 932.12,541.41 932.46,541.34 932.78,541.21 933.09,541.04 933.35,540.82 933.59,540.56 933.77,540.27 933.91,539.95 933.99,539.61 934.02,539.26 934.02,539.26 934.02,525.08 934.02,525.08 933.99,524.73 933.91,524.39 933.77,524.07 933.59,523.78 933.35,523.52 933.09,523.30 932.78,523.13 932.46,523.00 932.12,522.93 931.86,522.92 808.16,522.92 808.42,522.93 808.07,522.92 807.72,522.96 807.39,523.06 807.08,523.21 806.79,523.41 806.54,523.65 806.33,523.92 806.17,524.23 806.06,524.56 806.00,524.90 806.00,525.08 806.00,539.26 806.00,539.09 806.00,539.44 806.06,539.78 806.17,540.11 806.33,540.42 806.54,540.69 806.79,540.94 807.08,541.13 807.39,541.28 807.72,541.38 808.07,541.42 "
       style="stroke-width: 0.53; stroke: #000000; stroke-opacity: 0.85; fill: #449464; fill-opacity: 0.85;"
       id="polygon186" />
    <text
       x="870.01"
       y="537.82"
       text-anchor="middle"
       style="font-size: 17.07px;fill: #000000; fill-opacity: 0.85; font-family: &quot;Times New Roman&quot;;"
       textLength="120.82px"
       lengthAdjust="spacingAndGlyphs"
       id="text188">Earth observation</text>
    <polygon
       points="212.80,642.69 335.57,642.69 335.48,642.69 335.83,642.67 336.17,642.61 336.49,642.48 336.79,642.31 337.06,642.09 337.29,641.83 337.48,641.53 337.62,641.21 337.70,640.88 337.73,640.53 337.73,640.53 337.73,626.35 337.73,626.35 337.70,626.00 337.62,625.66 337.48,625.34 337.29,625.05 337.06,624.79 336.79,624.57 336.49,624.40 336.17,624.27 335.83,624.20 335.57,624.19 212.80,624.19 213.06,624.20 212.71,624.19 212.37,624.23 212.03,624.33 211.72,624.48 211.43,624.67 211.18,624.91 210.97,625.19 210.81,625.50 210.70,625.83 210.65,626.17 210.64,626.35 210.64,640.53 210.65,640.36 210.65,640.70 210.70,641.05 210.81,641.38 210.97,641.69 211.18,641.96 211.43,642.20 211.72,642.40 212.03,642.55 212.37,642.65 212.71,642.69 "
       style="stroke-width: 0.53; stroke: #000000; stroke-opacity: 0.85; fill: #449464; fill-opacity: 0.85;"
       id="polygon190" />
    <text
       x="274.18"
       y="639.09"
       text-anchor="middle"
       style="font-size: 17.07px;fill: #000000; fill-opacity: 0.85; font-family: &quot;Times New Roman&quot;;"
       textLength="119.89px"
       lengthAdjust="spacingAndGlyphs"
       id="text192">Flood forecasting</text>
    <polygon
       points="433.74,290.92 595.35,290.92 595.26,290.92 595.61,290.90 595.95,290.83 596.27,290.71 596.57,290.54 596.84,290.32 597.07,290.06 597.26,289.76 597.40,289.44 597.48,289.11 597.51,288.76 597.51,288.76 597.51,274.58 597.51,274.58 597.48,274.23 597.40,273.89 597.26,273.57 597.07,273.28 596.84,273.02 596.57,272.80 596.27,272.62 595.95,272.50 595.61,272.43 595.35,272.42 433.74,272.42 434.00,272.43 433.66,272.42 433.31,272.46 432.98,272.56 432.66,272.71 432.38,272.90 432.13,273.14 431.92,273.42 431.76,273.73 431.65,274.06 431.59,274.40 431.58,274.58 431.58,288.76 431.59,288.59 431.59,288.93 431.65,289.28 431.76,289.61 431.92,289.91 432.13,290.19 432.38,290.43 432.66,290.63 432.98,290.78 433.31,290.88 433.66,290.92 "
       style="stroke-width: 0.53; stroke: #000000; stroke-opacity: 0.85; fill: #449464; fill-opacity: 0.85;"
       id="polygon194" />
    <text
       x="514.55"
       y="287.32"
       text-anchor="middle"
       style="font-size: 17.07px;fill: #000000; fill-opacity: 0.85; font-family: &quot;Times New Roman&quot;;"
       textLength="158.72px"
       lengthAdjust="spacingAndGlyphs"
       id="text196">Groundwater resources</text>
    <polygon
       points="623.80,578.96 769.30,578.96 769.21,578.96 769.56,578.94 769.90,578.87 770.23,578.75 770.53,578.57 770.80,578.35 771.03,578.09 771.21,577.80 771.35,577.48 771.43,577.14 771.46,576.80 771.46,576.80 771.46,562.61 771.46,562.61 771.43,562.27 771.35,561.93 771.21,561.61 771.03,561.32 770.80,561.06 770.53,560.84 770.23,560.66 769.90,560.54 769.56,560.47 769.30,560.45 623.80,560.45 624.06,560.47 623.71,560.45 623.36,560.50 623.03,560.59 622.72,560.74 622.43,560.94 622.18,561.18 621.97,561.46 621.81,561.77 621.70,562.10 621.64,562.44 621.64,562.61 621.64,576.80 621.64,576.62 621.64,576.97 621.70,577.31 621.81,577.64 621.97,577.95 622.18,578.23 622.43,578.47 622.72,578.67 623.03,578.82 623.36,578.91 623.71,578.96 "
       style="stroke-width: 0.53; stroke: #000000; stroke-opacity: 0.85; fill: #449464; fill-opacity: 0.85;"
       id="polygon198" />
    <text
       x="696.55"
       y="575.36"
       text-anchor="middle"
       style="font-size: 17.07px;fill: #000000; fill-opacity: 0.85; font-family: &quot;Times New Roman&quot;;"
       textLength="142.62px"
       lengthAdjust="spacingAndGlyphs"
       id="text200">Predictive modelling</text>
    <polygon
       points="657.00,790.03 931.87,790.03 931.78,790.03 932.13,790.01 932.47,789.94 932.79,789.82 933.09,789.64 933.36,789.42 933.59,789.16 933.78,788.87 933.92,788.55 934.00,788.21 934.03,787.87 934.03,787.87 934.03,773.68 934.03,773.68 934.00,773.34 933.92,773.00 933.78,772.68 933.59,772.39 933.36,772.13 933.09,771.91 932.79,771.73 932.47,771.61 932.13,771.54 931.87,771.52 657.00,771.52 657.26,771.54 656.91,771.52 656.57,771.57 656.23,771.66 655.92,771.81 655.63,772.01 655.38,772.25 655.17,772.53 655.01,772.84 654.90,773.17 654.85,773.51 654.84,773.68 654.84,787.87 654.85,787.69 654.85,788.04 654.90,788.38 655.01,788.71 655.17,789.02 655.38,789.30 655.63,789.54 655.92,789.74 656.23,789.89 656.57,789.98 656.91,790.03 "
       style="stroke-width: 0.53; stroke: #000000; stroke-opacity: 0.85; fill: #449464; fill-opacity: 0.85;"
       id="polygon202" />
    <text
       x="794.43"
       y="786.43"
       text-anchor="middle"
       style="font-size: 17.07px;fill: #000000; fill-opacity: 0.85; font-family: &quot;Times New Roman&quot;;"
       textLength="271.99px"
       lengthAdjust="spacingAndGlyphs"
       id="text204">Representative Concentration Pathways</text>
    <polygon
       points="773.81,282.25 857.26,282.25 857.17,282.25 857.52,282.24 857.86,282.17 858.19,282.04 858.49,281.87 858.76,281.65 858.99,281.39 859.17,281.10 859.31,280.78 859.39,280.44 859.42,280.09 859.42,280.09 859.42,265.91 859.42,265.91 859.39,265.56 859.31,265.22 859.17,264.90 858.99,264.61 858.76,264.35 858.49,264.13 858.19,263.96 857.86,263.83 857.52,263.76 857.26,263.75 773.81,263.75 774.07,263.76 773.72,263.75 773.38,263.79 773.05,263.89 772.73,264.04 772.45,264.24 772.19,264.48 771.99,264.75 771.82,265.06 771.71,265.39 771.66,265.73 771.65,265.91 771.65,280.09 771.66,279.92 771.66,280.27 771.71,280.61 771.82,280.94 771.99,281.25 772.19,281.52 772.45,281.77 772.73,281.96 773.05,282.11 773.38,282.21 773.72,282.25 "
       style="stroke-width: 0.53; stroke: #000000; stroke-opacity: 0.85; fill: #449464; fill-opacity: 0.85;"
       id="polygon206" />
    <text
       x="815.54"
       y="278.65"
       text-anchor="middle"
       style="font-size: 17.07px;fill: #000000; fill-opacity: 0.85; font-family: &quot;Times New Roman&quot;;"
       textLength="80.57px"
       lengthAdjust="spacingAndGlyphs"
       id="text208">Water cycle</text>
    <polygon
       points="661.91,458.11 732.11,458.11 732.02,458.11 732.37,458.10 732.71,458.03 733.03,457.90 733.33,457.73 733.60,457.51 733.83,457.25 734.02,456.96 734.16,456.64 734.24,456.30 734.27,455.95 734.27,455.95 734.27,441.77 734.27,441.77 734.24,441.42 734.16,441.08 734.02,440.76 733.83,440.47 733.60,440.21 733.33,439.99 733.03,439.82 732.71,439.69 732.37,439.62 732.11,439.61 661.91,439.61 662.17,439.62 661.82,439.61 661.48,439.65 661.14,439.75 660.83,439.90 660.54,440.10 660.29,440.34 660.08,440.61 659.92,440.92 659.81,441.25 659.75,441.59 659.75,441.77 659.75,455.95 659.75,455.78 659.75,456.13 659.81,456.47 659.92,456.80 660.08,457.11 660.29,457.38 660.54,457.63 660.83,457.82 661.14,457.97 661.48,458.07 661.82,458.11 "
       style="stroke-width: 0.53; stroke: #000000; stroke-opacity: 0.85; fill: #449464; fill-opacity: 0.85;"
       id="polygon210" />
    <text
       x="697.01"
       y="454.51"
       text-anchor="middle"
       style="font-size: 17.07px;fill: #000000; fill-opacity: 0.85; font-family: &quot;Times New Roman&quot;;"
       textLength="67.32px"
       lengthAdjust="spacingAndGlyphs"
       id="text212">Water use</text>
    <polygon
       points="405.34,474.68 453.73,474.68 453.64,474.68 453.99,474.67 454.33,474.60 454.65,474.48 454.96,474.30 455.23,474.08 455.46,473.82 455.64,473.53 455.78,473.21 455.86,472.87 455.89,472.52 455.89,472.52 455.89,458.34 455.89,458.34 455.86,457.99 455.78,457.66 455.64,457.34 455.46,457.04 455.23,456.78 454.96,456.56 454.65,456.39 454.33,456.27 453.99,456.20 453.73,456.18 405.34,456.18 405.60,456.20 405.25,456.18 404.91,456.22 404.57,456.32 404.26,456.47 403.97,456.67 403.72,456.91 403.51,457.19 403.35,457.49 403.24,457.82 403.18,458.17 403.18,458.34 403.18,472.52 403.18,472.35 403.18,472.70 403.24,473.04 403.35,473.37 403.51,473.68 403.72,473.96 403.97,474.20 404.26,474.40 404.57,474.54 404.91,474.64 405.25,474.68 "
       style="stroke-width: 0.53; stroke: #000000; stroke-opacity: 0.85; fill: #F7BE8A; fill-opacity: 0.85;"
       id="polygon214" />
    <text
       x="429.53"
       y="471.08"
       text-anchor="middle"
       style="font-size: 17.07px;fill: #000000; fill-opacity: 0.85; font-family: &quot;Times New Roman&quot;;"
       textLength="45.51px"
       lengthAdjust="spacingAndGlyphs"
       id="text216">LSTM</text>
    <polygon
       points="584.16,385.33 689.85,385.33 689.76,385.33 690.11,385.32 690.45,385.25 690.78,385.12 691.08,384.95 691.35,384.73 691.58,384.47 691.76,384.18 691.90,383.86 691.98,383.52 692.01,383.17 692.01,383.17 692.01,368.99 692.01,368.99 691.98,368.64 691.90,368.31 691.76,367.99 691.58,367.69 691.35,367.43 691.08,367.21 690.78,367.04 690.45,366.91 690.11,366.84 689.85,366.83 584.16,366.83 584.42,366.84 584.07,366.83 583.72,366.87 583.39,366.97 583.08,367.12 582.79,367.32 582.54,367.56 582.33,367.83 582.17,368.14 582.06,368.47 582.00,368.82 582.00,368.99 582.00,383.17 582.00,383.00 582.00,383.35 582.06,383.69 582.17,384.02 582.33,384.33 582.54,384.61 582.79,384.85 583.08,385.04 583.39,385.19 583.72,385.29 584.07,385.33 "
       style="stroke-width: 0.53; stroke: #000000; stroke-opacity: 0.85; fill: #F7BE8A; fill-opacity: 0.85;"
       id="polygon218" />
    <text
       x="637.00"
       y="381.73"
       text-anchor="middle"
       style="font-size: 17.07px;fill: #000000; fill-opacity: 0.85; font-family: &quot;Times New Roman&quot;;"
       textLength="102.82px"
       lengthAdjust="spacingAndGlyphs"
       id="text220">neural network</text>
    <polygon
       points="516.81,732.08 556.67,732.08 556.58,732.08 556.93,732.06 557.27,731.99 557.60,731.87 557.90,731.70 558.17,731.48 558.40,731.22 558.58,730.92 558.72,730.60 558.80,730.27 558.83,729.92 558.83,729.92 558.83,715.74 558.83,715.74 558.80,715.39 558.72,715.05 558.58,714.73 558.40,714.44 558.17,714.18 557.90,713.96 557.60,713.78 557.27,713.66 556.93,713.59 556.67,713.58 516.81,713.58 517.07,713.59 516.72,713.58 516.38,713.62 516.04,713.72 515.73,713.86 515.44,714.06 515.19,714.30 514.98,714.58 514.82,714.89 514.71,715.22 514.66,715.56 514.65,715.74 514.65,729.92 514.66,729.75 514.66,730.09 514.71,730.44 514.82,730.77 514.98,731.07 515.19,731.35 515.44,731.59 515.73,731.79 516.04,731.94 516.38,732.04 516.72,732.08 "
       style="stroke-width: 0.53; stroke: #000000; stroke-opacity: 0.85; fill: #F7BE8A; fill-opacity: 0.85;"
       id="polygon222" />
    <text
       x="536.74"
       y="728.48"
       text-anchor="middle"
       style="font-size: 17.07px;fill: #000000; fill-opacity: 0.85; font-family: &quot;Times New Roman&quot;;"
       textLength="36.98px"
       lengthAdjust="spacingAndGlyphs"
       id="text224">ANN</text>
    <polygon
       points="758.87,631.89 856.99,631.89 856.90,631.89 857.25,631.87 857.59,631.80 857.91,631.68 858.21,631.51 858.48,631.29 858.71,631.03 858.90,630.73 859.03,630.41 859.12,630.08 859.15,629.73 859.15,629.73 859.15,615.54 859.15,615.54 859.12,615.20 859.03,614.86 858.90,614.54 858.71,614.25 858.48,613.99 858.21,613.77 857.91,613.59 857.59,613.47 857.25,613.40 856.99,613.38 758.87,613.38 759.13,613.40 758.78,613.39 758.44,613.43 758.11,613.53 757.79,613.67 757.50,613.87 757.25,614.11 757.05,614.39 756.88,614.70 756.77,615.03 756.72,615.37 756.71,615.54 756.71,629.73 756.72,629.56 756.72,629.90 756.77,630.25 756.88,630.58 757.05,630.88 757.25,631.16 757.50,631.40 757.79,631.60 758.11,631.75 758.44,631.85 758.78,631.89 "
       style="stroke-width: 0.53; stroke: #000000; stroke-opacity: 0.85; fill: #F7BE8A; fill-opacity: 0.85;"
       id="polygon226" />
    <text
       x="807.93"
       y="628.29"
       text-anchor="middle"
       style="font-size: 17.07px;fill: #000000; fill-opacity: 0.85; font-family: &quot;Times New Roman&quot;;"
       textLength="95.23px"
       lengthAdjust="spacingAndGlyphs"
       id="text228">random forest</text>
    <polygon
       points="823.27,488.26 896.27,488.26 896.18,488.26 896.53,488.25 896.87,488.18 897.20,488.05 897.50,487.88 897.77,487.66 898.00,487.40 898.18,487.11 898.32,486.79 898.40,486.45 898.43,486.10 898.43,486.10 898.43,471.92 898.43,471.92 898.40,471.57 898.32,471.24 898.18,470.92 898.00,470.62 897.77,470.36 897.50,470.14 897.20,469.97 896.87,469.84 896.53,469.77 896.27,469.76 823.27,469.76 823.53,469.77 823.18,469.76 822.84,469.80 822.50,469.90 822.19,470.05 821.90,470.25 821.65,470.49 821.45,470.76 821.28,471.07 821.17,471.40 821.12,471.75 821.11,471.92 821.11,486.10 821.12,485.93 821.12,486.28 821.17,486.62 821.28,486.95 821.45,487.26 821.65,487.54 821.90,487.78 822.19,487.97 822.50,488.12 822.84,488.22 823.18,488.26 "
       style="stroke-width: 0.53; stroke: #000000; stroke-opacity: 0.85; fill: #F7BE8A; fill-opacity: 0.85;"
       id="polygon230" />
    <text
       x="859.77"
       y="484.66"
       text-anchor="middle"
       style="font-size: 17.07px;fill: #000000; fill-opacity: 0.85; font-family: &quot;Times New Roman&quot;;"
       textLength="70.12px"
       lengthAdjust="spacingAndGlyphs"
       id="text232">regression</text>
    <polygon
       points="111.60,626.89 151.46,626.89 151.37,626.89 151.72,626.87 152.06,626.81 152.38,626.68 152.68,626.51 152.95,626.29 153.18,626.03 153.37,625.73 153.51,625.41 153.59,625.08 153.62,624.73 153.62,624.73 153.62,610.55 153.62,610.55 153.59,610.20 153.51,609.86 153.37,609.54 153.18,609.25 152.95,608.99 152.68,608.77 152.38,608.60 152.06,608.47 151.72,608.40 151.46,608.39 111.60,608.39 111.86,608.40 111.51,608.39 111.16,608.43 110.83,608.53 110.52,608.68 110.23,608.87 109.98,609.11 109.77,609.39 109.61,609.70 109.50,610.03 109.44,610.37 109.44,610.55 109.44,624.73 109.44,624.56 109.44,624.90 109.50,625.25 109.61,625.58 109.77,625.88 109.98,626.16 110.23,626.40 110.52,626.60 110.83,626.75 111.16,626.85 111.51,626.89 "
       style="stroke-width: 0.53; stroke: #000000; stroke-opacity: 0.85; fill: #F7BE8A; fill-opacity: 0.85;"
       id="polygon234" />
    <text
       x="131.53"
       y="623.29"
       text-anchor="middle"
       style="font-size: 17.07px;fill: #000000; fill-opacity: 0.85; font-family: &quot;Times New Roman&quot;;"
       textLength="36.98px"
       lengthAdjust="spacingAndGlyphs"
       id="text236">GAN</text>
    <polygon
       points="184.50,755.14 213.92,755.14 213.83,755.14 214.18,755.13 214.52,755.06 214.85,754.93 215.15,754.76 215.42,754.54 215.65,754.28 215.83,753.98 215.97,753.66 216.05,753.33 216.08,752.98 216.08,752.98 216.08,738.80 216.08,738.80 216.05,738.45 215.97,738.11 215.83,737.79 215.65,737.50 215.42,737.24 215.15,737.02 214.85,736.85 214.52,736.72 214.18,736.65 213.92,736.64 184.50,736.64 184.76,736.65 184.41,736.64 184.07,736.68 183.74,736.78 183.42,736.93 183.14,737.12 182.88,737.36 182.68,737.64 182.51,737.95 182.40,738.28 182.35,738.62 182.34,738.80 182.34,752.98 182.35,752.81 182.35,753.15 182.40,753.50 182.51,753.83 182.68,754.14 182.88,754.41 183.14,754.65 183.42,754.85 183.74,755.00 184.07,755.10 184.41,755.14 "
       style="stroke-width: 0.53; stroke: #000000; stroke-opacity: 0.85; fill: #F7BE8A; fill-opacity: 0.85;"
       id="polygon238" />
    <text
       x="199.21"
       y="751.54"
       text-anchor="middle"
       style="font-size: 17.07px;fill: #000000; fill-opacity: 0.85; font-family: &quot;Times New Roman&quot;;"
       textLength="26.54px"
       lengthAdjust="spacingAndGlyphs"
       id="text240">mlp</text>
    <polygon
       points="416.66,671.09 579.69,671.09 579.60,671.09 579.95,671.08 580.29,671.01 580.62,670.88 580.92,670.71 581.19,670.49 581.42,670.23 581.60,669.94 581.74,669.62 581.82,669.28 581.85,668.93 581.85,668.93 581.85,654.75 581.85,654.75 581.82,654.40 581.74,654.06 581.60,653.74 581.42,653.45 581.19,653.19 580.92,652.97 580.62,652.80 580.29,652.67 579.95,652.60 579.69,652.59 416.66,652.59 416.92,652.60 416.57,652.59 416.23,652.63 415.89,652.73 415.58,652.88 415.29,653.07 415.04,653.32 414.84,653.59 414.67,653.90 414.56,654.23 414.51,654.57 414.50,654.75 414.50,668.93 414.51,668.76 414.51,669.11 414.56,669.45 414.67,669.78 414.84,670.09 415.04,670.36 415.29,670.60 415.58,670.80 415.89,670.95 416.23,671.05 416.57,671.09 "
       style="stroke-width: 0.53; stroke: #000000; stroke-opacity: 0.85; fill: #F7BE8A; fill-opacity: 0.85;"
       id="polygon242" />
    <text
       x="498.18"
       y="667.49"
       text-anchor="middle"
       style="font-size: 17.07px;fill: #000000; fill-opacity: 0.85; font-family: &quot;Times New Roman&quot;;"
       textLength="160.15px"
       lengthAdjust="spacingAndGlyphs"
       id="text244">support vector machine</text>
    <polygon
       points="823.61,709.81 913.18,709.81 913.10,709.81 913.44,709.80 913.78,709.73 914.11,709.61 914.41,709.43 914.68,709.21 914.91,708.95 915.10,708.66 915.23,708.34 915.32,708.00 915.34,707.65 915.34,707.65 915.34,693.47 915.34,693.47 915.32,693.12 915.23,692.79 915.10,692.47 914.91,692.17 914.68,691.91 914.41,691.69 914.11,691.52 913.78,691.40 913.44,691.33 913.18,691.31 823.61,691.31 823.87,691.33 823.52,691.31 823.18,691.35 822.84,691.45 822.53,691.60 822.24,691.80 821.99,692.04 821.78,692.32 821.62,692.62 821.51,692.95 821.46,693.30 821.45,693.47 821.45,707.65 821.46,707.48 821.46,707.83 821.51,708.17 821.62,708.50 821.78,708.81 821.99,709.09 822.24,709.33 822.53,709.52 822.84,709.67 823.18,709.77 823.52,709.81 "
       style="stroke-width: 0.53; stroke: #000000; stroke-opacity: 0.85; fill: #F7BE8A; fill-opacity: 0.85;"
       id="polygon246" />
    <text
       x="868.40"
       y="706.21"
       text-anchor="middle"
       style="font-size: 17.07px;fill: #000000; fill-opacity: 0.85; font-family: &quot;Times New Roman&quot;;"
       textLength="86.70px"
       lengthAdjust="spacingAndGlyphs"
       id="text248">decision tree</text>
  </g>
  <g
     clip-path="url(#cpMC4wMHwxMDA4LjAwfDAuMDB8ODY0LjAw)"
     id="g254">
    <text
       x="56.69"
       y="70.91"
       style="font-size: 13.20px; font-family: &quot;Times New Roman&quot;;"
       textLength="257.30px"
       lengthAdjust="spacingAndGlyphs"
       id="text252">Keyword Network Analysis: Water Management</text>
  </g>
</svg>
