<?xml version="1.0" encoding="UTF-8" standalone="no"?>
<svg
   xmlns:dc="http://purl.org/dc/elements/1.1/"
   xmlns:cc="http://creativecommons.org/ns#"
   xmlns:rdf="http://www.w3.org/1999/02/22-rdf-syntax-ns#"
   xmlns:svg="http://www.w3.org/2000/svg"
   xmlns="http://www.w3.org/2000/svg"
   xmlns:sodipodi="http://sodipodi.sourceforge.net/DTD/sodipodi-0.dtd"
   xmlns:inkscape="http://www.inkscape.org/namespaces/inkscape"
   class="svglite"
   width="1008.00pt"
   height="864.00pt"
   viewBox="0 0 1008.00 864.00"
   version="1.1"
   id="svg74"
   sodipodi:docname="keyword_network_ocean.svg"
   inkscape:export-filename="/home/erikz/SRC/AI/Deep_mind_roundtable/Lit search/lit_review_deepmind/plots/final_new_networks/keyword_network_ocean.png"
   inkscape:export-xdpi="150"
   inkscape:export-ydpi="150"
   inkscape:version="0.92.5 (2060ec1f9f, 2020-04-08)">
  <metadata
     id="metadata78">
    <rdf:RDF>
      <cc:Work
         rdf:about="">
        <dc:format>image/svg+xml</dc:format>
        <dc:type
           rdf:resource="http://purl.org/dc/dcmitype/StillImage" />
      </cc:Work>
    </rdf:RDF>
  </metadata>
  <sodipodi:namedview
     pagecolor="#ffffff"
     bordercolor="#666666"
     borderopacity="1"
     objecttolerance="10"
     gridtolerance="10"
     guidetolerance="10"
     inkscape:pageopacity="0"
     inkscape:pageshadow="2"
     inkscape:window-width="1848"
     inkscape:window-height="1016"
     id="namedview76"
     showgrid="false"
     inkscape:zoom="0.20486111"
     inkscape:cx="672"
     inkscape:cy="576"
     inkscape:window-x="72"
     inkscape:window-y="27"
     inkscape:window-maximized="1"
     inkscape:current-layer="svg74" />
  <defs
     id="defs4">
    <style
       type="text/css"
       id="style2"><![CDATA[
    .svglite line, .svglite polyline, .svglite polygon, .svglite path, .svglite rect, .svglite circle {
      fill: none;
      stroke: #000000;
      stroke-linecap: round;
      stroke-linejoin: round;
      stroke-miterlimit: 10.00;
    }
    .svglite text {
      white-space: pre;
    }
  ]]></style>
  </defs>
  <rect
     width="100%"
     height="100%"
     style="stroke: none; fill: none;"
     id="rect6" />
  <defs
     id="defs11">
    <clipPath
       id="cpMC4wMHwxMDA4LjAwfDAuMDB8ODY0LjAw">
      <rect
         x="0.00"
         y="0.00"
         width="1008.00"
         height="864.00"
         id="rect8" />
    </clipPath>
  </defs>
  <g
     clip-path="url(#cpMC4wMHwxMDA4LjAwfDAuMDB8ODY0LjAw)"
     id="g13" />
  <defs
     id="defs18">
    <clipPath
       id="cpNTYuNjl8OTUxLjMxfDczLjc1fDgwNy4zMQ==">
      <rect
         x="56.69"
         y="73.75"
         width="894.61"
         height="733.56"
         id="rect15" />
    </clipPath>
  </defs>
  <g
     clip-path="url(#cpNTYuNjl8OTUxLjMxfDczLjc1fDgwNy4zMQ==)"
     id="g68">
    <rect
       x="56.69"
       y="73.75"
       width="894.61"
       height="733.56"
       style="stroke-width: 0.75; stroke: none; fill: #FFFFFF;"
       id="rect20" />
    <polyline
       points="885.86,213.27 886.11,216.22 886.36,219.18 886.61,222.14 886.86,225.10 887.11,228.06 887.36,231.01 887.61,233.97 887.86,236.93 888.11,239.89 888.36,242.85 888.61,245.81 888.86,248.76 889.11,251.72 889.36,254.68 889.61,257.64 889.86,260.60 890.11,263.55 890.37,266.51 890.62,269.47 890.87,272.43 891.12,275.39 891.37,278.35 891.62,281.30 891.87,284.26 892.12,287.22 892.37,290.18 892.62,293.14 892.87,296.09 893.12,299.05 893.37,302.01 893.62,304.97 893.87,307.93 894.12,310.89 894.37,313.84 894.62,316.80 894.87,319.76 895.12,322.72 895.37,325.68 895.62,328.63 895.87,331.59 896.12,334.55 896.37,337.51 896.62,340.47 896.87,343.43 897.12,346.38 897.37,349.34 897.62,352.30 897.88,355.26 898.13,358.22 898.38,361.17 898.63,364.13 898.88,367.09 899.13,370.05 899.38,373.01 899.63,375.97 899.88,378.92 900.13,381.88 900.38,384.84 900.63,387.80 900.88,390.76 901.13,393.71 901.38,396.67 901.63,399.63 901.88,402.59 902.13,405.55 902.38,408.50 902.63,411.46 902.88,414.42 903.13,417.38 903.38,420.34 903.63,423.30 903.88,426.25 904.13,429.21 904.38,432.17 904.63,435.13 904.88,438.09 905.14,441.04 905.39,444.00 905.64,446.96 905.89,449.92 906.14,452.88 906.39,455.84 906.64,458.79 906.89,461.75 907.14,464.71 907.39,467.67 907.64,470.63 907.89,473.58 908.14,476.54 908.39,479.50 908.64,482.46 908.89,485.42 909.14,488.38 909.39,491.33 909.64,494.29 909.89,497.25 910.14,500.21 910.39,503.17 910.64,506.12 "
       style="stroke-width: 3.73; stroke: #666666; stroke-opacity: 0.40; stroke-linecap: butt;"
       id="polyline22" />
    <polyline
       points="266.55,420.53 267.29,423.61 268.03,426.68 268.77,429.76 269.51,432.83 270.25,435.91 270.99,438.98 271.73,442.06 272.47,445.13 273.21,448.21 273.95,451.28 274.69,454.35 275.43,457.43 276.17,460.50 276.91,463.58 277.65,466.65 278.39,469.73 279.13,472.80 279.87,475.88 280.61,478.95 281.35,482.03 282.09,485.10 282.83,488.17 283.57,491.25 284.31,494.32 285.05,497.40 285.79,500.47 286.53,503.55 287.27,506.62 288.01,509.70 288.75,512.77 289.49,515.84 290.23,518.92 290.97,521.99 291.71,525.07 292.45,528.14 293.19,531.22 293.93,534.29 294.67,537.37 295.41,540.44 296.15,543.52 296.89,546.59 297.63,549.66 298.37,552.74 299.11,555.81 299.85,558.89 300.59,561.96 301.33,565.04 302.07,568.11 302.81,571.19 303.55,574.26 304.29,577.33 305.03,580.41 305.77,583.48 306.51,586.56 307.25,589.63 307.99,592.71 308.73,595.78 309.47,598.86 310.21,601.93 310.96,605.01 311.70,608.08 312.44,611.15 313.18,614.23 313.92,617.30 314.66,620.38 315.40,623.45 316.14,626.53 316.88,629.60 317.62,632.68 318.36,635.75 319.10,638.83 319.84,641.90 320.58,644.97 321.32,648.05 322.06,651.12 322.80,654.20 323.54,657.27 324.28,660.35 325.02,663.42 325.76,666.50 326.50,669.57 327.24,672.64 327.98,675.72 328.72,678.79 329.46,681.87 330.20,684.94 330.94,688.02 331.68,691.09 332.42,694.17 333.16,697.24 333.90,700.32 334.64,703.39 335.38,706.46 336.12,709.54 336.86,712.61 337.60,715.69 338.34,718.76 339.08,721.84 339.82,724.91 "
       style="stroke-width: 3.73; stroke: #666666; stroke-opacity: 0.40; stroke-linecap: butt;"
       id="polyline24" />
    <polyline
       points="266.55,420.53 266.76,417.37 266.97,414.20 267.18,411.04 267.40,407.87 267.61,404.70 267.82,401.54 268.03,398.37 268.24,395.21 268.46,392.04 268.67,388.87 268.88,385.71 269.09,382.54 269.30,379.38 269.52,376.21 269.73,373.04 269.94,369.88 270.15,366.71 270.36,363.55 270.58,360.38 270.79,357.21 271.00,354.05 271.21,350.88 271.42,347.72 271.64,344.55 271.85,341.38 272.06,338.22 272.27,335.05 272.48,331.88 272.70,328.72 272.91,325.55 273.12,322.39 273.33,319.22 273.54,316.05 273.76,312.89 273.97,309.72 274.18,306.56 274.39,303.39 274.60,300.22 274.82,297.06 275.03,293.89 275.24,290.73 275.45,287.56 275.66,284.39 275.88,281.23 276.09,278.06 276.30,274.90 276.51,271.73 276.72,268.56 276.94,265.40 277.15,262.23 277.36,259.07 277.57,255.90 277.78,252.73 278.00,249.57 278.21,246.40 278.42,243.23 278.63,240.07 278.84,236.90 279.06,233.74 279.27,230.57 279.48,227.40 279.69,224.24 279.90,221.07 280.11,217.91 280.33,214.74 280.54,211.57 280.75,208.41 280.96,205.24 281.17,202.08 281.39,198.91 281.60,195.74 281.81,192.58 282.02,189.41 282.23,186.25 282.45,183.08 282.66,179.91 282.87,176.75 283.08,173.58 283.29,170.41 283.51,167.25 283.72,164.08 283.93,160.92 284.14,157.75 284.35,154.58 284.57,151.42 284.78,148.25 284.99,145.09 285.20,141.92 285.41,138.75 285.63,135.59 285.84,132.42 286.05,129.26 286.26,126.09 286.47,122.92 286.69,119.76 286.90,116.59 287.11,113.43 287.32,110.26 287.53,107.09 "
       style="stroke-width: 3.73; stroke: #666666; stroke-opacity: 0.40; stroke-linecap: butt;"
       id="polyline26" />
    <circle
       cx="885.86"
       cy="213.27"
       r="3.56"
       style="stroke-width: 0.71; fill: #449464;"
       id="circle28" />
    <circle
       cx="266.55"
       cy="420.53"
       r="16.36"
       style="stroke-width: 0.71; fill: #449464;"
       id="circle30" />
    <circle
       cx="910.64"
       cy="506.12"
       r="3.56"
       style="stroke-width: 0.71; fill: #F7BE8A;"
       id="circle32" />
    <circle
       cx="339.82"
       cy="724.91"
       r="3.56"
       style="stroke-width: 0.71; fill: #F7BE8A;"
       id="circle34" />
    <circle
       cx="287.53"
       cy="107.09"
       r="3.56"
       style="stroke-width: 0.71; fill: #F7BE8A;"
       id="circle36" />
    <polyline
       points="867.11,213.21 867.11,213.21 867.11,213.21 867.11,213.21 867.12,213.22 867.12,213.22 867.12,213.22 867.12,213.22 867.12,213.22 867.12,213.22 867.12,213.22 867.12,213.23 867.13,213.23 867.13,213.23 867.13,213.23 867.13,213.23 867.15,213.23 867.27,213.24 867.56,213.24 868.07,213.24 868.85,213.24 869.80,213.24 871.22,213.24 873.25,213.24 875.56,213.24 877.09,213.24 877.38,213.24 "
       style="stroke-width: 1.71; stroke: #4D4D4D; stroke-opacity: 0.60;"
       id="polyline38" />
    <polyline
       points="285.60,401.72 285.59,401.73 285.51,401.75 285.39,401.81 285.23,401.91 285.01,402.06 284.70,402.28 284.30,402.57 283.84,402.91 283.30,403.33 282.67,403.84 282.02,404.40 281.41,404.96 280.83,405.50 280.18,406.11 279.46,406.82 278.71,407.58 278.01,408.32 277.36,409.01 276.64,409.79 275.84,410.68 275.00,411.62 274.07,412.71 273.00,413.97 272.15,414.96 271.96,415.19 "
       style="stroke-width: 1.71; stroke: #4D4D4D; stroke-opacity: 0.60;"
       id="polyline40" />
    <polyline
       points="891.53,506.05 891.53,506.05 891.53,506.05 891.54,506.05 891.54,506.06 891.54,506.06 891.54,506.06 891.54,506.06 891.54,506.06 891.55,506.06 891.55,506.07 891.55,506.07 891.55,506.07 891.56,506.07 891.56,506.08 891.56,506.08 891.58,506.08 891.70,506.08 892.00,506.09 892.53,506.09 893.34,506.09 894.30,506.09 895.73,506.09 897.78,506.09 900.14,506.09 901.79,506.09 902.17,506.09 902.17,506.09 "
       style="stroke-width: 1.71; stroke: #4D4D4D; stroke-opacity: 0.60;"
       id="polyline42" />
    <polyline
       points="325.75,750.50 325.85,750.42 326.31,750.08 326.90,749.65 327.42,749.24 327.92,748.84 328.43,748.39 328.91,747.95 329.37,747.53 329.87,747.05 330.44,746.49 331.03,745.89 331.58,745.31 332.10,744.77 332.66,744.16 333.29,743.46 333.93,742.72 334.53,741.93 335.04,741.08 335.49,740.13 335.83,739.07 336.03,737.98 336.17,736.53 336.26,734.58 336.31,732.51 336.33,731.37 336.34,731.25 "
       style="stroke-width: 1.71; stroke: #4D4D4D; stroke-opacity: 0.60;"
       id="polyline44" />
    <polyline
       points="268.52,125.86 268.54,125.85 268.61,125.83 268.74,125.77 268.90,125.67 269.12,125.52 269.43,125.30 269.83,125.01 270.29,124.67 270.82,124.26 271.45,123.75 272.09,123.19 272.71,122.63 273.29,122.09 273.93,121.48 274.65,120.78 275.40,120.02 276.09,119.28 276.74,118.59 277.46,117.82 278.26,116.94 279.09,115.99 280.02,114.91 281.09,113.65 281.93,112.66 282.12,112.44 "
       style="stroke-width: 1.71; stroke: #4D4D4D; stroke-opacity: 0.60;"
       id="polyline46" />
    <polygon
       points="727.98,222.46 864.95,222.46 864.86,222.46 865.21,222.45 865.55,222.38 865.88,222.25 866.18,222.08 866.45,221.86 866.68,221.60 866.86,221.31 867.00,220.99 867.08,220.65 867.11,220.30 867.11,220.30 867.11,206.12 867.11,206.12 867.08,205.77 867.00,205.44 866.86,205.12 866.68,204.82 866.45,204.56 866.18,204.34 865.88,204.17 865.55,204.04 865.21,203.98 864.95,203.96 727.98,203.96 728.24,203.98 727.89,203.96 727.55,204.00 727.21,204.10 726.90,204.25 726.61,204.45 726.36,204.69 726.15,204.96 725.99,205.27 725.88,205.60 725.83,205.95 725.82,206.12 725.82,220.30 725.83,220.13 725.83,220.48 725.88,220.82 725.99,221.15 726.15,221.46 726.36,221.74 726.61,221.98 726.90,222.17 727.21,222.32 727.55,222.42 727.89,222.46 "
       style="stroke-width: 0.53; stroke: #000000; stroke-opacity: 0.85; fill: #449464; fill-opacity: 0.85;"
       id="polygon48" />
    <text
       x="796.47"
       y="218.86"
       text-anchor="middle"
       style="font-size: 17.07px;fill: #000000; fill-opacity: 0.85; font-family: &quot;Times New Roman&quot;;"
       textLength="134.09px"
       lengthAdjust="spacingAndGlyphs"
       id="text50">Ocean observations</text>
    <polygon
       points="226.37,401.72 375.17,401.72 375.08,401.72 375.43,401.71 375.77,401.64 376.09,401.51 376.39,401.34 376.66,401.12 376.89,400.86 377.08,400.57 377.21,400.25 377.30,399.91 377.33,399.56 377.33,399.56 377.33,385.38 377.33,385.38 377.30,385.03 377.21,384.69 377.08,384.37 376.89,384.08 376.66,383.82 376.39,383.60 376.09,383.43 375.77,383.30 375.43,383.23 375.17,383.22 226.37,383.22 226.63,383.23 226.28,383.22 225.94,383.26 225.60,383.36 225.29,383.51 225.00,383.70 224.75,383.95 224.55,384.22 224.38,384.53 224.27,384.86 224.22,385.20 224.21,385.38 224.21,399.56 224.22,399.39 224.22,399.74 224.27,400.08 224.38,400.41 224.55,400.72 224.75,400.99 225.00,401.23 225.29,401.43 225.60,401.58 225.94,401.68 226.28,401.72 "
       style="stroke-width: 0.53; stroke: #000000; stroke-opacity: 0.85; fill: #449464; fill-opacity: 0.85;"
       id="polygon52" />
    <text
       x="300.77"
       y="398.12"
       text-anchor="middle"
       style="font-size: 17.07px;fill: #000000; fill-opacity: 0.85; font-family: &quot;Times New Roman&quot;;"
       textLength="145.92px"
       lengthAdjust="spacingAndGlyphs"
       id="text54">Sea ice concentration</text>
    <polygon
       points="783.68,515.30 889.37,515.30 889.29,515.30 889.63,515.28 889.97,515.22 890.30,515.09 890.60,514.92 890.87,514.70 891.10,514.44 891.29,514.14 891.42,513.82 891.50,513.49 891.53,513.14 891.53,513.14 891.53,498.96 891.53,498.96 891.50,498.61 891.42,498.27 891.29,497.95 891.10,497.66 890.87,497.40 890.60,497.18 890.30,497.00 889.97,496.88 889.63,496.81 889.37,496.80 783.68,496.80 783.94,496.81 783.59,496.80 783.24,496.84 782.91,496.94 782.60,497.09 782.31,497.28 782.06,497.52 781.85,497.80 781.69,498.11 781.58,498.44 781.52,498.78 781.52,498.96 781.52,513.14 781.52,512.97 781.52,513.31 781.58,513.66 781.69,513.99 781.85,514.29 782.06,514.57 782.31,514.81 782.60,515.01 782.91,515.16 783.24,515.26 783.59,515.30 "
       style="stroke-width: 0.53; stroke: #000000; stroke-opacity: 0.85; fill: #F7BE8A; fill-opacity: 0.85;"
       id="polygon56" />
    <text
       x="836.52"
       y="511.70"
       text-anchor="middle"
       style="font-size: 17.07px;fill: #000000; fill-opacity: 0.85; font-family: &quot;Times New Roman&quot;;"
       textLength="102.82px"
       lengthAdjust="spacingAndGlyphs"
       id="text58">neural network</text>
    <polygon
       points="287.51,762.27 323.59,762.27 323.50,762.27 323.85,762.26 324.19,762.19 324.52,762.06 324.82,761.89 325.09,761.67 325.32,761.41 325.50,761.12 325.64,760.80 325.72,760.46 325.75,760.11 325.75,760.11 325.75,745.93 325.75,745.93 325.72,745.58 325.64,745.24 325.50,744.92 325.32,744.63 325.09,744.37 324.82,744.15 324.52,743.98 324.19,743.85 323.85,743.78 323.59,743.77 287.51,743.77 287.77,743.78 287.42,743.77 287.08,743.81 286.75,743.91 286.43,744.06 286.15,744.25 285.89,744.50 285.69,744.77 285.52,745.08 285.41,745.41 285.36,745.75 285.35,745.93 285.35,760.11 285.36,759.94 285.36,760.29 285.41,760.63 285.52,760.96 285.69,761.27 285.89,761.54 286.15,761.79 286.43,761.98 286.75,762.13 287.08,762.23 287.42,762.27 "
       style="stroke-width: 0.53; stroke: #000000; stroke-opacity: 0.85; fill: #F7BE8A; fill-opacity: 0.85;"
       id="polygon60" />
    <text
       x="305.55"
       y="758.67"
       text-anchor="middle"
       style="font-size: 17.07px;fill: #000000; fill-opacity: 0.85; font-family: &quot;Times New Roman&quot;;"
       textLength="33.20px"
       lengthAdjust="spacingAndGlyphs"
       id="text62">PCA</text>
    <polygon
       points="204.31,144.36 302.42,144.36 302.34,144.36 302.68,144.35 303.02,144.28 303.35,144.15 303.65,143.98 303.92,143.76 304.15,143.50 304.34,143.20 304.47,142.88 304.55,142.55 304.58,142.20 304.58,142.20 304.58,128.02 304.58,128.02 304.55,127.67 304.47,127.33 304.34,127.01 304.15,126.72 303.92,126.46 303.65,126.24 303.35,126.07 303.02,125.94 302.68,125.87 302.42,125.86 204.31,125.86 204.57,125.87 204.22,125.86 203.88,125.90 203.54,126.00 203.23,126.15 202.94,126.34 202.69,126.58 202.48,126.86 202.32,127.17 202.21,127.50 202.16,127.84 202.15,128.02 202.15,142.20 202.16,142.03 202.16,142.37 202.21,142.72 202.32,143.05 202.48,143.36 202.69,143.63 202.94,143.87 203.23,144.07 203.54,144.22 203.88,144.32 204.22,144.36 "
       style="stroke-width: 0.53; stroke: #000000; stroke-opacity: 0.85; fill: #F7BE8A; fill-opacity: 0.85;"
       id="polygon64" />
    <text
       x="253.37"
       y="140.76"
       text-anchor="middle"
       style="font-size: 17.07px;fill: #000000; fill-opacity: 0.85; font-family: &quot;Times New Roman&quot;;"
       textLength="95.23px"
       lengthAdjust="spacingAndGlyphs"
       id="text66">random forest</text>
  </g>
  <g
     clip-path="url(#cpMC4wMHwxMDA4LjAwfDAuMDB8ODY0LjAw)"
     id="g72">
    <text
       x="56.69"
       y="70.91"
       style="font-size: 13.20px; font-family: &quot;Times New Roman&quot;;"
       textLength="249.82px"
       lengthAdjust="spacingAndGlyphs"
       id="text70">Keyword Network Analysis: Ocean Challenges</text>
  </g>
</svg>
