<?xml version="1.0" encoding="UTF-8" standalone="no"?>
<svg
   xmlns:dc="http://purl.org/dc/elements/1.1/"
   xmlns:cc="http://creativecommons.org/ns#"
   xmlns:rdf="http://www.w3.org/1999/02/22-rdf-syntax-ns#"
   xmlns:svg="http://www.w3.org/2000/svg"
   xmlns="http://www.w3.org/2000/svg"
   xmlns:sodipodi="http://sodipodi.sourceforge.net/DTD/sodipodi-0.dtd"
   xmlns:inkscape="http://www.inkscape.org/namespaces/inkscape"
   class="svglite"
   width="1008.00pt"
   height="864.00pt"
   viewBox="0 0 1008.00 864.00"
   version="1.1"
   id="svg268"
   sodipodi:docname="keyword_network_biodiversity.svg"
   inkscape:export-filename="/home/erikz/SRC/AI/Deep_mind_roundtable/Lit search/lit_review_deepmind/plots/final_new_networks/keyword_network_biodiversity.png"
   inkscape:export-xdpi="150"
   inkscape:export-ydpi="150"
   inkscape:version="0.92.5 (2060ec1f9f, 2020-04-08)">
  <metadata
     id="metadata272">
    <rdf:RDF>
      <cc:Work
         rdf:about="">
        <dc:format>image/svg+xml</dc:format>
        <dc:type
           rdf:resource="http://purl.org/dc/dcmitype/StillImage" />
      </cc:Work>
    </rdf:RDF>
  </metadata>
  <sodipodi:namedview
     pagecolor="#ffffff"
     bordercolor="#666666"
     borderopacity="1"
     objecttolerance="10"
     gridtolerance="10"
     guidetolerance="10"
     inkscape:pageopacity="0"
     inkscape:pageshadow="2"
     inkscape:window-width="1848"
     inkscape:window-height="1016"
     id="namedview270"
     showgrid="false"
     inkscape:zoom="0.20486111"
     inkscape:cx="672"
     inkscape:cy="576"
     inkscape:window-x="72"
     inkscape:window-y="27"
     inkscape:window-maximized="1"
     inkscape:current-layer="svg268" />
  <defs
     id="defs4">
    <style
       type="text/css"
       id="style2"><![CDATA[
    .svglite line, .svglite polyline, .svglite polygon, .svglite path, .svglite rect, .svglite circle {
      fill: none;
      stroke: #000000;
      stroke-linecap: round;
      stroke-linejoin: round;
      stroke-miterlimit: 10.00;
    }
    .svglite text {
      white-space: pre;
    }
  ]]></style>
  </defs>
  <rect
     width="100%"
     height="100%"
     style="stroke: none; fill: none;"
     id="rect6" />
  <defs
     id="defs11">
    <clipPath
       id="cpMC4wMHwxMDA4LjAwfDAuMDB8ODY0LjAw">
      <rect
         x="0.00"
         y="0.00"
         width="1008.00"
         height="864.00"
         id="rect8" />
    </clipPath>
  </defs>
  <g
     clip-path="url(#cpMC4wMHwxMDA4LjAwfDAuMDB8ODY0LjAw)"
     id="g13" />
  <defs
     id="defs18">
    <clipPath
       id="cpNTYuNjl8OTUxLjMxfDczLjc1fDgwNy4zMQ==">
      <rect
         x="56.69"
         y="73.75"
         width="894.61"
         height="733.56"
         id="rect15" />
    </clipPath>
  </defs>
  <g
     clip-path="url(#cpNTYuNjl8OTUxLjMxfDczLjc1fDgwNy4zMQ==)"
     id="g262">
    <rect
       x="56.69"
       y="73.75"
       width="894.61"
       height="733.56"
       style="stroke-width: 0.75; stroke: none; fill: #FFFFFF;"
       id="rect20" />
    <polyline
       points="294.38,461.70 296.43,461.35 298.47,460.99 300.51,460.64 302.56,460.28 304.60,459.93 306.65,459.58 308.69,459.22 310.73,458.87 312.78,458.52 314.82,458.16 316.86,457.81 318.91,457.45 320.95,457.10 323.00,456.75 325.04,456.39 327.08,456.04 329.13,455.69 331.17,455.33 333.22,454.98 335.26,454.62 337.30,454.27 339.35,453.92 341.39,453.56 343.43,453.21 345.48,452.86 347.52,452.50 349.57,452.15 351.61,451.79 353.65,451.44 355.70,451.09 357.74,450.73 359.78,450.38 361.83,450.02 363.87,449.67 365.92,449.32 367.96,448.96 370.00,448.61 372.05,448.26 374.09,447.90 376.13,447.55 378.18,447.19 380.22,446.84 382.27,446.49 384.31,446.13 386.35,445.78 388.40,445.43 390.44,445.07 392.48,444.72 394.53,444.36 396.57,444.01 398.62,443.66 400.66,443.30 402.70,442.95 404.75,442.60 406.79,442.24 408.84,441.89 410.88,441.53 412.92,441.18 414.97,440.83 417.01,440.47 419.05,440.12 421.10,439.77 423.14,439.41 425.19,439.06 427.23,438.70 429.27,438.35 431.32,438.00 433.36,437.64 435.40,437.29 437.45,436.94 439.49,436.58 441.54,436.23 443.58,435.87 445.62,435.52 447.67,435.17 449.71,434.81 451.75,434.46 453.80,434.11 455.84,433.75 457.89,433.40 459.93,433.04 461.97,432.69 464.02,432.34 466.06,431.98 468.11,431.63 470.15,431.28 472.19,430.92 474.24,430.57 476.28,430.21 478.32,429.86 480.37,429.51 482.41,429.15 484.46,428.80 486.50,428.45 488.54,428.09 490.59,427.74 492.63,427.38 494.67,427.03 496.72,426.68 "
       style="stroke-width: 1.07; stroke: #666666; stroke-opacity: 0.40; stroke-linecap: butt;"
       id="polyline22" />
    <polyline
       points="679.51,604.66 680.79,606.37 682.08,608.08 683.36,609.79 684.64,611.50 685.92,613.21 687.21,614.92 688.49,616.63 689.77,618.34 691.06,620.05 692.34,621.76 693.62,623.47 694.90,625.18 696.19,626.89 697.47,628.60 698.75,630.31 700.04,632.02 701.32,633.73 702.60,635.44 703.88,637.15 705.17,638.86 706.45,640.57 707.73,642.28 709.02,643.99 710.30,645.70 711.58,647.41 712.86,649.12 714.15,650.83 715.43,652.55 716.71,654.26 718.00,655.97 719.28,657.68 720.56,659.39 721.84,661.10 723.13,662.81 724.41,664.52 725.69,666.23 726.98,667.94 728.26,669.65 729.54,671.36 730.82,673.07 732.11,674.78 733.39,676.49 734.67,678.20 735.96,679.91 737.24,681.62 738.52,683.33 739.80,685.04 741.09,686.75 742.37,688.46 743.65,690.17 744.94,691.88 746.22,693.59 747.50,695.30 748.78,697.01 750.07,698.72 751.35,700.43 752.63,702.14 753.92,703.85 755.20,705.56 756.48,707.27 757.77,708.98 759.05,710.69 760.33,712.40 761.61,714.11 762.90,715.82 764.18,717.53 765.46,719.24 766.75,720.95 768.03,722.66 769.31,724.37 770.59,726.08 771.88,727.79 773.16,729.50 774.44,731.21 775.73,732.92 777.01,734.63 778.29,736.34 779.57,738.05 780.86,739.76 782.14,741.47 783.42,743.18 784.71,744.89 785.99,746.60 787.27,748.31 788.55,750.02 789.84,751.73 791.12,753.44 792.40,755.15 793.69,756.86 794.97,758.57 796.25,760.28 797.53,761.99 798.82,763.70 800.10,765.41 801.38,767.12 802.67,768.83 803.95,770.54 805.23,772.25 806.51,773.96 "
       style="stroke-width: 1.07; stroke: #666666; stroke-opacity: 0.40; stroke-linecap: butt;"
       id="polyline24" />
    <polyline
       points="906.03,503.31 904.78,503.15 903.52,502.99 902.27,502.82 901.01,502.66 899.76,502.50 898.50,502.34 897.25,502.17 896.00,502.01 894.74,501.85 893.49,501.68 892.23,501.52 890.98,501.36 889.72,501.20 888.47,501.03 887.21,500.87 885.96,500.71 884.71,500.55 883.45,500.38 882.20,500.22 880.94,500.06 879.69,499.89 878.43,499.73 877.18,499.57 875.92,499.41 874.67,499.24 873.42,499.08 872.16,498.92 870.91,498.75 869.65,498.59 868.40,498.43 867.14,498.27 865.89,498.10 864.63,497.94 863.38,497.78 862.13,497.61 860.87,497.45 859.62,497.29 858.36,497.13 857.11,496.96 855.85,496.80 854.60,496.64 853.34,496.47 852.09,496.31 850.84,496.15 849.58,495.99 848.33,495.82 847.07,495.66 845.82,495.50 844.56,495.33 843.31,495.17 842.05,495.01 840.80,494.85 839.54,494.68 838.29,494.52 837.04,494.36 835.78,494.19 834.53,494.03 833.27,493.87 832.02,493.71 830.76,493.54 829.51,493.38 828.25,493.22 827.00,493.05 825.75,492.89 824.49,492.73 823.24,492.57 821.98,492.40 820.73,492.24 819.47,492.08 818.22,491.91 816.96,491.75 815.71,491.59 814.46,491.43 813.20,491.26 811.95,491.10 810.69,490.94 809.44,490.77 808.18,490.61 806.93,490.45 805.67,490.29 804.42,490.12 803.17,489.96 801.91,489.80 800.66,489.63 799.40,489.47 798.15,489.31 796.89,489.15 795.64,488.98 794.38,488.82 793.13,488.66 791.88,488.49 790.62,488.33 789.37,488.17 788.11,488.01 786.86,487.84 785.60,487.68 784.35,487.52 783.09,487.35 781.84,487.19 "
       style="stroke-width: 1.07; stroke: #666666; stroke-opacity: 0.40; stroke-linecap: butt;"
       id="polyline26" />
    <polyline
       points="906.03,503.31 904.28,502.48 902.53,501.65 900.77,500.82 899.02,499.99 897.27,499.16 895.52,498.33 893.76,497.50 892.01,496.67 890.26,495.84 888.51,495.01 886.76,494.18 885.00,493.35 883.25,492.52 881.50,491.69 879.75,490.86 877.99,490.03 876.24,489.20 874.49,488.37 872.74,487.54 870.98,486.71 869.23,485.88 867.48,485.05 865.73,484.22 863.97,483.39 862.22,482.56 860.47,481.73 858.72,480.90 856.96,480.07 855.21,479.24 853.46,478.41 851.71,477.58 849.96,476.75 848.20,475.91 846.45,475.08 844.70,474.25 842.95,473.42 841.19,472.59 839.44,471.76 837.69,470.93 835.94,470.10 834.18,469.27 832.43,468.44 830.68,467.61 828.93,466.78 827.17,465.95 825.42,465.12 823.67,464.29 821.92,463.46 820.16,462.63 818.41,461.80 816.66,460.97 814.91,460.14 813.16,459.31 811.40,458.48 809.65,457.65 807.90,456.82 806.15,455.99 804.39,455.16 802.64,454.33 800.89,453.50 799.14,452.67 797.38,451.84 795.63,451.01 793.88,450.18 792.13,449.35 790.37,448.52 788.62,447.69 786.87,446.86 785.12,446.03 783.37,445.20 781.61,444.36 779.86,443.53 778.11,442.70 776.36,441.87 774.60,441.04 772.85,440.21 771.10,439.38 769.35,438.55 767.59,437.72 765.84,436.89 764.09,436.06 762.34,435.23 760.58,434.40 758.83,433.57 757.08,432.74 755.33,431.91 753.57,431.08 751.82,430.25 750.07,429.42 748.32,428.59 746.57,427.76 744.81,426.93 743.06,426.10 741.31,425.27 739.56,424.44 737.80,423.61 736.05,422.78 734.30,421.95 732.55,421.12 "
       style="stroke-width: 1.07; stroke: #666666; stroke-opacity: 0.40; stroke-linecap: butt;"
       id="polyline28" />
    <polyline
       points="910.64,277.62 908.84,279.07 907.04,280.52 905.25,281.97 903.45,283.42 901.65,284.87 899.85,286.32 898.05,287.77 896.25,289.22 894.45,290.67 892.65,292.12 890.85,293.57 889.06,295.02 887.26,296.46 885.46,297.91 883.66,299.36 881.86,300.81 880.06,302.26 878.26,303.71 876.46,305.16 874.66,306.61 872.86,308.06 871.07,309.51 869.27,310.96 867.47,312.41 865.67,313.86 863.87,315.31 862.07,316.76 860.27,318.21 858.47,319.66 856.67,321.11 854.88,322.56 853.08,324.00 851.28,325.45 849.48,326.90 847.68,328.35 845.88,329.80 844.08,331.25 842.28,332.70 840.48,334.15 838.68,335.60 836.89,337.05 835.09,338.50 833.29,339.95 831.49,341.40 829.69,342.85 827.89,344.30 826.09,345.75 824.29,347.20 822.49,348.65 820.70,350.09 818.90,351.54 817.10,352.99 815.30,354.44 813.50,355.89 811.70,357.34 809.90,358.79 808.10,360.24 806.30,361.69 804.50,363.14 802.71,364.59 800.91,366.04 799.11,367.49 797.31,368.94 795.51,370.39 793.71,371.84 791.91,373.29 790.11,374.74 788.31,376.18 786.51,377.63 784.72,379.08 782.92,380.53 781.12,381.98 779.32,383.43 777.52,384.88 775.72,386.33 773.92,387.78 772.12,389.23 770.32,390.68 768.53,392.13 766.73,393.58 764.93,395.03 763.13,396.48 761.33,397.93 759.53,399.38 757.73,400.83 755.93,402.27 754.13,403.72 752.33,405.17 750.54,406.62 748.74,408.07 746.94,409.52 745.14,410.97 743.34,412.42 741.54,413.87 739.74,415.32 737.94,416.77 736.14,418.22 734.35,419.67 732.55,421.12 "
       style="stroke-width: 1.07; stroke: #666666; stroke-opacity: 0.40; stroke-linecap: butt;"
       id="polyline30" />
    <polyline
       points="619.25,306.50 617.66,307.13 616.07,307.75 614.49,308.38 612.90,309.01 611.31,309.63 609.72,310.26 608.14,310.89 606.55,311.52 604.96,312.14 603.37,312.77 601.78,313.40 600.20,314.02 598.61,314.65 597.02,315.28 595.43,315.90 593.85,316.53 592.26,317.16 590.67,317.78 589.08,318.41 587.50,319.04 585.91,319.67 584.32,320.29 582.73,320.92 581.15,321.55 579.56,322.17 577.97,322.80 576.38,323.43 574.80,324.05 573.21,324.68 571.62,325.31 570.03,325.94 568.45,326.56 566.86,327.19 565.27,327.82 563.68,328.44 562.10,329.07 560.51,329.70 558.92,330.32 557.33,330.95 555.75,331.58 554.16,332.20 552.57,332.83 550.98,333.46 549.40,334.09 547.81,334.71 546.22,335.34 544.63,335.97 543.05,336.59 541.46,337.22 539.87,337.85 538.28,338.47 536.70,339.10 535.11,339.73 533.52,340.36 531.93,340.98 530.35,341.61 528.76,342.24 527.17,342.86 525.58,343.49 524.00,344.12 522.41,344.74 520.82,345.37 519.23,346.00 517.64,346.62 516.06,347.25 514.47,347.88 512.88,348.51 511.29,349.13 509.71,349.76 508.12,350.39 506.53,351.01 504.94,351.64 503.36,352.27 501.77,352.89 500.18,353.52 498.59,354.15 497.01,354.78 495.42,355.40 493.83,356.03 492.24,356.66 490.66,357.28 489.07,357.91 487.48,358.54 485.89,359.16 484.31,359.79 482.72,360.42 481.13,361.04 479.54,361.67 477.96,362.30 476.37,362.93 474.78,363.55 473.19,364.18 471.61,364.81 470.02,365.43 468.43,366.06 466.84,366.69 465.26,367.31 463.67,367.94 462.08,368.57 "
       style="stroke-width: 1.07; stroke: #666666; stroke-opacity: 0.40; stroke-linecap: butt;"
       id="polyline32" />
    <polyline
       points="619.25,306.50 620.39,307.66 621.54,308.81 622.68,309.97 623.83,311.13 624.97,312.29 626.11,313.45 627.26,314.60 628.40,315.76 629.55,316.92 630.69,318.08 631.84,319.23 632.98,320.39 634.13,321.55 635.27,322.71 636.41,323.87 637.56,325.02 638.70,326.18 639.85,327.34 640.99,328.50 642.14,329.65 643.28,330.81 644.43,331.97 645.57,333.13 646.71,334.29 647.86,335.44 649.00,336.60 650.15,337.76 651.29,338.92 652.44,340.07 653.58,341.23 654.73,342.39 655.87,343.55 657.01,344.71 658.16,345.86 659.30,347.02 660.45,348.18 661.59,349.34 662.74,350.49 663.88,351.65 665.03,352.81 666.17,353.97 667.31,355.13 668.46,356.28 669.60,357.44 670.75,358.60 671.89,359.76 673.04,360.91 674.18,362.07 675.32,363.23 676.47,364.39 677.61,365.55 678.76,366.70 679.90,367.86 681.05,369.02 682.19,370.18 683.34,371.33 684.48,372.49 685.62,373.65 686.77,374.81 687.91,375.96 689.06,377.12 690.20,378.28 691.35,379.44 692.49,380.60 693.64,381.75 694.78,382.91 695.92,384.07 697.07,385.23 698.21,386.38 699.36,387.54 700.50,388.70 701.65,389.86 702.79,391.02 703.94,392.17 705.08,393.33 706.22,394.49 707.37,395.65 708.51,396.80 709.66,397.96 710.80,399.12 711.95,400.28 713.09,401.44 714.24,402.59 715.38,403.75 716.52,404.91 717.67,406.07 718.81,407.22 719.96,408.38 721.10,409.54 722.25,410.70 723.39,411.86 724.54,413.01 725.68,414.17 726.82,415.33 727.97,416.49 729.11,417.64 730.26,418.80 731.40,419.96 732.55,421.12 "
       style="stroke-width: 6.40; stroke: #666666; stroke-opacity: 0.40; stroke-linecap: butt;"
       id="polyline34" />
    <polyline
       points="288.92,267.41 286.98,266.93 285.05,266.45 283.11,265.97 281.18,265.49 279.24,265.01 277.31,264.53 275.37,264.05 273.44,263.57 271.50,263.09 269.57,262.61 267.63,262.13 265.70,261.65 263.76,261.17 261.83,260.69 259.89,260.21 257.96,259.73 256.02,259.25 254.09,258.77 252.15,258.29 250.22,257.81 248.28,257.33 246.35,256.85 244.41,256.37 242.48,255.89 240.54,255.41 238.61,254.93 236.67,254.46 234.74,253.98 232.80,253.50 230.87,253.02 228.93,252.54 227.00,252.06 225.06,251.58 223.13,251.10 221.19,250.62 219.26,250.14 217.32,249.66 215.39,249.18 213.45,248.70 211.52,248.22 209.58,247.74 207.65,247.26 205.71,246.78 203.78,246.30 201.84,245.82 199.91,245.34 197.97,244.86 196.04,244.38 194.10,243.90 192.17,243.42 190.23,242.94 188.30,242.46 186.36,241.98 184.43,241.50 182.49,241.02 180.56,240.54 178.62,240.06 176.69,239.58 174.75,239.10 172.82,238.62 170.88,238.14 168.95,237.66 167.01,237.18 165.08,236.70 163.14,236.22 161.21,235.74 159.27,235.26 157.34,234.78 155.41,234.30 153.47,233.82 151.54,233.34 149.60,232.86 147.67,232.38 145.73,231.90 143.80,231.42 141.86,230.94 139.93,230.46 137.99,229.98 136.06,229.50 134.12,229.02 132.19,228.54 130.25,228.07 128.32,227.59 126.38,227.11 124.45,226.63 122.51,226.15 120.58,225.67 118.64,225.19 116.71,224.71 114.77,224.23 112.84,223.75 110.90,223.27 108.97,222.79 107.03,222.31 105.10,221.83 103.16,221.35 101.23,220.87 99.29,220.39 97.36,219.91 "
       style="stroke-width: 1.07; stroke: #666666; stroke-opacity: 0.40; stroke-linecap: butt;"
       id="polyline36" />
    <polyline
       points="288.92,267.41 290.66,268.43 292.41,269.45 294.16,270.48 295.91,271.50 297.66,272.52 299.41,273.54 301.16,274.56 302.91,275.58 304.66,276.61 306.41,277.63 308.16,278.65 309.90,279.67 311.65,280.69 313.40,281.72 315.15,282.74 316.90,283.76 318.65,284.78 320.40,285.80 322.15,286.82 323.90,287.85 325.65,288.87 327.40,289.89 329.15,290.91 330.89,291.93 332.64,292.96 334.39,293.98 336.14,295.00 337.89,296.02 339.64,297.04 341.39,298.06 343.14,299.09 344.89,300.11 346.64,301.13 348.39,302.15 350.14,303.17 351.88,304.20 353.63,305.22 355.38,306.24 357.13,307.26 358.88,308.28 360.63,309.30 362.38,310.33 364.13,311.35 365.88,312.37 367.63,313.39 369.38,314.41 371.13,315.43 372.87,316.46 374.62,317.48 376.37,318.50 378.12,319.52 379.87,320.54 381.62,321.57 383.37,322.59 385.12,323.61 386.87,324.63 388.62,325.65 390.37,326.67 392.11,327.70 393.86,328.72 395.61,329.74 397.36,330.76 399.11,331.78 400.86,332.81 402.61,333.83 404.36,334.85 406.11,335.87 407.86,336.89 409.61,337.91 411.36,338.94 413.10,339.96 414.85,340.98 416.60,342.00 418.35,343.02 420.10,344.05 421.85,345.07 423.60,346.09 425.35,347.11 427.10,348.13 428.85,349.15 430.60,350.18 432.35,351.20 434.09,352.22 435.84,353.24 437.59,354.26 439.34,355.29 441.09,356.31 442.84,357.33 444.59,358.35 446.34,359.37 448.09,360.39 449.84,361.42 451.59,362.44 453.34,363.46 455.08,364.48 456.83,365.50 458.58,366.52 460.33,367.55 462.08,368.57 "
       style="stroke-width: 1.07; stroke: #666666; stroke-opacity: 0.40; stroke-linecap: butt;"
       id="polyline38" />
    <polyline
       points="288.92,267.41 291.01,269.02 293.11,270.63 295.21,272.24 297.31,273.85 299.41,275.45 301.51,277.06 303.61,278.67 305.71,280.28 307.81,281.89 309.91,283.50 312.00,285.11 314.10,286.72 316.20,288.32 318.30,289.93 320.40,291.54 322.50,293.15 324.60,294.76 326.70,296.37 328.80,297.98 330.90,299.59 332.99,301.19 335.09,302.80 337.19,304.41 339.29,306.02 341.39,307.63 343.49,309.24 345.59,310.85 347.69,312.46 349.79,314.06 351.89,315.67 353.98,317.28 356.08,318.89 358.18,320.50 360.28,322.11 362.38,323.72 364.48,325.33 366.58,326.93 368.68,328.54 370.78,330.15 372.88,331.76 374.97,333.37 377.07,334.98 379.17,336.59 381.27,338.20 383.37,339.80 385.47,341.41 387.57,343.02 389.67,344.63 391.77,346.24 393.87,347.85 395.97,349.46 398.06,351.07 400.16,352.67 402.26,354.28 404.36,355.89 406.46,357.50 408.56,359.11 410.66,360.72 412.76,362.33 414.86,363.94 416.96,365.54 419.05,367.15 421.15,368.76 423.25,370.37 425.35,371.98 427.45,373.59 429.55,375.20 431.65,376.81 433.75,378.41 435.85,380.02 437.95,381.63 440.04,383.24 442.14,384.85 444.24,386.46 446.34,388.07 448.44,389.68 450.54,391.28 452.64,392.89 454.74,394.50 456.84,396.11 458.94,397.72 461.03,399.33 463.13,400.94 465.23,402.55 467.33,404.15 469.43,405.76 471.53,407.37 473.63,408.98 475.73,410.59 477.83,412.20 479.93,413.81 482.02,415.42 484.12,417.02 486.22,418.63 488.32,420.24 490.42,421.85 492.52,423.46 494.62,425.07 496.72,426.68 "
       style="stroke-width: 1.07; stroke: #666666; stroke-opacity: 0.40; stroke-linecap: butt;"
       id="polyline40" />
    <polyline
       points="288.92,267.41 287.71,265.79 286.51,264.17 285.31,262.55 284.11,260.93 282.91,259.31 281.71,257.69 280.51,256.07 279.31,254.46 278.11,252.84 276.91,251.22 275.71,249.60 274.51,247.98 273.31,246.36 272.11,244.74 270.91,243.12 269.71,241.50 268.51,239.88 267.31,238.26 266.11,236.64 264.91,235.02 263.71,233.40 262.51,231.78 261.31,230.16 260.11,228.55 258.91,226.93 257.71,225.31 256.51,223.69 255.31,222.07 254.11,220.45 252.91,218.83 251.71,217.21 250.51,215.59 249.31,213.97 248.11,212.35 246.91,210.73 245.71,209.11 244.51,207.49 243.31,205.87 242.11,204.26 240.91,202.64 239.71,201.02 238.51,199.40 237.31,197.78 236.11,196.16 234.91,194.54 233.71,192.92 232.51,191.30 231.31,189.68 230.11,188.06 228.91,186.44 227.71,184.82 226.51,183.20 225.31,181.58 224.11,179.96 222.91,178.35 221.71,176.73 220.51,175.11 219.31,173.49 218.11,171.87 216.91,170.25 215.71,168.63 214.51,167.01 213.31,165.39 212.11,163.77 210.91,162.15 209.71,160.53 208.51,158.91 207.31,157.29 206.11,155.67 204.91,154.05 203.71,152.44 202.50,150.82 201.30,149.20 200.10,147.58 198.90,145.96 197.70,144.34 196.50,142.72 195.30,141.10 194.10,139.48 192.90,137.86 191.70,136.24 190.50,134.62 189.30,133.00 188.10,131.38 186.90,129.76 185.70,128.15 184.50,126.53 183.30,124.91 182.10,123.29 180.90,121.67 179.70,120.05 178.50,118.43 177.30,116.81 176.10,115.19 174.90,113.57 173.70,111.95 172.50,110.33 171.30,108.71 170.10,107.09 "
       style="stroke-width: 1.07; stroke: #666666; stroke-opacity: 0.40; stroke-linecap: butt;"
       id="polyline42" />
    <polyline
       points="905.52,409.20 904.27,409.99 903.02,410.78 901.77,411.57 900.52,412.35 899.28,413.14 898.03,413.93 896.78,414.72 895.53,415.50 894.28,416.29 893.03,417.08 891.78,417.87 890.53,418.66 889.28,419.44 888.03,420.23 886.78,421.02 885.53,421.81 884.28,422.59 883.03,423.38 881.79,424.17 880.54,424.96 879.29,425.75 878.04,426.53 876.79,427.32 875.54,428.11 874.29,428.90 873.04,429.68 871.79,430.47 870.54,431.26 869.29,432.05 868.04,432.84 866.79,433.62 865.54,434.41 864.29,435.20 863.05,435.99 861.80,436.77 860.55,437.56 859.30,438.35 858.05,439.14 856.80,439.93 855.55,440.71 854.30,441.50 853.05,442.29 851.80,443.08 850.55,443.86 849.30,444.65 848.05,445.44 846.80,446.23 845.55,447.02 844.31,447.80 843.06,448.59 841.81,449.38 840.56,450.17 839.31,450.95 838.06,451.74 836.81,452.53 835.56,453.32 834.31,454.11 833.06,454.89 831.81,455.68 830.56,456.47 829.31,457.26 828.06,458.04 826.82,458.83 825.57,459.62 824.32,460.41 823.07,461.20 821.82,461.98 820.57,462.77 819.32,463.56 818.07,464.35 816.82,465.13 815.57,465.92 814.32,466.71 813.07,467.50 811.82,468.29 810.57,469.07 809.32,469.86 808.08,470.65 806.83,471.44 805.58,472.22 804.33,473.01 803.08,473.80 801.83,474.59 800.58,475.38 799.33,476.16 798.08,476.95 796.83,477.74 795.58,478.53 794.33,479.31 793.08,480.10 791.83,480.89 790.59,481.68 789.34,482.47 788.09,483.25 786.84,484.04 785.59,484.83 784.34,485.62 783.09,486.40 781.84,487.19 "
       style="stroke-width: 1.07; stroke: #666666; stroke-opacity: 0.40; stroke-linecap: butt;"
       id="polyline44" />
    <polyline
       points="629.37,421.65 630.91,422.31 632.45,422.97 633.99,423.63 635.53,424.29 637.07,424.96 638.61,425.62 640.15,426.28 641.69,426.94 643.23,427.60 644.77,428.27 646.31,428.93 647.85,429.59 649.39,430.25 650.93,430.91 652.47,431.58 654.01,432.24 655.55,432.90 657.09,433.56 658.63,434.22 660.17,434.89 661.71,435.55 663.25,436.21 664.79,436.87 666.33,437.54 667.87,438.20 669.41,438.86 670.95,439.52 672.49,440.18 674.03,440.85 675.57,441.51 677.11,442.17 678.65,442.83 680.19,443.49 681.73,444.16 683.27,444.82 684.81,445.48 686.35,446.14 687.89,446.80 689.43,447.47 690.97,448.13 692.51,448.79 694.05,449.45 695.59,450.11 697.13,450.78 698.67,451.44 700.21,452.10 701.75,452.76 703.29,453.43 704.83,454.09 706.37,454.75 707.91,455.41 709.46,456.07 711.00,456.74 712.54,457.40 714.08,458.06 715.62,458.72 717.16,459.38 718.70,460.05 720.24,460.71 721.78,461.37 723.32,462.03 724.86,462.69 726.40,463.36 727.94,464.02 729.48,464.68 731.02,465.34 732.56,466.00 734.10,466.67 735.64,467.33 737.18,467.99 738.72,468.65 740.26,469.32 741.80,469.98 743.34,470.64 744.88,471.30 746.42,471.96 747.96,472.63 749.50,473.29 751.04,473.95 752.58,474.61 754.12,475.27 755.66,475.94 757.20,476.60 758.74,477.26 760.28,477.92 761.82,478.58 763.36,479.25 764.90,479.91 766.44,480.57 767.98,481.23 769.52,481.90 771.06,482.56 772.60,483.22 774.14,483.88 775.68,484.54 777.22,485.21 778.76,485.87 780.30,486.53 781.84,487.19 "
       style="stroke-width: 1.07; stroke: #666666; stroke-opacity: 0.40; stroke-linecap: butt;"
       id="polyline46" />
    <polyline
       points="629.37,421.65 628.03,421.70 626.69,421.75 625.35,421.80 624.01,421.85 622.67,421.90 621.33,421.95 619.99,422.00 618.65,422.05 617.31,422.10 615.97,422.15 614.63,422.20 613.29,422.25 611.95,422.31 610.61,422.36 609.27,422.41 607.93,422.46 606.59,422.51 605.25,422.56 603.91,422.61 602.57,422.66 601.23,422.71 599.89,422.76 598.55,422.81 597.21,422.86 595.87,422.92 594.53,422.97 593.19,423.02 591.85,423.07 590.51,423.12 589.17,423.17 587.83,423.22 586.49,423.27 585.15,423.32 583.81,423.37 582.47,423.42 581.13,423.47 579.79,423.53 578.45,423.58 577.11,423.63 575.77,423.68 574.43,423.73 573.09,423.78 571.75,423.83 570.41,423.88 569.07,423.93 567.73,423.98 566.39,424.03 565.05,424.08 563.71,424.14 562.37,424.19 561.03,424.24 559.69,424.29 558.35,424.34 557.01,424.39 555.67,424.44 554.33,424.49 552.99,424.54 551.65,424.59 550.31,424.64 548.97,424.69 547.63,424.75 546.29,424.80 544.96,424.85 543.62,424.90 542.28,424.95 540.94,425.00 539.60,425.05 538.26,425.10 536.92,425.15 535.58,425.20 534.24,425.25 532.90,425.30 531.56,425.36 530.22,425.41 528.88,425.46 527.54,425.51 526.20,425.56 524.86,425.61 523.52,425.66 522.18,425.71 520.84,425.76 519.50,425.81 518.16,425.86 516.82,425.91 515.48,425.97 514.14,426.02 512.80,426.07 511.46,426.12 510.12,426.17 508.78,426.22 507.44,426.27 506.10,426.32 504.76,426.37 503.42,426.42 502.08,426.47 500.74,426.52 499.40,426.58 498.06,426.63 496.72,426.68 "
       style="stroke-width: 1.07; stroke: #666666; stroke-opacity: 0.40; stroke-linecap: butt;"
       id="polyline48" />
    <polyline
       points="495.87,543.43 496.19,544.75 496.51,546.07 496.82,547.38 497.14,548.70 497.46,550.02 497.78,551.34 498.09,552.65 498.41,553.97 498.73,555.29 499.05,556.61 499.37,557.92 499.68,559.24 500.00,560.56 500.32,561.87 500.64,563.19 500.95,564.51 501.27,565.83 501.59,567.14 501.91,568.46 502.23,569.78 502.54,571.10 502.86,572.41 503.18,573.73 503.50,575.05 503.81,576.37 504.13,577.68 504.45,579.00 504.77,580.32 505.09,581.64 505.40,582.95 505.72,584.27 506.04,585.59 506.36,586.91 506.67,588.22 506.99,589.54 507.31,590.86 507.63,592.17 507.95,593.49 508.26,594.81 508.58,596.13 508.90,597.44 509.22,598.76 509.54,600.08 509.85,601.40 510.17,602.71 510.49,604.03 510.81,605.35 511.12,606.67 511.44,607.98 511.76,609.30 512.08,610.62 512.40,611.94 512.71,613.25 513.03,614.57 513.35,615.89 513.67,617.21 513.98,618.52 514.30,619.84 514.62,621.16 514.94,622.48 515.26,623.79 515.57,625.11 515.89,626.43 516.21,627.74 516.53,629.06 516.84,630.38 517.16,631.70 517.48,633.01 517.80,634.33 518.12,635.65 518.43,636.97 518.75,638.28 519.07,639.60 519.39,640.92 519.70,642.24 520.02,643.55 520.34,644.87 520.66,646.19 520.98,647.51 521.29,648.82 521.61,650.14 521.93,651.46 522.25,652.78 522.57,654.09 522.88,655.41 523.20,656.73 523.52,658.05 523.84,659.36 524.15,660.68 524.47,662.00 524.79,663.31 525.11,664.63 525.43,665.95 525.74,667.27 526.06,668.58 526.38,669.90 526.70,671.22 527.01,672.54 527.33,673.85 "
       style="stroke-width: 1.07; stroke: #666666; stroke-opacity: 0.40; stroke-linecap: butt;"
       id="polyline50" />
    <polyline
       points="495.87,543.43 495.53,541.66 495.19,539.90 494.85,538.13 494.50,536.37 494.16,534.60 493.82,532.83 493.48,531.07 493.14,529.30 492.80,527.53 492.46,525.77 492.12,524.00 491.77,522.24 491.43,520.47 491.09,518.70 490.75,516.94 490.41,515.17 490.07,513.40 489.73,511.64 489.38,509.87 489.04,508.11 488.70,506.34 488.36,504.57 488.02,502.81 487.68,501.04 487.34,499.27 487.00,497.51 486.65,495.74 486.31,493.97 485.97,492.21 485.63,490.44 485.29,488.68 484.95,486.91 484.61,485.14 484.27,483.38 483.92,481.61 483.58,479.84 483.24,478.08 482.90,476.31 482.56,474.55 482.22,472.78 481.88,471.01 481.53,469.25 481.19,467.48 480.85,465.71 480.51,463.95 480.17,462.18 479.83,460.42 479.49,458.65 479.15,456.88 478.80,455.12 478.46,453.35 478.12,451.58 477.78,449.82 477.44,448.05 477.10,446.29 476.76,444.52 476.42,442.75 476.07,440.99 475.73,439.22 475.39,437.45 475.05,435.69 474.71,433.92 474.37,432.15 474.03,430.39 473.68,428.62 473.34,426.86 473.00,425.09 472.66,423.32 472.32,421.56 471.98,419.79 471.64,418.02 471.30,416.26 470.95,414.49 470.61,412.73 470.27,410.96 469.93,409.19 469.59,407.43 469.25,405.66 468.91,403.89 468.57,402.13 468.22,400.36 467.88,398.60 467.54,396.83 467.20,395.06 466.86,393.30 466.52,391.53 466.18,389.76 465.84,388.00 465.49,386.23 465.15,384.47 464.81,382.70 464.47,380.93 464.13,379.17 463.79,377.40 463.45,375.63 463.10,373.87 462.76,372.10 462.42,370.33 462.08,368.57 "
       style="stroke-width: 1.07; stroke: #666666; stroke-opacity: 0.40; stroke-linecap: butt;"
       id="polyline52" />
    <polyline
       points="495.87,543.43 498.26,542.20 500.65,540.96 503.04,539.72 505.43,538.49 507.82,537.25 510.21,536.02 512.60,534.78 514.99,533.55 517.39,532.31 519.78,531.08 522.17,529.84 524.56,528.61 526.95,527.37 529.34,526.13 531.73,524.90 534.12,523.66 536.51,522.43 538.90,521.19 541.29,519.96 543.68,518.72 546.07,517.49 548.46,516.25 550.85,515.01 553.25,513.78 555.64,512.54 558.03,511.31 560.42,510.07 562.81,508.84 565.20,507.60 567.59,506.37 569.98,505.13 572.37,503.90 574.76,502.66 577.15,501.42 579.54,500.19 581.93,498.95 584.32,497.72 586.72,496.48 589.11,495.25 591.50,494.01 593.89,492.78 596.28,491.54 598.67,490.30 601.06,489.07 603.45,487.83 605.84,486.60 608.23,485.36 610.62,484.13 613.01,482.89 615.40,481.66 617.79,480.42 620.18,479.19 622.58,477.95 624.97,476.71 627.36,475.48 629.75,474.24 632.14,473.01 634.53,471.77 636.92,470.54 639.31,469.30 641.70,468.07 644.09,466.83 646.48,465.60 648.87,464.36 651.26,463.12 653.65,461.89 656.04,460.65 658.44,459.42 660.83,458.18 663.22,456.95 665.61,455.71 668.00,454.48 670.39,453.24 672.78,452.00 675.17,450.77 677.56,449.53 679.95,448.30 682.34,447.06 684.73,445.83 687.12,444.59 689.51,443.36 691.90,442.12 694.30,440.89 696.69,439.65 699.08,438.41 701.47,437.18 703.86,435.94 706.25,434.71 708.64,433.47 711.03,432.24 713.42,431.00 715.81,429.77 718.20,428.53 720.59,427.30 722.98,426.06 725.37,424.82 727.76,423.59 730.16,422.35 732.55,421.12 "
       style="stroke-width: 1.07; stroke: #666666; stroke-opacity: 0.40; stroke-linecap: butt;"
       id="polyline54" />
    <polyline
       points="495.87,543.43 495.88,542.25 495.89,541.07 495.90,539.89 495.90,538.71 495.91,537.53 495.92,536.36 495.93,535.18 495.94,534.00 495.95,532.82 495.96,531.64 495.96,530.46 495.97,529.28 495.98,528.10 495.99,526.92 496.00,525.74 496.01,524.56 496.02,523.38 496.02,522.20 496.03,521.02 496.04,519.84 496.05,518.67 496.06,517.49 496.07,516.31 496.08,515.13 496.08,513.95 496.09,512.77 496.10,511.59 496.11,510.41 496.12,509.23 496.13,508.05 496.14,506.87 496.14,505.69 496.15,504.51 496.16,503.33 496.17,502.15 496.18,500.98 496.19,499.80 496.20,498.62 496.20,497.44 496.21,496.26 496.22,495.08 496.23,493.90 496.24,492.72 496.25,491.54 496.26,490.36 496.26,489.18 496.27,488.00 496.28,486.82 496.29,485.64 496.30,484.46 496.31,483.29 496.32,482.11 496.32,480.93 496.33,479.75 496.34,478.57 496.35,477.39 496.36,476.21 496.37,475.03 496.38,473.85 496.38,472.67 496.39,471.49 496.40,470.31 496.41,469.13 496.42,467.95 496.43,466.77 496.44,465.60 496.44,464.42 496.45,463.24 496.46,462.06 496.47,460.88 496.48,459.70 496.49,458.52 496.50,457.34 496.50,456.16 496.51,454.98 496.52,453.80 496.53,452.62 496.54,451.44 496.55,450.26 496.56,449.08 496.56,447.91 496.57,446.73 496.58,445.55 496.59,444.37 496.60,443.19 496.61,442.01 496.62,440.83 496.62,439.65 496.63,438.47 496.64,437.29 496.65,436.11 496.66,434.93 496.67,433.75 496.68,432.57 496.68,431.39 496.69,430.22 496.70,429.04 496.71,427.86 496.72,426.68 "
       style="stroke-width: 1.07; stroke: #666666; stroke-opacity: 0.40; stroke-linecap: butt;"
       id="polyline56" />
    <polyline
       points="495.87,543.43 494.36,545.03 492.84,546.62 491.33,548.22 489.81,549.81 488.30,551.41 486.78,553.01 485.27,554.60 483.76,556.20 482.24,557.79 480.73,559.39 479.21,560.99 477.70,562.58 476.19,564.18 474.67,565.77 473.16,567.37 471.64,568.97 470.13,570.56 468.61,572.16 467.10,573.75 465.59,575.35 464.07,576.95 462.56,578.54 461.04,580.14 459.53,581.73 458.02,583.33 456.50,584.93 454.99,586.52 453.47,588.12 451.96,589.71 450.44,591.31 448.93,592.91 447.42,594.50 445.90,596.10 444.39,597.69 442.87,599.29 441.36,600.89 439.85,602.48 438.33,604.08 436.82,605.67 435.30,607.27 433.79,608.87 432.27,610.46 430.76,612.06 429.25,613.65 427.73,615.25 426.22,616.85 424.70,618.44 423.19,620.04 421.68,621.63 420.16,623.23 418.65,624.83 417.13,626.42 415.62,628.02 414.10,629.61 412.59,631.21 411.08,632.81 409.56,634.40 408.05,636.00 406.53,637.59 405.02,639.19 403.50,640.79 401.99,642.38 400.48,643.98 398.96,645.57 397.45,647.17 395.93,648.77 394.42,650.36 392.91,651.96 391.39,653.55 389.88,655.15 388.36,656.74 386.85,658.34 385.33,659.94 383.82,661.53 382.31,663.13 380.79,664.72 379.28,666.32 377.76,667.92 376.25,669.51 374.74,671.11 373.22,672.70 371.71,674.30 370.19,675.90 368.68,677.49 367.16,679.09 365.65,680.68 364.14,682.28 362.62,683.88 361.11,685.47 359.59,687.07 358.08,688.66 356.57,690.26 355.05,691.86 353.54,693.45 352.02,695.05 350.51,696.64 348.99,698.24 347.48,699.84 345.97,701.43 "
       style="stroke-width: 1.07; stroke: #666666; stroke-opacity: 0.40; stroke-linecap: butt;"
       id="polyline58" />
    <polyline
       points="896.56,682.24 895.40,680.27 894.24,678.30 893.08,676.33 891.92,674.36 890.76,672.39 889.61,670.42 888.45,668.45 887.29,666.48 886.13,664.50 884.97,662.53 883.81,660.56 882.65,658.59 881.49,656.62 880.34,654.65 879.18,652.68 878.02,650.71 876.86,648.74 875.70,646.77 874.54,644.80 873.38,642.83 872.22,640.86 871.07,638.89 869.91,636.92 868.75,634.95 867.59,632.98 866.43,631.01 865.27,629.04 864.11,627.07 862.95,625.10 861.79,623.13 860.64,621.16 859.48,619.19 858.32,617.22 857.16,615.25 856.00,613.28 854.84,611.31 853.68,609.34 852.52,607.37 851.37,605.40 850.21,603.43 849.05,601.46 847.89,599.49 846.73,597.52 845.57,595.55 844.41,593.58 843.25,591.61 842.10,589.64 840.94,587.67 839.78,585.70 838.62,583.73 837.46,581.76 836.30,579.79 835.14,577.82 833.98,575.85 832.83,573.88 831.67,571.91 830.51,569.94 829.35,567.97 828.19,566.00 827.03,564.03 825.87,562.06 824.71,560.09 823.56,558.12 822.40,556.15 821.24,554.18 820.08,552.21 818.92,550.24 817.76,548.27 816.60,546.30 815.44,544.33 814.29,542.36 813.13,540.39 811.97,538.42 810.81,536.45 809.65,534.48 808.49,532.51 807.33,530.54 806.17,528.56 805.02,526.59 803.86,524.62 802.70,522.65 801.54,520.68 800.38,518.71 799.22,516.74 798.06,514.77 796.90,512.80 795.75,510.83 794.59,508.86 793.43,506.89 792.27,504.92 791.11,502.95 789.95,500.98 788.79,499.01 787.63,497.04 786.47,495.07 785.32,493.10 784.16,491.13 783.00,489.16 781.84,487.19 "
       style="stroke-width: 1.07; stroke: #666666; stroke-opacity: 0.40; stroke-linecap: butt;"
       id="polyline60" />
    <polyline
       points="896.56,682.24 895.65,683.16 894.74,684.09 893.83,685.02 892.92,685.94 892.01,686.87 891.10,687.80 890.19,688.72 889.28,689.65 888.37,690.58 887.46,691.50 886.55,692.43 885.64,693.35 884.73,694.28 883.82,695.21 882.92,696.13 882.01,697.06 881.10,697.99 880.19,698.91 879.28,699.84 878.37,700.77 877.46,701.69 876.55,702.62 875.64,703.55 874.73,704.47 873.82,705.40 872.91,706.33 872.00,707.25 871.09,708.18 870.18,709.11 869.27,710.03 868.36,710.96 867.45,711.89 866.54,712.81 865.63,713.74 864.72,714.67 863.81,715.59 862.91,716.52 862.00,717.44 861.09,718.37 860.18,719.30 859.27,720.22 858.36,721.15 857.45,722.08 856.54,723.00 855.63,723.93 854.72,724.86 853.81,725.78 852.90,726.71 851.99,727.64 851.08,728.56 850.17,729.49 849.26,730.42 848.35,731.34 847.44,732.27 846.53,733.20 845.62,734.12 844.71,735.05 843.81,735.98 842.90,736.90 841.99,737.83 841.08,738.76 840.17,739.68 839.26,740.61 838.35,741.53 837.44,742.46 836.53,743.39 835.62,744.31 834.71,745.24 833.80,746.17 832.89,747.09 831.98,748.02 831.07,748.95 830.16,749.87 829.25,750.80 828.34,751.73 827.43,752.65 826.52,753.58 825.61,754.51 824.70,755.43 823.80,756.36 822.89,757.29 821.98,758.21 821.07,759.14 820.16,760.07 819.25,760.99 818.34,761.92 817.43,762.85 816.52,763.77 815.61,764.70 814.70,765.62 813.79,766.55 812.88,767.48 811.97,768.40 811.06,769.33 810.15,770.26 809.24,771.18 808.33,772.11 807.42,773.04 806.51,773.96 "
       style="stroke-width: 1.07; stroke: #666666; stroke-opacity: 0.40; stroke-linecap: butt;"
       id="polyline62" />
    <polyline
       points="723.76,333.27 724.34,334.83 724.93,336.38 725.52,337.94 726.10,339.49 726.69,341.05 727.28,342.60 727.86,344.16 728.45,345.71 729.04,347.27 729.62,348.82 730.21,350.38 730.80,351.93 731.38,353.48 731.97,355.04 732.56,356.59 733.14,358.15 733.73,359.70 734.32,361.26 734.90,362.81 735.49,364.37 736.08,365.92 736.66,367.48 737.25,369.03 737.84,370.59 738.42,372.14 739.01,373.70 739.60,375.25 740.18,376.81 740.77,378.36 741.36,379.92 741.94,381.47 742.53,383.02 743.12,384.58 743.70,386.13 744.29,387.69 744.88,389.24 745.46,390.80 746.05,392.35 746.64,393.91 747.22,395.46 747.81,397.02 748.40,398.57 748.98,400.13 749.57,401.68 750.16,403.24 750.74,404.79 751.33,406.35 751.92,407.90 752.50,409.46 753.09,411.01 753.68,412.56 754.26,414.12 754.85,415.67 755.44,417.23 756.03,418.78 756.61,420.34 757.20,421.89 757.79,423.45 758.37,425.00 758.96,426.56 759.55,428.11 760.13,429.67 760.72,431.22 761.31,432.78 761.89,434.33 762.48,435.89 763.07,437.44 763.65,439.00 764.24,440.55 764.83,442.10 765.41,443.66 766.00,445.21 766.59,446.77 767.17,448.32 767.76,449.88 768.35,451.43 768.93,452.99 769.52,454.54 770.11,456.10 770.69,457.65 771.28,459.21 771.87,460.76 772.45,462.32 773.04,463.87 773.63,465.43 774.21,466.98 774.80,468.54 775.39,470.09 775.97,471.64 776.56,473.20 777.15,474.75 777.73,476.31 778.32,477.86 778.91,479.42 779.49,480.97 780.08,482.53 780.67,484.08 781.25,485.64 781.84,487.19 "
       style="stroke-width: 6.40; stroke: #666666; stroke-opacity: 0.40; stroke-linecap: butt;"
       id="polyline64" />
    <polyline
       points="905.52,409.20 903.77,409.32 902.03,409.44 900.28,409.56 898.53,409.68 896.79,409.80 895.04,409.92 893.29,410.04 891.54,410.16 889.80,410.29 888.05,410.41 886.30,410.53 884.56,410.65 882.81,410.77 881.06,410.89 879.31,411.01 877.57,411.13 875.82,411.25 874.07,411.37 872.32,411.49 870.58,411.61 868.83,411.73 867.08,411.85 865.34,411.97 863.59,412.09 861.84,412.21 860.09,412.33 858.35,412.45 856.60,412.57 854.85,412.69 853.11,412.81 851.36,412.93 849.61,413.05 847.86,413.17 846.12,413.29 844.37,413.41 842.62,413.53 840.87,413.66 839.13,413.78 837.38,413.90 835.63,414.02 833.89,414.14 832.14,414.26 830.39,414.38 828.64,414.50 826.90,414.62 825.15,414.74 823.40,414.86 821.65,414.98 819.91,415.10 818.16,415.22 816.41,415.34 814.67,415.46 812.92,415.58 811.17,415.70 809.42,415.82 807.68,415.94 805.93,416.06 804.18,416.18 802.44,416.30 800.69,416.42 798.94,416.54 797.19,416.66 795.45,416.78 793.70,416.91 791.95,417.03 790.20,417.15 788.46,417.27 786.71,417.39 784.96,417.51 783.22,417.63 781.47,417.75 779.72,417.87 777.97,417.99 776.23,418.11 774.48,418.23 772.73,418.35 770.99,418.47 769.24,418.59 767.49,418.71 765.74,418.83 764.00,418.95 762.25,419.07 760.50,419.19 758.75,419.31 757.01,419.43 755.26,419.55 753.51,419.67 751.77,419.79 750.02,419.91 748.27,420.03 746.52,420.15 744.78,420.28 743.03,420.40 741.28,420.52 739.54,420.64 737.79,420.76 736.04,420.88 734.29,421.00 732.55,421.12 "
       style="stroke-width: 1.07; stroke: #666666; stroke-opacity: 0.40; stroke-linecap: butt;"
       id="polyline66" />
    <polyline
       points="723.76,333.27 724.51,331.16 725.26,329.05 726.01,326.94 726.77,324.83 727.52,322.71 728.27,320.60 729.02,318.49 729.77,316.38 730.53,314.26 731.28,312.15 732.03,310.04 732.78,307.93 733.54,305.82 734.29,303.70 735.04,301.59 735.79,299.48 736.55,297.37 737.30,295.26 738.05,293.14 738.80,291.03 739.55,288.92 740.31,286.81 741.06,284.70 741.81,282.58 742.56,280.47 743.32,278.36 744.07,276.25 744.82,274.14 745.57,272.02 746.32,269.91 747.08,267.80 747.83,265.69 748.58,263.58 749.33,261.46 750.09,259.35 750.84,257.24 751.59,255.13 752.34,253.01 753.10,250.90 753.85,248.79 754.60,246.68 755.35,244.57 756.10,242.45 756.86,240.34 757.61,238.23 758.36,236.12 759.11,234.01 759.87,231.89 760.62,229.78 761.37,227.67 762.12,225.56 762.87,223.45 763.63,221.33 764.38,219.22 765.13,217.11 765.88,215.00 766.64,212.89 767.39,210.77 768.14,208.66 768.89,206.55 769.64,204.44 770.40,202.33 771.15,200.21 771.90,198.10 772.65,195.99 773.41,193.88 774.16,191.76 774.91,189.65 775.66,187.54 776.42,185.43 777.17,183.32 777.92,181.20 778.67,179.09 779.42,176.98 780.18,174.87 780.93,172.76 781.68,170.64 782.43,168.53 783.19,166.42 783.94,164.31 784.69,162.20 785.44,160.08 786.19,157.97 786.95,155.86 787.70,153.75 788.45,151.64 789.20,149.52 789.96,147.41 790.71,145.30 791.46,143.19 792.21,141.08 792.97,138.96 793.72,136.85 794.47,134.74 795.22,132.63 795.97,130.51 796.73,128.40 797.48,126.29 798.23,124.18 "
       style="stroke-width: 1.07; stroke: #666666; stroke-opacity: 0.40; stroke-linecap: butt;"
       id="polyline68" />
    <polyline
       points="723.76,333.27 723.85,334.16 723.93,335.05 724.02,335.94 724.11,336.82 724.20,337.71 724.29,338.60 724.38,339.48 724.47,340.37 724.56,341.26 724.64,342.15 724.73,343.03 724.82,343.92 724.91,344.81 725.00,345.70 725.09,346.58 725.18,347.47 725.27,348.36 725.35,349.25 725.44,350.13 725.53,351.02 725.62,351.91 725.71,352.79 725.80,353.68 725.89,354.57 725.98,355.46 726.06,356.34 726.15,357.23 726.24,358.12 726.33,359.01 726.42,359.89 726.51,360.78 726.60,361.67 726.69,362.55 726.78,363.44 726.86,364.33 726.95,365.22 727.04,366.10 727.13,366.99 727.22,367.88 727.31,368.77 727.40,369.65 727.49,370.54 727.57,371.43 727.66,372.32 727.75,373.20 727.84,374.09 727.93,374.98 728.02,375.86 728.11,376.75 728.20,377.64 728.28,378.53 728.37,379.41 728.46,380.30 728.55,381.19 728.64,382.08 728.73,382.96 728.82,383.85 728.91,384.74 728.99,385.62 729.08,386.51 729.17,387.40 729.26,388.29 729.35,389.17 729.44,390.06 729.53,390.95 729.62,391.84 729.71,392.72 729.79,393.61 729.88,394.50 729.97,395.39 730.06,396.27 730.15,397.16 730.24,398.05 730.33,398.93 730.42,399.82 730.50,400.71 730.59,401.60 730.68,402.48 730.77,403.37 730.86,404.26 730.95,405.15 731.04,406.03 731.13,406.92 731.21,407.81 731.30,408.70 731.39,409.58 731.48,410.47 731.57,411.36 731.66,412.24 731.75,413.13 731.84,414.02 731.92,414.91 732.01,415.79 732.10,416.68 732.19,417.57 732.28,418.46 732.37,419.34 732.46,420.23 732.55,421.12 "
       style="stroke-width: 6.40; stroke: #666666; stroke-opacity: 0.40; stroke-linecap: butt;"
       id="polyline70" />
    <polyline
       points="723.76,333.27 721.46,334.22 719.17,335.16 716.88,336.10 714.58,337.05 712.29,337.99 710.00,338.93 707.70,339.88 705.41,340.82 703.12,341.76 700.82,342.71 698.53,343.65 696.24,344.59 693.94,345.54 691.65,346.48 689.36,347.43 687.06,348.37 684.77,349.31 682.48,350.26 680.18,351.20 677.89,352.14 675.60,353.09 673.30,354.03 671.01,354.97 668.72,355.92 666.42,356.86 664.13,357.80 661.84,358.75 659.54,359.69 657.25,360.63 654.96,361.58 652.66,362.52 650.37,363.46 648.08,364.41 645.78,365.35 643.49,366.29 641.20,367.24 638.90,368.18 636.61,369.13 634.32,370.07 632.02,371.01 629.73,371.96 627.44,372.90 625.14,373.84 622.85,374.79 620.56,375.73 618.26,376.67 615.97,377.62 613.68,378.56 611.38,379.50 609.09,380.45 606.80,381.39 604.50,382.33 602.21,383.28 599.92,384.22 597.62,385.16 595.33,386.11 593.04,387.05 590.74,387.99 588.45,388.94 586.16,389.88 583.86,390.83 581.57,391.77 579.28,392.71 576.98,393.66 574.69,394.60 572.40,395.54 570.10,396.49 567.81,397.43 565.52,398.37 563.22,399.32 560.93,400.26 558.64,401.20 556.34,402.15 554.05,403.09 551.76,404.03 549.46,404.98 547.17,405.92 544.88,406.86 542.58,407.81 540.29,408.75 538.00,409.69 535.70,410.64 533.41,411.58 531.12,412.53 528.82,413.47 526.53,414.41 524.24,415.36 521.94,416.30 519.65,417.24 517.36,418.19 515.06,419.13 512.77,420.07 510.48,421.02 508.18,421.96 505.89,422.90 503.60,423.85 501.30,424.79 499.01,425.73 496.72,426.68 "
       style="stroke-width: 1.07; stroke: #666666; stroke-opacity: 0.40; stroke-linecap: butt;"
       id="polyline72" />
    <polyline
       points="630.31,513.66 629.27,515.28 628.23,516.90 627.19,518.52 626.15,520.13 625.11,521.75 624.07,523.37 623.03,524.99 621.99,526.61 620.95,528.22 619.91,529.84 618.87,531.46 617.83,533.08 616.79,534.70 615.75,536.32 614.71,537.93 613.67,539.55 612.63,541.17 611.59,542.79 610.55,544.41 609.51,546.02 608.47,547.64 607.43,549.26 606.39,550.88 605.35,552.50 604.31,554.11 603.27,555.73 602.23,557.35 601.19,558.97 600.15,560.59 599.11,562.20 598.07,563.82 597.03,565.44 595.99,567.06 594.95,568.68 593.91,570.30 592.86,571.91 591.82,573.53 590.78,575.15 589.74,576.77 588.70,578.39 587.66,580.00 586.62,581.62 585.58,583.24 584.54,584.86 583.50,586.48 582.46,588.09 581.42,589.71 580.38,591.33 579.34,592.95 578.30,594.57 577.26,596.19 576.22,597.80 575.18,599.42 574.14,601.04 573.10,602.66 572.06,604.28 571.02,605.89 569.98,607.51 568.94,609.13 567.90,610.75 566.86,612.37 565.82,613.98 564.78,615.60 563.74,617.22 562.70,618.84 561.66,620.46 560.62,622.07 559.58,623.69 558.54,625.31 557.50,626.93 556.46,628.55 555.42,630.17 554.38,631.78 553.34,633.40 552.30,635.02 551.26,636.64 550.22,638.26 549.18,639.87 548.14,641.49 547.10,643.11 546.06,644.73 545.02,646.35 543.98,647.96 542.94,649.58 541.90,651.20 540.85,652.82 539.81,654.44 538.77,656.05 537.73,657.67 536.69,659.29 535.65,660.91 534.61,662.53 533.57,664.15 532.53,665.76 531.49,667.38 530.45,669.00 529.41,670.62 528.37,672.24 527.33,673.85 "
       style="stroke-width: 1.07; stroke: #666666; stroke-opacity: 0.40; stroke-linecap: butt;"
       id="polyline74" />
    <polyline
       points="630.31,513.66 631.84,513.39 633.37,513.13 634.90,512.86 636.43,512.59 637.97,512.32 639.50,512.06 641.03,511.79 642.56,511.52 644.09,511.26 645.62,510.99 647.15,510.72 648.68,510.45 650.21,510.19 651.74,509.92 653.27,509.65 654.80,509.38 656.33,509.12 657.86,508.85 659.39,508.58 660.92,508.31 662.45,508.05 663.99,507.78 665.52,507.51 667.05,507.24 668.58,506.98 670.11,506.71 671.64,506.44 673.17,506.18 674.70,505.91 676.23,505.64 677.76,505.37 679.29,505.11 680.82,504.84 682.35,504.57 683.88,504.30 685.41,504.04 686.94,503.77 688.47,503.50 690.00,503.23 691.54,502.97 693.07,502.70 694.60,502.43 696.13,502.16 697.66,501.90 699.19,501.63 700.72,501.36 702.25,501.10 703.78,500.83 705.31,500.56 706.84,500.29 708.37,500.03 709.90,499.76 711.43,499.49 712.96,499.22 714.49,498.96 716.02,498.69 717.56,498.42 719.09,498.15 720.62,497.89 722.15,497.62 723.68,497.35 725.21,497.08 726.74,496.82 728.27,496.55 729.80,496.28 731.33,496.02 732.86,495.75 734.39,495.48 735.92,495.21 737.45,494.95 738.98,494.68 740.51,494.41 742.04,494.14 743.58,493.88 745.11,493.61 746.64,493.34 748.17,493.07 749.70,492.81 751.23,492.54 752.76,492.27 754.29,492.00 755.82,491.74 757.35,491.47 758.88,491.20 760.41,490.94 761.94,490.67 763.47,490.40 765.00,490.13 766.53,489.87 768.06,489.60 769.60,489.33 771.13,489.06 772.66,488.80 774.19,488.53 775.72,488.26 777.25,487.99 778.78,487.73 780.31,487.46 781.84,487.19 "
       style="stroke-width: 6.40; stroke: #666666; stroke-opacity: 0.40; stroke-linecap: butt;"
       id="polyline76" />
    <polyline
       points="630.31,513.66 628.61,512.20 626.91,510.73 625.21,509.26 623.51,507.80 621.82,506.33 620.12,504.87 618.42,503.40 616.72,501.94 615.02,500.47 613.32,499.01 611.62,497.54 609.92,496.07 608.22,494.61 606.52,493.14 604.82,491.68 603.12,490.21 601.42,488.75 599.72,487.28 598.03,485.82 596.33,484.35 594.63,482.88 592.93,481.42 591.23,479.95 589.53,478.49 587.83,477.02 586.13,475.56 584.43,474.09 582.73,472.63 581.03,471.16 579.33,469.69 577.63,468.23 575.93,466.76 574.24,465.30 572.54,463.83 570.84,462.37 569.14,460.90 567.44,459.43 565.74,457.97 564.04,456.50 562.34,455.04 560.64,453.57 558.94,452.11 557.24,450.64 555.54,449.18 553.84,447.71 552.14,446.24 550.44,444.78 548.75,443.31 547.05,441.85 545.35,440.38 543.65,438.92 541.95,437.45 540.25,435.99 538.55,434.52 536.85,433.05 535.15,431.59 533.45,430.12 531.75,428.66 530.05,427.19 528.35,425.73 526.65,424.26 524.96,422.80 523.26,421.33 521.56,419.86 519.86,418.40 518.16,416.93 516.46,415.47 514.76,414.00 513.06,412.54 511.36,411.07 509.66,409.60 507.96,408.14 506.26,406.67 504.56,405.21 502.86,403.74 501.16,402.28 499.47,400.81 497.77,399.35 496.07,397.88 494.37,396.41 492.67,394.95 490.97,393.48 489.27,392.02 487.57,390.55 485.87,389.09 484.17,387.62 482.47,386.16 480.77,384.69 479.07,383.22 477.37,381.76 475.68,380.29 473.98,378.83 472.28,377.36 470.58,375.90 468.88,374.43 467.18,372.97 465.48,371.50 463.78,370.03 462.08,368.57 "
       style="stroke-width: 1.07; stroke: #666666; stroke-opacity: 0.40; stroke-linecap: butt;"
       id="polyline78" />
    <polyline
       points="630.31,513.66 631.34,512.73 632.38,511.79 633.41,510.86 634.44,509.92 635.48,508.99 636.51,508.05 637.54,507.12 638.57,506.18 639.61,505.25 640.64,504.31 641.67,503.38 642.70,502.44 643.74,501.51 644.77,500.57 645.80,499.64 646.83,498.71 647.87,497.77 648.90,496.84 649.93,495.90 650.97,494.97 652.00,494.03 653.03,493.10 654.06,492.16 655.10,491.23 656.13,490.29 657.16,489.36 658.19,488.42 659.23,487.49 660.26,486.55 661.29,485.62 662.32,484.68 663.36,483.75 664.39,482.81 665.42,481.88 666.46,480.94 667.49,480.01 668.52,479.07 669.55,478.14 670.59,477.20 671.62,476.27 672.65,475.34 673.68,474.40 674.72,473.47 675.75,472.53 676.78,471.60 677.81,470.66 678.85,469.73 679.88,468.79 680.91,467.86 681.95,466.92 682.98,465.99 684.01,465.05 685.04,464.12 686.08,463.18 687.11,462.25 688.14,461.31 689.17,460.38 690.21,459.44 691.24,458.51 692.27,457.57 693.30,456.64 694.34,455.70 695.37,454.77 696.40,453.84 697.44,452.90 698.47,451.97 699.50,451.03 700.53,450.10 701.57,449.16 702.60,448.23 703.63,447.29 704.66,446.36 705.70,445.42 706.73,444.49 707.76,443.55 708.79,442.62 709.83,441.68 710.86,440.75 711.89,439.81 712.93,438.88 713.96,437.94 714.99,437.01 716.02,436.07 717.06,435.14 718.09,434.20 719.12,433.27 720.15,432.34 721.19,431.40 722.22,430.47 723.25,429.53 724.28,428.60 725.32,427.66 726.35,426.73 727.38,425.79 728.42,424.86 729.45,423.92 730.48,422.99 731.51,422.05 732.55,421.12 "
       style="stroke-width: 1.07; stroke: #666666; stroke-opacity: 0.40; stroke-linecap: butt;"
       id="polyline80" />
    <polyline
       points="679.51,604.66 680.05,602.81 680.58,600.95 681.12,599.10 681.65,597.25 682.19,595.39 682.72,593.54 683.26,591.68 683.80,589.83 684.33,587.98 684.87,586.12 685.40,584.27 685.94,582.41 686.47,580.56 687.01,578.71 687.55,576.85 688.08,575.00 688.62,573.14 689.15,571.29 689.69,569.44 690.22,567.58 690.76,565.73 691.30,563.87 691.83,562.02 692.37,560.17 692.90,558.31 693.44,556.46 693.97,554.60 694.51,552.75 695.05,550.90 695.58,549.04 696.12,547.19 696.65,545.33 697.19,543.48 697.72,541.63 698.26,539.77 698.80,537.92 699.33,536.06 699.87,534.21 700.40,532.36 700.94,530.50 701.47,528.65 702.01,526.79 702.55,524.94 703.08,523.09 703.62,521.23 704.15,519.38 704.69,517.52 705.22,515.67 705.76,513.82 706.30,511.96 706.83,510.11 707.37,508.25 707.90,506.40 708.44,504.55 708.97,502.69 709.51,500.84 710.05,498.98 710.58,497.13 711.12,495.28 711.65,493.42 712.19,491.57 712.72,489.71 713.26,487.86 713.80,486.01 714.33,484.15 714.87,482.30 715.40,480.45 715.94,478.59 716.47,476.74 717.01,474.88 717.55,473.03 718.08,471.18 718.62,469.32 719.15,467.47 719.69,465.61 720.22,463.76 720.76,461.91 721.30,460.05 721.83,458.20 722.37,456.34 722.90,454.49 723.44,452.64 723.97,450.78 724.51,448.93 725.05,447.07 725.58,445.22 726.12,443.37 726.65,441.51 727.19,439.66 727.72,437.80 728.26,435.95 728.80,434.10 729.33,432.24 729.87,430.39 730.40,428.53 730.94,426.68 731.47,424.83 732.01,422.97 732.55,421.12 "
       style="stroke-width: 1.07; stroke: #666666; stroke-opacity: 0.40; stroke-linecap: butt;"
       id="polyline82" />
    <polyline
       points="679.51,604.66 677.66,602.86 675.82,601.07 673.97,599.27 672.12,597.47 670.28,595.67 668.43,593.87 666.59,592.08 664.74,590.28 662.89,588.48 661.05,586.68 659.20,584.89 657.35,583.09 655.51,581.29 653.66,579.49 651.81,577.69 649.97,575.90 648.12,574.10 646.28,572.30 644.43,570.50 642.58,568.71 640.74,566.91 638.89,565.11 637.04,563.31 635.20,561.51 633.35,559.72 631.50,557.92 629.66,556.12 627.81,554.32 625.96,552.52 624.12,550.73 622.27,548.93 620.43,547.13 618.58,545.33 616.73,543.54 614.89,541.74 613.04,539.94 611.19,538.14 609.35,536.34 607.50,534.55 605.65,532.75 603.81,530.95 601.96,529.15 600.12,527.36 598.27,525.56 596.42,523.76 594.58,521.96 592.73,520.16 590.88,518.37 589.04,516.57 587.19,514.77 585.34,512.97 583.50,511.17 581.65,509.38 579.81,507.58 577.96,505.78 576.11,503.98 574.27,502.19 572.42,500.39 570.57,498.59 568.73,496.79 566.88,494.99 565.03,493.20 563.19,491.40 561.34,489.60 559.50,487.80 557.65,486.01 555.80,484.21 553.96,482.41 552.11,480.61 550.26,478.81 548.42,477.02 546.57,475.22 544.72,473.42 542.88,471.62 541.03,469.82 539.18,468.03 537.34,466.23 535.49,464.43 533.65,462.63 531.80,460.84 529.95,459.04 528.11,457.24 526.26,455.44 524.41,453.64 522.57,451.85 520.72,450.05 518.87,448.25 517.03,446.45 515.18,444.66 513.34,442.86 511.49,441.06 509.64,439.26 507.80,437.46 505.95,435.67 504.10,433.87 502.26,432.07 500.41,430.27 498.56,428.47 496.72,426.68 "
       style="stroke-width: 1.07; stroke: #666666; stroke-opacity: 0.40; stroke-linecap: butt;"
       id="polyline84" />
    <circle
       cx="294.38"
       cy="461.70"
       r="3.56"
       style="stroke-width: 0.71; fill: #449464;"
       id="circle86" />
    <circle
       cx="905.52"
       cy="409.20"
       r="7.82"
       style="stroke-width: 0.71; fill: #449464;"
       id="circle88" />
    <circle
       cx="630.31"
       cy="513.66"
       r="12.09"
       style="stroke-width: 0.71; fill: #449464;"
       id="circle90" />
    <circle
       cx="679.51"
       cy="604.66"
       r="9.59"
       style="stroke-width: 0.71; fill: #449464;"
       id="circle92" />
    <circle
       cx="906.03"
       cy="503.31"
       r="7.82"
       style="stroke-width: 0.71; fill: #449464;"
       id="circle94" />
    <circle
       cx="910.64"
       cy="277.62"
       r="3.56"
       style="stroke-width: 0.71; fill: #449464;"
       id="circle96" />
    <circle
       cx="619.25"
       cy="306.50"
       r="9.59"
       style="stroke-width: 0.71; fill: #449464;"
       id="circle98" />
    <circle
       cx="288.92"
       cy="267.41"
       r="10.95"
       style="stroke-width: 0.71; fill: #449464;"
       id="circle100" />
    <circle
       cx="629.37"
       cy="421.65"
       r="7.82"
       style="stroke-width: 0.71; fill: #449464;"
       id="circle102" />
    <circle
       cx="495.87"
       cy="543.43"
       r="12.09"
       style="stroke-width: 0.71; fill: #449464;"
       id="circle104" />
    <circle
       cx="896.56"
       cy="682.24"
       r="7.82"
       style="stroke-width: 0.71; fill: #449464;"
       id="circle106" />
    <circle
       cx="723.76"
       cy="333.27"
       r="13.10"
       style="stroke-width: 0.71; fill: #449464;"
       id="circle108" />
    <circle
       cx="496.72"
       cy="426.68"
       r="13.10"
       style="stroke-width: 0.71; fill: #F7BE8A;"
       id="circle110" />
    <circle
       cx="781.84"
       cy="487.19"
       r="14.85"
       style="stroke-width: 0.71; fill: #F7BE8A;"
       id="circle112" />
    <circle
       cx="732.55"
       cy="421.12"
       r="16.36"
       style="stroke-width: 0.71; fill: #F7BE8A;"
       id="circle114" />
    <circle
       cx="527.33"
       cy="673.85"
       r="7.82"
       style="stroke-width: 0.71; fill: #F7BE8A;"
       id="circle116" />
    <circle
       cx="462.08"
       cy="368.57"
       r="10.95"
       style="stroke-width: 0.71; fill: #F7BE8A;"
       id="circle118" />
    <circle
       cx="806.51"
       cy="773.96"
       r="7.82"
       style="stroke-width: 0.71; fill: #F7BE8A;"
       id="circle120" />
    <circle
       cx="97.36"
       cy="219.91"
       r="3.56"
       style="stroke-width: 0.71; fill: #F7BE8A;"
       id="circle122" />
    <circle
       cx="170.10"
       cy="107.09"
       r="3.56"
       style="stroke-width: 0.71; fill: #F7BE8A;"
       id="circle124" />
    <circle
       cx="345.97"
       cy="701.43"
       r="3.56"
       style="stroke-width: 0.71; fill: #F7BE8A;"
       id="circle126" />
    <circle
       cx="798.23"
       cy="124.18"
       r="3.56"
       style="stroke-width: 0.71; fill: #F7BE8A;"
       id="circle128" />
    <polyline
       points="286.54,486.88 286.59,486.83 286.84,486.65 287.16,486.41 287.44,486.20 287.71,485.97 287.99,485.73 288.26,485.49 288.50,485.26 288.78,485.00 289.09,484.70 289.41,484.38 289.71,484.06 289.98,483.77 290.29,483.43 290.63,483.06 290.98,482.64 291.30,482.12 291.58,481.44 291.82,480.52 292.01,479.34 292.10,478.21 292.17,476.68 292.22,474.58 292.26,472.01 292.28,469.70 292.28,468.56 292.29,468.43 "
       style="stroke-width: 1.71; stroke: #4D4D4D; stroke-opacity: 0.60;"
       id="polyline130" />
    <polyline
       points="889.97,428.02 890.08,427.94 890.54,427.59 891.14,427.15 891.67,426.74 892.18,426.32 892.70,425.87 893.20,425.42 893.66,424.99 894.18,424.50 894.76,423.93 895.36,423.32 895.92,422.73 896.44,422.17 897.02,421.55 897.66,420.84 898.32,420.09 898.92,419.36 899.45,418.68 899.90,418.03 900.25,417.46 900.48,416.92 900.62,416.33 900.72,415.63 900.76,415.08 900.77,414.96 "
       style="stroke-width: 1.71; stroke: #4D4D4D; stroke-opacity: 0.60;"
       id="polyline132" />
    <polyline
       points="649.38,494.84 649.37,494.84 649.29,494.87 649.17,494.93 649.01,495.02 648.79,495.17 648.48,495.39 648.07,495.69 647.61,496.03 647.07,496.44 646.45,496.95 645.80,497.52 645.18,498.08 644.60,498.62 643.96,499.23 643.23,499.94 642.48,500.70 641.78,501.44 641.13,502.13 640.41,502.91 639.60,503.80 638.77,504.75 637.84,505.84 636.76,507.10 635.92,508.09 635.73,508.32 "
       style="stroke-width: 1.71; stroke: #4D4D4D; stroke-opacity: 0.60;"
       id="polyline134" />
    <polyline
       points="670.23,629.89 670.29,629.84 670.59,629.62 670.97,629.34 671.30,629.08 671.63,628.82 671.96,628.53 672.27,628.24 672.56,627.97 672.89,627.66 673.26,627.30 673.64,626.91 673.99,626.54 674.32,626.19 674.69,625.80 675.10,625.35 675.51,624.85 675.89,624.28 676.23,623.56 676.51,622.64 676.73,621.49 676.85,620.37 676.93,618.85 676.99,616.78 677.03,614.30 677.06,612.21 677.06,611.36 677.06,611.32 "
       style="stroke-width: 1.71; stroke: #4D4D4D; stroke-opacity: 0.60;"
       id="polyline136" />
    <polyline
       points="885.68,522.12 885.75,522.12 886.03,522.09 886.40,522.03 886.74,521.93 887.07,521.78 887.45,521.56 887.90,521.27 888.39,520.92 888.95,520.50 889.58,519.98 890.24,519.41 890.86,518.85 891.45,518.30 892.10,517.69 892.83,516.97 893.59,516.20 894.30,515.46 894.96,514.76 895.68,513.97 896.49,513.07 897.33,512.11 898.28,511.02 899.36,509.75 900.21,508.74 900.41,508.51 900.41,508.51 "
       style="stroke-width: 1.71; stroke: #4D4D4D; stroke-opacity: 0.60;"
       id="polyline138" />
    <polyline
       points="890.84,258.86 890.93,258.99 891.37,259.58 891.93,260.32 892.44,260.99 892.96,261.62 893.52,262.28 894.09,262.90 894.63,263.48 895.24,264.12 895.95,264.85 896.71,265.60 897.45,266.30 898.15,266.96 898.93,267.68 899.82,268.48 900.75,269.30 901.64,270.06 902.43,270.72 903.14,271.28 903.70,271.72 904.13,272.01 904.49,272.19 904.82,272.31 905.05,272.36 905.10,272.37 "
       style="stroke-width: 1.71; stroke: #4D4D4D; stroke-opacity: 0.60;"
       id="polyline140" />
    <polyline
       points="600.22,287.73 600.32,287.86 600.75,288.44 601.30,289.18 601.81,289.84 602.33,290.47 602.89,291.12 603.45,291.74 603.99,292.32 604.60,292.96 605.31,293.68 606.07,294.43 606.80,295.13 607.49,295.78 608.26,296.49 609.15,297.29 610.08,298.11 610.95,298.86 611.73,299.51 612.40,300.08 612.92,300.51 613.28,300.79 613.53,300.98 613.71,301.09 613.81,301.15 613.83,301.15 "
       style="stroke-width: 1.71; stroke: #4D4D4D; stroke-opacity: 0.60;"
       id="polyline142" />
    <polyline
       points="269.91,286.17 269.92,286.16 270.00,286.13 270.13,286.07 270.29,285.98 270.51,285.83 270.82,285.61 271.21,285.32 271.67,284.98 272.21,284.57 272.83,284.06 273.48,283.50 274.10,282.94 274.67,282.40 275.31,281.80 276.04,281.09 276.78,280.33 277.48,279.60 278.13,278.91 278.84,278.13 279.64,277.25 280.47,276.30 281.40,275.22 282.47,273.97 283.31,272.98 283.50,272.76 "
       style="stroke-width: 1.71; stroke: #4D4D4D; stroke-opacity: 0.60;"
       id="polyline144" />
    <polyline
       points="610.26,402.78 610.36,402.91 610.80,403.50 611.35,404.24 611.87,404.91 612.39,405.54 612.95,406.20 613.52,406.82 614.06,407.40 614.67,408.05 615.38,408.77 616.15,409.52 616.89,410.23 617.58,410.88 618.36,411.61 619.25,412.41 620.19,413.23 621.07,413.99 621.85,414.65 622.52,415.21 623.04,415.65 623.41,415.94 623.65,416.12 623.84,416.24 623.94,416.29 623.95,416.30 "
       style="stroke-width: 1.71; stroke: #4D4D4D; stroke-opacity: 0.60;"
       id="polyline146" />
    <polyline
       points="476.83,562.22 476.85,562.21 476.92,562.18 477.05,562.12 477.21,562.03 477.43,561.88 477.74,561.66 478.14,561.37 478.60,561.03 479.14,560.61 479.76,560.10 480.41,559.54 481.03,558.98 481.61,558.45 482.25,557.84 482.97,557.13 483.72,556.37 484.42,555.63 485.07,554.94 485.79,554.17 486.59,553.28 487.42,552.33 488.35,551.25 489.42,549.99 490.26,549.00 490.45,548.78 "
       style="stroke-width: 1.71; stroke: #4D4D4D; stroke-opacity: 0.60;"
       id="polyline148" />
    <polyline
       points="877.42,682.23 877.42,682.23 877.42,682.23 877.42,682.23 877.42,682.23 877.42,682.23 877.42,682.23 877.42,682.23 877.42,682.23 877.42,682.23 877.42,682.23 877.42,682.23 877.42,682.23 877.42,682.23 877.42,682.23 877.42,682.23 877.44,682.23 877.56,682.23 877.86,682.23 878.39,682.23 879.20,682.23 880.17,682.23 881.60,682.23 883.65,682.23 886.01,682.23 887.69,682.23 888.08,682.23 888.08,682.23 "
       style="stroke-width: 1.71; stroke: #4D4D4D; stroke-opacity: 0.60;"
       id="polyline150" />
    <polyline
       points="742.92,311.12 742.78,311.23 742.16,311.69 741.38,312.27 740.67,312.81 740.00,313.36 739.31,313.96 738.66,314.55 738.05,315.12 737.36,315.77 736.60,316.52 735.80,317.33 735.06,318.11 734.37,318.84 733.61,319.66 732.76,320.60 731.90,321.59 731.10,322.54 730.40,323.42 729.80,324.24 729.35,324.94 729.04,325.56 728.85,326.20 728.73,326.93 728.67,327.48 728.66,327.60 "
       style="stroke-width: 1.71; stroke: #4D4D4D; stroke-opacity: 0.60;"
       id="polyline152" />
    <polyline
       points="477.68,445.46 477.70,445.46 477.77,445.43 477.90,445.37 478.06,445.27 478.28,445.13 478.59,444.90 478.99,444.61 479.45,444.27 479.99,443.86 480.61,443.35 481.26,442.79 481.88,442.23 482.46,441.69 483.10,441.08 483.82,440.37 484.57,439.61 485.27,438.88 485.92,438.19 486.64,437.41 487.44,436.53 488.27,435.58 489.20,434.49 490.27,433.24 491.11,432.25 491.30,432.02 "
       style="stroke-width: 1.71; stroke: #4D4D4D; stroke-opacity: 0.60;"
       id="polyline154" />
    <polyline
       points="777.76,468.36 777.76,468.69 777.76,470.26 777.77,472.48 777.79,474.34 777.80,475.61 777.82,476.27 777.87,477.04 777.92,477.59 777.99,477.94 778.07,478.15 778.17,478.28 778.28,478.41 778.39,478.53 778.49,478.64 778.61,478.76 778.74,478.90 778.89,479.05 779.03,479.18 779.17,479.31 779.32,479.45 779.49,479.60 779.67,479.76 779.88,479.94 780.12,480.15 780.31,480.31 780.36,480.35 "
       style="stroke-width: 1.71; stroke: #4D4D4D; stroke-opacity: 0.60;"
       id="polyline156" />
    <polyline
       points="746.06,402.25 745.97,402.32 745.57,402.62 745.06,403.00 744.60,403.35 744.17,403.70 743.73,404.09 743.30,404.47 742.91,404.84 742.47,405.26 741.97,405.74 741.46,406.27 740.98,406.77 740.53,407.24 740.04,407.77 739.49,408.38 738.93,409.02 738.41,409.66 737.96,410.30 737.58,410.93 737.28,411.56 737.09,412.21 736.96,413.04 736.88,414.09 736.84,414.93 736.84,415.12 "
       style="stroke-width: 1.71; stroke: #4D4D4D; stroke-opacity: 0.60;"
       id="polyline158" />
    <polyline
       points="539.56,648.34 539.47,648.41 539.07,648.70 538.57,649.08 538.12,649.42 537.69,649.77 537.25,650.16 536.83,650.54 536.44,650.90 536.00,651.31 535.51,651.80 535.00,652.31 534.53,652.81 534.09,653.28 533.60,653.81 533.06,654.41 532.50,655.05 531.99,655.76 531.55,656.56 531.16,657.50 530.87,658.60 530.70,659.70 530.59,661.18 530.51,663.20 530.46,665.47 530.44,667.04 530.43,667.39 530.43,667.39 "
       style="stroke-width: 1.71; stroke: #4D4D4D; stroke-opacity: 0.60;"
       id="polyline160" />
    <polyline
       points="442.95,349.67 443.05,349.81 443.49,350.39 444.04,351.14 444.56,351.81 445.08,352.44 445.65,353.10 446.21,353.72 446.75,354.30 447.37,354.95 448.08,355.68 448.85,356.43 449.59,357.14 450.28,357.79 451.07,358.52 451.96,359.32 452.89,360.15 453.78,360.90 454.56,361.57 455.24,362.13 455.76,362.57 456.12,362.86 456.37,363.04 456.55,363.16 456.65,363.21 456.67,363.22 "
       style="stroke-width: 1.71; stroke: #4D4D4D; stroke-opacity: 0.60;"
       id="polyline162" />
    <polyline
       points="825.53,755.19 825.52,755.20 825.44,755.23 825.32,755.29 825.16,755.38 824.94,755.53 824.63,755.75 824.23,756.04 823.77,756.38 823.23,756.79 822.61,757.30 821.96,757.87 821.34,758.43 820.77,758.96 820.12,759.57 819.40,760.28 818.66,761.04 817.96,761.77 817.31,762.46 816.59,763.23 815.79,764.12 814.96,765.07 814.03,766.15 812.96,767.40 812.12,768.39 811.93,768.62 "
       style="stroke-width: 1.71; stroke: #4D4D4D; stroke-opacity: 0.60;"
       id="polyline164" />
    <polyline
       points="116.31,219.95 116.31,219.95 116.31,219.95 116.31,219.94 116.30,219.94 116.30,219.94 116.30,219.94 116.30,219.94 116.30,219.94 116.30,219.94 116.30,219.94 116.30,219.94 116.30,219.94 116.30,219.93 116.29,219.93 116.29,219.93 116.27,219.93 116.16,219.93 115.86,219.93 115.34,219.93 114.54,219.93 113.59,219.93 112.16,219.93 110.12,219.93 107.78,219.93 106.17,219.93 105.83,219.93 105.83,219.93 "
       style="stroke-width: 1.71; stroke: #4D4D4D; stroke-opacity: 0.60;"
       id="polyline166" />
    <polyline
       points="159.15,125.94 159.22,125.89 159.54,125.65 159.94,125.35 160.30,125.07 160.65,124.79 161.00,124.49 161.33,124.18 161.65,123.89 162.00,123.56 162.39,123.17 162.80,122.76 163.18,122.36 163.53,121.99 163.92,121.57 164.35,121.08 164.80,120.57 165.21,120.04 165.56,119.47 165.87,118.85 166.10,118.17 166.26,117.38 166.36,116.28 166.42,114.83 166.45,113.64 166.46,113.37 "
       style="stroke-width: 1.71; stroke: #4D4D4D; stroke-opacity: 0.60;"
       id="polyline168" />
    <polyline
       points="365.04,682.60 365.03,682.61 364.95,682.64 364.82,682.70 364.66,682.79 364.44,682.94 364.13,683.16 363.73,683.45 363.27,683.79 362.73,684.21 362.11,684.72 361.45,685.29 360.84,685.85 360.26,686.39 359.61,687.00 358.89,687.71 358.14,688.47 357.43,689.21 356.78,689.90 356.06,690.68 355.26,691.57 354.42,692.52 353.49,693.61 352.42,694.87 351.57,695.86 351.38,696.09 "
       style="stroke-width: 1.71; stroke: #4D4D4D; stroke-opacity: 0.60;"
       id="polyline170" />
    <polyline
       points="817.35,102.60 817.22,102.70 816.60,103.16 815.82,103.74 815.13,104.28 814.46,104.82 813.78,105.42 813.13,106.00 812.52,106.57 811.85,107.21 811.08,107.96 810.30,108.76 809.56,109.53 808.88,110.26 808.12,111.07 807.28,112.00 806.42,112.98 805.63,113.92 804.94,114.78 804.35,115.57 803.90,116.24 803.59,116.81 803.40,117.37 803.28,117.99 803.22,118.45 803.21,118.56 "
       style="stroke-width: 1.71; stroke: #4D4D4D; stroke-opacity: 0.60;"
       id="polyline172" />
    <polygon
       points="236.00,498.99 284.38,498.99 284.29,498.99 284.64,498.98 284.98,498.91 285.30,498.79 285.60,498.61 285.87,498.39 286.10,498.13 286.29,497.84 286.43,497.52 286.51,497.18 286.54,496.83 286.54,496.83 286.54,482.65 286.54,482.65 286.51,482.30 286.43,481.97 286.29,481.65 286.10,481.35 285.87,481.09 285.60,480.87 285.30,480.70 284.98,480.57 284.64,480.51 284.38,480.49 236.00,480.49 236.26,480.51 235.91,480.49 235.57,480.53 235.24,480.63 234.92,480.78 234.64,480.98 234.38,481.22 234.18,481.50 234.01,481.80 233.90,482.13 233.85,482.48 233.84,482.65 233.84,496.83 233.85,496.66 233.85,497.01 233.90,497.35 234.01,497.68 234.18,497.99 234.38,498.27 234.64,498.51 234.92,498.70 235.24,498.85 235.57,498.95 235.91,498.99 "
       style="stroke-width: 0.53; stroke: #000000; stroke-opacity: 0.85; fill: #449464; fill-opacity: 0.85;"
       id="polygon174" />
    <text
       x="260.19"
       y="495.39"
       text-anchor="middle"
       style="font-size: 17.07px;fill: #000000; fill-opacity: 0.85; font-family: &quot;Times New Roman&quot;;"
       textLength="45.50px"
       lengthAdjust="spacingAndGlyphs"
       id="text176">Biome</text>
    <polygon
       points="841.01,446.52 927.74,446.52 927.65,446.52 928.00,446.51 928.34,446.44 928.66,446.31 928.96,446.14 929.23,445.92 929.46,445.66 929.65,445.36 929.79,445.04 929.87,444.71 929.90,444.36 929.90,444.36 929.90,430.18 929.90,430.18 929.87,429.83 929.79,429.49 929.65,429.17 929.46,428.88 929.23,428.62 928.96,428.40 928.66,428.23 928.34,428.10 928.00,428.03 927.74,428.02 841.01,428.02 841.27,428.03 840.92,428.02 840.57,428.06 840.24,428.16 839.93,428.31 839.64,428.50 839.39,428.74 839.18,429.02 839.02,429.33 838.91,429.66 838.85,430.00 838.85,430.18 838.85,444.36 838.85,444.19 838.85,444.53 838.91,444.88 839.02,445.21 839.18,445.52 839.39,445.79 839.64,446.03 839.93,446.23 840.24,446.38 840.57,446.48 840.92,446.52 "
       style="stroke-width: 0.53; stroke: #000000; stroke-opacity: 0.85; fill: #449464; fill-opacity: 0.85;"
       id="polygon178" />
    <text
       x="884.37"
       y="442.92"
       text-anchor="middle"
       style="font-size: 17.07px;fill: #000000; fill-opacity: 0.85; font-family: &quot;Times New Roman&quot;;"
       textLength="83.85px"
       lengthAdjust="spacingAndGlyphs"
       id="text180">Camera trap</text>
    <polygon
       points="609.81,494.84 719.30,494.84 719.21,494.84 719.56,494.82 719.90,494.75 720.22,494.63 720.52,494.45 720.79,494.23 721.02,493.97 721.21,493.68 721.35,493.36 721.43,493.02 721.46,492.68 721.46,492.68 721.46,478.49 721.46,478.49 721.43,478.15 721.35,477.81 721.21,477.49 721.02,477.20 720.79,476.94 720.52,476.72 720.22,476.54 719.90,476.42 719.56,476.35 719.30,476.33 609.81,476.33 610.07,476.35 609.73,476.33 609.38,476.38 609.05,476.47 608.73,476.62 608.45,476.82 608.20,477.06 607.99,477.34 607.83,477.65 607.72,477.98 607.66,478.32 607.65,478.49 607.65,492.68 607.66,492.50 607.66,492.85 607.72,493.19 607.83,493.52 607.99,493.83 608.20,494.11 608.45,494.35 608.73,494.55 609.05,494.70 609.38,494.79 609.73,494.84 "
       style="stroke-width: 0.53; stroke: #000000; stroke-opacity: 0.85; fill: #449464; fill-opacity: 0.85;"
       id="polygon182" />
    <text
       x="664.56"
       y="491.24"
       text-anchor="middle"
       style="font-size: 17.07px;fill: #000000; fill-opacity: 0.85; font-family: &quot;Times New Roman&quot;;"
       textLength="106.60px"
       lengthAdjust="spacingAndGlyphs"
       id="text184">Citizen Science</text>
    <polygon
       points="622.54,641.94 668.07,641.94 667.98,641.94 668.33,641.92 668.67,641.85 668.99,641.73 669.30,641.56 669.56,641.34 669.79,641.08 669.98,640.78 670.12,640.46 670.20,640.13 670.23,639.78 670.23,639.78 670.23,625.60 670.23,625.60 670.20,625.25 670.12,624.91 669.98,624.59 669.79,624.30 669.56,624.04 669.30,623.82 668.99,623.64 668.67,623.52 668.33,623.45 668.07,623.44 622.54,623.44 622.80,623.45 622.46,623.44 622.11,623.48 621.78,623.58 621.46,623.72 621.18,623.92 620.93,624.16 620.72,624.44 620.56,624.75 620.45,625.08 620.39,625.42 620.38,625.60 620.38,639.78 620.39,639.61 620.39,639.95 620.45,640.30 620.56,640.63 620.72,640.93 620.93,641.21 621.18,641.45 621.46,641.65 621.78,641.80 622.11,641.90 622.46,641.94 "
       style="stroke-width: 0.53; stroke: #000000; stroke-opacity: 0.85; fill: #449464; fill-opacity: 0.85;"
       id="polygon186" />
    <text
       x="645.31"
       y="638.34"
       text-anchor="middle"
       style="font-size: 17.07px;fill: #000000; fill-opacity: 0.85; font-family: &quot;Times New Roman&quot;;"
       textLength="42.65px"
       lengthAdjust="spacingAndGlyphs"
       id="text188">Drone</text>
    <polygon
       points="792.05,540.63 931.86,540.63 931.77,540.62 932.12,540.61 932.46,540.54 932.78,540.42 933.08,540.24 933.35,540.02 933.58,539.76 933.77,539.47 933.91,539.15 933.99,538.81 934.02,538.47 934.02,538.47 934.02,524.28 934.02,524.28 933.99,523.94 933.91,523.60 933.77,523.28 933.58,522.98 933.35,522.72 933.08,522.50 932.78,522.33 932.46,522.21 932.12,522.14 931.86,522.12 792.05,522.12 792.31,522.14 791.96,522.12 791.61,522.17 791.28,522.26 790.97,522.41 790.68,522.61 790.43,522.85 790.22,523.13 790.06,523.44 789.95,523.76 789.89,524.11 789.89,524.28 789.89,538.47 789.89,538.29 789.89,538.64 789.95,538.98 790.06,539.31 790.22,539.62 790.43,539.90 790.68,540.14 790.97,540.34 791.28,540.49 791.61,540.58 791.96,540.62 "
       style="stroke-width: 0.53; stroke: #000000; stroke-opacity: 0.85; fill: #449464; fill-opacity: 0.85;"
       id="polygon190" />
    <text
       x="861.95"
       y="537.03"
       text-anchor="middle"
       style="font-size: 17.07px;fill: #000000; fill-opacity: 0.85; font-family: &quot;Times New Roman&quot;;"
       textLength="136.93px"
       lengthAdjust="spacingAndGlyphs"
       id="text192">Feature (linguistics)</text>
    <polygon
       points="832.68,258.86 909.47,258.86 909.38,258.86 909.73,258.85 910.07,258.78 910.40,258.65 910.70,258.48 910.97,258.26 911.20,258.00 911.38,257.71 911.52,257.39 911.60,257.05 911.63,256.70 911.63,256.70 911.63,242.52 911.63,242.52 911.60,242.17 911.52,241.83 911.38,241.51 911.20,241.22 910.97,240.96 910.70,240.74 910.40,240.57 910.07,240.44 909.73,240.37 909.47,240.36 832.68,240.36 832.94,240.37 832.60,240.36 832.25,240.40 831.92,240.50 831.60,240.65 831.32,240.84 831.07,241.09 830.86,241.36 830.69,241.67 830.58,242.00 830.53,242.34 830.52,242.52 830.52,256.70 830.53,256.53 830.53,256.88 830.58,257.22 830.69,257.55 830.86,257.86 831.07,258.13 831.32,258.37 831.60,258.57 831.92,258.72 832.25,258.82 832.60,258.86 "
       style="stroke-width: 0.53; stroke: #000000; stroke-opacity: 0.85; fill: #449464; fill-opacity: 0.85;"
       id="polygon194" />
    <text
       x="871.08"
       y="255.26"
       text-anchor="middle"
       style="font-size: 17.07px;fill: #000000; fill-opacity: 0.85; font-family: &quot;Times New Roman&quot;;"
       textLength="73.91px"
       lengthAdjust="spacingAndGlyphs"
       id="text196">Herbarium</text>
    <polygon
       points="537.65,287.73 632.43,287.73 632.35,287.72 632.69,287.71 633.03,287.64 633.36,287.52 633.66,287.34 633.93,287.12 634.16,286.86 634.34,286.57 634.48,286.25 634.56,285.91 634.59,285.57 634.59,285.57 634.59,271.38 634.59,271.38 634.56,271.04 634.48,270.70 634.34,270.38 634.16,270.08 633.93,269.82 633.66,269.60 633.36,269.43 633.03,269.31 632.69,269.24 632.43,269.22 537.65,269.22 537.91,269.24 537.56,269.22 537.22,269.27 536.89,269.36 536.57,269.51 536.29,269.71 536.03,269.95 535.83,270.23 535.66,270.54 535.55,270.87 535.50,271.21 535.49,271.38 535.49,285.57 535.50,285.39 535.50,285.74 535.55,286.08 535.66,286.41 535.83,286.72 536.03,287.00 536.29,287.24 536.57,287.44 536.89,287.59 537.22,287.68 537.56,287.72 "
       style="stroke-width: 0.53; stroke: #000000; stroke-opacity: 0.85; fill: #449464; fill-opacity: 0.85;"
       id="polygon198" />
    <text
       x="585.04"
       y="284.13"
       text-anchor="middle"
       style="font-size: 17.07px;fill: #000000; fill-opacity: 0.85; font-family: &quot;Times New Roman&quot;;"
       textLength="91.90px"
       lengthAdjust="spacingAndGlyphs"
       id="text200">Identification</text>
    <polygon
       points="212.80,304.67 296.72,304.67 296.63,304.67 296.98,304.65 297.32,304.58 297.64,304.46 297.94,304.29 298.21,304.07 298.44,303.81 298.63,303.51 298.76,303.19 298.85,302.86 298.88,302.51 298.88,302.51 298.88,288.33 298.88,288.33 298.85,287.98 298.76,287.64 298.63,287.32 298.44,287.03 298.21,286.77 297.94,286.55 297.64,286.37 297.32,286.25 296.98,286.18 296.72,286.17 212.80,286.17 213.06,286.18 212.71,286.17 212.37,286.21 212.03,286.31 211.72,286.46 211.43,286.65 211.18,286.89 210.97,287.17 210.81,287.48 210.70,287.81 210.65,288.15 210.64,288.33 210.64,302.51 210.65,302.34 210.65,302.68 210.70,303.03 210.81,303.36 210.97,303.66 211.18,303.94 211.43,304.18 211.72,304.38 212.03,304.53 212.37,304.63 212.71,304.67 "
       style="stroke-width: 0.53; stroke: #000000; stroke-opacity: 0.85; fill: #449464; fill-opacity: 0.85;"
       id="polygon202" />
    <text
       x="254.76"
       y="301.07"
       text-anchor="middle"
       style="font-size: 17.07px;fill: #000000; fill-opacity: 0.85; font-family: &quot;Times New Roman&quot;;"
       textLength="81.04px"
       lengthAdjust="spacingAndGlyphs"
       id="text204">Land Cover</text>
    <polygon
       points="532.98,402.78 657.19,402.78 657.10,402.78 657.45,402.76 657.79,402.69 658.12,402.57 658.42,402.40 658.69,402.18 658.92,401.92 659.10,401.62 659.24,401.30 659.32,400.96 659.35,400.62 659.35,400.62 659.35,386.43 659.35,386.43 659.32,386.09 659.24,385.75 659.10,385.43 658.92,385.14 658.69,384.88 658.42,384.66 658.12,384.48 657.79,384.36 657.45,384.29 657.19,384.27 532.98,384.27 533.24,384.29 532.89,384.28 532.54,384.32 532.21,384.41 531.90,384.56 531.61,384.76 531.36,385.00 531.15,385.28 530.99,385.59 530.88,385.92 530.82,386.26 530.82,386.43 530.82,400.62 530.82,400.44 530.82,400.79 530.88,401.14 530.99,401.47 531.15,401.77 531.36,402.05 531.61,402.29 531.90,402.49 532.21,402.64 532.54,402.73 532.89,402.78 "
       style="stroke-width: 0.53; stroke: #000000; stroke-opacity: 0.85; fill: #449464; fill-opacity: 0.85;"
       id="polygon206" />
    <text
       x="595.08"
       y="399.18"
       text-anchor="middle"
       style="font-size: 17.07px;fill: #000000; fill-opacity: 0.85; font-family: &quot;Times New Roman&quot;;"
       textLength="121.33px"
       lengthAdjust="spacingAndGlyphs"
       id="text208">RGB color model</text>
    <polygon
       points="392.68,580.72 530.62,580.72 530.53,580.72 530.88,580.70 531.22,580.63 531.54,580.51 531.84,580.34 532.11,580.12 532.34,579.86 532.53,579.56 532.67,579.24 532.75,578.91 532.78,578.56 532.78,578.56 532.78,564.38 532.78,564.38 532.75,564.03 532.67,563.69 532.53,563.37 532.34,563.08 532.11,562.82 531.84,562.60 531.54,562.42 531.22,562.30 530.88,562.23 530.62,562.22 392.68,562.22 392.94,562.23 392.59,562.22 392.25,562.26 391.91,562.36 391.60,562.51 391.31,562.70 391.06,562.94 390.85,563.22 390.69,563.53 390.58,563.86 390.53,564.20 390.52,564.38 390.52,578.56 390.53,578.39 390.53,578.73 390.58,579.08 390.69,579.41 390.85,579.71 391.06,579.99 391.31,580.23 391.60,580.43 391.91,580.58 392.25,580.68 392.59,580.72 "
       style="stroke-width: 0.53; stroke: #000000; stroke-opacity: 0.85; fill: #449464; fill-opacity: 0.85;"
       id="polygon210" />
    <text
       x="461.65"
       y="577.12"
       text-anchor="middle"
       style="font-size: 17.07px;fill: #000000; fill-opacity: 0.85; font-family: &quot;Times New Roman&quot;;"
       textLength="135.06px"
       lengthAdjust="spacingAndGlyphs"
       id="text212">Species distribution</text>
    <polygon
       points="736.54,691.48 875.26,691.48 875.17,691.48 875.52,691.46 875.86,691.39 876.19,691.27 876.49,691.10 876.76,690.88 876.99,690.62 877.17,690.32 877.31,690.00 877.39,689.67 877.42,689.32 877.42,689.32 877.42,675.14 877.42,675.14 877.39,674.79 877.31,674.45 877.17,674.13 876.99,673.84 876.76,673.58 876.49,673.36 876.19,673.18 875.86,673.06 875.52,672.99 875.26,672.98 736.54,672.98 736.80,672.99 736.45,672.98 736.11,673.02 735.77,673.12 735.46,673.27 735.17,673.46 734.92,673.70 734.71,673.98 734.55,674.29 734.44,674.62 734.39,674.96 734.38,675.14 734.38,689.32 734.39,689.15 734.39,689.49 734.44,689.84 734.55,690.17 734.71,690.47 734.92,690.75 735.17,690.99 735.46,691.19 735.77,691.34 736.11,691.44 736.45,691.48 "
       style="stroke-width: 0.53; stroke: #000000; stroke-opacity: 0.85; fill: #449464; fill-opacity: 0.85;"
       id="polygon214" />
    <text
       x="805.90"
       y="687.88"
       text-anchor="middle"
       style="font-size: 17.07px;fill: #000000; fill-opacity: 0.85; font-family: &quot;Times New Roman&quot;;"
       textLength="135.84px"
       lengthAdjust="spacingAndGlyphs"
       id="text216">Transfer of learning</text>
    <polygon
       points="745.08,318.08 861.06,318.08 860.97,318.08 861.32,318.06 861.66,318.00 861.98,317.87 862.29,317.70 862.55,317.48 862.78,317.22 862.97,316.92 863.11,316.60 863.19,316.27 863.22,315.92 863.22,315.92 863.22,301.74 863.22,301.74 863.19,301.39 863.11,301.05 862.97,300.73 862.78,300.44 862.55,300.18 862.29,299.96 861.98,299.79 861.66,299.66 861.32,299.59 861.06,299.58 745.08,299.58 745.34,299.59 744.99,299.58 744.65,299.62 744.31,299.72 744.00,299.87 743.71,300.06 743.46,300.30 743.25,300.58 743.09,300.89 742.98,301.22 742.93,301.56 742.92,301.74 742.92,315.92 742.93,315.75 742.93,316.09 742.98,316.44 743.09,316.77 743.25,317.08 743.46,317.35 743.71,317.59 744.00,317.79 744.31,317.94 744.65,318.04 744.99,318.08 "
       style="stroke-width: 0.53; stroke: #000000; stroke-opacity: 0.85; fill: #449464; fill-opacity: 0.85;"
       id="polygon218" />
    <text
       x="803.07"
       y="314.48"
       text-anchor="middle"
       style="font-size: 17.07px;fill: #000000; fill-opacity: 0.85; font-family: &quot;Times New Roman&quot;;"
       textLength="113.10px"
       lengthAdjust="spacingAndGlyphs"
       id="text220">Tree (set theory)</text>
    <polygon
       points="413.44,463.96 511.56,463.96 511.47,463.96 511.82,463.95 512.16,463.88 512.48,463.76 512.78,463.58 513.05,463.36 513.28,463.10 513.47,462.81 513.61,462.49 513.69,462.15 513.72,461.80 513.72,461.80 513.72,447.62 513.72,447.62 513.69,447.27 513.61,446.94 513.47,446.62 513.28,446.32 513.05,446.06 512.78,445.84 512.48,445.67 512.16,445.54 511.82,445.48 511.56,445.46 413.44,445.46 413.70,445.48 413.36,445.46 413.01,445.50 412.68,445.60 412.36,445.75 412.08,445.95 411.83,446.19 411.62,446.47 411.46,446.77 411.35,447.10 411.29,447.45 411.28,447.62 411.28,461.80 411.29,461.63 411.29,461.98 411.35,462.32 411.46,462.65 411.62,462.96 411.83,463.24 412.08,463.48 412.36,463.67 412.68,463.82 413.01,463.92 413.36,463.96 "
       style="stroke-width: 0.53; stroke: #000000; stroke-opacity: 0.85; fill: #F7BE8A; fill-opacity: 0.85;"
       id="polygon222" />
    <text
       x="462.50"
       y="460.36"
       text-anchor="middle"
       style="font-size: 17.07px;fill: #000000; fill-opacity: 0.85; font-family: &quot;Times New Roman&quot;;"
       textLength="95.23px"
       lengthAdjust="spacingAndGlyphs"
       id="text224">random forest</text>
    <polygon
       points="758.24,468.36 797.15,468.36 797.07,468.36 797.41,468.34 797.75,468.27 798.08,468.15 798.38,467.98 798.65,467.76 798.88,467.50 799.06,467.20 799.20,466.88 799.28,466.55 799.31,466.20 799.31,466.20 799.31,452.02 799.31,452.02 799.28,451.67 799.20,451.33 799.06,451.01 798.88,450.72 798.65,450.46 798.38,450.24 798.08,450.06 797.75,449.94 797.41,449.87 797.15,449.86 758.24,449.86 758.50,449.87 758.15,449.86 757.80,449.90 757.47,450.00 757.16,450.15 756.87,450.34 756.62,450.58 756.41,450.86 756.25,451.17 756.14,451.50 756.08,451.84 756.08,452.02 756.08,466.20 756.08,466.03 756.08,466.37 756.14,466.72 756.25,467.05 756.41,467.35 756.62,467.63 756.87,467.87 757.16,468.07 757.47,468.22 757.80,468.32 758.15,468.36 "
       style="stroke-width: 0.53; stroke: #000000; stroke-opacity: 0.85; fill: #F7BE8A; fill-opacity: 0.85;"
       id="polygon226" />
    <text
       x="777.69"
       y="464.76"
       text-anchor="middle"
       style="font-size: 17.07px;fill: #000000; fill-opacity: 0.85; font-family: &quot;Times New Roman&quot;;"
       textLength="36.04px"
       lengthAdjust="spacingAndGlyphs"
       id="text228">CNN</text>
    <polygon
       points="696.39,402.25 802.09,402.25 802.00,402.25 802.35,402.24 802.69,402.17 803.01,402.05 803.31,401.87 803.58,401.65 803.81,401.39 804.00,401.10 804.13,400.78 804.22,400.44 804.25,400.09 804.25,400.09 804.25,385.91 804.25,385.91 804.22,385.56 804.13,385.23 804.00,384.91 803.81,384.61 803.58,384.35 803.31,384.13 803.01,383.96 802.69,383.83 802.35,383.77 802.09,383.75 696.39,383.75 696.65,383.77 696.30,383.75 695.96,383.79 695.62,383.89 695.31,384.04 695.02,384.24 694.77,384.48 694.56,384.76 694.40,385.06 694.29,385.39 694.24,385.74 694.23,385.91 694.23,400.09 694.24,399.92 694.24,400.27 694.29,400.61 694.40,400.94 694.56,401.25 694.77,401.53 695.02,401.77 695.31,401.96 695.62,402.11 695.96,402.21 696.30,402.25 "
       style="stroke-width: 0.53; stroke: #000000; stroke-opacity: 0.85; fill: #F7BE8A; fill-opacity: 0.85;"
       id="polygon230" />
    <text
       x="749.24"
       y="398.65"
       text-anchor="middle"
       style="font-size: 17.07px;fill: #000000; fill-opacity: 0.85; font-family: &quot;Times New Roman&quot;;"
       textLength="102.82px"
       lengthAdjust="spacingAndGlyphs"
       id="text232">neural network</text>
    <polygon
       points="541.72,654.96 581.58,654.96 581.49,654.96 581.84,654.95 582.18,654.88 582.50,654.76 582.80,654.58 583.07,654.36 583.30,654.10 583.49,653.81 583.62,653.49 583.71,653.15 583.74,652.80 583.74,652.80 583.74,638.62 583.74,638.62 583.71,638.27 583.62,637.94 583.49,637.62 583.30,637.32 583.07,637.06 582.80,636.84 582.50,636.67 582.18,636.55 581.84,636.48 581.58,636.46 541.72,636.46 541.98,636.48 541.63,636.46 541.28,636.50 540.95,636.60 540.64,636.75 540.35,636.95 540.10,637.19 539.89,637.47 539.73,637.77 539.62,638.10 539.56,638.45 539.56,638.62 539.56,652.80 539.56,652.63 539.56,652.98 539.62,653.32 539.73,653.65 539.89,653.96 540.10,654.24 540.35,654.48 540.64,654.67 540.95,654.82 541.28,654.92 541.63,654.96 "
       style="stroke-width: 0.53; stroke: #000000; stroke-opacity: 0.85; fill: #F7BE8A; fill-opacity: 0.85;"
       id="polygon234" />
    <text
       x="561.65"
       y="651.36"
       text-anchor="middle"
       style="font-size: 17.07px;fill: #000000; fill-opacity: 0.85; font-family: &quot;Times New Roman&quot;;"
       textLength="36.98px"
       lengthAdjust="spacingAndGlyphs"
       id="text236">CLIP</text>
    <polygon
       points="367.35,349.67 488.20,349.67 488.11,349.67 488.46,349.66 488.80,349.59 489.12,349.46 489.42,349.29 489.69,349.07 489.92,348.81 490.11,348.52 490.25,348.20 490.33,347.86 490.36,347.51 490.36,347.51 490.36,333.33 490.36,333.33 490.33,332.98 490.25,332.65 490.11,332.33 489.92,332.03 489.69,331.77 489.42,331.55 489.12,331.38 488.80,331.25 488.46,331.18 488.20,331.17 367.35,331.17 367.61,331.18 367.27,331.17 366.92,331.21 366.59,331.31 366.27,331.46 365.99,331.66 365.74,331.90 365.53,332.17 365.37,332.48 365.26,332.81 365.20,333.16 365.19,333.33 365.19,347.51 365.20,347.34 365.20,347.69 365.26,348.03 365.37,348.36 365.53,348.67 365.74,348.95 365.99,349.19 366.27,349.38 366.59,349.53 366.92,349.63 367.27,349.67 "
       style="stroke-width: 0.53; stroke: #000000; stroke-opacity: 0.85; fill: #F7BE8A; fill-opacity: 0.85;"
       id="polygon238" />
    <text
       x="427.77"
       y="346.07"
       text-anchor="middle"
       style="font-size: 17.07px;fill: #000000; fill-opacity: 0.85; font-family: &quot;Times New Roman&quot;;"
       textLength="117.96px"
       lengthAdjust="spacingAndGlyphs"
       id="text240">machine learning</text>
    <polygon
       points="799.46,755.19 881.92,755.19 881.83,755.19 882.18,755.18 882.52,755.11 882.84,754.99 883.15,754.81 883.41,754.59 883.64,754.33 883.83,754.04 883.97,753.72 884.05,753.38 884.08,753.03 884.08,753.03 884.08,738.85 884.08,738.85 884.05,738.50 883.97,738.17 883.83,737.85 883.64,737.55 883.41,737.29 883.15,737.07 882.84,736.90 882.52,736.78 882.18,736.71 881.92,736.69 799.46,736.69 799.72,736.71 799.37,736.69 799.02,736.73 798.69,736.83 798.38,736.98 798.09,737.18 797.84,737.42 797.63,737.70 797.47,738.00 797.36,738.33 797.30,738.68 797.30,738.85 797.30,753.03 797.30,752.86 797.30,753.21 797.36,753.55 797.47,753.88 797.63,754.19 797.84,754.47 798.09,754.71 798.38,754.91 798.69,755.05 799.02,755.15 799.37,755.19 "
       style="stroke-width: 0.53; stroke: #000000; stroke-opacity: 0.85; fill: #F7BE8A; fill-opacity: 0.85;"
       id="polygon242" />
    <text
       x="840.69"
       y="751.59"
       text-anchor="middle"
       style="font-size: 17.07px;fill: #000000; fill-opacity: 0.85; font-family: &quot;Times New Roman&quot;;"
       textLength="79.58px"
       lengthAdjust="spacingAndGlyphs"
       id="text244">transformer</text>
    <polygon
       points="118.47,229.20 211.35,229.20 211.27,229.20 211.61,229.18 211.96,229.11 212.28,228.99 212.58,228.82 212.85,228.60 213.08,228.34 213.27,228.04 213.40,227.72 213.49,227.39 213.51,227.04 213.51,227.04 213.51,212.86 213.51,212.86 213.49,212.51 213.40,212.17 213.27,211.85 213.08,211.56 212.85,211.30 212.58,211.08 212.28,210.90 211.96,210.78 211.61,210.71 211.35,210.70 118.47,210.70 118.73,210.71 118.38,210.70 118.03,210.74 117.70,210.84 117.39,210.98 117.10,211.18 116.85,211.42 116.64,211.70 116.48,212.01 116.37,212.34 116.31,212.68 116.31,212.86 116.31,227.04 116.31,226.87 116.31,227.21 116.37,227.56 116.48,227.89 116.64,228.19 116.85,228.47 117.10,228.71 117.39,228.91 117.70,229.06 118.03,229.16 118.38,229.20 "
       style="stroke-width: 0.53; stroke: #000000; stroke-opacity: 0.85; fill: #F7BE8A; fill-opacity: 0.85;"
       id="polygon246" />
    <text
       x="164.91"
       y="225.60"
       text-anchor="middle"
       style="font-size: 17.07px;fill: #000000; fill-opacity: 0.85; font-family: &quot;Times New Roman&quot;;"
       textLength="90.01px"
       lengthAdjust="spacingAndGlyphs"
       id="text248">classification</text>
    <polygon
       points="76.13,144.44 239.16,144.44 239.08,144.44 239.42,144.43 239.76,144.36 240.09,144.24 240.39,144.06 240.66,143.84 240.89,143.58 241.08,143.29 241.21,142.97 241.29,142.63 241.32,142.28 241.32,142.28 241.32,128.10 241.32,128.10 241.29,127.75 241.21,127.42 241.08,127.10 240.89,126.80 240.66,126.54 240.39,126.32 240.09,126.15 239.76,126.03 239.42,125.96 239.16,125.94 76.13,125.94 76.39,125.96 76.05,125.94 75.70,125.98 75.37,126.08 75.05,126.23 74.77,126.43 74.52,126.67 74.31,126.95 74.15,127.25 74.04,127.58 73.98,127.93 73.97,128.10 73.97,142.28 73.98,142.11 73.98,142.46 74.04,142.80 74.15,143.13 74.31,143.44 74.52,143.72 74.77,143.96 75.05,144.16 75.37,144.30 75.70,144.40 76.05,144.44 "
       style="stroke-width: 0.53; stroke: #000000; stroke-opacity: 0.85; fill: #F7BE8A; fill-opacity: 0.85;"
       id="polygon250" />
    <text
       x="157.65"
       y="140.84"
       text-anchor="middle"
       style="font-size: 17.07px;fill: #000000; fill-opacity: 0.85; font-family: &quot;Times New Roman&quot;;"
       textLength="160.15px"
       lengthAdjust="spacingAndGlyphs"
       id="text252">support vector machine</text>
    <polygon
       points="300.87,682.60 459.60,682.60 459.51,682.60 459.86,682.59 460.20,682.52 460.52,682.40 460.82,682.22 461.09,682.00 461.32,681.74 461.51,681.45 461.65,681.13 461.73,680.79 461.76,680.44 461.76,680.44 461.76,666.26 461.76,666.26 461.73,665.91 461.65,665.58 461.51,665.26 461.32,664.96 461.09,664.70 460.82,664.48 460.52,664.31 460.20,664.19 459.86,664.12 459.60,664.10 300.87,664.10 301.13,664.12 300.78,664.10 300.43,664.14 300.10,664.24 299.79,664.39 299.50,664.59 299.25,664.83 299.04,665.11 298.88,665.41 298.77,665.74 298.71,666.09 298.71,666.26 298.71,680.44 298.71,680.27 298.71,680.62 298.77,680.96 298.88,681.29 299.04,681.60 299.25,681.88 299.50,682.12 299.79,682.31 300.10,682.46 300.43,682.56 300.78,682.60 "
       style="stroke-width: 0.53; stroke: #000000; stroke-opacity: 0.85; fill: #F7BE8A; fill-opacity: 0.85;"
       id="polygon254" />
    <text
       x="380.23"
       y="679.00"
       text-anchor="middle"
       style="font-size: 17.07px;fill: #000000; fill-opacity: 0.85; font-family: &quot;Times New Roman&quot;;"
       textLength="155.85px"
       lengthAdjust="spacingAndGlyphs"
       id="text256">reinforcement learning</text>
    <polygon
       points="819.51,109.55 855.59,109.55 855.51,109.54 855.85,109.53 856.19,109.46 856.52,109.34 856.82,109.16 857.09,108.94 857.32,108.68 857.51,108.39 857.64,108.07 857.73,107.73 857.75,107.39 857.75,107.39 857.75,93.20 857.75,93.20 857.73,92.86 857.64,92.52 857.51,92.20 857.32,91.90 857.09,91.64 856.82,91.42 856.52,91.25 856.19,91.13 855.85,91.06 855.59,91.04 819.51,91.04 819.78,91.06 819.43,91.04 819.08,91.09 818.75,91.18 818.43,91.33 818.15,91.53 817.90,91.77 817.69,92.05 817.53,92.36 817.42,92.69 817.36,93.03 817.35,93.20 817.35,107.39 817.36,107.21 817.36,107.56 817.42,107.90 817.53,108.23 817.69,108.54 817.90,108.82 818.15,109.06 818.43,109.26 818.75,109.41 819.08,109.50 819.43,109.54 "
       style="stroke-width: 0.53; stroke: #000000; stroke-opacity: 0.85; fill: #F7BE8A; fill-opacity: 0.85;"
       id="polygon258" />
    <text
       x="837.55"
       y="105.95"
       text-anchor="middle"
       style="font-size: 17.07px;fill: #000000; fill-opacity: 0.85; font-family: &quot;Times New Roman&quot;;"
       textLength="33.20px"
       lengthAdjust="spacingAndGlyphs"
       id="text260">PCA</text>
  </g>
  <g
     clip-path="url(#cpMC4wMHwxMDA4LjAwfDAuMDB8ODY0LjAw)"
     id="g266">
    <text
       x="56.69"
       y="70.91"
       style="font-size: 13.20px; font-family: &quot;Times New Roman&quot;;"
       textLength="219.45px"
       lengthAdjust="spacingAndGlyphs"
       id="text264">Keyword Network Analysis: Biodiversity</text>
  </g>
</svg>
