<?xml version="1.0" encoding="UTF-8" standalone="no"?>
<svg
   xmlns:dc="http://purl.org/dc/elements/1.1/"
   xmlns:cc="http://creativecommons.org/ns#"
   xmlns:rdf="http://www.w3.org/1999/02/22-rdf-syntax-ns#"
   xmlns:svg="http://www.w3.org/2000/svg"
   xmlns="http://www.w3.org/2000/svg"
   xmlns:xlink="http://www.w3.org/1999/xlink"
   xmlns:sodipodi="http://sodipodi.sourceforge.net/DTD/sodipodi-0.dtd"
   xmlns:inkscape="http://www.inkscape.org/namespaces/inkscape"
   width="862.04712pt"
   height="836.81836pt"
   viewBox="0 0 862.04712 836.81836"
   version="1.1"
   id="svg513"
   sodipodi:docname="earth_system_clockwork.svg"
   inkscape:version="0.92.5 (2060ec1f9f, 2020-04-08)">
  <sodipodi:namedview
     pagecolor="#ffffff"
     bordercolor="#666666"
     borderopacity="1"
     objecttolerance="10"
     gridtolerance="10"
     guidetolerance="10"
     inkscape:pageopacity="0"
     inkscape:pageshadow="2"
     inkscape:window-width="1090"
     inkscape:window-height="865"
     id="namedview515"
     showgrid="false"
     inkscape:zoom="0.57943472"
     inkscape:cx="919.43817"
     inkscape:cy="582.90331"
     inkscape:window-x="2639"
     inkscape:window-y="59"
     inkscape:window-maximized="0"
     inkscape:current-layer="axes_1" />
  <metadata
     id="metadata2">
    <rdf:RDF>
      <cc:Work>
        <dc:type
           rdf:resource="http://purl.org/dc/dcmitype/StillImage" />
        <dc:date>2025-04-25T16:25:57.190578</dc:date>
        <dc:format>image/svg+xml</dc:format>
        <dc:creator>
          <cc:Agent>
            <dc:title>Matplotlib v3.7.5, https://matplotlib.org/</dc:title>
          </cc:Agent>
        </dc:creator>
      </cc:Work>
    </rdf:RDF>
  </metadata>
  <defs
     id="defs6"
     style="stroke-linecap:butt;stroke-linejoin:round">
    <style
       type="text/css"
       id="style4">*{stroke-linejoin: round; stroke-linecap: butt}</style>
    <filter
       inkscape:collect="always"
       style="color-interpolation-filters:sRGB;stroke-linecap:butt;stroke-linejoin:round"
       id="filter3150"
       x="-0.0042960262"
       width="1.0085921"
       y="-0.031030139"
       height="1.0620604">
      <feGaussianBlur
         inkscape:collect="always"
         stdDeviation="0.27518794"
         id="feGaussianBlur3152"
         style="stroke-linecap:butt;stroke-linejoin:round" />
    </filter>
    <clipPath
       id="p24627d67b1"
       style="stroke-linecap:butt;stroke-linejoin:round">
      <path
         d="m 830.16934,454 c 0,-52.42246 -10.32608,-104.33519 -30.38729,-152.76723 -20.06121,-48.43204 -49.4674,-92.44152 -86.53568,-129.5098 C 676.17809,134.65469 632.16861,105.2485 583.73657,85.187291 535.30453,65.126082 483.3918,54.8 430.96934,54.8 378.54688,54.8 326.63416,65.126082 278.20211,85.187291 229.77007,105.2485 185.76059,134.65469 148.69231,171.72297 111.62404,208.79125 82.21784,252.80073 62.156632,301.23277 42.095423,349.66481 31.769341,401.57754 31.769341,454 c 0,52.42246 10.326082,104.33519 30.387291,152.76723 20.061208,48.43204 49.467408,92.44152 86.535678,129.5098 37.06828,37.06828 81.07776,66.47447 129.5098,86.53568 48.43205,20.06121 100.34477,30.38729 152.76723,30.38729 52.42246,0 104.33519,-10.32608 152.76723,-30.38729 48.43204,-20.06121 92.44152,-49.4674 129.5098,-86.53568 37.06828,-37.06828 66.47447,-81.07776 86.53568,-129.5098 C 819.84326,558.33519 830.16934,506.42246 830.16934,454 m -399.2,0 c 0,0 0,0 0,0 0,0 0,0 0,0 0,0 0,0 0,0 0,0 0,0 0,0 0,0 0,0 0,0 0,0 0,0 0,0 0,0 0,0 0,0 0,0 0,0 0,0 0,0 0,0 0,0 0,0 0,0 0,0 0,0 0,0 0,0 0,0 0,0 0,0 0,0 0,0 0,0 0,0 0,0 0,0 0,0 0,0 0,0 0,0 0,0 0,0 z"
         id="path494"
         inkscape:connector-curvature="0"
         style="stroke-linecap:butt;stroke-linejoin:round" />
    </clipPath>
    <clipPath
       id="p24627d67b1-1"
       style="stroke-linecap:butt;stroke-linejoin:round">
      <path
         d="m 830.16934,454 c 0,-52.42246 -10.32608,-104.33519 -30.38729,-152.76723 -20.06121,-48.43204 -49.4674,-92.44152 -86.53568,-129.5098 C 676.17809,134.65469 632.16861,105.2485 583.73657,85.187291 535.30453,65.126082 483.3918,54.8 430.96934,54.8 378.54688,54.8 326.63416,65.126082 278.20211,85.187291 229.77007,105.2485 185.76059,134.65469 148.69231,171.72297 111.62404,208.79125 82.21784,252.80073 62.156632,301.23277 42.095423,349.66481 31.769341,401.57754 31.769341,454 c 0,52.42246 10.326082,104.33519 30.387291,152.76723 20.061208,48.43204 49.467408,92.44152 86.535678,129.5098 37.06828,37.06828 81.07776,66.47447 129.5098,86.53568 48.43205,20.06121 100.34477,30.38729 152.76723,30.38729 52.42246,0 104.33519,-10.32608 152.76723,-30.38729 48.43204,-20.06121 92.44152,-49.4674 129.5098,-86.53568 37.06828,-37.06828 66.47447,-81.07776 86.53568,-129.5098 C 819.84326,558.33519 830.16934,506.42246 830.16934,454 m -399.2,0 c 0,0 0,0 0,0 0,0 0,0 0,0 0,0 0,0 0,0 0,0 0,0 0,0 0,0 0,0 0,0 0,0 0,0 0,0 0,0 0,0 0,0 0,0 0,0 0,0 0,0 0,0 0,0 0,0 0,0 0,0 0,0 0,0 0,0 0,0 0,0 0,0 0,0 0,0 0,0 0,0 0,0 0,0 0,0 0,0 0,0 0,0 0,0 0,0 z"
         id="path494-2"
         inkscape:connector-curvature="0"
         style="stroke-linecap:butt;stroke-linejoin:round" />
    </clipPath>
    <path
       id="m8ec1c162b6"
       d="m 0,93.541408 c 24.807471,0 48.602233,-9.856113 66.143764,-27.397644 C 83.685295,48.602233 93.541408,24.807471 93.541408,0 c 0,-24.807471 -9.856113,-48.602233 -27.397644,-66.143764 C 48.602233,-83.685295 24.807471,-93.541408 0,-93.541408 c -24.807471,0 -48.602233,9.856113 -66.143764,27.397644 C -83.685295,-48.602233 -93.541408,-24.807471 -93.541408,0 c 0,24.807471 9.856113,48.602233 27.397644,66.143764 C -48.602233,83.685295 -24.807471,93.541408 0,93.541408 Z"
       style="stroke:#ffffff;stroke-width:2;stroke-linecap:butt;stroke-linejoin:round;stroke-opacity:0.92000002"
       inkscape:connector-curvature="0" />
  </defs>
  <g
     id="figure_1"
     style="stroke-linecap:butt;stroke-linejoin:round"
     transform="translate(0,-32.359123)">
    <g
       id="patch_1"
       style="stroke-linecap:butt;stroke-linejoin:round">
      <path
         d="M 0,864 H 864 V 0 H 0 Z"
         style="fill:none;stroke-linecap:butt;stroke-linejoin:round"
         id="path8"
         inkscape:connector-curvature="0" />
    </g>
    <g
       inkscape:groupmode="layer"
       id="layer1"
       inkscape:label="Layer 1"
       style="stroke-linecap:butt;stroke-linejoin:round">
      <rect
         style="fill:#ffffff;stroke-width:0.77747965;stroke-linecap:butt;stroke-linejoin:round"
         id="rect526"
         width="982.4231"
         height="836.81836"
         x="-55.657696"
         y="32.359123"
         inkscape:export-xdpi="150"
         inkscape:export-ydpi="150" />
    </g>
    <g
       id="axes_1"
       style="stroke-linecap:butt;stroke-linejoin:round">
      <g
         id="PathCollection_1"
         style="stroke-linecap:butt;stroke-linejoin:round">
        <path
           d="m 438.46853,249.12788 c 18.51297,0 36.27019,-7.35528 49.36084,-20.44593 13.09065,-13.09065 20.44593,-30.84787 20.44593,-49.36084 0,-18.51298 -7.35528,-36.2702 -20.44593,-49.36085 -13.09065,-13.09065 -30.84787,-20.44593 -49.36084,-20.44593 -18.51297,0 -36.2702,7.35528 -49.36085,20.44593 -13.09064,13.09065 -20.44593,30.84787 -20.44593,49.36085 0,18.51297 7.35529,36.27019 20.44593,49.36084 13.09065,13.09065 30.84788,20.44593 49.36085,20.44593 z"
           clip-path="url(#pc9fd304508)"
           style="fill:#f7be8a;fill-opacity:1;stroke:#ffffff;stroke-width:1.5;stroke-linecap:butt;stroke-linejoin:round;stroke-opacity:0.85"
           id="path11"
           inkscape:connector-curvature="0" />
        <path
           d="m 575.80798,281.12332 c 17.23879,0 33.77384,-6.84904 45.96351,-19.03871 12.18966,-12.18967 19.03871,-28.72472 19.03871,-45.96351 0,-17.23879 -6.84905,-33.77385 -19.03871,-45.96351 -12.18967,-12.18967 -28.72472,-19.03871 -45.96351,-19.03871 -17.23879,0 -33.77385,6.84904 -45.96351,19.03871 -12.18967,12.18966 -19.03871,28.72472 -19.03871,45.96351 0,17.23879 6.84904,33.77384 19.03871,45.96351 12.18966,12.18967 28.72472,19.03871 45.96351,19.03871 z"
           clip-path="url(#pc9fd304508)"
           style="fill:#f7be8a;fill-opacity:1;stroke:#ffffff;stroke-width:1.5;stroke-linecap:butt;stroke-linejoin:round;stroke-opacity:0.85"
           id="path13"
           inkscape:connector-curvature="0" />
        <path
           d="m 676.34743,371.86425 c 14.64019,0 28.68273,-5.81661 39.0349,-16.16879 10.35218,-10.35218 16.16879,-24.39472 16.16879,-39.03491 0,-14.64019 -5.81661,-28.68273 -16.16879,-39.0349 -10.35217,-10.35218 -24.39471,-16.16879 -39.0349,-16.16879 -14.64019,0 -28.68273,5.81661 -39.03491,16.16879 -10.35218,10.35217 -16.16878,24.39471 -16.16878,39.0349 0,14.64019 5.8166,28.68273 16.16878,39.03491 10.35218,10.35218 24.39472,16.16879 39.03491,16.16879 z"
           clip-path="url(#pc9fd304508)"
           style="fill:#f7be8a;fill-opacity:1;stroke:#ffffff;stroke-width:1.5;stroke-linecap:butt;stroke-linejoin:round;stroke-opacity:0.85"
           id="path15"
           inkscape:connector-curvature="0" />
        <path
           d="m 713.14742,501.11928 c 12.49618,0 24.48223,-4.96479 33.31836,-13.80092 8.83613,-8.83613 13.80092,-20.82218 13.80092,-33.31836 0,-12.49618 -4.96479,-24.48223 -13.80092,-33.31836 -8.83613,-8.83613 -20.82218,-13.80092 -33.31836,-13.80092 -12.49617,0 -24.48222,4.96479 -33.31836,13.80092 -8.83613,8.83613 -13.80091,20.82218 -13.80091,33.31836 0,12.49618 4.96478,24.48223 13.80091,33.31836 8.83614,8.83613 20.82219,13.80092 33.31836,13.80092 z"
           clip-path="url(#pc9fd304508)"
           style="fill:#f7be8a;fill-opacity:1;stroke:#ffffff;stroke-width:1.5;stroke-linecap:butt;stroke-linejoin:round;stroke-opacity:0.85"
           id="path17"
           inkscape:connector-curvature="0" />
        <path
           d="m 676.34743,637.47908 c 12.23637,0 23.97322,-4.86156 32.62565,-13.51398 8.65242,-8.65243 13.51398,-20.38928 13.51398,-32.62565 0,-12.23638 -4.86156,-23.97323 -13.51398,-32.62565 -8.65243,-8.65242 -20.38928,-13.51399 -32.62565,-13.51399 -12.23637,0 -23.97323,4.86157 -32.62565,13.51399 -8.65242,8.65242 -13.51398,20.38927 -13.51398,32.62565 0,12.23637 4.86156,23.97322 13.51398,32.62565 8.65242,8.65242 20.38928,13.51398 32.62565,13.51398 z"
           clip-path="url(#pc9fd304508)"
           style="fill:#f7be8a;fill-opacity:1;stroke:#ffffff;stroke-width:1.5;stroke-linecap:butt;stroke-linejoin:round;stroke-opacity:0.85"
           id="path19"
           inkscape:connector-curvature="0" />
        <path
           d="m 575.80798,737.32444 c 12.0523,0 23.61259,-4.78842 32.13485,-13.31069 8.52226,-8.52226 13.31069,-20.08255 13.31069,-32.13485 0,-12.0523 -4.78843,-23.61259 -13.31069,-32.13485 -8.52226,-8.52227 -20.08255,-13.3107 -32.13485,-13.3107 -12.0523,0 -23.61259,4.78843 -32.13486,13.3107 -8.52226,8.52226 -13.31069,20.08255 -13.31069,32.13485 0,12.0523 4.78843,23.61259 13.31069,32.13485 8.52227,8.52227 20.08256,13.31069 32.13486,13.31069 z"
           clip-path="url(#pc9fd304508)"
           style="fill:#f7be8a;fill-opacity:1;stroke:#ffffff;stroke-width:1.5;stroke-linecap:butt;stroke-linejoin:round;stroke-opacity:0.85"
           id="path21"
           inkscape:connector-curvature="0" />
        <path
           d="m 438.46853,767.39118 c 10.26662,0 20.11412,-4.07897 27.37372,-11.33857 7.25959,-7.25959 11.33856,-17.1071 11.33856,-27.37372 0,-10.26661 -4.07897,-20.11412 -11.33856,-27.37371 -7.2596,-7.2596 -17.1071,-11.33857 -27.37372,-11.33857 -10.26662,0 -20.11412,4.07897 -27.37372,11.33857 -7.25959,7.25959 -11.33856,17.1071 -11.33856,27.37371 0,10.26662 4.07897,20.11413 11.33856,27.37372 7.2596,7.2596 17.1071,11.33857 27.37372,11.33857 z"
           clip-path="url(#pc9fd304508)"
           style="fill:#f7be8a;fill-opacity:1;stroke:#ffffff;stroke-width:1.5;stroke-linecap:butt;stroke-linejoin:round;stroke-opacity:0.85"
           id="path23"
           inkscape:connector-curvature="0" />
        <path
           d="m 301.12908,728.07836 c 9.60021,0 18.80851,-3.8142 25.59689,-10.60257 6.78837,-6.78838 10.60258,-15.99668 10.60258,-25.59689 0,-9.60021 -3.81421,-18.80851 -10.60258,-25.59689 -6.78838,-6.78837 -15.99668,-10.60257 -25.59689,-10.60257 -9.60021,0 -18.80851,3.8142 -25.59688,10.60257 -6.78838,6.78838 -10.60258,15.99668 -10.60258,25.59689 0,9.60021 3.8142,18.80851 10.60258,25.59689 6.78837,6.78837 15.99667,10.60257 25.59688,10.60257 z"
           clip-path="url(#pc9fd304508)"
           style="fill:#f7be8a;fill-opacity:1;stroke:#ffffff;stroke-width:1.5;stroke-linecap:butt;stroke-linejoin:round;stroke-opacity:0.85"
           id="path25"
           inkscape:connector-curvature="0" />
        <path
           d="m 200.58963,621.688 c 8.04853,0 15.7685,-3.19771 21.45967,-8.88888 5.69117,-5.69118 8.88888,-13.41114 8.88888,-21.45967 0,-8.04853 -3.19771,-15.7685 -8.88888,-21.45967 -5.69117,-5.69117 -13.41114,-8.88889 -21.45967,-8.88889 -8.04853,0 -15.7685,3.19772 -21.45967,8.88889 -5.69117,5.69117 -8.88889,13.41114 -8.88889,21.45967 0,8.04853 3.19772,15.76849 8.88889,21.45967 5.69117,5.69117 13.41114,8.88888 21.45967,8.88888 z"
           clip-path="url(#pc9fd304508)"
           style="fill:#f7be8a;fill-opacity:1;stroke:#ffffff;stroke-width:1.5;stroke-linecap:butt;stroke-linejoin:round;stroke-opacity:0.85"
           id="path27"
           inkscape:connector-curvature="0" />
        <path
           d="m 163.78963,479.49836 c 6.76225,0 13.24844,-2.68667 18.03007,-7.4683 4.78163,-4.78163 7.4683,-11.26782 7.4683,-18.03006 0,-6.76224 -2.68667,-13.24843 -7.4683,-18.03006 -4.78163,-4.78163 -11.26782,-7.4683 -18.03007,-7.4683 -6.76224,0 -13.24843,2.68667 -18.03006,7.4683 -4.78163,4.78163 -7.4683,11.26782 -7.4683,18.03006 0,6.76224 2.68667,13.24843 7.4683,18.03006 4.78163,4.78163 11.26782,7.4683 18.03006,7.4683 z"
           clip-path="url(#pc9fd304508)"
           style="fill:#f7be8a;fill-opacity:1;stroke:#ffffff;stroke-width:1.5;stroke-linecap:butt;stroke-linejoin:round;stroke-opacity:0.85"
           id="path29"
           inkscape:connector-curvature="0" />
        <path
           d="m 200.58963,340.63937 c 6.35925,0 12.45891,-2.52656 16.95558,-7.02323 4.49668,-4.49668 7.02323,-10.59633 7.02323,-16.95559 0,-6.35925 -2.52655,-12.45891 -7.02323,-16.95558 -4.49667,-4.49667 -10.59633,-7.02323 -16.95558,-7.02323 -6.35926,0 -12.45891,2.52656 -16.95559,7.02323 -4.49667,4.49667 -7.02323,10.59633 -7.02323,16.95558 0,6.35926 2.52656,12.45891 7.02323,16.95559 4.49668,4.49667 10.59633,7.02323 16.95559,7.02323 z"
           clip-path="url(#pc9fd304508)"
           style="fill:#f7be8a;fill-opacity:1;stroke:#ffffff;stroke-width:1.5;stroke-linecap:butt;stroke-linejoin:round;stroke-opacity:0.85"
           id="path31"
           inkscape:connector-curvature="0" />
        <path
           d="m 301.12908,231.4395 c 4.06249,0 7.95913,-1.61404 10.83175,-4.48665 2.87261,-2.87262 4.48665,-6.76926 4.48665,-10.83175 0,-4.06249 -1.61404,-7.95913 -4.48665,-10.83175 -2.87262,-2.87261 -6.76926,-4.48665 -10.83175,-4.48665 -4.06249,0 -7.95913,1.61404 -10.83174,4.48665 -2.87262,2.87262 -4.48666,6.76926 -4.48666,10.83175 0,4.06249 1.61404,7.95913 4.48666,10.83175 2.87261,2.87261 6.76925,4.48665 10.83174,4.48665 z"
           clip-path="url(#pc9fd304508)"
           style="fill:#f7be8a;fill-opacity:1;stroke:#ffffff;stroke-width:1.5;stroke-linecap:butt;stroke-linejoin:round;stroke-opacity:0.85"
           id="path33"
           inkscape:connector-curvature="0" />
      </g>
      <g
         id="PathCollection_2"
         style="stroke-linecap:butt;stroke-linejoin:round;fill:#287d3c;fill-opacity:0.7019608">
        <defs
           id="defs37">
          <path
             id="m5c0354236f"
             d="m 0,93.541409 c 24.807472,0 48.602233,-9.856113 66.143765,-27.397644 C 83.685296,48.602233 93.541409,24.807472 93.541409,0 c 0,-24.807472 -9.856113,-48.602233 -27.397644,-66.143765 C 48.602233,-83.685296 24.807472,-93.541409 0,-93.541409 c -24.807472,0 -48.602233,9.856113 -66.143765,27.397644 C -83.685296,-48.602233 -93.541409,-24.807472 -93.541409,0 c 0,24.807472 9.856113,48.602233 27.397644,66.143765 C -48.602233,83.685296 -24.807472,93.541409 0,93.541409 Z"
             style="stroke:#ffffff;stroke-width:2;stroke-linecap:butt;stroke-linejoin:round;stroke-opacity:0.92000002"
             inkscape:connector-curvature="0" />
        </defs>
        <g
           clip-path="url(#pc9fd304508)"
           id="g41"
           style="stroke-linecap:butt;stroke-linejoin:round;fill:#287d3c;fill-opacity:0.7019608">
          <use
             xlink:href="#m5c0354236f"
             x="438.46854"
             y="454"
             style="fill:#287d3c;fill-opacity:0.7019608;stroke:#ffffff;stroke-width:2;stroke-linecap:butt;stroke-linejoin:round;stroke-opacity:0.92000002"
             id="use39"
             width="100%"
             height="100%" />
        </g>
      </g>
      <text
         class="node-label"
         data-notex="1"
         x="507.33994"
         y="101.61696"
         style="font-size:10.5px;font-family:'Open Sans', verdana, arial, sans-serif;text-anchor:end;white-space:pre;display:inline;opacity:1;fill:#051c2c;fill-opacity:1;stroke-width:0.75;stroke-linecap:butt;stroke-linejoin:round"
         id="text291-7">
        <tspan
           style="font-style:normal;font-variant:normal;font-weight:bold;font-stretch:normal;font-size:20px;font-family:'Times New Roman';-inkscape-font-specification:'Times New Roman, Bold';stroke-width:0.75;stroke-linecap:butt;stroke-linejoin:round"
           id="tspan646-5">Neural network</tspan>
      </text>
      <text
         class="node-label"
         data-notex="1"
         x="692.39636"
         y="141.90829"
         style="font-size:10.5px;font-family:'Open Sans', verdana, arial, sans-serif;text-anchor:end;white-space:pre;display:inline;opacity:1;fill:#051c2c;fill-opacity:1;stroke-width:0.75;stroke-linecap:butt;stroke-linejoin:round"
         id="text291">
        <tspan
           style="font-style:normal;font-variant:normal;font-weight:bold;font-stretch:normal;font-size:20px;font-family:'Times New Roman';-inkscape-font-specification:'Times New Roman, Bold';stroke-width:0.75;stroke-linecap:butt;stroke-linejoin:round"
           id="tspan646">Random forest</tspan>
      </text>
      <text
         class="node-label"
         data-notex="1"
         x="780.00177"
         y="276.5076"
         style="font-size:10.5px;font-family:'Open Sans', verdana, arial, sans-serif;text-anchor:end;white-space:pre;display:inline;opacity:1;fill:#051c2c;fill-opacity:1;stroke-width:0.75;stroke-linecap:butt;stroke-linejoin:round"
         id="text291-3">
        <tspan
           style="font-style:normal;font-variant:normal;font-weight:bold;font-stretch:normal;font-size:20px;font-family:'Times New Roman';-inkscape-font-specification:'Times New Roman, Bold';stroke-width:0.75;stroke-linecap:butt;stroke-linejoin:round"
           id="tspan646-8">CNN</tspan>
      </text>
      <text
         class="node-label"
         data-notex="1"
         x="860.74249"
         y="458.30548"
         style="font-size:10.5px;font-family:'Open Sans', verdana, arial, sans-serif;text-anchor:end;white-space:pre;display:inline;opacity:1;fill:#051c2c;fill-opacity:1;stroke-width:0.75;stroke-linecap:butt;stroke-linejoin:round"
         id="text291-3-8">
        <tspan
           style="font-style:normal;font-variant:normal;font-weight:bold;font-stretch:normal;font-size:20px;font-family:'Times New Roman';-inkscape-font-specification:'Times New Roman, Bold';stroke-width:0.75;stroke-linecap:butt;stroke-linejoin:round"
           id="tspan646-8-3">Regression</tspan>
      </text>
      <text
         class="node-label"
         data-notex="1"
         x="786.49188"
         y="646.53973"
         style="font-size:10.5px;font-family:'Open Sans', verdana, arial, sans-serif;text-anchor:end;white-space:pre;display:inline;opacity:1;fill:#051c2c;fill-opacity:1;stroke-width:0.75;stroke-linecap:butt;stroke-linejoin:round"
         id="text291-3-8-4-3">
        <tspan
           style="font-style:normal;font-variant:normal;font-weight:bold;font-stretch:normal;font-size:20px;font-family:'Times New Roman';-inkscape-font-specification:'Times New Roman, Bold';stroke-width:0.75;stroke-linecap:butt;stroke-linejoin:round"
           id="tspan646-8-3-3-3">U-Net</tspan>
      </text>
      <text
         class="node-label"
         data-notex="1"
         x="669.06726"
         y="750.2403"
         style="font-size:10.5px;font-family:'Open Sans', verdana, arial, sans-serif;text-anchor:end;white-space:pre;display:inline;opacity:1;fill:#051c2c;fill-opacity:1;stroke-width:0.75;stroke-linecap:butt;stroke-linejoin:round"
         id="text291-3-8-9">
        <tspan
           style="font-style:normal;font-variant:normal;font-weight:bold;font-stretch:normal;font-size:20px;font-family:'Times New Roman';-inkscape-font-specification:'Times New Roman, Bold';stroke-width:0.75;stroke-linecap:butt;stroke-linejoin:round"
           id="tspan646-8-3-6">SVM</tspan>
      </text>
      <text
         class="node-label"
         data-notex="1"
         x="495.73157"
         y="824.61078"
         style="font-size:10.5px;font-family:'Open Sans', verdana, arial, sans-serif;text-anchor:end;white-space:pre;display:inline;opacity:1;fill:#051c2c;fill-opacity:1;stroke-width:0.75;stroke-linecap:butt;stroke-linejoin:round"
         id="text291-3-8-3">
        <tspan
           style="font-style:normal;font-variant:normal;font-weight:bold;font-stretch:normal;font-size:20px;font-family:'Times New Roman';-inkscape-font-specification:'Times New Roman, Bold';stroke-width:0.75;stroke-linecap:butt;stroke-linejoin:round"
           id="tspan646-8-3-67">Classification</tspan>
      </text>
      <text
         class="node-label"
         data-notex="1"
         x="279.39993"
         y="774.82349"
         style="font-size:10.5px;font-family:'Open Sans', verdana, arial, sans-serif;text-anchor:end;white-space:pre;display:inline;opacity:1;fill:#051c2c;fill-opacity:1;stroke-width:0.75;stroke-linecap:butt;stroke-linejoin:round"
         id="text291-3-8-4-88">
        <tspan
           style="font-style:normal;font-variant:normal;font-weight:bold;font-stretch:normal;font-size:20px;font-family:'Times New Roman';-inkscape-font-specification:'Times New Roman, Bold';stroke-width:0.75;stroke-linecap:butt;stroke-linejoin:round"
           id="tspan646-8-3-3-8">ANN</tspan>
      </text>
      <text
         class="node-label"
         data-notex="1"
         x="147.41653"
         y="641.51367"
         style="font-size:10.5px;font-family:'Open Sans', verdana, arial, sans-serif;text-anchor:end;white-space:pre;display:inline;opacity:1;fill:#051c2c;fill-opacity:1;stroke-width:0.75;stroke-linecap:butt;stroke-linejoin:round"
         id="text291-3-8-1">
        <tspan
           style="font-style:normal;font-variant:normal;font-weight:bold;font-stretch:normal;font-size:20px;font-family:'Times New Roman';-inkscape-font-specification:'Times New Roman, Bold';stroke-width:0.75;stroke-linecap:butt;stroke-linejoin:round"
           id="tspan646-8-3-8">LSTM</tspan>
      </text>
      <text
         class="node-label"
         data-notex="1"
         x="124.44828"
         y="458.30548"
         style="font-size:10.5px;font-family:'Open Sans', verdana, arial, sans-serif;text-anchor:end;white-space:pre;display:inline;opacity:1;fill:#051c2c;fill-opacity:1;stroke-width:0.75;stroke-linecap:butt;stroke-linejoin:round"
         id="text291-3-8-4-8">
        <tspan
           style="font-style:normal;font-variant:normal;font-weight:bold;font-stretch:normal;font-size:20px;font-family:'Times New Roman';-inkscape-font-specification:'Times New Roman, Bold';stroke-width:0.75;stroke-linecap:butt;stroke-linejoin:round"
           id="tspan646-8-3-3-6">Machine Learning</tspan>
      </text>
      <text
         class="node-label"
         data-notex="1"
         x="153.88837"
         y="279.09146"
         style="font-size:10.5px;font-family:'Open Sans', verdana, arial, sans-serif;text-anchor:end;white-space:pre;display:inline;opacity:1;fill:#051c2c;fill-opacity:1;stroke-width:0.75;stroke-linecap:butt;stroke-linejoin:round"
         id="text291-3-8-1-5">
        <tspan
           style="font-style:normal;font-variant:normal;font-weight:bold;font-stretch:normal;font-size:20px;font-family:'Times New Roman';-inkscape-font-specification:'Times New Roman, Bold';stroke-width:0.75;stroke-linecap:butt;stroke-linejoin:round"
           id="tspan646-8-3-8-3">Cellular automation</tspan>
      </text>
      <text
         class="node-label"
         data-notex="1"
         x="287.20795"
         y="145.77185"
         style="font-size:10.5px;font-family:'Open Sans', verdana, arial, sans-serif;text-anchor:end;white-space:pre;display:inline;opacity:1;fill:#051c2c;fill-opacity:1;stroke-width:0.75;stroke-linecap:butt;stroke-linejoin:round"
         id="text291-3-8-1-56">
        <tspan
           style="font-style:normal;font-variant:normal;font-weight:bold;font-stretch:normal;font-size:20px;font-family:'Times New Roman';-inkscape-font-specification:'Times New Roman, Bold';stroke-width:0.75;stroke-linecap:butt;stroke-linejoin:round"
           id="tspan646-8-3-8-2">MLP</tspan>
      </text>
      <text
         xml:space="preserve"
         style="font-style:normal;font-weight:normal;font-size:30px;line-height:1.25;font-family:sans-serif;letter-spacing:0px;word-spacing:0px;opacity:0.54100001;fill:#000000;fill-opacity:1;stroke:#ffff00;stroke-width:37.95000076;stroke-linecap:round;stroke-linejoin:bevel;stroke-miterlimit:4;stroke-dasharray:none;stroke-opacity:1;paint-order:stroke markers fill;filter:url(#filter3150)"
         x="351.80679"
         y="462.57996"
         id="text585"><tspan
           sodipodi:role="line"
           id="tspan583"
           style="font-style:normal;font-variant:normal;font-weight:bold;font-stretch:normal;font-family:'Times New Roman';-inkscape-font-specification:'Times New Roman,  Bold';fill:#000000;fill-opacity:1;stroke:#ffff00;stroke-width:37.95000076;stroke-linecap:round;stroke-linejoin:bevel;stroke-miterlimit:4;stroke-dasharray:none;stroke-opacity:1;paint-order:stroke markers fill"
           x="351.80679"
           y="462.57996">Earth System</tspan></text>
    </g>
  </g>
  <defs
     id="defs511">
    <clipPath
       id="pc9fd304508"
       style="stroke-linecap:butt;stroke-linejoin:round">
      <path
         d="m 837.66853,454 c 0,-52.42246 -10.32608,-104.33519 -30.38729,-152.76723 -20.06121,-48.43204 -49.4674,-92.44152 -86.53568,-129.5098 C 683.67728,134.65469 639.6678,105.2485 591.23576,85.187291 542.80371,65.126082 490.89099,54.8 438.46853,54.8 386.04606,54.8 334.13334,65.126082 285.7013,85.187291 237.26926,105.2485 193.25978,134.65469 156.1915,171.72297 119.12322,208.79125 89.717028,252.80073 69.65582,301.23277 49.594611,349.66481 39.268529,401.57754 39.268529,454 c 0,52.42246 10.326082,104.33519 30.387291,152.76723 20.061208,48.43204 49.4674,92.44152 86.53568,129.5098 37.06828,37.06828 81.07776,66.47447 129.5098,86.53568 48.43204,20.06121 100.34476,30.38729 152.76723,30.38729 52.42246,0 104.33518,-10.32608 152.76723,-30.38729 48.43204,-20.06121 92.44152,-49.4674 129.5098,-86.53568 37.06828,-37.06828 66.47447,-81.07776 86.53568,-129.5098 C 827.34245,558.33519 837.66853,506.42246 837.66853,454 m -399.2,0 c 0,0 0,0 0,0 0,0 0,0 0,0 0,0 0,0 0,0 0,0 0,0 0,0 0,0 0,0 0,0 0,0 0,0 0,0 0,0 0,0 0,0 0,0 0,0 0,0 0,0 0,0 0,0 0,0 0,0 0,0 0,0 0,0 0,0 0,0 0,0 0,0 0,0 0,0 0,0 0,0 0,0 0,0 0,0 0,0 0,0 0,0 0,0 0,0 z"
         id="path508"
         inkscape:connector-curvature="0"
         style="stroke-linecap:butt;stroke-linejoin:round" />
    </clipPath>
  </defs>
</svg>
