<?xml version="1.0" encoding="UTF-8" standalone="no"?>
<svg
   xmlns:dc="http://purl.org/dc/elements/1.1/"
   xmlns:cc="http://creativecommons.org/ns#"
   xmlns:rdf="http://www.w3.org/1999/02/22-rdf-syntax-ns#"
   xmlns:svg="http://www.w3.org/2000/svg"
   xmlns="http://www.w3.org/2000/svg"
   xmlns:xlink="http://www.w3.org/1999/xlink"
   xmlns:sodipodi="http://sodipodi.sourceforge.net/DTD/sodipodi-0.dtd"
   xmlns:inkscape="http://www.inkscape.org/namespaces/inkscape"
   width="864pt"
   height="864pt"
   viewBox="0 0 864 864"
   version="1.1"
   id="svg566"
   sodipodi:docname="biodiversity_clockwork.svg"
   inkscape:export-filename="/home/erikz/SRC/AI/Deep_mind_roundtable/Lit search/lit_review_deepmind/plots/final_new/biodiversity_clockwork.png"
   inkscape:export-xdpi="96"
   inkscape:export-ydpi="96"
   inkscape:version="0.92.5 (2060ec1f9f, 2020-04-08)">
  <sodipodi:namedview
     pagecolor="#ffffff"
     bordercolor="#666666"
     borderopacity="1"
     objecttolerance="10"
     gridtolerance="10"
     guidetolerance="10"
     inkscape:pageopacity="0"
     inkscape:pageshadow="2"
     inkscape:window-width="778"
     inkscape:window-height="480"
     id="namedview568"
     showgrid="false"
     inkscape:zoom="0.20486111"
     inkscape:cx="576"
     inkscape:cy="576"
     inkscape:window-x="72"
     inkscape:window-y="27"
     inkscape:window-maximized="0"
     inkscape:current-layer="svg566" />
  <metadata
     id="metadata2">
    <rdf:RDF>
      <cc:Work>
        <dc:type
           rdf:resource="http://purl.org/dc/dcmitype/StillImage" />
        <dc:date>2025-05-01T14:38:54.319016</dc:date>
        <dc:format>image/svg+xml</dc:format>
        <dc:creator>
          <cc:Agent>
            <dc:title>Matplotlib v3.7.5, https://matplotlib.org/</dc:title>
          </cc:Agent>
        </dc:creator>
      </cc:Work>
    </rdf:RDF>
  </metadata>
  <defs
     id="defs6">
    <style
       type="text/css"
       id="style4">*{stroke-linejoin: round; stroke-linecap: butt}</style>
  </defs>
  <g
     id="figure_1">
    <g
       id="patch_1">
      <path
         d="M 0 864  L 864 864  L 864 0  L 0 0  L 0 864  z "
         style="fill: none"
         id="path8" />
    </g>
    <g
       id="axes_1">
      <g
         id="PathCollection_1">
        <path
           d="M 442.59375 241.154362  C 458.992121 241.154362 474.721065 234.63922 486.316465 223.043821  C 497.911864 211.448421 504.427006 195.719477 504.427006 179.321106  C 504.427006 162.922735 497.911864 147.19379 486.316465 135.598391  C 474.721065 124.002991 458.992121 117.487849 442.59375 117.487849  C 426.195379 117.487849 410.466435 124.002991 398.871035 135.598391  C 387.275636 147.19379 380.760494 162.922735 380.760494 179.321106  C 380.760494 195.719477 387.275636 211.448421 398.871035 223.043821  C 410.466435 234.63922 426.195379 241.154362 442.59375 241.154362  z "
           clip-path="url(#p8655b1c5dc)"
           style="fill: #4682b4; fill-opacity: 0.85; stroke: #ffffff; stroke-opacity: 0.85; stroke-width: 1.5"
           id="path11" />
        <path
           d="M 579.933197 276.620111  C 595.977723 276.620111 611.367266 270.245554 622.712458 258.900361  C 634.057651 247.555168 640.432209 232.165625 640.432209 216.1211  C 640.432209 200.076574 634.057651 184.687031 622.712458 173.341838  C 611.367266 161.996646 595.977723 155.622088 579.933197 155.622088  C 563.888672 155.622088 548.499128 161.996646 537.153936 173.341838  C 525.808743 184.687031 519.434186 200.076574 519.434186 216.1211  C 519.434186 232.165625 525.808743 247.555168 537.153936 258.900361  C 548.499128 270.245554 563.888672 276.620111 579.933197 276.620111  z "
           clip-path="url(#p8655b1c5dc)"
           style="fill: #4682b4; fill-opacity: 0.85; stroke: #ffffff; stroke-opacity: 0.85; stroke-width: 1.5"
           id="path13" />
        <path
           d="M 680.47265 375.149026  C 695.983975 375.149026 710.862084 368.986312 721.830247 358.018149  C 732.798409 347.049986 738.961124 332.171877 738.961124 316.660553  C 738.961124 301.149228 732.798409 286.271119 721.830247 275.302957  C 710.862084 264.334794 695.983975 258.172079 680.47265 258.172079  C 664.961326 258.172079 650.083217 264.334794 639.115054 275.302957  C 628.146891 286.271119 621.984177 301.149228 621.984177 316.660553  C 621.984177 332.171877 628.146891 347.049986 639.115054 358.018149  C 650.083217 368.986312 664.961326 375.149026 680.47265 375.149026  z "
           clip-path="url(#p8655b1c5dc)"
           style="fill: #4682b4; fill-opacity: 0.85; stroke: #ffffff; stroke-opacity: 0.85; stroke-width: 1.5"
           id="path15" />
        <path
           d="M 717.272644 503.585358  C 730.422835 503.585358 743.036198 498.360732 752.334787 489.062143  C 761.633376 479.763554 766.858003 467.150191 766.858003 454  C 766.858003 440.849809 761.633376 428.236446 752.334787 418.937857  C 743.036198 409.639268 730.422835 404.414642 717.272644 404.414642  C 704.122453 404.414642 691.50909 409.639268 682.210501 418.937857  C 672.911912 428.236446 667.687286 440.849809 667.687286 454  C 667.687286 467.150191 672.911912 479.763554 682.210501 489.062143  C 691.50909 498.360732 704.122453 503.585358 717.272644 503.585358  z "
           clip-path="url(#p8655b1c5dc)"
           style="fill: #4682b4; fill-opacity: 0.85; stroke: #ffffff; stroke-opacity: 0.85; stroke-width: 1.5"
           id="path17" />
        <path
           d="M 680.47265 638.630421  C 693.014363 638.630421 705.044089 633.647546 713.912419 624.779216  C 722.780749 615.910885 727.763625 603.88116 727.763625 591.339447  C 727.763625 578.797734 722.780749 566.768009 713.912419 557.899678  C 705.044089 549.031348 693.014363 544.048473 680.47265 544.048473  C 667.930937 544.048473 655.901212 549.031348 647.032882 557.899678  C 638.164551 566.768009 633.181676 578.797734 633.181676 591.339447  C 633.181676 603.88116 638.164551 615.910885 647.032882 624.779216  C 655.901212 633.647546 667.930937 638.630421 680.47265 638.630421  z "
           clip-path="url(#p8655b1c5dc)"
           style="fill: #4682b4; fill-opacity: 0.85; stroke: #ffffff; stroke-opacity: 0.85; stroke-width: 1.5"
           id="path19" />
        <path
           d="M 579.933197 736.403737  C 591.741322 736.403737 603.067406 731.71232 611.417011 723.362714  C 619.766616 715.013109 624.458034 703.687025 624.458034 691.8789  C 624.458034 680.070775 619.766616 668.744691 611.417011 660.395086  C 603.067406 652.045481 591.741322 647.354063 579.933197 647.354063  C 568.125072 647.354063 556.798988 652.045481 548.449383 660.395086  C 540.099778 668.744691 535.40836 680.070775 535.40836 691.8789  C 535.40836 703.687025 540.099778 715.013109 548.449383 723.362714  C 556.798988 731.71232 568.125072 736.403737 579.933197 736.403737  z "
           clip-path="url(#p8655b1c5dc)"
           style="fill: #4682b4; fill-opacity: 0.85; stroke: #ffffff; stroke-opacity: 0.85; stroke-width: 1.5"
           id="path21" />
        <path
           d="M 442.59375 767.597953  C 452.915205 767.597953 462.81531 763.497195 470.11368 756.198825  C 477.412051 748.900454 481.512809 739.000349 481.512809 728.678894  C 481.512809 718.357439 477.412051 708.457335 470.11368 701.158964  C 462.81531 693.860593 452.915205 689.759835 442.59375 689.759835  C 432.272295 689.759835 422.37219 693.860593 415.07382 701.158964  C 407.775449 708.457335 403.674691 718.357439 403.674691 728.678894  C 403.674691 739.000349 407.775449 748.900454 415.07382 756.198825  C 422.37219 763.497195 432.272295 767.597953 442.59375 767.597953  z "
           clip-path="url(#p8655b1c5dc)"
           style="fill: #4682b4; fill-opacity: 0.85; stroke: #ffffff; stroke-opacity: 0.85; stroke-width: 1.5"
           id="path23" />
        <path
           d="M 305.254303 730.797959  C 315.575758 730.797959 325.475862 726.697201 332.774233 719.398831  C 340.072604 712.10046 344.173362 702.200355 344.173362 691.8789  C 344.173362 681.557445 340.072604 671.657341 332.774233 664.35897  C 325.475862 657.060599 315.575758 652.959841 305.254303 652.959841  C 294.932848 652.959841 285.032743 657.060599 277.734373 664.35897  C 270.436002 671.657341 266.335244 681.557445 266.335244 691.8789  C 266.335244 702.200355 270.436002 712.10046 277.734373 719.398831  C 285.032743 726.697201 294.932848 730.797959 305.254303 730.797959  z "
           clip-path="url(#p8655b1c5dc)"
           style="fill: #4682b4; fill-opacity: 0.85; stroke: #ffffff; stroke-opacity: 0.85; stroke-width: 1.5"
           id="path25" />
        <path
           d="M 204.71485 615.360563  C 211.085324 615.360563 217.195738 612.829547 221.700344 608.324941  C 226.20495 603.820336 228.735966 597.709922 228.735966 591.339447  C 228.735966 584.968973 226.20495 578.858559 221.700344 574.353953  C 217.195738 569.849347 211.085324 567.318331 204.71485 567.318331  C 198.344375 567.318331 192.233961 569.849347 187.729356 574.353953  C 183.22475 578.858559 180.693734 584.968973 180.693734 591.339447  C 180.693734 597.709922 183.22475 603.820336 187.729356 608.324941  C 192.233961 612.829547 198.344375 615.360563 204.71485 615.360563  z "
           clip-path="url(#p8655b1c5dc)"
           style="fill: #4682b4; fill-opacity: 0.85; stroke: #ffffff; stroke-opacity: 0.85; stroke-width: 1.5"
           id="path27" />
        <path
           d="M 167.914856 478.021116  C 174.28533 478.021116 180.395744 475.4901 184.90035 470.985494  C 189.404956 466.480888 191.935972 460.370474 191.935972 454  C 191.935972 447.629526 189.404956 441.519112 184.90035 437.014506  C 180.395744 432.5099 174.28533 429.978884 167.914856 429.978884  C 161.544381 429.978884 155.433967 432.5099 150.929362 437.014506  C 146.424756 441.519112 143.89374 447.629526 143.89374 454  C 143.89374 460.370474 146.424756 466.480888 150.929362 470.985494  C 155.433967 475.4901 161.544381 478.021116 167.914856 478.021116  z "
           clip-path="url(#p8655b1c5dc)"
           style="fill: #4682b4; fill-opacity: 0.85; stroke: #ffffff; stroke-opacity: 0.85; stroke-width: 1.5"
           id="path29" />
        <path
           d="M 204.71485 340.681669  C 211.085324 340.681669 217.195738 338.150653 221.700344 333.646047  C 226.20495 329.141441 228.735966 323.031027 228.735966 316.660553  C 228.735966 310.290078 226.20495 304.179664 221.700344 299.675059  C 217.195738 295.170453 211.085324 292.639437 204.71485 292.639437  C 198.344375 292.639437 192.233961 295.170453 187.729356 299.675059  C 183.22475 304.179664 180.693734 310.290078 180.693734 316.660553  C 180.693734 323.031027 183.22475 329.141441 187.729356 333.646047  C 192.233961 338.150653 198.344375 340.681669 204.71485 340.681669  z "
           clip-path="url(#p8655b1c5dc)"
           style="fill: #4682b4; fill-opacity: 0.85; stroke: #ffffff; stroke-opacity: 0.85; stroke-width: 1.5"
           id="path31" />
        <path
           d="M 305.254303 231.135627  C 309.236202 231.135627 313.055549 229.553602 315.871177 226.737974  C 318.686805 223.922346 320.26883 220.102999 320.26883 216.1211  C 320.26883 212.139201 318.686805 208.319854 315.871177 205.504226  C 313.055549 202.688598 309.236202 201.106572 305.254303 201.106572  C 301.272404 201.106572 297.453057 202.688598 294.637429 205.504226  C 291.821801 208.319854 290.239776 212.139201 290.239776 216.1211  C 290.239776 220.102999 291.821801 223.922346 294.637429 226.737974  C 297.453057 229.553602 301.272404 231.135627 305.254303 231.135627  z "
           clip-path="url(#p8655b1c5dc)"
           style="fill: #4682b4; fill-opacity: 0.85; stroke: #ffffff; stroke-opacity: 0.85; stroke-width: 1.5"
           id="path33" />
      </g>
      <g
         id="PathCollection_2">
        <defs
           id="defs37">
          <path
             id="m287ac22d7b"
             d="M 0 93.541409  C 24.807472 93.541409 48.602233 83.685296 66.143765 66.143765  C 83.685296 48.602233 93.541409 24.807472 93.541409 0  C 93.541409 -24.807472 83.685296 -48.602233 66.143765 -66.143765  C 48.602233 -83.685296 24.807472 -93.541409 0 -93.541409  C -24.807472 -93.541409 -48.602233 -83.685296 -66.143765 -66.143765  C -83.685296 -48.602233 -93.541409 -24.807472 -93.541409 0  C -93.541409 24.807472 -83.685296 48.602233 -66.143765 66.143765  C -48.602233 83.685296 -24.807472 93.541409 0 93.541409  z "
             style="stroke: #ffffff; stroke-opacity: 0.92; stroke-width: 2" />
        </defs>
        <g
           clip-path="url(#p8655b1c5dc)"
           id="g41">
          <use
             xlink:href="#m287ac22d7b"
             x="442.59375"
             y="454"
             style="fill: #2a5f7f; fill-opacity: 0.92; stroke: #ffffff; stroke-opacity: 0.92; stroke-width: 2"
             id="use39" />
        </g>
      </g>
      <g
         id="text_1">
        <g
           id="patch_2">
          <path
             d="M 383.730568 100.66205  L 501.456932 100.66205  L 501.456932 82.185671  L 383.730568 82.185671  z "
             style="fill: #ffffff; opacity: 0.78"
             id="path44" />
        </g>
        <!-- neural network -->
        <g
           style="fill: #333333"
           transform="translate(385.686835 95.576225) scale(0.150482 -0.150482)"
           id="g88">
          <defs
             id="defs58">
            <path
               id="DejaVuSans-6e"
               d="M 3513 2113  L 3513 0  L 2938 0  L 2938 2094  Q 2938 2591 2744 2837  Q 2550 3084 2163 3084  Q 1697 3084 1428 2787  Q 1159 2491 1159 1978  L 1159 0  L 581 0  L 581 3500  L 1159 3500  L 1159 2956  Q 1366 3272 1645 3428  Q 1925 3584 2291 3584  Q 2894 3584 3203 3211  Q 3513 2838 3513 2113  z "
               transform="scale(0.015625)" />
            <path
               id="DejaVuSans-65"
               d="M 3597 1894  L 3597 1613  L 953 1613  Q 991 1019 1311 708  Q 1631 397 2203 397  Q 2534 397 2845 478  Q 3156 559 3463 722  L 3463 178  Q 3153 47 2828 -22  Q 2503 -91 2169 -91  Q 1331 -91 842 396  Q 353 884 353 1716  Q 353 2575 817 3079  Q 1281 3584 2069 3584  Q 2775 3584 3186 3129  Q 3597 2675 3597 1894  z M 3022 2063  Q 3016 2534 2758 2815  Q 2500 3097 2075 3097  Q 1594 3097 1305 2825  Q 1016 2553 972 2059  L 3022 2063  z "
               transform="scale(0.015625)" />
            <path
               id="DejaVuSans-75"
               d="M 544 1381  L 544 3500  L 1119 3500  L 1119 1403  Q 1119 906 1312 657  Q 1506 409 1894 409  Q 2359 409 2629 706  Q 2900 1003 2900 1516  L 2900 3500  L 3475 3500  L 3475 0  L 2900 0  L 2900 538  Q 2691 219 2414 64  Q 2138 -91 1772 -91  Q 1169 -91 856 284  Q 544 659 544 1381  z M 1991 3584  L 1991 3584  z "
               transform="scale(0.015625)" />
            <path
               id="DejaVuSans-72"
               d="M 2631 2963  Q 2534 3019 2420 3045  Q 2306 3072 2169 3072  Q 1681 3072 1420 2755  Q 1159 2438 1159 1844  L 1159 0  L 581 0  L 581 3500  L 1159 3500  L 1159 2956  Q 1341 3275 1631 3429  Q 1922 3584 2338 3584  Q 2397 3584 2469 3576  Q 2541 3569 2628 3553  L 2631 2963  z "
               transform="scale(0.015625)" />
            <path
               id="DejaVuSans-61"
               d="M 2194 1759  Q 1497 1759 1228 1600  Q 959 1441 959 1056  Q 959 750 1161 570  Q 1363 391 1709 391  Q 2188 391 2477 730  Q 2766 1069 2766 1631  L 2766 1759  L 2194 1759  z M 3341 1997  L 3341 0  L 2766 0  L 2766 531  Q 2569 213 2275 61  Q 1981 -91 1556 -91  Q 1019 -91 701 211  Q 384 513 384 1019  Q 384 1609 779 1909  Q 1175 2209 1959 2209  L 2766 2209  L 2766 2266  Q 2766 2663 2505 2880  Q 2244 3097 1772 3097  Q 1472 3097 1187 3025  Q 903 2953 641 2809  L 641 3341  Q 956 3463 1253 3523  Q 1550 3584 1831 3584  Q 2591 3584 2966 3190  Q 3341 2797 3341 1997  z "
               transform="scale(0.015625)" />
            <path
               id="DejaVuSans-6c"
               d="M 603 4863  L 1178 4863  L 1178 0  L 603 0  L 603 4863  z "
               transform="scale(0.015625)" />
            <path
               id="DejaVuSans-20"
               transform="scale(0.015625)" />
            <path
               id="DejaVuSans-74"
               d="M 1172 4494  L 1172 3500  L 2356 3500  L 2356 3053  L 1172 3053  L 1172 1153  Q 1172 725 1289 603  Q 1406 481 1766 481  L 2356 481  L 2356 0  L 1766 0  Q 1100 0 847 248  Q 594 497 594 1153  L 594 3053  L 172 3053  L 172 3500  L 594 3500  L 594 4494  L 1172 4494  z "
               transform="scale(0.015625)" />
            <path
               id="DejaVuSans-77"
               d="M 269 3500  L 844 3500  L 1563 769  L 2278 3500  L 2956 3500  L 3675 769  L 4391 3500  L 4966 3500  L 4050 0  L 3372 0  L 2619 2869  L 1863 0  L 1184 0  L 269 3500  z "
               transform="scale(0.015625)" />
            <path
               id="DejaVuSans-6f"
               d="M 1959 3097  Q 1497 3097 1228 2736  Q 959 2375 959 1747  Q 959 1119 1226 758  Q 1494 397 1959 397  Q 2419 397 2687 759  Q 2956 1122 2956 1747  Q 2956 2369 2687 2733  Q 2419 3097 1959 3097  z M 1959 3584  Q 2709 3584 3137 3096  Q 3566 2609 3566 1747  Q 3566 888 3137 398  Q 2709 -91 1959 -91  Q 1206 -91 779 398  Q 353 888 353 1747  Q 353 2609 779 3096  Q 1206 3584 1959 3584  z "
               transform="scale(0.015625)" />
            <path
               id="DejaVuSans-6b"
               d="M 581 4863  L 1159 4863  L 1159 1991  L 2875 3500  L 3609 3500  L 1753 1863  L 3688 0  L 2938 0  L 1159 1709  L 1159 0  L 581 0  L 581 4863  z "
               transform="scale(0.015625)" />
          </defs>
          <use
             xlink:href="#DejaVuSans-6e"
             id="use60" />
          <use
             xlink:href="#DejaVuSans-65"
             x="63.378906"
             id="use62" />
          <use
             xlink:href="#DejaVuSans-75"
             x="124.902344"
             id="use64" />
          <use
             xlink:href="#DejaVuSans-72"
             x="188.28125"
             id="use66" />
          <use
             xlink:href="#DejaVuSans-61"
             x="229.394531"
             id="use68" />
          <use
             xlink:href="#DejaVuSans-6c"
             x="290.673828"
             id="use70" />
          <use
             xlink:href="#DejaVuSans-20"
             x="318.457031"
             id="use72" />
          <use
             xlink:href="#DejaVuSans-6e"
             x="350.244141"
             id="use74" />
          <use
             xlink:href="#DejaVuSans-65"
             x="413.623047"
             id="use76" />
          <use
             xlink:href="#DejaVuSans-74"
             x="475.146484"
             id="use78" />
          <use
             xlink:href="#DejaVuSans-77"
             x="514.355469"
             id="use80" />
          <use
             xlink:href="#DejaVuSans-6f"
             x="596.142578"
             id="use82" />
          <use
             xlink:href="#DejaVuSans-72"
             x="657.324219"
             id="use84" />
          <use
             xlink:href="#DejaVuSans-6b"
             x="698.4375"
             id="use86" />
        </g>
      </g>
      <g
         id="text_2">
        <g
           id="patch_3">
          <path
             d="M 605.543001 149.173348  L 642.220638 149.173348  L 642.220638 130.826357  L 605.543001 130.826357  z "
             style="fill: #ffffff; opacity: 0.78"
             id="path91" />
        </g>
        <!-- CNN -->
        <g
           style="fill: #333333"
           transform="translate(607.485569 144.123139) scale(0.149428 -0.149428)"
           id="g104">
          <defs
             id="defs96">
            <path
               id="DejaVuSans-43"
               d="M 4122 4306  L 4122 3641  Q 3803 3938 3442 4084  Q 3081 4231 2675 4231  Q 1875 4231 1450 3742  Q 1025 3253 1025 2328  Q 1025 1406 1450 917  Q 1875 428 2675 428  Q 3081 428 3442 575  Q 3803 722 4122 1019  L 4122 359  Q 3791 134 3420 21  Q 3050 -91 2638 -91  Q 1578 -91 968 557  Q 359 1206 359 2328  Q 359 3453 968 4101  Q 1578 4750 2638 4750  Q 3056 4750 3426 4639  Q 3797 4528 4122 4306  z "
               transform="scale(0.015625)" />
            <path
               id="DejaVuSans-4e"
               d="M 628 4666  L 1478 4666  L 3547 763  L 3547 4666  L 4159 4666  L 4159 0  L 3309 0  L 1241 3903  L 1241 0  L 628 0  L 628 4666  z "
               transform="scale(0.015625)" />
          </defs>
          <use
             xlink:href="#DejaVuSans-43"
             id="use98" />
          <use
             xlink:href="#DejaVuSans-4e"
             x="69.824219"
             id="use100" />
          <use
             xlink:href="#DejaVuSans-4e"
             x="144.628906"
             id="use102" />
        </g>
      </g>
      <g
         id="text_3">
        <g
           id="patch_4">
          <path
             d="M 702.219946 281.934196  L 810.967849 281.934196  L 810.967849 263.489665  L 702.219946 263.489665  z "
             style="fill: #ffffff; opacity: 0.78"
             id="path107" />
        </g>
        <!-- random forest -->
        <g
           style="fill: #333333"
           transform="translate(704.289355 276.790698) scale(0.147815 -0.147815)"
           id="g142">
          <defs
             id="defs114">
            <path
               id="DejaVuSans-64"
               d="M 2906 2969  L 2906 4863  L 3481 4863  L 3481 0  L 2906 0  L 2906 525  Q 2725 213 2448 61  Q 2172 -91 1784 -91  Q 1150 -91 751 415  Q 353 922 353 1747  Q 353 2572 751 3078  Q 1150 3584 1784 3584  Q 2172 3584 2448 3432  Q 2725 3281 2906 2969  z M 947 1747  Q 947 1113 1208 752  Q 1469 391 1925 391  Q 2381 391 2643 752  Q 2906 1113 2906 1747  Q 2906 2381 2643 2742  Q 2381 3103 1925 3103  Q 1469 3103 1208 2742  Q 947 2381 947 1747  z "
               transform="scale(0.015625)" />
            <path
               id="DejaVuSans-6d"
               d="M 3328 2828  Q 3544 3216 3844 3400  Q 4144 3584 4550 3584  Q 5097 3584 5394 3201  Q 5691 2819 5691 2113  L 5691 0  L 5113 0  L 5113 2094  Q 5113 2597 4934 2840  Q 4756 3084 4391 3084  Q 3944 3084 3684 2787  Q 3425 2491 3425 1978  L 3425 0  L 2847 0  L 2847 2094  Q 2847 2600 2669 2842  Q 2491 3084 2119 3084  Q 1678 3084 1418 2786  Q 1159 2488 1159 1978  L 1159 0  L 581 0  L 581 3500  L 1159 3500  L 1159 2956  Q 1356 3278 1631 3431  Q 1906 3584 2284 3584  Q 2666 3584 2933 3390  Q 3200 3197 3328 2828  z "
               transform="scale(0.015625)" />
            <path
               id="DejaVuSans-66"
               d="M 2375 4863  L 2375 4384  L 1825 4384  Q 1516 4384 1395 4259  Q 1275 4134 1275 3809  L 1275 3500  L 2222 3500  L 2222 3053  L 1275 3053  L 1275 0  L 697 0  L 697 3053  L 147 3053  L 147 3500  L 697 3500  L 697 3744  Q 697 4328 969 4595  Q 1241 4863 1831 4863  L 2375 4863  z "
               transform="scale(0.015625)" />
            <path
               id="DejaVuSans-73"
               d="M 2834 3397  L 2834 2853  Q 2591 2978 2328 3040  Q 2066 3103 1784 3103  Q 1356 3103 1142 2972  Q 928 2841 928 2578  Q 928 2378 1081 2264  Q 1234 2150 1697 2047  L 1894 2003  Q 2506 1872 2764 1633  Q 3022 1394 3022 966  Q 3022 478 2636 193  Q 2250 -91 1575 -91  Q 1294 -91 989 -36  Q 684 19 347 128  L 347 722  Q 666 556 975 473  Q 1284 391 1588 391  Q 1994 391 2212 530  Q 2431 669 2431 922  Q 2431 1156 2273 1281  Q 2116 1406 1581 1522  L 1381 1569  Q 847 1681 609 1914  Q 372 2147 372 2553  Q 372 3047 722 3315  Q 1072 3584 1716 3584  Q 2034 3584 2315 3537  Q 2597 3491 2834 3397  z "
               transform="scale(0.015625)" />
          </defs>
          <use
             xlink:href="#DejaVuSans-72"
             id="use116" />
          <use
             xlink:href="#DejaVuSans-61"
             x="41.113281"
             id="use118" />
          <use
             xlink:href="#DejaVuSans-6e"
             x="102.392578"
             id="use120" />
          <use
             xlink:href="#DejaVuSans-64"
             x="165.771484"
             id="use122" />
          <use
             xlink:href="#DejaVuSans-6f"
             x="229.248047"
             id="use124" />
          <use
             xlink:href="#DejaVuSans-6d"
             x="290.429688"
             id="use126" />
          <use
             xlink:href="#DejaVuSans-20"
             x="387.841797"
             id="use128" />
          <use
             xlink:href="#DejaVuSans-66"
             x="419.628906"
             id="use130" />
          <use
             xlink:href="#DejaVuSans-6f"
             x="454.833984"
             id="use132" />
          <use
             xlink:href="#DejaVuSans-72"
             x="516.015625"
             id="use134" />
          <use
             xlink:href="#DejaVuSans-65"
             x="554.878906"
             id="use136" />
          <use
             xlink:href="#DejaVuSans-73"
             x="616.402344"
             id="use138" />
          <use
             xlink:href="#DejaVuSans-74"
             x="668.501953"
             id="use140" />
        </g>
      </g>
      <g
         id="text_4">
        <g
           id="patch_5">
          <path
             d="M 757.812217 462.757024  L 852.527562 462.757024  L 852.527562 445.242976  L 757.812217 445.242976  z "
             style="fill: #ffffff; opacity: 0.78"
             id="path145" />
        </g>
        <!-- classification -->
        <g
           style="fill: #333333"
           transform="translate(759.777229 457.873004) scale(0.140358 -0.140358)"
           id="g180">
          <defs
             id="defs150">
            <path
               id="DejaVuSans-63"
               d="M 3122 3366  L 3122 2828  Q 2878 2963 2633 3030  Q 2388 3097 2138 3097  Q 1578 3097 1268 2742  Q 959 2388 959 1747  Q 959 1106 1268 751  Q 1578 397 2138 397  Q 2388 397 2633 464  Q 2878 531 3122 666  L 3122 134  Q 2881 22 2623 -34  Q 2366 -91 2075 -91  Q 1284 -91 818 406  Q 353 903 353 1747  Q 353 2603 823 3093  Q 1294 3584 2113 3584  Q 2378 3584 2631 3529  Q 2884 3475 3122 3366  z "
               transform="scale(0.015625)" />
            <path
               id="DejaVuSans-69"
               d="M 603 3500  L 1178 3500  L 1178 0  L 603 0  L 603 3500  z M 603 4863  L 1178 4863  L 1178 4134  L 603 4134  L 603 4863  z "
               transform="scale(0.015625)" />
          </defs>
          <use
             xlink:href="#DejaVuSans-63"
             id="use152" />
          <use
             xlink:href="#DejaVuSans-6c"
             x="54.980469"
             id="use154" />
          <use
             xlink:href="#DejaVuSans-61"
             x="82.763672"
             id="use156" />
          <use
             xlink:href="#DejaVuSans-73"
             x="144.042969"
             id="use158" />
          <use
             xlink:href="#DejaVuSans-73"
             x="196.142578"
             id="use160" />
          <use
             xlink:href="#DejaVuSans-69"
             x="248.242188"
             id="use162" />
          <use
             xlink:href="#DejaVuSans-66"
             x="276.025391"
             id="use164" />
          <use
             xlink:href="#DejaVuSans-69"
             x="311.230469"
             id="use166" />
          <use
             xlink:href="#DejaVuSans-63"
             x="339.013672"
             id="use168" />
          <use
             xlink:href="#DejaVuSans-61"
             x="393.994141"
             id="use170" />
          <use
             xlink:href="#DejaVuSans-74"
             x="455.273438"
             id="use172" />
          <use
             xlink:href="#DejaVuSans-69"
             x="494.482422"
             id="use174" />
          <use
             xlink:href="#DejaVuSans-6f"
             x="522.265625"
             id="use176" />
          <use
             xlink:href="#DejaVuSans-6e"
             x="583.447266"
             id="use178" />
        </g>
      </g>
      <g
         id="text_5">
        <g
           id="patch_6">
          <path
             d="M 672.022542 643.920756  L 841.165253 643.920756  L 841.165253 626.655383  L 672.022542 626.655383  z "
             style="fill: #ffffff; opacity: 0.78"
             id="path183" />
        </g>
        <!-- support vector machine -->
        <g
           style="fill: #333333"
           transform="translate(673.959654 639.106082) scale(0.138365 -0.138365)"
           id="g235">
          <defs
             id="defs189">
            <path
               id="DejaVuSans-70"
               d="M 1159 525  L 1159 -1331  L 581 -1331  L 581 3500  L 1159 3500  L 1159 2969  Q 1341 3281 1617 3432  Q 1894 3584 2278 3584  Q 2916 3584 3314 3078  Q 3713 2572 3713 1747  Q 3713 922 3314 415  Q 2916 -91 2278 -91  Q 1894 -91 1617 61  Q 1341 213 1159 525  z M 3116 1747  Q 3116 2381 2855 2742  Q 2594 3103 2138 3103  Q 1681 3103 1420 2742  Q 1159 2381 1159 1747  Q 1159 1113 1420 752  Q 1681 391 2138 391  Q 2594 391 2855 752  Q 3116 1113 3116 1747  z "
               transform="scale(0.015625)" />
            <path
               id="DejaVuSans-76"
               d="M 191 3500  L 800 3500  L 1894 563  L 2988 3500  L 3597 3500  L 2284 0  L 1503 0  L 191 3500  z "
               transform="scale(0.015625)" />
            <path
               id="DejaVuSans-68"
               d="M 3513 2113  L 3513 0  L 2938 0  L 2938 2094  Q 2938 2591 2744 2837  Q 2550 3084 2163 3084  Q 1697 3084 1428 2787  Q 1159 2491 1159 1978  L 1159 0  L 581 0  L 581 4863  L 1159 4863  L 1159 2956  Q 1366 3272 1645 3428  Q 1925 3584 2291 3584  Q 2894 3584 3203 3211  Q 3513 2838 3513 2113  z "
               transform="scale(0.015625)" />
          </defs>
          <use
             xlink:href="#DejaVuSans-73"
             id="use191" />
          <use
             xlink:href="#DejaVuSans-75"
             x="52.099609"
             id="use193" />
          <use
             xlink:href="#DejaVuSans-70"
             x="115.478516"
             id="use195" />
          <use
             xlink:href="#DejaVuSans-70"
             x="178.955078"
             id="use197" />
          <use
             xlink:href="#DejaVuSans-6f"
             x="242.431641"
             id="use199" />
          <use
             xlink:href="#DejaVuSans-72"
             x="303.613281"
             id="use201" />
          <use
             xlink:href="#DejaVuSans-74"
             x="344.726562"
             id="use203" />
          <use
             xlink:href="#DejaVuSans-20"
             x="383.935547"
             id="use205" />
          <use
             xlink:href="#DejaVuSans-76"
             x="415.722656"
             id="use207" />
          <use
             xlink:href="#DejaVuSans-65"
             x="474.902344"
             id="use209" />
          <use
             xlink:href="#DejaVuSans-63"
             x="536.425781"
             id="use211" />
          <use
             xlink:href="#DejaVuSans-74"
             x="591.40625"
             id="use213" />
          <use
             xlink:href="#DejaVuSans-6f"
             x="630.615234"
             id="use215" />
          <use
             xlink:href="#DejaVuSans-72"
             x="691.796875"
             id="use217" />
          <use
             xlink:href="#DejaVuSans-20"
             x="732.910156"
             id="use219" />
          <use
             xlink:href="#DejaVuSans-6d"
             x="764.697266"
             id="use221" />
          <use
             xlink:href="#DejaVuSans-61"
             x="862.109375"
             id="use223" />
          <use
             xlink:href="#DejaVuSans-63"
             x="923.388672"
             id="use225" />
          <use
             xlink:href="#DejaVuSans-68"
             x="978.369141"
             id="use227" />
          <use
             xlink:href="#DejaVuSans-69"
             x="1041.748047"
             id="use229" />
          <use
             xlink:href="#DejaVuSans-6e"
             x="1069.53125"
             id="use231" />
          <use
             xlink:href="#DejaVuSans-65"
             x="1132.910156"
             id="use233" />
        </g>
      </g>
      <g
         id="text_6">
        <g
           id="patch_7">
          <path
             d="M 581.55003 776.616663  L 666.21361 776.616663  L 666.21361 759.383632  L 581.55003 759.383632  z "
             style="fill: #ffffff; opacity: 0.78"
             id="path238" />
        </g>
        <!-- transformer -->
        <g
           style="fill: #333333"
           transform="translate(583.588939 771.750891) scale(0.135927 -0.135927)"
           id="g263">
          <use
             xlink:href="#DejaVuSans-74"
             id="use241" />
          <use
             xlink:href="#DejaVuSans-72"
             x="39.208984"
             id="use243" />
          <use
             xlink:href="#DejaVuSans-61"
             x="80.322266"
             id="use245" />
          <use
             xlink:href="#DejaVuSans-6e"
             x="141.601562"
             id="use247" />
          <use
             xlink:href="#DejaVuSans-73"
             x="204.980469"
             id="use249" />
          <use
             xlink:href="#DejaVuSans-66"
             x="257.080078"
             id="use251" />
          <use
             xlink:href="#DejaVuSans-6f"
             x="292.285156"
             id="use253" />
          <use
             xlink:href="#DejaVuSans-72"
             x="353.466797"
             id="use255" />
          <use
             xlink:href="#DejaVuSans-6d"
             x="392.830078"
             id="use257" />
          <use
             xlink:href="#DejaVuSans-65"
             x="490.242188"
             id="use259" />
          <use
             xlink:href="#DejaVuSans-72"
             x="551.765625"
             id="use261" />
        </g>
      </g>
      <g
         id="text_7">
        <g
           id="patch_8">
          <path
             d="M 376.151164 824.871878  L 509.036336 824.871878  L 509.036336 808.280401  L 376.151164 808.280401  z "
             style="fill: #ffffff; opacity: 0.78"
             id="path266" />
        </g>
        <!-- supervised learning -->
        <g
           style="fill: #333333"
           transform="translate(378.114168 820.18725) scale(0.130867 -0.130867)"
           id="g310">
          <defs
             id="defs270">
            <path
               id="DejaVuSans-67"
               d="M 2906 1791  Q 2906 2416 2648 2759  Q 2391 3103 1925 3103  Q 1463 3103 1205 2759  Q 947 2416 947 1791  Q 947 1169 1205 825  Q 1463 481 1925 481  Q 2391 481 2648 825  Q 2906 1169 2906 1791  z M 3481 434  Q 3481 -459 3084 -895  Q 2688 -1331 1869 -1331  Q 1566 -1331 1297 -1286  Q 1028 -1241 775 -1147  L 775 -588  Q 1028 -725 1275 -790  Q 1522 -856 1778 -856  Q 2344 -856 2625 -561  Q 2906 -266 2906 331  L 2906 616  Q 2728 306 2450 153  Q 2172 0 1784 0  Q 1141 0 747 490  Q 353 981 353 1791  Q 353 2603 747 3093  Q 1141 3584 1784 3584  Q 2172 3584 2450 3431  Q 2728 3278 2906 2969  L 2906 3500  L 3481 3500  L 3481 434  z "
               transform="scale(0.015625)" />
          </defs>
          <use
             xlink:href="#DejaVuSans-73"
             id="use272" />
          <use
             xlink:href="#DejaVuSans-75"
             x="52.099609"
             id="use274" />
          <use
             xlink:href="#DejaVuSans-70"
             x="115.478516"
             id="use276" />
          <use
             xlink:href="#DejaVuSans-65"
             x="178.955078"
             id="use278" />
          <use
             xlink:href="#DejaVuSans-72"
             x="240.478516"
             id="use280" />
          <use
             xlink:href="#DejaVuSans-76"
             x="281.591797"
             id="use282" />
          <use
             xlink:href="#DejaVuSans-69"
             x="340.771484"
             id="use284" />
          <use
             xlink:href="#DejaVuSans-73"
             x="368.554688"
             id="use286" />
          <use
             xlink:href="#DejaVuSans-65"
             x="420.654297"
             id="use288" />
          <use
             xlink:href="#DejaVuSans-64"
             x="482.177734"
             id="use290" />
          <use
             xlink:href="#DejaVuSans-20"
             x="545.654297"
             id="use292" />
          <use
             xlink:href="#DejaVuSans-6c"
             x="577.441406"
             id="use294" />
          <use
             xlink:href="#DejaVuSans-65"
             x="605.224609"
             id="use296" />
          <use
             xlink:href="#DejaVuSans-61"
             x="666.748047"
             id="use298" />
          <use
             xlink:href="#DejaVuSans-72"
             x="728.027344"
             id="use300" />
          <use
             xlink:href="#DejaVuSans-6e"
             x="767.390625"
             id="use302" />
          <use
             xlink:href="#DejaVuSans-69"
             x="830.769531"
             id="use304" />
          <use
             xlink:href="#DejaVuSans-6e"
             x="858.552734"
             id="use306" />
          <use
             xlink:href="#DejaVuSans-67"
             x="921.931641"
             id="use308" />
        </g>
      </g>
      <g
         id="text_8">
        <g
           id="patch_9">
          <path
             d="M 202.449288 776.295886  L 320.162073 776.295886  L 320.162073 759.704409  L 202.449288 759.704409  z "
             style="fill: #ffffff; opacity: 0.78"
             id="path313" />
        </g>
        <!-- machine learning -->
        <g
           style="fill: #333333"
           transform="translate(204.412292 771.611258) scale(0.130867 -0.130867)"
           id="g348">
          <use
             xlink:href="#DejaVuSans-6d"
             id="use316" />
          <use
             xlink:href="#DejaVuSans-61"
             x="97.412109"
             id="use318" />
          <use
             xlink:href="#DejaVuSans-63"
             x="158.691406"
             id="use320" />
          <use
             xlink:href="#DejaVuSans-68"
             x="213.671875"
             id="use322" />
          <use
             xlink:href="#DejaVuSans-69"
             x="277.050781"
             id="use324" />
          <use
             xlink:href="#DejaVuSans-6e"
             x="304.833984"
             id="use326" />
          <use
             xlink:href="#DejaVuSans-65"
             x="368.212891"
             id="use328" />
          <use
             xlink:href="#DejaVuSans-20"
             x="429.736328"
             id="use330" />
          <use
             xlink:href="#DejaVuSans-6c"
             x="461.523438"
             id="use332" />
          <use
             xlink:href="#DejaVuSans-65"
             x="489.306641"
             id="use334" />
          <use
             xlink:href="#DejaVuSans-61"
             x="550.830078"
             id="use336" />
          <use
             xlink:href="#DejaVuSans-72"
             x="612.109375"
             id="use338" />
          <use
             xlink:href="#DejaVuSans-6e"
             x="651.472656"
             id="use340" />
          <use
             xlink:href="#DejaVuSans-69"
             x="714.851562"
             id="use342" />
          <use
             xlink:href="#DejaVuSans-6e"
             x="742.634766"
             id="use344" />
          <use
             xlink:href="#DejaVuSans-67"
             x="806.013672"
             id="use346" />
        </g>
      </g>
      <g
         id="text_9">
        <g
           id="patch_10">
          <path
             d="M 96.362187 642.885922  L 160.825017 642.885922  L 160.825017 627.690217  L 96.362187 627.690217  z "
             style="fill: #ffffff; opacity: 0.78"
             id="path351" />
        </g>
        <!-- regression -->
        <g
           style="fill: #333333"
           transform="translate(98.337448 638.494236) scale(0.116192 -0.116192)"
           id="g374">
          <use
             xlink:href="#DejaVuSans-72"
             id="use354" />
          <use
             xlink:href="#DejaVuSans-65"
             x="38.863281"
             id="use356" />
          <use
             xlink:href="#DejaVuSans-67"
             x="100.386719"
             id="use358" />
          <use
             xlink:href="#DejaVuSans-72"
             x="163.863281"
             id="use360" />
          <use
             xlink:href="#DejaVuSans-65"
             x="202.726562"
             id="use362" />
          <use
             xlink:href="#DejaVuSans-73"
             x="264.25"
             id="use364" />
          <use
             xlink:href="#DejaVuSans-73"
             x="316.349609"
             id="use366" />
          <use
             xlink:href="#DejaVuSans-69"
             x="368.449219"
             id="use368" />
          <use
             xlink:href="#DejaVuSans-6f"
             x="396.232422"
             id="use370" />
          <use
             xlink:href="#DejaVuSans-6e"
             x="457.414062"
             id="use372" />
        </g>
      </g>
      <g
         id="text_10">
        <g
           id="patch_11">
          <path
             d="M 11.547072 461.597852  L 148.488149 461.597852  L 148.488149 446.402148  L 11.547072 446.402148  z "
             style="fill: #ffffff; opacity: 0.78"
             id="path377" />
        </g>
        <!-- reinforcement learning -->
        <g
           style="fill: #333333"
           transform="translate(13.522332 457.206167) scale(0.116192 -0.116192)"
           id="g424">
          <use
             xlink:href="#DejaVuSans-72"
             id="use380" />
          <use
             xlink:href="#DejaVuSans-65"
             x="38.863281"
             id="use382" />
          <use
             xlink:href="#DejaVuSans-69"
             x="100.386719"
             id="use384" />
          <use
             xlink:href="#DejaVuSans-6e"
             x="128.169922"
             id="use386" />
          <use
             xlink:href="#DejaVuSans-66"
             x="191.548828"
             id="use388" />
          <use
             xlink:href="#DejaVuSans-6f"
             x="226.753906"
             id="use390" />
          <use
             xlink:href="#DejaVuSans-72"
             x="287.935547"
             id="use392" />
          <use
             xlink:href="#DejaVuSans-63"
             x="326.798828"
             id="use394" />
          <use
             xlink:href="#DejaVuSans-65"
             x="381.779297"
             id="use396" />
          <use
             xlink:href="#DejaVuSans-6d"
             x="443.302734"
             id="use398" />
          <use
             xlink:href="#DejaVuSans-65"
             x="540.714844"
             id="use400" />
          <use
             xlink:href="#DejaVuSans-6e"
             x="602.238281"
             id="use402" />
          <use
             xlink:href="#DejaVuSans-74"
             x="665.617188"
             id="use404" />
          <use
             xlink:href="#DejaVuSans-20"
             x="704.826172"
             id="use406" />
          <use
             xlink:href="#DejaVuSans-6c"
             x="736.613281"
             id="use408" />
          <use
             xlink:href="#DejaVuSans-65"
             x="764.396484"
             id="use410" />
          <use
             xlink:href="#DejaVuSans-61"
             x="825.919922"
             id="use412" />
          <use
             xlink:href="#DejaVuSans-72"
             x="887.199219"
             id="use414" />
          <use
             xlink:href="#DejaVuSans-6e"
             x="926.5625"
             id="use416" />
          <use
             xlink:href="#DejaVuSans-69"
             x="989.941406"
             id="use418" />
          <use
             xlink:href="#DejaVuSans-6e"
             x="1017.724609"
             id="use420" />
          <use
             xlink:href="#DejaVuSans-67"
             x="1081.103516"
             id="use422" />
        </g>
      </g>
      <g
         id="text_11">
        <g
           id="patch_12">
          <path
             d="M 114.107757 280.309783  L 143.079448 280.309783  L 143.079448 265.114078  L 114.107757 265.114078  z "
             style="fill: #ffffff; opacity: 0.78"
             id="path427" />
        </g>
        <!-- CLIP -->
        <g
           style="fill: #333333"
           transform="translate(116.083017 275.918097) scale(0.116192 -0.116192)"
           id="g443">
          <defs
             id="defs433">
            <path
               id="DejaVuSans-4c"
               d="M 628 4666  L 1259 4666  L 1259 531  L 3531 531  L 3531 0  L 628 0  L 628 4666  z "
               transform="scale(0.015625)" />
            <path
               id="DejaVuSans-49"
               d="M 628 4666  L 1259 4666  L 1259 0  L 628 0  L 628 4666  z "
               transform="scale(0.015625)" />
            <path
               id="DejaVuSans-50"
               d="M 1259 4147  L 1259 2394  L 2053 2394  Q 2494 2394 2734 2622  Q 2975 2850 2975 3272  Q 2975 3691 2734 3919  Q 2494 4147 2053 4147  L 1259 4147  z M 628 4666  L 2053 4666  Q 2838 4666 3239 4311  Q 3641 3956 3641 3272  Q 3641 2581 3239 2228  Q 2838 1875 2053 1875  L 1259 1875  L 1259 0  L 628 0  L 628 4666  z "
               transform="scale(0.015625)" />
          </defs>
          <use
             xlink:href="#DejaVuSans-43"
             id="use435" />
          <use
             xlink:href="#DejaVuSans-4c"
             x="69.824219"
             id="use437" />
          <use
             xlink:href="#DejaVuSans-49"
             x="125.537109"
             id="use439" />
          <use
             xlink:href="#DejaVuSans-50"
             x="155.029297"
             id="use441" />
        </g>
      </g>
      <g
         id="text_12">
        <g
           id="patch_13">
          <path
             d="M 249.379118 146.838915  L 273.232243 146.838915  L 273.232243 133.16079  L 249.379118 133.16079  z "
             style="fill: #ffffff; opacity: 0.78"
             id="path446" />
        </g>
        <!-- PCA -->
        <g
           style="fill: #333333"
           transform="translate(251.379118 142.759227) scale(0.1 -0.1)"
           id="g458">
          <defs
             id="defs450">
            <path
               id="DejaVuSans-41"
               d="M 2188 4044  L 1331 1722  L 3047 1722  L 2188 4044  z M 1831 4666  L 2547 4666  L 4325 0  L 3669 0  L 3244 1197  L 1141 1197  L 716 0  L 50 0  L 1831 4666  z "
               transform="scale(0.015625)" />
          </defs>
          <use
             xlink:href="#DejaVuSans-50"
             id="use452" />
          <use
             xlink:href="#DejaVuSans-43"
             x="60.302734"
             id="use454" />
          <use
             xlink:href="#DejaVuSans-41"
             x="130.126953"
             id="use456" />
        </g>
      </g>
      <g
         id="text_13">
        <!-- AI methods: Biodiversity -->
        <g
           style="fill: #2a5f7f"
           transform="translate(332.58 24.8) scale(0.18 -0.18)"
           id="g514">
          <defs
             id="defs464">
            <path
               id="DejaVuSans-3a"
               d="M 750 794  L 1409 794  L 1409 0  L 750 0  L 750 794  z M 750 3309  L 1409 3309  L 1409 2516  L 750 2516  L 750 3309  z "
               transform="scale(0.015625)" />
            <path
               id="DejaVuSans-42"
               d="M 1259 2228  L 1259 519  L 2272 519  Q 2781 519 3026 730  Q 3272 941 3272 1375  Q 3272 1813 3026 2020  Q 2781 2228 2272 2228  L 1259 2228  z M 1259 4147  L 1259 2741  L 2194 2741  Q 2656 2741 2882 2914  Q 3109 3088 3109 3444  Q 3109 3797 2882 3972  Q 2656 4147 2194 4147  L 1259 4147  z M 628 4666  L 2241 4666  Q 2963 4666 3353 4366  Q 3744 4066 3744 3513  Q 3744 3084 3544 2831  Q 3344 2578 2956 2516  Q 3422 2416 3680 2098  Q 3938 1781 3938 1306  Q 3938 681 3513 340  Q 3088 0 2303 0  L 628 0  L 628 4666  z "
               transform="scale(0.015625)" />
            <path
               id="DejaVuSans-79"
               d="M 2059 -325  Q 1816 -950 1584 -1140  Q 1353 -1331 966 -1331  L 506 -1331  L 506 -850  L 844 -850  Q 1081 -850 1212 -737  Q 1344 -625 1503 -206  L 1606 56  L 191 3500  L 800 3500  L 1894 763  L 2988 3500  L 3597 3500  L 2059 -325  z "
               transform="scale(0.015625)" />
          </defs>
          <use
             xlink:href="#DejaVuSans-41"
             id="use466" />
          <use
             xlink:href="#DejaVuSans-49"
             x="68.408203"
             id="use468" />
          <use
             xlink:href="#DejaVuSans-20"
             x="97.900391"
             id="use470" />
          <use
             xlink:href="#DejaVuSans-6d"
             x="129.6875"
             id="use472" />
          <use
             xlink:href="#DejaVuSans-65"
             x="227.099609"
             id="use474" />
          <use
             xlink:href="#DejaVuSans-74"
             x="288.623047"
             id="use476" />
          <use
             xlink:href="#DejaVuSans-68"
             x="327.832031"
             id="use478" />
          <use
             xlink:href="#DejaVuSans-6f"
             x="391.210938"
             id="use480" />
          <use
             xlink:href="#DejaVuSans-64"
             x="452.392578"
             id="use482" />
          <use
             xlink:href="#DejaVuSans-73"
             x="515.869141"
             id="use484" />
          <use
             xlink:href="#DejaVuSans-3a"
             x="567.96875"
             id="use486" />
          <use
             xlink:href="#DejaVuSans-20"
             x="601.660156"
             id="use488" />
          <use
             xlink:href="#DejaVuSans-42"
             x="633.447266"
             id="use490" />
          <use
             xlink:href="#DejaVuSans-69"
             x="702.050781"
             id="use492" />
          <use
             xlink:href="#DejaVuSans-6f"
             x="729.833984"
             id="use494" />
          <use
             xlink:href="#DejaVuSans-64"
             x="791.015625"
             id="use496" />
          <use
             xlink:href="#DejaVuSans-69"
             x="854.492188"
             id="use498" />
          <use
             xlink:href="#DejaVuSans-76"
             x="882.275391"
             id="use500" />
          <use
             xlink:href="#DejaVuSans-65"
             x="941.455078"
             id="use502" />
          <use
             xlink:href="#DejaVuSans-72"
             x="1002.978516"
             id="use504" />
          <use
             xlink:href="#DejaVuSans-73"
             x="1044.091797"
             id="use506" />
          <use
             xlink:href="#DejaVuSans-69"
             x="1096.191406"
             id="use508" />
          <use
             xlink:href="#DejaVuSans-74"
             x="1123.974609"
             id="use510" />
          <use
             xlink:href="#DejaVuSans-79"
             x="1163.183594"
             id="use512" />
        </g>
      </g>
      <g
         id="text_14">
        <g
           id="patch_14">
          <path
             d="M 377.958281 435.610344  L 507.229219 435.610344  L 507.229219 410.129094  L 377.958281 410.129094  z "
             style="fill: #ffffff; opacity: 0.85"
             id="path517" />
        </g>
        <!-- Biodiversity -->
        <g
           style="fill: #2a5f7f"
           transform="translate(381.918281 427.766281) scale(0.18 -0.18)"
           id="g556">
          <defs
             id="defs530">
            <path
               id="DejaVuSans-Bold-42"
               d="M 2456 2859  Q 2741 2859 2887 2984  Q 3034 3109 3034 3353  Q 3034 3594 2887 3720  Q 2741 3847 2456 3847  L 1791 3847  L 1791 2859  L 2456 2859  z M 2497 819  Q 2859 819 3042 972  Q 3225 1125 3225 1434  Q 3225 1738 3044 1889  Q 2863 2041 2497 2041  L 1791 2041  L 1791 819  L 2497 819  z M 3616 2497  Q 4003 2384 4215 2081  Q 4428 1778 4428 1338  Q 4428 663 3972 331  Q 3516 0 2584 0  L 588 0  L 588 4666  L 2394 4666  Q 3366 4666 3802 4372  Q 4238 4078 4238 3431  Q 4238 3091 4078 2852  Q 3919 2613 3616 2497  z "
               transform="scale(0.015625)" />
            <path
               id="DejaVuSans-Bold-69"
               d="M 538 3500  L 1656 3500  L 1656 0  L 538 0  L 538 3500  z M 538 4863  L 1656 4863  L 1656 3950  L 538 3950  L 538 4863  z "
               transform="scale(0.015625)" />
            <path
               id="DejaVuSans-Bold-6f"
               d="M 2203 2784  Q 1831 2784 1636 2517  Q 1441 2250 1441 1747  Q 1441 1244 1636 976  Q 1831 709 2203 709  Q 2569 709 2762 976  Q 2956 1244 2956 1747  Q 2956 2250 2762 2517  Q 2569 2784 2203 2784  z M 2203 3584  Q 3106 3584 3614 3096  Q 4122 2609 4122 1747  Q 4122 884 3614 396  Q 3106 -91 2203 -91  Q 1297 -91 786 396  Q 275 884 275 1747  Q 275 2609 786 3096  Q 1297 3584 2203 3584  z "
               transform="scale(0.015625)" />
            <path
               id="DejaVuSans-Bold-64"
               d="M 2919 2988  L 2919 4863  L 4044 4863  L 4044 0  L 2919 0  L 2919 506  Q 2688 197 2409 53  Q 2131 -91 1766 -91  Q 1119 -91 703 423  Q 288 938 288 1747  Q 288 2556 703 3070  Q 1119 3584 1766 3584  Q 2128 3584 2408 3439  Q 2688 3294 2919 2988  z M 2181 722  Q 2541 722 2730 984  Q 2919 1247 2919 1747  Q 2919 2247 2730 2509  Q 2541 2772 2181 2772  Q 1825 2772 1636 2509  Q 1447 2247 1447 1747  Q 1447 1247 1636 984  Q 1825 722 2181 722  z "
               transform="scale(0.015625)" />
            <path
               id="DejaVuSans-Bold-76"
               d="M 97 3500  L 1216 3500  L 2088 1081  L 2956 3500  L 4078 3500  L 2700 0  L 1472 0  L 97 3500  z "
               transform="scale(0.015625)" />
            <path
               id="DejaVuSans-Bold-65"
               d="M 4031 1759  L 4031 1441  L 1416 1441  Q 1456 1047 1700 850  Q 1944 653 2381 653  Q 2734 653 3104 758  Q 3475 863 3866 1075  L 3866 213  Q 3469 63 3072 -14  Q 2675 -91 2278 -91  Q 1328 -91 801 392  Q 275 875 275 1747  Q 275 2603 792 3093  Q 1309 3584 2216 3584  Q 3041 3584 3536 3087  Q 4031 2591 4031 1759  z M 2881 2131  Q 2881 2450 2695 2645  Q 2509 2841 2209 2841  Q 1884 2841 1681 2658  Q 1478 2475 1428 2131  L 2881 2131  z "
               transform="scale(0.015625)" />
            <path
               id="DejaVuSans-Bold-72"
               d="M 3138 2547  Q 2991 2616 2845 2648  Q 2700 2681 2553 2681  Q 2122 2681 1889 2404  Q 1656 2128 1656 1613  L 1656 0  L 538 0  L 538 3500  L 1656 3500  L 1656 2925  Q 1872 3269 2151 3426  Q 2431 3584 2822 3584  Q 2878 3584 2943 3579  Q 3009 3575 3134 3559  L 3138 2547  z "
               transform="scale(0.015625)" />
            <path
               id="DejaVuSans-Bold-73"
               d="M 3272 3391  L 3272 2541  Q 2913 2691 2578 2766  Q 2244 2841 1947 2841  Q 1628 2841 1473 2761  Q 1319 2681 1319 2516  Q 1319 2381 1436 2309  Q 1553 2238 1856 2203  L 2053 2175  Q 2913 2066 3209 1816  Q 3506 1566 3506 1031  Q 3506 472 3093 190  Q 2681 -91 1863 -91  Q 1516 -91 1145 -36  Q 775 19 384 128  L 384 978  Q 719 816 1070 734  Q 1422 653 1784 653  Q 2113 653 2278 743  Q 2444 834 2444 1013  Q 2444 1163 2330 1236  Q 2216 1309 1875 1350  L 1678 1375  Q 931 1469 631 1722  Q 331 1975 331 2491  Q 331 3047 712 3315  Q 1094 3584 1881 3584  Q 2191 3584 2531 3537  Q 2872 3491 3272 3391  z "
               transform="scale(0.015625)" />
            <path
               id="DejaVuSans-Bold-74"
               d="M 1759 4494  L 1759 3500  L 2913 3500  L 2913 2700  L 1759 2700  L 1759 1216  Q 1759 972 1856 886  Q 1953 800 2241 800  L 2816 800  L 2816 0  L 1856 0  Q 1194 0 917 276  Q 641 553 641 1216  L 641 2700  L 84 2700  L 84 3500  L 641 3500  L 641 4494  L 1759 4494  z "
               transform="scale(0.015625)" />
            <path
               id="DejaVuSans-Bold-79"
               d="M 78 3500  L 1197 3500  L 2138 1125  L 2938 3500  L 4056 3500  L 2584 -331  Q 2363 -916 2067 -1148  Q 1772 -1381 1288 -1381  L 641 -1381  L 641 -647  L 991 -647  Q 1275 -647 1404 -556  Q 1534 -466 1606 -231  L 1638 -134  L 78 3500  z "
               transform="scale(0.015625)" />
          </defs>
          <use
             xlink:href="#DejaVuSans-Bold-42"
             id="use532" />
          <use
             xlink:href="#DejaVuSans-Bold-69"
             x="76.220703"
             id="use534" />
          <use
             xlink:href="#DejaVuSans-Bold-6f"
             x="110.498047"
             id="use536" />
          <use
             xlink:href="#DejaVuSans-Bold-64"
             x="179.199219"
             id="use538" />
          <use
             xlink:href="#DejaVuSans-Bold-69"
             x="250.78125"
             id="use540" />
          <use
             xlink:href="#DejaVuSans-Bold-76"
             x="285.058594"
             id="use542" />
          <use
             xlink:href="#DejaVuSans-Bold-65"
             x="350.244141"
             id="use544" />
          <use
             xlink:href="#DejaVuSans-Bold-72"
             x="418.066406"
             id="use546" />
          <use
             xlink:href="#DejaVuSans-Bold-73"
             x="467.382812"
             id="use548" />
          <use
             xlink:href="#DejaVuSans-Bold-69"
             x="526.904297"
             id="use550" />
          <use
             xlink:href="#DejaVuSans-Bold-74"
             x="561.181641"
             id="use552" />
          <use
             xlink:href="#DejaVuSans-Bold-79"
             x="608.984375"
             id="use554" />
        </g>
      </g>
    </g>
  </g>
  <defs
     id="defs564">
    <clipPath
       id="p8655b1c5dc">
      <path
         d="M 841.79375 454  C 841.79375 401.577536 831.467668 349.664815 811.406459 301.232774  C 791.345251 252.800733 761.939057 208.791253 724.870777 171.722973  C 687.802497 134.654693 643.793017 105.248499 595.360976 85.187291  C 546.928935 65.126082 495.016214 54.8 442.59375 54.8  C 390.171286 54.8 338.258565 65.126082 289.826524 85.187291  C 241.394483 105.248499 197.385003 134.654693 160.316723 171.722973  C 123.248443 208.791253 93.842249 252.800733 73.781041 301.232774  C 53.719832 349.664815 43.39375 401.577536 43.39375 454  C 43.39375 506.422464 53.719832 558.335185 73.781041 606.767226  C 93.842249 655.199267 123.248443 699.208747 160.316723 736.277027  C 197.385003 773.345307 241.394483 802.751501 289.826524 822.812709  C 338.258565 842.873918 390.171286 853.2 442.59375 853.2  C 495.016214 853.2 546.928935 842.873918 595.360976 822.812709  C 643.793017 802.751501 687.802497 773.345307 724.870777 736.277027  C 761.939057 699.208747 791.345251 655.199267 811.406459 606.767226  C 831.467668 558.335185 841.79375 506.422464 841.79375 454  M 442.59375 454  C 442.59375 454 442.59375 454 442.59375 454  C 442.59375 454 442.59375 454 442.59375 454  C 442.59375 454 442.59375 454 442.59375 454  C 442.59375 454 442.59375 454 442.59375 454  C 442.59375 454 442.59375 454 442.59375 454  C 442.59375 454 442.59375 454 442.59375 454  C 442.59375 454 442.59375 454 442.59375 454  C 442.59375 454 442.59375 454 442.59375 454  C 442.59375 454 442.59375 454 442.59375 454  C 442.59375 454 442.59375 454 442.59375 454  C 442.59375 454 442.59375 454 442.59375 454  C 442.59375 454 442.59375 454 442.59375 454  C 442.59375 454 442.59375 454 442.59375 454  C 442.59375 454 442.59375 454 442.59375 454  C 442.59375 454 442.59375 454 442.59375 454  C 442.59375 454 442.59375 454 442.59375 454  z "
         id="path561" />
    </clipPath>
  </defs>
</svg>
