<?xml version="1.0" encoding="UTF-8" standalone="no"?>
<svg
   xmlns:dc="http://purl.org/dc/elements/1.1/"
   xmlns:cc="http://creativecommons.org/ns#"
   xmlns:rdf="http://www.w3.org/1999/02/22-rdf-syntax-ns#"
   xmlns:svg="http://www.w3.org/2000/svg"
   xmlns="http://www.w3.org/2000/svg"
   xmlns:xlink="http://www.w3.org/1999/xlink"
   xmlns:sodipodi="http://sodipodi.sourceforge.net/DTD/sodipodi-0.dtd"
   xmlns:inkscape="http://www.inkscape.org/namespaces/inkscape"
   width="864pt"
   height="864pt"
   viewBox="0 0 864 864"
   version="1.1"
   id="svg632"
   sodipodi:docname="collective_decisions_clockwork.svg"
   inkscape:export-filename="/home/erikz/SRC/AI/Deep_mind_roundtable/Lit search/lit_review_deepmind/plots/final_new/collective_decisions_clockwork.png"
   inkscape:export-xdpi="96"
   inkscape:export-ydpi="96"
   inkscape:version="0.92.5 (2060ec1f9f, 2020-04-08)">
  <sodipodi:namedview
     pagecolor="#ffffff"
     bordercolor="#666666"
     borderopacity="1"
     objecttolerance="10"
     gridtolerance="10"
     guidetolerance="10"
     inkscape:pageopacity="0"
     inkscape:pageshadow="2"
     inkscape:window-width="778"
     inkscape:window-height="480"
     id="namedview634"
     showgrid="false"
     inkscape:zoom="0.20486111"
     inkscape:cx="576"
     inkscape:cy="576"
     inkscape:window-x="72"
     inkscape:window-y="27"
     inkscape:window-maximized="0"
     inkscape:current-layer="svg632" />
  <metadata
     id="metadata2">
    <rdf:RDF>
      <cc:Work>
        <dc:type
           rdf:resource="http://purl.org/dc/dcmitype/StillImage" />
        <dc:date>2025-05-01T14:39:25.110397</dc:date>
        <dc:format>image/svg+xml</dc:format>
        <dc:creator>
          <cc:Agent>
            <dc:title>Matplotlib v3.7.5, https://matplotlib.org/</dc:title>
          </cc:Agent>
        </dc:creator>
      </cc:Work>
    </rdf:RDF>
  </metadata>
  <defs
     id="defs6">
    <style
       type="text/css"
       id="style4">*{stroke-linejoin: round; stroke-linecap: butt}</style>
  </defs>
  <g
     id="figure_1">
    <g
       id="patch_1">
      <path
         d="M 0 864  L 864 864  L 864 0  L 0 0  L 0 864  z "
         style="fill: none"
         id="path8" />
    </g>
    <g
       id="axes_1">
      <g
         id="PathCollection_1">
        <path
           d="M 418.1875 228.605408  C 431.200906 228.605408 443.683068 223.435127 452.884935 214.23326  C 462.086802 205.031393 467.257083 192.549231 467.257083 179.535825  C 467.257083 166.522419 462.086802 154.040257 452.884935 144.83839  C 443.683068 135.636522 431.200906 130.466242 418.1875 130.466242  C 405.174094 130.466242 392.691932 135.636522 383.490065 144.83839  C 374.288198 154.040257 369.117917 166.522419 369.117917 179.535825  C 369.117917 192.549231 374.288198 205.031393 383.490065 214.23326  C 392.691932 223.435127 405.174094 228.605408 418.1875 228.605408  z "
           clip-path="url(#p031e0953c7)"
           style="fill: #4682b4; fill-opacity: 0.85; stroke: #ffffff; stroke-opacity: 0.85; stroke-width: 1.5"
           id="path11" />
        <path
           d="M 555.419588 263.287078  C 567.878836 263.287078 579.829464 258.336966 588.639483 249.526947  C 597.449502 240.716928 602.399614 228.766301 602.399614 216.307052  C 602.399614 203.847803 597.449502 191.897176 588.639483 183.087157  C 579.829464 174.277138 567.878836 169.327026 555.419588 169.327026  C 542.960339 169.327026 531.009712 174.277138 522.199692 183.087157  C 513.389673 191.897176 508.439561 203.847803 508.439561 216.307052  C 508.439561 228.766301 513.389673 240.716928 522.199692 249.526947  C 531.009712 258.336966 542.960339 263.287078 555.419588 263.287078  z "
           clip-path="url(#p031e0953c7)"
           style="fill: #4682b4; fill-opacity: 0.85; stroke: #ffffff; stroke-opacity: 0.85; stroke-width: 1.5"
           id="path13" />
        <path
           d="M 655.880448 352.774311  C 665.429457 352.774311 674.588648 348.98045 681.340817 342.228281  C 688.092985 335.476112 691.886847 326.316921 691.886847 316.767912  C 691.886847 307.218904 688.092985 298.059712 681.340817 291.307544  C 674.588648 284.555375 665.429457 280.761514 655.880448 280.761514  C 646.331439 280.761514 637.172248 284.555375 630.420079 291.307544  C 623.667911 298.059712 619.874049 307.218904 619.874049 316.767912  C 619.874049 326.316921 623.667911 335.476112 630.420079 342.228281  C 637.172248 348.98045 646.331439 352.774311 655.880448 352.774311  z "
           clip-path="url(#p031e0953c7)"
           style="fill: #4682b4; fill-opacity: 0.85; stroke: #ffffff; stroke-opacity: 0.85; stroke-width: 1.5"
           id="path15" />
        <path
           d="M 692.651675 487.270071  C 701.475001 487.270071 709.938134 483.764526 716.177168 477.525493  C 722.416202 471.286459 725.921746 462.823326 725.921746 454  C 725.921746 445.176674 722.416202 436.713541 716.177168 430.474507  C 709.938134 424.235474 701.475001 420.729929 692.651675 420.729929  C 683.828349 420.729929 675.365216 424.235474 669.126182 430.474507  C 662.887149 436.713541 659.381604 445.176674 659.381604 454  C 659.381604 462.823326 662.887149 471.286459 669.126182 477.525493  C 675.365216 483.764526 683.828349 487.270071 692.651675 487.270071  z "
           clip-path="url(#p031e0953c7)"
           style="fill: #4682b4; fill-opacity: 0.85; stroke: #ffffff; stroke-opacity: 0.85; stroke-width: 1.5"
           id="path17" />
        <path
           d="M 655.880448 617.814856  C 662.930281 617.814856 669.69232 615.013928 674.677304 610.028944  C 679.662289 605.043959 682.463217 598.28192 682.463217 591.232088  C 682.463217 584.182255 679.662289 577.420216 674.677304 572.435231  C 669.69232 567.450247 662.930281 564.649319 655.880448 564.649319  C 648.830615 564.649319 642.068576 567.450247 637.083592 572.435231  C 632.098607 577.420216 629.297679 584.182255 629.297679 591.232088  C 629.297679 598.28192 632.098607 605.043959 637.083592 610.028944  C 642.068576 615.013928 648.830615 617.814856 655.880448 617.814856  z "
           clip-path="url(#p031e0953c7)"
           style="fill: #4682b4; fill-opacity: 0.85; stroke: #ffffff; stroke-opacity: 0.85; stroke-width: 1.5"
           id="path19" />
        <path
           d="M 555.419588 717.851721  C 562.356975 717.851721 569.01116 715.095468 573.916634 710.189994  C 578.822108 705.28452 581.578361 698.630336 581.578361 691.692948  C 581.578361 684.75556 578.822108 678.101376 573.916634 673.195902  C 569.01116 668.290428 562.356975 665.534175 555.419588 665.534175  C 548.4822 665.534175 541.828015 668.290428 536.922541 673.195902  C 532.017068 678.101376 529.260814 684.75556 529.260814 691.692948  C 529.260814 698.630336 532.017068 705.28452 536.922541 710.189994  C 541.828015 715.095468 548.4822 717.851721 555.419588 717.851721  z "
           clip-path="url(#p031e0953c7)"
           style="fill: #4682b4; fill-opacity: 0.85; stroke: #ffffff; stroke-opacity: 0.85; stroke-width: 1.5"
           id="path21" />
        <path
           d="M 418.1875 751.267425  C 424.234992 751.267425 430.035609 748.86473 434.311832 744.588507  C 438.588055 740.312284 440.990749 734.511668 440.990749 728.464175  C 440.990749 722.416683 438.588055 716.616066 434.311832 712.339843  C 430.035609 708.06362 424.234992 705.660926 418.1875 705.660926  C 412.140008 705.660926 406.339391 708.06362 402.063168 712.339843  C 397.786945 716.616066 395.384251 722.416683 395.384251 728.464175  C 395.384251 734.511668 397.786945 740.312284 402.063168 744.588507  C 406.339391 748.86473 412.140008 751.267425 418.1875 751.267425  z "
           clip-path="url(#p031e0953c7)"
           style="fill: #4682b4; fill-opacity: 0.85; stroke: #ffffff; stroke-opacity: 0.85; stroke-width: 1.5"
           id="path23" />
        <path
           d="M 280.955412 710.848946  C 286.035643 710.848946 290.908484 708.830549 294.500749 705.238284  C 298.093014 701.646019 300.111411 696.773178 300.111411 691.692948  C 300.111411 686.612718 298.093014 681.739877 294.500749 678.147612  C 290.908484 674.555347 286.035643 672.53695 280.955412 672.53695  C 275.875182 672.53695 271.002341 674.555347 267.410076 678.147612  C 263.817811 681.739877 261.799414 686.612718 261.799414 691.692948  C 261.799414 696.773178 263.817811 701.646019 267.410076 705.238284  C 271.002341 708.830549 275.875182 710.848946 280.955412 710.848946  z "
           clip-path="url(#p031e0953c7)"
           style="fill: #4682b4; fill-opacity: 0.85; stroke: #ffffff; stroke-opacity: 0.85; stroke-width: 1.5"
           id="path25" />
        <path
           d="M 180.494552 609.676696  C 185.386119 609.676696 190.077999 607.733255 193.536859 604.274395  C 196.99572 600.815535 198.93916 596.123655 198.93916 591.232088  C 198.93916 586.34052 196.99572 581.64864 193.536859 578.18978  C 190.077999 574.73092 185.386119 572.78748 180.494552 572.78748  C 175.602985 572.78748 170.911105 574.73092 167.452245 578.18978  C 163.993384 581.64864 162.049944 586.34052 162.049944 591.232088  C 162.049944 596.123655 163.993384 600.815535 167.452245 604.274395  C 170.911105 607.733255 175.602985 609.676696 180.494552 609.676696  z "
           clip-path="url(#p031e0953c7)"
           style="fill: #4682b4; fill-opacity: 0.85; stroke: #ffffff; stroke-opacity: 0.85; stroke-width: 1.5"
           id="path27" />
        <path
           d="M 143.723325 472.444608  C 148.614892 472.444608 153.306772 470.501168 156.765632 467.042307  C 160.224493 463.583447 162.167933 458.891567 162.167933 454  C 162.167933 449.108433 160.224493 444.416553 156.765632 440.957693  C 153.306772 437.498832 148.614892 435.555392 143.723325 435.555392  C 138.831758 435.555392 134.139878 437.498832 130.681018 440.957693  C 127.222157 444.416553 125.278717 449.108433 125.278717 454  C 125.278717 458.891567 127.222157 463.583447 130.681018 467.042307  C 134.139878 470.501168 138.831758 472.444608 143.723325 472.444608  z "
           clip-path="url(#p031e0953c7)"
           style="fill: #4682b4; fill-opacity: 0.85; stroke: #ffffff; stroke-opacity: 0.85; stroke-width: 1.5"
           id="path29" />
        <path
           d="M 180.494552 335.21252  C 185.386119 335.21252 190.077999 333.26908 193.536859 329.81022  C 196.99572 326.35136 198.93916 321.65948 198.93916 316.767912  C 198.93916 311.876345 196.99572 307.184465 193.536859 303.725605  C 190.077999 300.266745 185.386119 298.323304 180.494552 298.323304  C 175.602985 298.323304 170.911105 300.266745 167.452245 303.725605  C 163.993384 307.184465 162.049944 311.876345 162.049944 316.767912  C 162.049944 321.65948 163.993384 326.35136 167.452245 329.81022  C 170.911105 333.26908 175.602985 335.21252 180.494552 335.21252  z "
           clip-path="url(#p031e0953c7)"
           style="fill: #4682b4; fill-opacity: 0.85; stroke: #ffffff; stroke-opacity: 0.85; stroke-width: 1.5"
           id="path31" />
        <path
           d="M 280.955412 232.357383  C 285.21201 232.357383 289.294842 230.666219 292.304711 227.65635  C 295.31458 224.646481 297.005744 220.56365 297.005744 216.307052  C 297.005744 212.050454 295.31458 207.967623 292.304711 204.957754  C 289.294842 201.947885 285.21201 200.256721 280.955412 200.256721  C 276.698815 200.256721 272.615983 201.947885 269.606114 204.957754  C 266.596245 207.967623 264.905081 212.050454 264.905081 216.307052  C 264.905081 220.56365 266.596245 224.646481 269.606114 227.65635  C 272.615983 230.666219 276.698815 232.357383 280.955412 232.357383  z "
           clip-path="url(#p031e0953c7)"
           style="fill: #4682b4; fill-opacity: 0.85; stroke: #ffffff; stroke-opacity: 0.85; stroke-width: 1.5"
           id="path33" />
      </g>
      <g
         id="PathCollection_2">
        <defs
           id="defs37">
          <path
             id="md3b882f25d"
             d="M 0 93.541406  C 24.807471 93.541406 48.602231 83.685293 66.143762 66.143762  C 83.685293 48.602231 93.541406 24.807471 93.541406 0  C 93.541406 -24.807471 83.685293 -48.602231 66.143762 -66.143762  C 48.602231 -83.685293 24.807471 -93.541406 0 -93.541406  C -24.807471 -93.541406 -48.602231 -83.685293 -66.143762 -66.143762  C -83.685293 -48.602231 -93.541406 -24.807471 -93.541406 0  C -93.541406 24.807471 -83.685293 48.602231 -66.143762 66.143762  C -48.602231 83.685293 -24.807471 93.541406 0 93.541406  z "
             style="stroke: #ffffff; stroke-opacity: 0.92; stroke-width: 2" />
        </defs>
        <g
           clip-path="url(#p031e0953c7)"
           id="g41">
          <use
             xlink:href="#md3b882f25d"
             x="418.1875"
             y="454"
             style="fill: #2a5f7f; fill-opacity: 0.92; stroke: #ffffff; stroke-opacity: 0.92; stroke-width: 2"
             id="use39" />
        </g>
      </g>
      <g
         id="text_1">
        <g
           id="patch_2">
          <path
             d="M 363.544378 100.400638  L 472.830622 100.400638  L 472.830622 83.013942  L 363.544378 83.013942  z "
             style="fill: #ffffff; opacity: 0.78"
             id="path44" />
        </g>
        <!-- neural network -->
        <g
           style="fill: #333333"
           transform="translate(365.495101 95.552131) scale(0.139337 -0.139337)"
           id="g88">
          <defs
             id="defs58">
            <path
               id="DejaVuSans-6e"
               d="M 3513 2113  L 3513 0  L 2938 0  L 2938 2094  Q 2938 2591 2744 2837  Q 2550 3084 2163 3084  Q 1697 3084 1428 2787  Q 1159 2491 1159 1978  L 1159 0  L 581 0  L 581 3500  L 1159 3500  L 1159 2956  Q 1366 3272 1645 3428  Q 1925 3584 2291 3584  Q 2894 3584 3203 3211  Q 3513 2838 3513 2113  z "
               transform="scale(0.015625)" />
            <path
               id="DejaVuSans-65"
               d="M 3597 1894  L 3597 1613  L 953 1613  Q 991 1019 1311 708  Q 1631 397 2203 397  Q 2534 397 2845 478  Q 3156 559 3463 722  L 3463 178  Q 3153 47 2828 -22  Q 2503 -91 2169 -91  Q 1331 -91 842 396  Q 353 884 353 1716  Q 353 2575 817 3079  Q 1281 3584 2069 3584  Q 2775 3584 3186 3129  Q 3597 2675 3597 1894  z M 3022 2063  Q 3016 2534 2758 2815  Q 2500 3097 2075 3097  Q 1594 3097 1305 2825  Q 1016 2553 972 2059  L 3022 2063  z "
               transform="scale(0.015625)" />
            <path
               id="DejaVuSans-75"
               d="M 544 1381  L 544 3500  L 1119 3500  L 1119 1403  Q 1119 906 1312 657  Q 1506 409 1894 409  Q 2359 409 2629 706  Q 2900 1003 2900 1516  L 2900 3500  L 3475 3500  L 3475 0  L 2900 0  L 2900 538  Q 2691 219 2414 64  Q 2138 -91 1772 -91  Q 1169 -91 856 284  Q 544 659 544 1381  z M 1991 3584  L 1991 3584  z "
               transform="scale(0.015625)" />
            <path
               id="DejaVuSans-72"
               d="M 2631 2963  Q 2534 3019 2420 3045  Q 2306 3072 2169 3072  Q 1681 3072 1420 2755  Q 1159 2438 1159 1844  L 1159 0  L 581 0  L 581 3500  L 1159 3500  L 1159 2956  Q 1341 3275 1631 3429  Q 1922 3584 2338 3584  Q 2397 3584 2469 3576  Q 2541 3569 2628 3553  L 2631 2963  z "
               transform="scale(0.015625)" />
            <path
               id="DejaVuSans-61"
               d="M 2194 1759  Q 1497 1759 1228 1600  Q 959 1441 959 1056  Q 959 750 1161 570  Q 1363 391 1709 391  Q 2188 391 2477 730  Q 2766 1069 2766 1631  L 2766 1759  L 2194 1759  z M 3341 1997  L 3341 0  L 2766 0  L 2766 531  Q 2569 213 2275 61  Q 1981 -91 1556 -91  Q 1019 -91 701 211  Q 384 513 384 1019  Q 384 1609 779 1909  Q 1175 2209 1959 2209  L 2766 2209  L 2766 2266  Q 2766 2663 2505 2880  Q 2244 3097 1772 3097  Q 1472 3097 1187 3025  Q 903 2953 641 2809  L 641 3341  Q 956 3463 1253 3523  Q 1550 3584 1831 3584  Q 2591 3584 2966 3190  Q 3341 2797 3341 1997  z "
               transform="scale(0.015625)" />
            <path
               id="DejaVuSans-6c"
               d="M 603 4863  L 1178 4863  L 1178 0  L 603 0  L 603 4863  z "
               transform="scale(0.015625)" />
            <path
               id="DejaVuSans-20"
               transform="scale(0.015625)" />
            <path
               id="DejaVuSans-74"
               d="M 1172 4494  L 1172 3500  L 2356 3500  L 2356 3053  L 1172 3053  L 1172 1153  Q 1172 725 1289 603  Q 1406 481 1766 481  L 2356 481  L 2356 0  L 1766 0  Q 1100 0 847 248  Q 594 497 594 1153  L 594 3053  L 172 3053  L 172 3500  L 594 3500  L 594 4494  L 1172 4494  z "
               transform="scale(0.015625)" />
            <path
               id="DejaVuSans-77"
               d="M 269 3500  L 844 3500  L 1563 769  L 2278 3500  L 2956 3500  L 3675 769  L 4391 3500  L 4966 3500  L 4050 0  L 3372 0  L 2619 2869  L 1863 0  L 1184 0  L 269 3500  z "
               transform="scale(0.015625)" />
            <path
               id="DejaVuSans-6f"
               d="M 1959 3097  Q 1497 3097 1228 2736  Q 959 2375 959 1747  Q 959 1119 1226 758  Q 1494 397 1959 397  Q 2419 397 2687 759  Q 2956 1122 2956 1747  Q 2956 2369 2687 2733  Q 2419 3097 1959 3097  z M 1959 3584  Q 2709 3584 3137 3096  Q 3566 2609 3566 1747  Q 3566 888 3137 398  Q 2709 -91 1959 -91  Q 1206 -91 779 398  Q 353 888 353 1747  Q 353 2609 779 3096  Q 1206 3584 1959 3584  z "
               transform="scale(0.015625)" />
            <path
               id="DejaVuSans-6b"
               d="M 581 4863  L 1159 4863  L 1159 1991  L 2875 3500  L 3609 3500  L 1753 1863  L 3688 0  L 2938 0  L 1159 1709  L 1159 0  L 581 0  L 581 4863  z "
               transform="scale(0.015625)" />
          </defs>
          <use
             xlink:href="#DejaVuSans-6e"
             id="use60" />
          <use
             xlink:href="#DejaVuSans-65"
             x="63.378906"
             id="use62" />
          <use
             xlink:href="#DejaVuSans-75"
             x="124.902344"
             id="use64" />
          <use
             xlink:href="#DejaVuSans-72"
             x="188.28125"
             id="use66" />
          <use
             xlink:href="#DejaVuSans-61"
             x="229.394531"
             id="use68" />
          <use
             xlink:href="#DejaVuSans-6c"
             x="290.673828"
             id="use70" />
          <use
             xlink:href="#DejaVuSans-20"
             x="318.457031"
             id="use72" />
          <use
             xlink:href="#DejaVuSans-6e"
             x="350.244141"
             id="use74" />
          <use
             xlink:href="#DejaVuSans-65"
             x="413.623047"
             id="use76" />
          <use
             xlink:href="#DejaVuSans-74"
             x="475.146484"
             id="use78" />
          <use
             xlink:href="#DejaVuSans-77"
             x="514.355469"
             id="use80" />
          <use
             xlink:href="#DejaVuSans-6f"
             x="596.142578"
             id="use82" />
          <use
             xlink:href="#DejaVuSans-72"
             x="657.324219"
             id="use84" />
          <use
             xlink:href="#DejaVuSans-6b"
             x="698.4375"
             id="use86" />
        </g>
      </g>
      <g
         id="text_2">
        <g
           id="patch_3">
          <path
             d="M 548.609014 148.962853  L 650.058696 148.962853  L 650.058696 131.527766  L 548.609014 131.527766  z "
             style="fill: #ffffff; opacity: 0.78"
             id="path91" />
        </g>
        <!-- random forest -->
        <g
           style="fill: #333333"
           transform="translate(550.671829 144.04003) scale(0.137521 -0.137521)"
           id="g126">
          <defs
             id="defs98">
            <path
               id="DejaVuSans-64"
               d="M 2906 2969  L 2906 4863  L 3481 4863  L 3481 0  L 2906 0  L 2906 525  Q 2725 213 2448 61  Q 2172 -91 1784 -91  Q 1150 -91 751 415  Q 353 922 353 1747  Q 353 2572 751 3078  Q 1150 3584 1784 3584  Q 2172 3584 2448 3432  Q 2725 3281 2906 2969  z M 947 1747  Q 947 1113 1208 752  Q 1469 391 1925 391  Q 2381 391 2643 752  Q 2906 1113 2906 1747  Q 2906 2381 2643 2742  Q 2381 3103 1925 3103  Q 1469 3103 1208 2742  Q 947 2381 947 1747  z "
               transform="scale(0.015625)" />
            <path
               id="DejaVuSans-6d"
               d="M 3328 2828  Q 3544 3216 3844 3400  Q 4144 3584 4550 3584  Q 5097 3584 5394 3201  Q 5691 2819 5691 2113  L 5691 0  L 5113 0  L 5113 2094  Q 5113 2597 4934 2840  Q 4756 3084 4391 3084  Q 3944 3084 3684 2787  Q 3425 2491 3425 1978  L 3425 0  L 2847 0  L 2847 2094  Q 2847 2600 2669 2842  Q 2491 3084 2119 3084  Q 1678 3084 1418 2786  Q 1159 2488 1159 1978  L 1159 0  L 581 0  L 581 3500  L 1159 3500  L 1159 2956  Q 1356 3278 1631 3431  Q 1906 3584 2284 3584  Q 2666 3584 2933 3390  Q 3200 3197 3328 2828  z "
               transform="scale(0.015625)" />
            <path
               id="DejaVuSans-66"
               d="M 2375 4863  L 2375 4384  L 1825 4384  Q 1516 4384 1395 4259  Q 1275 4134 1275 3809  L 1275 3500  L 2222 3500  L 2222 3053  L 1275 3053  L 1275 0  L 697 0  L 697 3053  L 147 3053  L 147 3500  L 697 3500  L 697 3744  Q 697 4328 969 4595  Q 1241 4863 1831 4863  L 2375 4863  z "
               transform="scale(0.015625)" />
            <path
               id="DejaVuSans-73"
               d="M 2834 3397  L 2834 2853  Q 2591 2978 2328 3040  Q 2066 3103 1784 3103  Q 1356 3103 1142 2972  Q 928 2841 928 2578  Q 928 2378 1081 2264  Q 1234 2150 1697 2047  L 1894 2003  Q 2506 1872 2764 1633  Q 3022 1394 3022 966  Q 3022 478 2636 193  Q 2250 -91 1575 -91  Q 1294 -91 989 -36  Q 684 19 347 128  L 347 722  Q 666 556 975 473  Q 1284 391 1588 391  Q 1994 391 2212 530  Q 2431 669 2431 922  Q 2431 1156 2273 1281  Q 2116 1406 1581 1522  L 1381 1569  Q 847 1681 609 1914  Q 372 2147 372 2553  Q 372 3047 722 3315  Q 1072 3584 1716 3584  Q 2034 3584 2315 3537  Q 2597 3491 2834 3397  z "
               transform="scale(0.015625)" />
          </defs>
          <use
             xlink:href="#DejaVuSans-72"
             id="use100" />
          <use
             xlink:href="#DejaVuSans-61"
             x="41.113281"
             id="use102" />
          <use
             xlink:href="#DejaVuSans-6e"
             x="102.392578"
             id="use104" />
          <use
             xlink:href="#DejaVuSans-64"
             x="165.771484"
             id="use106" />
          <use
             xlink:href="#DejaVuSans-6f"
             x="229.248047"
             id="use108" />
          <use
             xlink:href="#DejaVuSans-6d"
             x="290.429688"
             id="use110" />
          <use
             xlink:href="#DejaVuSans-20"
             x="387.841797"
             id="use112" />
          <use
             xlink:href="#DejaVuSans-66"
             x="419.628906"
             id="use114" />
          <use
             xlink:href="#DejaVuSans-6f"
             x="454.833984"
             id="use116" />
          <use
             xlink:href="#DejaVuSans-72"
             x="516.015625"
             id="use118" />
          <use
             xlink:href="#DejaVuSans-65"
             x="554.878906"
             id="use120" />
          <use
             xlink:href="#DejaVuSans-73"
             x="616.402344"
             id="use122" />
          <use
             xlink:href="#DejaVuSans-74"
             x="668.501953"
             id="use124" />
        </g>
      </g>
      <g
         id="text_3">
        <g
           id="patch_4">
          <path
             d="M 692.085499 281.067964  L 771.798882 281.067964  L 771.798882 264.639325  L 692.085499 264.639325  z "
             style="fill: #ffffff; opacity: 0.78"
             id="path129" />
        </g>
        <!-- transformer -->
        <g
           style="fill: #333333"
           transform="translate(694.126621 276.373783) scale(0.12757 -0.12757)"
           id="g154">
          <use
             xlink:href="#DejaVuSans-74"
             id="use132" />
          <use
             xlink:href="#DejaVuSans-72"
             x="39.208984"
             id="use134" />
          <use
             xlink:href="#DejaVuSans-61"
             x="80.322266"
             id="use136" />
          <use
             xlink:href="#DejaVuSans-6e"
             x="141.601562"
             id="use138" />
          <use
             xlink:href="#DejaVuSans-73"
             x="204.980469"
             id="use140" />
          <use
             xlink:href="#DejaVuSans-66"
             x="257.080078"
             id="use142" />
          <use
             xlink:href="#DejaVuSans-6f"
             x="292.285156"
             id="use144" />
          <use
             xlink:href="#DejaVuSans-72"
             x="353.466797"
             id="use146" />
          <use
             xlink:href="#DejaVuSans-6d"
             x="392.830078"
             id="use148" />
          <use
             xlink:href="#DejaVuSans-65"
             x="490.242188"
             id="use150" />
          <use
             xlink:href="#DejaVuSans-72"
             x="551.765625"
             id="use152" />
        </g>
      </g>
      <g
         id="text_4">
        <g
           id="patch_5">
          <path
             d="M 703.854545 462.046027  L 857.105876 462.046027  L 857.105876 445.953973  L 703.854545 445.953973  z "
             style="fill: #ffffff; opacity: 0.78"
             id="path157" />
        </g>
        <!-- support vector machine -->
        <g
           style="fill: #333333"
           transform="translate(705.853848 457.448018) scale(0.124956 -0.124956)"
           id="g211">
          <defs
             id="defs165">
            <path
               id="DejaVuSans-70"
               d="M 1159 525  L 1159 -1331  L 581 -1331  L 581 3500  L 1159 3500  L 1159 2969  Q 1341 3281 1617 3432  Q 1894 3584 2278 3584  Q 2916 3584 3314 3078  Q 3713 2572 3713 1747  Q 3713 922 3314 415  Q 2916 -91 2278 -91  Q 1894 -91 1617 61  Q 1341 213 1159 525  z M 3116 1747  Q 3116 2381 2855 2742  Q 2594 3103 2138 3103  Q 1681 3103 1420 2742  Q 1159 2381 1159 1747  Q 1159 1113 1420 752  Q 1681 391 2138 391  Q 2594 391 2855 752  Q 3116 1113 3116 1747  z "
               transform="scale(0.015625)" />
            <path
               id="DejaVuSans-76"
               d="M 191 3500  L 800 3500  L 1894 563  L 2988 3500  L 3597 3500  L 2284 0  L 1503 0  L 191 3500  z "
               transform="scale(0.015625)" />
            <path
               id="DejaVuSans-63"
               d="M 3122 3366  L 3122 2828  Q 2878 2963 2633 3030  Q 2388 3097 2138 3097  Q 1578 3097 1268 2742  Q 959 2388 959 1747  Q 959 1106 1268 751  Q 1578 397 2138 397  Q 2388 397 2633 464  Q 2878 531 3122 666  L 3122 134  Q 2881 22 2623 -34  Q 2366 -91 2075 -91  Q 1284 -91 818 406  Q 353 903 353 1747  Q 353 2603 823 3093  Q 1294 3584 2113 3584  Q 2378 3584 2631 3529  Q 2884 3475 3122 3366  z "
               transform="scale(0.015625)" />
            <path
               id="DejaVuSans-68"
               d="M 3513 2113  L 3513 0  L 2938 0  L 2938 2094  Q 2938 2591 2744 2837  Q 2550 3084 2163 3084  Q 1697 3084 1428 2787  Q 1159 2491 1159 1978  L 1159 0  L 581 0  L 581 4863  L 1159 4863  L 1159 2956  Q 1366 3272 1645 3428  Q 1925 3584 2291 3584  Q 2894 3584 3203 3211  Q 3513 2838 3513 2113  z "
               transform="scale(0.015625)" />
            <path
               id="DejaVuSans-69"
               d="M 603 3500  L 1178 3500  L 1178 0  L 603 0  L 603 3500  z M 603 4863  L 1178 4863  L 1178 4134  L 603 4134  L 603 4863  z "
               transform="scale(0.015625)" />
          </defs>
          <use
             xlink:href="#DejaVuSans-73"
             id="use167" />
          <use
             xlink:href="#DejaVuSans-75"
             x="52.099609"
             id="use169" />
          <use
             xlink:href="#DejaVuSans-70"
             x="115.478516"
             id="use171" />
          <use
             xlink:href="#DejaVuSans-70"
             x="178.955078"
             id="use173" />
          <use
             xlink:href="#DejaVuSans-6f"
             x="242.431641"
             id="use175" />
          <use
             xlink:href="#DejaVuSans-72"
             x="303.613281"
             id="use177" />
          <use
             xlink:href="#DejaVuSans-74"
             x="344.726562"
             id="use179" />
          <use
             xlink:href="#DejaVuSans-20"
             x="383.935547"
             id="use181" />
          <use
             xlink:href="#DejaVuSans-76"
             x="415.722656"
             id="use183" />
          <use
             xlink:href="#DejaVuSans-65"
             x="474.902344"
             id="use185" />
          <use
             xlink:href="#DejaVuSans-63"
             x="536.425781"
             id="use187" />
          <use
             xlink:href="#DejaVuSans-74"
             x="591.40625"
             id="use189" />
          <use
             xlink:href="#DejaVuSans-6f"
             x="630.615234"
             id="use191" />
          <use
             xlink:href="#DejaVuSans-72"
             x="691.796875"
             id="use193" />
          <use
             xlink:href="#DejaVuSans-20"
             x="732.910156"
             id="use195" />
          <use
             xlink:href="#DejaVuSans-6d"
             x="764.697266"
             id="use197" />
          <use
             xlink:href="#DejaVuSans-61"
             x="862.109375"
             id="use199" />
          <use
             xlink:href="#DejaVuSans-63"
             x="923.388672"
             id="use201" />
          <use
             xlink:href="#DejaVuSans-68"
             x="978.369141"
             id="use203" />
          <use
             xlink:href="#DejaVuSans-69"
             x="1041.748047"
             id="use205" />
          <use
             xlink:href="#DejaVuSans-6e"
             x="1069.53125"
             id="use207" />
          <use
             xlink:href="#DejaVuSans-65"
             x="1132.910156"
             id="use209" />
        </g>
      </g>
      <g
         id="text_5">
        <g
           id="patch_6">
          <path
             d="M 699.15753 642.874623  L 764.726851 642.874623  L 764.726851 627.418087  L 699.15753 627.418087  z "
             style="fill: #ffffff; opacity: 0.78"
             id="path214" />
        </g>
        <!-- regression -->
        <g
           style="fill: #333333"
           transform="translate(701.166695 638.407555) scale(0.118186 -0.118186)"
           id="g240">
          <defs
             id="defs218">
            <path
               id="DejaVuSans-67"
               d="M 2906 1791  Q 2906 2416 2648 2759  Q 2391 3103 1925 3103  Q 1463 3103 1205 2759  Q 947 2416 947 1791  Q 947 1169 1205 825  Q 1463 481 1925 481  Q 2391 481 2648 825  Q 2906 1169 2906 1791  z M 3481 434  Q 3481 -459 3084 -895  Q 2688 -1331 1869 -1331  Q 1566 -1331 1297 -1286  Q 1028 -1241 775 -1147  L 775 -588  Q 1028 -725 1275 -790  Q 1522 -856 1778 -856  Q 2344 -856 2625 -561  Q 2906 -266 2906 331  L 2906 616  Q 2728 306 2450 153  Q 2172 0 1784 0  Q 1141 0 747 490  Q 353 981 353 1791  Q 353 2603 747 3093  Q 1141 3584 1784 3584  Q 2172 3584 2450 3431  Q 2728 3278 2906 2969  L 2906 3500  L 3481 3500  L 3481 434  z "
               transform="scale(0.015625)" />
          </defs>
          <use
             xlink:href="#DejaVuSans-72"
             id="use220" />
          <use
             xlink:href="#DejaVuSans-65"
             x="38.863281"
             id="use222" />
          <use
             xlink:href="#DejaVuSans-67"
             x="100.386719"
             id="use224" />
          <use
             xlink:href="#DejaVuSans-72"
             x="163.863281"
             id="use226" />
          <use
             xlink:href="#DejaVuSans-65"
             x="202.726562"
             id="use228" />
          <use
             xlink:href="#DejaVuSans-73"
             x="264.25"
             id="use230" />
          <use
             xlink:href="#DejaVuSans-73"
             x="316.349609"
             id="use232" />
          <use
             xlink:href="#DejaVuSans-69"
             x="368.449219"
             id="use234" />
          <use
             xlink:href="#DejaVuSans-6f"
             x="396.232422"
             id="use236" />
          <use
             xlink:href="#DejaVuSans-6e"
             x="457.414062"
             id="use238" />
        </g>
      </g>
      <g
         id="text_6">
        <g
           id="patch_7">
          <path
             d="M 545.376927 775.4531  L 653.290783 775.4531  L 653.290783 760.056281  L 545.376927 760.056281  z "
             style="fill: #ffffff; opacity: 0.78"
             id="path243" />
        </g>
        <!-- foundation model -->
        <g
           style="fill: #333333"
           transform="translate(547.378329 771.003291) scale(0.11773 -0.11773)"
           id="g278">
          <use
             xlink:href="#DejaVuSans-66"
             id="use246" />
          <use
             xlink:href="#DejaVuSans-6f"
             x="35.205078"
             id="use248" />
          <use
             xlink:href="#DejaVuSans-75"
             x="96.386719"
             id="use250" />
          <use
             xlink:href="#DejaVuSans-6e"
             x="159.765625"
             id="use252" />
          <use
             xlink:href="#DejaVuSans-64"
             x="223.144531"
             id="use254" />
          <use
             xlink:href="#DejaVuSans-61"
             x="286.621094"
             id="use256" />
          <use
             xlink:href="#DejaVuSans-74"
             x="347.900391"
             id="use258" />
          <use
             xlink:href="#DejaVuSans-69"
             x="387.109375"
             id="use260" />
          <use
             xlink:href="#DejaVuSans-6f"
             x="414.892578"
             id="use262" />
          <use
             xlink:href="#DejaVuSans-6e"
             x="476.074219"
             id="use264" />
          <use
             xlink:href="#DejaVuSans-20"
             x="539.453125"
             id="use266" />
          <use
             xlink:href="#DejaVuSans-6d"
             x="571.240234"
             id="use268" />
          <use
             xlink:href="#DejaVuSans-6f"
             x="668.652344"
             id="use270" />
          <use
             xlink:href="#DejaVuSans-64"
             x="729.833984"
             id="use272" />
          <use
             xlink:href="#DejaVuSans-65"
             x="793.310547"
             id="use274" />
          <use
             xlink:href="#DejaVuSans-6c"
             x="854.833984"
             id="use276" />
        </g>
      </g>
      <g
         id="text_7">
        <g
           id="patch_8">
          <path
             d="M 360.010169 823.855558  L 476.364831 823.855558  L 476.364831 808.729862  L 360.010169 808.729862  z "
             style="fill: #ffffff; opacity: 0.78"
             id="path281" />
        </g>
        <!-- supervised learning -->
        <g
           style="fill: #333333"
           transform="translate(362.060629 819.436036) scale(0.113914 -0.113914)"
           id="g322">
          <use
             xlink:href="#DejaVuSans-73"
             id="use284" />
          <use
             xlink:href="#DejaVuSans-75"
             x="52.099609"
             id="use286" />
          <use
             xlink:href="#DejaVuSans-70"
             x="115.478516"
             id="use288" />
          <use
             xlink:href="#DejaVuSans-65"
             x="178.955078"
             id="use290" />
          <use
             xlink:href="#DejaVuSans-72"
             x="240.478516"
             id="use292" />
          <use
             xlink:href="#DejaVuSans-76"
             x="281.591797"
             id="use294" />
          <use
             xlink:href="#DejaVuSans-69"
             x="340.771484"
             id="use296" />
          <use
             xlink:href="#DejaVuSans-73"
             x="368.554688"
             id="use298" />
          <use
             xlink:href="#DejaVuSans-65"
             x="420.654297"
             id="use300" />
          <use
             xlink:href="#DejaVuSans-64"
             x="482.177734"
             id="use302" />
          <use
             xlink:href="#DejaVuSans-20"
             x="545.654297"
             id="use304" />
          <use
             xlink:href="#DejaVuSans-6c"
             x="577.441406"
             id="use306" />
          <use
             xlink:href="#DejaVuSans-65"
             x="605.224609"
             id="use308" />
          <use
             xlink:href="#DejaVuSans-61"
             x="666.748047"
             id="use310" />
          <use
             xlink:href="#DejaVuSans-72"
             x="728.027344"
             id="use312" />
          <use
             xlink:href="#DejaVuSans-6e"
             x="767.390625"
             id="use314" />
          <use
             xlink:href="#DejaVuSans-69"
             x="830.769531"
             id="use316" />
          <use
             xlink:href="#DejaVuSans-6e"
             x="858.552734"
             id="use318" />
          <use
             xlink:href="#DejaVuSans-67"
             x="921.931641"
             id="use320" />
        </g>
      </g>
      <g
         id="text_8">
        <g
           id="patch_9">
          <path
             d="M 224.304785 774.990524  L 249.777505 774.990524  L 249.777505 760.518858  L 224.304785 760.518858  z "
             style="fill: #ffffff; opacity: 0.78"
             id="path325" />
        </g>
        <!-- LLM -->
        <g
           style="fill: #333333"
           transform="translate(226.266583 770.7621) scale(0.108989 -0.108989)"
           id="g338">
          <defs
             id="defs330">
            <path
               id="DejaVuSans-4c"
               d="M 628 4666  L 1259 4666  L 1259 531  L 3531 531  L 3531 0  L 628 0  L 628 4666  z "
               transform="scale(0.015625)" />
            <path
               id="DejaVuSans-4d"
               d="M 628 4666  L 1569 4666  L 2759 1491  L 3956 4666  L 4897 4666  L 4897 0  L 4281 0  L 4281 4097  L 3078 897  L 2444 897  L 1241 4097  L 1241 0  L 628 0  L 628 4666  z "
               transform="scale(0.015625)" />
          </defs>
          <use
             xlink:href="#DejaVuSans-4c"
             id="use332" />
          <use
             xlink:href="#DejaVuSans-4c"
             x="55.712891"
             id="use334" />
          <use
             xlink:href="#DejaVuSans-4d"
             x="111.425781"
             id="use336" />
        </g>
      </g>
      <g
         id="text_9">
        <g
           id="patch_10">
          <path
             d="M 40.684032 642.411955  L 168.181587 642.411955  L 168.181587 627.880755  L 40.684032 627.880755  z "
             style="fill: #ffffff; opacity: 0.78"
             id="path341" />
        </g>
        <!-- reinforcement learning -->
        <g
           style="fill: #333333"
           transform="translate(42.732483 638.121326) scale(0.107813 -0.107813)"
           id="g388">
          <use
             xlink:href="#DejaVuSans-72"
             id="use344" />
          <use
             xlink:href="#DejaVuSans-65"
             x="38.863281"
             id="use346" />
          <use
             xlink:href="#DejaVuSans-69"
             x="100.386719"
             id="use348" />
          <use
             xlink:href="#DejaVuSans-6e"
             x="128.169922"
             id="use350" />
          <use
             xlink:href="#DejaVuSans-66"
             x="191.548828"
             id="use352" />
          <use
             xlink:href="#DejaVuSans-6f"
             x="226.753906"
             id="use354" />
          <use
             xlink:href="#DejaVuSans-72"
             x="287.935547"
             id="use356" />
          <use
             xlink:href="#DejaVuSans-63"
             x="326.798828"
             id="use358" />
          <use
             xlink:href="#DejaVuSans-65"
             x="381.779297"
             id="use360" />
          <use
             xlink:href="#DejaVuSans-6d"
             x="443.302734"
             id="use362" />
          <use
             xlink:href="#DejaVuSans-65"
             x="540.714844"
             id="use364" />
          <use
             xlink:href="#DejaVuSans-6e"
             x="602.238281"
             id="use366" />
          <use
             xlink:href="#DejaVuSans-74"
             x="665.617188"
             id="use368" />
          <use
             xlink:href="#DejaVuSans-20"
             x="704.826172"
             id="use370" />
          <use
             xlink:href="#DejaVuSans-6c"
             x="736.613281"
             id="use372" />
          <use
             xlink:href="#DejaVuSans-65"
             x="764.396484"
             id="use374" />
          <use
             xlink:href="#DejaVuSans-61"
             x="825.919922"
             id="use376" />
          <use
             xlink:href="#DejaVuSans-72"
             x="887.199219"
             id="use378" />
          <use
             xlink:href="#DejaVuSans-6e"
             x="926.5625"
             id="use380" />
          <use
             xlink:href="#DejaVuSans-69"
             x="989.941406"
             id="use382" />
          <use
             xlink:href="#DejaVuSans-6e"
             x="1017.724609"
             id="use384" />
          <use
             xlink:href="#DejaVuSans-67"
             x="1081.103516"
             id="use386" />
        </g>
      </g>
      <g
         id="text_10">
        <g
           id="patch_11">
          <path
             d="M 6.975383 461.2656  L 104.814196 461.2656  L 104.814196 446.7344  L 6.975383 446.7344  z "
             style="fill: #ffffff; opacity: 0.78"
             id="path391" />
        </g>
        <!-- machine learning -->
        <g
           style="fill: #333333"
           transform="translate(9.023835 456.974971) scale(0.107813 -0.107813)"
           id="g426">
          <use
             xlink:href="#DejaVuSans-6d"
             id="use394" />
          <use
             xlink:href="#DejaVuSans-61"
             x="97.412109"
             id="use396" />
          <use
             xlink:href="#DejaVuSans-63"
             x="158.691406"
             id="use398" />
          <use
             xlink:href="#DejaVuSans-68"
             x="213.671875"
             id="use400" />
          <use
             xlink:href="#DejaVuSans-69"
             x="277.050781"
             id="use402" />
          <use
             xlink:href="#DejaVuSans-6e"
             x="304.833984"
             id="use404" />
          <use
             xlink:href="#DejaVuSans-65"
             x="368.212891"
             id="use406" />
          <use
             xlink:href="#DejaVuSans-20"
             x="429.736328"
             id="use408" />
          <use
             xlink:href="#DejaVuSans-6c"
             x="461.523438"
             id="use410" />
          <use
             xlink:href="#DejaVuSans-65"
             x="489.306641"
             id="use412" />
          <use
             xlink:href="#DejaVuSans-61"
             x="550.830078"
             id="use414" />
          <use
             xlink:href="#DejaVuSans-72"
             x="612.109375"
             id="use416" />
          <use
             xlink:href="#DejaVuSans-6e"
             x="651.472656"
             id="use418" />
          <use
             xlink:href="#DejaVuSans-69"
             x="714.851562"
             id="use420" />
          <use
             xlink:href="#DejaVuSans-6e"
             x="742.634766"
             id="use422" />
          <use
             xlink:href="#DejaVuSans-67"
             x="806.013672"
             id="use424" />
        </g>
      </g>
      <g
         id="text_11">
        <g
           id="patch_12">
          <path
             d="M 81.629471 280.119245  L 127.236148 280.119245  L 127.236148 265.588045  L 81.629471 265.588045  z "
             style="fill: #ffffff; opacity: 0.78"
             id="path429" />
        </g>
        <!-- chatgpt -->
        <g
           style="fill: #333333"
           transform="translate(83.677922 275.828616) scale(0.107813 -0.107813)"
           id="g446">
          <use
             xlink:href="#DejaVuSans-63"
             id="use432" />
          <use
             xlink:href="#DejaVuSans-68"
             x="54.980469"
             id="use434" />
          <use
             xlink:href="#DejaVuSans-61"
             x="118.359375"
             id="use436" />
          <use
             xlink:href="#DejaVuSans-74"
             x="179.638672"
             id="use438" />
          <use
             xlink:href="#DejaVuSans-67"
             x="218.847656"
             id="use440" />
          <use
             xlink:href="#DejaVuSans-70"
             x="282.324219"
             id="use442" />
          <use
             xlink:href="#DejaVuSans-74"
             x="345.800781"
             id="use444" />
        </g>
      </g>
      <g
         id="text_12">
        <g
           id="patch_13">
          <path
             d="M 190.008332 147.084372  L 284.073957 147.084372  L 284.073957 133.406247  L 190.008332 133.406247  z "
             style="fill: #ffffff; opacity: 0.78"
             id="path449" />
        </g>
        <!-- statistical method -->
        <g
           style="fill: #333333"
           transform="translate(192.008332 143.004684) scale(0.1 -0.1)"
           id="g488">
          <use
             xlink:href="#DejaVuSans-73"
             id="use452" />
          <use
             xlink:href="#DejaVuSans-74"
             x="52.099609"
             id="use454" />
          <use
             xlink:href="#DejaVuSans-61"
             x="91.308594"
             id="use456" />
          <use
             xlink:href="#DejaVuSans-74"
             x="152.587891"
             id="use458" />
          <use
             xlink:href="#DejaVuSans-69"
             x="191.796875"
             id="use460" />
          <use
             xlink:href="#DejaVuSans-73"
             x="219.580078"
             id="use462" />
          <use
             xlink:href="#DejaVuSans-74"
             x="271.679688"
             id="use464" />
          <use
             xlink:href="#DejaVuSans-69"
             x="310.888672"
             id="use466" />
          <use
             xlink:href="#DejaVuSans-63"
             x="338.671875"
             id="use468" />
          <use
             xlink:href="#DejaVuSans-61"
             x="393.652344"
             id="use470" />
          <use
             xlink:href="#DejaVuSans-6c"
             x="454.931641"
             id="use472" />
          <use
             xlink:href="#DejaVuSans-20"
             x="482.714844"
             id="use474" />
          <use
             xlink:href="#DejaVuSans-6d"
             x="514.501953"
             id="use476" />
          <use
             xlink:href="#DejaVuSans-65"
             x="611.914062"
             id="use478" />
          <use
             xlink:href="#DejaVuSans-74"
             x="673.4375"
             id="use480" />
          <use
             xlink:href="#DejaVuSans-68"
             x="712.646484"
             id="use482" />
          <use
             xlink:href="#DejaVuSans-6f"
             x="776.025391"
             id="use484" />
          <use
             xlink:href="#DejaVuSans-64"
             x="837.207031"
             id="use486" />
        </g>
      </g>
      <g
         id="text_13">
        <!-- AI methods: Collective Decisions -->
        <g
           style="fill: #2a5f7f"
           transform="translate(271.141563 25.112057) scale(0.18 -0.18)"
           id="g562">
          <defs
             id="defs496">
            <path
               id="DejaVuSans-41"
               d="M 2188 4044  L 1331 1722  L 3047 1722  L 2188 4044  z M 1831 4666  L 2547 4666  L 4325 0  L 3669 0  L 3244 1197  L 1141 1197  L 716 0  L 50 0  L 1831 4666  z "
               transform="scale(0.015625)" />
            <path
               id="DejaVuSans-49"
               d="M 628 4666  L 1259 4666  L 1259 0  L 628 0  L 628 4666  z "
               transform="scale(0.015625)" />
            <path
               id="DejaVuSans-3a"
               d="M 750 794  L 1409 794  L 1409 0  L 750 0  L 750 794  z M 750 3309  L 1409 3309  L 1409 2516  L 750 2516  L 750 3309  z "
               transform="scale(0.015625)" />
            <path
               id="DejaVuSans-43"
               d="M 4122 4306  L 4122 3641  Q 3803 3938 3442 4084  Q 3081 4231 2675 4231  Q 1875 4231 1450 3742  Q 1025 3253 1025 2328  Q 1025 1406 1450 917  Q 1875 428 2675 428  Q 3081 428 3442 575  Q 3803 722 4122 1019  L 4122 359  Q 3791 134 3420 21  Q 3050 -91 2638 -91  Q 1578 -91 968 557  Q 359 1206 359 2328  Q 359 3453 968 4101  Q 1578 4750 2638 4750  Q 3056 4750 3426 4639  Q 3797 4528 4122 4306  z "
               transform="scale(0.015625)" />
            <path
               id="DejaVuSans-44"
               d="M 1259 4147  L 1259 519  L 2022 519  Q 2988 519 3436 956  Q 3884 1394 3884 2338  Q 3884 3275 3436 3711  Q 2988 4147 2022 4147  L 1259 4147  z M 628 4666  L 1925 4666  Q 3281 4666 3915 4102  Q 4550 3538 4550 2338  Q 4550 1131 3912 565  Q 3275 0 1925 0  L 628 0  L 628 4666  z "
               transform="scale(0.015625)" />
          </defs>
          <use
             xlink:href="#DejaVuSans-41"
             id="use498" />
          <use
             xlink:href="#DejaVuSans-49"
             x="68.408203"
             id="use500" />
          <use
             xlink:href="#DejaVuSans-20"
             x="97.900391"
             id="use502" />
          <use
             xlink:href="#DejaVuSans-6d"
             x="129.6875"
             id="use504" />
          <use
             xlink:href="#DejaVuSans-65"
             x="227.099609"
             id="use506" />
          <use
             xlink:href="#DejaVuSans-74"
             x="288.623047"
             id="use508" />
          <use
             xlink:href="#DejaVuSans-68"
             x="327.832031"
             id="use510" />
          <use
             xlink:href="#DejaVuSans-6f"
             x="391.210938"
             id="use512" />
          <use
             xlink:href="#DejaVuSans-64"
             x="452.392578"
             id="use514" />
          <use
             xlink:href="#DejaVuSans-73"
             x="515.869141"
             id="use516" />
          <use
             xlink:href="#DejaVuSans-3a"
             x="567.96875"
             id="use518" />
          <use
             xlink:href="#DejaVuSans-20"
             x="601.660156"
             id="use520" />
          <use
             xlink:href="#DejaVuSans-43"
             x="633.447266"
             id="use522" />
          <use
             xlink:href="#DejaVuSans-6f"
             x="703.271484"
             id="use524" />
          <use
             xlink:href="#DejaVuSans-6c"
             x="764.453125"
             id="use526" />
          <use
             xlink:href="#DejaVuSans-6c"
             x="792.236328"
             id="use528" />
          <use
             xlink:href="#DejaVuSans-65"
             x="820.019531"
             id="use530" />
          <use
             xlink:href="#DejaVuSans-63"
             x="881.542969"
             id="use532" />
          <use
             xlink:href="#DejaVuSans-74"
             x="936.523438"
             id="use534" />
          <use
             xlink:href="#DejaVuSans-69"
             x="975.732422"
             id="use536" />
          <use
             xlink:href="#DejaVuSans-76"
             x="1003.515625"
             id="use538" />
          <use
             xlink:href="#DejaVuSans-65"
             x="1062.695312"
             id="use540" />
          <use
             xlink:href="#DejaVuSans-20"
             x="1124.21875"
             id="use542" />
          <use
             xlink:href="#DejaVuSans-44"
             x="1156.005859"
             id="use544" />
          <use
             xlink:href="#DejaVuSans-65"
             x="1233.007812"
             id="use546" />
          <use
             xlink:href="#DejaVuSans-63"
             x="1294.53125"
             id="use548" />
          <use
             xlink:href="#DejaVuSans-69"
             x="1349.511719"
             id="use550" />
          <use
             xlink:href="#DejaVuSans-73"
             x="1377.294922"
             id="use552" />
          <use
             xlink:href="#DejaVuSans-69"
             x="1429.394531"
             id="use554" />
          <use
             xlink:href="#DejaVuSans-6f"
             x="1457.177734"
             id="use556" />
          <use
             xlink:href="#DejaVuSans-6e"
             x="1518.359375"
             id="use558" />
          <use
             xlink:href="#DejaVuSans-73"
             x="1581.738281"
             id="use560" />
        </g>
      </g>
      <g
         id="text_14">
        <g
           id="patch_14">
          <path
             d="M 312.952188 435.564365  L 523.422813 435.564365  L 523.422813 410.22374  L 312.952188 410.22374  z "
             style="fill: #ffffff; opacity: 0.85"
             id="path565" />
        </g>
        <!-- Collective Decisions -->
        <g
           style="fill: #2a5f7f"
           transform="translate(316.912188 427.860927) scale(0.18 -0.18)"
           id="g622">
          <defs
             id="defs580">
            <path
               id="DejaVuSans-Bold-43"
               d="M 4288 256  Q 3956 84 3597 -3  Q 3238 -91 2847 -91  Q 1681 -91 1000 561  Q 319 1213 319 2328  Q 319 3447 1000 4098  Q 1681 4750 2847 4750  Q 3238 4750 3597 4662  Q 3956 4575 4288 4403  L 4288 3438  Q 3953 3666 3628 3772  Q 3303 3878 2944 3878  Q 2300 3878 1931 3465  Q 1563 3053 1563 2328  Q 1563 1606 1931 1193  Q 2300 781 2944 781  Q 3303 781 3628 887  Q 3953 994 4288 1222  L 4288 256  z "
               transform="scale(0.015625)" />
            <path
               id="DejaVuSans-Bold-6f"
               d="M 2203 2784  Q 1831 2784 1636 2517  Q 1441 2250 1441 1747  Q 1441 1244 1636 976  Q 1831 709 2203 709  Q 2569 709 2762 976  Q 2956 1244 2956 1747  Q 2956 2250 2762 2517  Q 2569 2784 2203 2784  z M 2203 3584  Q 3106 3584 3614 3096  Q 4122 2609 4122 1747  Q 4122 884 3614 396  Q 3106 -91 2203 -91  Q 1297 -91 786 396  Q 275 884 275 1747  Q 275 2609 786 3096  Q 1297 3584 2203 3584  z "
               transform="scale(0.015625)" />
            <path
               id="DejaVuSans-Bold-6c"
               d="M 538 4863  L 1656 4863  L 1656 0  L 538 0  L 538 4863  z "
               transform="scale(0.015625)" />
            <path
               id="DejaVuSans-Bold-65"
               d="M 4031 1759  L 4031 1441  L 1416 1441  Q 1456 1047 1700 850  Q 1944 653 2381 653  Q 2734 653 3104 758  Q 3475 863 3866 1075  L 3866 213  Q 3469 63 3072 -14  Q 2675 -91 2278 -91  Q 1328 -91 801 392  Q 275 875 275 1747  Q 275 2603 792 3093  Q 1309 3584 2216 3584  Q 3041 3584 3536 3087  Q 4031 2591 4031 1759  z M 2881 2131  Q 2881 2450 2695 2645  Q 2509 2841 2209 2841  Q 1884 2841 1681 2658  Q 1478 2475 1428 2131  L 2881 2131  z "
               transform="scale(0.015625)" />
            <path
               id="DejaVuSans-Bold-63"
               d="M 3366 3391  L 3366 2478  Q 3138 2634 2908 2709  Q 2678 2784 2431 2784  Q 1963 2784 1702 2511  Q 1441 2238 1441 1747  Q 1441 1256 1702 982  Q 1963 709 2431 709  Q 2694 709 2930 787  Q 3166 866 3366 1019  L 3366 103  Q 3103 6 2833 -42  Q 2563 -91 2291 -91  Q 1344 -91 809 395  Q 275 881 275 1747  Q 275 2613 809 3098  Q 1344 3584 2291 3584  Q 2566 3584 2833 3536  Q 3100 3488 3366 3391  z "
               transform="scale(0.015625)" />
            <path
               id="DejaVuSans-Bold-74"
               d="M 1759 4494  L 1759 3500  L 2913 3500  L 2913 2700  L 1759 2700  L 1759 1216  Q 1759 972 1856 886  Q 1953 800 2241 800  L 2816 800  L 2816 0  L 1856 0  Q 1194 0 917 276  Q 641 553 641 1216  L 641 2700  L 84 2700  L 84 3500  L 641 3500  L 641 4494  L 1759 4494  z "
               transform="scale(0.015625)" />
            <path
               id="DejaVuSans-Bold-69"
               d="M 538 3500  L 1656 3500  L 1656 0  L 538 0  L 538 3500  z M 538 4863  L 1656 4863  L 1656 3950  L 538 3950  L 538 4863  z "
               transform="scale(0.015625)" />
            <path
               id="DejaVuSans-Bold-76"
               d="M 97 3500  L 1216 3500  L 2088 1081  L 2956 3500  L 4078 3500  L 2700 0  L 1472 0  L 97 3500  z "
               transform="scale(0.015625)" />
            <path
               id="DejaVuSans-Bold-20"
               transform="scale(0.015625)" />
            <path
               id="DejaVuSans-Bold-44"
               d="M 1791 3756  L 1791 909  L 2222 909  Q 2959 909 3348 1275  Q 3738 1641 3738 2338  Q 3738 3031 3350 3393  Q 2963 3756 2222 3756  L 1791 3756  z M 588 4666  L 1856 4666  Q 2919 4666 3439 4514  Q 3959 4363 4331 4000  Q 4659 3684 4818 3271  Q 4978 2859 4978 2338  Q 4978 1809 4818 1395  Q 4659 981 4331 666  Q 3956 303 3431 151  Q 2906 0 1856 0  L 588 0  L 588 4666  z "
               transform="scale(0.015625)" />
            <path
               id="DejaVuSans-Bold-73"
               d="M 3272 3391  L 3272 2541  Q 2913 2691 2578 2766  Q 2244 2841 1947 2841  Q 1628 2841 1473 2761  Q 1319 2681 1319 2516  Q 1319 2381 1436 2309  Q 1553 2238 1856 2203  L 2053 2175  Q 2913 2066 3209 1816  Q 3506 1566 3506 1031  Q 3506 472 3093 190  Q 2681 -91 1863 -91  Q 1516 -91 1145 -36  Q 775 19 384 128  L 384 978  Q 719 816 1070 734  Q 1422 653 1784 653  Q 2113 653 2278 743  Q 2444 834 2444 1013  Q 2444 1163 2330 1236  Q 2216 1309 1875 1350  L 1678 1375  Q 931 1469 631 1722  Q 331 1975 331 2491  Q 331 3047 712 3315  Q 1094 3584 1881 3584  Q 2191 3584 2531 3537  Q 2872 3491 3272 3391  z "
               transform="scale(0.015625)" />
            <path
               id="DejaVuSans-Bold-6e"
               d="M 4056 2131  L 4056 0  L 2931 0  L 2931 347  L 2931 1631  Q 2931 2084 2911 2256  Q 2891 2428 2841 2509  Q 2775 2619 2662 2680  Q 2550 2741 2406 2741  Q 2056 2741 1856 2470  Q 1656 2200 1656 1722  L 1656 0  L 538 0  L 538 3500  L 1656 3500  L 1656 2988  Q 1909 3294 2193 3439  Q 2478 3584 2822 3584  Q 3428 3584 3742 3212  Q 4056 2841 4056 2131  z "
               transform="scale(0.015625)" />
          </defs>
          <use
             xlink:href="#DejaVuSans-Bold-43"
             id="use582" />
          <use
             xlink:href="#DejaVuSans-Bold-6f"
             x="73.388672"
             id="use584" />
          <use
             xlink:href="#DejaVuSans-Bold-6c"
             x="142.089844"
             id="use586" />
          <use
             xlink:href="#DejaVuSans-Bold-6c"
             x="176.367188"
             id="use588" />
          <use
             xlink:href="#DejaVuSans-Bold-65"
             x="210.644531"
             id="use590" />
          <use
             xlink:href="#DejaVuSans-Bold-63"
             x="278.466797"
             id="use592" />
          <use
             xlink:href="#DejaVuSans-Bold-74"
             x="337.744141"
             id="use594" />
          <use
             xlink:href="#DejaVuSans-Bold-69"
             x="385.546875"
             id="use596" />
          <use
             xlink:href="#DejaVuSans-Bold-76"
             x="419.824219"
             id="use598" />
          <use
             xlink:href="#DejaVuSans-Bold-65"
             x="485.009766"
             id="use600" />
          <use
             xlink:href="#DejaVuSans-Bold-20"
             x="552.832031"
             id="use602" />
          <use
             xlink:href="#DejaVuSans-Bold-44"
             x="587.646484"
             id="use604" />
          <use
             xlink:href="#DejaVuSans-Bold-65"
             x="670.654297"
             id="use606" />
          <use
             xlink:href="#DejaVuSans-Bold-63"
             x="738.476562"
             id="use608" />
          <use
             xlink:href="#DejaVuSans-Bold-69"
             x="797.753906"
             id="use610" />
          <use
             xlink:href="#DejaVuSans-Bold-73"
             x="832.03125"
             id="use612" />
          <use
             xlink:href="#DejaVuSans-Bold-69"
             x="891.552734"
             id="use614" />
          <use
             xlink:href="#DejaVuSans-Bold-6f"
             x="925.830078"
             id="use616" />
          <use
             xlink:href="#DejaVuSans-Bold-6e"
             x="994.53125"
             id="use618" />
          <use
             xlink:href="#DejaVuSans-Bold-73"
             x="1065.722656"
             id="use620" />
        </g>
      </g>
    </g>
  </g>
  <defs
     id="defs630">
    <clipPath
       id="p031e0953c7">
      <path
         d="M 817.075443 454  C 817.075443 401.618515 806.757432 349.746375 786.711906 301.352193  C 766.66638 252.958011 737.283172 208.982934 700.243869 171.943631  C 663.204566 134.904328 619.229489 105.52112 570.835307 85.475594  C 522.441125 65.430068 470.568985 55.112057 418.1875 55.112057  C 365.806015 55.112057 313.933875 65.430068 265.539693 85.475594  C 217.145511 105.52112 173.170434 134.904328 136.131131 171.943631  C 99.091828 208.982934 69.70862 252.958011 49.663094 301.352193  C 29.617568 349.746375 19.299557 401.618515 19.299557 454  C 19.299557 506.381485 29.617568 558.253625 49.663094 606.647807  C 69.70862 655.041989 99.091828 699.017066 136.131131 736.056369  C 173.170434 773.095672 217.145511 802.47888 265.539693 822.524406  C 313.933875 842.569932 365.806015 852.887943 418.1875 852.887943  C 470.568985 852.887943 522.441125 842.569932 570.835307 822.524406  C 619.229489 802.47888 663.204566 773.095672 700.243869 736.056369  C 737.283172 699.017066 766.66638 655.041989 786.711906 606.647807  C 806.757432 558.253625 817.075443 506.381485 817.075443 454  M 418.1875 454  C 418.1875 454 418.1875 454 418.1875 454  C 418.1875 454 418.1875 454 418.1875 454  C 418.1875 454 418.1875 454 418.1875 454  C 418.1875 454 418.1875 454 418.1875 454  C 418.1875 454 418.1875 454 418.1875 454  C 418.1875 454 418.1875 454 418.1875 454  C 418.1875 454 418.1875 454 418.1875 454  C 418.1875 454 418.1875 454 418.1875 454  C 418.1875 454 418.1875 454 418.1875 454  C 418.1875 454 418.1875 454 418.1875 454  C 418.1875 454 418.1875 454 418.1875 454  C 418.1875 454 418.1875 454 418.1875 454  C 418.1875 454 418.1875 454 418.1875 454  C 418.1875 454 418.1875 454 418.1875 454  C 418.1875 454 418.1875 454 418.1875 454  C 418.1875 454 418.1875 454 418.1875 454  z "
         id="path627" />
    </clipPath>
  </defs>
</svg>
