<?xml version="1.0" encoding="UTF-8" standalone="no"?>
<svg
   xmlns:dc="http://purl.org/dc/elements/1.1/"
   xmlns:cc="http://creativecommons.org/ns#"
   xmlns:rdf="http://www.w3.org/1999/02/22-rdf-syntax-ns#"
   xmlns:svg="http://www.w3.org/2000/svg"
   xmlns="http://www.w3.org/2000/svg"
   xmlns:xlink="http://www.w3.org/1999/xlink"
   xmlns:sodipodi="http://sodipodi.sourceforge.net/DTD/sodipodi-0.dtd"
   xmlns:inkscape="http://www.inkscape.org/namespaces/inkscape"
   width="864pt"
   height="864pt"
   viewBox="0 0 864 864"
   version="1.1"
   id="svg545"
   sodipodi:docname="earth_system_clockwork.svg"
   inkscape:export-filename="/home/erikz/SRC/AI/Deep_mind_roundtable/Lit search/lit_review_deepmind/plots/final_new/earth_system_clockwork.png"
   inkscape:export-xdpi="96"
   inkscape:export-ydpi="96"
   inkscape:version="0.92.5 (2060ec1f9f, 2020-04-08)">
  <sodipodi:namedview
     pagecolor="#ffffff"
     bordercolor="#666666"
     borderopacity="1"
     objecttolerance="10"
     gridtolerance="10"
     guidetolerance="10"
     inkscape:pageopacity="0"
     inkscape:pageshadow="2"
     inkscape:window-width="778"
     inkscape:window-height="480"
     id="namedview547"
     showgrid="false"
     inkscape:zoom="0.20486111"
     inkscape:cx="576"
     inkscape:cy="576"
     inkscape:window-x="72"
     inkscape:window-y="27"
     inkscape:window-maximized="0"
     inkscape:current-layer="svg545" />
  <metadata
     id="metadata2">
    <rdf:RDF>
      <cc:Work>
        <dc:type
           rdf:resource="http://purl.org/dc/dcmitype/StillImage" />
        <dc:date>2025-05-01T14:37:31.979729</dc:date>
        <dc:format>image/svg+xml</dc:format>
        <dc:creator>
          <cc:Agent>
            <dc:title>Matplotlib v3.7.5, https://matplotlib.org/</dc:title>
          </cc:Agent>
        </dc:creator>
      </cc:Work>
    </rdf:RDF>
  </metadata>
  <defs
     id="defs6">
    <style
       type="text/css"
       id="style4">*{stroke-linejoin: round; stroke-linecap: butt}</style>
  </defs>
  <g
     id="figure_1">
    <g
       id="patch_1">
      <path
         d="M 0 864  L 864 864  L 864 0  L 0 0  L 0 864  z "
         style="fill: none"
         id="path8" />
    </g>
    <g
       id="axes_1">
      <g
         id="PathCollection_1">
        <path
           d="M 418.1875 254.937412  C 436.815641 254.937412 454.683329 247.536373 467.855413 234.364288  C 481.027498 221.192204 488.428536 203.324516 488.428536 184.696375  C 488.428536 166.068235 481.027498 148.200547 467.855413 135.028462  C 454.683329 121.856378 436.815641 114.455339 418.1875 114.455339  C 399.559359 114.455339 381.691671 121.856378 368.519587 135.028462  C 355.347502 148.200547 347.946464 166.068235 347.946464 184.696375  C 347.946464 203.324516 355.347502 221.192204 368.519587 234.364288  C 381.691671 247.536373 399.559359 254.937412 418.1875 254.937412  z "
           clip-path="url(#p1c097905fe)"
           style="fill: #4682b4; fill-opacity: 0.85; stroke: #ffffff; stroke-opacity: 0.85; stroke-width: 1.5"
           id="path11" />
        <path
           d="M 552.839312 285.110008  C 569.900832 285.110008 586.265854 278.331394 598.33017 266.267078  C 610.394487 254.202761 617.173101 237.83774 617.173101 220.77622  C 617.173101 203.7147 610.394487 187.349678 598.33017 175.285362  C 586.265854 163.221045 569.900832 156.442431 552.839312 156.442431  C 535.777792 156.442431 519.412771 163.221045 507.348454 175.285362  C 495.284138 187.349678 488.505524 203.7147 488.505524 220.77622  C 488.505524 237.83774 495.284138 254.202761 507.348454 266.267078  C 519.412771 278.331394 535.777792 285.110008 552.839312 285.110008  z "
           clip-path="url(#p1c097905fe)"
           style="fill: #4682b4; fill-opacity: 0.85; stroke: #ffffff; stroke-opacity: 0.85; stroke-width: 1.5"
           id="path13" />
        <path
           d="M 651.41128 374.617581  C 666.068895 374.617581 680.128145 368.794049 690.492643 358.42955  C 700.857142 348.065052 706.680674 334.005802 706.680674 319.348188  C 706.680674 304.690573 700.857142 290.631323 690.492643 280.266825  C 680.128145 269.902326 666.068895 264.078794 651.41128 264.078794  C 636.753666 264.078794 622.694416 269.902326 612.329918 280.266825  C 601.965419 290.631323 596.141887 304.690573 596.141887 319.348188  C 596.141887 334.005802 601.965419 348.065052 612.329918 358.42955  C 622.694416 368.794049 636.753666 374.617581 651.41128 374.617581  z "
           clip-path="url(#p1c097905fe)"
           style="fill: #4682b4; fill-opacity: 0.85; stroke: #ffffff; stroke-opacity: 0.85; stroke-width: 1.5"
           id="path15" />
        <path
           d="M 687.491125 500.197525  C 699.742852 500.197525 711.494429 495.329863 720.157708 486.666583  C 728.820987 478.003304 733.68865 466.251727 733.68865 454  C 733.68865 441.748273 728.820987 429.996696 720.157708 421.333417  C 711.494429 412.670137 699.742852 407.802475 687.491125 407.802475  C 675.239398 407.802475 663.487821 412.670137 654.824541 421.333417  C 646.161262 429.996696 641.293599 441.748273 641.293599 454  C 641.293599 466.251727 646.161262 478.003304 654.824541 486.666583  C 663.487821 495.329863 675.239398 500.197525 687.491125 500.197525  z "
           clip-path="url(#p1c097905fe)"
           style="fill: #4682b4; fill-opacity: 0.85; stroke: #ffffff; stroke-opacity: 0.85; stroke-width: 1.5"
           id="path17" />
        <path
           d="M 651.41128 634.849338  C 663.663007 634.849338 675.414585 629.981675 684.077864 621.318396  C 692.741143 612.655117 697.608806 600.903539 697.608806 588.651812  C 697.608806 576.400085 692.741143 564.648508 684.077864 555.985229  C 675.414585 547.32195 663.663007 542.454287 651.41128 542.454287  C 639.159553 542.454287 627.407976 547.32195 618.744697 555.985229  C 610.081418 564.648508 605.213755 576.400085 605.213755 588.651812  C 605.213755 600.903539 610.081418 612.655117 618.744697 621.318396  C 627.407976 629.981675 639.159553 634.849338 651.41128 634.849338  z "
           clip-path="url(#p1c097905fe)"
           style="fill: #4682b4; fill-opacity: 0.85; stroke: #ffffff; stroke-opacity: 0.85; stroke-width: 1.5"
           id="path19" />
        <path
           d="M 552.839312 733.036873  C 564.989087 733.036873 576.642873 728.209717 585.234061 719.618529  C 593.825249 711.027341 598.652405 699.373555 598.652405 687.22378  C 598.652405 675.074006 593.825249 663.42022 585.234061 654.829032  C 576.642873 646.237844 564.989087 641.410688 552.839312 641.410688  C 540.689538 641.410688 529.035752 646.237844 520.444564 654.829032  C 511.853376 663.42022 507.02622 675.074006 507.02622 687.22378  C 507.02622 699.373555 511.853376 711.027341 520.444564 719.618529  C 529.035752 728.209717 540.689538 733.036873 552.839312 733.036873  z "
           clip-path="url(#p1c097905fe)"
           style="fill: #4682b4; fill-opacity: 0.85; stroke: #ffffff; stroke-opacity: 0.85; stroke-width: 1.5"
           id="path21" />
        <path
           d="M 418.1875 759.353118  C 427.747937 759.353118 436.918091 755.554716 443.678341 748.794466  C 450.438591 742.034216 454.236993 732.864062 454.236993 723.303625  C 454.236993 713.743187 450.438591 704.573034 443.678341 697.812784  C 436.918091 691.052533 427.747937 687.254131 418.1875 687.254131  C 408.627063 687.254131 399.456909 691.052533 392.696659 697.812784  C 385.936409 704.573034 382.138007 713.743187 382.138007 723.303625  C 382.138007 732.864062 385.936409 742.034216 392.696659 748.794466  C 399.456909 755.554716 408.627063 759.353118 418.1875 759.353118  z "
           clip-path="url(#p1c097905fe)"
           style="fill: #4682b4; fill-opacity: 0.85; stroke: #ffffff; stroke-opacity: 0.85; stroke-width: 1.5"
           id="path23" />
        <path
           d="M 283.535688 722.469007  C 292.882831 722.469007 301.848398 718.755347 308.457826 712.145919  C 315.067255 705.536491 318.780914 696.570924 318.780914 687.22378  C 318.780914 677.876637 315.067255 668.91107 308.457826 662.301642  C 301.848398 655.692213 292.882831 651.978554 283.535688 651.978554  C 274.188544 651.978554 265.222977 655.692213 258.613549 662.301642  C 252.004121 668.91107 248.290461 677.876637 248.290461 687.22378  C 248.290461 696.570924 252.004121 705.536491 258.613549 712.145919  C 265.222977 718.755347 274.188544 722.469007 283.535688 722.469007  z "
           clip-path="url(#p1c097905fe)"
           style="fill: #4682b4; fill-opacity: 0.85; stroke: #ffffff; stroke-opacity: 0.85; stroke-width: 1.5"
           id="path25" />
        <path
           d="M 184.96372 620.13662  C 193.313588 620.13662 201.322592 616.819182 207.22684 610.914933  C 213.131089 605.010684 216.448527 597.001681 216.448527 588.651812  C 216.448527 580.301944 213.131089 572.29294 207.22684 566.388692  C 201.322592 560.484443 193.313588 557.167005 184.96372 557.167005  C 176.613851 557.167005 168.604848 560.484443 162.700599 566.388692  C 156.79635 572.29294 153.478912 580.301944 153.478912 588.651812  C 153.478912 597.001681 156.79635 605.010684 162.700599 610.914933  C 168.604848 616.819182 176.613851 620.13662 184.96372 620.13662  z "
           clip-path="url(#p1c097905fe)"
           style="fill: #4682b4; fill-opacity: 0.85; stroke: #ffffff; stroke-opacity: 0.85; stroke-width: 1.5"
           id="path27" />
        <path
           d="M 148.883875 476.946568  C 154.969376 476.946568 160.80645 474.528773 165.109549 470.225674  C 169.412648 465.922575 171.830443 460.085501 171.830443 454  C 171.830443 447.914499 169.412648 442.077425 165.109549 437.774326  C 160.80645 433.471227 154.969376 431.053432 148.883875 431.053432  C 142.798374 431.053432 136.9613 433.471227 132.658201 437.774326  C 128.355102 442.077425 125.937307 447.914499 125.937307 454  C 125.937307 460.085501 128.355102 465.922575 132.658201 470.225674  C 136.9613 474.528773 142.798374 476.946568 148.883875 476.946568  z "
           clip-path="url(#p1c097905fe)"
           style="fill: #4682b4; fill-opacity: 0.85; stroke: #ffffff; stroke-opacity: 0.85; stroke-width: 1.5"
           id="path29" />
        <path
           d="M 184.96372 340.196975  C 190.492883 340.196975 195.79633 338.000215 199.706039 334.090507  C 203.615747 330.180798 205.812507 324.877351 205.812507 319.348188  C 205.812507 313.819025 203.615747 308.515577 199.706039 304.605869  C 195.79633 300.69616 190.492883 298.4994 184.96372 298.4994  C 179.434557 298.4994 174.131109 300.69616 170.221401 304.605869  C 166.311692 308.515577 164.114932 313.819025 164.114932 319.348188  C 164.114932 324.877351 166.311692 330.180798 170.221401 334.090507  C 174.131109 338.000215 179.434557 340.196975 184.96372 340.196975  z "
           clip-path="url(#p1c097905fe)"
           style="fill: #4682b4; fill-opacity: 0.85; stroke: #ffffff; stroke-opacity: 0.85; stroke-width: 1.5"
           id="path31" />
        <path
           d="M 283.535688 236.071719  C 287.592102 236.071719 291.482921 234.460089 294.351239 231.591771  C 297.219557 228.723453 298.831187 224.832634 298.831187 220.77622  C 298.831187 216.719806 297.219557 212.828986 294.351239 209.960668  C 291.482921 207.09235 287.592102 205.48072 283.535688 205.48072  C 279.479274 205.48072 275.588454 207.09235 272.720136 209.960668  C 269.851818 212.828986 268.240188 216.719806 268.240188 220.77622  C 268.240188 224.832634 269.851818 228.723453 272.720136 231.591771  C 275.588454 234.460089 279.479274 236.071719 283.535688 236.071719  z "
           clip-path="url(#p1c097905fe)"
           style="fill: #4682b4; fill-opacity: 0.85; stroke: #ffffff; stroke-opacity: 0.85; stroke-width: 1.5"
           id="path33" />
      </g>
      <g
         id="PathCollection_2">
        <defs
           id="defs37">
          <path
             id="m7ca4fc6cf9"
             d="M 0 93.541409  C 24.807472 93.541409 48.602233 83.685296 66.143765 66.143765  C 83.685296 48.602233 93.541409 24.807472 93.541409 0  C 93.541409 -24.807472 83.685296 -48.602233 66.143765 -66.143765  C 48.602233 -83.685296 24.807472 -93.541409 0 -93.541409  C -24.807472 -93.541409 -48.602233 -83.685296 -66.143765 -66.143765  C -83.685296 -48.602233 -93.541409 -24.807472 -93.541409 0  C -93.541409 24.807472 -83.685296 48.602233 -66.143765 66.143765  C -48.602233 83.685296 -24.807472 93.541409 0 93.541409  z "
             style="stroke: #ffffff; stroke-opacity: 0.92; stroke-width: 2" />
        </defs>
        <g
           clip-path="url(#p1c097905fe)"
           id="g41">
          <use
             xlink:href="#m7ca4fc6cf9"
             x="418.1875"
             y="454"
             style="fill: #2a5f7f; fill-opacity: 0.92; stroke: #ffffff; stroke-opacity: 0.92; stroke-width: 2"
             id="use39" />
        </g>
      </g>
      <g
         id="text_1">
        <g
           id="patch_2">
          <path
             d="M 356.904085 108.137245  L 479.470915 108.137245  L 479.470915 88.901188  L 356.904085 88.901188  z "
             style="fill: #ffffff; opacity: 0.78"
             id="path44" />
        </g>
        <!-- neural network -->
        <g
           style="fill: #333333"
           transform="translate(358.940787 102.842311) scale(0.156669 -0.156669)"
           id="g88">
          <defs
             id="defs58">
            <path
               id="DejaVuSans-6e"
               d="M 3513 2113  L 3513 0  L 2938 0  L 2938 2094  Q 2938 2591 2744 2837  Q 2550 3084 2163 3084  Q 1697 3084 1428 2787  Q 1159 2491 1159 1978  L 1159 0  L 581 0  L 581 3500  L 1159 3500  L 1159 2956  Q 1366 3272 1645 3428  Q 1925 3584 2291 3584  Q 2894 3584 3203 3211  Q 3513 2838 3513 2113  z "
               transform="scale(0.015625)" />
            <path
               id="DejaVuSans-65"
               d="M 3597 1894  L 3597 1613  L 953 1613  Q 991 1019 1311 708  Q 1631 397 2203 397  Q 2534 397 2845 478  Q 3156 559 3463 722  L 3463 178  Q 3153 47 2828 -22  Q 2503 -91 2169 -91  Q 1331 -91 842 396  Q 353 884 353 1716  Q 353 2575 817 3079  Q 1281 3584 2069 3584  Q 2775 3584 3186 3129  Q 3597 2675 3597 1894  z M 3022 2063  Q 3016 2534 2758 2815  Q 2500 3097 2075 3097  Q 1594 3097 1305 2825  Q 1016 2553 972 2059  L 3022 2063  z "
               transform="scale(0.015625)" />
            <path
               id="DejaVuSans-75"
               d="M 544 1381  L 544 3500  L 1119 3500  L 1119 1403  Q 1119 906 1312 657  Q 1506 409 1894 409  Q 2359 409 2629 706  Q 2900 1003 2900 1516  L 2900 3500  L 3475 3500  L 3475 0  L 2900 0  L 2900 538  Q 2691 219 2414 64  Q 2138 -91 1772 -91  Q 1169 -91 856 284  Q 544 659 544 1381  z M 1991 3584  L 1991 3584  z "
               transform="scale(0.015625)" />
            <path
               id="DejaVuSans-72"
               d="M 2631 2963  Q 2534 3019 2420 3045  Q 2306 3072 2169 3072  Q 1681 3072 1420 2755  Q 1159 2438 1159 1844  L 1159 0  L 581 0  L 581 3500  L 1159 3500  L 1159 2956  Q 1341 3275 1631 3429  Q 1922 3584 2338 3584  Q 2397 3584 2469 3576  Q 2541 3569 2628 3553  L 2631 2963  z "
               transform="scale(0.015625)" />
            <path
               id="DejaVuSans-61"
               d="M 2194 1759  Q 1497 1759 1228 1600  Q 959 1441 959 1056  Q 959 750 1161 570  Q 1363 391 1709 391  Q 2188 391 2477 730  Q 2766 1069 2766 1631  L 2766 1759  L 2194 1759  z M 3341 1997  L 3341 0  L 2766 0  L 2766 531  Q 2569 213 2275 61  Q 1981 -91 1556 -91  Q 1019 -91 701 211  Q 384 513 384 1019  Q 384 1609 779 1909  Q 1175 2209 1959 2209  L 2766 2209  L 2766 2266  Q 2766 2663 2505 2880  Q 2244 3097 1772 3097  Q 1472 3097 1187 3025  Q 903 2953 641 2809  L 641 3341  Q 956 3463 1253 3523  Q 1550 3584 1831 3584  Q 2591 3584 2966 3190  Q 3341 2797 3341 1997  z "
               transform="scale(0.015625)" />
            <path
               id="DejaVuSans-6c"
               d="M 603 4863  L 1178 4863  L 1178 0  L 603 0  L 603 4863  z "
               transform="scale(0.015625)" />
            <path
               id="DejaVuSans-20"
               transform="scale(0.015625)" />
            <path
               id="DejaVuSans-74"
               d="M 1172 4494  L 1172 3500  L 2356 3500  L 2356 3053  L 1172 3053  L 1172 1153  Q 1172 725 1289 603  Q 1406 481 1766 481  L 2356 481  L 2356 0  L 1766 0  Q 1100 0 847 248  Q 594 497 594 1153  L 594 3053  L 172 3053  L 172 3500  L 594 3500  L 594 4494  L 1172 4494  z "
               transform="scale(0.015625)" />
            <path
               id="DejaVuSans-77"
               d="M 269 3500  L 844 3500  L 1563 769  L 2278 3500  L 2956 3500  L 3675 769  L 4391 3500  L 4966 3500  L 4050 0  L 3372 0  L 2619 2869  L 1863 0  L 1184 0  L 269 3500  z "
               transform="scale(0.015625)" />
            <path
               id="DejaVuSans-6f"
               d="M 1959 3097  Q 1497 3097 1228 2736  Q 959 2375 959 1747  Q 959 1119 1226 758  Q 1494 397 1959 397  Q 2419 397 2687 759  Q 2956 1122 2956 1747  Q 2956 2369 2687 2733  Q 2419 3097 1959 3097  z M 1959 3584  Q 2709 3584 3137 3096  Q 3566 2609 3566 1747  Q 3566 888 3137 398  Q 2709 -91 1959 -91  Q 1206 -91 779 398  Q 353 888 353 1747  Q 353 2609 779 3096  Q 1206 3584 1959 3584  z "
               transform="scale(0.015625)" />
            <path
               id="DejaVuSans-6b"
               d="M 581 4863  L 1159 4863  L 1159 1991  L 2875 3500  L 3609 3500  L 1753 1863  L 3688 0  L 2938 0  L 1159 1709  L 1159 0  L 581 0  L 581 4863  z "
               transform="scale(0.015625)" />
          </defs>
          <use
             xlink:href="#DejaVuSans-6e"
             id="use60" />
          <use
             xlink:href="#DejaVuSans-65"
             x="63.378906"
             id="use62" />
          <use
             xlink:href="#DejaVuSans-75"
             x="124.902344"
             id="use64" />
          <use
             xlink:href="#DejaVuSans-72"
             x="188.28125"
             id="use66" />
          <use
             xlink:href="#DejaVuSans-61"
             x="229.394531"
             id="use68" />
          <use
             xlink:href="#DejaVuSans-6c"
             x="290.673828"
             id="use70" />
          <use
             xlink:href="#DejaVuSans-20"
             x="318.457031"
             id="use72" />
          <use
             xlink:href="#DejaVuSans-6e"
             x="350.244141"
             id="use74" />
          <use
             xlink:href="#DejaVuSans-65"
             x="413.623047"
             id="use76" />
          <use
             xlink:href="#DejaVuSans-74"
             x="475.146484"
             id="use78" />
          <use
             xlink:href="#DejaVuSans-77"
             x="514.355469"
             id="use80" />
          <use
             xlink:href="#DejaVuSans-6f"
             x="596.142578"
             id="use82" />
          <use
             xlink:href="#DejaVuSans-72"
             x="657.324219"
             id="use84" />
          <use
             xlink:href="#DejaVuSans-6b"
             x="698.4375"
             id="use86" />
        </g>
      </g>
      <g
         id="text_2">
        <g
           id="patch_3">
          <path
             d="M 540.049069 155.495629  L 651.806715 155.495629  L 651.806715 136.793592  L 540.049069 136.793592  z "
             style="fill: #ffffff; opacity: 0.78"
             id="path91" />
        </g>
        <!-- random forest -->
        <g
           style="fill: #333333"
           transform="translate(542.029229 150.34769) scale(0.15232 -0.15232)"
           id="g126">
          <defs
             id="defs98">
            <path
               id="DejaVuSans-64"
               d="M 2906 2969  L 2906 4863  L 3481 4863  L 3481 0  L 2906 0  L 2906 525  Q 2725 213 2448 61  Q 2172 -91 1784 -91  Q 1150 -91 751 415  Q 353 922 353 1747  Q 353 2572 751 3078  Q 1150 3584 1784 3584  Q 2172 3584 2448 3432  Q 2725 3281 2906 2969  z M 947 1747  Q 947 1113 1208 752  Q 1469 391 1925 391  Q 2381 391 2643 752  Q 2906 1113 2906 1747  Q 2906 2381 2643 2742  Q 2381 3103 1925 3103  Q 1469 3103 1208 2742  Q 947 2381 947 1747  z "
               transform="scale(0.015625)" />
            <path
               id="DejaVuSans-6d"
               d="M 3328 2828  Q 3544 3216 3844 3400  Q 4144 3584 4550 3584  Q 5097 3584 5394 3201  Q 5691 2819 5691 2113  L 5691 0  L 5113 0  L 5113 2094  Q 5113 2597 4934 2840  Q 4756 3084 4391 3084  Q 3944 3084 3684 2787  Q 3425 2491 3425 1978  L 3425 0  L 2847 0  L 2847 2094  Q 2847 2600 2669 2842  Q 2491 3084 2119 3084  Q 1678 3084 1418 2786  Q 1159 2488 1159 1978  L 1159 0  L 581 0  L 581 3500  L 1159 3500  L 1159 2956  Q 1356 3278 1631 3431  Q 1906 3584 2284 3584  Q 2666 3584 2933 3390  Q 3200 3197 3328 2828  z "
               transform="scale(0.015625)" />
            <path
               id="DejaVuSans-66"
               d="M 2375 4863  L 2375 4384  L 1825 4384  Q 1516 4384 1395 4259  Q 1275 4134 1275 3809  L 1275 3500  L 2222 3500  L 2222 3053  L 1275 3053  L 1275 0  L 697 0  L 697 3053  L 147 3053  L 147 3500  L 697 3500  L 697 3744  Q 697 4328 969 4595  Q 1241 4863 1831 4863  L 2375 4863  z "
               transform="scale(0.015625)" />
            <path
               id="DejaVuSans-73"
               d="M 2834 3397  L 2834 2853  Q 2591 2978 2328 3040  Q 2066 3103 1784 3103  Q 1356 3103 1142 2972  Q 928 2841 928 2578  Q 928 2378 1081 2264  Q 1234 2150 1697 2047  L 1894 2003  Q 2506 1872 2764 1633  Q 3022 1394 3022 966  Q 3022 478 2636 193  Q 2250 -91 1575 -91  Q 1294 -91 989 -36  Q 684 19 347 128  L 347 722  Q 666 556 975 473  Q 1284 391 1588 391  Q 1994 391 2212 530  Q 2431 669 2431 922  Q 2431 1156 2273 1281  Q 2116 1406 1581 1522  L 1381 1569  Q 847 1681 609 1914  Q 372 2147 372 2553  Q 372 3047 722 3315  Q 1072 3584 1716 3584  Q 2034 3584 2315 3537  Q 2597 3491 2834 3397  z "
               transform="scale(0.015625)" />
          </defs>
          <use
             xlink:href="#DejaVuSans-72"
             id="use100" />
          <use
             xlink:href="#DejaVuSans-61"
             x="41.113281"
             id="use102" />
          <use
             xlink:href="#DejaVuSans-6e"
             x="102.392578"
             id="use104" />
          <use
             xlink:href="#DejaVuSans-64"
             x="165.771484"
             id="use106" />
          <use
             xlink:href="#DejaVuSans-6f"
             x="229.248047"
             id="use108" />
          <use
             xlink:href="#DejaVuSans-6d"
             x="290.429688"
             id="use110" />
          <use
             xlink:href="#DejaVuSans-20"
             x="387.841797"
             id="use112" />
          <use
             xlink:href="#DejaVuSans-66"
             x="419.628906"
             id="use114" />
          <use
             xlink:href="#DejaVuSans-6f"
             x="454.833984"
             id="use116" />
          <use
             xlink:href="#DejaVuSans-72"
             x="516.015625"
             id="use118" />
          <use
             xlink:href="#DejaVuSans-65"
             x="554.878906"
             id="use120" />
          <use
             xlink:href="#DejaVuSans-73"
             x="616.402344"
             id="use122" />
          <use
             xlink:href="#DejaVuSans-74"
             x="668.501953"
             id="use124" />
        </g>
      </g>
      <g
         id="text_3">
        <g
           id="patch_4">
          <path
             d="M 708.093927 285.310591  L 743.991852 285.310591  L 743.991852 267.208625  L 708.093927 267.208625  z "
             style="fill: #ffffff; opacity: 0.78"
             id="path129" />
        </g>
        <!-- CNN -->
        <g
           style="fill: #333333"
           transform="translate(710.124901 280.262622) scale(0.14507 -0.14507)"
           id="g142">
          <defs
             id="defs134">
            <path
               id="DejaVuSans-43"
               d="M 4122 4306  L 4122 3641  Q 3803 3938 3442 4084  Q 3081 4231 2675 4231  Q 1875 4231 1450 3742  Q 1025 3253 1025 2328  Q 1025 1406 1450 917  Q 1875 428 2675 428  Q 3081 428 3442 575  Q 3803 722 4122 1019  L 4122 359  Q 3791 134 3420 21  Q 3050 -91 2638 -91  Q 1578 -91 968 557  Q 359 1206 359 2328  Q 359 3453 968 4101  Q 1578 4750 2638 4750  Q 3056 4750 3426 4639  Q 3797 4528 4122 4306  z "
               transform="scale(0.015625)" />
            <path
               id="DejaVuSans-4e"
               d="M 628 4666  L 1478 4666  L 3547 763  L 3547 4666  L 4159 4666  L 4159 0  L 3309 0  L 1241 3903  L 1241 0  L 628 0  L 628 4666  z "
               transform="scale(0.015625)" />
          </defs>
          <use
             xlink:href="#DejaVuSans-43"
             id="use136" />
          <use
             xlink:href="#DejaVuSans-4e"
             x="69.824219"
             id="use138" />
          <use
             xlink:href="#DejaVuSans-4e"
             x="144.628906"
             id="use140" />
        </g>
      </g>
      <g
         id="text_4">
        <g
           id="patch_5">
          <path
             d="M 689.613884 462.703198  L 857.722684 462.703198  L 857.722684 445.296802  L 689.613884 445.296802  z "
             style="fill: #ffffff; opacity: 0.78"
             id="path145" />
        </g>
        <!-- support vector machine -->
        <g
           style="fill: #333333"
           transform="translate(691.673305 457.788476) scale(0.137295 -0.137295)"
           id="g199">
          <defs
             id="defs153">
            <path
               id="DejaVuSans-70"
               d="M 1159 525  L 1159 -1331  L 581 -1331  L 581 3500  L 1159 3500  L 1159 2969  Q 1341 3281 1617 3432  Q 1894 3584 2278 3584  Q 2916 3584 3314 3078  Q 3713 2572 3713 1747  Q 3713 922 3314 415  Q 2916 -91 2278 -91  Q 1894 -91 1617 61  Q 1341 213 1159 525  z M 3116 1747  Q 3116 2381 2855 2742  Q 2594 3103 2138 3103  Q 1681 3103 1420 2742  Q 1159 2381 1159 1747  Q 1159 1113 1420 752  Q 1681 391 2138 391  Q 2594 391 2855 752  Q 3116 1113 3116 1747  z "
               transform="scale(0.015625)" />
            <path
               id="DejaVuSans-76"
               d="M 191 3500  L 800 3500  L 1894 563  L 2988 3500  L 3597 3500  L 2284 0  L 1503 0  L 191 3500  z "
               transform="scale(0.015625)" />
            <path
               id="DejaVuSans-63"
               d="M 3122 3366  L 3122 2828  Q 2878 2963 2633 3030  Q 2388 3097 2138 3097  Q 1578 3097 1268 2742  Q 959 2388 959 1747  Q 959 1106 1268 751  Q 1578 397 2138 397  Q 2388 397 2633 464  Q 2878 531 3122 666  L 3122 134  Q 2881 22 2623 -34  Q 2366 -91 2075 -91  Q 1284 -91 818 406  Q 353 903 353 1747  Q 353 2603 823 3093  Q 1294 3584 2113 3584  Q 2378 3584 2631 3529  Q 2884 3475 3122 3366  z "
               transform="scale(0.015625)" />
            <path
               id="DejaVuSans-68"
               d="M 3513 2113  L 3513 0  L 2938 0  L 2938 2094  Q 2938 2591 2744 2837  Q 2550 3084 2163 3084  Q 1697 3084 1428 2787  Q 1159 2491 1159 1978  L 1159 0  L 581 0  L 581 4863  L 1159 4863  L 1159 2956  Q 1366 3272 1645 3428  Q 1925 3584 2291 3584  Q 2894 3584 3203 3211  Q 3513 2838 3513 2113  z "
               transform="scale(0.015625)" />
            <path
               id="DejaVuSans-69"
               d="M 603 3500  L 1178 3500  L 1178 0  L 603 0  L 603 3500  z M 603 4863  L 1178 4863  L 1178 4134  L 603 4134  L 603 4863  z "
               transform="scale(0.015625)" />
          </defs>
          <use
             xlink:href="#DejaVuSans-73"
             id="use155" />
          <use
             xlink:href="#DejaVuSans-75"
             x="52.099609"
             id="use157" />
          <use
             xlink:href="#DejaVuSans-70"
             x="115.478516"
             id="use159" />
          <use
             xlink:href="#DejaVuSans-70"
             x="178.955078"
             id="use161" />
          <use
             xlink:href="#DejaVuSans-6f"
             x="242.431641"
             id="use163" />
          <use
             xlink:href="#DejaVuSans-72"
             x="303.613281"
             id="use165" />
          <use
             xlink:href="#DejaVuSans-74"
             x="344.726562"
             id="use167" />
          <use
             xlink:href="#DejaVuSans-20"
             x="383.935547"
             id="use169" />
          <use
             xlink:href="#DejaVuSans-76"
             x="415.722656"
             id="use171" />
          <use
             xlink:href="#DejaVuSans-65"
             x="474.902344"
             id="use173" />
          <use
             xlink:href="#DejaVuSans-63"
             x="536.425781"
             id="use175" />
          <use
             xlink:href="#DejaVuSans-74"
             x="591.40625"
             id="use177" />
          <use
             xlink:href="#DejaVuSans-6f"
             x="630.615234"
             id="use179" />
          <use
             xlink:href="#DejaVuSans-72"
             x="691.796875"
             id="use181" />
          <use
             xlink:href="#DejaVuSans-20"
             x="732.910156"
             id="use183" />
          <use
             xlink:href="#DejaVuSans-6d"
             x="764.697266"
             id="use185" />
          <use
             xlink:href="#DejaVuSans-61"
             x="862.109375"
             id="use187" />
          <use
             xlink:href="#DejaVuSans-63"
             x="923.388672"
             id="use189" />
          <use
             xlink:href="#DejaVuSans-68"
             x="978.369141"
             id="use191" />
          <use
             xlink:href="#DejaVuSans-69"
             x="1041.748047"
             id="use193" />
          <use
             xlink:href="#DejaVuSans-6e"
             x="1069.53125"
             id="use195" />
          <use
             xlink:href="#DejaVuSans-65"
             x="1132.910156"
             id="use197" />
        </g>
      </g>
      <g
         id="text_5">
        <g
           id="patch_6">
          <path
             d="M 708.367267 640.44359  L 743.718512 640.44359  L 743.718512 623.037194  L 708.367267 623.037194  z "
             style="fill: #ffffff; opacity: 0.78"
             id="path202" />
        </g>
        <!-- unet -->
        <g
           style="fill: #333333"
           transform="translate(710.426688 635.528868) scale(0.137295 -0.137295)"
           id="g213">
          <use
             xlink:href="#DejaVuSans-75"
             id="use205" />
          <use
             xlink:href="#DejaVuSans-6e"
             x="63.378906"
             id="use207" />
          <use
             xlink:href="#DejaVuSans-65"
             x="126.757812"
             id="use209" />
          <use
             xlink:href="#DejaVuSans-74"
             x="188.28125"
             id="use211" />
        </g>
      </g>
      <g
         id="text_6">
        <g
           id="patch_7">
          <path
             d="M 558.210519 770.537094  L 633.645265 770.537094  L 633.645265 753.173685  L 558.210519 753.173685  z "
             style="fill: #ffffff; opacity: 0.78"
             id="path216" />
        </g>
        <!-- regression -->
        <g
           style="fill: #333333"
           transform="translate(560.264854 765.634509) scale(0.136956 -0.136956)"
           id="g242">
          <defs
             id="defs220">
            <path
               id="DejaVuSans-67"
               d="M 2906 1791  Q 2906 2416 2648 2759  Q 2391 3103 1925 3103  Q 1463 3103 1205 2759  Q 947 2416 947 1791  Q 947 1169 1205 825  Q 1463 481 1925 481  Q 2391 481 2648 825  Q 2906 1169 2906 1791  z M 3481 434  Q 3481 -459 3084 -895  Q 2688 -1331 1869 -1331  Q 1566 -1331 1297 -1286  Q 1028 -1241 775 -1147  L 775 -588  Q 1028 -725 1275 -790  Q 1522 -856 1778 -856  Q 2344 -856 2625 -561  Q 2906 -266 2906 331  L 2906 616  Q 2728 306 2450 153  Q 2172 0 1784 0  Q 1141 0 747 490  Q 353 981 353 1791  Q 353 2603 747 3093  Q 1141 3584 1784 3584  Q 2172 3584 2450 3431  Q 2728 3278 2906 2969  L 2906 3500  L 3481 3500  L 3481 434  z "
               transform="scale(0.015625)" />
          </defs>
          <use
             xlink:href="#DejaVuSans-72"
             id="use222" />
          <use
             xlink:href="#DejaVuSans-65"
             x="38.863281"
             id="use224" />
          <use
             xlink:href="#DejaVuSans-67"
             x="100.386719"
             id="use226" />
          <use
             xlink:href="#DejaVuSans-72"
             x="163.863281"
             id="use228" />
          <use
             xlink:href="#DejaVuSans-65"
             x="202.726562"
             id="use230" />
          <use
             xlink:href="#DejaVuSans-73"
             x="264.25"
             id="use232" />
          <use
             xlink:href="#DejaVuSans-73"
             x="316.349609"
             id="use234" />
          <use
             xlink:href="#DejaVuSans-69"
             x="368.449219"
             id="use236" />
          <use
             xlink:href="#DejaVuSans-6f"
             x="396.232422"
             id="use238" />
          <use
             xlink:href="#DejaVuSans-6e"
             x="457.414062"
             id="use240" />
        </g>
      </g>
      <g
         id="text_7">
        <g
           id="patch_8">
          <path
             d="M 402.175856 817.727751  L 434.199144 817.727751  L 434.199144 801.233817  L 402.175856 801.233817  z "
             style="fill: #ffffff; opacity: 0.78"
             id="path245" />
        </g>
        <!-- ANN -->
        <g
           style="fill: #333333"
           transform="translate(404.22509 813.014913) scale(0.128077 -0.128077)"
           id="g257">
          <defs
             id="defs249">
            <path
               id="DejaVuSans-41"
               d="M 2188 4044  L 1331 1722  L 3047 1722  L 2188 4044  z M 1831 4666  L 2547 4666  L 4325 0  L 3669 0  L 3244 1197  L 1141 1197  L 716 0  L 50 0  L 1831 4666  z "
               transform="scale(0.015625)" />
          </defs>
          <use
             xlink:href="#DejaVuSans-41"
             id="use251" />
          <use
             xlink:href="#DejaVuSans-4e"
             x="68.408203"
             id="use253" />
          <use
             xlink:href="#DejaVuSans-4e"
             x="143.212891"
             id="use255" />
        </g>
      </g>
      <g
         id="text_8">
        <g
           id="patch_9">
          <path
             d="M 197.23402 770.053582  L 283.660196 770.053582  L 283.660196 753.657197  L 197.23402 753.657197  z "
             style="fill: #ffffff; opacity: 0.78"
             id="path260" />
        </g>
        <!-- classification -->
        <g
           style="fill: #333333"
           transform="translate(199.271134 765.368616) scale(0.12732 -0.12732)"
           id="g291">
          <use
             xlink:href="#DejaVuSans-63"
             id="use263" />
          <use
             xlink:href="#DejaVuSans-6c"
             x="54.980469"
             id="use265" />
          <use
             xlink:href="#DejaVuSans-61"
             x="82.763672"
             id="use267" />
          <use
             xlink:href="#DejaVuSans-73"
             x="144.042969"
             id="use269" />
          <use
             xlink:href="#DejaVuSans-73"
             x="196.142578"
             id="use271" />
          <use
             xlink:href="#DejaVuSans-69"
             x="248.242188"
             id="use273" />
          <use
             xlink:href="#DejaVuSans-66"
             x="276.025391"
             id="use275" />
          <use
             xlink:href="#DejaVuSans-69"
             x="311.230469"
             id="use277" />
          <use
             xlink:href="#DejaVuSans-63"
             x="339.013672"
             id="use279" />
          <use
             xlink:href="#DejaVuSans-61"
             x="393.994141"
             id="use281" />
          <use
             xlink:href="#DejaVuSans-74"
             x="455.273438"
             id="use283" />
          <use
             xlink:href="#DejaVuSans-69"
             x="494.482422"
             id="use285" />
          <use
             xlink:href="#DejaVuSans-6f"
             x="522.265625"
             id="use287" />
          <use
             xlink:href="#DejaVuSans-6e"
             x="583.447266"
             id="use289" />
        </g>
      </g>
      <g
         id="text_9">
        <g
           id="patch_10">
          <path
             d="M 91.864948 639.705975  L 128.799273 639.705975  L 128.799273 623.774809  L 91.864948 623.774809  z "
             style="fill: #ffffff; opacity: 0.78"
             id="path294" />
        </g>
        <!-- LSTM -->
        <g
           style="fill: #333333"
           transform="translate(93.844263 635.153937) scale(0.123707 -0.123707)"
           id="g311">
          <defs
             id="defs301">
            <path
               id="DejaVuSans-4c"
               d="M 628 4666  L 1259 4666  L 1259 531  L 3531 531  L 3531 0  L 628 0  L 628 4666  z "
               transform="scale(0.015625)" />
            <path
               id="DejaVuSans-53"
               d="M 3425 4513  L 3425 3897  Q 3066 4069 2747 4153  Q 2428 4238 2131 4238  Q 1616 4238 1336 4038  Q 1056 3838 1056 3469  Q 1056 3159 1242 3001  Q 1428 2844 1947 2747  L 2328 2669  Q 3034 2534 3370 2195  Q 3706 1856 3706 1288  Q 3706 609 3251 259  Q 2797 -91 1919 -91  Q 1588 -91 1214 -16  Q 841 59 441 206  L 441 856  Q 825 641 1194 531  Q 1563 422 1919 422  Q 2459 422 2753 634  Q 3047 847 3047 1241  Q 3047 1584 2836 1778  Q 2625 1972 2144 2069  L 1759 2144  Q 1053 2284 737 2584  Q 422 2884 422 3419  Q 422 4038 858 4394  Q 1294 4750 2059 4750  Q 2388 4750 2728 4690  Q 3069 4631 3425 4513  z "
               transform="scale(0.015625)" />
            <path
               id="DejaVuSans-54"
               d="M -19 4666  L 3928 4666  L 3928 4134  L 2272 4134  L 2272 0  L 1638 0  L 1638 4134  L -19 4134  L -19 4666  z "
               transform="scale(0.015625)" />
            <path
               id="DejaVuSans-4d"
               d="M 628 4666  L 1569 4666  L 2759 1491  L 3956 4666  L 4897 4666  L 4897 0  L 4281 0  L 4281 4097  L 3078 897  L 2444 897  L 1241 4097  L 1241 0  L 628 0  L 628 4666  z "
               transform="scale(0.015625)" />
          </defs>
          <use
             xlink:href="#DejaVuSans-4c"
             id="use303" />
          <use
             xlink:href="#DejaVuSans-53"
             x="55.712891"
             id="use305" />
          <use
             xlink:href="#DejaVuSans-54"
             x="119.189453"
             id="use307" />
          <use
             xlink:href="#DejaVuSans-4d"
             x="180.273438"
             id="use309" />
        </g>
      </g>
      <g
         id="text_10">
        <g
           id="patch_11">
          <path
             d="M 6.534381 461.504588  L 118.879051 461.504588  L 118.879051 446.495412  L 6.534381 446.495412  z "
             style="fill: #ffffff; opacity: 0.78"
             id="path314" />
        </g>
        <!-- cellular automaton -->
        <g
           style="fill: #333333"
           transform="translate(8.485394 457.166811) scale(0.114766 -0.114766)"
           id="g353">
          <use
             xlink:href="#DejaVuSans-63"
             id="use317" />
          <use
             xlink:href="#DejaVuSans-65"
             x="54.980469"
             id="use319" />
          <use
             xlink:href="#DejaVuSans-6c"
             x="116.503906"
             id="use321" />
          <use
             xlink:href="#DejaVuSans-6c"
             x="144.287109"
             id="use323" />
          <use
             xlink:href="#DejaVuSans-75"
             x="172.070312"
             id="use325" />
          <use
             xlink:href="#DejaVuSans-6c"
             x="235.449219"
             id="use327" />
          <use
             xlink:href="#DejaVuSans-61"
             x="263.232422"
             id="use329" />
          <use
             xlink:href="#DejaVuSans-72"
             x="324.511719"
             id="use331" />
          <use
             xlink:href="#DejaVuSans-20"
             x="365.625"
             id="use333" />
          <use
             xlink:href="#DejaVuSans-61"
             x="397.412109"
             id="use335" />
          <use
             xlink:href="#DejaVuSans-75"
             x="458.691406"
             id="use337" />
          <use
             xlink:href="#DejaVuSans-74"
             x="522.070312"
             id="use339" />
          <use
             xlink:href="#DejaVuSans-6f"
             x="561.279297"
             id="use341" />
          <use
             xlink:href="#DejaVuSans-6d"
             x="622.460938"
             id="use343" />
          <use
             xlink:href="#DejaVuSans-61"
             x="719.873047"
             id="use345" />
          <use
             xlink:href="#DejaVuSans-74"
             x="781.152344"
             id="use347" />
          <use
             xlink:href="#DejaVuSans-6f"
             x="820.361328"
             id="use349" />
          <use
             xlink:href="#DejaVuSans-6e"
             x="881.542969"
             id="use351" />
        </g>
      </g>
      <g
         id="text_11">
        <g
           id="patch_12">
          <path
             d="M 59.519056 283.710892  L 161.145165 283.710892  L 161.145165 268.808324  L 59.519056 268.808324  z "
             style="fill: #ffffff; opacity: 0.78"
             id="path356" />
        </g>
        <!-- machine learning -->
        <g
           style="fill: #333333"
           transform="translate(61.539267 279.356564) scale(0.112234 -0.112234)"
           id="g391">
          <use
             xlink:href="#DejaVuSans-6d"
             id="use359" />
          <use
             xlink:href="#DejaVuSans-61"
             x="97.412109"
             id="use361" />
          <use
             xlink:href="#DejaVuSans-63"
             x="158.691406"
             id="use363" />
          <use
             xlink:href="#DejaVuSans-68"
             x="213.671875"
             id="use365" />
          <use
             xlink:href="#DejaVuSans-69"
             x="277.050781"
             id="use367" />
          <use
             xlink:href="#DejaVuSans-6e"
             x="304.833984"
             id="use369" />
          <use
             xlink:href="#DejaVuSans-65"
             x="368.212891"
             id="use371" />
          <use
             xlink:href="#DejaVuSans-20"
             x="429.736328"
             id="use373" />
          <use
             xlink:href="#DejaVuSans-6c"
             x="461.523438"
             id="use375" />
          <use
             xlink:href="#DejaVuSans-65"
             x="489.306641"
             id="use377" />
          <use
             xlink:href="#DejaVuSans-61"
             x="550.830078"
             id="use379" />
          <use
             xlink:href="#DejaVuSans-72"
             x="612.109375"
             id="use381" />
          <use
             xlink:href="#DejaVuSans-6e"
             x="651.472656"
             id="use383" />
          <use
             xlink:href="#DejaVuSans-69"
             x="714.851562"
             id="use385" />
          <use
             xlink:href="#DejaVuSans-6e"
             x="742.634766"
             id="use387" />
          <use
             xlink:href="#DejaVuSans-67"
             x="806.013672"
             id="use389" />
        </g>
      </g>
      <g
         id="text_12">
        <g
           id="patch_13">
          <path
             d="M 189.176014 152.983673  L 291.718202 152.983673  L 291.718202 139.305548  L 189.176014 139.305548  z "
             style="fill: #ffffff; opacity: 0.78"
             id="path394" />
        </g>
        <!-- supervised learning -->
        <g
           style="fill: #333333"
           transform="translate(191.176014 148.903986) scale(0.1 -0.1)"
           id="g435">
          <use
             xlink:href="#DejaVuSans-73"
             id="use397" />
          <use
             xlink:href="#DejaVuSans-75"
             x="52.099609"
             id="use399" />
          <use
             xlink:href="#DejaVuSans-70"
             x="115.478516"
             id="use401" />
          <use
             xlink:href="#DejaVuSans-65"
             x="178.955078"
             id="use403" />
          <use
             xlink:href="#DejaVuSans-72"
             x="240.478516"
             id="use405" />
          <use
             xlink:href="#DejaVuSans-76"
             x="281.591797"
             id="use407" />
          <use
             xlink:href="#DejaVuSans-69"
             x="340.771484"
             id="use409" />
          <use
             xlink:href="#DejaVuSans-73"
             x="368.554688"
             id="use411" />
          <use
             xlink:href="#DejaVuSans-65"
             x="420.654297"
             id="use413" />
          <use
             xlink:href="#DejaVuSans-64"
             x="482.177734"
             id="use415" />
          <use
             xlink:href="#DejaVuSans-20"
             x="545.654297"
             id="use417" />
          <use
             xlink:href="#DejaVuSans-6c"
             x="577.441406"
             id="use419" />
          <use
             xlink:href="#DejaVuSans-65"
             x="605.224609"
             id="use421" />
          <use
             xlink:href="#DejaVuSans-61"
             x="666.748047"
             id="use423" />
          <use
             xlink:href="#DejaVuSans-72"
             x="728.027344"
             id="use425" />
          <use
             xlink:href="#DejaVuSans-6e"
             x="767.390625"
             id="use427" />
          <use
             xlink:href="#DejaVuSans-69"
             x="830.769531"
             id="use429" />
          <use
             xlink:href="#DejaVuSans-6e"
             x="858.552734"
             id="use431" />
          <use
             xlink:href="#DejaVuSans-67"
             x="921.931641"
             id="use433" />
        </g>
      </g>
      <g
         id="text_13">
        <!-- AI methods: Earth System -->
        <g
           style="fill: #2a5f7f"
           transform="translate(300.622187 32.612058) scale(0.18 -0.18)"
           id="g492">
          <defs
             id="defs442">
            <path
               id="DejaVuSans-49"
               d="M 628 4666  L 1259 4666  L 1259 0  L 628 0  L 628 4666  z "
               transform="scale(0.015625)" />
            <path
               id="DejaVuSans-3a"
               d="M 750 794  L 1409 794  L 1409 0  L 750 0  L 750 794  z M 750 3309  L 1409 3309  L 1409 2516  L 750 2516  L 750 3309  z "
               transform="scale(0.015625)" />
            <path
               id="DejaVuSans-45"
               d="M 628 4666  L 3578 4666  L 3578 4134  L 1259 4134  L 1259 2753  L 3481 2753  L 3481 2222  L 1259 2222  L 1259 531  L 3634 531  L 3634 0  L 628 0  L 628 4666  z "
               transform="scale(0.015625)" />
            <path
               id="DejaVuSans-79"
               d="M 2059 -325  Q 1816 -950 1584 -1140  Q 1353 -1331 966 -1331  L 506 -1331  L 506 -850  L 844 -850  Q 1081 -850 1212 -737  Q 1344 -625 1503 -206  L 1606 56  L 191 3500  L 800 3500  L 1894 763  L 2988 3500  L 3597 3500  L 2059 -325  z "
               transform="scale(0.015625)" />
          </defs>
          <use
             xlink:href="#DejaVuSans-41"
             id="use444" />
          <use
             xlink:href="#DejaVuSans-49"
             x="68.408203"
             id="use446" />
          <use
             xlink:href="#DejaVuSans-20"
             x="97.900391"
             id="use448" />
          <use
             xlink:href="#DejaVuSans-6d"
             x="129.6875"
             id="use450" />
          <use
             xlink:href="#DejaVuSans-65"
             x="227.099609"
             id="use452" />
          <use
             xlink:href="#DejaVuSans-74"
             x="288.623047"
             id="use454" />
          <use
             xlink:href="#DejaVuSans-68"
             x="327.832031"
             id="use456" />
          <use
             xlink:href="#DejaVuSans-6f"
             x="391.210938"
             id="use458" />
          <use
             xlink:href="#DejaVuSans-64"
             x="452.392578"
             id="use460" />
          <use
             xlink:href="#DejaVuSans-73"
             x="515.869141"
             id="use462" />
          <use
             xlink:href="#DejaVuSans-3a"
             x="567.96875"
             id="use464" />
          <use
             xlink:href="#DejaVuSans-20"
             x="601.660156"
             id="use466" />
          <use
             xlink:href="#DejaVuSans-45"
             x="633.447266"
             id="use468" />
          <use
             xlink:href="#DejaVuSans-61"
             x="696.630859"
             id="use470" />
          <use
             xlink:href="#DejaVuSans-72"
             x="757.910156"
             id="use472" />
          <use
             xlink:href="#DejaVuSans-74"
             x="799.023438"
             id="use474" />
          <use
             xlink:href="#DejaVuSans-68"
             x="838.232422"
             id="use476" />
          <use
             xlink:href="#DejaVuSans-20"
             x="901.611328"
             id="use478" />
          <use
             xlink:href="#DejaVuSans-53"
             x="933.398438"
             id="use480" />
          <use
             xlink:href="#DejaVuSans-79"
             x="996.875"
             id="use482" />
          <use
             xlink:href="#DejaVuSans-73"
             x="1056.054688"
             id="use484" />
          <use
             xlink:href="#DejaVuSans-74"
             x="1108.154297"
             id="use486" />
          <use
             xlink:href="#DejaVuSans-65"
             x="1147.363281"
             id="use488" />
          <use
             xlink:href="#DejaVuSans-6d"
             x="1208.886719"
             id="use490" />
        </g>
      </g>
      <g
         id="text_14">
        <g
           id="patch_14">
          <path
             d="M 346.236719 436.219541  L 490.138281 436.219541  L 490.138281 410.738291  L 346.236719 410.738291  z "
             style="fill: #ffffff; opacity: 0.85"
             id="path495" />
        </g>
        <!-- Earth System -->
        <g
           style="fill: #2a5f7f"
           transform="translate(350.196719 428.375478) scale(0.18 -0.18)"
           id="g535">
          <defs
             id="defs509">
            <path
               id="DejaVuSans-Bold-45"
               d="M 588 4666  L 3834 4666  L 3834 3756  L 1791 3756  L 1791 2888  L 3713 2888  L 3713 1978  L 1791 1978  L 1791 909  L 3903 909  L 3903 0  L 588 0  L 588 4666  z "
               transform="scale(0.015625)" />
            <path
               id="DejaVuSans-Bold-61"
               d="M 2106 1575  Q 1756 1575 1579 1456  Q 1403 1338 1403 1106  Q 1403 894 1545 773  Q 1688 653 1941 653  Q 2256 653 2472 879  Q 2688 1106 2688 1447  L 2688 1575  L 2106 1575  z M 3816 1997  L 3816 0  L 2688 0  L 2688 519  Q 2463 200 2181 54  Q 1900 -91 1497 -91  Q 953 -91 614 226  Q 275 544 275 1050  Q 275 1666 698 1953  Q 1122 2241 2028 2241  L 2688 2241  L 2688 2328  Q 2688 2594 2478 2717  Q 2269 2841 1825 2841  Q 1466 2841 1156 2769  Q 847 2697 581 2553  L 581 3406  Q 941 3494 1303 3539  Q 1666 3584 2028 3584  Q 2975 3584 3395 3211  Q 3816 2838 3816 1997  z "
               transform="scale(0.015625)" />
            <path
               id="DejaVuSans-Bold-72"
               d="M 3138 2547  Q 2991 2616 2845 2648  Q 2700 2681 2553 2681  Q 2122 2681 1889 2404  Q 1656 2128 1656 1613  L 1656 0  L 538 0  L 538 3500  L 1656 3500  L 1656 2925  Q 1872 3269 2151 3426  Q 2431 3584 2822 3584  Q 2878 3584 2943 3579  Q 3009 3575 3134 3559  L 3138 2547  z "
               transform="scale(0.015625)" />
            <path
               id="DejaVuSans-Bold-74"
               d="M 1759 4494  L 1759 3500  L 2913 3500  L 2913 2700  L 1759 2700  L 1759 1216  Q 1759 972 1856 886  Q 1953 800 2241 800  L 2816 800  L 2816 0  L 1856 0  Q 1194 0 917 276  Q 641 553 641 1216  L 641 2700  L 84 2700  L 84 3500  L 641 3500  L 641 4494  L 1759 4494  z "
               transform="scale(0.015625)" />
            <path
               id="DejaVuSans-Bold-68"
               d="M 4056 2131  L 4056 0  L 2931 0  L 2931 347  L 2931 1625  Q 2931 2084 2911 2256  Q 2891 2428 2841 2509  Q 2775 2619 2662 2680  Q 2550 2741 2406 2741  Q 2056 2741 1856 2470  Q 1656 2200 1656 1722  L 1656 0  L 538 0  L 538 4863  L 1656 4863  L 1656 2988  Q 1909 3294 2193 3439  Q 2478 3584 2822 3584  Q 3428 3584 3742 3212  Q 4056 2841 4056 2131  z "
               transform="scale(0.015625)" />
            <path
               id="DejaVuSans-Bold-20"
               transform="scale(0.015625)" />
            <path
               id="DejaVuSans-Bold-53"
               d="M 3834 4519  L 3834 3531  Q 3450 3703 3084 3790  Q 2719 3878 2394 3878  Q 1963 3878 1756 3759  Q 1550 3641 1550 3391  Q 1550 3203 1689 3098  Q 1828 2994 2194 2919  L 2706 2816  Q 3484 2659 3812 2340  Q 4141 2022 4141 1434  Q 4141 663 3683 286  Q 3225 -91 2284 -91  Q 1841 -91 1394 -6  Q 947 78 500 244  L 500 1259  Q 947 1022 1364 901  Q 1781 781 2169 781  Q 2563 781 2772 912  Q 2981 1044 2981 1288  Q 2981 1506 2839 1625  Q 2697 1744 2272 1838  L 1806 1941  Q 1106 2091 782 2419  Q 459 2747 459 3303  Q 459 4000 909 4375  Q 1359 4750 2203 4750  Q 2588 4750 2994 4692  Q 3400 4634 3834 4519  z "
               transform="scale(0.015625)" />
            <path
               id="DejaVuSans-Bold-79"
               d="M 78 3500  L 1197 3500  L 2138 1125  L 2938 3500  L 4056 3500  L 2584 -331  Q 2363 -916 2067 -1148  Q 1772 -1381 1288 -1381  L 641 -1381  L 641 -647  L 991 -647  Q 1275 -647 1404 -556  Q 1534 -466 1606 -231  L 1638 -134  L 78 3500  z "
               transform="scale(0.015625)" />
            <path
               id="DejaVuSans-Bold-73"
               d="M 3272 3391  L 3272 2541  Q 2913 2691 2578 2766  Q 2244 2841 1947 2841  Q 1628 2841 1473 2761  Q 1319 2681 1319 2516  Q 1319 2381 1436 2309  Q 1553 2238 1856 2203  L 2053 2175  Q 2913 2066 3209 1816  Q 3506 1566 3506 1031  Q 3506 472 3093 190  Q 2681 -91 1863 -91  Q 1516 -91 1145 -36  Q 775 19 384 128  L 384 978  Q 719 816 1070 734  Q 1422 653 1784 653  Q 2113 653 2278 743  Q 2444 834 2444 1013  Q 2444 1163 2330 1236  Q 2216 1309 1875 1350  L 1678 1375  Q 931 1469 631 1722  Q 331 1975 331 2491  Q 331 3047 712 3315  Q 1094 3584 1881 3584  Q 2191 3584 2531 3537  Q 2872 3491 3272 3391  z "
               transform="scale(0.015625)" />
            <path
               id="DejaVuSans-Bold-65"
               d="M 4031 1759  L 4031 1441  L 1416 1441  Q 1456 1047 1700 850  Q 1944 653 2381 653  Q 2734 653 3104 758  Q 3475 863 3866 1075  L 3866 213  Q 3469 63 3072 -14  Q 2675 -91 2278 -91  Q 1328 -91 801 392  Q 275 875 275 1747  Q 275 2603 792 3093  Q 1309 3584 2216 3584  Q 3041 3584 3536 3087  Q 4031 2591 4031 1759  z M 2881 2131  Q 2881 2450 2695 2645  Q 2509 2841 2209 2841  Q 1884 2841 1681 2658  Q 1478 2475 1428 2131  L 2881 2131  z "
               transform="scale(0.015625)" />
            <path
               id="DejaVuSans-Bold-6d"
               d="M 3781 2919  Q 3994 3244 4286 3414  Q 4578 3584 4928 3584  Q 5531 3584 5847 3212  Q 6163 2841 6163 2131  L 6163 0  L 5038 0  L 5038 1825  Q 5041 1866 5042 1909  Q 5044 1953 5044 2034  Q 5044 2406 4934 2573  Q 4825 2741 4581 2741  Q 4263 2741 4089 2478  Q 3916 2216 3909 1719  L 3909 0  L 2784 0  L 2784 1825  Q 2784 2406 2684 2573  Q 2584 2741 2328 2741  Q 2006 2741 1831 2477  Q 1656 2213 1656 1722  L 1656 0  L 531 0  L 531 3500  L 1656 3500  L 1656 2988  Q 1863 3284 2130 3434  Q 2397 3584 2719 3584  Q 3081 3584 3359 3409  Q 3638 3234 3781 2919  z "
               transform="scale(0.015625)" />
          </defs>
          <use
             xlink:href="#DejaVuSans-Bold-45"
             id="use511" />
          <use
             xlink:href="#DejaVuSans-Bold-61"
             x="68.310547"
             id="use513" />
          <use
             xlink:href="#DejaVuSans-Bold-72"
             x="135.791016"
             id="use515" />
          <use
             xlink:href="#DejaVuSans-Bold-74"
             x="185.107422"
             id="use517" />
          <use
             xlink:href="#DejaVuSans-Bold-68"
             x="232.910156"
             id="use519" />
          <use
             xlink:href="#DejaVuSans-Bold-20"
             x="304.101562"
             id="use521" />
          <use
             xlink:href="#DejaVuSans-Bold-53"
             x="338.916016"
             id="use523" />
          <use
             xlink:href="#DejaVuSans-Bold-79"
             x="410.9375"
             id="use525" />
          <use
             xlink:href="#DejaVuSans-Bold-73"
             x="476.123047"
             id="use527" />
          <use
             xlink:href="#DejaVuSans-Bold-74"
             x="535.644531"
             id="use529" />
          <use
             xlink:href="#DejaVuSans-Bold-65"
             x="583.447266"
             id="use531" />
          <use
             xlink:href="#DejaVuSans-Bold-6d"
             x="651.269531"
             id="use533" />
        </g>
      </g>
    </g>
  </g>
  <defs
     id="defs543">
    <clipPath
       id="p1c097905fe">
      <path
         d="M 809.575442 454  C 809.575442 402.603406 799.451434 351.70658 779.782809 304.222319  C 760.114184 256.738058 731.283448 213.589812 694.940568 177.246932  C 658.597688 140.904052 615.449442 112.073316 567.965181 92.404691  C 520.48092 72.736066 469.584094 62.612058 418.1875 62.612058  C 366.790906 62.612058 315.89408 72.736066 268.409819 92.404691  C 220.925558 112.073316 177.777312 140.904052 141.434432 177.246932  C 105.091552 213.589812 76.260816 256.738058 56.592191 304.222319  C 36.923566 351.70658 26.799558 402.603406 26.799558 454  C 26.799558 505.396594 36.923566 556.29342 56.592191 603.777681  C 76.260816 651.261942 105.091552 694.410188 141.434432 730.753068  C 177.777312 767.095948 220.925558 795.926684 268.409819 815.595309  C 315.89408 835.263934 366.790906 845.387942 418.1875 845.387942  C 469.584094 845.387942 520.48092 835.263934 567.965181 815.595309  C 615.449442 795.926684 658.597688 767.095948 694.940568 730.753068  C 731.283448 694.410188 760.114184 651.261942 779.782809 603.777681  C 799.451434 556.29342 809.575442 505.396594 809.575442 454  M 418.1875 454  C 418.1875 454 418.1875 454 418.1875 454  C 418.1875 454 418.1875 454 418.1875 454  C 418.1875 454 418.1875 454 418.1875 454  C 418.1875 454 418.1875 454 418.1875 454  C 418.1875 454 418.1875 454 418.1875 454  C 418.1875 454 418.1875 454 418.1875 454  C 418.1875 454 418.1875 454 418.1875 454  C 418.1875 454 418.1875 454 418.1875 454  C 418.1875 454 418.1875 454 418.1875 454  C 418.1875 454 418.1875 454 418.1875 454  C 418.1875 454 418.1875 454 418.1875 454  C 418.1875 454 418.1875 454 418.1875 454  C 418.1875 454 418.1875 454 418.1875 454  C 418.1875 454 418.1875 454 418.1875 454  C 418.1875 454 418.1875 454 418.1875 454  C 418.1875 454 418.1875 454 418.1875 454  z "
         id="path540" />
    </clipPath>
  </defs>
</svg>
