<?xml version="1.0" encoding="UTF-8" standalone="no"?>
<svg
   xmlns:dc="http://purl.org/dc/elements/1.1/"
   xmlns:cc="http://creativecommons.org/ns#"
   xmlns:rdf="http://www.w3.org/1999/02/22-rdf-syntax-ns#"
   xmlns:svg="http://www.w3.org/2000/svg"
   xmlns="http://www.w3.org/2000/svg"
   xmlns:xlink="http://www.w3.org/1999/xlink"
   xmlns:sodipodi="http://sodipodi.sourceforge.net/DTD/sodipodi-0.dtd"
   xmlns:inkscape="http://www.inkscape.org/namespaces/inkscape"
   width="864pt"
   height="864pt"
   viewBox="0 0 864 864"
   version="1.1"
   id="svg529"
   sodipodi:docname="global_risks_clockwork.svg"
   inkscape:export-filename="/home/erikz/SRC/AI/Deep_mind_roundtable/Lit search/lit_review_deepmind/plots/final_new/global_risks_clockwork.png"
   inkscape:export-xdpi="96"
   inkscape:export-ydpi="96"
   inkscape:version="0.92.5 (2060ec1f9f, 2020-04-08)">
  <sodipodi:namedview
     pagecolor="#ffffff"
     bordercolor="#666666"
     borderopacity="1"
     objecttolerance="10"
     gridtolerance="10"
     guidetolerance="10"
     inkscape:pageopacity="0"
     inkscape:pageshadow="2"
     inkscape:window-width="778"
     inkscape:window-height="480"
     id="namedview531"
     showgrid="false"
     inkscape:zoom="0.20486111"
     inkscape:cx="576"
     inkscape:cy="576"
     inkscape:window-x="72"
     inkscape:window-y="27"
     inkscape:window-maximized="0"
     inkscape:current-layer="svg529" />
  <metadata
     id="metadata2">
    <rdf:RDF>
      <cc:Work>
        <dc:type
           rdf:resource="http://purl.org/dc/dcmitype/StillImage" />
        <dc:date>2025-05-01T14:36:55.939900</dc:date>
        <dc:format>image/svg+xml</dc:format>
        <dc:creator>
          <cc:Agent>
            <dc:title>Matplotlib v3.7.5, https://matplotlib.org/</dc:title>
          </cc:Agent>
        </dc:creator>
      </cc:Work>
    </rdf:RDF>
  </metadata>
  <defs
     id="defs6">
    <style
       type="text/css"
       id="style4">*{stroke-linejoin: round; stroke-linecap: butt}</style>
  </defs>
  <g
     id="figure_1">
    <g
       id="patch_1">
      <path
         d="M 0 864  L 864 864  L 864 0  L 0 0  L 0 864  z "
         style="fill: none"
         id="path8" />
    </g>
    <g
       id="axes_1">
      <g
         id="PathCollection_1">
        <path
           d="M 437.15662 246.69951  C 455.025582 246.69951 472.165083 239.600096 484.800346 226.964832  C 497.43561 214.329569 504.535024 197.190068 504.535024 179.321106  C 504.535024 161.452144 497.43561 144.312644 484.800346 131.67738  C 472.165083 119.042116 455.025582 111.942702 437.15662 111.942702  C 419.287659 111.942702 402.148158 119.042116 389.512894 131.67738  C 376.87763 144.312644 369.778216 161.452144 369.778216 179.321106  C 369.778216 197.190068 376.87763 214.329569 389.512894 226.964832  C 402.148158 239.600096 419.287659 246.69951 437.15662 246.69951  z "
           clip-path="url(#pbc9efe4d94)"
           style="fill: #4682b4; fill-opacity: 0.85; stroke: #ffffff; stroke-opacity: 0.85; stroke-width: 1.5"
           id="path11" />
        <path
           d="M 574.496067 271.881788  C 589.283974 271.881788 603.468198 266.00649 613.924828 255.549861  C 624.381457 245.093231 630.256755 230.909007 630.256755 216.1211  C 630.256755 201.333193 624.381457 187.148969 613.924828 176.692339  C 603.468198 166.23571 589.283974 160.360412 574.496067 160.360412  C 559.70816 160.360412 545.523936 166.23571 535.067306 176.692339  C 524.610677 187.148969 518.735379 201.333193 518.735379 216.1211  C 518.735379 230.909007 524.610677 245.093231 535.067306 255.549861  C 545.523936 266.00649 559.70816 271.881788 574.496067 271.881788  z "
           clip-path="url(#pbc9efe4d94)"
           style="fill: #4682b4; fill-opacity: 0.85; stroke: #ffffff; stroke-opacity: 0.85; stroke-width: 1.5"
           id="path13" />
        <path
           d="M 675.03552 370.779716  C 689.38809 370.779716 703.154748 365.07738 713.303547 354.92858  C 723.452347 344.779781 729.154683 331.013123 729.154683 316.660553  C 729.154683 302.307983 723.452347 288.541325 713.303547 278.392526  C 703.154748 268.243726 689.38809 262.54139 675.03552 262.54139  C 660.68295 262.54139 646.916292 268.243726 636.767493 278.392526  C 626.618693 288.541325 620.916357 302.307983 620.916357 316.660553  C 620.916357 331.013123 626.618693 344.779781 636.767493 354.92858  C 646.916292 365.07738 660.68295 370.779716 675.03552 370.779716  z "
           clip-path="url(#pbc9efe4d94)"
           style="fill: #4682b4; fill-opacity: 0.85; stroke: #ffffff; stroke-opacity: 0.85; stroke-width: 1.5"
           id="path15" />
        <path
           d="M 711.835514 504.460236  C 725.217725 504.460236 738.053637 499.143427 747.516289 489.680775  C 756.978941 480.218123 762.29575 467.382211 762.29575 454  C 762.29575 440.617789 756.978941 427.781877 747.516289 418.319225  C 738.053637 408.856573 725.217725 403.539764 711.835514 403.539764  C 698.453303 403.539764 685.617391 408.856573 676.154739 418.319225  C 666.692087 427.781877 661.375278 440.617789 661.375278 454  C 661.375278 467.382211 666.692087 480.218123 676.154739 489.680775  C 685.617391 499.143427 698.453303 504.460236 711.835514 504.460236  z "
           clip-path="url(#pbc9efe4d94)"
           style="fill: #4682b4; fill-opacity: 0.85; stroke: #ffffff; stroke-opacity: 0.85; stroke-width: 1.5"
           id="path17" />
        <path
           d="M 675.03552 634.776276  C 686.555102 634.776276 697.604422 630.199497 705.749996 622.053923  C 713.89557 613.908349 718.472349 602.859029 718.472349 591.339447  C 718.472349 579.819865 713.89557 568.770545 705.749996 560.624971  C 697.604422 552.479397 686.555102 547.902618 675.03552 547.902618  C 663.515938 547.902618 652.466618 552.479397 644.321044 560.624971  C 636.17547 568.770545 631.598691 579.819865 631.598691 591.339447  C 631.598691 602.859029 636.17547 613.908349 644.321044 622.053923  C 652.466618 630.199497 663.515938 634.776276 675.03552 634.776276  z "
           clip-path="url(#pbc9efe4d94)"
           style="fill: #4682b4; fill-opacity: 0.85; stroke: #ffffff; stroke-opacity: 0.85; stroke-width: 1.5"
           id="path19" />
        <path
           d="M 574.496067 733.331369  C 585.48939 733.331369 596.033935 728.963675 603.807389 721.190222  C 611.580842 713.416768 615.948536 702.872223 615.948536 691.8789  C 615.948536 680.885577 611.580842 670.341032 603.807389 662.567578  C 596.033935 654.794125 585.48939 650.426431 574.496067 650.426431  C 563.502744 650.426431 552.958199 654.794125 545.184745 662.567578  C 537.411292 670.341032 533.043599 680.885577 533.043599 691.8789  C 533.043599 702.872223 537.411292 713.416768 545.184745 721.190222  C 552.958199 728.963675 563.502744 733.331369 574.496067 733.331369  z "
           clip-path="url(#pbc9efe4d94)"
           style="fill: #4682b4; fill-opacity: 0.85; stroke: #ffffff; stroke-opacity: 0.85; stroke-width: 1.5"
           id="path21" />
        <path
           d="M 437.15662 756.324506  C 444.488322 756.324506 451.520724 753.41159 456.70502 748.227294  C 461.889316 743.042997 464.802232 736.010596 464.802232 728.678894  C 464.802232 721.347192 461.889316 714.31479 456.70502 709.130494  C 451.520724 703.946198 444.488322 701.033282 437.15662 701.033282  C 429.824918 701.033282 422.792517 703.946198 417.60822 709.130494  C 412.423924 714.31479 409.511008 721.347192 409.511008 728.678894  C 409.511008 736.010596 412.423924 743.042997 417.60822 748.227294  C 422.792517 753.41159 429.824918 756.324506 437.15662 756.324506  z "
           clip-path="url(#pbc9efe4d94)"
           style="fill: #4682b4; fill-opacity: 0.85; stroke: #ffffff; stroke-opacity: 0.85; stroke-width: 1.5"
           id="path23" />
        <path
           d="M 299.817173 718.969994  C 307.001815 718.969994 313.89316 716.115505 318.973469 711.035196  C 324.053778 705.954887 326.908267 699.063542 326.908267 691.8789  C 326.908267 684.694258 324.053778 677.802913 318.973469 672.722604  C 313.89316 667.642295 307.001815 664.787806 299.817173 664.787806  C 292.632531 664.787806 285.741186 667.642295 280.660877 672.722604  C 275.580568 677.802913 272.72608 684.694258 272.72608 691.8789  C 272.72608 699.063542 275.580568 705.954887 280.660877 711.035196  C 285.741186 716.115505 292.632531 718.969994 299.817173 718.969994  z "
           clip-path="url(#pbc9efe4d94)"
           style="fill: #4682b4; fill-opacity: 0.85; stroke: #ffffff; stroke-opacity: 0.85; stroke-width: 1.5"
           id="path25" />
        <path
           d="M 199.27772 616.628983  C 205.984583 616.628983 212.417654 613.964318 217.160122 609.221849  C 221.902591 604.479381 224.567256 598.04631 224.567256 591.339447  C 224.567256 584.632584 221.902591 578.199513 217.160122 573.457045  C 212.417654 568.714576 205.984583 566.049911 199.27772 566.049911  C 192.570857 566.049911 186.137786 568.714576 181.395318 573.457045  C 176.652849 578.199513 173.988184 584.632584 173.988184 591.339447  C 173.988184 598.04631 176.652849 604.479381 181.395318 609.221849  C 186.137786 613.964318 192.570857 616.628983 199.27772 616.628983  z "
           clip-path="url(#pbc9efe4d94)"
           style="fill: #4682b4; fill-opacity: 0.85; stroke: #ffffff; stroke-opacity: 0.85; stroke-width: 1.5"
           id="path27" />
        <path
           d="M 162.477726 479.289536  C 169.18459 479.289536 175.61766 476.624871 180.360129 471.882402  C 185.102597 467.139934 187.767262 460.706863 187.767262 454  C 187.767262 447.293137 185.102597 440.860066 180.360129 436.117598  C 175.61766 431.375129 169.18459 428.710464 162.477726 428.710464  C 155.770863 428.710464 149.337792 431.375129 144.595324 436.117598  C 139.852855 440.860066 137.18819 447.293137 137.18819 454  C 137.18819 460.706863 139.852855 467.139934 144.595324 471.882402  C 149.337792 476.624871 155.770863 479.289536 162.477726 479.289536  z "
           clip-path="url(#pbc9efe4d94)"
           style="fill: #4682b4; fill-opacity: 0.85; stroke: #ffffff; stroke-opacity: 0.85; stroke-width: 1.5"
           id="path29" />
        <path
           d="M 199.27772 336.587231  C 204.562337 336.587231 209.631221 334.487631 213.368009 330.750842  C 217.104798 327.014054 219.204398 321.94517 219.204398 316.660553  C 219.204398 311.375936 217.104798 306.307052 213.368009 302.570264  C 209.631221 298.833475 204.562337 296.733875 199.27772 296.733875  C 193.993103 296.733875 188.924219 298.833475 185.187431 302.570264  C 181.450642 306.307052 179.351042 311.375936 179.351042 316.660553  C 179.351042 321.94517 181.450642 327.014054 185.187431 330.750842  C 188.924219 334.487631 193.993103 336.587231 199.27772 336.587231  z "
           clip-path="url(#pbc9efe4d94)"
           style="fill: #4682b4; fill-opacity: 0.85; stroke: #ffffff; stroke-opacity: 0.85; stroke-width: 1.5"
           id="path31" />
        <path
           d="M 299.817173 231.660378  C 303.938238 231.660378 307.891069 230.023062 310.805102 227.109029  C 313.719135 224.194996 315.356451 220.242165 315.356451 216.1211  C 315.356451 212.000035 313.719135 208.047204 310.805102 205.133171  C 307.891069 202.219138 303.938238 200.581822 299.817173 200.581822  C 295.696108 200.581822 291.743277 202.219138 288.829244 205.133171  C 285.915211 208.047204 284.277895 212.000035 284.277895 216.1211  C 284.277895 220.242165 285.915211 224.194996 288.829244 227.109029  C 291.743277 230.023062 295.696108 231.660378 299.817173 231.660378  z "
           clip-path="url(#pbc9efe4d94)"
           style="fill: #4682b4; fill-opacity: 0.85; stroke: #ffffff; stroke-opacity: 0.85; stroke-width: 1.5"
           id="path33" />
      </g>
      <g
         id="PathCollection_2">
        <defs
           id="defs37">
          <path
             id="mf364037410"
             d="M 0 93.541408  C 24.807471 93.541408 48.602233 83.685295 66.143764 66.143764  C 83.685295 48.602233 93.541408 24.807471 93.541408 0  C 93.541408 -24.807471 83.685295 -48.602233 66.143764 -66.143764  C 48.602233 -83.685295 24.807471 -93.541408 0 -93.541408  C -24.807471 -93.541408 -48.602233 -83.685295 -66.143764 -66.143764  C -83.685295 -48.602233 -93.541408 -24.807471 -93.541408 0  C -93.541408 24.807471 -83.685295 48.602233 -66.143764 66.143764  C -48.602233 83.685295 -24.807471 93.541408 0 93.541408  z "
             style="stroke: #ffffff; stroke-opacity: 0.92; stroke-width: 2" />
        </defs>
        <g
           clip-path="url(#pbc9efe4d94)"
           id="g41">
          <use
             xlink:href="#mf364037410"
             x="437.15662"
             y="454"
             style="fill: #2a5f7f; fill-opacity: 0.92; stroke: #ffffff; stroke-opacity: 0.92; stroke-width: 2"
             id="use39" />
        </g>
      </g>
      <g
         id="text_1">
        <g
           id="patch_2">
          <path
             d="M 376.742475 100.905463  L 497.570765 100.905463  L 497.570765 81.942258  L 376.742475 81.942258  z "
             style="fill: #ffffff; opacity: 0.78"
             id="path44" />
        </g>
        <!-- neural network -->
        <g
           style="fill: #333333"
           transform="translate(378.750287 95.685635) scale(0.154447 -0.154447)"
           id="g88">
          <defs
             id="defs58">
            <path
               id="DejaVuSans-6e"
               d="M 3513 2113  L 3513 0  L 2938 0  L 2938 2094  Q 2938 2591 2744 2837  Q 2550 3084 2163 3084  Q 1697 3084 1428 2787  Q 1159 2491 1159 1978  L 1159 0  L 581 0  L 581 3500  L 1159 3500  L 1159 2956  Q 1366 3272 1645 3428  Q 1925 3584 2291 3584  Q 2894 3584 3203 3211  Q 3513 2838 3513 2113  z "
               transform="scale(0.015625)" />
            <path
               id="DejaVuSans-65"
               d="M 3597 1894  L 3597 1613  L 953 1613  Q 991 1019 1311 708  Q 1631 397 2203 397  Q 2534 397 2845 478  Q 3156 559 3463 722  L 3463 178  Q 3153 47 2828 -22  Q 2503 -91 2169 -91  Q 1331 -91 842 396  Q 353 884 353 1716  Q 353 2575 817 3079  Q 1281 3584 2069 3584  Q 2775 3584 3186 3129  Q 3597 2675 3597 1894  z M 3022 2063  Q 3016 2534 2758 2815  Q 2500 3097 2075 3097  Q 1594 3097 1305 2825  Q 1016 2553 972 2059  L 3022 2063  z "
               transform="scale(0.015625)" />
            <path
               id="DejaVuSans-75"
               d="M 544 1381  L 544 3500  L 1119 3500  L 1119 1403  Q 1119 906 1312 657  Q 1506 409 1894 409  Q 2359 409 2629 706  Q 2900 1003 2900 1516  L 2900 3500  L 3475 3500  L 3475 0  L 2900 0  L 2900 538  Q 2691 219 2414 64  Q 2138 -91 1772 -91  Q 1169 -91 856 284  Q 544 659 544 1381  z M 1991 3584  L 1991 3584  z "
               transform="scale(0.015625)" />
            <path
               id="DejaVuSans-72"
               d="M 2631 2963  Q 2534 3019 2420 3045  Q 2306 3072 2169 3072  Q 1681 3072 1420 2755  Q 1159 2438 1159 1844  L 1159 0  L 581 0  L 581 3500  L 1159 3500  L 1159 2956  Q 1341 3275 1631 3429  Q 1922 3584 2338 3584  Q 2397 3584 2469 3576  Q 2541 3569 2628 3553  L 2631 2963  z "
               transform="scale(0.015625)" />
            <path
               id="DejaVuSans-61"
               d="M 2194 1759  Q 1497 1759 1228 1600  Q 959 1441 959 1056  Q 959 750 1161 570  Q 1363 391 1709 391  Q 2188 391 2477 730  Q 2766 1069 2766 1631  L 2766 1759  L 2194 1759  z M 3341 1997  L 3341 0  L 2766 0  L 2766 531  Q 2569 213 2275 61  Q 1981 -91 1556 -91  Q 1019 -91 701 211  Q 384 513 384 1019  Q 384 1609 779 1909  Q 1175 2209 1959 2209  L 2766 2209  L 2766 2266  Q 2766 2663 2505 2880  Q 2244 3097 1772 3097  Q 1472 3097 1187 3025  Q 903 2953 641 2809  L 641 3341  Q 956 3463 1253 3523  Q 1550 3584 1831 3584  Q 2591 3584 2966 3190  Q 3341 2797 3341 1997  z "
               transform="scale(0.015625)" />
            <path
               id="DejaVuSans-6c"
               d="M 603 4863  L 1178 4863  L 1178 0  L 603 0  L 603 4863  z "
               transform="scale(0.015625)" />
            <path
               id="DejaVuSans-20"
               transform="scale(0.015625)" />
            <path
               id="DejaVuSans-74"
               d="M 1172 4494  L 1172 3500  L 2356 3500  L 2356 3053  L 1172 3053  L 1172 1153  Q 1172 725 1289 603  Q 1406 481 1766 481  L 2356 481  L 2356 0  L 1766 0  Q 1100 0 847 248  Q 594 497 594 1153  L 594 3053  L 172 3053  L 172 3500  L 594 3500  L 594 4494  L 1172 4494  z "
               transform="scale(0.015625)" />
            <path
               id="DejaVuSans-77"
               d="M 269 3500  L 844 3500  L 1563 769  L 2278 3500  L 2956 3500  L 3675 769  L 4391 3500  L 4966 3500  L 4050 0  L 3372 0  L 2619 2869  L 1863 0  L 1184 0  L 269 3500  z "
               transform="scale(0.015625)" />
            <path
               id="DejaVuSans-6f"
               d="M 1959 3097  Q 1497 3097 1228 2736  Q 959 2375 959 1747  Q 959 1119 1226 758  Q 1494 397 1959 397  Q 2419 397 2687 759  Q 2956 1122 2956 1747  Q 2956 2369 2687 2733  Q 2419 3097 1959 3097  z M 1959 3584  Q 2709 3584 3137 3096  Q 3566 2609 3566 1747  Q 3566 888 3137 398  Q 2709 -91 1959 -91  Q 1206 -91 779 398  Q 353 888 353 1747  Q 353 2609 779 3096  Q 1206 3584 1959 3584  z "
               transform="scale(0.015625)" />
            <path
               id="DejaVuSans-6b"
               d="M 581 4863  L 1159 4863  L 1159 1991  L 2875 3500  L 3609 3500  L 1753 1863  L 3688 0  L 2938 0  L 1159 1709  L 1159 0  L 581 0  L 581 4863  z "
               transform="scale(0.015625)" />
          </defs>
          <use
             xlink:href="#DejaVuSans-6e"
             id="use60" />
          <use
             xlink:href="#DejaVuSans-65"
             x="63.378906"
             id="use62" />
          <use
             xlink:href="#DejaVuSans-75"
             x="124.902344"
             id="use64" />
          <use
             xlink:href="#DejaVuSans-72"
             x="188.28125"
             id="use66" />
          <use
             xlink:href="#DejaVuSans-61"
             x="229.394531"
             id="use68" />
          <use
             xlink:href="#DejaVuSans-6c"
             x="290.673828"
             id="use70" />
          <use
             xlink:href="#DejaVuSans-20"
             x="318.457031"
             id="use72" />
          <use
             xlink:href="#DejaVuSans-6e"
             x="350.244141"
             id="use74" />
          <use
             xlink:href="#DejaVuSans-65"
             x="413.623047"
             id="use76" />
          <use
             xlink:href="#DejaVuSans-74"
             x="475.146484"
             id="use78" />
          <use
             xlink:href="#DejaVuSans-77"
             x="514.355469"
             id="use80" />
          <use
             xlink:href="#DejaVuSans-6f"
             x="596.142578"
             id="use82" />
          <use
             xlink:href="#DejaVuSans-72"
             x="657.324219"
             id="use84" />
          <use
             xlink:href="#DejaVuSans-6b"
             x="698.4375"
             id="use86" />
        </g>
      </g>
      <g
         id="text_2">
        <g
           id="patch_3">
          <path
             d="M 564.986815 149.066744  L 671.902564 149.066744  L 671.902564 130.932961  L 564.986815 130.932961  z "
             style="fill: #ffffff; opacity: 0.78"
             id="path91" />
        </g>
        <!-- random forest -->
        <g
           style="fill: #333333"
           transform="translate(567.02136 144.009903) scale(0.145325 -0.145325)"
           id="g126">
          <defs
             id="defs98">
            <path
               id="DejaVuSans-64"
               d="M 2906 2969  L 2906 4863  L 3481 4863  L 3481 0  L 2906 0  L 2906 525  Q 2725 213 2448 61  Q 2172 -91 1784 -91  Q 1150 -91 751 415  Q 353 922 353 1747  Q 353 2572 751 3078  Q 1150 3584 1784 3584  Q 2172 3584 2448 3432  Q 2725 3281 2906 2969  z M 947 1747  Q 947 1113 1208 752  Q 1469 391 1925 391  Q 2381 391 2643 752  Q 2906 1113 2906 1747  Q 2906 2381 2643 2742  Q 2381 3103 1925 3103  Q 1469 3103 1208 2742  Q 947 2381 947 1747  z "
               transform="scale(0.015625)" />
            <path
               id="DejaVuSans-6d"
               d="M 3328 2828  Q 3544 3216 3844 3400  Q 4144 3584 4550 3584  Q 5097 3584 5394 3201  Q 5691 2819 5691 2113  L 5691 0  L 5113 0  L 5113 2094  Q 5113 2597 4934 2840  Q 4756 3084 4391 3084  Q 3944 3084 3684 2787  Q 3425 2491 3425 1978  L 3425 0  L 2847 0  L 2847 2094  Q 2847 2600 2669 2842  Q 2491 3084 2119 3084  Q 1678 3084 1418 2786  Q 1159 2488 1159 1978  L 1159 0  L 581 0  L 581 3500  L 1159 3500  L 1159 2956  Q 1356 3278 1631 3431  Q 1906 3584 2284 3584  Q 2666 3584 2933 3390  Q 3200 3197 3328 2828  z "
               transform="scale(0.015625)" />
            <path
               id="DejaVuSans-66"
               d="M 2375 4863  L 2375 4384  L 1825 4384  Q 1516 4384 1395 4259  Q 1275 4134 1275 3809  L 1275 3500  L 2222 3500  L 2222 3053  L 1275 3053  L 1275 0  L 697 0  L 697 3053  L 147 3053  L 147 3500  L 697 3500  L 697 3744  Q 697 4328 969 4595  Q 1241 4863 1831 4863  L 2375 4863  z "
               transform="scale(0.015625)" />
            <path
               id="DejaVuSans-73"
               d="M 2834 3397  L 2834 2853  Q 2591 2978 2328 3040  Q 2066 3103 1784 3103  Q 1356 3103 1142 2972  Q 928 2841 928 2578  Q 928 2378 1081 2264  Q 1234 2150 1697 2047  L 1894 2003  Q 2506 1872 2764 1633  Q 3022 1394 3022 966  Q 3022 478 2636 193  Q 2250 -91 1575 -91  Q 1294 -91 989 -36  Q 684 19 347 128  L 347 722  Q 666 556 975 473  Q 1284 391 1588 391  Q 1994 391 2212 530  Q 2431 669 2431 922  Q 2431 1156 2273 1281  Q 2116 1406 1581 1522  L 1381 1569  Q 847 1681 609 1914  Q 372 2147 372 2553  Q 372 3047 722 3315  Q 1072 3584 1716 3584  Q 2034 3584 2315 3537  Q 2597 3491 2834 3397  z "
               transform="scale(0.015625)" />
          </defs>
          <use
             xlink:href="#DejaVuSans-72"
             id="use100" />
          <use
             xlink:href="#DejaVuSans-61"
             x="41.113281"
             id="use102" />
          <use
             xlink:href="#DejaVuSans-6e"
             x="102.392578"
             id="use104" />
          <use
             xlink:href="#DejaVuSans-64"
             x="165.771484"
             id="use106" />
          <use
             xlink:href="#DejaVuSans-6f"
             x="229.248047"
             id="use108" />
          <use
             xlink:href="#DejaVuSans-6d"
             x="290.429688"
             id="use110" />
          <use
             xlink:href="#DejaVuSans-20"
             x="387.841797"
             id="use112" />
          <use
             xlink:href="#DejaVuSans-66"
             x="419.628906"
             id="use114" />
          <use
             xlink:href="#DejaVuSans-6f"
             x="454.833984"
             id="use116" />
          <use
             xlink:href="#DejaVuSans-72"
             x="516.015625"
             id="use118" />
          <use
             xlink:href="#DejaVuSans-65"
             x="554.878906"
             id="use120" />
          <use
             xlink:href="#DejaVuSans-73"
             x="616.402344"
             id="use122" />
          <use
             xlink:href="#DejaVuSans-74"
             x="668.501953"
             id="use124" />
        </g>
      </g>
      <g
         id="text_3">
        <g
           id="patch_4">
          <path
             d="M 733.345298 281.693581  L 768.968237 281.693581  L 768.968237 263.73028  L 733.345298 263.73028  z "
             style="fill: #ffffff; opacity: 0.78"
             id="path129" />
        </g>
        <!-- CNN -->
        <g
           style="fill: #333333"
           transform="translate(735.360715 276.684281) scale(0.143958 -0.143958)"
           id="g142">
          <defs
             id="defs134">
            <path
               id="DejaVuSans-43"
               d="M 4122 4306  L 4122 3641  Q 3803 3938 3442 4084  Q 3081 4231 2675 4231  Q 1875 4231 1450 3742  Q 1025 3253 1025 2328  Q 1025 1406 1450 917  Q 1875 428 2675 428  Q 3081 428 3442 575  Q 3803 722 4122 1019  L 4122 359  Q 3791 134 3420 21  Q 3050 -91 2638 -91  Q 1578 -91 968 557  Q 359 1206 359 2328  Q 359 3453 968 4101  Q 1578 4750 2638 4750  Q 3056 4750 3426 4639  Q 3797 4528 4122 4306  z "
               transform="scale(0.015625)" />
            <path
               id="DejaVuSans-4e"
               d="M 628 4666  L 1478 4666  L 3547 763  L 3547 4666  L 4159 4666  L 4159 0  L 3309 0  L 1241 3903  L 1241 0  L 628 0  L 628 4666  z "
               transform="scale(0.015625)" />
          </defs>
          <use
             xlink:href="#DejaVuSans-43"
             id="use136" />
          <use
             xlink:href="#DejaVuSans-4e"
             x="69.824219"
             id="use138" />
          <use
             xlink:href="#DejaVuSans-4e"
             x="144.628906"
             id="use140" />
        </g>
      </g>
      <g
         id="text_4">
        <g
           id="patch_5">
          <path
             d="M 778.987241 462.788124  L 820.478278 462.788124  L 820.478278 445.211876  L 778.987241 445.211876  z "
             style="fill: #ffffff; opacity: 0.78"
             id="path145" />
        </g>
        <!-- LSTM -->
        <g
           style="fill: #333333"
           transform="translate(780.959232 457.886758) scale(0.140856 -0.140856)"
           id="g162">
          <defs
             id="defs152">
            <path
               id="DejaVuSans-4c"
               d="M 628 4666  L 1259 4666  L 1259 531  L 3531 531  L 3531 0  L 628 0  L 628 4666  z "
               transform="scale(0.015625)" />
            <path
               id="DejaVuSans-53"
               d="M 3425 4513  L 3425 3897  Q 3066 4069 2747 4153  Q 2428 4238 2131 4238  Q 1616 4238 1336 4038  Q 1056 3838 1056 3469  Q 1056 3159 1242 3001  Q 1428 2844 1947 2747  L 2328 2669  Q 3034 2534 3370 2195  Q 3706 1856 3706 1288  Q 3706 609 3251 259  Q 2797 -91 1919 -91  Q 1588 -91 1214 -16  Q 841 59 441 206  L 441 856  Q 825 641 1194 531  Q 1563 422 1919 422  Q 2459 422 2753 634  Q 3047 847 3047 1241  Q 3047 1584 2836 1778  Q 2625 1972 2144 2069  L 1759 2144  Q 1053 2284 737 2584  Q 422 2884 422 3419  Q 422 4038 858 4394  Q 1294 4750 2059 4750  Q 2388 4750 2728 4690  Q 3069 4631 3425 4513  z "
               transform="scale(0.015625)" />
            <path
               id="DejaVuSans-54"
               d="M -19 4666  L 3928 4666  L 3928 4134  L 2272 4134  L 2272 0  L 1638 0  L 1638 4134  L -19 4134  L -19 4666  z "
               transform="scale(0.015625)" />
            <path
               id="DejaVuSans-4d"
               d="M 628 4666  L 1569 4666  L 2759 1491  L 3956 4666  L 4897 4666  L 4897 0  L 4281 0  L 4281 4097  L 3078 897  L 2444 897  L 1241 4097  L 1241 0  L 628 0  L 628 4666  z "
               transform="scale(0.015625)" />
          </defs>
          <use
             xlink:href="#DejaVuSans-4c"
             id="use154" />
          <use
             xlink:href="#DejaVuSans-53"
             x="55.712891"
             id="use156" />
          <use
             xlink:href="#DejaVuSans-54"
             x="119.189453"
             id="use158" />
          <use
             xlink:href="#DejaVuSans-4d"
             x="180.273438"
             id="use160" />
        </g>
      </g>
      <g
         id="text_5">
        <g
           id="patch_6">
          <path
             d="M 668.690447 643.826834  L 833.623087 643.826834  L 833.623087 626.749305  L 668.690447 626.749305  z "
             style="fill: #ffffff; opacity: 0.78"
             id="path165" />
        </g>
        <!-- support vector machine -->
        <g
           style="fill: #333333"
           transform="translate(670.710958 639.004968) scale(0.134701 -0.134701)"
           id="g219">
          <defs
             id="defs173">
            <path
               id="DejaVuSans-70"
               d="M 1159 525  L 1159 -1331  L 581 -1331  L 581 3500  L 1159 3500  L 1159 2969  Q 1341 3281 1617 3432  Q 1894 3584 2278 3584  Q 2916 3584 3314 3078  Q 3713 2572 3713 1747  Q 3713 922 3314 415  Q 2916 -91 2278 -91  Q 1894 -91 1617 61  Q 1341 213 1159 525  z M 3116 1747  Q 3116 2381 2855 2742  Q 2594 3103 2138 3103  Q 1681 3103 1420 2742  Q 1159 2381 1159 1747  Q 1159 1113 1420 752  Q 1681 391 2138 391  Q 2594 391 2855 752  Q 3116 1113 3116 1747  z "
               transform="scale(0.015625)" />
            <path
               id="DejaVuSans-76"
               d="M 191 3500  L 800 3500  L 1894 563  L 2988 3500  L 3597 3500  L 2284 0  L 1503 0  L 191 3500  z "
               transform="scale(0.015625)" />
            <path
               id="DejaVuSans-63"
               d="M 3122 3366  L 3122 2828  Q 2878 2963 2633 3030  Q 2388 3097 2138 3097  Q 1578 3097 1268 2742  Q 959 2388 959 1747  Q 959 1106 1268 751  Q 1578 397 2138 397  Q 2388 397 2633 464  Q 2878 531 3122 666  L 3122 134  Q 2881 22 2623 -34  Q 2366 -91 2075 -91  Q 1284 -91 818 406  Q 353 903 353 1747  Q 353 2603 823 3093  Q 1294 3584 2113 3584  Q 2378 3584 2631 3529  Q 2884 3475 3122 3366  z "
               transform="scale(0.015625)" />
            <path
               id="DejaVuSans-68"
               d="M 3513 2113  L 3513 0  L 2938 0  L 2938 2094  Q 2938 2591 2744 2837  Q 2550 3084 2163 3084  Q 1697 3084 1428 2787  Q 1159 2491 1159 1978  L 1159 0  L 581 0  L 581 4863  L 1159 4863  L 1159 2956  Q 1366 3272 1645 3428  Q 1925 3584 2291 3584  Q 2894 3584 3203 3211  Q 3513 2838 3513 2113  z "
               transform="scale(0.015625)" />
            <path
               id="DejaVuSans-69"
               d="M 603 3500  L 1178 3500  L 1178 0  L 603 0  L 603 3500  z M 603 4863  L 1178 4863  L 1178 4134  L 603 4134  L 603 4863  z "
               transform="scale(0.015625)" />
          </defs>
          <use
             xlink:href="#DejaVuSans-73"
             id="use175" />
          <use
             xlink:href="#DejaVuSans-75"
             x="52.099609"
             id="use177" />
          <use
             xlink:href="#DejaVuSans-70"
             x="115.478516"
             id="use179" />
          <use
             xlink:href="#DejaVuSans-70"
             x="178.955078"
             id="use181" />
          <use
             xlink:href="#DejaVuSans-6f"
             x="242.431641"
             id="use183" />
          <use
             xlink:href="#DejaVuSans-72"
             x="303.613281"
             id="use185" />
          <use
             xlink:href="#DejaVuSans-74"
             x="344.726562"
             id="use187" />
          <use
             xlink:href="#DejaVuSans-20"
             x="383.935547"
             id="use189" />
          <use
             xlink:href="#DejaVuSans-76"
             x="415.722656"
             id="use191" />
          <use
             xlink:href="#DejaVuSans-65"
             x="474.902344"
             id="use193" />
          <use
             xlink:href="#DejaVuSans-63"
             x="536.425781"
             id="use195" />
          <use
             xlink:href="#DejaVuSans-74"
             x="591.40625"
             id="use197" />
          <use
             xlink:href="#DejaVuSans-6f"
             x="630.615234"
             id="use199" />
          <use
             xlink:href="#DejaVuSans-72"
             x="691.796875"
             id="use201" />
          <use
             xlink:href="#DejaVuSans-20"
             x="732.910156"
             id="use203" />
          <use
             xlink:href="#DejaVuSans-6d"
             x="764.697266"
             id="use205" />
          <use
             xlink:href="#DejaVuSans-61"
             x="862.109375"
             id="use207" />
          <use
             xlink:href="#DejaVuSans-63"
             x="923.388672"
             id="use209" />
          <use
             xlink:href="#DejaVuSans-68"
             x="978.369141"
             id="use211" />
          <use
             xlink:href="#DejaVuSans-69"
             x="1041.748047"
             id="use213" />
          <use
             xlink:href="#DejaVuSans-6e"
             x="1069.53125"
             id="use215" />
          <use
             xlink:href="#DejaVuSans-65"
             x="1132.910156"
             id="use217" />
        </g>
      </g>
      <g
         id="text_6">
        <g
           id="patch_7">
          <path
             d="M 581.840326 776.425662  L 655.049053 776.425662  L 655.049053 759.574633  L 581.840326 759.574633  z "
             style="fill: #ffffff; opacity: 0.78"
             id="path222" />
        </g>
        <!-- regression -->
        <g
           style="fill: #333333"
           transform="translate(583.834039 771.667749) scale(0.132914 -0.132914)"
           id="g248">
          <defs
             id="defs226">
            <path
               id="DejaVuSans-67"
               d="M 2906 1791  Q 2906 2416 2648 2759  Q 2391 3103 1925 3103  Q 1463 3103 1205 2759  Q 947 2416 947 1791  Q 947 1169 1205 825  Q 1463 481 1925 481  Q 2391 481 2648 825  Q 2906 1169 2906 1791  z M 3481 434  Q 3481 -459 3084 -895  Q 2688 -1331 1869 -1331  Q 1566 -1331 1297 -1286  Q 1028 -1241 775 -1147  L 775 -588  Q 1028 -725 1275 -790  Q 1522 -856 1778 -856  Q 2344 -856 2625 -561  Q 2906 -266 2906 331  L 2906 616  Q 2728 306 2450 153  Q 2172 0 1784 0  Q 1141 0 747 490  Q 353 981 353 1791  Q 353 2603 747 3093  Q 1141 3584 1784 3584  Q 2172 3584 2450 3431  Q 2728 3278 2906 2969  L 2906 3500  L 3481 3500  L 3481 434  z "
               transform="scale(0.015625)" />
          </defs>
          <use
             xlink:href="#DejaVuSans-72"
             id="use228" />
          <use
             xlink:href="#DejaVuSans-65"
             x="38.863281"
             id="use230" />
          <use
             xlink:href="#DejaVuSans-67"
             x="100.386719"
             id="use232" />
          <use
             xlink:href="#DejaVuSans-72"
             x="163.863281"
             id="use234" />
          <use
             xlink:href="#DejaVuSans-65"
             x="202.726562"
             id="use236" />
          <use
             xlink:href="#DejaVuSans-73"
             x="264.25"
             id="use238" />
          <use
             xlink:href="#DejaVuSans-73"
             x="316.349609"
             id="use240" />
          <use
             xlink:href="#DejaVuSans-69"
             x="368.449219"
             id="use242" />
          <use
             xlink:href="#DejaVuSans-6f"
             x="396.232422"
             id="use244" />
          <use
             xlink:href="#DejaVuSans-6e"
             x="457.414062"
             id="use246" />
        </g>
      </g>
      <g
         id="text_7">
        <g
           id="patch_8">
          <path
             d="M 421.508361 824.402606  L 452.804879 824.402606  L 452.804879 808.749672  L 421.508361 808.749672  z "
             style="fill: #ffffff; opacity: 0.78"
             id="path251" />
        </g>
        <!-- unet -->
        <g
           style="fill: #333333"
           transform="translate(423.543056 819.878777) scale(0.119688 -0.119688)"
           id="g262">
          <use
             xlink:href="#DejaVuSans-75"
             id="use254" />
          <use
             xlink:href="#DejaVuSans-6e"
             x="63.378906"
             id="use256" />
          <use
             xlink:href="#DejaVuSans-65"
             x="126.757812"
             id="use258" />
          <use
             xlink:href="#DejaVuSans-74"
             x="188.28125"
             id="use260" />
        </g>
      </g>
      <g
         id="text_8">
        <g
           id="patch_9">
          <path
             d="M 218.535773 775.78886  L 293.201328 775.78886  L 293.201328 760.211435  L 218.535773 760.211435  z "
             style="fill: #ffffff; opacity: 0.78"
             id="path265" />
        </g>
        <!-- transformer -->
        <g
           style="fill: #333333"
           transform="translate(220.560652 771.286854) scale(0.119111 -0.119111)"
           id="g290">
          <use
             xlink:href="#DejaVuSans-74"
             id="use268" />
          <use
             xlink:href="#DejaVuSans-72"
             x="39.208984"
             id="use270" />
          <use
             xlink:href="#DejaVuSans-61"
             x="80.322266"
             id="use272" />
          <use
             xlink:href="#DejaVuSans-6e"
             x="141.601562"
             id="use274" />
          <use
             xlink:href="#DejaVuSans-73"
             x="204.980469"
             id="use276" />
          <use
             xlink:href="#DejaVuSans-66"
             x="257.080078"
             id="use278" />
          <use
             xlink:href="#DejaVuSans-6f"
             x="292.285156"
             id="use280" />
          <use
             xlink:href="#DejaVuSans-72"
             x="353.466797"
             id="use282" />
          <use
             xlink:href="#DejaVuSans-6d"
             x="392.830078"
             id="use284" />
          <use
             xlink:href="#DejaVuSans-65"
             x="490.242188"
             id="use286" />
          <use
             xlink:href="#DejaVuSans-72"
             x="551.765625"
             id="use288" />
        </g>
      </g>
      <g
         id="text_9">
        <g
           id="patch_10">
          <path
             d="M 83.363298 642.951167  L 162.949648 642.951167  L 162.949648 627.624972  L 83.363298 627.624972  z "
             style="fill: #ffffff; opacity: 0.78"
             id="path293" />
        </g>
        <!-- decision tree -->
        <g
           style="fill: #333333"
           transform="translate(85.35552 638.521769) scale(0.11719 -0.11719)"
           id="g322">
          <use
             xlink:href="#DejaVuSans-64"
             id="use296" />
          <use
             xlink:href="#DejaVuSans-65"
             x="63.476562"
             id="use298" />
          <use
             xlink:href="#DejaVuSans-63"
             x="125"
             id="use300" />
          <use
             xlink:href="#DejaVuSans-69"
             x="179.980469"
             id="use302" />
          <use
             xlink:href="#DejaVuSans-73"
             x="207.763672"
             id="use304" />
          <use
             xlink:href="#DejaVuSans-69"
             x="259.863281"
             id="use306" />
          <use
             xlink:href="#DejaVuSans-6f"
             x="287.646484"
             id="use308" />
          <use
             xlink:href="#DejaVuSans-6e"
             x="348.828125"
             id="use310" />
          <use
             xlink:href="#DejaVuSans-20"
             x="412.207031"
             id="use312" />
          <use
             xlink:href="#DejaVuSans-74"
             x="443.994141"
             id="use314" />
          <use
             xlink:href="#DejaVuSans-72"
             x="483.203125"
             id="use316" />
          <use
             xlink:href="#DejaVuSans-65"
             x="522.066406"
             id="use318" />
          <use
             xlink:href="#DejaVuSans-65"
             x="583.589844"
             id="use320" />
        </g>
      </g>
      <g
         id="text_10">
        <g
           id="patch_11">
          <path
             d="M 21.64102 461.663098  L 127.519942 461.663098  L 127.519942 446.336902  L 21.64102 446.336902  z "
             style="fill: #ffffff; opacity: 0.78"
             id="path325" />
        </g>
        <!-- machine learning -->
        <g
           style="fill: #333333"
           transform="translate(23.633242 457.233699) scale(0.11719 -0.11719)"
           id="g360">
          <use
             xlink:href="#DejaVuSans-6d"
             id="use328" />
          <use
             xlink:href="#DejaVuSans-61"
             x="97.412109"
             id="use330" />
          <use
             xlink:href="#DejaVuSans-63"
             x="158.691406"
             id="use332" />
          <use
             xlink:href="#DejaVuSans-68"
             x="213.671875"
             id="use334" />
          <use
             xlink:href="#DejaVuSans-69"
             x="277.050781"
             id="use336" />
          <use
             xlink:href="#DejaVuSans-6e"
             x="304.833984"
             id="use338" />
          <use
             xlink:href="#DejaVuSans-65"
             x="368.212891"
             id="use340" />
          <use
             xlink:href="#DejaVuSans-20"
             x="429.736328"
             id="use342" />
          <use
             xlink:href="#DejaVuSans-6c"
             x="461.523438"
             id="use344" />
          <use
             xlink:href="#DejaVuSans-65"
             x="489.306641"
             id="use346" />
          <use
             xlink:href="#DejaVuSans-61"
             x="550.830078"
             id="use348" />
          <use
             xlink:href="#DejaVuSans-72"
             x="612.109375"
             id="use350" />
          <use
             xlink:href="#DejaVuSans-6e"
             x="651.472656"
             id="use352" />
          <use
             xlink:href="#DejaVuSans-69"
             x="714.851562"
             id="use354" />
          <use
             xlink:href="#DejaVuSans-6e"
             x="742.634766"
             id="use356" />
          <use
             xlink:href="#DejaVuSans-67"
             x="806.013672"
             id="use358" />
        </g>
      </g>
      <g
         id="text_11">
        <g
           id="patch_12">
          <path
             d="M 108.940521 280.065218  L 137.372425 280.065218  L 137.372425 265.358643  L 108.940521 265.358643  z "
             style="fill: #ffffff; opacity: 0.78"
             id="path363" />
        </g>
        <!-- GAN -->
        <g
           style="fill: #333333"
           transform="translate(110.934164 275.768157) scale(0.110758 -0.110758)"
           id="g376">
          <defs
             id="defs368">
            <path
               id="DejaVuSans-47"
               d="M 3809 666  L 3809 1919  L 2778 1919  L 2778 2438  L 4434 2438  L 4434 434  Q 4069 175 3628 42  Q 3188 -91 2688 -91  Q 1594 -91 976 548  Q 359 1188 359 2328  Q 359 3472 976 4111  Q 1594 4750 2688 4750  Q 3144 4750 3555 4637  Q 3966 4525 4313 4306  L 4313 3634  Q 3963 3931 3569 4081  Q 3175 4231 2741 4231  Q 1884 4231 1454 3753  Q 1025 3275 1025 2328  Q 1025 1384 1454 906  Q 1884 428 2741 428  Q 3075 428 3337 486  Q 3600 544 3809 666  z "
               transform="scale(0.015625)" />
            <path
               id="DejaVuSans-41"
               d="M 2188 4044  L 1331 1722  L 3047 1722  L 2188 4044  z M 1831 4666  L 2547 4666  L 4325 0  L 3669 0  L 3244 1197  L 1141 1197  L 716 0  L 50 0  L 1831 4666  z "
               transform="scale(0.015625)" />
          </defs>
          <use
             xlink:href="#DejaVuSans-47"
             id="use370" />
          <use
             xlink:href="#DejaVuSans-41"
             x="77.490234"
             id="use372" />
          <use
             xlink:href="#DejaVuSans-4e"
             x="145.898438"
             id="use374" />
        </g>
      </g>
      <g
         id="text_12">
        <g
           id="patch_13">
          <path
             d="M 204.597457 146.838915  L 307.139644 146.838915  L 307.139644 133.16079  L 204.597457 133.16079  z "
             style="fill: #ffffff; opacity: 0.78"
             id="path379" />
        </g>
        <!-- supervised learning -->
        <g
           style="fill: #333333"
           transform="translate(206.597457 142.759228) scale(0.1 -0.1)"
           id="g420">
          <use
             xlink:href="#DejaVuSans-73"
             id="use382" />
          <use
             xlink:href="#DejaVuSans-75"
             x="52.099609"
             id="use384" />
          <use
             xlink:href="#DejaVuSans-70"
             x="115.478516"
             id="use386" />
          <use
             xlink:href="#DejaVuSans-65"
             x="178.955078"
             id="use388" />
          <use
             xlink:href="#DejaVuSans-72"
             x="240.478516"
             id="use390" />
          <use
             xlink:href="#DejaVuSans-76"
             x="281.591797"
             id="use392" />
          <use
             xlink:href="#DejaVuSans-69"
             x="340.771484"
             id="use394" />
          <use
             xlink:href="#DejaVuSans-73"
             x="368.554688"
             id="use396" />
          <use
             xlink:href="#DejaVuSans-65"
             x="420.654297"
             id="use398" />
          <use
             xlink:href="#DejaVuSans-64"
             x="482.177734"
             id="use400" />
          <use
             xlink:href="#DejaVuSans-20"
             x="545.654297"
             id="use402" />
          <use
             xlink:href="#DejaVuSans-6c"
             x="577.441406"
             id="use404" />
          <use
             xlink:href="#DejaVuSans-65"
             x="605.224609"
             id="use406" />
          <use
             xlink:href="#DejaVuSans-61"
             x="666.748047"
             id="use408" />
          <use
             xlink:href="#DejaVuSans-72"
             x="728.027344"
             id="use410" />
          <use
             xlink:href="#DejaVuSans-6e"
             x="767.390625"
             id="use412" />
          <use
             xlink:href="#DejaVuSans-69"
             x="830.769531"
             id="use414" />
          <use
             xlink:href="#DejaVuSans-6e"
             x="858.552734"
             id="use416" />
          <use
             xlink:href="#DejaVuSans-67"
             x="921.931641"
             id="use418" />
        </g>
      </g>
      <g
         id="text_13">
        <!-- AI methods: Global Risks -->
        <g
           style="fill: #2a5f7f"
           transform="translate(325.234589 24.8) scale(0.18 -0.18)"
           id="g477">
          <defs
             id="defs427">
            <path
               id="DejaVuSans-49"
               d="M 628 4666  L 1259 4666  L 1259 0  L 628 0  L 628 4666  z "
               transform="scale(0.015625)" />
            <path
               id="DejaVuSans-3a"
               d="M 750 794  L 1409 794  L 1409 0  L 750 0  L 750 794  z M 750 3309  L 1409 3309  L 1409 2516  L 750 2516  L 750 3309  z "
               transform="scale(0.015625)" />
            <path
               id="DejaVuSans-62"
               d="M 3116 1747  Q 3116 2381 2855 2742  Q 2594 3103 2138 3103  Q 1681 3103 1420 2742  Q 1159 2381 1159 1747  Q 1159 1113 1420 752  Q 1681 391 2138 391  Q 2594 391 2855 752  Q 3116 1113 3116 1747  z M 1159 2969  Q 1341 3281 1617 3432  Q 1894 3584 2278 3584  Q 2916 3584 3314 3078  Q 3713 2572 3713 1747  Q 3713 922 3314 415  Q 2916 -91 2278 -91  Q 1894 -91 1617 61  Q 1341 213 1159 525  L 1159 0  L 581 0  L 581 4863  L 1159 4863  L 1159 2969  z "
               transform="scale(0.015625)" />
            <path
               id="DejaVuSans-52"
               d="M 2841 2188  Q 3044 2119 3236 1894  Q 3428 1669 3622 1275  L 4263 0  L 3584 0  L 2988 1197  Q 2756 1666 2539 1819  Q 2322 1972 1947 1972  L 1259 1972  L 1259 0  L 628 0  L 628 4666  L 2053 4666  Q 2853 4666 3247 4331  Q 3641 3997 3641 3322  Q 3641 2881 3436 2590  Q 3231 2300 2841 2188  z M 1259 4147  L 1259 2491  L 2053 2491  Q 2509 2491 2742 2702  Q 2975 2913 2975 3322  Q 2975 3731 2742 3939  Q 2509 4147 2053 4147  L 1259 4147  z "
               transform="scale(0.015625)" />
          </defs>
          <use
             xlink:href="#DejaVuSans-41"
             id="use429" />
          <use
             xlink:href="#DejaVuSans-49"
             x="68.408203"
             id="use431" />
          <use
             xlink:href="#DejaVuSans-20"
             x="97.900391"
             id="use433" />
          <use
             xlink:href="#DejaVuSans-6d"
             x="129.6875"
             id="use435" />
          <use
             xlink:href="#DejaVuSans-65"
             x="227.099609"
             id="use437" />
          <use
             xlink:href="#DejaVuSans-74"
             x="288.623047"
             id="use439" />
          <use
             xlink:href="#DejaVuSans-68"
             x="327.832031"
             id="use441" />
          <use
             xlink:href="#DejaVuSans-6f"
             x="391.210938"
             id="use443" />
          <use
             xlink:href="#DejaVuSans-64"
             x="452.392578"
             id="use445" />
          <use
             xlink:href="#DejaVuSans-73"
             x="515.869141"
             id="use447" />
          <use
             xlink:href="#DejaVuSans-3a"
             x="567.96875"
             id="use449" />
          <use
             xlink:href="#DejaVuSans-20"
             x="601.660156"
             id="use451" />
          <use
             xlink:href="#DejaVuSans-47"
             x="633.447266"
             id="use453" />
          <use
             xlink:href="#DejaVuSans-6c"
             x="710.9375"
             id="use455" />
          <use
             xlink:href="#DejaVuSans-6f"
             x="738.720703"
             id="use457" />
          <use
             xlink:href="#DejaVuSans-62"
             x="799.902344"
             id="use459" />
          <use
             xlink:href="#DejaVuSans-61"
             x="863.378906"
             id="use461" />
          <use
             xlink:href="#DejaVuSans-6c"
             x="924.658203"
             id="use463" />
          <use
             xlink:href="#DejaVuSans-20"
             x="952.441406"
             id="use465" />
          <use
             xlink:href="#DejaVuSans-52"
             x="984.228516"
             id="use467" />
          <use
             xlink:href="#DejaVuSans-69"
             x="1053.710938"
             id="use469" />
          <use
             xlink:href="#DejaVuSans-73"
             x="1081.494141"
             id="use471" />
          <use
             xlink:href="#DejaVuSans-6b"
             x="1133.59375"
             id="use473" />
          <use
             xlink:href="#DejaVuSans-73"
             x="1191.503906"
             id="use475" />
        </g>
      </g>
      <g
         id="text_14">
        <g
           id="patch_14">
          <path
             d="M 371.093808 435.540031  L 503.219433 435.540031  L 503.219433 410.199406  L 371.093808 410.199406  z "
             style="fill: #ffffff; opacity: 0.85"
             id="path480" />
        </g>
        <!-- Global Risks -->
        <g
           style="fill: #2a5f7f"
           transform="translate(375.053808 427.836593) scale(0.18 -0.18)"
           id="g519">
          <defs
             id="defs493">
            <path
               id="DejaVuSans-Bold-47"
               d="M 4781 347  Q 4331 128 3847 18  Q 3363 -91 2847 -91  Q 1681 -91 1000 561  Q 319 1213 319 2328  Q 319 3456 1012 4103  Q 1706 4750 2913 4750  Q 3378 4750 3804 4662  Q 4231 4575 4609 4403  L 4609 3438  Q 4219 3659 3833 3768  Q 3447 3878 3059 3878  Q 2341 3878 1952 3476  Q 1563 3075 1563 2328  Q 1563 1588 1938 1184  Q 2313 781 3003 781  Q 3191 781 3352 804  Q 3513 828 3641 878  L 3641 1784  L 2906 1784  L 2906 2591  L 4781 2591  L 4781 347  z "
               transform="scale(0.015625)" />
            <path
               id="DejaVuSans-Bold-6c"
               d="M 538 4863  L 1656 4863  L 1656 0  L 538 0  L 538 4863  z "
               transform="scale(0.015625)" />
            <path
               id="DejaVuSans-Bold-6f"
               d="M 2203 2784  Q 1831 2784 1636 2517  Q 1441 2250 1441 1747  Q 1441 1244 1636 976  Q 1831 709 2203 709  Q 2569 709 2762 976  Q 2956 1244 2956 1747  Q 2956 2250 2762 2517  Q 2569 2784 2203 2784  z M 2203 3584  Q 3106 3584 3614 3096  Q 4122 2609 4122 1747  Q 4122 884 3614 396  Q 3106 -91 2203 -91  Q 1297 -91 786 396  Q 275 884 275 1747  Q 275 2609 786 3096  Q 1297 3584 2203 3584  z "
               transform="scale(0.015625)" />
            <path
               id="DejaVuSans-Bold-62"
               d="M 2400 722  Q 2759 722 2948 984  Q 3138 1247 3138 1747  Q 3138 2247 2948 2509  Q 2759 2772 2400 2772  Q 2041 2772 1848 2508  Q 1656 2244 1656 1747  Q 1656 1250 1848 986  Q 2041 722 2400 722  z M 1656 2988  Q 1888 3294 2169 3439  Q 2450 3584 2816 3584  Q 3463 3584 3878 3070  Q 4294 2556 4294 1747  Q 4294 938 3878 423  Q 3463 -91 2816 -91  Q 2450 -91 2169 54  Q 1888 200 1656 506  L 1656 0  L 538 0  L 538 4863  L 1656 4863  L 1656 2988  z "
               transform="scale(0.015625)" />
            <path
               id="DejaVuSans-Bold-61"
               d="M 2106 1575  Q 1756 1575 1579 1456  Q 1403 1338 1403 1106  Q 1403 894 1545 773  Q 1688 653 1941 653  Q 2256 653 2472 879  Q 2688 1106 2688 1447  L 2688 1575  L 2106 1575  z M 3816 1997  L 3816 0  L 2688 0  L 2688 519  Q 2463 200 2181 54  Q 1900 -91 1497 -91  Q 953 -91 614 226  Q 275 544 275 1050  Q 275 1666 698 1953  Q 1122 2241 2028 2241  L 2688 2241  L 2688 2328  Q 2688 2594 2478 2717  Q 2269 2841 1825 2841  Q 1466 2841 1156 2769  Q 847 2697 581 2553  L 581 3406  Q 941 3494 1303 3539  Q 1666 3584 2028 3584  Q 2975 3584 3395 3211  Q 3816 2838 3816 1997  z "
               transform="scale(0.015625)" />
            <path
               id="DejaVuSans-Bold-20"
               transform="scale(0.015625)" />
            <path
               id="DejaVuSans-Bold-52"
               d="M 2297 2597  Q 2675 2597 2839 2737  Q 3003 2878 3003 3200  Q 3003 3519 2839 3656  Q 2675 3794 2297 3794  L 1791 3794  L 1791 2597  L 2297 2597  z M 1791 1766  L 1791 0  L 588 0  L 588 4666  L 2425 4666  Q 3347 4666 3776 4356  Q 4206 4047 4206 3378  Q 4206 2916 3982 2619  Q 3759 2322 3309 2181  Q 3556 2125 3751 1926  Q 3947 1728 4147 1325  L 4800 0  L 3519 0  L 2950 1159  Q 2778 1509 2601 1637  Q 2425 1766 2131 1766  L 1791 1766  z "
               transform="scale(0.015625)" />
            <path
               id="DejaVuSans-Bold-69"
               d="M 538 3500  L 1656 3500  L 1656 0  L 538 0  L 538 3500  z M 538 4863  L 1656 4863  L 1656 3950  L 538 3950  L 538 4863  z "
               transform="scale(0.015625)" />
            <path
               id="DejaVuSans-Bold-73"
               d="M 3272 3391  L 3272 2541  Q 2913 2691 2578 2766  Q 2244 2841 1947 2841  Q 1628 2841 1473 2761  Q 1319 2681 1319 2516  Q 1319 2381 1436 2309  Q 1553 2238 1856 2203  L 2053 2175  Q 2913 2066 3209 1816  Q 3506 1566 3506 1031  Q 3506 472 3093 190  Q 2681 -91 1863 -91  Q 1516 -91 1145 -36  Q 775 19 384 128  L 384 978  Q 719 816 1070 734  Q 1422 653 1784 653  Q 2113 653 2278 743  Q 2444 834 2444 1013  Q 2444 1163 2330 1236  Q 2216 1309 1875 1350  L 1678 1375  Q 931 1469 631 1722  Q 331 1975 331 2491  Q 331 3047 712 3315  Q 1094 3584 1881 3584  Q 2191 3584 2531 3537  Q 2872 3491 3272 3391  z "
               transform="scale(0.015625)" />
            <path
               id="DejaVuSans-Bold-6b"
               d="M 538 4863  L 1656 4863  L 1656 2216  L 2944 3500  L 4244 3500  L 2534 1894  L 4378 0  L 3022 0  L 1656 1459  L 1656 0  L 538 0  L 538 4863  z "
               transform="scale(0.015625)" />
          </defs>
          <use
             xlink:href="#DejaVuSans-Bold-47"
             id="use495" />
          <use
             xlink:href="#DejaVuSans-Bold-6c"
             x="82.080078"
             id="use497" />
          <use
             xlink:href="#DejaVuSans-Bold-6f"
             x="116.357422"
             id="use499" />
          <use
             xlink:href="#DejaVuSans-Bold-62"
             x="185.058594"
             id="use501" />
          <use
             xlink:href="#DejaVuSans-Bold-61"
             x="256.640625"
             id="use503" />
          <use
             xlink:href="#DejaVuSans-Bold-6c"
             x="324.121094"
             id="use505" />
          <use
             xlink:href="#DejaVuSans-Bold-20"
             x="358.398438"
             id="use507" />
          <use
             xlink:href="#DejaVuSans-Bold-52"
             x="393.212891"
             id="use509" />
          <use
             xlink:href="#DejaVuSans-Bold-69"
             x="470.214844"
             id="use511" />
          <use
             xlink:href="#DejaVuSans-Bold-73"
             x="504.492188"
             id="use513" />
          <use
             xlink:href="#DejaVuSans-Bold-6b"
             x="564.013672"
             id="use515" />
          <use
             xlink:href="#DejaVuSans-Bold-73"
             x="630.517578"
             id="use517" />
        </g>
      </g>
    </g>
  </g>
  <defs
     id="defs527">
    <clipPath
       id="pbc9efe4d94">
      <path
         d="M 836.35662 454  C 836.35662 401.577536 826.030538 349.664815 805.969329 301.232774  C 785.908121 252.800733 756.501927 208.791253 719.433647 171.722973  C 682.365368 134.654693 638.355888 105.248499 589.923846 85.187291  C 541.491805 65.126082 489.579084 54.8 437.15662 54.8  C 384.734156 54.8 332.821435 65.126082 284.389394 85.187291  C 235.957353 105.248499 191.947873 134.654693 154.879593 171.722973  C 117.811314 208.791253 88.405119 252.800733 68.343911 301.232774  C 48.282702 349.664815 37.95662 401.577536 37.95662 454  C 37.95662 506.422464 48.282702 558.335185 68.343911 606.767226  C 88.405119 655.199267 117.811314 699.208747 154.879593 736.277027  C 191.947873 773.345307 235.957353 802.751501 284.389394 822.812709  C 332.821435 842.873918 384.734156 853.2 437.15662 853.2  C 489.579084 853.2 541.491805 842.873918 589.923846 822.812709  C 638.355888 802.751501 682.365368 773.345307 719.433647 736.277027  C 756.501927 699.208747 785.908121 655.199267 805.969329 606.767226  C 826.030538 558.335185 836.35662 506.422464 836.35662 454  M 437.15662 454  C 437.15662 454 437.15662 454 437.15662 454  C 437.15662 454 437.15662 454 437.15662 454  C 437.15662 454 437.15662 454 437.15662 454  C 437.15662 454 437.15662 454 437.15662 454  C 437.15662 454 437.15662 454 437.15662 454  C 437.15662 454 437.15662 454 437.15662 454  C 437.15662 454 437.15662 454 437.15662 454  C 437.15662 454 437.15662 454 437.15662 454  C 437.15662 454 437.15662 454 437.15662 454  C 437.15662 454 437.15662 454 437.15662 454  C 437.15662 454 437.15662 454 437.15662 454  C 437.15662 454 437.15662 454 437.15662 454  C 437.15662 454 437.15662 454 437.15662 454  C 437.15662 454 437.15662 454 437.15662 454  C 437.15662 454 437.15662 454 437.15662 454  C 437.15662 454 437.15662 454 437.15662 454  z "
         id="path524" />
    </clipPath>
  </defs>
</svg>
