<?xml version="1.0" encoding="UTF-8" standalone="no"?>
<svg
   xmlns:dc="http://purl.org/dc/elements/1.1/"
   xmlns:cc="http://creativecommons.org/ns#"
   xmlns:rdf="http://www.w3.org/1999/02/22-rdf-syntax-ns#"
   xmlns:svg="http://www.w3.org/2000/svg"
   xmlns="http://www.w3.org/2000/svg"
   xmlns:xlink="http://www.w3.org/1999/xlink"
   xmlns:sodipodi="http://sodipodi.sourceforge.net/DTD/sodipodi-0.dtd"
   xmlns:inkscape="http://www.inkscape.org/namespaces/inkscape"
   width="864pt"
   height="864pt"
   viewBox="0 0 864 864"
   version="1.1"
   id="svg582"
   sodipodi:docname="ocean_challenges_clockwork.svg"
   inkscape:export-filename="/home/erikz/SRC/AI/Deep_mind_roundtable/Lit search/lit_review_deepmind/plots/final_new/ocean_challenges_clockwork.png"
   inkscape:export-xdpi="96"
   inkscape:export-ydpi="96"
   inkscape:version="0.92.5 (2060ec1f9f, 2020-04-08)">
  <sodipodi:namedview
     pagecolor="#ffffff"
     bordercolor="#666666"
     borderopacity="1"
     objecttolerance="10"
     gridtolerance="10"
     guidetolerance="10"
     inkscape:pageopacity="0"
     inkscape:pageshadow="2"
     inkscape:window-width="778"
     inkscape:window-height="480"
     id="namedview584"
     showgrid="false"
     inkscape:zoom="0.20486111"
     inkscape:cx="576"
     inkscape:cy="576"
     inkscape:window-x="72"
     inkscape:window-y="27"
     inkscape:window-maximized="0"
     inkscape:current-layer="svg582" />
  <metadata
     id="metadata2">
    <rdf:RDF>
      <cc:Work>
        <dc:type
           rdf:resource="http://purl.org/dc/dcmitype/StillImage" />
        <dc:date>2025-05-01T14:38:05.898516</dc:date>
        <dc:format>image/svg+xml</dc:format>
        <dc:creator>
          <cc:Agent>
            <dc:title>Matplotlib v3.7.5, https://matplotlib.org/</dc:title>
          </cc:Agent>
        </dc:creator>
      </cc:Work>
    </rdf:RDF>
  </metadata>
  <defs
     id="defs6">
    <style
       type="text/css"
       id="style4">*{stroke-linejoin: round; stroke-linecap: butt}</style>
  </defs>
  <g
     id="figure_1">
    <g
       id="patch_1">
      <path
         d="M 0 864  L 864 864  L 864 0  L 0 0  L 0 864  z "
         style="fill: none"
         id="path8" />
    </g>
    <g
       id="axes_1">
      <g
         id="PathCollection_1">
        <path
           d="M 430.969342 250.061468  C 449.729905 250.061468 467.724609 242.607817 480.99033 229.342096  C 494.256052 216.076375 501.709702 198.08167 501.709702 179.321108  C 501.709702 160.560545 494.256052 142.56584 480.99033 129.300119  C 467.724609 116.034398 449.729905 108.580747 430.969342 108.580747  C 412.208779 108.580747 394.214075 116.034398 380.948354 129.300119  C 367.682632 142.56584 360.228982 160.560545 360.228982 179.321108  C 360.228982 198.08167 367.682632 216.076375 380.948354 229.342096  C 394.214075 242.607817 412.208779 250.061468 430.969342 250.061468  z "
           clip-path="url(#pecabf5f7a4)"
           style="fill: #4682b4; fill-opacity: 0.85; stroke: #ffffff; stroke-opacity: 0.85; stroke-width: 1.5"
           id="path11" />
        <path
           d="M 568.308788 275.349247  C 584.016276 275.349247 599.082541 269.108596 610.189412 258.001725  C 621.296283 246.894854 627.536934 231.828589 627.536934 216.121101  C 627.536934 200.413613 621.296283 185.347349 610.189412 174.240478  C 599.082541 163.133606 584.016276 156.892955 568.308788 156.892955  C 552.6013 156.892955 537.535036 163.133606 526.428164 174.240478  C 515.321293 185.347349 509.080642 200.413613 509.080642 216.121101  C 509.080642 231.828589 515.321293 246.894854 526.428164 258.001725  C 537.535036 269.108596 552.6013 275.349247 568.308788 275.349247  z "
           clip-path="url(#pecabf5f7a4)"
           style="fill: #4682b4; fill-opacity: 0.85; stroke: #ffffff; stroke-opacity: 0.85; stroke-width: 1.5"
           id="path13" />
        <path
           d="M 668.848241 363.525318  C 681.276921 363.525318 693.198229 358.587351 701.986633 349.798946  C 710.775037 341.010542 715.713005 329.089234 715.713005 316.660554  C 715.713005 304.231873 710.775037 292.310566 701.986633 283.522161  C 693.198229 274.733757 681.276921 269.79579 668.848241 269.79579  C 656.41956 269.79579 644.498253 274.733757 635.709848 283.522161  C 626.921444 292.310566 621.983477 304.231873 621.983477 316.660554  C 621.983477 329.089234 626.921444 341.010542 635.709848 349.798946  C 644.498253 358.587351 656.41956 363.525318 668.848241 363.525318  z "
           clip-path="url(#pecabf5f7a4)"
           style="fill: #4682b4; fill-opacity: 0.85; stroke: #ffffff; stroke-opacity: 0.85; stroke-width: 1.5"
           id="path15" />
        <path
           d="M 705.648234 496.852602  C 717.012877 496.852602 727.913584 492.337382 735.9496 484.301366  C 743.985616 476.26535 748.500837 465.364643 748.500837 454  C 748.500837 442.635357 743.985616 431.73465 735.9496 423.698634  C 727.913584 415.662618 717.012877 411.147398 705.648234 411.147398  C 694.283591 411.147398 683.382885 415.662618 675.346869 423.698634  C 667.310853 431.73465 662.795632 442.635357 662.795632 454  C 662.795632 465.364643 667.310853 476.26535 675.346869 484.301366  C 683.382885 492.337382 694.283591 496.852602 705.648234 496.852602  z "
           clip-path="url(#pecabf5f7a4)"
           style="fill: #4682b4; fill-opacity: 0.85; stroke: #ffffff; stroke-opacity: 0.85; stroke-width: 1.5"
           id="path17" />
        <path
           d="M 668.848241 634.192049  C 680.212884 634.192049 691.11359 629.676828 699.149606 621.640812  C 707.185622 613.604796 711.700843 602.704089 711.700843 591.339446  C 711.700843 579.974803 707.185622 569.074097 699.149606 561.03808  C 691.11359 553.002064 680.212884 548.486844 668.848241 548.486844  C 657.483598 548.486844 646.582891 553.002064 638.546875 561.03808  C 630.510859 569.074097 625.995638 579.974803 625.995638 591.339446  C 625.995638 602.704089 630.510859 613.604796 638.546875 621.640812  C 646.582891 629.676828 657.483598 634.192049 668.848241 634.192049  z "
           clip-path="url(#pecabf5f7a4)"
           style="fill: #4682b4; fill-opacity: 0.85; stroke: #ffffff; stroke-opacity: 0.85; stroke-width: 1.5"
           id="path19" />
        <path
           d="M 568.308788 729.522628  C 578.292022 729.522628 587.867712 725.556247 594.926924 718.497035  C 601.986136 711.437822 605.952517 701.862132 605.952517 691.878899  C 605.952517 681.895665 601.986136 672.319975 594.926924 665.260763  C 587.867712 658.201551 578.292022 654.23517 568.308788 654.23517  C 558.325555 654.23517 548.749864 658.201551 541.690652 665.260763  C 534.63144 672.319975 530.665059 681.895665 530.665059 691.878899  C 530.665059 701.862132 534.63144 711.437822 541.690652 718.497035  C 548.749864 725.556247 558.325555 729.522628 568.308788 729.522628  z "
           clip-path="url(#pecabf5f7a4)"
           style="fill: #4682b4; fill-opacity: 0.85; stroke: #ffffff; stroke-opacity: 0.85; stroke-width: 1.5"
           id="path21" />
        <path
           d="M 430.969342 758.874491  C 438.977308 758.874491 446.658367 755.692893 452.320855 750.030405  C 457.983342 744.367918 461.164941 736.686859 461.164941 728.678892  C 461.164941 720.670926 457.983342 712.989867 452.320855 707.32738  C 446.658367 701.664892 438.977308 698.483293 430.969342 698.483293  C 422.961375 698.483293 415.280316 701.664892 409.617829 707.32738  C 403.955342 712.989867 400.773743 720.670926 400.773743 728.678892  C 400.773743 736.686859 403.955342 744.367918 409.617829 750.030405  C 415.280316 755.692893 422.961375 758.874491 430.969342 758.874491  z "
           clip-path="url(#pecabf5f7a4)"
           style="fill: #4682b4; fill-opacity: 0.85; stroke: #ffffff; stroke-opacity: 0.85; stroke-width: 1.5"
           id="path23" />
        <path
           d="M 293.629896 708.327743  C 297.99218 708.327743 302.176384 706.594589 305.260985 703.509988  C 308.345586 700.425387 310.07874 696.241183 310.07874 691.878899  C 310.07874 687.516614 308.345586 683.332411 305.260985 680.24781  C 302.176384 677.163209 297.99218 675.430055 293.629896 675.430055  C 289.267611 675.430055 285.083408 677.163209 281.998807 680.24781  C 278.914206 683.332411 277.181052 687.516614 277.181052 691.878899  C 277.181052 696.241183 278.914206 700.425387 281.998807 703.509988  C 285.083408 706.594589 289.267611 708.327743 293.629896 708.327743  z "
           clip-path="url(#pecabf5f7a4)"
           style="fill: #4682b4; fill-opacity: 0.85; stroke: #ffffff; stroke-opacity: 0.85; stroke-width: 1.5"
           id="path25" />
        <path
           d="M 193.090443 607.78829  C 197.452728 607.78829 201.636931 606.055136 204.721532 602.970535  C 207.806133 599.885934 209.539287 595.701731 209.539287 591.339446  C 209.539287 586.977162 207.806133 582.792958 204.721532 579.708357  C 201.636931 576.623756 197.452728 574.890602 193.090443 574.890602  C 188.728159 574.890602 184.543955 576.623756 181.459354 579.708357  C 178.374753 582.792958 176.641599 586.977162 176.641599 591.339446  C 176.641599 595.701731 178.374753 599.885934 181.459354 602.970535  C 184.543955 606.055136 188.728159 607.78829 193.090443 607.78829  z "
           clip-path="url(#pecabf5f7a4)"
           style="fill: #4682b4; fill-opacity: 0.85; stroke: #ffffff; stroke-opacity: 0.85; stroke-width: 1.5"
           id="path27" />
        <path
           d="M 156.29045 470.448844  C 160.652734 470.448844 164.836938 468.71569 167.921539 465.631089  C 171.006139 462.546488 172.739293 458.362284 172.739293 454  C 172.739293 449.637716 171.006139 445.453512 167.921539 442.368911  C 164.836938 439.28431 160.652734 437.551156 156.29045 437.551156  C 151.928165 437.551156 147.743961 439.28431 144.659361 442.368911  C 141.57476 445.453512 139.841606 449.637716 139.841606 454  C 139.841606 458.362284 141.57476 462.546488 144.659361 465.631089  C 147.743961 468.71569 151.928165 470.448844 156.29045 470.448844  z "
           clip-path="url(#pecabf5f7a4)"
           style="fill: #4682b4; fill-opacity: 0.85; stroke: #ffffff; stroke-opacity: 0.85; stroke-width: 1.5"
           id="path29" />
        <path
           d="M 193.090443 333.109398  C 197.452728 333.109398 201.636931 331.376244 204.721532 328.291643  C 207.806133 325.207042 209.539287 321.022838 209.539287 316.660554  C 209.539287 312.298269 207.806133 308.114066 204.721532 305.029465  C 201.636931 301.944864 197.452728 300.21171 193.090443 300.21171  C 188.728159 300.21171 184.543955 301.944864 181.459354 305.029465  C 178.374753 308.114066 176.641599 312.298269 176.641599 316.660554  C 176.641599 321.022838 178.374753 325.207042 181.459354 328.291643  C 184.543955 331.376244 188.728159 333.109398 193.090443 333.109398  z "
           clip-path="url(#pecabf5f7a4)"
           style="fill: #4682b4; fill-opacity: 0.85; stroke: #ffffff; stroke-opacity: 0.85; stroke-width: 1.5"
           id="path31" />
        <path
           d="M 293.629896 232.569945  C 297.99218 232.569945 302.176384 230.836791 305.260985 227.75219  C 308.345586 224.667589 310.07874 220.483386 310.07874 216.121101  C 310.07874 211.758817 308.345586 207.574613 305.260985 204.490012  C 302.176384 201.405411 297.99218 199.672257 293.629896 199.672257  C 289.267611 199.672257 285.083408 201.405411 281.998807 204.490012  C 278.914206 207.574613 277.181052 211.758817 277.181052 216.121101  C 277.181052 220.483386 278.914206 224.667589 281.998807 227.75219  C 285.083408 230.836791 289.267611 232.569945 293.629896 232.569945  z "
           clip-path="url(#pecabf5f7a4)"
           style="fill: #4682b4; fill-opacity: 0.85; stroke: #ffffff; stroke-opacity: 0.85; stroke-width: 1.5"
           id="path33" />
      </g>
      <g
         id="PathCollection_2">
        <defs
           id="defs37">
          <path
             id="m38e4e4381f"
             d="M 0 93.5414  C 24.807469 93.5414 48.602229 83.685288 66.143758 66.143758  C 83.685288 48.602229 93.5414 24.807469 93.5414 0  C 93.5414 -24.807469 83.685288 -48.602229 66.143758 -66.143758  C 48.602229 -83.685288 24.807469 -93.5414 0 -93.5414  C -24.807469 -93.5414 -48.602229 -83.685288 -66.143758 -66.143758  C -83.685288 -48.602229 -93.5414 -24.807469 -93.5414 0  C -93.5414 24.807469 -83.685288 48.602229 -66.143758 66.143758  C -48.602229 83.685288 -24.807469 93.5414 0 93.5414  z "
             style="stroke: #ffffff; stroke-opacity: 0.92; stroke-width: 2" />
        </defs>
        <g
           clip-path="url(#pecabf5f7a4)"
           id="g41">
          <use
             xlink:href="#m38e4e4381f"
             x="430.969342"
             y="454"
             style="fill: #2a5f7f; fill-opacity: 0.92; stroke: #ffffff; stroke-opacity: 0.92; stroke-width: 2"
             id="use39" />
        </g>
      </g>
      <g
         id="text_1">
        <g
           id="patch_2">
          <path
             d="M 369.962287 100.998519  L 491.976397 100.998519  L 491.976397 81.849207  L 369.962287 81.849207  z "
             style="fill: #ffffff; opacity: 0.78"
             id="path44" />
        </g>
        <!-- neural network -->
        <g
           style="fill: #333333"
           transform="translate(371.989804 95.727463) scale(0.155963 -0.155963)"
           id="g88">
          <defs
             id="defs58">
            <path
               id="DejaVuSans-6e"
               d="M 3513 2113  L 3513 0  L 2938 0  L 2938 2094  Q 2938 2591 2744 2837  Q 2550 3084 2163 3084  Q 1697 3084 1428 2787  Q 1159 2491 1159 1978  L 1159 0  L 581 0  L 581 3500  L 1159 3500  L 1159 2956  Q 1366 3272 1645 3428  Q 1925 3584 2291 3584  Q 2894 3584 3203 3211  Q 3513 2838 3513 2113  z "
               transform="scale(0.015625)" />
            <path
               id="DejaVuSans-65"
               d="M 3597 1894  L 3597 1613  L 953 1613  Q 991 1019 1311 708  Q 1631 397 2203 397  Q 2534 397 2845 478  Q 3156 559 3463 722  L 3463 178  Q 3153 47 2828 -22  Q 2503 -91 2169 -91  Q 1331 -91 842 396  Q 353 884 353 1716  Q 353 2575 817 3079  Q 1281 3584 2069 3584  Q 2775 3584 3186 3129  Q 3597 2675 3597 1894  z M 3022 2063  Q 3016 2534 2758 2815  Q 2500 3097 2075 3097  Q 1594 3097 1305 2825  Q 1016 2553 972 2059  L 3022 2063  z "
               transform="scale(0.015625)" />
            <path
               id="DejaVuSans-75"
               d="M 544 1381  L 544 3500  L 1119 3500  L 1119 1403  Q 1119 906 1312 657  Q 1506 409 1894 409  Q 2359 409 2629 706  Q 2900 1003 2900 1516  L 2900 3500  L 3475 3500  L 3475 0  L 2900 0  L 2900 538  Q 2691 219 2414 64  Q 2138 -91 1772 -91  Q 1169 -91 856 284  Q 544 659 544 1381  z M 1991 3584  L 1991 3584  z "
               transform="scale(0.015625)" />
            <path
               id="DejaVuSans-72"
               d="M 2631 2963  Q 2534 3019 2420 3045  Q 2306 3072 2169 3072  Q 1681 3072 1420 2755  Q 1159 2438 1159 1844  L 1159 0  L 581 0  L 581 3500  L 1159 3500  L 1159 2956  Q 1341 3275 1631 3429  Q 1922 3584 2338 3584  Q 2397 3584 2469 3576  Q 2541 3569 2628 3553  L 2631 2963  z "
               transform="scale(0.015625)" />
            <path
               id="DejaVuSans-61"
               d="M 2194 1759  Q 1497 1759 1228 1600  Q 959 1441 959 1056  Q 959 750 1161 570  Q 1363 391 1709 391  Q 2188 391 2477 730  Q 2766 1069 2766 1631  L 2766 1759  L 2194 1759  z M 3341 1997  L 3341 0  L 2766 0  L 2766 531  Q 2569 213 2275 61  Q 1981 -91 1556 -91  Q 1019 -91 701 211  Q 384 513 384 1019  Q 384 1609 779 1909  Q 1175 2209 1959 2209  L 2766 2209  L 2766 2266  Q 2766 2663 2505 2880  Q 2244 3097 1772 3097  Q 1472 3097 1187 3025  Q 903 2953 641 2809  L 641 3341  Q 956 3463 1253 3523  Q 1550 3584 1831 3584  Q 2591 3584 2966 3190  Q 3341 2797 3341 1997  z "
               transform="scale(0.015625)" />
            <path
               id="DejaVuSans-6c"
               d="M 603 4863  L 1178 4863  L 1178 0  L 603 0  L 603 4863  z "
               transform="scale(0.015625)" />
            <path
               id="DejaVuSans-20"
               transform="scale(0.015625)" />
            <path
               id="DejaVuSans-74"
               d="M 1172 4494  L 1172 3500  L 2356 3500  L 2356 3053  L 1172 3053  L 1172 1153  Q 1172 725 1289 603  Q 1406 481 1766 481  L 2356 481  L 2356 0  L 1766 0  Q 1100 0 847 248  Q 594 497 594 1153  L 594 3053  L 172 3053  L 172 3500  L 594 3500  L 594 4494  L 1172 4494  z "
               transform="scale(0.015625)" />
            <path
               id="DejaVuSans-77"
               d="M 269 3500  L 844 3500  L 1563 769  L 2278 3500  L 2956 3500  L 3675 769  L 4391 3500  L 4966 3500  L 4050 0  L 3372 0  L 2619 2869  L 1863 0  L 1184 0  L 269 3500  z "
               transform="scale(0.015625)" />
            <path
               id="DejaVuSans-6f"
               d="M 1959 3097  Q 1497 3097 1228 2736  Q 959 2375 959 1747  Q 959 1119 1226 758  Q 1494 397 1959 397  Q 2419 397 2687 759  Q 2956 1122 2956 1747  Q 2956 2369 2687 2733  Q 2419 3097 1959 3097  z M 1959 3584  Q 2709 3584 3137 3096  Q 3566 2609 3566 1747  Q 3566 888 3137 398  Q 2709 -91 1959 -91  Q 1206 -91 779 398  Q 353 888 353 1747  Q 353 2609 779 3096  Q 1206 3584 1959 3584  z "
               transform="scale(0.015625)" />
            <path
               id="DejaVuSans-6b"
               d="M 581 4863  L 1159 4863  L 1159 1991  L 2875 3500  L 3609 3500  L 1753 1863  L 3688 0  L 2938 0  L 1159 1709  L 1159 0  L 581 0  L 581 4863  z "
               transform="scale(0.015625)" />
          </defs>
          <use
             xlink:href="#DejaVuSans-6e"
             id="use60" />
          <use
             xlink:href="#DejaVuSans-65"
             x="63.378906"
             id="use62" />
          <use
             xlink:href="#DejaVuSans-75"
             x="124.902344"
             id="use64" />
          <use
             xlink:href="#DejaVuSans-72"
             x="188.28125"
             id="use66" />
          <use
             xlink:href="#DejaVuSans-61"
             x="229.394531"
             id="use68" />
          <use
             xlink:href="#DejaVuSans-6c"
             x="290.673828"
             id="use70" />
          <use
             xlink:href="#DejaVuSans-20"
             x="318.457031"
             id="use72" />
          <use
             xlink:href="#DejaVuSans-6e"
             x="350.244141"
             id="use74" />
          <use
             xlink:href="#DejaVuSans-65"
             x="413.623047"
             id="use76" />
          <use
             xlink:href="#DejaVuSans-74"
             x="475.146484"
             id="use78" />
          <use
             xlink:href="#DejaVuSans-77"
             x="514.355469"
             id="use80" />
          <use
             xlink:href="#DejaVuSans-6f"
             x="596.142578"
             id="use82" />
          <use
             xlink:href="#DejaVuSans-72"
             x="657.324219"
             id="use84" />
          <use
             xlink:href="#DejaVuSans-6b"
             x="698.4375"
             id="use86" />
        </g>
      </g>
      <g
         id="text_2">
        <g
           id="patch_3">
          <path
             d="M 558.096702 149.185953  L 666.418119 149.185953  L 666.418119 130.813757  L 558.096702 130.813757  z "
             style="fill: #ffffff; opacity: 0.78"
             id="path91" />
        </g>
        <!-- random forest -->
        <g
           style="fill: #333333"
           transform="translate(560.157995 144.062627) scale(0.147235 -0.147235)"
           id="g126">
          <defs
             id="defs98">
            <path
               id="DejaVuSans-64"
               d="M 2906 2969  L 2906 4863  L 3481 4863  L 3481 0  L 2906 0  L 2906 525  Q 2725 213 2448 61  Q 2172 -91 1784 -91  Q 1150 -91 751 415  Q 353 922 353 1747  Q 353 2572 751 3078  Q 1150 3584 1784 3584  Q 2172 3584 2448 3432  Q 2725 3281 2906 2969  z M 947 1747  Q 947 1113 1208 752  Q 1469 391 1925 391  Q 2381 391 2643 752  Q 2906 1113 2906 1747  Q 2906 2381 2643 2742  Q 2381 3103 1925 3103  Q 1469 3103 1208 2742  Q 947 2381 947 1747  z "
               transform="scale(0.015625)" />
            <path
               id="DejaVuSans-6d"
               d="M 3328 2828  Q 3544 3216 3844 3400  Q 4144 3584 4550 3584  Q 5097 3584 5394 3201  Q 5691 2819 5691 2113  L 5691 0  L 5113 0  L 5113 2094  Q 5113 2597 4934 2840  Q 4756 3084 4391 3084  Q 3944 3084 3684 2787  Q 3425 2491 3425 1978  L 3425 0  L 2847 0  L 2847 2094  Q 2847 2600 2669 2842  Q 2491 3084 2119 3084  Q 1678 3084 1418 2786  Q 1159 2488 1159 1978  L 1159 0  L 581 0  L 581 3500  L 1159 3500  L 1159 2956  Q 1356 3278 1631 3431  Q 1906 3584 2284 3584  Q 2666 3584 2933 3390  Q 3200 3197 3328 2828  z "
               transform="scale(0.015625)" />
            <path
               id="DejaVuSans-66"
               d="M 2375 4863  L 2375 4384  L 1825 4384  Q 1516 4384 1395 4259  Q 1275 4134 1275 3809  L 1275 3500  L 2222 3500  L 2222 3053  L 1275 3053  L 1275 0  L 697 0  L 697 3053  L 147 3053  L 147 3500  L 697 3500  L 697 3744  Q 697 4328 969 4595  Q 1241 4863 1831 4863  L 2375 4863  z "
               transform="scale(0.015625)" />
            <path
               id="DejaVuSans-73"
               d="M 2834 3397  L 2834 2853  Q 2591 2978 2328 3040  Q 2066 3103 1784 3103  Q 1356 3103 1142 2972  Q 928 2841 928 2578  Q 928 2378 1081 2264  Q 1234 2150 1697 2047  L 1894 2003  Q 2506 1872 2764 1633  Q 3022 1394 3022 966  Q 3022 478 2636 193  Q 2250 -91 1575 -91  Q 1294 -91 989 -36  Q 684 19 347 128  L 347 722  Q 666 556 975 473  Q 1284 391 1588 391  Q 1994 391 2212 530  Q 2431 669 2431 922  Q 2431 1156 2273 1281  Q 2116 1406 1581 1522  L 1381 1569  Q 847 1681 609 1914  Q 372 2147 372 2553  Q 372 3047 722 3315  Q 1072 3584 1716 3584  Q 2034 3584 2315 3537  Q 2597 3491 2834 3397  z "
               transform="scale(0.015625)" />
          </defs>
          <use
             xlink:href="#DejaVuSans-72"
             id="use100" />
          <use
             xlink:href="#DejaVuSans-61"
             x="41.113281"
             id="use102" />
          <use
             xlink:href="#DejaVuSans-6e"
             x="102.392578"
             id="use104" />
          <use
             xlink:href="#DejaVuSans-64"
             x="165.771484"
             id="use106" />
          <use
             xlink:href="#DejaVuSans-6f"
             x="229.248047"
             id="use108" />
          <use
             xlink:href="#DejaVuSans-6d"
             x="290.429688"
             id="use110" />
          <use
             xlink:href="#DejaVuSans-20"
             x="387.841797"
             id="use112" />
          <use
             xlink:href="#DejaVuSans-66"
             x="419.628906"
             id="use114" />
          <use
             xlink:href="#DejaVuSans-6f"
             x="454.833984"
             id="use116" />
          <use
             xlink:href="#DejaVuSans-72"
             x="516.015625"
             id="use118" />
          <use
             xlink:href="#DejaVuSans-65"
             x="554.878906"
             id="use120" />
          <use
             xlink:href="#DejaVuSans-73"
             x="616.402344"
             id="use122" />
          <use
             xlink:href="#DejaVuSans-74"
             x="668.501953"
             id="use124" />
        </g>
      </g>
      <g
         id="text_3">
        <g
           id="patch_4">
          <path
             d="M 675.44962 281.391886  L 814.489354 281.391886  L 814.489354 264.031977  L 675.44962 264.031977  z "
             style="fill: #ffffff; opacity: 0.78"
             id="path129" />
        </g>
        <!-- supervised learning -->
        <g
           style="fill: #333333"
           transform="translate(677.503541 276.49029) scale(0.136928 -0.136928)"
           id="g176">
          <defs
             id="defs136">
            <path
               id="DejaVuSans-70"
               d="M 1159 525  L 1159 -1331  L 581 -1331  L 581 3500  L 1159 3500  L 1159 2969  Q 1341 3281 1617 3432  Q 1894 3584 2278 3584  Q 2916 3584 3314 3078  Q 3713 2572 3713 1747  Q 3713 922 3314 415  Q 2916 -91 2278 -91  Q 1894 -91 1617 61  Q 1341 213 1159 525  z M 3116 1747  Q 3116 2381 2855 2742  Q 2594 3103 2138 3103  Q 1681 3103 1420 2742  Q 1159 2381 1159 1747  Q 1159 1113 1420 752  Q 1681 391 2138 391  Q 2594 391 2855 752  Q 3116 1113 3116 1747  z "
               transform="scale(0.015625)" />
            <path
               id="DejaVuSans-76"
               d="M 191 3500  L 800 3500  L 1894 563  L 2988 3500  L 3597 3500  L 2284 0  L 1503 0  L 191 3500  z "
               transform="scale(0.015625)" />
            <path
               id="DejaVuSans-69"
               d="M 603 3500  L 1178 3500  L 1178 0  L 603 0  L 603 3500  z M 603 4863  L 1178 4863  L 1178 4134  L 603 4134  L 603 4863  z "
               transform="scale(0.015625)" />
            <path
               id="DejaVuSans-67"
               d="M 2906 1791  Q 2906 2416 2648 2759  Q 2391 3103 1925 3103  Q 1463 3103 1205 2759  Q 947 2416 947 1791  Q 947 1169 1205 825  Q 1463 481 1925 481  Q 2391 481 2648 825  Q 2906 1169 2906 1791  z M 3481 434  Q 3481 -459 3084 -895  Q 2688 -1331 1869 -1331  Q 1566 -1331 1297 -1286  Q 1028 -1241 775 -1147  L 775 -588  Q 1028 -725 1275 -790  Q 1522 -856 1778 -856  Q 2344 -856 2625 -561  Q 2906 -266 2906 331  L 2906 616  Q 2728 306 2450 153  Q 2172 0 1784 0  Q 1141 0 747 490  Q 353 981 353 1791  Q 353 2603 747 3093  Q 1141 3584 1784 3584  Q 2172 3584 2450 3431  Q 2728 3278 2906 2969  L 2906 3500  L 3481 3500  L 3481 434  z "
               transform="scale(0.015625)" />
          </defs>
          <use
             xlink:href="#DejaVuSans-73"
             id="use138" />
          <use
             xlink:href="#DejaVuSans-75"
             x="52.099609"
             id="use140" />
          <use
             xlink:href="#DejaVuSans-70"
             x="115.478516"
             id="use142" />
          <use
             xlink:href="#DejaVuSans-65"
             x="178.955078"
             id="use144" />
          <use
             xlink:href="#DejaVuSans-72"
             x="240.478516"
             id="use146" />
          <use
             xlink:href="#DejaVuSans-76"
             x="281.591797"
             id="use148" />
          <use
             xlink:href="#DejaVuSans-69"
             x="340.771484"
             id="use150" />
          <use
             xlink:href="#DejaVuSans-73"
             x="368.554688"
             id="use152" />
          <use
             xlink:href="#DejaVuSans-65"
             x="420.654297"
             id="use154" />
          <use
             xlink:href="#DejaVuSans-64"
             x="482.177734"
             id="use156" />
          <use
             xlink:href="#DejaVuSans-20"
             x="545.654297"
             id="use158" />
          <use
             xlink:href="#DejaVuSans-6c"
             x="577.441406"
             id="use160" />
          <use
             xlink:href="#DejaVuSans-65"
             x="605.224609"
             id="use162" />
          <use
             xlink:href="#DejaVuSans-61"
             x="666.748047"
             id="use164" />
          <use
             xlink:href="#DejaVuSans-72"
             x="728.027344"
             id="use166" />
          <use
             xlink:href="#DejaVuSans-6e"
             x="767.390625"
             id="use168" />
          <use
             xlink:href="#DejaVuSans-69"
             x="830.769531"
             id="use170" />
          <use
             xlink:href="#DejaVuSans-6e"
             x="858.552734"
             id="use172" />
          <use
             xlink:href="#DejaVuSans-67"
             x="921.931641"
             id="use174" />
        </g>
      </g>
      <g
         id="text_4">
        <g
           id="patch_5">
          <path
             d="M 778.302404 462.456332  L 808.788553 462.456332  L 808.788553 445.543668  L 778.302404 445.543668  z "
             style="fill: #ffffff; opacity: 0.78"
             id="path179" />
        </g>
        <!-- PCA -->
        <g
           style="fill: #333333"
           transform="translate(780.30341 457.681016) scale(0.1334 -0.1334)"
           id="g193">
          <defs
             id="defs185">
            <path
               id="DejaVuSans-50"
               d="M 1259 4147  L 1259 2394  L 2053 2394  Q 2494 2394 2734 2622  Q 2975 2850 2975 3272  Q 2975 3691 2734 3919  Q 2494 4147 2053 4147  L 1259 4147  z M 628 4666  L 2053 4666  Q 2838 4666 3239 4311  Q 3641 3956 3641 3272  Q 3641 2581 3239 2228  Q 2838 1875 2053 1875  L 1259 1875  L 1259 0  L 628 0  L 628 4666  z "
               transform="scale(0.015625)" />
            <path
               id="DejaVuSans-43"
               d="M 4122 4306  L 4122 3641  Q 3803 3938 3442 4084  Q 3081 4231 2675 4231  Q 1875 4231 1450 3742  Q 1025 3253 1025 2328  Q 1025 1406 1450 917  Q 1875 428 2675 428  Q 3081 428 3442 575  Q 3803 722 4122 1019  L 4122 359  Q 3791 134 3420 21  Q 3050 -91 2638 -91  Q 1578 -91 968 557  Q 359 1206 359 2328  Q 359 3453 968 4101  Q 1578 4750 2638 4750  Q 3056 4750 3426 4639  Q 3797 4528 4122 4306  z "
               transform="scale(0.015625)" />
            <path
               id="DejaVuSans-41"
               d="M 2188 4044  L 1331 1722  L 3047 1722  L 2188 4044  z M 1831 4666  L 2547 4666  L 4325 0  L 3669 0  L 3244 1197  L 1141 1197  L 716 0  L 50 0  L 1831 4666  z "
               transform="scale(0.015625)" />
          </defs>
          <use
             xlink:href="#DejaVuSans-50"
             id="use187" />
          <use
             xlink:href="#DejaVuSans-43"
             x="60.302734"
             id="use189" />
          <use
             xlink:href="#DejaVuSans-41"
             x="130.126953"
             id="use191" />
        </g>
      </g>
      <g
         id="text_5">
        <g
           id="patch_6">
          <path
             d="M 663.299292 643.7444  L 826.639683 643.7444  L 826.639683 626.831737  L 663.299292 626.831737  z "
             style="fill: #ffffff; opacity: 0.78"
             id="path196" />
        </g>
        <!-- support vector machine -->
        <g
           style="fill: #333333"
           transform="translate(665.300297 638.969084) scale(0.1334 -0.1334)"
           id="g247">
          <defs
             id="defs201">
            <path
               id="DejaVuSans-63"
               d="M 3122 3366  L 3122 2828  Q 2878 2963 2633 3030  Q 2388 3097 2138 3097  Q 1578 3097 1268 2742  Q 959 2388 959 1747  Q 959 1106 1268 751  Q 1578 397 2138 397  Q 2388 397 2633 464  Q 2878 531 3122 666  L 3122 134  Q 2881 22 2623 -34  Q 2366 -91 2075 -91  Q 1284 -91 818 406  Q 353 903 353 1747  Q 353 2603 823 3093  Q 1294 3584 2113 3584  Q 2378 3584 2631 3529  Q 2884 3475 3122 3366  z "
               transform="scale(0.015625)" />
            <path
               id="DejaVuSans-68"
               d="M 3513 2113  L 3513 0  L 2938 0  L 2938 2094  Q 2938 2591 2744 2837  Q 2550 3084 2163 3084  Q 1697 3084 1428 2787  Q 1159 2491 1159 1978  L 1159 0  L 581 0  L 581 4863  L 1159 4863  L 1159 2956  Q 1366 3272 1645 3428  Q 1925 3584 2291 3584  Q 2894 3584 3203 3211  Q 3513 2838 3513 2113  z "
               transform="scale(0.015625)" />
          </defs>
          <use
             xlink:href="#DejaVuSans-73"
             id="use203" />
          <use
             xlink:href="#DejaVuSans-75"
             x="52.099609"
             id="use205" />
          <use
             xlink:href="#DejaVuSans-70"
             x="115.478516"
             id="use207" />
          <use
             xlink:href="#DejaVuSans-70"
             x="178.955078"
             id="use209" />
          <use
             xlink:href="#DejaVuSans-6f"
             x="242.431641"
             id="use211" />
          <use
             xlink:href="#DejaVuSans-72"
             x="303.613281"
             id="use213" />
          <use
             xlink:href="#DejaVuSans-74"
             x="344.726562"
             id="use215" />
          <use
             xlink:href="#DejaVuSans-20"
             x="383.935547"
             id="use217" />
          <use
             xlink:href="#DejaVuSans-76"
             x="415.722656"
             id="use219" />
          <use
             xlink:href="#DejaVuSans-65"
             x="474.902344"
             id="use221" />
          <use
             xlink:href="#DejaVuSans-63"
             x="536.425781"
             id="use223" />
          <use
             xlink:href="#DejaVuSans-74"
             x="591.40625"
             id="use225" />
          <use
             xlink:href="#DejaVuSans-6f"
             x="630.615234"
             id="use227" />
          <use
             xlink:href="#DejaVuSans-72"
             x="691.796875"
             id="use229" />
          <use
             xlink:href="#DejaVuSans-20"
             x="732.910156"
             id="use231" />
          <use
             xlink:href="#DejaVuSans-6d"
             x="764.697266"
             id="use233" />
          <use
             xlink:href="#DejaVuSans-61"
             x="862.109375"
             id="use235" />
          <use
             xlink:href="#DejaVuSans-63"
             x="923.388672"
             id="use237" />
          <use
             xlink:href="#DejaVuSans-68"
             x="978.369141"
             id="use239" />
          <use
             xlink:href="#DejaVuSans-69"
             x="1041.748047"
             id="use241" />
          <use
             xlink:href="#DejaVuSans-6e"
             x="1069.53125"
             id="use243" />
          <use
             xlink:href="#DejaVuSans-65"
             x="1132.910156"
             id="use245" />
        </g>
      </g>
      <g
         id="text_6">
        <g
           id="patch_7">
          <path
             d="M 596.288878 776.285487  L 628.225943 776.285487  L 628.225943 759.714804  L 596.288878 759.714804  z "
             style="fill: #ffffff; opacity: 0.78"
             id="path250" />
        </g>
        <!-- tsne -->
        <g
           style="fill: #333333"
           transform="translate(598.347647 771.550719) scale(0.128673 -0.128673)"
           id="g261">
          <use
             xlink:href="#DejaVuSans-74"
             id="use253" />
          <use
             xlink:href="#DejaVuSans-73"
             x="39.208984"
             id="use255" />
          <use
             xlink:href="#DejaVuSans-6e"
             x="91.308594"
             id="use257" />
          <use
             xlink:href="#DejaVuSans-65"
             x="154.6875"
             id="use259" />
        </g>
      </g>
      <g
         id="text_7">
        <g
           id="patch_8">
          <path
             d="M 359.481842 824.400734  L 502.456842 824.400734  L 502.456842 808.75154  L 359.481842 808.75154  z "
             style="fill: #ffffff; opacity: 0.78"
             id="path264" />
        </g>
        <!-- reinforcement learning -->
        <g
           style="fill: #333333"
           transform="translate(361.426124 819.929264) scale(0.121518 -0.121518)"
           id="g311">
          <use
             xlink:href="#DejaVuSans-72"
             id="use267" />
          <use
             xlink:href="#DejaVuSans-65"
             x="38.863281"
             id="use269" />
          <use
             xlink:href="#DejaVuSans-69"
             x="100.386719"
             id="use271" />
          <use
             xlink:href="#DejaVuSans-6e"
             x="128.169922"
             id="use273" />
          <use
             xlink:href="#DejaVuSans-66"
             x="191.548828"
             id="use275" />
          <use
             xlink:href="#DejaVuSans-6f"
             x="226.753906"
             id="use277" />
          <use
             xlink:href="#DejaVuSans-72"
             x="287.935547"
             id="use279" />
          <use
             xlink:href="#DejaVuSans-63"
             x="326.798828"
             id="use281" />
          <use
             xlink:href="#DejaVuSans-65"
             x="381.779297"
             id="use283" />
          <use
             xlink:href="#DejaVuSans-6d"
             x="443.302734"
             id="use285" />
          <use
             xlink:href="#DejaVuSans-65"
             x="540.714844"
             id="use287" />
          <use
             xlink:href="#DejaVuSans-6e"
             x="602.238281"
             id="use289" />
          <use
             xlink:href="#DejaVuSans-74"
             x="665.617188"
             id="use291" />
          <use
             xlink:href="#DejaVuSans-20"
             x="704.826172"
             id="use293" />
          <use
             xlink:href="#DejaVuSans-6c"
             x="736.613281"
             id="use295" />
          <use
             xlink:href="#DejaVuSans-65"
             x="764.396484"
             id="use297" />
          <use
             xlink:href="#DejaVuSans-61"
             x="825.919922"
             id="use299" />
          <use
             xlink:href="#DejaVuSans-72"
             x="887.199219"
             id="use301" />
          <use
             xlink:href="#DejaVuSans-6e"
             x="926.5625"
             id="use303" />
          <use
             xlink:href="#DejaVuSans-69"
             x="989.941406"
             id="use305" />
          <use
             xlink:href="#DejaVuSans-6e"
             x="1017.724609"
             id="use307" />
          <use
             xlink:href="#DejaVuSans-67"
             x="1081.103516"
             id="use309" />
        </g>
      </g>
      <g
         id="text_8">
        <g
           id="patch_9">
          <path
             d="M 221.64143 774.839208  L 277.721117 774.839208  L 277.721117 761.161083  L 221.64143 761.161083  z "
             style="fill: #ffffff; opacity: 0.78"
             id="path314" />
        </g>
        <!-- regression -->
        <g
           style="fill: #333333"
           transform="translate(223.64143 770.75952) scale(0.1 -0.1)"
           id="g337">
          <use
             xlink:href="#DejaVuSans-72"
             id="use317" />
          <use
             xlink:href="#DejaVuSans-65"
             x="38.863281"
             id="use319" />
          <use
             xlink:href="#DejaVuSans-67"
             x="100.386719"
             id="use321" />
          <use
             xlink:href="#DejaVuSans-72"
             x="163.863281"
             id="use323" />
          <use
             xlink:href="#DejaVuSans-65"
             x="202.726562"
             id="use325" />
          <use
             xlink:href="#DejaVuSans-73"
             x="264.25"
             id="use327" />
          <use
             xlink:href="#DejaVuSans-73"
             x="316.349609"
             id="use329" />
          <use
             xlink:href="#DejaVuSans-69"
             x="368.449219"
             id="use331" />
          <use
             xlink:href="#DejaVuSans-6f"
             x="396.232422"
             id="use333" />
          <use
             xlink:href="#DejaVuSans-6e"
             x="457.414062"
             id="use335" />
        </g>
      </g>
      <g
         id="text_9">
        <g
           id="patch_10">
          <path
             d="M 82.628572 642.127131  L 151.309822 642.127131  L 151.309822 628.449006  L 82.628572 628.449006  z "
             style="fill: #ffffff; opacity: 0.78"
             id="path340" />
        </g>
        <!-- classification -->
        <g
           style="fill: #333333"
           transform="translate(84.628572 638.047443) scale(0.1 -0.1)"
           id="g371">
          <use
             xlink:href="#DejaVuSans-63"
             id="use343" />
          <use
             xlink:href="#DejaVuSans-6c"
             x="54.980469"
             id="use345" />
          <use
             xlink:href="#DejaVuSans-61"
             x="82.763672"
             id="use347" />
          <use
             xlink:href="#DejaVuSans-73"
             x="144.042969"
             id="use349" />
          <use
             xlink:href="#DejaVuSans-73"
             x="196.142578"
             id="use351" />
          <use
             xlink:href="#DejaVuSans-69"
             x="248.242188"
             id="use353" />
          <use
             xlink:href="#DejaVuSans-66"
             x="276.025391"
             id="use355" />
          <use
             xlink:href="#DejaVuSans-69"
             x="311.230469"
             id="use357" />
          <use
             xlink:href="#DejaVuSans-63"
             x="339.013672"
             id="use359" />
          <use
             xlink:href="#DejaVuSans-61"
             x="393.994141"
             id="use361" />
          <use
             xlink:href="#DejaVuSans-74"
             x="455.273438"
             id="use363" />
          <use
             xlink:href="#DejaVuSans-69"
             x="494.482422"
             id="use365" />
          <use
             xlink:href="#DejaVuSans-6f"
             x="522.265625"
             id="use367" />
          <use
             xlink:href="#DejaVuSans-6e"
             x="583.447266"
             id="use369" />
        </g>
      </g>
      <g
         id="text_10">
        <g
           id="patch_11">
          <path
             d="M 48.458049 460.839063  L 88.328361 460.839063  L 88.328361 447.160938  L 48.458049 447.160938  z "
             style="fill: #ffffff; opacity: 0.78"
             id="path374" />
        </g>
        <!-- dbscan -->
        <g
           style="fill: #333333"
           transform="translate(50.458049 456.759375) scale(0.1 -0.1)"
           id="g392">
          <defs
             id="defs378">
            <path
               id="DejaVuSans-62"
               d="M 3116 1747  Q 3116 2381 2855 2742  Q 2594 3103 2138 3103  Q 1681 3103 1420 2742  Q 1159 2381 1159 1747  Q 1159 1113 1420 752  Q 1681 391 2138 391  Q 2594 391 2855 752  Q 3116 1113 3116 1747  z M 1159 2969  Q 1341 3281 1617 3432  Q 1894 3584 2278 3584  Q 2916 3584 3314 3078  Q 3713 2572 3713 1747  Q 3713 922 3314 415  Q 2916 -91 2278 -91  Q 1894 -91 1617 61  Q 1341 213 1159 525  L 1159 0  L 581 0  L 581 4863  L 1159 4863  L 1159 2969  z "
               transform="scale(0.015625)" />
          </defs>
          <use
             xlink:href="#DejaVuSans-64"
             id="use380" />
          <use
             xlink:href="#DejaVuSans-62"
             x="63.476562"
             id="use382" />
          <use
             xlink:href="#DejaVuSans-73"
             x="126.953125"
             id="use384" />
          <use
             xlink:href="#DejaVuSans-63"
             x="179.052734"
             id="use386" />
          <use
             xlink:href="#DejaVuSans-61"
             x="234.033203"
             id="use388" />
          <use
             xlink:href="#DejaVuSans-6e"
             x="295.3125"
             id="use390" />
        </g>
      </g>
      <g
         id="text_11">
        <g
           id="patch_12">
          <path
             d="M 63.489509 279.550994  L 170.448884 279.550994  L 170.448884 265.872869  L 63.489509 265.872869  z "
             style="fill: #ffffff; opacity: 0.78"
             id="path395" />
        </g>
        <!-- redundancy analysis -->
        <g
           style="fill: #333333"
           transform="translate(65.489509 275.471307) scale(0.1 -0.1)"
           id="g439">
          <defs
             id="defs399">
            <path
               id="DejaVuSans-79"
               d="M 2059 -325  Q 1816 -950 1584 -1140  Q 1353 -1331 966 -1331  L 506 -1331  L 506 -850  L 844 -850  Q 1081 -850 1212 -737  Q 1344 -625 1503 -206  L 1606 56  L 191 3500  L 800 3500  L 1894 763  L 2988 3500  L 3597 3500  L 2059 -325  z "
               transform="scale(0.015625)" />
          </defs>
          <use
             xlink:href="#DejaVuSans-72"
             id="use401" />
          <use
             xlink:href="#DejaVuSans-65"
             x="38.863281"
             id="use403" />
          <use
             xlink:href="#DejaVuSans-64"
             x="100.386719"
             id="use405" />
          <use
             xlink:href="#DejaVuSans-75"
             x="163.863281"
             id="use407" />
          <use
             xlink:href="#DejaVuSans-6e"
             x="227.242188"
             id="use409" />
          <use
             xlink:href="#DejaVuSans-64"
             x="290.621094"
             id="use411" />
          <use
             xlink:href="#DejaVuSans-61"
             x="354.097656"
             id="use413" />
          <use
             xlink:href="#DejaVuSans-6e"
             x="415.376953"
             id="use415" />
          <use
             xlink:href="#DejaVuSans-63"
             x="478.755859"
             id="use417" />
          <use
             xlink:href="#DejaVuSans-79"
             x="533.736328"
             id="use419" />
          <use
             xlink:href="#DejaVuSans-20"
             x="592.916016"
             id="use421" />
          <use
             xlink:href="#DejaVuSans-61"
             x="624.703125"
             id="use423" />
          <use
             xlink:href="#DejaVuSans-6e"
             x="685.982422"
             id="use425" />
          <use
             xlink:href="#DejaVuSans-61"
             x="749.361328"
             id="use427" />
          <use
             xlink:href="#DejaVuSans-6c"
             x="810.640625"
             id="use429" />
          <use
             xlink:href="#DejaVuSans-79"
             x="838.423828"
             id="use431" />
          <use
             xlink:href="#DejaVuSans-73"
             x="897.603516"
             id="use433" />
          <use
             xlink:href="#DejaVuSans-69"
             x="949.703125"
             id="use435" />
          <use
             xlink:href="#DejaVuSans-73"
             x="977.486328"
             id="use437" />
        </g>
      </g>
      <g
         id="text_12">
        <g
           id="patch_13">
          <path
             d="M 228.001586 146.838917  L 271.360961 146.838917  L 271.360961 133.160792  L 228.001586 133.160792  z "
             style="fill: #ffffff; opacity: 0.78"
             id="path442" />
        </g>
        <!-- kmeans -->
        <g
           style="fill: #333333"
           transform="translate(230.001586 142.75923) scale(0.1 -0.1)"
           id="g457">
          <use
             xlink:href="#DejaVuSans-6b"
             id="use445" />
          <use
             xlink:href="#DejaVuSans-6d"
             x="57.910156"
             id="use447" />
          <use
             xlink:href="#DejaVuSans-65"
             x="155.322266"
             id="use449" />
          <use
             xlink:href="#DejaVuSans-61"
             x="216.845703"
             id="use451" />
          <use
             xlink:href="#DejaVuSans-6e"
             x="278.125"
             id="use453" />
          <use
             xlink:href="#DejaVuSans-73"
             x="341.503906"
             id="use455" />
        </g>
      </g>
      <g
         id="text_13">
        <!-- AI methods: Ocean Challenges -->
        <g
           style="fill: #2a5f7f"
           transform="translate(292.623873 24.8) scale(0.18 -0.18)"
           id="g521">
          <defs
             id="defs463">
            <path
               id="DejaVuSans-49"
               d="M 628 4666  L 1259 4666  L 1259 0  L 628 0  L 628 4666  z "
               transform="scale(0.015625)" />
            <path
               id="DejaVuSans-3a"
               d="M 750 794  L 1409 794  L 1409 0  L 750 0  L 750 794  z M 750 3309  L 1409 3309  L 1409 2516  L 750 2516  L 750 3309  z "
               transform="scale(0.015625)" />
            <path
               id="DejaVuSans-4f"
               d="M 2522 4238  Q 1834 4238 1429 3725  Q 1025 3213 1025 2328  Q 1025 1447 1429 934  Q 1834 422 2522 422  Q 3209 422 3611 934  Q 4013 1447 4013 2328  Q 4013 3213 3611 3725  Q 3209 4238 2522 4238  z M 2522 4750  Q 3503 4750 4090 4092  Q 4678 3434 4678 2328  Q 4678 1225 4090 567  Q 3503 -91 2522 -91  Q 1538 -91 948 565  Q 359 1222 359 2328  Q 359 3434 948 4092  Q 1538 4750 2522 4750  z "
               transform="scale(0.015625)" />
          </defs>
          <use
             xlink:href="#DejaVuSans-41"
             id="use465" />
          <use
             xlink:href="#DejaVuSans-49"
             x="68.408203"
             id="use467" />
          <use
             xlink:href="#DejaVuSans-20"
             x="97.900391"
             id="use469" />
          <use
             xlink:href="#DejaVuSans-6d"
             x="129.6875"
             id="use471" />
          <use
             xlink:href="#DejaVuSans-65"
             x="227.099609"
             id="use473" />
          <use
             xlink:href="#DejaVuSans-74"
             x="288.623047"
             id="use475" />
          <use
             xlink:href="#DejaVuSans-68"
             x="327.832031"
             id="use477" />
          <use
             xlink:href="#DejaVuSans-6f"
             x="391.210938"
             id="use479" />
          <use
             xlink:href="#DejaVuSans-64"
             x="452.392578"
             id="use481" />
          <use
             xlink:href="#DejaVuSans-73"
             x="515.869141"
             id="use483" />
          <use
             xlink:href="#DejaVuSans-3a"
             x="567.96875"
             id="use485" />
          <use
             xlink:href="#DejaVuSans-20"
             x="601.660156"
             id="use487" />
          <use
             xlink:href="#DejaVuSans-4f"
             x="633.447266"
             id="use489" />
          <use
             xlink:href="#DejaVuSans-63"
             x="712.158203"
             id="use491" />
          <use
             xlink:href="#DejaVuSans-65"
             x="767.138672"
             id="use493" />
          <use
             xlink:href="#DejaVuSans-61"
             x="828.662109"
             id="use495" />
          <use
             xlink:href="#DejaVuSans-6e"
             x="889.941406"
             id="use497" />
          <use
             xlink:href="#DejaVuSans-20"
             x="953.320312"
             id="use499" />
          <use
             xlink:href="#DejaVuSans-43"
             x="985.107422"
             id="use501" />
          <use
             xlink:href="#DejaVuSans-68"
             x="1054.931641"
             id="use503" />
          <use
             xlink:href="#DejaVuSans-61"
             x="1118.310547"
             id="use505" />
          <use
             xlink:href="#DejaVuSans-6c"
             x="1179.589844"
             id="use507" />
          <use
             xlink:href="#DejaVuSans-6c"
             x="1207.373047"
             id="use509" />
          <use
             xlink:href="#DejaVuSans-65"
             x="1235.15625"
             id="use511" />
          <use
             xlink:href="#DejaVuSans-6e"
             x="1296.679688"
             id="use513" />
          <use
             xlink:href="#DejaVuSans-67"
             x="1360.058594"
             id="use515" />
          <use
             xlink:href="#DejaVuSans-65"
             x="1423.535156"
             id="use517" />
          <use
             xlink:href="#DejaVuSans-73"
             x="1485.058594"
             id="use519" />
        </g>
      </g>
      <g
         id="text_14">
        <g
           id="patch_14">
          <path
             d="M 336.633873 435.610341  L 525.304811 435.610341  L 525.304811 410.129091  L 336.633873 410.129091  z "
             style="fill: #ffffff; opacity: 0.85"
             id="path524" />
        </g>
        <!-- Ocean Challenges -->
        <g
           style="fill: #2a5f7f"
           transform="translate(340.593873 427.766279) scale(0.18 -0.18)"
           id="g572">
          <defs
             id="defs538">
            <path
               id="DejaVuSans-Bold-4f"
               d="M 2719 3878  Q 2169 3878 1866 3472  Q 1563 3066 1563 2328  Q 1563 1594 1866 1187  Q 2169 781 2719 781  Q 3272 781 3575 1187  Q 3878 1594 3878 2328  Q 3878 3066 3575 3472  Q 3272 3878 2719 3878  z M 2719 4750  Q 3844 4750 4481 4106  Q 5119 3463 5119 2328  Q 5119 1197 4481 553  Q 3844 -91 2719 -91  Q 1597 -91 958 553  Q 319 1197 319 2328  Q 319 3463 958 4106  Q 1597 4750 2719 4750  z "
               transform="scale(0.015625)" />
            <path
               id="DejaVuSans-Bold-63"
               d="M 3366 3391  L 3366 2478  Q 3138 2634 2908 2709  Q 2678 2784 2431 2784  Q 1963 2784 1702 2511  Q 1441 2238 1441 1747  Q 1441 1256 1702 982  Q 1963 709 2431 709  Q 2694 709 2930 787  Q 3166 866 3366 1019  L 3366 103  Q 3103 6 2833 -42  Q 2563 -91 2291 -91  Q 1344 -91 809 395  Q 275 881 275 1747  Q 275 2613 809 3098  Q 1344 3584 2291 3584  Q 2566 3584 2833 3536  Q 3100 3488 3366 3391  z "
               transform="scale(0.015625)" />
            <path
               id="DejaVuSans-Bold-65"
               d="M 4031 1759  L 4031 1441  L 1416 1441  Q 1456 1047 1700 850  Q 1944 653 2381 653  Q 2734 653 3104 758  Q 3475 863 3866 1075  L 3866 213  Q 3469 63 3072 -14  Q 2675 -91 2278 -91  Q 1328 -91 801 392  Q 275 875 275 1747  Q 275 2603 792 3093  Q 1309 3584 2216 3584  Q 3041 3584 3536 3087  Q 4031 2591 4031 1759  z M 2881 2131  Q 2881 2450 2695 2645  Q 2509 2841 2209 2841  Q 1884 2841 1681 2658  Q 1478 2475 1428 2131  L 2881 2131  z "
               transform="scale(0.015625)" />
            <path
               id="DejaVuSans-Bold-61"
               d="M 2106 1575  Q 1756 1575 1579 1456  Q 1403 1338 1403 1106  Q 1403 894 1545 773  Q 1688 653 1941 653  Q 2256 653 2472 879  Q 2688 1106 2688 1447  L 2688 1575  L 2106 1575  z M 3816 1997  L 3816 0  L 2688 0  L 2688 519  Q 2463 200 2181 54  Q 1900 -91 1497 -91  Q 953 -91 614 226  Q 275 544 275 1050  Q 275 1666 698 1953  Q 1122 2241 2028 2241  L 2688 2241  L 2688 2328  Q 2688 2594 2478 2717  Q 2269 2841 1825 2841  Q 1466 2841 1156 2769  Q 847 2697 581 2553  L 581 3406  Q 941 3494 1303 3539  Q 1666 3584 2028 3584  Q 2975 3584 3395 3211  Q 3816 2838 3816 1997  z "
               transform="scale(0.015625)" />
            <path
               id="DejaVuSans-Bold-6e"
               d="M 4056 2131  L 4056 0  L 2931 0  L 2931 347  L 2931 1631  Q 2931 2084 2911 2256  Q 2891 2428 2841 2509  Q 2775 2619 2662 2680  Q 2550 2741 2406 2741  Q 2056 2741 1856 2470  Q 1656 2200 1656 1722  L 1656 0  L 538 0  L 538 3500  L 1656 3500  L 1656 2988  Q 1909 3294 2193 3439  Q 2478 3584 2822 3584  Q 3428 3584 3742 3212  Q 4056 2841 4056 2131  z "
               transform="scale(0.015625)" />
            <path
               id="DejaVuSans-Bold-20"
               transform="scale(0.015625)" />
            <path
               id="DejaVuSans-Bold-43"
               d="M 4288 256  Q 3956 84 3597 -3  Q 3238 -91 2847 -91  Q 1681 -91 1000 561  Q 319 1213 319 2328  Q 319 3447 1000 4098  Q 1681 4750 2847 4750  Q 3238 4750 3597 4662  Q 3956 4575 4288 4403  L 4288 3438  Q 3953 3666 3628 3772  Q 3303 3878 2944 3878  Q 2300 3878 1931 3465  Q 1563 3053 1563 2328  Q 1563 1606 1931 1193  Q 2300 781 2944 781  Q 3303 781 3628 887  Q 3953 994 4288 1222  L 4288 256  z "
               transform="scale(0.015625)" />
            <path
               id="DejaVuSans-Bold-68"
               d="M 4056 2131  L 4056 0  L 2931 0  L 2931 347  L 2931 1625  Q 2931 2084 2911 2256  Q 2891 2428 2841 2509  Q 2775 2619 2662 2680  Q 2550 2741 2406 2741  Q 2056 2741 1856 2470  Q 1656 2200 1656 1722  L 1656 0  L 538 0  L 538 4863  L 1656 4863  L 1656 2988  Q 1909 3294 2193 3439  Q 2478 3584 2822 3584  Q 3428 3584 3742 3212  Q 4056 2841 4056 2131  z "
               transform="scale(0.015625)" />
            <path
               id="DejaVuSans-Bold-6c"
               d="M 538 4863  L 1656 4863  L 1656 0  L 538 0  L 538 4863  z "
               transform="scale(0.015625)" />
            <path
               id="DejaVuSans-Bold-67"
               d="M 2919 594  Q 2688 288 2409 144  Q 2131 0 1766 0  Q 1125 0 706 504  Q 288 1009 288 1791  Q 288 2575 706 3076  Q 1125 3578 1766 3578  Q 2131 3578 2409 3434  Q 2688 3291 2919 2981  L 2919 3500  L 4044 3500  L 4044 353  Q 4044 -491 3511 -936  Q 2978 -1381 1966 -1381  Q 1638 -1381 1331 -1331  Q 1025 -1281 716 -1178  L 716 -306  Q 1009 -475 1290 -558  Q 1572 -641 1856 -641  Q 2406 -641 2662 -400  Q 2919 -159 2919 353  L 2919 594  z M 2181 2772  Q 1834 2772 1640 2515  Q 1447 2259 1447 1791  Q 1447 1309 1634 1061  Q 1822 813 2181 813  Q 2531 813 2725 1069  Q 2919 1325 2919 1791  Q 2919 2259 2725 2515  Q 2531 2772 2181 2772  z "
               transform="scale(0.015625)" />
            <path
               id="DejaVuSans-Bold-73"
               d="M 3272 3391  L 3272 2541  Q 2913 2691 2578 2766  Q 2244 2841 1947 2841  Q 1628 2841 1473 2761  Q 1319 2681 1319 2516  Q 1319 2381 1436 2309  Q 1553 2238 1856 2203  L 2053 2175  Q 2913 2066 3209 1816  Q 3506 1566 3506 1031  Q 3506 472 3093 190  Q 2681 -91 1863 -91  Q 1516 -91 1145 -36  Q 775 19 384 128  L 384 978  Q 719 816 1070 734  Q 1422 653 1784 653  Q 2113 653 2278 743  Q 2444 834 2444 1013  Q 2444 1163 2330 1236  Q 2216 1309 1875 1350  L 1678 1375  Q 931 1469 631 1722  Q 331 1975 331 2491  Q 331 3047 712 3315  Q 1094 3584 1881 3584  Q 2191 3584 2531 3537  Q 2872 3491 3272 3391  z "
               transform="scale(0.015625)" />
          </defs>
          <use
             xlink:href="#DejaVuSans-Bold-4f"
             id="use540" />
          <use
             xlink:href="#DejaVuSans-Bold-63"
             x="85.009766"
             id="use542" />
          <use
             xlink:href="#DejaVuSans-Bold-65"
             x="144.287109"
             id="use544" />
          <use
             xlink:href="#DejaVuSans-Bold-61"
             x="212.109375"
             id="use546" />
          <use
             xlink:href="#DejaVuSans-Bold-6e"
             x="279.589844"
             id="use548" />
          <use
             xlink:href="#DejaVuSans-Bold-20"
             x="350.78125"
             id="use550" />
          <use
             xlink:href="#DejaVuSans-Bold-43"
             x="385.595703"
             id="use552" />
          <use
             xlink:href="#DejaVuSans-Bold-68"
             x="458.984375"
             id="use554" />
          <use
             xlink:href="#DejaVuSans-Bold-61"
             x="530.175781"
             id="use556" />
          <use
             xlink:href="#DejaVuSans-Bold-6c"
             x="597.65625"
             id="use558" />
          <use
             xlink:href="#DejaVuSans-Bold-6c"
             x="631.933594"
             id="use560" />
          <use
             xlink:href="#DejaVuSans-Bold-65"
             x="666.210938"
             id="use562" />
          <use
             xlink:href="#DejaVuSans-Bold-6e"
             x="734.033203"
             id="use564" />
          <use
             xlink:href="#DejaVuSans-Bold-67"
             x="805.224609"
             id="use566" />
          <use
             xlink:href="#DejaVuSans-Bold-65"
             x="876.806641"
             id="use568" />
          <use
             xlink:href="#DejaVuSans-Bold-73"
             x="944.628906"
             id="use570" />
        </g>
      </g>
    </g>
  </g>
  <defs
     id="defs580">
    <clipPath
       id="pecabf5f7a4">
      <path
         d="M 830.169342 454  C 830.169342 401.577536 819.84326 349.664815 799.782051 301.232774  C 779.720843 252.800733 750.314649 208.791253 713.246369 171.722973  C 676.178089 134.654693 632.168609 105.248499 583.736568 85.187291  C 535.304527 65.126082 483.391806 54.8 430.969342 54.8  C 378.546878 54.8 326.634157 65.126082 278.202116 85.187291  C 229.770074 105.248499 185.760594 134.654693 148.692315 171.722973  C 111.624035 208.791253 82.217841 252.800733 62.156633 301.232774  C 42.095424 349.664815 31.769342 401.577536 31.769342 454  C 31.769342 506.422464 42.095424 558.335185 62.156633 606.767226  C 82.217841 655.199267 111.624035 699.208747 148.692315 736.277027  C 185.760594 773.345307 229.770074 802.751501 278.202116 822.812709  C 326.634157 842.873918 378.546878 853.2 430.969342 853.2  C 483.391806 853.2 535.304527 842.873918 583.736568 822.812709  C 632.168609 802.751501 676.178089 773.345307 713.246369 736.277027  C 750.314649 699.208747 779.720843 655.199267 799.782051 606.767226  C 819.84326 558.335185 830.169342 506.422464 830.169342 454  M 430.969342 454  C 430.969342 454 430.969342 454 430.969342 454  C 430.969342 454 430.969342 454 430.969342 454  C 430.969342 454 430.969342 454 430.969342 454  C 430.969342 454 430.969342 454 430.969342 454  C 430.969342 454 430.969342 454 430.969342 454  C 430.969342 454 430.969342 454 430.969342 454  C 430.969342 454 430.969342 454 430.969342 454  C 430.969342 454 430.969342 454 430.969342 454  C 430.969342 454 430.969342 454 430.969342 454  C 430.969342 454 430.969342 454 430.969342 454  C 430.969342 454 430.969342 454 430.969342 454  C 430.969342 454 430.969342 454 430.969342 454  C 430.969342 454 430.969342 454 430.969342 454  C 430.969342 454 430.969342 454 430.969342 454  C 430.969342 454 430.969342 454 430.969342 454  C 430.969342 454 430.969342 454 430.969342 454  z "
         id="path577" />
    </clipPath>
  </defs>
</svg>
