<svg class="main-svg" xmlns="http://www.w3.org/2000/svg" xmlns:xlink="http://www.w3.org/1999/xlink" width="1200" height="1200" style="" viewBox="0 0 1200 1200"><rect x="0" y="0" width="1200" height="1200" style="fill: rgb(255, 255, 255); fill-opacity: 1;"/><defs id="defs-32d6bb"><g class="clips"/><g class="gradients"/><g class="patterns"/></defs><g class="bglayer"/><g class="layer-below"><g class="imagelayer"/><g class="shapelayer"/></g><g class="cartesianlayer"/><g class="polarlayer"/><g class="smithlayer"/><g class="ternarylayer"/><g class="geolayer"/><g class="funnelarealayer"/><g class="pielayer"/><g class="iciclelayer"/><g class="treemaplayer"/><g class="sunburstlayer"/><g class="glimages"/><g class="sankey" transform="translate(80,100)matrix(1 0 0 1 0 0)" style="box-sizing: content-box; position: absolute; left: 0px; shape-rendering: geometricprecision; pointer-events: none;"><g class="sankey-links" style="fill: none;"><path class="sankey-link" d="M114,569.2190891737116C312,569.2190891737116 312,635.5298609217335 510,635.5298609217335L510,648.2819743659658C312,648.2819743659658 312,581.9712026179438 114,581.9712026179438Z" style="stroke: rgb(68, 68, 68); stroke-opacity: 1; fill: rgb(0, 0, 0); fill-opacity: 0.2; stroke-width: 0; opacity: 1;"/><path class="sankey-link" d="M114,555.2289064630489C312,555.2289064630489 312,193.51022634305974 510,193.51022634305974L510,207.50040905372242C312,207.50040905372242 312,569.2190891737115 114,569.2190891737115Z" style="stroke: rgb(68, 68, 68); stroke-opacity: 1; fill: rgb(0, 0, 0); fill-opacity: 0.2; stroke-width: 0; opacity: 1;"/><path class="sankey-link" d="M114,581.971202617944C312,581.971202617944 312,909.676793018816 510,909.676793018816L510,914.8766839378235C312,914.8766839378235 312,587.1710935369514 114,587.1710935369514Z" style="stroke: rgb(68, 68, 68); stroke-opacity: 1; fill: rgb(0, 0, 0); fill-opacity: 0.2; stroke-width: 0; opacity: 1;"/><path class="sankey-link" d="M114,1106.4349059176438C312,1106.4349059176438 312,765.4033269702745 510,765.4033269702745L510,766.0223616034896C312,766.0223616034896 312,1107.053940550859 114,1107.053940550859Z" style="stroke: rgb(0, 0, 0); stroke-opacity: 0.2; fill: rgb(0, 0, 0); fill-opacity: 0.2; stroke-width: 1; opacity: 1;"/><path class="sankey-link" d="M114,1104.8254158712843C312,1104.8254158712843 312,412.2770657212981 510,412.2770657212981L510,413.88655576765746C312,413.88655576765746 312,1106.4349059176438 114,1106.4349059176438Z" style="stroke: rgb(68, 68, 68); stroke-opacity: 1; fill: rgb(0, 0, 0); fill-opacity: 0.2; stroke-width: 0; opacity: 1;"/><path class="sankey-link" d="M114,1107.053940550859C312,1107.053940550859 312,1016.522170711753 510,1016.522170711753L510,1017.3888191982542C312,1017.3888191982542 312,1107.92058903736 114,1107.92058903736Z" style="stroke: rgb(0, 0, 0); stroke-opacity: 0.2; fill: rgb(0, 0, 0); fill-opacity: 0.2; stroke-width: 1; opacity: 1;"/><path class="sankey-link" d="M114,324.40305426779446C312,324.40305426779446 312,548.4935914916816 510,548.4935914916816L510,601.3591491682564C312,601.3591491682564 312,377.26861194436935 114,377.26861194436935Z" style="stroke: rgb(68, 68, 68); stroke-opacity: 1; fill: rgb(0, 0, 0); fill-opacity: 0.2; stroke-width: 0; opacity: 1;"/><path class="sankey-link" d="M114,277.2326152167991C312,277.2326152167991 312,110.93100627215708 510,110.93100627215708L510,158.10144532315243C312,158.10144532315243 312,324.40305426779446 114,324.40305426779446Z" style="stroke: rgb(68, 68, 68); stroke-opacity: 1; fill: rgb(0, 0, 0); fill-opacity: 0.2; stroke-width: 0; opacity: 1;"/><path class="sankey-link" d="M114,377.2686119443693C312,377.2686119443693 312,891.1057540223611 510,891.1057540223611L510,902.7436051268061C312,902.7436051268061 312,388.9064630488144 114,388.9064630488144Z" style="stroke: rgb(68, 68, 68); stroke-opacity: 1; fill: rgb(0, 0, 0); fill-opacity: 0.2; stroke-width: 0; opacity: 1;"/><path class="sankey-link" d="M114,110.93100627215708C312,110.93100627215708 312,429.88655576765655 510,429.88655576765655L510,548.4935914916816C312,548.4935914916816 312,229.53804199618216 114,229.53804199618216Z" style="stroke: rgb(68, 68, 68); stroke-opacity: 1; fill: rgb(0, 0, 0); fill-opacity: 0.2; stroke-width: 0; opacity: 1;"/><path class="sankey-link" d="M114,0C312,0 312,0 510,0L510,110.93100627215708C312,110.93100627215708 312,110.93100627215708 114,110.93100627215708Z" style="stroke: rgb(68, 68, 68); stroke-opacity: 1; fill: rgb(0, 0, 0); fill-opacity: 0.2; stroke-width: 0; opacity: 1;"/><path class="sankey-link" d="M114,229.5380419961822C312,229.5380419961822 312,859.4111808017448 510,859.4111808017448L510,891.1057540223611C312,891.1057540223611 312,261.2326152167985 114,261.2326152167985Z" style="stroke: rgb(68, 68, 68); stroke-opacity: 1; fill: rgb(0, 0, 0); fill-opacity: 0.2; stroke-width: 0; opacity: 1;"/><path class="sankey-link" d="M114,408.74447777474774C312,408.74447777474774 312,601.3591491682565 510,601.3591491682565L510,604.4543223343322C312,604.4543223343322 312,411.83965094082356 114,411.83965094082356Z" style="stroke: rgb(68, 68, 68); stroke-opacity: 1; fill: rgb(0, 0, 0); fill-opacity: 0.2; stroke-width: 0; opacity: 1;"/><path class="sankey-link" d="M114,404.90646304881375C312,404.90646304881375 312,158.10144532315246 510,158.10144532315246L510,161.93946004908645C312,161.93946004908645 312,408.7444777747478 114,408.7444777747478Z" style="stroke: rgb(68, 68, 68); stroke-opacity: 1; fill: rgb(0, 0, 0); fill-opacity: 0.2; stroke-width: 0; opacity: 1;"/><path class="sankey-link" d="M114,411.83965094082356C312,411.83965094082356 312,902.7436051268062 510,902.7436051268062L510,903.4864466866643C312,903.4864466866643 312,412.5824925006818 114,412.5824925006818Z" style="stroke: rgb(0, 0, 0); stroke-opacity: 0.2; fill: rgb(0, 0, 0); fill-opacity: 0.2; stroke-width: 1; opacity: 1;"/><path class="sankey-link" d="M114,936.4190891737118C312,936.4190891737118 312,696.5666757567485 510,696.5666757567485L510,765.4033269702745C312,765.4033269702745 312,1005.2557403872378 114,1005.2557403872378Z" style="stroke: rgb(68, 68, 68); stroke-opacity: 1; fill: rgb(0, 0, 0); fill-opacity: 0.2; stroke-width: 0; opacity: 1;"/><path class="sankey-link" d="M114,787.9745841287158C312,787.9745841287158 312,263.8325606763022 510,263.8325606763022L510,412.27706572129813C312,412.27706572129813 312,936.4190891737117 114,936.4190891737117Z" style="stroke: rgb(68, 68, 68); stroke-opacity: 1; fill: rgb(0, 0, 0); fill-opacity: 0.2; stroke-width: 0; opacity: 1;"/><path class="sankey-link" d="M114,1005.2557403872377C312,1005.2557403872377 312,932.9524952277061 510,932.9524952277061L510,1016.522170711753C312,1016.522170711753 312,1088.8254158712846 114,1088.8254158712846Z" style="stroke: rgb(68, 68, 68); stroke-opacity: 1; fill: rgb(0, 0, 0); fill-opacity: 0.2; stroke-width: 0; opacity: 1;"/><path class="sankey-link" d="M114,688.5858194709575C312,688.5858194709575 312,648.2819743659659 510,648.2819743659659L510,696.5666757567485C312,696.5666757567485 312,736.8705208617401 114,736.8705208617401Z" style="stroke: rgb(68, 68, 68); stroke-opacity: 1; fill: rgb(0, 0, 0); fill-opacity: 0.2; stroke-width: 0; opacity: 1;"/><path class="sankey-link" d="M114,632.2536678483777C312,632.2536678483777 312,207.50040905372242 510,207.50040905372242L510,263.8325606763022C312,263.8325606763022 312,688.5858194709574 114,688.5858194709574Z" style="stroke: rgb(68, 68, 68); stroke-opacity: 1; fill: rgb(0, 0, 0); fill-opacity: 0.2; stroke-width: 0; opacity: 1;"/><path class="sankey-link" d="M114,736.8705208617401C312,736.8705208617401 312,914.8766839378234 510,914.8766839378234L510,932.9524952277061C312,932.9524952277061 312,754.9463321516229 114,754.9463321516229Z" style="stroke: rgb(68, 68, 68); stroke-opacity: 1; fill: rgb(0, 0, 0); fill-opacity: 0.2; stroke-width: 0; opacity: 1;"/><path class="sankey-link" d="M114,460.15325879465513C312,460.15325879465513 312,604.4543223343323 510,604.4543223343323L510,635.5298609217334C312,635.5298609217334 312,491.2287973820563 114,491.2287973820563Z" style="stroke: rgb(68, 68, 68); stroke-opacity: 1; fill: rgb(0, 0, 0); fill-opacity: 0.2; stroke-width: 0; opacity: 1;"/><path class="sankey-link" d="M114,428.58249250068184C312,428.58249250068184 312,161.93946004908648 510,161.93946004908648L510,193.51022634305977C312,193.51022634305977 312,460.15325879465513 114,460.15325879465513Z" style="stroke: rgb(68, 68, 68); stroke-opacity: 1; fill: rgb(0, 0, 0); fill-opacity: 0.2; stroke-width: 0; opacity: 1;"/><path class="sankey-link" d="M114,491.22879738205626C312,491.22879738205626 312,903.4864466866644 510,903.4864466866644L510,909.676793018816C312,909.676793018816 312,497.4191437142079 114,497.4191437142079Z" style="stroke: rgb(68, 68, 68); stroke-opacity: 1; fill: rgb(0, 0, 0); fill-opacity: 0.2; stroke-width: 0; opacity: 1;"/><path class="sankey-link" d="M530,92.11235342241612C728,92.11235342241612 728,717.2011998909188 926,717.2011998909188L926,806.3421870739021C728,806.3421870739021 728,181.2533406053995 530,181.2533406053995Z" style="stroke: rgb(68, 68, 68); stroke-opacity: 1; fill: rgb(0, 0, 0); fill-opacity: 0.2; stroke-width: 0; opacity: 1;"/><path class="sankey-link" d="M530,265.3182437960185C728,265.3182437960185 728,977.4640850831738 926,977.4640850831738L926,1021.1679301881643C728,1021.1679301881643 728,309.022088901009 530,309.022088901009Z" style="stroke: rgb(68, 68, 68); stroke-opacity: 1; fill: rgb(0, 0, 0); fill-opacity: 0.2; stroke-width: 0; opacity: 1;"/><path class="sankey-link" d="M530,181.2533406053995C728,181.2533406053995 728,825.313553313335 926,825.313553313335L926,864.4365421325333C728,864.4365421325333 728,220.37632942459777 530,220.37632942459777Z" style="stroke: rgb(68, 68, 68); stroke-opacity: 1; fill: rgb(0, 0, 0); fill-opacity: 0.2; stroke-width: 0; opacity: 1;"/><path class="sankey-link" d="M530,44.818107444777745C728,44.818107444777745 728,508.2811017180257 926,508.2811017180257L926,534.4043632397055C728,534.4043632397055 728,70.94136896645759 530,70.94136896645759Z" style="stroke: rgb(68, 68, 68); stroke-opacity: 1; fill: rgb(0, 0, 0); fill-opacity: 0.2; stroke-width: 0; opacity: 1;"/><path class="sankey-link" d="M530,70.94136896645759C728,70.94136896645759 728,678.79214616853 926,678.79214616853L926,699.9631306244887C728,699.9631306244887 728,92.11235342241613 530,92.11235342241613Z" style="stroke: rgb(68, 68, 68); stroke-opacity: 1; fill: rgb(0, 0, 0); fill-opacity: 0.2; stroke-width: 0; opacity: 1;"/><path class="sankey-link" d="M530,245.75674938641941C728,245.75674938641941 728,940.4169075538584 926,940.4169075538584L926,959.9784019634576C728,959.9784019634576 728,265.3182437960185 530,265.3182437960185Z" style="stroke: rgb(68, 68, 68); stroke-opacity: 1; fill: rgb(0, 0, 0); fill-opacity: 0.2; stroke-width: 0; opacity: 1;"/><path class="sankey-link" d="M530,16.342514316880283C728,16.342514316880283 728,387.85383146986646 926,387.85383146986646L926,406.6724843196074C728,406.6724843196074 728,35.16116716662121 530,35.16116716662121Z" style="stroke: rgb(68, 68, 68); stroke-opacity: 1; fill: rgb(0, 0, 0); fill-opacity: 0.2; stroke-width: 0; opacity: 1;"/><path class="sankey-link" d="M530,232.88082901554404C728,232.88082901554404 728,911.5409871829829 926,911.5409871829829L926,924.4169075538582C728,924.4169075538582 728,245.7567493864194 530,245.7567493864194Z" style="stroke: rgb(68, 68, 68); stroke-opacity: 1; fill: rgb(0, 0, 0); fill-opacity: 0.2; stroke-width: 0; opacity: 1;"/><path class="sankey-link" d="M530,220.37632942459777C728,220.37632942459777 728,883.0364875920368 926,883.0364875920368L926,895.5409871829831C728,895.5409871829831 728,232.88082901554407 530,232.88082901554407Z" style="stroke: rgb(68, 68, 68); stroke-opacity: 1; fill: rgb(0, 0, 0); fill-opacity: 0.2; stroke-width: 0; opacity: 1;"/><path class="sankey-link" d="M530,4.704663212435234C728,4.704663212435234 728,345.42094355058634 926,345.42094355058634L926,357.0587946550314C728,357.0587946550314 728,16.342514316880283 530,16.342514316880283Z" style="stroke: rgb(68, 68, 68); stroke-opacity: 1; fill: rgb(0, 0, 0); fill-opacity: 0.2; stroke-width: 0; opacity: 1;"/><path class="sankey-link" d="M530,35.16116716662121C728,35.16116716662121 728,482.62416143986917 926,482.62416143986917L926,492.2811017180257C728,492.2811017180257 728,44.81810744477774 530,44.81810744477774Z" style="stroke: rgb(68, 68, 68); stroke-opacity: 1; fill: rgb(0, 0, 0); fill-opacity: 0.2; stroke-width: 0; opacity: 1;"/><path class="sankey-link" d="M530,0C728,0 728,72.68590128170165 926,72.68590128170165L926,77.39056449413688C728,77.39056449413688 728,4.704663212435233 530,4.704663212435233Z" style="stroke: rgb(68, 68, 68); stroke-opacity: 1; fill: rgb(0, 0, 0); fill-opacity: 0.2; stroke-width: 0; opacity: 1;"/><path class="sankey-link" d="M530,538.2176165803099C728,538.2176165803099 728,534.4043632397055 926,534.4043632397055L926,652.2685574038725C728,652.2685574038725 728,656.0818107444769 530,656.0818107444769Z" style="stroke: rgb(68, 68, 68); stroke-opacity: 1; fill: rgb(0, 0, 0); fill-opacity: 0.2; stroke-width: 0; opacity: 1;"/><path class="sankey-link" d="M530,443.010089991818C728,443.010089991818 728,106.51409871829837 926,106.51409871829837L926,157.52255249522773C728,157.52255249522773 728,494.0185437687474 530,494.0185437687474Z" style="stroke: rgb(68, 68, 68); stroke-opacity: 1; fill: rgb(0, 0, 0); fill-opacity: 0.2; stroke-width: 0; opacity: 1;"/><path class="sankey-link" d="M530,499.46604854104083C728,499.46604854104083 728,243.53171529860924 926,243.53171529860924L926,280.4261794382329C728,280.4261794382329 728,536.3605126806646 530,536.3605126806646Z" style="stroke: rgb(68, 68, 68); stroke-opacity: 1; fill: rgb(0, 0, 0); fill-opacity: 0.2; stroke-width: 0; opacity: 1;"/><path class="sankey-link" d="M530,673.5385874011445C728,673.5385874011445 728,1079.910226343059 926,1079.910226343059L926,1095.6337060267242C728,1095.6337060267242 728,689.2620670848096 530,689.2620670848096Z" style="stroke: rgb(68, 68, 68); stroke-opacity: 1; fill: rgb(0, 0, 0); fill-opacity: 0.2; stroke-width: 0; opacity: 1;"/><path class="sankey-link" d="M530,429.88655576765655C728,429.88655576765655 728,77.39056449413688 926,77.39056449413688L926,90.51409871829831C728,90.51409871829831 728,443.01008999181795 530,443.01008999181795Z" style="stroke: rgb(68, 68, 68); stroke-opacity: 1; fill: rgb(0, 0, 0); fill-opacity: 0.2; stroke-width: 0; opacity: 1;"/><path class="sankey-link" d="M530,663.1388055631297C728,663.1388055631297 728,1037.167930188164 926,1037.167930188164L926,1047.567712026179C728,1047.567712026179 728,673.5385874011444 530,673.5385874011444Z" style="stroke: rgb(68, 68, 68); stroke-opacity: 1; fill: rgb(0, 0, 0); fill-opacity: 0.2; stroke-width: 0; opacity: 1;"/><path class="sankey-link" d="M530,494.01854376874735C728,494.01854376874735 728,175.87488410144528 926,175.87488410144528L926,181.3223888737387C728,181.3223888737387 728,499.4660485410408 530,499.4660485410408Z" style="stroke: rgb(68, 68, 68); stroke-opacity: 1; fill: rgb(0, 0, 0); fill-opacity: 0.2; stroke-width: 0; opacity: 1;"/><path class="sankey-link" d="M530,656.0818107444768C728,656.0818107444768 728,806.3421870739022 926,806.3421870739022L926,809.3135533133351C728,809.3135533133351 728,659.0531769839097 530,659.0531769839097Z" style="stroke: rgb(68, 68, 68); stroke-opacity: 1; fill: rgb(0, 0, 0); fill-opacity: 0.2; stroke-width: 0; opacity: 1;"/><path class="sankey-link" d="M530,659.0531769839096C728,659.0531769839096 728,864.4365421325332 926,864.4365421325332L926,867.0364875920369C728,867.0364875920369 728,661.6531224434133 530,661.6531224434133Z" style="stroke: rgb(68, 68, 68); stroke-opacity: 1; fill: rgb(0, 0, 0); fill-opacity: 0.2; stroke-width: 0; opacity: 1;"/><path class="sankey-link" d="M530,536.3605126806644C728,536.3605126806644 728,357.0587946550314 926,357.0587946550314L926,358.9158985546769C728,358.9158985546769 728,538.2176165803098 530,538.2176165803098Z" style="stroke: rgb(68, 68, 68); stroke-opacity: 1; fill: rgb(0, 0, 0); fill-opacity: 0.2; stroke-width: 0; opacity: 1;"/><path class="sankey-link" d="M530,661.6531224434133C728,661.6531224434133 728,959.9784019634576 926,959.9784019634576L926,961.464085083174C728,961.464085083174 728,663.1388055631297 530,663.1388055631297Z" style="stroke: rgb(68, 68, 68); stroke-opacity: 1; fill: rgb(0, 0, 0); fill-opacity: 0.2; stroke-width: 0; opacity: 1;"/><path class="sankey-link" d="M530,917.352822470684C728,917.352822470684 728,1047.5677120261787 926,1047.5677120261787L926,1063.9102263430589C728,1063.9102263430589 728,933.6953367875642 530,933.6953367875642Z" style="stroke: rgb(68, 68, 68); stroke-opacity: 1; fill: rgb(0, 0, 0); fill-opacity: 0.2; stroke-width: 0; opacity: 1;"/><path class="sankey-link" d="M530,892.4676302154344C728,892.4676302154344 728,435.7961276247615 926,435.7961276247615L926,448.9196618489229C728,448.9196618489229 728,905.5911644395958 530,905.5911644395958Z" style="stroke: rgb(68, 68, 68); stroke-opacity: 1; fill: rgb(0, 0, 0); fill-opacity: 0.2; stroke-width: 0; opacity: 1;"/><path class="sankey-link" d="M530,881.8202345241336C728,881.8202345241336 728,301.749986364876 926,301.749986364876L926,312.39738205617675C728,312.39738205617675 728,892.4676302154344 530,892.4676302154344Z" style="stroke: rgb(68, 68, 68); stroke-opacity: 1; fill: rgb(0, 0, 0); fill-opacity: 0.2; stroke-width: 0; opacity: 1;"/><path class="sankey-link" d="M530,905.5911644395958C728,905.5911644395958 728,652.2685574038724 926,652.2685574038724L926,662.79214616853C728,662.79214616853 728,916.1147532042535 530,916.1147532042535Z" style="stroke: rgb(68, 68, 68); stroke-opacity: 1; fill: rgb(0, 0, 0); fill-opacity: 0.2; stroke-width: 0; opacity: 1;"/><path class="sankey-link" d="M530,871.4204526861189C728,871.4204526861189 728,211.6843196073085 926,211.6843196073085L926,222.08410144532326C728,222.08410144532326 728,881.8202345241335 530,881.8202345241335Z" style="stroke: rgb(68, 68, 68); stroke-opacity: 1; fill: rgb(0, 0, 0); fill-opacity: 0.2; stroke-width: 0; opacity: 1;"/><path class="sankey-link" d="M530,861.7635124079624C728,861.7635124079624 728,181.3223888737387 926,181.3223888737387L926,190.97932915189523C728,190.97932915189523 728,871.4204526861189 530,871.4204526861189Z" style="stroke: rgb(68, 68, 68); stroke-opacity: 1; fill: rgb(0, 0, 0); fill-opacity: 0.2; stroke-width: 0; opacity: 1;"/><path class="sankey-link" d="M530,859.4111808017448C728,859.4111808017448 728,157.52255249522773 926,157.52255249522773L926,159.87488410144533C728,159.87488410144533 728,861.7635124079624 530,861.7635124079624Z" style="stroke: rgb(68, 68, 68); stroke-opacity: 1; fill: rgb(0, 0, 0); fill-opacity: 0.2; stroke-width: 0; opacity: 1;"/><path class="sankey-link" d="M530,916.1147532042536C728,916.1147532042536 728,699.9631306244886 926,699.9631306244886L926,701.2011998909189C728,701.2011998909189 728,917.3528224706839 530,917.3528224706839Z" style="stroke: rgb(68, 68, 68); stroke-opacity: 1; fill: rgb(0, 0, 0); fill-opacity: 0.2; stroke-width: 0; opacity: 1;"/><path class="sankey-link" d="M530,933.6953367875642C728,933.6953367875642 728,1095.6337060267242 926,1095.6337060267242L926,1096.7479683665115C728,1096.7479683665115 728,934.8095991273515 530,934.8095991273515Z" style="stroke: rgb(68, 68, 68); stroke-opacity: 1; fill: rgb(0, 0, 0); fill-opacity: 0.2; stroke-width: 0; opacity: 1;"/></g><g class="sankey-node-set" style="cursor: move;"><g class="sankey-node" transform="translate(94.000,0.000)" style="opacity: 1;"><rect class="node-rect" width="20" height="261.2326152167991" style="stroke-width: 0.5; stroke: rgb(68, 68, 68); stroke-opacity: 1; fill: rgb(68, 148, 100); fill-opacity: 1;"/><text class="node-label" data-notex="1" x="0" y="0" text-anchor="start" transform="translate(23.25,135.51630760839956)" style="cursor: default; font-family: 'Open Sans', verdana, arial, sans-serif; font-size: 14px; fill: rgb(5, 28, 44); fill-opacity: 1; text-shadow: rgb(255, 255, 255) 1px 1px 1px, rgb(255, 255, 255) -1px -1px 1px, rgb(255, 255, 255) 1px -1px 1px, rgb(255, 255, 255) -1px 1px 1px; white-space: pre;">global</text></g><g class="sankey-node" transform="translate(94.000,277.233)" style="opacity: 1;"><rect class="node-rect" width="20" height="111.67384783201464" style="stroke-width: 0.5; stroke: rgb(68, 68, 68); stroke-opacity: 1; fill: rgb(128, 57, 30); fill-opacity: 1;"/><text class="node-label" data-notex="1" x="0" y="0" text-anchor="start" transform="translate(23.25,60.73692391600732)" style="cursor: default; font-family: 'Open Sans', verdana, arial, sans-serif; font-size: 14px; fill: rgb(5, 28, 44); fill-opacity: 1; text-shadow: rgb(255, 255, 255) 1px 1px 1px, rgb(255, 255, 255) -1px -1px 1px, rgb(255, 255, 255) 1px -1px 1px, rgb(255, 255, 255) -1px 1px 1px; white-space: pre;">earth</text></g><g class="sankey-node" transform="translate(94.000,404.906)" style="opacity: 1;"><rect class="node-rect" width="20" height="7.676029451868089" style="stroke-width: 0.5; stroke: rgb(68, 68, 68); stroke-opacity: 1; fill: rgb(128, 0, 128); fill-opacity: 1;"/><text class="node-label" data-notex="1" x="0" y="0" text-anchor="start" transform="translate(23.25,8.738014725934043)" style="cursor: default; font-family: 'Open Sans', verdana, arial, sans-serif; font-size: 14px; fill: rgb(5, 28, 44); fill-opacity: 1; text-shadow: rgb(255, 255, 255) 1px 1px 1px, rgb(255, 255, 255) -1px -1px 1px, rgb(255, 255, 255) 1px -1px 1px, rgb(255, 255, 255) -1px 1px 1px; white-space: pre;">ocean</text></g><g class="sankey-node" transform="translate(94.000,428.582)" style="opacity: 1;"><rect class="node-rect" width="20" height="68.83665121352601" style="stroke-width: 0.5; stroke: rgb(68, 68, 68); stroke-opacity: 1; fill: rgb(185, 116, 85); fill-opacity: 1;"/><text class="node-label" data-notex="1" x="0" y="0" text-anchor="start" transform="translate(23.25,39.318325606763004)" style="cursor: default; font-family: 'Open Sans', verdana, arial, sans-serif; font-size: 14px; fill: rgb(5, 28, 44); fill-opacity: 1; text-shadow: rgb(255, 255, 255) 1px 1px 1px, rgb(255, 255, 255) -1px -1px 1px, rgb(255, 255, 255) 1px -1px 1px, rgb(255, 255, 255) -1px 1px 1px; white-space: pre;">water</text></g><g class="sankey-node" transform="translate(94.000,555.229)" style="opacity: 1;"><rect class="node-rect" width="20" height="31.942187073902232" style="stroke-width: 0.5; stroke: rgb(68, 68, 68); stroke-opacity: 1; fill: rgb(224, 123, 57); fill-opacity: 1;"/><text class="node-label" data-notex="1" x="0" y="0" text-anchor="start" transform="translate(23.25,20.871093536951115)" style="cursor: default; font-family: 'Open Sans', verdana, arial, sans-serif; font-size: 14px; fill: rgb(5, 28, 44); fill-opacity: 1; text-shadow: rgb(255, 255, 255) 1px 1px 1px, rgb(255, 255, 255) -1px -1px 1px, rgb(255, 255, 255) 1px -1px 1px, rgb(255, 255, 255) -1px 1px 1px; white-space: pre;">biodiversity</text></g><g class="sankey-node" transform="translate(94.000,632.254)" style="opacity: 1;"><rect class="node-rect" width="20" height="122.69266430324456" style="stroke-width: 0.5; stroke: rgb(68, 68, 68); stroke-opacity: 1; fill: rgb(75, 102, 161); fill-opacity: 1;"/><text class="node-label" data-notex="1" x="0" y="0" text-anchor="start" transform="translate(23.25,66.24633215162228)" style="cursor: default; font-family: 'Open Sans', verdana, arial, sans-serif; font-size: 14px; fill: rgb(5, 28, 44); fill-opacity: 1; text-shadow: rgb(255, 255, 255) 1px 1px 1px, rgb(255, 255, 255) -1px -1px 1px, rgb(255, 255, 255) 1px -1px 1px, rgb(255, 255, 255) -1px 1px 1px; white-space: pre;">urban</text></g><g class="sankey-node" transform="translate(94.000,1104.825)" style="opacity: 1;"><rect class="node-rect" width="20" height="3.0951731660757105" style="stroke-width: 0.5; stroke: rgb(68, 68, 68); stroke-opacity: 1; fill: rgb(224, 123, 57); fill-opacity: 1;"/><text class="node-label" data-notex="1" x="0" y="0" text-anchor="start" transform="translate(23.25,6.447586583037855)" style="cursor: default; font-family: 'Open Sans', verdana, arial, sans-serif; font-size: 14px; fill: rgb(5, 28, 44); fill-opacity: 1; text-shadow: rgb(255, 255, 255) 1px 1px 1px, rgb(255, 255, 255) -1px -1px 1px, rgb(255, 255, 255) 1px -1px 1px, rgb(255, 255, 255) -1px 1px 1px; white-space: pre;">comms</text></g><g class="sankey-node" transform="translate(94.000,787.975)" style="opacity: 1;"><rect class="node-rect" width="20" height="300.8508317425685" style="stroke-width: 0.5; stroke: rgb(68, 68, 68); stroke-opacity: 1; fill: rgb(224, 123, 57); fill-opacity: 1;"/><text class="node-label" data-notex="1" x="0" y="0" text-anchor="start" transform="translate(23.25,155.32541587128426)" style="cursor: default; font-family: 'Open Sans', verdana, arial, sans-serif; font-size: 14px; fill: rgb(5, 28, 44); fill-opacity: 1; text-shadow: rgb(255, 255, 255) 1px 1px 1px, rgb(255, 255, 255) -1px -1px 1px, rgb(255, 255, 255) 1px -1px 1px, rgb(255, 255, 255) -1px 1px 1px; white-space: pre;">policy</text></g><g class="sankey-node" transform="translate(510.000,0.000)" style="opacity: 1;"><rect class="node-rect" width="20" height="413.88655576765655" style="stroke-width: 0.5; stroke: rgb(68, 68, 68); stroke-opacity: 1; fill: rgb(26, 140, 255); fill-opacity: 1;"/><text class="node-label" data-notex="1" x="0" y="0" text-anchor="start" transform="translate(23.25,211.84327788382828)" style="cursor: default; font-family: 'Open Sans', verdana, arial, sans-serif; font-size: 14px; fill: rgb(5, 28, 44); fill-opacity: 1; text-shadow: rgb(255, 255, 255) 1px 1px 1px, rgb(255, 255, 255) -1px -1px 1px, rgb(255, 255, 255) 1px -1px 1px, rgb(255, 255, 255) -1px 1px 1px; white-space: pre;">Classic ML</text></g><g class="sankey-node" transform="translate(510.000,429.887)" style="opacity: 1;"><rect class="node-rect" width="20" height="336.13580583583393" style="stroke-width: 0.5; stroke: rgb(68, 68, 68); stroke-opacity: 1; fill: rgb(51, 204, 204); fill-opacity: 1;"/><text class="node-label" data-notex="1" x="0" y="0" text-anchor="start" transform="translate(23.25,172.96790291791697)" style="cursor: default; font-family: 'Open Sans', verdana, arial, sans-serif; font-size: 14px; fill: rgb(5, 28, 44); fill-opacity: 1; text-shadow: rgb(255, 255, 255) 1px 1px 1px, rgb(255, 255, 255) -1px -1px 1px, rgb(255, 255, 255) 1px -1px 1px, rgb(255, 255, 255) -1px 1px 1px; white-space: pre;">Classic DL</text></g><g class="sankey-node" transform="translate(510.000,859.411)" style="opacity: 1;"><rect class="node-rect" width="20" height="157.97763839651066" style="stroke-width: 0.5; stroke: rgb(68, 68, 68); stroke-opacity: 1; fill: rgb(153, 102, 255); fill-opacity: 1;"/><text class="node-label" data-notex="1" x="0" y="0" text-anchor="start" transform="translate(23.25,83.88881919825533)" style="cursor: default; font-family: 'Open Sans', verdana, arial, sans-serif; font-size: 14px; fill: rgb(5, 28, 44); fill-opacity: 1; text-shadow: rgb(255, 255, 255) 1px 1px 1px, rgb(255, 255, 255) -1px -1px 1px, rgb(255, 255, 255) 1px -1px 1px, rgb(255, 255, 255) -1px 1px 1px; white-space: pre;">New AI</text></g><g class="sankey-node" transform="translate(926.000,72.686)" style="opacity: 1;"><rect class="node-rect" width="20" height="17.828197436596724" style="stroke-width: 0.5; stroke: rgb(68, 68, 68); stroke-opacity: 1; fill: rgb(255, 153, 102); fill-opacity: 1;"/><text class="node-label" data-notex="1" x="0" y="0" text-anchor="end" transform="translate(-3.25,13.81409871829836)" style="cursor: default; font-family: 'Open Sans', verdana, arial, sans-serif; font-size: 14px; fill: rgb(5, 28, 44); fill-opacity: 1; text-shadow: rgb(255, 255, 255) 1px 1px 1px, rgb(255, 255, 255) -1px -1px 1px, rgb(255, 255, 255) 1px -1px 1px, rgb(255, 255, 255) -1px 1px 1px; white-space: pre;">ANN</text></g><g class="sankey-node" transform="translate(926.000,106.514)" style="opacity: 1;"><rect class="node-rect" width="20" height="53.360785383146904" style="stroke-width: 0.5; stroke: rgb(68, 68, 68); stroke-opacity: 1; fill: rgb(102, 178, 102); fill-opacity: 1;"/><text class="node-label" data-notex="1" x="0" y="0" text-anchor="end" transform="translate(-3.25,31.58039269157345)" style="cursor: default; font-family: 'Open Sans', verdana, arial, sans-serif; font-size: 14px; fill: rgb(5, 28, 44); fill-opacity: 1; text-shadow: rgb(255, 255, 255) 1px 1px 1px, rgb(255, 255, 255) -1px -1px 1px, rgb(255, 255, 255) 1px -1px 1px, rgb(255, 255, 255) -1px 1px 1px; white-space: pre;">CNN</text></g><g class="sankey-node" transform="translate(926.000,175.875)" style="opacity: 1;"><rect class="node-rect" width="20" height="15.104445050449954" style="stroke-width: 0.5; stroke: rgb(68, 68, 68); stroke-opacity: 1; fill: rgb(68, 148, 100); fill-opacity: 1;"/><text class="node-label" data-notex="1" x="0" y="0" text-anchor="end" transform="translate(-3.25,12.452222525224975)" style="cursor: default; font-family: 'Open Sans', verdana, arial, sans-serif; font-size: 14px; fill: rgb(5, 28, 44); fill-opacity: 1; text-shadow: rgb(255, 255, 255) 1px 1px 1px, rgb(255, 255, 255) -1px -1px 1px, rgb(255, 255, 255) 1px -1px 1px, rgb(255, 255, 255) -1px 1px 1px; white-space: pre;">GAN</text></g><g class="sankey-node" transform="translate(926.000,211.684)" style="opacity: 1;"><rect class="node-rect" width="20" height="10.399781838014633" style="stroke-width: 0.5; stroke: rgb(68, 68, 68); stroke-opacity: 1; fill: rgb(128, 57, 30); fill-opacity: 1;"/><text class="node-label" data-notex="1" x="0" y="0" text-anchor="end" transform="translate(-3.25,10.099890919007315)" style="cursor: default; font-family: 'Open Sans', verdana, arial, sans-serif; font-size: 14px; fill: rgb(5, 28, 44); fill-opacity: 1; text-shadow: rgb(255, 255, 255) 1px 1px 1px, rgb(255, 255, 255) -1px -1px 1px, rgb(255, 255, 255) 1px -1px 1px, rgb(255, 255, 255) -1px 1px 1px; white-space: pre;">LLM</text></g><g class="sankey-node" transform="translate(926.000,243.532)" style="opacity: 1;"><rect class="node-rect" width="20" height="36.894464139623665" style="stroke-width: 0.5; stroke: rgb(68, 68, 68); stroke-opacity: 1; fill: rgb(128, 0, 128); fill-opacity: 1;"/><text class="node-label" data-notex="1" x="0" y="0" text-anchor="end" transform="translate(-3.25,23.34723206981183)" style="cursor: default; font-family: 'Open Sans', verdana, arial, sans-serif; font-size: 14px; fill: rgb(5, 28, 44); fill-opacity: 1; text-shadow: rgb(255, 255, 255) 1px 1px 1px, rgb(255, 255, 255) -1px -1px 1px, rgb(255, 255, 255) 1px -1px 1px, rgb(255, 255, 255) -1px 1px 1px; white-space: pre;">LSTM</text></g><g class="sankey-node" transform="translate(926.000,301.750)" style="opacity: 1;"><rect class="node-rect" width="20" height="10.647395691300744" style="stroke-width: 0.5; stroke: rgb(68, 68, 68); stroke-opacity: 1; fill: rgb(185, 116, 85); fill-opacity: 1;"/><text class="node-label" data-notex="1" x="0" y="0" text-anchor="end" transform="translate(-3.25,10.22369784565037)" style="cursor: default; font-family: 'Open Sans', verdana, arial, sans-serif; font-size: 14px; fill: rgb(5, 28, 44); fill-opacity: 1; text-shadow: rgb(255, 255, 255) 1px 1px 1px, rgb(255, 255, 255) -1px -1px 1px, rgb(255, 255, 255) 1px -1px 1px, rgb(255, 255, 255) -1px 1px 1px; white-space: pre;">chatgpt</text></g><g class="sankey-node" transform="translate(926.000,345.421)" style="opacity: 1;"><rect class="node-rect" width="20" height="13.49495500409057" style="stroke-width: 0.5; stroke: rgb(68, 68, 68); stroke-opacity: 1; fill: rgb(224, 123, 57); fill-opacity: 1;"/><text class="node-label" data-notex="1" x="0" y="0" text-anchor="end" transform="translate(-3.25,11.647477502045284)" style="cursor: default; font-family: 'Open Sans', verdana, arial, sans-serif; font-size: 14px; fill: rgb(5, 28, 44); fill-opacity: 1; text-shadow: rgb(255, 255, 255) 1px 1px 1px, rgb(255, 255, 255) -1px -1px 1px, rgb(255, 255, 255) 1px -1px 1px, rgb(255, 255, 255) -1px 1px 1px; white-space: pre;">classification</text></g><g class="sankey-node" transform="translate(926.000,387.854)" style="opacity: 1;"><rect class="node-rect" width="20" height="18.81865284974083" style="stroke-width: 0.5; stroke: rgb(68, 68, 68); stroke-opacity: 1; fill: rgb(75, 102, 161); fill-opacity: 1;"/><text class="node-label" data-notex="1" x="0" y="0" text-anchor="end" transform="translate(-3.25,14.309326424870413)" style="cursor: default; font-family: 'Open Sans', verdana, arial, sans-serif; font-size: 14px; fill: rgb(5, 28, 44); fill-opacity: 1; text-shadow: rgb(255, 255, 255) 1px 1px 1px, rgb(255, 255, 255) -1px -1px 1px, rgb(255, 255, 255) 1px -1px 1px, rgb(255, 255, 255) -1px 1px 1px; white-space: pre;">decision tree</text></g><g class="sankey-node" transform="translate(926.000,435.796)" style="opacity: 1;"><rect class="node-rect" width="20" height="13.123534224161403" style="stroke-width: 0.5; stroke: rgb(68, 68, 68); stroke-opacity: 1; fill: rgb(224, 123, 57); fill-opacity: 1;"/><text class="node-label" data-notex="1" x="0" y="0" text-anchor="end" transform="translate(-3.25,11.4617671120807)" style="cursor: default; font-family: 'Open Sans', verdana, arial, sans-serif; font-size: 14px; fill: rgb(5, 28, 44); fill-opacity: 1; text-shadow: rgb(255, 255, 255) 1px 1px 1px, rgb(255, 255, 255) -1px -1px 1px, rgb(255, 255, 255) 1px -1px 1px, rgb(255, 255, 255) -1px 1px 1px; white-space: pre;">foundation model</text></g><g class="sankey-node" transform="translate(926.000,482.624)" style="opacity: 1;"><rect class="node-rect" width="20" height="9.656940278156526" style="stroke-width: 0.5; stroke: rgb(68, 68, 68); stroke-opacity: 1; fill: rgb(224, 123, 57); fill-opacity: 1;"/><text class="node-label" data-notex="1" x="0" y="0" text-anchor="end" transform="translate(-3.25,9.728470139078262)" style="cursor: default; font-family: 'Open Sans', verdana, arial, sans-serif; font-size: 14px; fill: rgb(5, 28, 44); fill-opacity: 1; text-shadow: rgb(255, 255, 255) 1px 1px 1px, rgb(255, 255, 255) -1px -1px 1px, rgb(255, 255, 255) 1px -1px 1px, rgb(255, 255, 255) -1px 1px 1px; white-space: pre;">linear regression</text></g><g class="sankey-node" transform="translate(926.000,678.792)" style="opacity: 1;"><rect class="node-rect" width="20" height="22.409053722388762" style="stroke-width: 0.5; stroke: rgb(68, 68, 68); stroke-opacity: 1; fill: rgb(26, 140, 255); fill-opacity: 1;"/><text class="node-label" data-notex="1" x="0" y="0" text-anchor="end" transform="translate(-3.25,16.10452686119438)" style="cursor: default; font-family: 'Open Sans', verdana, arial, sans-serif; font-size: 14px; fill: rgb(5, 28, 44); fill-opacity: 1; text-shadow: rgb(255, 255, 255) 1px 1px 1px, rgb(255, 255, 255) -1px -1px 1px, rgb(255, 255, 255) 1px -1px 1px, rgb(255, 255, 255) -1px 1px 1px; white-space: pre;">machine learning</text></g><g class="sankey-node" transform="translate(926.000,508.281)" style="opacity: 1;"><rect class="node-rect" width="20" height="154.51104445050436" style="stroke-width: 0.5; stroke: rgb(68, 68, 68); stroke-opacity: 1; fill: rgb(51, 204, 204); fill-opacity: 1;"/><text class="node-label" data-notex="1" x="0" y="0" text-anchor="end" transform="translate(-3.25,82.15552222525218)" style="cursor: default; font-family: 'Open Sans', verdana, arial, sans-serif; font-size: 14px; fill: rgb(5, 28, 44); fill-opacity: 1; text-shadow: rgb(255, 255, 255) 1px 1px 1px, rgb(255, 255, 255) -1px -1px 1px, rgb(255, 255, 255) 1px -1px 1px, rgb(255, 255, 255) -1px 1px 1px; white-space: pre;">neural network</text></g><g class="sankey-node" transform="translate(926.000,717.201)" style="opacity: 1;"><rect class="node-rect" width="20" height="92.11235342241616" style="stroke-width: 0.5; stroke: rgb(68, 68, 68); stroke-opacity: 1; fill: rgb(153, 102, 255); fill-opacity: 1;"/><text class="node-label" data-notex="1" x="0" y="0" text-anchor="end" transform="translate(-3.25,50.95617671120808)" style="cursor: default; font-family: 'Open Sans', verdana, arial, sans-serif; font-size: 14px; fill: rgb(5, 28, 44); fill-opacity: 1; text-shadow: rgb(255, 255, 255) 1px 1px 1px, rgb(255, 255, 255) -1px -1px 1px, rgb(255, 255, 255) 1px -1px 1px, rgb(255, 255, 255) -1px 1px 1px; white-space: pre;">random forest</text></g><g class="sankey-node" transform="translate(926.000,825.314)" style="opacity: 1;"><rect class="node-rect" width="20" height="41.722934278701814" style="stroke-width: 0.5; stroke: rgb(68, 68, 68); stroke-opacity: 1; fill: rgb(255, 153, 102); fill-opacity: 1;"/><text class="node-label" data-notex="1" x="0" y="0" text-anchor="end" transform="translate(-3.25,25.761467139350906)" style="cursor: default; font-family: 'Open Sans', verdana, arial, sans-serif; font-size: 14px; fill: rgb(5, 28, 44); fill-opacity: 1; text-shadow: rgb(255, 255, 255) 1px 1px 1px, rgb(255, 255, 255) -1px -1px 1px, rgb(255, 255, 255) 1px -1px 1px, rgb(255, 255, 255) -1px 1px 1px; white-space: pre;">regression</text></g><g class="sankey-node" transform="translate(926.000,883.036)" style="opacity: 1;"><rect class="node-rect" width="20" height="12.504499590946125" style="stroke-width: 0.5; stroke: rgb(68, 68, 68); stroke-opacity: 1; fill: rgb(102, 178, 102); fill-opacity: 1;"/><text class="node-label" data-notex="1" x="0" y="0" text-anchor="end" transform="translate(-3.25,11.152249795473061)" style="cursor: default; font-family: 'Open Sans', verdana, arial, sans-serif; font-size: 14px; fill: rgb(5, 28, 44); fill-opacity: 1; text-shadow: rgb(255, 255, 255) 1px 1px 1px, rgb(255, 255, 255) -1px -1px 1px, rgb(255, 255, 255) 1px -1px 1px, rgb(255, 255, 255) -1px 1px 1px; white-space: pre;">reinforcement learning</text></g><g class="sankey-node" transform="translate(926.000,911.541)" style="opacity: 1;"><rect class="node-rect" width="20" height="12.87592037087552" style="stroke-width: 0.5; stroke: rgb(68, 68, 68); stroke-opacity: 1; fill: rgb(68, 148, 100); fill-opacity: 1;"/><text class="node-label" data-notex="1" x="0" y="0" text-anchor="end" transform="translate(-3.25,11.337960185437758)" style="cursor: default; font-family: 'Open Sans', verdana, arial, sans-serif; font-size: 14px; fill: rgb(5, 28, 44); fill-opacity: 1; text-shadow: rgb(255, 255, 255) 1px 1px 1px, rgb(255, 255, 255) -1px -1px 1px, rgb(255, 255, 255) 1px -1px 1px, rgb(255, 255, 255) -1px 1px 1px; white-space: pre;">statistical method</text></g><g class="sankey-node" transform="translate(926.000,940.417)" style="opacity: 1;"><rect class="node-rect" width="20" height="21.047177529315377" style="stroke-width: 0.5; stroke: rgb(68, 68, 68); stroke-opacity: 1; fill: rgb(128, 57, 30); fill-opacity: 1;"/><text class="node-label" data-notex="1" x="0" y="0" text-anchor="end" transform="translate(-3.25,15.423588764657687)" style="cursor: default; font-family: 'Open Sans', verdana, arial, sans-serif; font-size: 14px; fill: rgb(5, 28, 44); fill-opacity: 1; text-shadow: rgb(255, 255, 255) 1px 1px 1px, rgb(255, 255, 255) -1px -1px 1px, rgb(255, 255, 255) 1px -1px 1px, rgb(255, 255, 255) -1px 1px 1px; white-space: pre;">supervised learning</text></g><g class="sankey-node" transform="translate(926.000,977.464)" style="opacity: 1;"><rect class="node-rect" width="20" height="43.70384510499025" style="stroke-width: 0.5; stroke: rgb(68, 68, 68); stroke-opacity: 1; fill: rgb(128, 0, 128); fill-opacity: 1;"/><text class="node-label" data-notex="1" x="0" y="0" text-anchor="end" transform="translate(-3.25,26.751922552495124)" style="cursor: default; font-family: 'Open Sans', verdana, arial, sans-serif; font-size: 14px; fill: rgb(5, 28, 44); fill-opacity: 1; text-shadow: rgb(255, 255, 255) 1px 1px 1px, rgb(255, 255, 255) -1px -1px 1px, rgb(255, 255, 255) 1px -1px 1px, rgb(255, 255, 255) -1px 1px 1px; white-space: pre;">support vector machine</text></g><g class="sankey-node" transform="translate(926.000,1037.168)" style="opacity: 1;"><rect class="node-rect" width="20" height="26.74229615489503" style="stroke-width: 0.5; stroke: rgb(68, 68, 68); stroke-opacity: 1; fill: rgb(185, 116, 85); fill-opacity: 1;"/><text class="node-label" data-notex="1" x="0" y="0" text-anchor="end" transform="translate(-3.25,18.271148077447513)" style="cursor: default; font-family: 'Open Sans', verdana, arial, sans-serif; font-size: 14px; fill: rgb(5, 28, 44); fill-opacity: 1; text-shadow: rgb(255, 255, 255) 1px 1px 1px, rgb(255, 255, 255) -1px -1px 1px, rgb(255, 255, 255) 1px -1px 1px, rgb(255, 255, 255) -1px 1px 1px; white-space: pre;">transformer</text></g><g class="sankey-node" transform="translate(926.000,1079.910)" style="opacity: 1;"><rect class="node-rect" width="20" height="16.837742023452165" style="stroke-width: 0.5; stroke: rgb(68, 68, 68); stroke-opacity: 1; fill: rgb(224, 123, 57); fill-opacity: 1;"/><text class="node-label" data-notex="1" x="0" y="0" text-anchor="end" transform="translate(-3.25,13.318871011726081)" style="cursor: default; font-family: 'Open Sans', verdana, arial, sans-serif; font-size: 14px; fill: rgb(5, 28, 44); fill-opacity: 1; text-shadow: rgb(255, 255, 255) 1px 1px 1px, rgb(255, 255, 255) -1px -1px 1px, rgb(255, 255, 255) 1px -1px 1px, rgb(255, 255, 255) -1px 1px 1px; white-space: pre;">unet</text></g></g></g><defs id="topdefs-32d6bb"><g class="clips"/></defs><g class="layer-above"><g class="imagelayer"/><g class="shapelayer"/></g><g class="infolayer"><g class="g-gtitle"><text class="gtitle" x="60" y="50" text-anchor="start" dy="0em" style="opacity: 1; font-family: 'Open Sans', verdana, arial, sans-serif; font-size: 20px; fill: rgb(5, 28, 44); fill-opacity: 1; white-space: pre;">Sankey: Issue Area → AI_gen → Method (fixed order, custom x/y)</text></g><g class="first-render"/></g></svg>