<?xml version="1.0" encoding="UTF-8" standalone="no"?>
<svg
   xmlns:dc="http://purl.org/dc/elements/1.1/"
   xmlns:cc="http://creativecommons.org/ns#"
   xmlns:rdf="http://www.w3.org/1999/02/22-rdf-syntax-ns#"
   xmlns:svg="http://www.w3.org/2000/svg"
   xmlns="http://www.w3.org/2000/svg"
   xmlns:xlink="http://www.w3.org/1999/xlink"
   xmlns:sodipodi="http://sodipodi.sourceforge.net/DTD/sodipodi-0.dtd"
   xmlns:inkscape="http://www.inkscape.org/namespaces/inkscape"
   width="864pt"
   height="864pt"
   viewBox="0 0 864 864"
   version="1.1"
   id="svg690"
   sodipodi:docname="sustainability_science_communication_clockwork.svg"
   inkscape:export-filename="/home/erikz/SRC/AI/Deep_mind_roundtable/Lit search/lit_review_deepmind/plots/final_new/sustainability_science_communication_clockwork.png"
   inkscape:export-xdpi="95.699997"
   inkscape:export-ydpi="95.699997"
   inkscape:version="0.92.5 (2060ec1f9f, 2020-04-08)">
  <sodipodi:namedview
     pagecolor="#ffffff"
     bordercolor="#666666"
     borderopacity="1"
     objecttolerance="10"
     gridtolerance="10"
     guidetolerance="10"
     inkscape:pageopacity="0"
     inkscape:pageshadow="2"
     inkscape:window-width="778"
     inkscape:window-height="480"
     id="namedview692"
     showgrid="false"
     inkscape:zoom="0.20486111"
     inkscape:cx="576"
     inkscape:cy="576"
     inkscape:window-x="72"
     inkscape:window-y="27"
     inkscape:window-maximized="0"
     inkscape:current-layer="svg690" />
  <metadata
     id="metadata2">
    <rdf:RDF>
      <cc:Work>
        <dc:type
           rdf:resource="http://purl.org/dc/dcmitype/StillImage" />
        <dc:date>2025-05-01T14:39:50.834771</dc:date>
        <dc:format>image/svg+xml</dc:format>
        <dc:creator>
          <cc:Agent>
            <dc:title>Matplotlib v3.7.5, https://matplotlib.org/</dc:title>
          </cc:Agent>
        </dc:creator>
      </cc:Work>
    </rdf:RDF>
  </metadata>
  <defs
     id="defs6">
    <style
       type="text/css"
       id="style4">*{stroke-linejoin: round; stroke-linecap: butt}</style>
  </defs>
  <g
     id="figure_1">
    <g
       id="patch_1">
      <path
         d="M 0 864  L 864 864  L 864 0  L 0 0  L 0 864  z "
         style="fill: none"
         id="path8" />
    </g>
    <g
       id="axes_1">
      <g
         id="PathCollection_1">
        <path
           d="M 427.625224 215.608284  C 437.248694 215.608284 446.479308 211.784838 453.28413 204.980017  C 460.088951 198.175195 463.912397 188.944581 463.912397 179.32111  C 463.912397 169.69764 460.088951 160.467026 453.28413 153.662204  C 446.479308 146.857383 437.248694 143.033937 427.625224 143.033937  C 418.001753 143.033937 408.771139 146.857383 401.966317 153.662204  C 395.161496 160.467026 391.33805 169.69764 391.33805 179.32111  C 391.33805 188.944581 395.161496 198.175195 401.966317 204.980017  C 408.771139 211.784838 418.001753 215.608284 427.625224 215.608284  z "
           clip-path="url(#p9a30744305)"
           style="fill: #4682b4; fill-opacity: 0.85; stroke: #ffffff; stroke-opacity: 0.85; stroke-width: 1.5"
           id="path11" />
        <path
           d="M 564.964668 252.408277  C 574.588139 252.408277 583.818753 248.584831 590.623575 241.78001  C 597.428396 234.975188 601.251842 225.744575 601.251842 216.121104  C 601.251842 206.497633 597.428396 197.267019 590.623575 190.462197  C 583.818753 183.657376 574.588139 179.83393 564.964668 179.83393  C 555.341198 179.83393 546.110584 183.657376 539.305762 190.462197  C 532.500941 197.267019 528.677495 206.497633 528.677495 216.121104  C 528.677495 225.744575 532.500941 234.975188 539.305762 241.78001  C 546.110584 248.584831 555.341198 252.408277 564.964668 252.408277  z "
           clip-path="url(#p9a30744305)"
           style="fill: #4682b4; fill-opacity: 0.85; stroke: #ffffff; stroke-opacity: 0.85; stroke-width: 1.5"
           id="path13" />
        <path
           d="M 665.50412 352.947728  C 675.127591 352.947728 684.358205 349.124283 691.163026 342.319461  C 697.967848 335.51464 701.791293 326.284026 701.791293 316.660555  C 701.791293 307.037084 697.967848 297.80647 691.163026 291.001649  C 684.358205 284.196827 675.127591 280.373382 665.50412 280.373382  C 655.880649 280.373382 646.650035 284.196827 639.845214 291.001649  C 633.040392 297.80647 629.216947 307.037084 629.216947 316.660555  C 629.216947 326.284026 633.040392 335.51464 639.845214 342.319461  C 646.650035 349.124283 655.880649 352.947728 665.50412 352.947728  z "
           clip-path="url(#p9a30744305)"
           style="fill: #4682b4; fill-opacity: 0.85; stroke: #ffffff; stroke-opacity: 0.85; stroke-width: 1.5"
           id="path15" />
        <path
           d="M 702.304113 490.287173  C 711.927584 490.287173 721.158198 486.463728 727.96302 479.658906  C 734.767841 472.854085 738.591286 463.623471 738.591286 454  C 738.591286 444.376529 734.767841 435.145915 727.96302 428.341094  C 721.158198 421.536272 711.927584 417.712827 702.304113 417.712827  C 692.680642 417.712827 683.450028 421.536272 676.645207 428.341094  C 669.840385 435.145915 666.01694 444.376529 666.01694 454  C 666.01694 463.623471 669.840385 472.854085 676.645207 479.658906  C 683.450028 486.463728 692.680642 490.287173 702.304113 490.287173  z "
           clip-path="url(#p9a30744305)"
           style="fill: #4682b4; fill-opacity: 0.85; stroke: #ffffff; stroke-opacity: 0.85; stroke-width: 1.5"
           id="path17" />
        <path
           d="M 665.50412 610.704357  C 670.639755 610.704357 675.565738 608.663948 679.197181 605.032505  C 682.828623 601.401063 684.869032 596.47508 684.869032 591.339445  C 684.869032 586.20381 682.828623 581.277826 679.197181 577.646384  C 675.565738 574.014942 670.639755 571.974533 665.50412 571.974533  C 660.368485 571.974533 655.442501 574.014942 651.811059 577.646384  C 648.179617 581.277826 646.139208 586.20381 646.139208 591.339445  C 646.139208 596.47508 648.179617 601.401063 651.811059 605.032505  C 655.442501 608.663948 660.368485 610.704357 665.50412 610.704357  z "
           clip-path="url(#p9a30744305)"
           style="fill: #4682b4; fill-opacity: 0.85; stroke: #ffffff; stroke-opacity: 0.85; stroke-width: 1.5"
           id="path19" />
        <path
           d="M 564.964668 711.243808  C 570.100303 711.243808 575.026287 709.203399 578.657729 705.571957  C 582.289171 701.940515 584.32958 697.014531 584.32958 691.878896  C 584.32958 686.743262 582.289171 681.817278 578.657729 678.185836  C 575.026287 674.554394 570.100303 672.513984 564.964668 672.513984  C 559.829034 672.513984 554.90305 674.554394 551.271608 678.185836  C 547.640166 681.817278 545.599756 686.743262 545.599756 691.878896  C 545.599756 697.014531 547.640166 701.940515 551.271608 705.571957  C 554.90305 709.203399 559.829034 711.243808 564.964668 711.243808  z "
           clip-path="url(#p9a30744305)"
           style="fill: #4682b4; fill-opacity: 0.85; stroke: #ffffff; stroke-opacity: 0.85; stroke-width: 1.5"
           id="path21" />
        <path
           d="M 427.625224 748.043802  C 432.760858 748.043802 437.686842 746.003392 441.318284 742.37195  C 444.949726 738.740508 446.990136 733.814524 446.990136 728.67889  C 446.990136 723.543255 444.949726 718.617271 441.318284 714.985829  C 437.686842 711.354387 432.760858 709.313978 427.625224 709.313978  C 422.489589 709.313978 417.563605 711.354387 413.932163 714.985829  C 410.300721 718.617271 408.260312 723.543255 408.260312 728.67889  C 408.260312 733.814524 410.300721 738.740508 413.932163 742.37195  C 417.563605 746.003392 422.489589 748.043802 427.625224 748.043802  z "
           clip-path="url(#p9a30744305)"
           style="fill: #4682b4; fill-opacity: 0.85; stroke: #ffffff; stroke-opacity: 0.85; stroke-width: 1.5"
           id="path23" />
        <path
           d="M 290.285779 711.243808  C 295.421413 711.243808 300.347397 709.203399 303.978839 705.571957  C 307.610282 701.940515 309.650691 697.014531 309.650691 691.878896  C 309.650691 686.743262 307.610282 681.817278 303.978839 678.185836  C 300.347397 674.554394 295.421413 672.513984 290.285779 672.513984  C 285.150144 672.513984 280.22416 674.554394 276.592718 678.185836  C 272.961276 681.817278 270.920867 686.743262 270.920867 691.878896  C 270.920867 697.014531 272.961276 701.940515 276.592718 705.571957  C 280.22416 709.203399 285.150144 711.243808 290.285779 711.243808  z "
           clip-path="url(#p9a30744305)"
           style="fill: #4682b4; fill-opacity: 0.85; stroke: #ffffff; stroke-opacity: 0.85; stroke-width: 1.5"
           id="path25" />
        <path
           d="M 189.746327 610.704357  C 194.881962 610.704357 199.807946 608.663948 203.439388 605.032505  C 207.07083 601.401063 209.111239 596.47508 209.111239 591.339445  C 209.111239 586.20381 207.07083 581.277826 203.439388 577.646384  C 199.807946 574.014942 194.881962 571.974533 189.746327 571.974533  C 184.610693 571.974533 179.684709 574.014942 176.053267 577.646384  C 172.421825 581.277826 170.381415 586.20381 170.381415 591.339445  C 170.381415 596.47508 172.421825 601.401063 176.053267 605.032505  C 179.684709 608.663948 184.610693 610.704357 189.746327 610.704357  z "
           clip-path="url(#p9a30744305)"
           style="fill: #4682b4; fill-opacity: 0.85; stroke: #ffffff; stroke-opacity: 0.85; stroke-width: 1.5"
           id="path27" />
        <path
           d="M 152.946334 473.364912  C 158.081969 473.364912 163.007952 471.324503 166.639395 467.693061  C 170.270837 464.061618 172.311246 459.135635 172.311246 454  C 172.311246 448.864365 170.270837 443.938382 166.639395 440.306939  C 163.007952 436.675497 158.081969 434.635088 152.946334 434.635088  C 147.810699 434.635088 142.884715 436.675497 139.253273 440.306939  C 135.621831 443.938382 133.581422 448.864365 133.581422 454  C 133.581422 459.135635 135.621831 464.061618 139.253273 467.693061  C 142.884715 471.324503 147.810699 473.364912 152.946334 473.364912  z "
           clip-path="url(#p9a30744305)"
           style="fill: #4682b4; fill-opacity: 0.85; stroke: #ffffff; stroke-opacity: 0.85; stroke-width: 1.5"
           id="path29" />
        <path
           d="M 189.746327 336.025467  C 194.881962 336.025467 199.807946 333.985058 203.439388 330.353616  C 207.07083 326.722174 209.111239 321.79619 209.111239 316.660555  C 209.111239 311.52492 207.07083 306.598937 203.439388 302.967495  C 199.807946 299.336052 194.881962 297.295643 189.746327 297.295643  C 184.610693 297.295643 179.684709 299.336052 176.053267 302.967495  C 172.421825 306.598937 170.381415 311.52492 170.381415 316.660555  C 170.381415 321.79619 172.421825 326.722174 176.053267 330.353616  C 179.684709 333.985058 184.610693 336.025467 189.746327 336.025467  z "
           clip-path="url(#p9a30744305)"
           style="fill: #4682b4; fill-opacity: 0.85; stroke: #ffffff; stroke-opacity: 0.85; stroke-width: 1.5"
           id="path31" />
        <path
           d="M 290.285779 235.486016  C 295.421413 235.486016 300.347397 233.445606 303.978839 229.814164  C 307.610282 226.182722 309.650691 221.256738 309.650691 216.121104  C 309.650691 210.985469 307.610282 206.059485 303.978839 202.428043  C 300.347397 198.796601 295.421413 196.756192 290.285779 196.756192  C 285.150144 196.756192 280.22416 198.796601 276.592718 202.428043  C 272.961276 206.059485 270.920867 210.985469 270.920867 216.121104  C 270.920867 221.256738 272.961276 226.182722 276.592718 229.814164  C 280.22416 233.445606 285.150144 235.486016 290.285779 235.486016  z "
           clip-path="url(#p9a30744305)"
           style="fill: #4682b4; fill-opacity: 0.85; stroke: #ffffff; stroke-opacity: 0.85; stroke-width: 1.5"
           id="path33" />
      </g>
      <g
         id="PathCollection_2">
        <defs
           id="defs37">
          <path
             id="m87956098e6"
             d="M 0 93.541386  C 24.807466 93.541386 48.602221 83.685275 66.143748 66.143748  C 83.685275 48.602221 93.541386 24.807466 93.541386 0  C 93.541386 -24.807466 83.685275 -48.602221 66.143748 -66.143748  C 48.602221 -83.685275 24.807466 -93.541386 0 -93.541386  C -24.807466 -93.541386 -48.602221 -83.685275 -66.143748 -66.143748  C -83.685275 -48.602221 -93.541386 -24.807466 -93.541386 0  C -93.541386 24.807466 -83.685275 48.602221 -66.143748 66.143748  C -48.602221 83.685275 -24.807466 93.541386 0 93.541386  z "
             style="stroke: #ffffff; stroke-opacity: 0.92; stroke-width: 2" />
        </defs>
        <g
           clip-path="url(#p9a30744305)"
           id="g41">
          <use
             xlink:href="#m87956098e6"
             x="427.625224"
             y="454"
             style="fill: #2a5f7f; fill-opacity: 0.92; stroke: #ffffff; stroke-opacity: 0.92; stroke-width: 2"
             id="use39" />
        </g>
      </g>
      <g
         id="text_1">
        <g
           id="patch_2">
          <path
             d="M 336.135087 99.508066  L 519.11536 99.508066  L 519.11536 83.339669  L 336.135087 83.339669  z "
             style="fill: #ffffff; opacity: 0.78"
             id="path44" />
        </g>
        <!-- natural language processing -->
        <g
           style="fill: #333333"
           transform="translate(338.143876 94.888244) scale(0.125549 -0.125549)"
           id="g117">
          <defs
             id="defs61">
            <path
               id="DejaVuSans-6e"
               d="M 3513 2113  L 3513 0  L 2938 0  L 2938 2094  Q 2938 2591 2744 2837  Q 2550 3084 2163 3084  Q 1697 3084 1428 2787  Q 1159 2491 1159 1978  L 1159 0  L 581 0  L 581 3500  L 1159 3500  L 1159 2956  Q 1366 3272 1645 3428  Q 1925 3584 2291 3584  Q 2894 3584 3203 3211  Q 3513 2838 3513 2113  z "
               transform="scale(0.015625)" />
            <path
               id="DejaVuSans-61"
               d="M 2194 1759  Q 1497 1759 1228 1600  Q 959 1441 959 1056  Q 959 750 1161 570  Q 1363 391 1709 391  Q 2188 391 2477 730  Q 2766 1069 2766 1631  L 2766 1759  L 2194 1759  z M 3341 1997  L 3341 0  L 2766 0  L 2766 531  Q 2569 213 2275 61  Q 1981 -91 1556 -91  Q 1019 -91 701 211  Q 384 513 384 1019  Q 384 1609 779 1909  Q 1175 2209 1959 2209  L 2766 2209  L 2766 2266  Q 2766 2663 2505 2880  Q 2244 3097 1772 3097  Q 1472 3097 1187 3025  Q 903 2953 641 2809  L 641 3341  Q 956 3463 1253 3523  Q 1550 3584 1831 3584  Q 2591 3584 2966 3190  Q 3341 2797 3341 1997  z "
               transform="scale(0.015625)" />
            <path
               id="DejaVuSans-74"
               d="M 1172 4494  L 1172 3500  L 2356 3500  L 2356 3053  L 1172 3053  L 1172 1153  Q 1172 725 1289 603  Q 1406 481 1766 481  L 2356 481  L 2356 0  L 1766 0  Q 1100 0 847 248  Q 594 497 594 1153  L 594 3053  L 172 3053  L 172 3500  L 594 3500  L 594 4494  L 1172 4494  z "
               transform="scale(0.015625)" />
            <path
               id="DejaVuSans-75"
               d="M 544 1381  L 544 3500  L 1119 3500  L 1119 1403  Q 1119 906 1312 657  Q 1506 409 1894 409  Q 2359 409 2629 706  Q 2900 1003 2900 1516  L 2900 3500  L 3475 3500  L 3475 0  L 2900 0  L 2900 538  Q 2691 219 2414 64  Q 2138 -91 1772 -91  Q 1169 -91 856 284  Q 544 659 544 1381  z M 1991 3584  L 1991 3584  z "
               transform="scale(0.015625)" />
            <path
               id="DejaVuSans-72"
               d="M 2631 2963  Q 2534 3019 2420 3045  Q 2306 3072 2169 3072  Q 1681 3072 1420 2755  Q 1159 2438 1159 1844  L 1159 0  L 581 0  L 581 3500  L 1159 3500  L 1159 2956  Q 1341 3275 1631 3429  Q 1922 3584 2338 3584  Q 2397 3584 2469 3576  Q 2541 3569 2628 3553  L 2631 2963  z "
               transform="scale(0.015625)" />
            <path
               id="DejaVuSans-6c"
               d="M 603 4863  L 1178 4863  L 1178 0  L 603 0  L 603 4863  z "
               transform="scale(0.015625)" />
            <path
               id="DejaVuSans-20"
               transform="scale(0.015625)" />
            <path
               id="DejaVuSans-67"
               d="M 2906 1791  Q 2906 2416 2648 2759  Q 2391 3103 1925 3103  Q 1463 3103 1205 2759  Q 947 2416 947 1791  Q 947 1169 1205 825  Q 1463 481 1925 481  Q 2391 481 2648 825  Q 2906 1169 2906 1791  z M 3481 434  Q 3481 -459 3084 -895  Q 2688 -1331 1869 -1331  Q 1566 -1331 1297 -1286  Q 1028 -1241 775 -1147  L 775 -588  Q 1028 -725 1275 -790  Q 1522 -856 1778 -856  Q 2344 -856 2625 -561  Q 2906 -266 2906 331  L 2906 616  Q 2728 306 2450 153  Q 2172 0 1784 0  Q 1141 0 747 490  Q 353 981 353 1791  Q 353 2603 747 3093  Q 1141 3584 1784 3584  Q 2172 3584 2450 3431  Q 2728 3278 2906 2969  L 2906 3500  L 3481 3500  L 3481 434  z "
               transform="scale(0.015625)" />
            <path
               id="DejaVuSans-65"
               d="M 3597 1894  L 3597 1613  L 953 1613  Q 991 1019 1311 708  Q 1631 397 2203 397  Q 2534 397 2845 478  Q 3156 559 3463 722  L 3463 178  Q 3153 47 2828 -22  Q 2503 -91 2169 -91  Q 1331 -91 842 396  Q 353 884 353 1716  Q 353 2575 817 3079  Q 1281 3584 2069 3584  Q 2775 3584 3186 3129  Q 3597 2675 3597 1894  z M 3022 2063  Q 3016 2534 2758 2815  Q 2500 3097 2075 3097  Q 1594 3097 1305 2825  Q 1016 2553 972 2059  L 3022 2063  z "
               transform="scale(0.015625)" />
            <path
               id="DejaVuSans-70"
               d="M 1159 525  L 1159 -1331  L 581 -1331  L 581 3500  L 1159 3500  L 1159 2969  Q 1341 3281 1617 3432  Q 1894 3584 2278 3584  Q 2916 3584 3314 3078  Q 3713 2572 3713 1747  Q 3713 922 3314 415  Q 2916 -91 2278 -91  Q 1894 -91 1617 61  Q 1341 213 1159 525  z M 3116 1747  Q 3116 2381 2855 2742  Q 2594 3103 2138 3103  Q 1681 3103 1420 2742  Q 1159 2381 1159 1747  Q 1159 1113 1420 752  Q 1681 391 2138 391  Q 2594 391 2855 752  Q 3116 1113 3116 1747  z "
               transform="scale(0.015625)" />
            <path
               id="DejaVuSans-6f"
               d="M 1959 3097  Q 1497 3097 1228 2736  Q 959 2375 959 1747  Q 959 1119 1226 758  Q 1494 397 1959 397  Q 2419 397 2687 759  Q 2956 1122 2956 1747  Q 2956 2369 2687 2733  Q 2419 3097 1959 3097  z M 1959 3584  Q 2709 3584 3137 3096  Q 3566 2609 3566 1747  Q 3566 888 3137 398  Q 2709 -91 1959 -91  Q 1206 -91 779 398  Q 353 888 353 1747  Q 353 2609 779 3096  Q 1206 3584 1959 3584  z "
               transform="scale(0.015625)" />
            <path
               id="DejaVuSans-63"
               d="M 3122 3366  L 3122 2828  Q 2878 2963 2633 3030  Q 2388 3097 2138 3097  Q 1578 3097 1268 2742  Q 959 2388 959 1747  Q 959 1106 1268 751  Q 1578 397 2138 397  Q 2388 397 2633 464  Q 2878 531 3122 666  L 3122 134  Q 2881 22 2623 -34  Q 2366 -91 2075 -91  Q 1284 -91 818 406  Q 353 903 353 1747  Q 353 2603 823 3093  Q 1294 3584 2113 3584  Q 2378 3584 2631 3529  Q 2884 3475 3122 3366  z "
               transform="scale(0.015625)" />
            <path
               id="DejaVuSans-73"
               d="M 2834 3397  L 2834 2853  Q 2591 2978 2328 3040  Q 2066 3103 1784 3103  Q 1356 3103 1142 2972  Q 928 2841 928 2578  Q 928 2378 1081 2264  Q 1234 2150 1697 2047  L 1894 2003  Q 2506 1872 2764 1633  Q 3022 1394 3022 966  Q 3022 478 2636 193  Q 2250 -91 1575 -91  Q 1294 -91 989 -36  Q 684 19 347 128  L 347 722  Q 666 556 975 473  Q 1284 391 1588 391  Q 1994 391 2212 530  Q 2431 669 2431 922  Q 2431 1156 2273 1281  Q 2116 1406 1581 1522  L 1381 1569  Q 847 1681 609 1914  Q 372 2147 372 2553  Q 372 3047 722 3315  Q 1072 3584 1716 3584  Q 2034 3584 2315 3537  Q 2597 3491 2834 3397  z "
               transform="scale(0.015625)" />
            <path
               id="DejaVuSans-69"
               d="M 603 3500  L 1178 3500  L 1178 0  L 603 0  L 603 3500  z M 603 4863  L 1178 4863  L 1178 4134  L 603 4134  L 603 4863  z "
               transform="scale(0.015625)" />
          </defs>
          <use
             xlink:href="#DejaVuSans-6e"
             id="use63" />
          <use
             xlink:href="#DejaVuSans-61"
             x="63.378906"
             id="use65" />
          <use
             xlink:href="#DejaVuSans-74"
             x="124.658203"
             id="use67" />
          <use
             xlink:href="#DejaVuSans-75"
             x="163.867188"
             id="use69" />
          <use
             xlink:href="#DejaVuSans-72"
             x="227.246094"
             id="use71" />
          <use
             xlink:href="#DejaVuSans-61"
             x="268.359375"
             id="use73" />
          <use
             xlink:href="#DejaVuSans-6c"
             x="329.638672"
             id="use75" />
          <use
             xlink:href="#DejaVuSans-20"
             x="357.421875"
             id="use77" />
          <use
             xlink:href="#DejaVuSans-6c"
             x="389.208984"
             id="use79" />
          <use
             xlink:href="#DejaVuSans-61"
             x="416.992188"
             id="use81" />
          <use
             xlink:href="#DejaVuSans-6e"
             x="478.271484"
             id="use83" />
          <use
             xlink:href="#DejaVuSans-67"
             x="541.650391"
             id="use85" />
          <use
             xlink:href="#DejaVuSans-75"
             x="605.126953"
             id="use87" />
          <use
             xlink:href="#DejaVuSans-61"
             x="668.505859"
             id="use89" />
          <use
             xlink:href="#DejaVuSans-67"
             x="729.785156"
             id="use91" />
          <use
             xlink:href="#DejaVuSans-65"
             x="793.261719"
             id="use93" />
          <use
             xlink:href="#DejaVuSans-20"
             x="854.785156"
             id="use95" />
          <use
             xlink:href="#DejaVuSans-70"
             x="886.572266"
             id="use97" />
          <use
             xlink:href="#DejaVuSans-72"
             x="950.048828"
             id="use99" />
          <use
             xlink:href="#DejaVuSans-6f"
             x="988.912109"
             id="use101" />
          <use
             xlink:href="#DejaVuSans-63"
             x="1050.09375"
             id="use103" />
          <use
             xlink:href="#DejaVuSans-65"
             x="1105.074219"
             id="use105" />
          <use
             xlink:href="#DejaVuSans-73"
             x="1166.597656"
             id="use107" />
          <use
             xlink:href="#DejaVuSans-73"
             x="1218.697266"
             id="use109" />
          <use
             xlink:href="#DejaVuSans-69"
             x="1270.796875"
             id="use111" />
          <use
             xlink:href="#DejaVuSans-6e"
             x="1298.580078"
             id="use113" />
          <use
             xlink:href="#DejaVuSans-67"
             x="1361.958984"
             id="use115" />
        </g>
      </g>
      <g
         id="text_2">
        <g
           id="patch_3">
          <path
             d="M 593.128407 148.084057  L 624.698173 148.084057  L 624.698173 131.91566  L 593.128407 131.91566  z "
             style="fill: #ffffff; opacity: 0.78"
             id="path120" />
        </g>
        <!-- CNN -->
        <g
           style="fill: #333333"
           transform="translate(595.137196 143.464234) scale(0.125549 -0.125549)"
           id="g133">
          <defs
             id="defs125">
            <path
               id="DejaVuSans-43"
               d="M 4122 4306  L 4122 3641  Q 3803 3938 3442 4084  Q 3081 4231 2675 4231  Q 1875 4231 1450 3742  Q 1025 3253 1025 2328  Q 1025 1406 1450 917  Q 1875 428 2675 428  Q 3081 428 3442 575  Q 3803 722 4122 1019  L 4122 359  Q 3791 134 3420 21  Q 3050 -91 2638 -91  Q 1578 -91 968 557  Q 359 1206 359 2328  Q 359 3453 968 4101  Q 1578 4750 2638 4750  Q 3056 4750 3426 4639  Q 3797 4528 4122 4306  z "
               transform="scale(0.015625)" />
            <path
               id="DejaVuSans-4e"
               d="M 628 4666  L 1478 4666  L 3547 763  L 3547 4666  L 4159 4666  L 4159 0  L 3309 0  L 1241 3903  L 1241 0  L 628 0  L 628 4666  z "
               transform="scale(0.015625)" />
          </defs>
          <use
             xlink:href="#DejaVuSans-43"
             id="use127" />
          <use
             xlink:href="#DejaVuSans-4e"
             x="69.824219"
             id="use129" />
          <use
             xlink:href="#DejaVuSans-4e"
             x="144.628906"
             id="use131" />
        </g>
      </g>
      <g
         id="text_3">
        <g
           id="patch_4">
          <path
             d="M 722.883207 280.796132  L 760.367523 280.796132  L 760.367523 264.627735  L 722.883207 264.627735  z "
             style="fill: #ffffff; opacity: 0.78"
             id="path136" />
        </g>
        <!-- LSTM -->
        <g
           style="fill: #333333"
           transform="translate(724.891996 276.17631) scale(0.125549 -0.125549)"
           id="g153">
          <defs
             id="defs143">
            <path
               id="DejaVuSans-4c"
               d="M 628 4666  L 1259 4666  L 1259 531  L 3531 531  L 3531 0  L 628 0  L 628 4666  z "
               transform="scale(0.015625)" />
            <path
               id="DejaVuSans-53"
               d="M 3425 4513  L 3425 3897  Q 3066 4069 2747 4153  Q 2428 4238 2131 4238  Q 1616 4238 1336 4038  Q 1056 3838 1056 3469  Q 1056 3159 1242 3001  Q 1428 2844 1947 2747  L 2328 2669  Q 3034 2534 3370 2195  Q 3706 1856 3706 1288  Q 3706 609 3251 259  Q 2797 -91 1919 -91  Q 1588 -91 1214 -16  Q 841 59 441 206  L 441 856  Q 825 641 1194 531  Q 1563 422 1919 422  Q 2459 422 2753 634  Q 3047 847 3047 1241  Q 3047 1584 2836 1778  Q 2625 1972 2144 2069  L 1759 2144  Q 1053 2284 737 2584  Q 422 2884 422 3419  Q 422 4038 858 4394  Q 1294 4750 2059 4750  Q 2388 4750 2728 4690  Q 3069 4631 3425 4513  z "
               transform="scale(0.015625)" />
            <path
               id="DejaVuSans-54"
               d="M -19 4666  L 3928 4666  L 3928 4134  L 2272 4134  L 2272 0  L 1638 0  L 1638 4134  L -19 4134  L -19 4666  z "
               transform="scale(0.015625)" />
            <path
               id="DejaVuSans-4d"
               d="M 628 4666  L 1569 4666  L 2759 1491  L 3956 4666  L 4897 4666  L 4897 0  L 4281 0  L 4281 4097  L 3078 897  L 2444 897  L 1241 4097  L 1241 0  L 628 0  L 628 4666  z "
               transform="scale(0.015625)" />
          </defs>
          <use
             xlink:href="#DejaVuSans-4c"
             id="use145" />
          <use
             xlink:href="#DejaVuSans-53"
             x="55.712891"
             id="use147" />
          <use
             xlink:href="#DejaVuSans-54"
             x="119.189453"
             id="use149" />
          <use
             xlink:href="#DejaVuSans-4d"
             x="180.273438"
             id="use151" />
        </g>
      </g>
      <g
         id="text_4">
        <g
           id="patch_5">
          <path
             d="M 740.71433 462.084199  L 839.688383 462.084199  L 839.688383 445.915801  L 740.71433 445.915801  z "
             style="fill: #ffffff; opacity: 0.78"
             id="path156" />
        </g>
        <!-- neural network -->
        <g
           style="fill: #333333"
           transform="translate(742.723119 457.464376) scale(0.125549 -0.125549)"
           id="g191">
          <defs
             id="defs161">
            <path
               id="DejaVuSans-77"
               d="M 269 3500  L 844 3500  L 1563 769  L 2278 3500  L 2956 3500  L 3675 769  L 4391 3500  L 4966 3500  L 4050 0  L 3372 0  L 2619 2869  L 1863 0  L 1184 0  L 269 3500  z "
               transform="scale(0.015625)" />
            <path
               id="DejaVuSans-6b"
               d="M 581 4863  L 1159 4863  L 1159 1991  L 2875 3500  L 3609 3500  L 1753 1863  L 3688 0  L 2938 0  L 1159 1709  L 1159 0  L 581 0  L 581 4863  z "
               transform="scale(0.015625)" />
          </defs>
          <use
             xlink:href="#DejaVuSans-6e"
             id="use163" />
          <use
             xlink:href="#DejaVuSans-65"
             x="63.378906"
             id="use165" />
          <use
             xlink:href="#DejaVuSans-75"
             x="124.902344"
             id="use167" />
          <use
             xlink:href="#DejaVuSans-72"
             x="188.28125"
             id="use169" />
          <use
             xlink:href="#DejaVuSans-61"
             x="229.394531"
             id="use171" />
          <use
             xlink:href="#DejaVuSans-6c"
             x="290.673828"
             id="use173" />
          <use
             xlink:href="#DejaVuSans-20"
             x="318.457031"
             id="use175" />
          <use
             xlink:href="#DejaVuSans-6e"
             x="350.244141"
             id="use177" />
          <use
             xlink:href="#DejaVuSans-65"
             x="413.623047"
             id="use179" />
          <use
             xlink:href="#DejaVuSans-74"
             x="475.146484"
             id="use181" />
          <use
             xlink:href="#DejaVuSans-77"
             x="514.355469"
             id="use183" />
          <use
             xlink:href="#DejaVuSans-6f"
             x="596.142578"
             id="use185" />
          <use
             xlink:href="#DejaVuSans-72"
             x="657.324219"
             id="use187" />
          <use
             xlink:href="#DejaVuSans-6b"
             x="698.4375"
             id="use189" />
        </g>
      </g>
      <g
         id="text_5">
        <g
           id="patch_6">
          <path
             d="M 696.151147 642.127129  L 787.099584 642.127129  L 787.099584 628.449004  L 696.151147 628.449004  z "
             style="fill: #ffffff; opacity: 0.78"
             id="path194" />
        </g>
        <!-- machine learning -->
        <g
           style="fill: #333333"
           transform="translate(698.151147 638.047441) scale(0.1 -0.1)"
           id="g233">
          <defs
             id="defs199">
            <path
               id="DejaVuSans-6d"
               d="M 3328 2828  Q 3544 3216 3844 3400  Q 4144 3584 4550 3584  Q 5097 3584 5394 3201  Q 5691 2819 5691 2113  L 5691 0  L 5113 0  L 5113 2094  Q 5113 2597 4934 2840  Q 4756 3084 4391 3084  Q 3944 3084 3684 2787  Q 3425 2491 3425 1978  L 3425 0  L 2847 0  L 2847 2094  Q 2847 2600 2669 2842  Q 2491 3084 2119 3084  Q 1678 3084 1418 2786  Q 1159 2488 1159 1978  L 1159 0  L 581 0  L 581 3500  L 1159 3500  L 1159 2956  Q 1356 3278 1631 3431  Q 1906 3584 2284 3584  Q 2666 3584 2933 3390  Q 3200 3197 3328 2828  z "
               transform="scale(0.015625)" />
            <path
               id="DejaVuSans-68"
               d="M 3513 2113  L 3513 0  L 2938 0  L 2938 2094  Q 2938 2591 2744 2837  Q 2550 3084 2163 3084  Q 1697 3084 1428 2787  Q 1159 2491 1159 1978  L 1159 0  L 581 0  L 581 4863  L 1159 4863  L 1159 2956  Q 1366 3272 1645 3428  Q 1925 3584 2291 3584  Q 2894 3584 3203 3211  Q 3513 2838 3513 2113  z "
               transform="scale(0.015625)" />
          </defs>
          <use
             xlink:href="#DejaVuSans-6d"
             id="use201" />
          <use
             xlink:href="#DejaVuSans-61"
             x="97.412109"
             id="use203" />
          <use
             xlink:href="#DejaVuSans-63"
             x="158.691406"
             id="use205" />
          <use
             xlink:href="#DejaVuSans-68"
             x="213.671875"
             id="use207" />
          <use
             xlink:href="#DejaVuSans-69"
             x="277.050781"
             id="use209" />
          <use
             xlink:href="#DejaVuSans-6e"
             x="304.833984"
             id="use211" />
          <use
             xlink:href="#DejaVuSans-65"
             x="368.212891"
             id="use213" />
          <use
             xlink:href="#DejaVuSans-20"
             x="429.736328"
             id="use215" />
          <use
             xlink:href="#DejaVuSans-6c"
             x="461.523438"
             id="use217" />
          <use
             xlink:href="#DejaVuSans-65"
             x="489.306641"
             id="use219" />
          <use
             xlink:href="#DejaVuSans-61"
             x="550.830078"
             id="use221" />
          <use
             xlink:href="#DejaVuSans-72"
             x="612.109375"
             id="use223" />
          <use
             xlink:href="#DejaVuSans-6e"
             x="651.472656"
             id="use225" />
          <use
             xlink:href="#DejaVuSans-69"
             x="714.851562"
             id="use227" />
          <use
             xlink:href="#DejaVuSans-6e"
             x="742.634766"
             id="use229" />
          <use
             xlink:href="#DejaVuSans-67"
             x="806.013672"
             id="use231" />
        </g>
      </g>
      <g
         id="text_6">
        <g
           id="patch_7">
          <path
             d="M 559.805478 774.839204  L 658.021103 774.839204  L 658.021103 761.161079  L 559.805478 761.161079  z "
             style="fill: #ffffff; opacity: 0.78"
             id="path236" />
        </g>
        <!-- sentiment analysis -->
        <g
           style="fill: #333333"
           transform="translate(561.805478 770.759517) scale(0.1 -0.1)"
           id="g278">
          <defs
             id="defs240">
            <path
               id="DejaVuSans-79"
               d="M 2059 -325  Q 1816 -950 1584 -1140  Q 1353 -1331 966 -1331  L 506 -1331  L 506 -850  L 844 -850  Q 1081 -850 1212 -737  Q 1344 -625 1503 -206  L 1606 56  L 191 3500  L 800 3500  L 1894 763  L 2988 3500  L 3597 3500  L 2059 -325  z "
               transform="scale(0.015625)" />
          </defs>
          <use
             xlink:href="#DejaVuSans-73"
             id="use242" />
          <use
             xlink:href="#DejaVuSans-65"
             x="52.099609"
             id="use244" />
          <use
             xlink:href="#DejaVuSans-6e"
             x="113.623047"
             id="use246" />
          <use
             xlink:href="#DejaVuSans-74"
             x="177.001953"
             id="use248" />
          <use
             xlink:href="#DejaVuSans-69"
             x="216.210938"
             id="use250" />
          <use
             xlink:href="#DejaVuSans-6d"
             x="243.994141"
             id="use252" />
          <use
             xlink:href="#DejaVuSans-65"
             x="341.40625"
             id="use254" />
          <use
             xlink:href="#DejaVuSans-6e"
             x="402.929688"
             id="use256" />
          <use
             xlink:href="#DejaVuSans-74"
             x="466.308594"
             id="use258" />
          <use
             xlink:href="#DejaVuSans-20"
             x="505.517578"
             id="use260" />
          <use
             xlink:href="#DejaVuSans-61"
             x="537.304688"
             id="use262" />
          <use
             xlink:href="#DejaVuSans-6e"
             x="598.583984"
             id="use264" />
          <use
             xlink:href="#DejaVuSans-61"
             x="661.962891"
             id="use266" />
          <use
             xlink:href="#DejaVuSans-6c"
             x="723.242188"
             id="use268" />
          <use
             xlink:href="#DejaVuSans-79"
             x="751.025391"
             id="use270" />
          <use
             xlink:href="#DejaVuSans-73"
             x="810.205078"
             id="use272" />
          <use
             xlink:href="#DejaVuSans-69"
             x="862.304688"
             id="use274" />
          <use
             xlink:href="#DejaVuSans-73"
             x="890.087891"
             id="use276" />
        </g>
      </g>
      <g
         id="text_7">
        <g
           id="patch_8">
          <path
             d="M 347.72288 823.415195  L 507.527567 823.415195  L 507.527567 809.73707  L 347.72288 809.73707  z "
             style="fill: #ffffff; opacity: 0.78"
             id="path281" />
        </g>
        <!-- multivariate statistical analysis -->
        <g
           style="fill: #333333"
           transform="translate(349.72288 819.335508) scale(0.1 -0.1)"
           id="g353">
          <defs
             id="defs285">
            <path
               id="DejaVuSans-76"
               d="M 191 3500  L 800 3500  L 1894 563  L 2988 3500  L 3597 3500  L 2284 0  L 1503 0  L 191 3500  z "
               transform="scale(0.015625)" />
          </defs>
          <use
             xlink:href="#DejaVuSans-6d"
             id="use287" />
          <use
             xlink:href="#DejaVuSans-75"
             x="97.412109"
             id="use289" />
          <use
             xlink:href="#DejaVuSans-6c"
             x="160.791016"
             id="use291" />
          <use
             xlink:href="#DejaVuSans-74"
             x="188.574219"
             id="use293" />
          <use
             xlink:href="#DejaVuSans-69"
             x="227.783203"
             id="use295" />
          <use
             xlink:href="#DejaVuSans-76"
             x="255.566406"
             id="use297" />
          <use
             xlink:href="#DejaVuSans-61"
             x="314.746094"
             id="use299" />
          <use
             xlink:href="#DejaVuSans-72"
             x="376.025391"
             id="use301" />
          <use
             xlink:href="#DejaVuSans-69"
             x="417.138672"
             id="use303" />
          <use
             xlink:href="#DejaVuSans-61"
             x="444.921875"
             id="use305" />
          <use
             xlink:href="#DejaVuSans-74"
             x="506.201172"
             id="use307" />
          <use
             xlink:href="#DejaVuSans-65"
             x="545.410156"
             id="use309" />
          <use
             xlink:href="#DejaVuSans-20"
             x="606.933594"
             id="use311" />
          <use
             xlink:href="#DejaVuSans-73"
             x="638.720703"
             id="use313" />
          <use
             xlink:href="#DejaVuSans-74"
             x="690.820312"
             id="use315" />
          <use
             xlink:href="#DejaVuSans-61"
             x="730.029297"
             id="use317" />
          <use
             xlink:href="#DejaVuSans-74"
             x="791.308594"
             id="use319" />
          <use
             xlink:href="#DejaVuSans-69"
             x="830.517578"
             id="use321" />
          <use
             xlink:href="#DejaVuSans-73"
             x="858.300781"
             id="use323" />
          <use
             xlink:href="#DejaVuSans-74"
             x="910.400391"
             id="use325" />
          <use
             xlink:href="#DejaVuSans-69"
             x="949.609375"
             id="use327" />
          <use
             xlink:href="#DejaVuSans-63"
             x="977.392578"
             id="use329" />
          <use
             xlink:href="#DejaVuSans-61"
             x="1032.373047"
             id="use331" />
          <use
             xlink:href="#DejaVuSans-6c"
             x="1093.652344"
             id="use333" />
          <use
             xlink:href="#DejaVuSans-20"
             x="1121.435547"
             id="use335" />
          <use
             xlink:href="#DejaVuSans-61"
             x="1153.222656"
             id="use337" />
          <use
             xlink:href="#DejaVuSans-6e"
             x="1214.501953"
             id="use339" />
          <use
             xlink:href="#DejaVuSans-61"
             x="1277.880859"
             id="use341" />
          <use
             xlink:href="#DejaVuSans-6c"
             x="1339.160156"
             id="use343" />
          <use
             xlink:href="#DejaVuSans-79"
             x="1366.943359"
             id="use345" />
          <use
             xlink:href="#DejaVuSans-73"
             x="1426.123047"
             id="use347" />
          <use
             xlink:href="#DejaVuSans-69"
             x="1478.222656"
             id="use349" />
          <use
             xlink:href="#DejaVuSans-73"
             x="1506.005859"
             id="use351" />
        </g>
      </g>
      <g
         id="text_8">
        <g
           id="patch_9">
          <path
             d="M 195.066063 774.839204  L 297.608251 774.839204  L 297.608251 761.161079  L 195.066063 761.161079  z "
             style="fill: #ffffff; opacity: 0.78"
             id="path356" />
        </g>
        <!-- supervised learning -->
        <g
           style="fill: #333333"
           transform="translate(197.066063 770.759517) scale(0.1 -0.1)"
           id="g400">
          <defs
             id="defs360">
            <path
               id="DejaVuSans-64"
               d="M 2906 2969  L 2906 4863  L 3481 4863  L 3481 0  L 2906 0  L 2906 525  Q 2725 213 2448 61  Q 2172 -91 1784 -91  Q 1150 -91 751 415  Q 353 922 353 1747  Q 353 2572 751 3078  Q 1150 3584 1784 3584  Q 2172 3584 2448 3432  Q 2725 3281 2906 2969  z M 947 1747  Q 947 1113 1208 752  Q 1469 391 1925 391  Q 2381 391 2643 752  Q 2906 1113 2906 1747  Q 2906 2381 2643 2742  Q 2381 3103 1925 3103  Q 1469 3103 1208 2742  Q 947 2381 947 1747  z "
               transform="scale(0.015625)" />
          </defs>
          <use
             xlink:href="#DejaVuSans-73"
             id="use362" />
          <use
             xlink:href="#DejaVuSans-75"
             x="52.099609"
             id="use364" />
          <use
             xlink:href="#DejaVuSans-70"
             x="115.478516"
             id="use366" />
          <use
             xlink:href="#DejaVuSans-65"
             x="178.955078"
             id="use368" />
          <use
             xlink:href="#DejaVuSans-72"
             x="240.478516"
             id="use370" />
          <use
             xlink:href="#DejaVuSans-76"
             x="281.591797"
             id="use372" />
          <use
             xlink:href="#DejaVuSans-69"
             x="340.771484"
             id="use374" />
          <use
             xlink:href="#DejaVuSans-73"
             x="368.554688"
             id="use376" />
          <use
             xlink:href="#DejaVuSans-65"
             x="420.654297"
             id="use378" />
          <use
             xlink:href="#DejaVuSans-64"
             x="482.177734"
             id="use380" />
          <use
             xlink:href="#DejaVuSans-20"
             x="545.654297"
             id="use382" />
          <use
             xlink:href="#DejaVuSans-6c"
             x="577.441406"
             id="use384" />
          <use
             xlink:href="#DejaVuSans-65"
             x="605.224609"
             id="use386" />
          <use
             xlink:href="#DejaVuSans-61"
             x="666.748047"
             id="use388" />
          <use
             xlink:href="#DejaVuSans-72"
             x="728.027344"
             id="use390" />
          <use
             xlink:href="#DejaVuSans-6e"
             x="767.390625"
             id="use392" />
          <use
             xlink:href="#DejaVuSans-69"
             x="830.769531"
             id="use394" />
          <use
             xlink:href="#DejaVuSans-6e"
             x="858.552734"
             id="use396" />
          <use
             xlink:href="#DejaVuSans-67"
             x="921.931641"
             id="use398" />
        </g>
      </g>
      <g
         id="text_9">
        <g
           id="patch_10">
          <path
             d="M 101.358676 642.127129  L 125.891488 642.127129  L 125.891488 628.449004  L 101.358676 628.449004  z "
             style="fill: #ffffff; opacity: 0.78"
             id="path403" />
        </g>
        <!-- bert -->
        <g
           style="fill: #333333"
           transform="translate(103.358676 638.047441) scale(0.1 -0.1)"
           id="g417">
          <defs
             id="defs407">
            <path
               id="DejaVuSans-62"
               d="M 3116 1747  Q 3116 2381 2855 2742  Q 2594 3103 2138 3103  Q 1681 3103 1420 2742  Q 1159 2381 1159 1747  Q 1159 1113 1420 752  Q 1681 391 2138 391  Q 2594 391 2855 752  Q 3116 1113 3116 1747  z M 1159 2969  Q 1341 3281 1617 3432  Q 1894 3584 2278 3584  Q 2916 3584 3314 3078  Q 3713 2572 3713 1747  Q 3713 922 3314 415  Q 2916 -91 2278 -91  Q 1894 -91 1617 61  Q 1341 213 1159 525  L 1159 0  L 581 0  L 581 4863  L 1159 4863  L 1159 2969  z "
               transform="scale(0.015625)" />
          </defs>
          <use
             xlink:href="#DejaVuSans-62"
             id="use409" />
          <use
             xlink:href="#DejaVuSans-65"
             x="63.476562"
             id="use411" />
          <use
             xlink:href="#DejaVuSans-72"
             x="125"
             id="use413" />
          <use
             xlink:href="#DejaVuSans-74"
             x="166.113281"
             id="use415" />
        </g>
      </g>
      <g
         id="text_10">
        <g
           id="patch_11">
          <path
             d="M 43.79831 460.839063  L 86.299872 460.839063  L 86.299872 447.160938  L 43.79831 447.160938  z "
             style="fill: #ffffff; opacity: 0.78"
             id="path420" />
        </g>
        <!-- chatgpt -->
        <g
           style="fill: #333333"
           transform="translate(45.79831 456.759375) scale(0.1 -0.1)"
           id="g437">
          <use
             xlink:href="#DejaVuSans-63"
             id="use423" />
          <use
             xlink:href="#DejaVuSans-68"
             x="54.980469"
             id="use425" />
          <use
             xlink:href="#DejaVuSans-61"
             x="118.359375"
             id="use427" />
          <use
             xlink:href="#DejaVuSans-74"
             x="179.638672"
             id="use429" />
          <use
             xlink:href="#DejaVuSans-67"
             x="218.847656"
             id="use431" />
          <use
             xlink:href="#DejaVuSans-70"
             x="282.324219"
             id="use433" />
          <use
             xlink:href="#DejaVuSans-74"
             x="345.800781"
             id="use435" />
        </g>
      </g>
      <g
         id="text_11">
        <g
           id="patch_12">
          <path
             d="M 81.982113 279.550996  L 145.268051 279.550996  L 145.268051 265.872871  L 81.982113 265.872871  z "
             style="fill: #ffffff; opacity: 0.78"
             id="path440" />
        </g>
        <!-- transformer -->
        <g
           style="fill: #333333"
           transform="translate(83.982113 275.471309) scale(0.1 -0.1)"
           id="g468">
          <defs
             id="defs444">
            <path
               id="DejaVuSans-66"
               d="M 2375 4863  L 2375 4384  L 1825 4384  Q 1516 4384 1395 4259  Q 1275 4134 1275 3809  L 1275 3500  L 2222 3500  L 2222 3053  L 1275 3053  L 1275 0  L 697 0  L 697 3053  L 147 3053  L 147 3500  L 697 3500  L 697 3744  Q 697 4328 969 4595  Q 1241 4863 1831 4863  L 2375 4863  z "
               transform="scale(0.015625)" />
          </defs>
          <use
             xlink:href="#DejaVuSans-74"
             id="use446" />
          <use
             xlink:href="#DejaVuSans-72"
             x="39.208984"
             id="use448" />
          <use
             xlink:href="#DejaVuSans-61"
             x="80.322266"
             id="use450" />
          <use
             xlink:href="#DejaVuSans-6e"
             x="141.601562"
             id="use452" />
          <use
             xlink:href="#DejaVuSans-73"
             x="204.980469"
             id="use454" />
          <use
             xlink:href="#DejaVuSans-66"
             x="257.080078"
             id="use456" />
          <use
             xlink:href="#DejaVuSans-6f"
             x="292.285156"
             id="use458" />
          <use
             xlink:href="#DejaVuSans-72"
             x="353.466797"
             id="use460" />
          <use
             xlink:href="#DejaVuSans-6d"
             x="392.830078"
             id="use462" />
          <use
             xlink:href="#DejaVuSans-65"
             x="490.242188"
             id="use464" />
          <use
             xlink:href="#DejaVuSans-72"
             x="551.765625"
             id="use466" />
        </g>
      </g>
      <g
         id="text_12">
        <g
           id="patch_13">
          <path
             d="M 234.45122 146.838921  L 258.223095 146.838921  L 258.223095 133.160796  L 234.45122 133.160796  z "
             style="fill: #ffffff; opacity: 0.78"
             id="path471" />
        </g>
        <!-- LLM -->
        <g
           style="fill: #333333"
           transform="translate(236.45122 142.759233) scale(0.1 -0.1)"
           id="g480">
          <use
             xlink:href="#DejaVuSans-4c"
             id="use474" />
          <use
             xlink:href="#DejaVuSans-4c"
             x="55.712891"
             id="use476" />
          <use
             xlink:href="#DejaVuSans-4d"
             x="111.425781"
             id="use478" />
        </g>
      </g>
      <g
         id="text_13">
        <!-- AI methods: Sustainability Science Communication -->
        <g
           style="fill: #2a5f7f"
           transform="translate(198.130849 24.8) scale(0.18 -0.18)"
           id="g584">
          <defs
             id="defs486">
            <path
               id="DejaVuSans-41"
               d="M 2188 4044  L 1331 1722  L 3047 1722  L 2188 4044  z M 1831 4666  L 2547 4666  L 4325 0  L 3669 0  L 3244 1197  L 1141 1197  L 716 0  L 50 0  L 1831 4666  z "
               transform="scale(0.015625)" />
            <path
               id="DejaVuSans-49"
               d="M 628 4666  L 1259 4666  L 1259 0  L 628 0  L 628 4666  z "
               transform="scale(0.015625)" />
            <path
               id="DejaVuSans-3a"
               d="M 750 794  L 1409 794  L 1409 0  L 750 0  L 750 794  z M 750 3309  L 1409 3309  L 1409 2516  L 750 2516  L 750 3309  z "
               transform="scale(0.015625)" />
          </defs>
          <use
             xlink:href="#DejaVuSans-41"
             id="use488" />
          <use
             xlink:href="#DejaVuSans-49"
             x="68.408203"
             id="use490" />
          <use
             xlink:href="#DejaVuSans-20"
             x="97.900391"
             id="use492" />
          <use
             xlink:href="#DejaVuSans-6d"
             x="129.6875"
             id="use494" />
          <use
             xlink:href="#DejaVuSans-65"
             x="227.099609"
             id="use496" />
          <use
             xlink:href="#DejaVuSans-74"
             x="288.623047"
             id="use498" />
          <use
             xlink:href="#DejaVuSans-68"
             x="327.832031"
             id="use500" />
          <use
             xlink:href="#DejaVuSans-6f"
             x="391.210938"
             id="use502" />
          <use
             xlink:href="#DejaVuSans-64"
             x="452.392578"
             id="use504" />
          <use
             xlink:href="#DejaVuSans-73"
             x="515.869141"
             id="use506" />
          <use
             xlink:href="#DejaVuSans-3a"
             x="567.96875"
             id="use508" />
          <use
             xlink:href="#DejaVuSans-20"
             x="601.660156"
             id="use510" />
          <use
             xlink:href="#DejaVuSans-53"
             x="633.447266"
             id="use512" />
          <use
             xlink:href="#DejaVuSans-75"
             x="696.923828"
             id="use514" />
          <use
             xlink:href="#DejaVuSans-73"
             x="760.302734"
             id="use516" />
          <use
             xlink:href="#DejaVuSans-74"
             x="812.402344"
             id="use518" />
          <use
             xlink:href="#DejaVuSans-61"
             x="851.611328"
             id="use520" />
          <use
             xlink:href="#DejaVuSans-69"
             x="912.890625"
             id="use522" />
          <use
             xlink:href="#DejaVuSans-6e"
             x="940.673828"
             id="use524" />
          <use
             xlink:href="#DejaVuSans-61"
             x="1004.052734"
             id="use526" />
          <use
             xlink:href="#DejaVuSans-62"
             x="1065.332031"
             id="use528" />
          <use
             xlink:href="#DejaVuSans-69"
             x="1128.808594"
             id="use530" />
          <use
             xlink:href="#DejaVuSans-6c"
             x="1156.591797"
             id="use532" />
          <use
             xlink:href="#DejaVuSans-69"
             x="1184.375"
             id="use534" />
          <use
             xlink:href="#DejaVuSans-74"
             x="1212.158203"
             id="use536" />
          <use
             xlink:href="#DejaVuSans-79"
             x="1251.367188"
             id="use538" />
          <use
             xlink:href="#DejaVuSans-20"
             x="1310.546875"
             id="use540" />
          <use
             xlink:href="#DejaVuSans-53"
             x="1342.333984"
             id="use542" />
          <use
             xlink:href="#DejaVuSans-63"
             x="1405.810547"
             id="use544" />
          <use
             xlink:href="#DejaVuSans-69"
             x="1460.791016"
             id="use546" />
          <use
             xlink:href="#DejaVuSans-65"
             x="1488.574219"
             id="use548" />
          <use
             xlink:href="#DejaVuSans-6e"
             x="1550.097656"
             id="use550" />
          <use
             xlink:href="#DejaVuSans-63"
             x="1613.476562"
             id="use552" />
          <use
             xlink:href="#DejaVuSans-65"
             x="1668.457031"
             id="use554" />
          <use
             xlink:href="#DejaVuSans-20"
             x="1729.980469"
             id="use556" />
          <use
             xlink:href="#DejaVuSans-43"
             x="1761.767578"
             id="use558" />
          <use
             xlink:href="#DejaVuSans-6f"
             x="1831.591797"
             id="use560" />
          <use
             xlink:href="#DejaVuSans-6d"
             x="1892.773438"
             id="use562" />
          <use
             xlink:href="#DejaVuSans-6d"
             x="1990.185547"
             id="use564" />
          <use
             xlink:href="#DejaVuSans-75"
             x="2087.597656"
             id="use566" />
          <use
             xlink:href="#DejaVuSans-6e"
             x="2150.976562"
             id="use568" />
          <use
             xlink:href="#DejaVuSans-69"
             x="2214.355469"
             id="use570" />
          <use
             xlink:href="#DejaVuSans-63"
             x="2242.138672"
             id="use572" />
          <use
             xlink:href="#DejaVuSans-61"
             x="2297.119141"
             id="use574" />
          <use
             xlink:href="#DejaVuSans-74"
             x="2358.398438"
             id="use576" />
          <use
             xlink:href="#DejaVuSans-69"
             x="2397.607422"
             id="use578" />
          <use
             xlink:href="#DejaVuSans-6f"
             x="2425.390625"
             id="use580" />
          <use
             xlink:href="#DejaVuSans-6e"
             x="2486.572266"
             id="use582" />
        </g>
      </g>
      <g
         id="text_14">
        <g
           id="patch_14">
          <path
             d="M 229.663192 435.610338  L 625.587255 435.610338  L 625.587255 410.129088  L 229.663192 410.129088  z "
             style="fill: #ffffff; opacity: 0.85"
             id="path587" />
        </g>
        <!-- Sustainability Science Communication -->
        <g
           style="fill: #2a5f7f"
           transform="translate(233.623192 427.766275) scale(0.18 -0.18)"
           id="g680">
          <defs
             id="defs606">
            <path
               id="DejaVuSans-Bold-53"
               d="M 3834 4519  L 3834 3531  Q 3450 3703 3084 3790  Q 2719 3878 2394 3878  Q 1963 3878 1756 3759  Q 1550 3641 1550 3391  Q 1550 3203 1689 3098  Q 1828 2994 2194 2919  L 2706 2816  Q 3484 2659 3812 2340  Q 4141 2022 4141 1434  Q 4141 663 3683 286  Q 3225 -91 2284 -91  Q 1841 -91 1394 -6  Q 947 78 500 244  L 500 1259  Q 947 1022 1364 901  Q 1781 781 2169 781  Q 2563 781 2772 912  Q 2981 1044 2981 1288  Q 2981 1506 2839 1625  Q 2697 1744 2272 1838  L 1806 1941  Q 1106 2091 782 2419  Q 459 2747 459 3303  Q 459 4000 909 4375  Q 1359 4750 2203 4750  Q 2588 4750 2994 4692  Q 3400 4634 3834 4519  z "
               transform="scale(0.015625)" />
            <path
               id="DejaVuSans-Bold-75"
               d="M 500 1363  L 500 3500  L 1625 3500  L 1625 3150  Q 1625 2866 1622 2436  Q 1619 2006 1619 1863  Q 1619 1441 1641 1255  Q 1663 1069 1716 984  Q 1784 875 1895 815  Q 2006 756 2150 756  Q 2500 756 2700 1025  Q 2900 1294 2900 1772  L 2900 3500  L 4019 3500  L 4019 0  L 2900 0  L 2900 506  Q 2647 200 2364 54  Q 2081 -91 1741 -91  Q 1134 -91 817 281  Q 500 653 500 1363  z "
               transform="scale(0.015625)" />
            <path
               id="DejaVuSans-Bold-73"
               d="M 3272 3391  L 3272 2541  Q 2913 2691 2578 2766  Q 2244 2841 1947 2841  Q 1628 2841 1473 2761  Q 1319 2681 1319 2516  Q 1319 2381 1436 2309  Q 1553 2238 1856 2203  L 2053 2175  Q 2913 2066 3209 1816  Q 3506 1566 3506 1031  Q 3506 472 3093 190  Q 2681 -91 1863 -91  Q 1516 -91 1145 -36  Q 775 19 384 128  L 384 978  Q 719 816 1070 734  Q 1422 653 1784 653  Q 2113 653 2278 743  Q 2444 834 2444 1013  Q 2444 1163 2330 1236  Q 2216 1309 1875 1350  L 1678 1375  Q 931 1469 631 1722  Q 331 1975 331 2491  Q 331 3047 712 3315  Q 1094 3584 1881 3584  Q 2191 3584 2531 3537  Q 2872 3491 3272 3391  z "
               transform="scale(0.015625)" />
            <path
               id="DejaVuSans-Bold-74"
               d="M 1759 4494  L 1759 3500  L 2913 3500  L 2913 2700  L 1759 2700  L 1759 1216  Q 1759 972 1856 886  Q 1953 800 2241 800  L 2816 800  L 2816 0  L 1856 0  Q 1194 0 917 276  Q 641 553 641 1216  L 641 2700  L 84 2700  L 84 3500  L 641 3500  L 641 4494  L 1759 4494  z "
               transform="scale(0.015625)" />
            <path
               id="DejaVuSans-Bold-61"
               d="M 2106 1575  Q 1756 1575 1579 1456  Q 1403 1338 1403 1106  Q 1403 894 1545 773  Q 1688 653 1941 653  Q 2256 653 2472 879  Q 2688 1106 2688 1447  L 2688 1575  L 2106 1575  z M 3816 1997  L 3816 0  L 2688 0  L 2688 519  Q 2463 200 2181 54  Q 1900 -91 1497 -91  Q 953 -91 614 226  Q 275 544 275 1050  Q 275 1666 698 1953  Q 1122 2241 2028 2241  L 2688 2241  L 2688 2328  Q 2688 2594 2478 2717  Q 2269 2841 1825 2841  Q 1466 2841 1156 2769  Q 847 2697 581 2553  L 581 3406  Q 941 3494 1303 3539  Q 1666 3584 2028 3584  Q 2975 3584 3395 3211  Q 3816 2838 3816 1997  z "
               transform="scale(0.015625)" />
            <path
               id="DejaVuSans-Bold-69"
               d="M 538 3500  L 1656 3500  L 1656 0  L 538 0  L 538 3500  z M 538 4863  L 1656 4863  L 1656 3950  L 538 3950  L 538 4863  z "
               transform="scale(0.015625)" />
            <path
               id="DejaVuSans-Bold-6e"
               d="M 4056 2131  L 4056 0  L 2931 0  L 2931 347  L 2931 1631  Q 2931 2084 2911 2256  Q 2891 2428 2841 2509  Q 2775 2619 2662 2680  Q 2550 2741 2406 2741  Q 2056 2741 1856 2470  Q 1656 2200 1656 1722  L 1656 0  L 538 0  L 538 3500  L 1656 3500  L 1656 2988  Q 1909 3294 2193 3439  Q 2478 3584 2822 3584  Q 3428 3584 3742 3212  Q 4056 2841 4056 2131  z "
               transform="scale(0.015625)" />
            <path
               id="DejaVuSans-Bold-62"
               d="M 2400 722  Q 2759 722 2948 984  Q 3138 1247 3138 1747  Q 3138 2247 2948 2509  Q 2759 2772 2400 2772  Q 2041 2772 1848 2508  Q 1656 2244 1656 1747  Q 1656 1250 1848 986  Q 2041 722 2400 722  z M 1656 2988  Q 1888 3294 2169 3439  Q 2450 3584 2816 3584  Q 3463 3584 3878 3070  Q 4294 2556 4294 1747  Q 4294 938 3878 423  Q 3463 -91 2816 -91  Q 2450 -91 2169 54  Q 1888 200 1656 506  L 1656 0  L 538 0  L 538 4863  L 1656 4863  L 1656 2988  z "
               transform="scale(0.015625)" />
            <path
               id="DejaVuSans-Bold-6c"
               d="M 538 4863  L 1656 4863  L 1656 0  L 538 0  L 538 4863  z "
               transform="scale(0.015625)" />
            <path
               id="DejaVuSans-Bold-79"
               d="M 78 3500  L 1197 3500  L 2138 1125  L 2938 3500  L 4056 3500  L 2584 -331  Q 2363 -916 2067 -1148  Q 1772 -1381 1288 -1381  L 641 -1381  L 641 -647  L 991 -647  Q 1275 -647 1404 -556  Q 1534 -466 1606 -231  L 1638 -134  L 78 3500  z "
               transform="scale(0.015625)" />
            <path
               id="DejaVuSans-Bold-20"
               transform="scale(0.015625)" />
            <path
               id="DejaVuSans-Bold-63"
               d="M 3366 3391  L 3366 2478  Q 3138 2634 2908 2709  Q 2678 2784 2431 2784  Q 1963 2784 1702 2511  Q 1441 2238 1441 1747  Q 1441 1256 1702 982  Q 1963 709 2431 709  Q 2694 709 2930 787  Q 3166 866 3366 1019  L 3366 103  Q 3103 6 2833 -42  Q 2563 -91 2291 -91  Q 1344 -91 809 395  Q 275 881 275 1747  Q 275 2613 809 3098  Q 1344 3584 2291 3584  Q 2566 3584 2833 3536  Q 3100 3488 3366 3391  z "
               transform="scale(0.015625)" />
            <path
               id="DejaVuSans-Bold-65"
               d="M 4031 1759  L 4031 1441  L 1416 1441  Q 1456 1047 1700 850  Q 1944 653 2381 653  Q 2734 653 3104 758  Q 3475 863 3866 1075  L 3866 213  Q 3469 63 3072 -14  Q 2675 -91 2278 -91  Q 1328 -91 801 392  Q 275 875 275 1747  Q 275 2603 792 3093  Q 1309 3584 2216 3584  Q 3041 3584 3536 3087  Q 4031 2591 4031 1759  z M 2881 2131  Q 2881 2450 2695 2645  Q 2509 2841 2209 2841  Q 1884 2841 1681 2658  Q 1478 2475 1428 2131  L 2881 2131  z "
               transform="scale(0.015625)" />
            <path
               id="DejaVuSans-Bold-43"
               d="M 4288 256  Q 3956 84 3597 -3  Q 3238 -91 2847 -91  Q 1681 -91 1000 561  Q 319 1213 319 2328  Q 319 3447 1000 4098  Q 1681 4750 2847 4750  Q 3238 4750 3597 4662  Q 3956 4575 4288 4403  L 4288 3438  Q 3953 3666 3628 3772  Q 3303 3878 2944 3878  Q 2300 3878 1931 3465  Q 1563 3053 1563 2328  Q 1563 1606 1931 1193  Q 2300 781 2944 781  Q 3303 781 3628 887  Q 3953 994 4288 1222  L 4288 256  z "
               transform="scale(0.015625)" />
            <path
               id="DejaVuSans-Bold-6f"
               d="M 2203 2784  Q 1831 2784 1636 2517  Q 1441 2250 1441 1747  Q 1441 1244 1636 976  Q 1831 709 2203 709  Q 2569 709 2762 976  Q 2956 1244 2956 1747  Q 2956 2250 2762 2517  Q 2569 2784 2203 2784  z M 2203 3584  Q 3106 3584 3614 3096  Q 4122 2609 4122 1747  Q 4122 884 3614 396  Q 3106 -91 2203 -91  Q 1297 -91 786 396  Q 275 884 275 1747  Q 275 2609 786 3096  Q 1297 3584 2203 3584  z "
               transform="scale(0.015625)" />
            <path
               id="DejaVuSans-Bold-6d"
               d="M 3781 2919  Q 3994 3244 4286 3414  Q 4578 3584 4928 3584  Q 5531 3584 5847 3212  Q 6163 2841 6163 2131  L 6163 0  L 5038 0  L 5038 1825  Q 5041 1866 5042 1909  Q 5044 1953 5044 2034  Q 5044 2406 4934 2573  Q 4825 2741 4581 2741  Q 4263 2741 4089 2478  Q 3916 2216 3909 1719  L 3909 0  L 2784 0  L 2784 1825  Q 2784 2406 2684 2573  Q 2584 2741 2328 2741  Q 2006 2741 1831 2477  Q 1656 2213 1656 1722  L 1656 0  L 531 0  L 531 3500  L 1656 3500  L 1656 2988  Q 1863 3284 2130 3434  Q 2397 3584 2719 3584  Q 3081 3584 3359 3409  Q 3638 3234 3781 2919  z "
               transform="scale(0.015625)" />
          </defs>
          <use
             xlink:href="#DejaVuSans-Bold-53"
             id="use608" />
          <use
             xlink:href="#DejaVuSans-Bold-75"
             x="72.021484"
             id="use610" />
          <use
             xlink:href="#DejaVuSans-Bold-73"
             x="143.212891"
             id="use612" />
          <use
             xlink:href="#DejaVuSans-Bold-74"
             x="202.734375"
             id="use614" />
          <use
             xlink:href="#DejaVuSans-Bold-61"
             x="250.537109"
             id="use616" />
          <use
             xlink:href="#DejaVuSans-Bold-69"
             x="318.017578"
             id="use618" />
          <use
             xlink:href="#DejaVuSans-Bold-6e"
             x="352.294922"
             id="use620" />
          <use
             xlink:href="#DejaVuSans-Bold-61"
             x="423.486328"
             id="use622" />
          <use
             xlink:href="#DejaVuSans-Bold-62"
             x="490.966797"
             id="use624" />
          <use
             xlink:href="#DejaVuSans-Bold-69"
             x="562.548828"
             id="use626" />
          <use
             xlink:href="#DejaVuSans-Bold-6c"
             x="596.826172"
             id="use628" />
          <use
             xlink:href="#DejaVuSans-Bold-69"
             x="631.103516"
             id="use630" />
          <use
             xlink:href="#DejaVuSans-Bold-74"
             x="665.380859"
             id="use632" />
          <use
             xlink:href="#DejaVuSans-Bold-79"
             x="713.183594"
             id="use634" />
          <use
             xlink:href="#DejaVuSans-Bold-20"
             x="778.369141"
             id="use636" />
          <use
             xlink:href="#DejaVuSans-Bold-53"
             x="813.183594"
             id="use638" />
          <use
             xlink:href="#DejaVuSans-Bold-63"
             x="885.205078"
             id="use640" />
          <use
             xlink:href="#DejaVuSans-Bold-69"
             x="944.482422"
             id="use642" />
          <use
             xlink:href="#DejaVuSans-Bold-65"
             x="978.759766"
             id="use644" />
          <use
             xlink:href="#DejaVuSans-Bold-6e"
             x="1046.582031"
             id="use646" />
          <use
             xlink:href="#DejaVuSans-Bold-63"
             x="1117.773438"
             id="use648" />
          <use
             xlink:href="#DejaVuSans-Bold-65"
             x="1177.050781"
             id="use650" />
          <use
             xlink:href="#DejaVuSans-Bold-20"
             x="1244.873047"
             id="use652" />
          <use
             xlink:href="#DejaVuSans-Bold-43"
             x="1279.6875"
             id="use654" />
          <use
             xlink:href="#DejaVuSans-Bold-6f"
             x="1353.076172"
             id="use656" />
          <use
             xlink:href="#DejaVuSans-Bold-6d"
             x="1421.777344"
             id="use658" />
          <use
             xlink:href="#DejaVuSans-Bold-6d"
             x="1525.976562"
             id="use660" />
          <use
             xlink:href="#DejaVuSans-Bold-75"
             x="1630.175781"
             id="use662" />
          <use
             xlink:href="#DejaVuSans-Bold-6e"
             x="1701.367188"
             id="use664" />
          <use
             xlink:href="#DejaVuSans-Bold-69"
             x="1772.558594"
             id="use666" />
          <use
             xlink:href="#DejaVuSans-Bold-63"
             x="1806.835938"
             id="use668" />
          <use
             xlink:href="#DejaVuSans-Bold-61"
             x="1866.113281"
             id="use670" />
          <use
             xlink:href="#DejaVuSans-Bold-74"
             x="1933.59375"
             id="use672" />
          <use
             xlink:href="#DejaVuSans-Bold-69"
             x="1981.396484"
             id="use674" />
          <use
             xlink:href="#DejaVuSans-Bold-6f"
             x="2015.673828"
             id="use676" />
          <use
             xlink:href="#DejaVuSans-Bold-6e"
             x="2084.375"
             id="use678" />
        </g>
      </g>
    </g>
  </g>
  <defs
     id="defs688">
    <clipPath
       id="p9a30744305">
      <path
         d="M 826.825224 454  C 826.825224 401.577536 816.499141 349.664815 796.437933 301.232774  C 776.376725 252.800733 746.97053 208.791253 709.902251 171.722973  C 672.833971 134.654693 628.824491 105.248499 580.39245 85.187291  C 531.960409 65.126082 480.047687 54.8 427.625224 54.8  C 375.20276 54.8 323.290039 65.126082 274.857997 85.187291  C 226.425956 105.248499 182.416476 134.654693 145.348197 171.722973  C 108.279917 208.791253 78.873723 252.800733 58.812514 301.232774  C 38.751306 349.664815 28.425224 401.577536 28.425224 454  C 28.425224 506.422464 38.751306 558.335185 58.812514 606.767226  C 78.873723 655.199267 108.279917 699.208747 145.348197 736.277027  C 182.416476 773.345307 226.425956 802.751501 274.857997 822.812709  C 323.290039 842.873918 375.20276 853.2 427.625224 853.2  C 480.047687 853.2 531.960409 842.873918 580.39245 822.812709  C 628.824491 802.751501 672.833971 773.345307 709.902251 736.277027  C 746.97053 699.208747 776.376725 655.199267 796.437933 606.767226  C 816.499141 558.335185 826.825224 506.422464 826.825224 454  M 427.625224 454  C 427.625224 454 427.625224 454 427.625224 454  C 427.625224 454 427.625224 454 427.625224 454  C 427.625224 454 427.625224 454 427.625224 454  C 427.625224 454 427.625224 454 427.625224 454  C 427.625224 454 427.625224 454 427.625224 454  C 427.625224 454 427.625224 454 427.625224 454  C 427.625224 454 427.625224 454 427.625224 454  C 427.625224 454 427.625224 454 427.625224 454  C 427.625224 454 427.625224 454 427.625224 454  C 427.625224 454 427.625224 454 427.625224 454  C 427.625224 454 427.625224 454 427.625224 454  C 427.625224 454 427.625224 454 427.625224 454  C 427.625224 454 427.625224 454 427.625224 454  C 427.625224 454 427.625224 454 427.625224 454  C 427.625224 454 427.625224 454 427.625224 454  C 427.625224 454 427.625224 454 427.625224 454  z "
         id="path685" />
    </clipPath>
  </defs>
</svg>
