<?xml version="1.0" encoding="UTF-8" standalone="no"?>
<svg
   xmlns:dc="http://purl.org/dc/elements/1.1/"
   xmlns:cc="http://creativecommons.org/ns#"
   xmlns:rdf="http://www.w3.org/1999/02/22-rdf-syntax-ns#"
   xmlns:svg="http://www.w3.org/2000/svg"
   xmlns="http://www.w3.org/2000/svg"
   xmlns:xlink="http://www.w3.org/1999/xlink"
   xmlns:sodipodi="http://sodipodi.sourceforge.net/DTD/sodipodi-0.dtd"
   xmlns:inkscape="http://www.inkscape.org/namespaces/inkscape"
   width="864pt"
   height="864pt"
   viewBox="0 0 864 864"
   version="1.1"
   id="svg536"
   sodipodi:docname="urban_planet_clockwork.svg"
   inkscape:export-filename="/home/erikz/SRC/AI/Deep_mind_roundtable/Lit search/lit_review_deepmind/plots/final_new/urban_planet_clockwork.png"
   inkscape:export-xdpi="96"
   inkscape:export-ydpi="96"
   inkscape:version="0.92.5 (2060ec1f9f, 2020-04-08)">
  <sodipodi:namedview
     pagecolor="#ffffff"
     bordercolor="#666666"
     borderopacity="1"
     objecttolerance="10"
     gridtolerance="10"
     guidetolerance="10"
     inkscape:pageopacity="0"
     inkscape:pageshadow="2"
     inkscape:window-width="778"
     inkscape:window-height="480"
     id="namedview538"
     showgrid="false"
     inkscape:zoom="0.20486111"
     inkscape:cx="576"
     inkscape:cy="576"
     inkscape:window-x="72"
     inkscape:window-y="27"
     inkscape:window-maximized="0"
     inkscape:current-layer="svg536" />
  <metadata
     id="metadata2">
    <rdf:RDF>
      <cc:Work>
        <dc:type
           rdf:resource="http://purl.org/dc/dcmitype/StillImage" />
        <dc:date>2025-05-01T14:39:09.822501</dc:date>
        <dc:format>image/svg+xml</dc:format>
        <dc:creator>
          <cc:Agent>
            <dc:title>Matplotlib v3.7.5, https://matplotlib.org/</dc:title>
          </cc:Agent>
        </dc:creator>
      </cc:Work>
    </rdf:RDF>
  </metadata>
  <defs
     id="defs6">
    <style
       type="text/css"
       id="style4">*{stroke-linejoin: round; stroke-linecap: butt}</style>
  </defs>
  <g
     id="figure_1">
    <g
       id="patch_1">
      <path
         d="M 0 864  L 864 864  L 864 0  L 0 0  L 0 864  z "
         style="fill: none"
         id="path8" />
    </g>
    <g
       id="axes_1">
      <g
         id="PathCollection_1">
        <path
           d="M 411.406471 244.780911  C 428.766614 244.780911 445.418068 237.883653 457.693543 225.608178  C 469.969018 213.332703 476.866276 196.681249 476.866276 179.321106  C 476.866276 161.960963 469.969018 145.309509 457.693543 133.034034  C 445.418068 120.758559 428.766614 113.861301 411.406471 113.861301  C 394.046328 113.861301 377.394874 120.758559 365.119399 133.034034  C 352.843924 145.309509 345.946666 161.960963 345.946666 179.321106  C 345.946666 196.681249 352.843924 213.332703 365.119399 225.608178  C 377.394874 237.883653 394.046328 244.780911 411.406471 244.780911  z "
           clip-path="url(#p3f1699f90c)"
           style="fill: #4682b4; fill-opacity: 0.85; stroke: #ffffff; stroke-opacity: 0.85; stroke-width: 1.5"
           id="path11" />
        <path
           d="M 548.745918 270.140513  C 563.072034 270.140513 576.813318 264.448687 586.943412 254.318594  C 597.073505 244.1885 602.765331 230.447216 602.765331 216.1211  C 602.765331 201.794984 597.073505 188.0537 586.943412 177.923606  C 576.813318 167.793513 563.072034 162.101687 548.745918 162.101687  C 534.419802 162.101687 520.678518 167.793513 510.548424 177.923606  C 500.418331 188.0537 494.726505 201.794984 494.726505 216.1211  C 494.726505 230.447216 500.418331 244.1885 510.548424 254.318594  C 520.678518 264.448687 534.419802 270.140513 548.745918 270.140513  z "
           clip-path="url(#p3f1699f90c)"
           style="fill: #4682b4; fill-opacity: 0.85; stroke: #ffffff; stroke-opacity: 0.85; stroke-width: 1.5"
           id="path13" />
        <path
           d="M 649.285371 359.983232  C 660.77468 359.983232 671.794963 355.418481 679.919131 347.294313  C 688.043299 339.170145 692.60805 328.149862 692.60805 316.660553  C 692.60805 305.171244 688.043299 294.150961 679.919131 286.026793  C 671.794963 277.902625 660.77468 273.337874 649.285371 273.337874  C 637.796062 273.337874 626.775779 277.902625 618.651611 286.026793  C 610.527443 294.150961 605.962692 305.171244 605.962692 316.660553  C 605.962692 328.149862 610.527443 339.170145 618.651611 347.294313  C 626.775779 355.418481 637.796062 359.983232 649.285371 359.983232  z "
           clip-path="url(#p3f1699f90c)"
           style="fill: #4682b4; fill-opacity: 0.85; stroke: #ffffff; stroke-opacity: 0.85; stroke-width: 1.5"
           id="path15" />
        <path
           d="M 686.085365 495.170404  C 697.003884 495.170404 707.476678 490.83243 715.197237 483.111872  C 722.917795 475.391313 727.255769 464.918519 727.255769 454  C 727.255769 443.081481 722.917795 432.608687 715.197237 424.888128  C 707.476678 417.16757 697.003884 412.829596 686.085365 412.829596  C 675.166846 412.829596 664.694052 417.16757 656.973493 424.888128  C 649.252935 432.608687 644.914961 443.081481 644.914961 454  C 644.914961 464.918519 649.252935 475.391313 656.973493 483.111872  C 664.694052 490.83243 675.166846 495.170404 686.085365 495.170404  z "
           clip-path="url(#p3f1699f90c)"
           style="fill: #4682b4; fill-opacity: 0.85; stroke: #ffffff; stroke-opacity: 0.85; stroke-width: 1.5"
           id="path17" />
        <path
           d="M 649.285371 630.521714  C 659.67663 630.521714 669.643688 626.393223 676.991418 619.045494  C 684.339147 611.697764 688.467638 601.730706 688.467638 591.339447  C 688.467638 580.948188 684.339147 570.98113 676.991418 563.6334  C 669.643688 556.285671 659.67663 552.15718 649.285371 552.15718  C 638.894112 552.15718 628.927054 556.285671 621.579324 563.6334  C 614.231595 570.98113 610.103104 580.948188 610.103104 591.339447  C 610.103104 601.730706 614.231595 611.697764 621.579324 619.045494  C 628.927054 626.393223 638.894112 630.521714 649.285371 630.521714  z "
           clip-path="url(#p3f1699f90c)"
           style="fill: #4682b4; fill-opacity: 0.85; stroke: #ffffff; stroke-opacity: 0.85; stroke-width: 1.5"
           id="path19" />
        <path
           d="M 548.745918 729.368044  C 558.688155 729.368044 568.224523 725.417952 575.254746 718.387728  C 582.28497 711.357505 586.235062 701.821137 586.235062 691.8789  C 586.235062 681.936663 582.28497 672.400295 575.254746 665.370072  C 568.224523 658.339848 558.688155 654.389756 548.745918 654.389756  C 538.803681 654.389756 529.267313 658.339848 522.23709 665.370072  C 515.206866 672.400295 511.256774 681.936663 511.256774 691.8789  C 511.256774 701.821137 515.206866 711.357505 522.23709 718.387728  C 529.267313 725.417952 538.803681 729.368044 548.745918 729.368044  z "
           clip-path="url(#p3f1699f90c)"
           style="fill: #4682b4; fill-opacity: 0.85; stroke: #ffffff; stroke-opacity: 0.85; stroke-width: 1.5"
           id="path21" />
        <path
           d="M 411.406471 753.769071  C 418.060464 753.769071 424.442822 751.125412 429.147905 746.420328  C 433.852989 741.715245 436.496648 735.332887 436.496648 728.678894  C 436.496648 722.024901 433.852989 715.642543 429.147905 710.937459  C 424.442822 706.232376 418.060464 703.588717 411.406471 703.588717  C 404.752478 703.588717 398.37012 706.232376 393.665037 710.937459  C 388.959953 715.642543 386.316294 722.024901 386.316294 728.678894  C 386.316294 735.332887 388.959953 741.715245 393.665037 746.420328  C 398.37012 751.125412 404.752478 753.769071 411.406471 753.769071  z "
           clip-path="url(#p3f1699f90c)"
           style="fill: #4682b4; fill-opacity: 0.85; stroke: #ffffff; stroke-opacity: 0.85; stroke-width: 1.5"
           id="path23" />
        <path
           d="M 274.067024 716.969077  C 280.721017 716.969077 287.103375 714.325418 291.808459 709.620334  C 296.513542 704.915251 299.157201 698.532893 299.157201 691.8789  C 299.157201 685.224907 296.513542 678.842549 291.808459 674.137466  C 287.103375 669.432382 280.721017 666.788723 274.067024 666.788723  C 267.413031 666.788723 261.030673 669.432382 256.32559 674.137466  C 251.620506 678.842549 248.976847 685.224907 248.976847 691.8789  C 248.976847 698.532893 251.620506 704.915251 256.32559 709.620334  C 261.030673 714.325418 267.413031 716.969077 274.067024 716.969077  z "
           clip-path="url(#p3f1699f90c)"
           style="fill: #4682b4; fill-opacity: 0.85; stroke: #ffffff; stroke-opacity: 0.85; stroke-width: 1.5"
           id="path25" />
        <path
           d="M 173.527571 614.96803  C 179.793944 614.96803 185.804507 612.478374 190.235502 608.047378  C 194.666498 603.616383 197.156154 597.60582 197.156154 591.339447  C 197.156154 585.073073 194.666498 579.062511 190.235502 574.631516  C 185.804507 570.20052 179.793944 567.710864 173.527571 567.710864  C 167.261197 567.710864 161.250635 570.20052 156.81964 574.631516  C 152.388644 579.062511 149.898988 585.073073 149.898988 591.339447  C 149.898988 597.60582 152.388644 603.616383 156.81964 608.047378  C 161.250635 612.478374 167.261197 614.96803 173.527571 614.96803  z "
           clip-path="url(#p3f1699f90c)"
           style="fill: #4682b4; fill-opacity: 0.85; stroke: #ffffff; stroke-opacity: 0.85; stroke-width: 1.5"
           id="path27" />
        <path
           d="M 136.727577 474.159549  C 142.073952 474.159549 147.202073 472.035411 150.982531 468.254954  C 154.762989 464.474496 156.887126 459.346375 156.887126 454  C 156.887126 448.653625 154.762989 443.525504 150.982531 439.745046  C 147.202073 435.964589 142.073952 433.840451 136.727577 433.840451  C 131.381202 433.840451 126.253081 435.964589 122.472624 439.745046  C 118.692166 443.525504 116.568028 448.653625 116.568028 454  C 116.568028 459.346375 118.692166 464.474496 122.472624 468.254954  C 126.253081 472.035411 131.381202 474.159549 136.727577 474.159549  z "
           clip-path="url(#p3f1699f90c)"
           style="fill: #4682b4; fill-opacity: 0.85; stroke: #ffffff; stroke-opacity: 0.85; stroke-width: 1.5"
           id="path29" />
        <path
           d="M 173.527571 334.691057  C 178.309317 334.691057 182.895858 332.79125 186.277063 329.410045  C 189.658268 326.02884 191.558075 321.442299 191.558075 316.660553  C 191.558075 311.878807 189.658268 307.292266 186.277063 303.911061  C 182.895858 300.529856 178.309317 298.630049 173.527571 298.630049  C 168.745825 298.630049 164.159284 300.529856 160.778079 303.911061  C 157.396874 307.292266 155.497067 311.878807 155.497067 316.660553  C 155.497067 321.442299 157.396874 326.02884 160.778079 329.410045  C 164.159284 332.79125 168.745825 334.691057 173.527571 334.691057  z "
           clip-path="url(#p3f1699f90c)"
           style="fill: #4682b4; fill-opacity: 0.85; stroke: #ffffff; stroke-opacity: 0.85; stroke-width: 1.5"
           id="path31" />
        <path
           d="M 274.067024 231.6044  C 278.173243 231.6044 282.111835 229.972982 285.01537 227.069446  C 287.918906 224.165911 289.550324 220.227319 289.550324 216.1211  C 289.550324 212.014881 287.918906 208.076289 285.01537 205.172754  C 282.111835 202.269218 278.173243 200.6378 274.067024 200.6378  C 269.960805 200.6378 266.022213 202.269218 263.118678 205.172754  C 260.215142 208.076289 258.583724 212.014881 258.583724 216.1211  C 258.583724 220.227319 260.215142 224.165911 263.118678 227.069446  C 266.022213 229.972982 269.960805 231.6044 274.067024 231.6044  z "
           clip-path="url(#p3f1699f90c)"
           style="fill: #4682b4; fill-opacity: 0.85; stroke: #ffffff; stroke-opacity: 0.85; stroke-width: 1.5"
           id="path33" />
      </g>
      <g
         id="PathCollection_2">
        <defs
           id="defs37">
          <path
             id="m8e3ccd02f8"
             d="M 0 93.541408  C 24.807471 93.541408 48.602233 83.685295 66.143764 66.143764  C 83.685295 48.602233 93.541408 24.807471 93.541408 0  C 93.541408 -24.807471 83.685295 -48.602233 66.143764 -66.143764  C 48.602233 -83.685295 24.807471 -93.541408 0 -93.541408  C -24.807471 -93.541408 -48.602233 -83.685295 -66.143764 -66.143764  C -83.685295 -48.602233 -93.541408 -24.807471 -93.541408 0  C -93.541408 24.807471 -83.685295 48.602233 -66.143764 66.143764  C -48.602233 83.685295 -24.807471 93.541408 0 93.541408  z "
             style="stroke: #ffffff; stroke-opacity: 0.92; stroke-width: 2" />
        </defs>
        <g
           clip-path="url(#p3f1699f90c)"
           id="g41">
          <use
             xlink:href="#m8e3ccd02f8"
             x="411.406471"
             y="454"
             style="fill: #2a5f7f; fill-opacity: 0.92; stroke: #ffffff; stroke-opacity: 0.92; stroke-width: 2"
             id="use39" />
        </g>
      </g>
      <g
         id="text_1">
        <g
           id="patch_2">
          <path
             d="M 351.544347 100.818827  L 471.268595 100.818827  L 471.268595 82.028895  L 351.544347 82.028895  z "
             style="fill: #ffffff; opacity: 0.78"
             id="path44" />
        </g>
        <!-- neural network -->
        <g
           style="fill: #333333"
           transform="translate(353.533813 95.646694) scale(0.153036 -0.153036)"
           id="g88">
          <defs
             id="defs58">
            <path
               id="DejaVuSans-6e"
               d="M 3513 2113  L 3513 0  L 2938 0  L 2938 2094  Q 2938 2591 2744 2837  Q 2550 3084 2163 3084  Q 1697 3084 1428 2787  Q 1159 2491 1159 1978  L 1159 0  L 581 0  L 581 3500  L 1159 3500  L 1159 2956  Q 1366 3272 1645 3428  Q 1925 3584 2291 3584  Q 2894 3584 3203 3211  Q 3513 2838 3513 2113  z "
               transform="scale(0.015625)" />
            <path
               id="DejaVuSans-65"
               d="M 3597 1894  L 3597 1613  L 953 1613  Q 991 1019 1311 708  Q 1631 397 2203 397  Q 2534 397 2845 478  Q 3156 559 3463 722  L 3463 178  Q 3153 47 2828 -22  Q 2503 -91 2169 -91  Q 1331 -91 842 396  Q 353 884 353 1716  Q 353 2575 817 3079  Q 1281 3584 2069 3584  Q 2775 3584 3186 3129  Q 3597 2675 3597 1894  z M 3022 2063  Q 3016 2534 2758 2815  Q 2500 3097 2075 3097  Q 1594 3097 1305 2825  Q 1016 2553 972 2059  L 3022 2063  z "
               transform="scale(0.015625)" />
            <path
               id="DejaVuSans-75"
               d="M 544 1381  L 544 3500  L 1119 3500  L 1119 1403  Q 1119 906 1312 657  Q 1506 409 1894 409  Q 2359 409 2629 706  Q 2900 1003 2900 1516  L 2900 3500  L 3475 3500  L 3475 0  L 2900 0  L 2900 538  Q 2691 219 2414 64  Q 2138 -91 1772 -91  Q 1169 -91 856 284  Q 544 659 544 1381  z M 1991 3584  L 1991 3584  z "
               transform="scale(0.015625)" />
            <path
               id="DejaVuSans-72"
               d="M 2631 2963  Q 2534 3019 2420 3045  Q 2306 3072 2169 3072  Q 1681 3072 1420 2755  Q 1159 2438 1159 1844  L 1159 0  L 581 0  L 581 3500  L 1159 3500  L 1159 2956  Q 1341 3275 1631 3429  Q 1922 3584 2338 3584  Q 2397 3584 2469 3576  Q 2541 3569 2628 3553  L 2631 2963  z "
               transform="scale(0.015625)" />
            <path
               id="DejaVuSans-61"
               d="M 2194 1759  Q 1497 1759 1228 1600  Q 959 1441 959 1056  Q 959 750 1161 570  Q 1363 391 1709 391  Q 2188 391 2477 730  Q 2766 1069 2766 1631  L 2766 1759  L 2194 1759  z M 3341 1997  L 3341 0  L 2766 0  L 2766 531  Q 2569 213 2275 61  Q 1981 -91 1556 -91  Q 1019 -91 701 211  Q 384 513 384 1019  Q 384 1609 779 1909  Q 1175 2209 1959 2209  L 2766 2209  L 2766 2266  Q 2766 2663 2505 2880  Q 2244 3097 1772 3097  Q 1472 3097 1187 3025  Q 903 2953 641 2809  L 641 3341  Q 956 3463 1253 3523  Q 1550 3584 1831 3584  Q 2591 3584 2966 3190  Q 3341 2797 3341 1997  z "
               transform="scale(0.015625)" />
            <path
               id="DejaVuSans-6c"
               d="M 603 4863  L 1178 4863  L 1178 0  L 603 0  L 603 4863  z "
               transform="scale(0.015625)" />
            <path
               id="DejaVuSans-20"
               transform="scale(0.015625)" />
            <path
               id="DejaVuSans-74"
               d="M 1172 4494  L 1172 3500  L 2356 3500  L 2356 3053  L 1172 3053  L 1172 1153  Q 1172 725 1289 603  Q 1406 481 1766 481  L 2356 481  L 2356 0  L 1766 0  Q 1100 0 847 248  Q 594 497 594 1153  L 594 3053  L 172 3053  L 172 3500  L 594 3500  L 594 4494  L 1172 4494  z "
               transform="scale(0.015625)" />
            <path
               id="DejaVuSans-77"
               d="M 269 3500  L 844 3500  L 1563 769  L 2278 3500  L 2956 3500  L 3675 769  L 4391 3500  L 4966 3500  L 4050 0  L 3372 0  L 2619 2869  L 1863 0  L 1184 0  L 269 3500  z "
               transform="scale(0.015625)" />
            <path
               id="DejaVuSans-6f"
               d="M 1959 3097  Q 1497 3097 1228 2736  Q 959 2375 959 1747  Q 959 1119 1226 758  Q 1494 397 1959 397  Q 2419 397 2687 759  Q 2956 1122 2956 1747  Q 2956 2369 2687 2733  Q 2419 3097 1959 3097  z M 1959 3584  Q 2709 3584 3137 3096  Q 3566 2609 3566 1747  Q 3566 888 3137 398  Q 2709 -91 1959 -91  Q 1206 -91 779 398  Q 353 888 353 1747  Q 353 2609 779 3096  Q 1206 3584 1959 3584  z "
               transform="scale(0.015625)" />
            <path
               id="DejaVuSans-6b"
               d="M 581 4863  L 1159 4863  L 1159 1991  L 2875 3500  L 3609 3500  L 1753 1863  L 3688 0  L 2938 0  L 1159 1709  L 1159 0  L 581 0  L 581 4863  z "
               transform="scale(0.015625)" />
          </defs>
          <use
             xlink:href="#DejaVuSans-6e"
             id="use60" />
          <use
             xlink:href="#DejaVuSans-65"
             x="63.378906"
             id="use62" />
          <use
             xlink:href="#DejaVuSans-75"
             x="124.902344"
             id="use64" />
          <use
             xlink:href="#DejaVuSans-72"
             x="188.28125"
             id="use66" />
          <use
             xlink:href="#DejaVuSans-61"
             x="229.394531"
             id="use68" />
          <use
             xlink:href="#DejaVuSans-6c"
             x="290.673828"
             id="use70" />
          <use
             xlink:href="#DejaVuSans-20"
             x="318.457031"
             id="use72" />
          <use
             xlink:href="#DejaVuSans-6e"
             x="350.244141"
             id="use74" />
          <use
             xlink:href="#DejaVuSans-65"
             x="413.623047"
             id="use76" />
          <use
             xlink:href="#DejaVuSans-74"
             x="475.146484"
             id="use78" />
          <use
             xlink:href="#DejaVuSans-77"
             x="514.355469"
             id="use80" />
          <use
             xlink:href="#DejaVuSans-6f"
             x="596.142578"
             id="use82" />
          <use
             xlink:href="#DejaVuSans-72"
             x="657.324219"
             id="use84" />
          <use
             xlink:href="#DejaVuSans-6b"
             x="698.4375"
             id="use86" />
        </g>
      </g>
      <g
         id="text_2">
        <g
           id="patch_3">
          <path
             d="M 539.762132 148.977621  L 645.626949 148.977621  L 645.626949 131.022085  L 539.762132 131.022085  z "
             style="fill: #ffffff; opacity: 0.78"
             id="path91" />
        </g>
        <!-- random forest -->
        <g
           style="fill: #333333"
           transform="translate(541.776678 143.970486) scale(0.143896 -0.143896)"
           id="g126">
          <defs
             id="defs98">
            <path
               id="DejaVuSans-64"
               d="M 2906 2969  L 2906 4863  L 3481 4863  L 3481 0  L 2906 0  L 2906 525  Q 2725 213 2448 61  Q 2172 -91 1784 -91  Q 1150 -91 751 415  Q 353 922 353 1747  Q 353 2572 751 3078  Q 1150 3584 1784 3584  Q 2172 3584 2448 3432  Q 2725 3281 2906 2969  z M 947 1747  Q 947 1113 1208 752  Q 1469 391 1925 391  Q 2381 391 2643 752  Q 2906 1113 2906 1747  Q 2906 2381 2643 2742  Q 2381 3103 1925 3103  Q 1469 3103 1208 2742  Q 947 2381 947 1747  z "
               transform="scale(0.015625)" />
            <path
               id="DejaVuSans-6d"
               d="M 3328 2828  Q 3544 3216 3844 3400  Q 4144 3584 4550 3584  Q 5097 3584 5394 3201  Q 5691 2819 5691 2113  L 5691 0  L 5113 0  L 5113 2094  Q 5113 2597 4934 2840  Q 4756 3084 4391 3084  Q 3944 3084 3684 2787  Q 3425 2491 3425 1978  L 3425 0  L 2847 0  L 2847 2094  Q 2847 2600 2669 2842  Q 2491 3084 2119 3084  Q 1678 3084 1418 2786  Q 1159 2488 1159 1978  L 1159 0  L 581 0  L 581 3500  L 1159 3500  L 1159 2956  Q 1356 3278 1631 3431  Q 1906 3584 2284 3584  Q 2666 3584 2933 3390  Q 3200 3197 3328 2828  z "
               transform="scale(0.015625)" />
            <path
               id="DejaVuSans-66"
               d="M 2375 4863  L 2375 4384  L 1825 4384  Q 1516 4384 1395 4259  Q 1275 4134 1275 3809  L 1275 3500  L 2222 3500  L 2222 3053  L 1275 3053  L 1275 0  L 697 0  L 697 3053  L 147 3053  L 147 3500  L 697 3500  L 697 3744  Q 697 4328 969 4595  Q 1241 4863 1831 4863  L 2375 4863  z "
               transform="scale(0.015625)" />
            <path
               id="DejaVuSans-73"
               d="M 2834 3397  L 2834 2853  Q 2591 2978 2328 3040  Q 2066 3103 1784 3103  Q 1356 3103 1142 2972  Q 928 2841 928 2578  Q 928 2378 1081 2264  Q 1234 2150 1697 2047  L 1894 2003  Q 2506 1872 2764 1633  Q 3022 1394 3022 966  Q 3022 478 2636 193  Q 2250 -91 1575 -91  Q 1294 -91 989 -36  Q 684 19 347 128  L 347 722  Q 666 556 975 473  Q 1284 391 1588 391  Q 1994 391 2212 530  Q 2431 669 2431 922  Q 2431 1156 2273 1281  Q 2116 1406 1581 1522  L 1381 1569  Q 847 1681 609 1914  Q 372 2147 372 2553  Q 372 3047 722 3315  Q 1072 3584 1716 3584  Q 2034 3584 2315 3537  Q 2597 3491 2834 3397  z "
               transform="scale(0.015625)" />
          </defs>
          <use
             xlink:href="#DejaVuSans-72"
             id="use100" />
          <use
             xlink:href="#DejaVuSans-61"
             x="41.113281"
             id="use102" />
          <use
             xlink:href="#DejaVuSans-6e"
             x="102.392578"
             id="use104" />
          <use
             xlink:href="#DejaVuSans-64"
             x="165.771484"
             id="use106" />
          <use
             xlink:href="#DejaVuSans-6f"
             x="229.248047"
             id="use108" />
          <use
             xlink:href="#DejaVuSans-6d"
             x="290.429688"
             id="use110" />
          <use
             xlink:href="#DejaVuSans-20"
             x="387.841797"
             id="use112" />
          <use
             xlink:href="#DejaVuSans-66"
             x="419.628906"
             id="use114" />
          <use
             xlink:href="#DejaVuSans-6f"
             x="454.833984"
             id="use116" />
          <use
             xlink:href="#DejaVuSans-72"
             x="516.015625"
             id="use118" />
          <use
             xlink:href="#DejaVuSans-65"
             x="554.878906"
             id="use120" />
          <use
             xlink:href="#DejaVuSans-73"
             x="616.402344"
             id="use122" />
          <use
             xlink:href="#DejaVuSans-74"
             x="668.501953"
             id="use124" />
        </g>
      </g>
      <g
         id="text_3">
        <g
           id="patch_4">
          <path
             d="M 688.331902 281.24571  L 762.481335 281.24571  L 762.481335 264.178151  L 688.331902 264.178151  z "
             style="fill: #ffffff; opacity: 0.78"
             id="path129" />
        </g>
        <!-- regression -->
        <g
           style="fill: #333333"
           transform="translate(690.351234 276.426659) scale(0.134622 -0.134622)"
           id="g156">
          <defs
             id="defs134">
            <path
               id="DejaVuSans-67"
               d="M 2906 1791  Q 2906 2416 2648 2759  Q 2391 3103 1925 3103  Q 1463 3103 1205 2759  Q 947 2416 947 1791  Q 947 1169 1205 825  Q 1463 481 1925 481  Q 2391 481 2648 825  Q 2906 1169 2906 1791  z M 3481 434  Q 3481 -459 3084 -895  Q 2688 -1331 1869 -1331  Q 1566 -1331 1297 -1286  Q 1028 -1241 775 -1147  L 775 -588  Q 1028 -725 1275 -790  Q 1522 -856 1778 -856  Q 2344 -856 2625 -561  Q 2906 -266 2906 331  L 2906 616  Q 2728 306 2450 153  Q 2172 0 1784 0  Q 1141 0 747 490  Q 353 981 353 1791  Q 353 2603 747 3093  Q 1141 3584 1784 3584  Q 2172 3584 2450 3431  Q 2728 3278 2906 2969  L 2906 3500  L 3481 3500  L 3481 434  z "
               transform="scale(0.015625)" />
            <path
               id="DejaVuSans-69"
               d="M 603 3500  L 1178 3500  L 1178 0  L 603 0  L 603 3500  z M 603 4863  L 1178 4863  L 1178 4134  L 603 4134  L 603 4863  z "
               transform="scale(0.015625)" />
          </defs>
          <use
             xlink:href="#DejaVuSans-72"
             id="use136" />
          <use
             xlink:href="#DejaVuSans-65"
             x="38.863281"
             id="use138" />
          <use
             xlink:href="#DejaVuSans-67"
             x="100.386719"
             id="use140" />
          <use
             xlink:href="#DejaVuSans-72"
             x="163.863281"
             id="use142" />
          <use
             xlink:href="#DejaVuSans-65"
             x="202.726562"
             id="use144" />
          <use
             xlink:href="#DejaVuSans-73"
             x="264.25"
             id="use146" />
          <use
             xlink:href="#DejaVuSans-73"
             x="316.349609"
             id="use148" />
          <use
             xlink:href="#DejaVuSans-69"
             x="368.449219"
             id="use150" />
          <use
             xlink:href="#DejaVuSans-6f"
             x="396.232422"
             id="use152" />
          <use
             xlink:href="#DejaVuSans-6e"
             x="457.414062"
             id="use154" />
        </g>
      </g>
      <g
         id="text_4">
        <g
           id="patch_5">
          <path
             d="M 692.751724 462.410844  L 855.213496 462.410844  L 855.213496 445.589156  L 692.751724 445.589156  z "
             style="fill: #ffffff; opacity: 0.78"
             id="path159" />
        </g>
        <!-- support vector machine -->
        <g
           style="fill: #333333"
           transform="translate(694.741966 457.661215) scale(0.132683 -0.132683)"
           id="g212">
          <defs
             id="defs166">
            <path
               id="DejaVuSans-70"
               d="M 1159 525  L 1159 -1331  L 581 -1331  L 581 3500  L 1159 3500  L 1159 2969  Q 1341 3281 1617 3432  Q 1894 3584 2278 3584  Q 2916 3584 3314 3078  Q 3713 2572 3713 1747  Q 3713 922 3314 415  Q 2916 -91 2278 -91  Q 1894 -91 1617 61  Q 1341 213 1159 525  z M 3116 1747  Q 3116 2381 2855 2742  Q 2594 3103 2138 3103  Q 1681 3103 1420 2742  Q 1159 2381 1159 1747  Q 1159 1113 1420 752  Q 1681 391 2138 391  Q 2594 391 2855 752  Q 3116 1113 3116 1747  z "
               transform="scale(0.015625)" />
            <path
               id="DejaVuSans-76"
               d="M 191 3500  L 800 3500  L 1894 563  L 2988 3500  L 3597 3500  L 2284 0  L 1503 0  L 191 3500  z "
               transform="scale(0.015625)" />
            <path
               id="DejaVuSans-63"
               d="M 3122 3366  L 3122 2828  Q 2878 2963 2633 3030  Q 2388 3097 2138 3097  Q 1578 3097 1268 2742  Q 959 2388 959 1747  Q 959 1106 1268 751  Q 1578 397 2138 397  Q 2388 397 2633 464  Q 2878 531 3122 666  L 3122 134  Q 2881 22 2623 -34  Q 2366 -91 2075 -91  Q 1284 -91 818 406  Q 353 903 353 1747  Q 353 2603 823 3093  Q 1294 3584 2113 3584  Q 2378 3584 2631 3529  Q 2884 3475 3122 3366  z "
               transform="scale(0.015625)" />
            <path
               id="DejaVuSans-68"
               d="M 3513 2113  L 3513 0  L 2938 0  L 2938 2094  Q 2938 2591 2744 2837  Q 2550 3084 2163 3084  Q 1697 3084 1428 2787  Q 1159 2491 1159 1978  L 1159 0  L 581 0  L 581 4863  L 1159 4863  L 1159 2956  Q 1366 3272 1645 3428  Q 1925 3584 2291 3584  Q 2894 3584 3203 3211  Q 3513 2838 3513 2113  z "
               transform="scale(0.015625)" />
          </defs>
          <use
             xlink:href="#DejaVuSans-73"
             id="use168" />
          <use
             xlink:href="#DejaVuSans-75"
             x="52.099609"
             id="use170" />
          <use
             xlink:href="#DejaVuSans-70"
             x="115.478516"
             id="use172" />
          <use
             xlink:href="#DejaVuSans-70"
             x="178.955078"
             id="use174" />
          <use
             xlink:href="#DejaVuSans-6f"
             x="242.431641"
             id="use176" />
          <use
             xlink:href="#DejaVuSans-72"
             x="303.613281"
             id="use178" />
          <use
             xlink:href="#DejaVuSans-74"
             x="344.726562"
             id="use180" />
          <use
             xlink:href="#DejaVuSans-20"
             x="383.935547"
             id="use182" />
          <use
             xlink:href="#DejaVuSans-76"
             x="415.722656"
             id="use184" />
          <use
             xlink:href="#DejaVuSans-65"
             x="474.902344"
             id="use186" />
          <use
             xlink:href="#DejaVuSans-63"
             x="536.425781"
             id="use188" />
          <use
             xlink:href="#DejaVuSans-74"
             x="591.40625"
             id="use190" />
          <use
             xlink:href="#DejaVuSans-6f"
             x="630.615234"
             id="use192" />
          <use
             xlink:href="#DejaVuSans-72"
             x="691.796875"
             id="use194" />
          <use
             xlink:href="#DejaVuSans-20"
             x="732.910156"
             id="use196" />
          <use
             xlink:href="#DejaVuSans-6d"
             x="764.697266"
             id="use198" />
          <use
             xlink:href="#DejaVuSans-61"
             x="862.109375"
             id="use200" />
          <use
             xlink:href="#DejaVuSans-63"
             x="923.388672"
             id="use202" />
          <use
             xlink:href="#DejaVuSans-68"
             x="978.369141"
             id="use204" />
          <use
             xlink:href="#DejaVuSans-69"
             x="1041.748047"
             id="use206" />
          <use
             xlink:href="#DejaVuSans-6e"
             x="1069.53125"
             id="use208" />
          <use
             xlink:href="#DejaVuSans-65"
             x="1132.910156"
             id="use210" />
        </g>
      </g>
      <g
         id="text_5">
        <g
           id="patch_6">
          <path
             d="M 709.083891 643.58388  L 741.729346 643.58388  L 741.729346 626.992259  L 709.083891 626.992259  z "
             style="fill: #ffffff; opacity: 0.78"
             id="path215" />
        </g>
        <!-- CNN -->
        <g
           style="fill: #333333"
           transform="translate(711.046912 638.899211) scale(0.130868 -0.130868)"
           id="g228">
          <defs
             id="defs220">
            <path
               id="DejaVuSans-43"
               d="M 4122 4306  L 4122 3641  Q 3803 3938 3442 4084  Q 3081 4231 2675 4231  Q 1875 4231 1450 3742  Q 1025 3253 1025 2328  Q 1025 1406 1450 917  Q 1875 428 2675 428  Q 3081 428 3442 575  Q 3803 722 4122 1019  L 4122 359  Q 3791 134 3420 21  Q 3050 -91 2638 -91  Q 1578 -91 968 557  Q 359 1206 359 2328  Q 359 3453 968 4101  Q 1578 4750 2638 4750  Q 3056 4750 3426 4639  Q 3797 4528 4122 4306  z "
               transform="scale(0.015625)" />
            <path
               id="DejaVuSans-4e"
               d="M 628 4666  L 1478 4666  L 3547 763  L 3547 4666  L 4159 4666  L 4159 0  L 3309 0  L 1241 3903  L 1241 0  L 628 0  L 628 4666  z "
               transform="scale(0.015625)" />
          </defs>
          <use
             xlink:href="#DejaVuSans-43"
             id="use222" />
          <use
             xlink:href="#DejaVuSans-4e"
             x="69.824219"
             id="use224" />
          <use
             xlink:href="#DejaVuSans-4e"
             x="144.628906"
             id="use226" />
        </g>
      </g>
      <g
         id="text_6">
        <g
           id="patch_7">
          <path
             d="M 576.658867 776.196787  L 608.730214 776.196787  L 608.730214 759.803508  L 576.658867 759.803508  z "
             style="fill: #ffffff; opacity: 0.78"
             id="path231" />
        </g>
        <!-- ANN -->
        <g
           style="fill: #333333"
           transform="translate(578.598422 771.56812) scale(0.129304 -0.129304)"
           id="g243">
          <defs
             id="defs235">
            <path
               id="DejaVuSans-41"
               d="M 2188 4044  L 1331 1722  L 3047 1722  L 2188 4044  z M 1831 4666  L 2547 4666  L 4325 0  L 3669 0  L 3244 1197  L 1141 1197  L 716 0  L 50 0  L 1831 4666  z "
               transform="scale(0.015625)" />
          </defs>
          <use
             xlink:href="#DejaVuSans-41"
             id="use237" />
          <use
             xlink:href="#DejaVuSans-4e"
             x="68.408203"
             id="use239" />
          <use
             xlink:href="#DejaVuSans-4e"
             x="143.212891"
             id="use241" />
        </g>
      </g>
      <g
         id="text_7">
        <g
           id="patch_8">
          <path
             d="M 351.764097 824.227637  L 471.048846 824.227637  L 471.048846 808.924641  L 351.764097 808.924641  z "
             style="fill: #ffffff; opacity: 0.78"
             id="path246" />
        </g>
        <!-- supervised learning -->
        <g
           style="fill: #333333"
           transform="translate(353.753303 819.804943) scale(0.117012 -0.117012)"
           id="g287">
          <use
             xlink:href="#DejaVuSans-73"
             id="use249" />
          <use
             xlink:href="#DejaVuSans-75"
             x="52.099609"
             id="use251" />
          <use
             xlink:href="#DejaVuSans-70"
             x="115.478516"
             id="use253" />
          <use
             xlink:href="#DejaVuSans-65"
             x="178.955078"
             id="use255" />
          <use
             xlink:href="#DejaVuSans-72"
             x="240.478516"
             id="use257" />
          <use
             xlink:href="#DejaVuSans-76"
             x="281.591797"
             id="use259" />
          <use
             xlink:href="#DejaVuSans-69"
             x="340.771484"
             id="use261" />
          <use
             xlink:href="#DejaVuSans-73"
             x="368.554688"
             id="use263" />
          <use
             xlink:href="#DejaVuSans-65"
             x="420.654297"
             id="use265" />
          <use
             xlink:href="#DejaVuSans-64"
             x="482.177734"
             id="use267" />
          <use
             xlink:href="#DejaVuSans-20"
             x="545.654297"
             id="use269" />
          <use
             xlink:href="#DejaVuSans-6c"
             x="577.441406"
             id="use271" />
          <use
             xlink:href="#DejaVuSans-65"
             x="605.224609"
             id="use273" />
          <use
             xlink:href="#DejaVuSans-61"
             x="666.748047"
             id="use275" />
          <use
             xlink:href="#DejaVuSans-72"
             x="728.027344"
             id="use277" />
          <use
             xlink:href="#DejaVuSans-6e"
             x="767.390625"
             id="use279" />
          <use
             xlink:href="#DejaVuSans-69"
             x="830.769531"
             id="use281" />
          <use
             xlink:href="#DejaVuSans-6e"
             x="858.552734"
             id="use283" />
          <use
             xlink:href="#DejaVuSans-67"
             x="921.931641"
             id="use285" />
        </g>
      </g>
      <g
         id="text_8">
        <g
           id="patch_9">
          <path
             d="M 177.259075 775.651645  L 282.977728 775.651645  L 282.977728 760.348649  L 177.259075 760.348649  z "
             style="fill: #ffffff; opacity: 0.78"
             id="path290" />
        </g>
        <!-- machine learning -->
        <g
           style="fill: #333333"
           transform="translate(179.248282 771.228951) scale(0.117012 -0.117012)"
           id="g325">
          <use
             xlink:href="#DejaVuSans-6d"
             id="use293" />
          <use
             xlink:href="#DejaVuSans-61"
             x="97.412109"
             id="use295" />
          <use
             xlink:href="#DejaVuSans-63"
             x="158.691406"
             id="use297" />
          <use
             xlink:href="#DejaVuSans-68"
             x="213.671875"
             id="use299" />
          <use
             xlink:href="#DejaVuSans-69"
             x="277.050781"
             id="use301" />
          <use
             xlink:href="#DejaVuSans-6e"
             x="304.833984"
             id="use303" />
          <use
             xlink:href="#DejaVuSans-65"
             x="368.212891"
             id="use305" />
          <use
             xlink:href="#DejaVuSans-20"
             x="429.736328"
             id="use307" />
          <use
             xlink:href="#DejaVuSans-6c"
             x="461.523438"
             id="use309" />
          <use
             xlink:href="#DejaVuSans-65"
             x="489.306641"
             id="use311" />
          <use
             xlink:href="#DejaVuSans-61"
             x="550.830078"
             id="use313" />
          <use
             xlink:href="#DejaVuSans-72"
             x="612.109375"
             id="use315" />
          <use
             xlink:href="#DejaVuSans-6e"
             x="651.472656"
             id="use317" />
          <use
             xlink:href="#DejaVuSans-69"
             x="714.851562"
             id="use319" />
          <use
             xlink:href="#DejaVuSans-6e"
             x="742.634766"
             id="use321" />
          <use
             xlink:href="#DejaVuSans-67"
             x="806.013672"
             id="use323" />
        </g>
      </g>
      <g
         id="text_9">
        <g
           id="patch_10">
          <path
             d="M 58.226012 642.833146  L 136.586635 642.833146  L 136.586635 627.742993  L 58.226012 627.742993  z "
             style="fill: #ffffff; opacity: 0.78"
             id="path328" />
        </g>
        <!-- decision tree -->
        <g
           style="fill: #333333"
           transform="translate(60.187552 638.471966) scale(0.115385 -0.115385)"
           id="g357">
          <use
             xlink:href="#DejaVuSans-64"
             id="use331" />
          <use
             xlink:href="#DejaVuSans-65"
             x="63.476562"
             id="use333" />
          <use
             xlink:href="#DejaVuSans-63"
             x="125"
             id="use335" />
          <use
             xlink:href="#DejaVuSans-69"
             x="179.980469"
             id="use337" />
          <use
             xlink:href="#DejaVuSans-73"
             x="207.763672"
             id="use339" />
          <use
             xlink:href="#DejaVuSans-69"
             x="259.863281"
             id="use341" />
          <use
             xlink:href="#DejaVuSans-6f"
             x="287.646484"
             id="use343" />
          <use
             xlink:href="#DejaVuSans-6e"
             x="348.828125"
             id="use345" />
          <use
             xlink:href="#DejaVuSans-20"
             x="412.207031"
             id="use347" />
          <use
             xlink:href="#DejaVuSans-74"
             x="443.994141"
             id="use349" />
          <use
             xlink:href="#DejaVuSans-72"
             x="483.203125"
             id="use351" />
          <use
             xlink:href="#DejaVuSans-65"
             x="522.066406"
             id="use353" />
          <use
             xlink:href="#DejaVuSans-65"
             x="583.589844"
             id="use355" />
        </g>
      </g>
      <g
         id="text_10">
        <g
           id="patch_11">
          <path
             d="M 34.565981 461.378322  L 63.094683 461.378322  L 63.094683 446.621678  L 34.565981 446.621678  z "
             style="fill: #ffffff; opacity: 0.78"
             id="path360" />
        </g>
        <!-- GAN -->
        <g
           style="fill: #333333"
           transform="translate(36.566411 457.066631) scale(0.111135 -0.111135)"
           id="g372">
          <defs
             id="defs364">
            <path
               id="DejaVuSans-47"
               d="M 3809 666  L 3809 1919  L 2778 1919  L 2778 2438  L 4434 2438  L 4434 434  Q 4069 175 3628 42  Q 3188 -91 2688 -91  Q 1594 -91 976 548  Q 359 1188 359 2328  Q 359 3472 976 4111  Q 1594 4750 2688 4750  Q 3144 4750 3555 4637  Q 3966 4525 4313 4306  L 4313 3634  Q 3963 3931 3569 4081  Q 3175 4231 2741 4231  Q 1884 4231 1454 3753  Q 1025 3275 1025 2328  Q 1025 1384 1454 906  Q 1884 428 2741 428  Q 3075 428 3337 486  Q 3600 544 3809 666  z "
               transform="scale(0.015625)" />
          </defs>
          <use
             xlink:href="#DejaVuSans-47"
             id="use366" />
          <use
             xlink:href="#DejaVuSans-41"
             x="77.490234"
             id="use368" />
          <use
             xlink:href="#DejaVuSans-4e"
             x="145.898438"
             id="use370" />
        </g>
      </g>
      <g
         id="text_11">
        <g
           id="patch_12">
          <path
             d="M 80.964291 279.988196  L 113.848357 279.988196  L 113.848357 265.435664  L 80.964291 265.435664  z "
             style="fill: #ffffff; opacity: 0.78"
             id="path375" />
        </g>
        <!-- LSTM -->
        <g
           style="fill: #333333"
           transform="translate(83.015749 275.691269) scale(0.107971 -0.107971)"
           id="g392">
          <defs
             id="defs382">
            <path
               id="DejaVuSans-4c"
               d="M 628 4666  L 1259 4666  L 1259 531  L 3531 531  L 3531 0  L 628 0  L 628 4666  z "
               transform="scale(0.015625)" />
            <path
               id="DejaVuSans-53"
               d="M 3425 4513  L 3425 3897  Q 3066 4069 2747 4153  Q 2428 4238 2131 4238  Q 1616 4238 1336 4038  Q 1056 3838 1056 3469  Q 1056 3159 1242 3001  Q 1428 2844 1947 2747  L 2328 2669  Q 3034 2534 3370 2195  Q 3706 1856 3706 1288  Q 3706 609 3251 259  Q 2797 -91 1919 -91  Q 1588 -91 1214 -16  Q 841 59 441 206  L 441 856  Q 825 641 1194 531  Q 1563 422 1919 422  Q 2459 422 2753 634  Q 3047 847 3047 1241  Q 3047 1584 2836 1778  Q 2625 1972 2144 2069  L 1759 2144  Q 1053 2284 737 2584  Q 422 2884 422 3419  Q 422 4038 858 4394  Q 1294 4750 2059 4750  Q 2388 4750 2728 4690  Q 3069 4631 3425 4513  z "
               transform="scale(0.015625)" />
            <path
               id="DejaVuSans-54"
               d="M -19 4666  L 3928 4666  L 3928 4134  L 2272 4134  L 2272 0  L 1638 0  L 1638 4134  L -19 4134  L -19 4666  z "
               transform="scale(0.015625)" />
            <path
               id="DejaVuSans-4d"
               d="M 628 4666  L 1569 4666  L 2759 1491  L 3956 4666  L 4897 4666  L 4897 0  L 4281 0  L 4281 4097  L 3078 897  L 2444 897  L 1241 4097  L 1241 0  L 628 0  L 628 4666  z "
               transform="scale(0.015625)" />
          </defs>
          <use
             xlink:href="#DejaVuSans-4c"
             id="use384" />
          <use
             xlink:href="#DejaVuSans-53"
             x="55.712891"
             id="use386" />
          <use
             xlink:href="#DejaVuSans-54"
             x="119.189453"
             id="use388" />
          <use
             xlink:href="#DejaVuSans-4d"
             x="180.273438"
             id="use390" />
        </g>
      </g>
      <g
         id="text_12">
        <g
           id="patch_13">
          <path
             d="M 195.777776 146.838915  L 264.459026 146.838915  L 264.459026 133.16079  L 195.777776 133.16079  z "
             style="fill: #ffffff; opacity: 0.78"
             id="path395" />
        </g>
        <!-- classification -->
        <g
           style="fill: #333333"
           transform="translate(197.777776 142.759228) scale(0.1 -0.1)"
           id="g426">
          <use
             xlink:href="#DejaVuSans-63"
             id="use398" />
          <use
             xlink:href="#DejaVuSans-6c"
             x="54.980469"
             id="use400" />
          <use
             xlink:href="#DejaVuSans-61"
             x="82.763672"
             id="use402" />
          <use
             xlink:href="#DejaVuSans-73"
             x="144.042969"
             id="use404" />
          <use
             xlink:href="#DejaVuSans-73"
             x="196.142578"
             id="use406" />
          <use
             xlink:href="#DejaVuSans-69"
             x="248.242188"
             id="use408" />
          <use
             xlink:href="#DejaVuSans-66"
             x="276.025391"
             id="use410" />
          <use
             xlink:href="#DejaVuSans-69"
             x="311.230469"
             id="use412" />
          <use
             xlink:href="#DejaVuSans-63"
             x="339.013672"
             id="use414" />
          <use
             xlink:href="#DejaVuSans-61"
             x="393.994141"
             id="use416" />
          <use
             xlink:href="#DejaVuSans-74"
             x="455.273438"
             id="use418" />
          <use
             xlink:href="#DejaVuSans-69"
             x="494.482422"
             id="use420" />
          <use
             xlink:href="#DejaVuSans-6f"
             x="522.265625"
             id="use422" />
          <use
             xlink:href="#DejaVuSans-6e"
             x="583.447266"
             id="use424" />
        </g>
      </g>
      <g
         id="text_13">
        <!-- AI methods: Urban Planet -->
        <g
           style="fill: #2a5f7f"
           transform="translate(296.105221 24.8) scale(0.18 -0.18)"
           id="g484">
          <defs
             id="defs434">
            <path
               id="DejaVuSans-49"
               d="M 628 4666  L 1259 4666  L 1259 0  L 628 0  L 628 4666  z "
               transform="scale(0.015625)" />
            <path
               id="DejaVuSans-3a"
               d="M 750 794  L 1409 794  L 1409 0  L 750 0  L 750 794  z M 750 3309  L 1409 3309  L 1409 2516  L 750 2516  L 750 3309  z "
               transform="scale(0.015625)" />
            <path
               id="DejaVuSans-55"
               d="M 556 4666  L 1191 4666  L 1191 1831  Q 1191 1081 1462 751  Q 1734 422 2344 422  Q 2950 422 3222 751  Q 3494 1081 3494 1831  L 3494 4666  L 4128 4666  L 4128 1753  Q 4128 841 3676 375  Q 3225 -91 2344 -91  Q 1459 -91 1007 375  Q 556 841 556 1753  L 556 4666  z "
               transform="scale(0.015625)" />
            <path
               id="DejaVuSans-62"
               d="M 3116 1747  Q 3116 2381 2855 2742  Q 2594 3103 2138 3103  Q 1681 3103 1420 2742  Q 1159 2381 1159 1747  Q 1159 1113 1420 752  Q 1681 391 2138 391  Q 2594 391 2855 752  Q 3116 1113 3116 1747  z M 1159 2969  Q 1341 3281 1617 3432  Q 1894 3584 2278 3584  Q 2916 3584 3314 3078  Q 3713 2572 3713 1747  Q 3713 922 3314 415  Q 2916 -91 2278 -91  Q 1894 -91 1617 61  Q 1341 213 1159 525  L 1159 0  L 581 0  L 581 4863  L 1159 4863  L 1159 2969  z "
               transform="scale(0.015625)" />
            <path
               id="DejaVuSans-50"
               d="M 1259 4147  L 1259 2394  L 2053 2394  Q 2494 2394 2734 2622  Q 2975 2850 2975 3272  Q 2975 3691 2734 3919  Q 2494 4147 2053 4147  L 1259 4147  z M 628 4666  L 2053 4666  Q 2838 4666 3239 4311  Q 3641 3956 3641 3272  Q 3641 2581 3239 2228  Q 2838 1875 2053 1875  L 1259 1875  L 1259 0  L 628 0  L 628 4666  z "
               transform="scale(0.015625)" />
          </defs>
          <use
             xlink:href="#DejaVuSans-41"
             id="use436" />
          <use
             xlink:href="#DejaVuSans-49"
             x="68.408203"
             id="use438" />
          <use
             xlink:href="#DejaVuSans-20"
             x="97.900391"
             id="use440" />
          <use
             xlink:href="#DejaVuSans-6d"
             x="129.6875"
             id="use442" />
          <use
             xlink:href="#DejaVuSans-65"
             x="227.099609"
             id="use444" />
          <use
             xlink:href="#DejaVuSans-74"
             x="288.623047"
             id="use446" />
          <use
             xlink:href="#DejaVuSans-68"
             x="327.832031"
             id="use448" />
          <use
             xlink:href="#DejaVuSans-6f"
             x="391.210938"
             id="use450" />
          <use
             xlink:href="#DejaVuSans-64"
             x="452.392578"
             id="use452" />
          <use
             xlink:href="#DejaVuSans-73"
             x="515.869141"
             id="use454" />
          <use
             xlink:href="#DejaVuSans-3a"
             x="567.96875"
             id="use456" />
          <use
             xlink:href="#DejaVuSans-20"
             x="601.660156"
             id="use458" />
          <use
             xlink:href="#DejaVuSans-55"
             x="633.447266"
             id="use460" />
          <use
             xlink:href="#DejaVuSans-72"
             x="706.640625"
             id="use462" />
          <use
             xlink:href="#DejaVuSans-62"
             x="747.753906"
             id="use464" />
          <use
             xlink:href="#DejaVuSans-61"
             x="811.230469"
             id="use466" />
          <use
             xlink:href="#DejaVuSans-6e"
             x="872.509766"
             id="use468" />
          <use
             xlink:href="#DejaVuSans-20"
             x="935.888672"
             id="use470" />
          <use
             xlink:href="#DejaVuSans-50"
             x="967.675781"
             id="use472" />
          <use
             xlink:href="#DejaVuSans-6c"
             x="1027.978516"
             id="use474" />
          <use
             xlink:href="#DejaVuSans-61"
             x="1055.761719"
             id="use476" />
          <use
             xlink:href="#DejaVuSans-6e"
             x="1117.041016"
             id="use478" />
          <use
             xlink:href="#DejaVuSans-65"
             x="1180.419922"
             id="use480" />
          <use
             xlink:href="#DejaVuSans-74"
             x="1241.943359"
             id="use482" />
        </g>
      </g>
      <g
         id="text_14">
        <g
           id="patch_14">
          <path
             d="M 341.07569 435.540031  L 481.737252 435.540031  L 481.737252 410.199406  L 341.07569 410.199406  z "
             style="fill: #ffffff; opacity: 0.85"
             id="path487" />
        </g>
        <!-- Urban Planet -->
        <g
           style="fill: #2a5f7f"
           transform="translate(345.03569 427.836593) scale(0.18 -0.18)"
           id="g526">
          <defs
             id="defs500">
            <path
               id="DejaVuSans-Bold-55"
               d="M 588 4666  L 1791 4666  L 1791 1869  Q 1791 1291 1980 1042  Q 2169 794 2597 794  Q 3028 794 3217 1042  Q 3406 1291 3406 1869  L 3406 4666  L 4609 4666  L 4609 1869  Q 4609 878 4112 393  Q 3616 -91 2597 -91  Q 1581 -91 1084 393  Q 588 878 588 1869  L 588 4666  z "
               transform="scale(0.015625)" />
            <path
               id="DejaVuSans-Bold-72"
               d="M 3138 2547  Q 2991 2616 2845 2648  Q 2700 2681 2553 2681  Q 2122 2681 1889 2404  Q 1656 2128 1656 1613  L 1656 0  L 538 0  L 538 3500  L 1656 3500  L 1656 2925  Q 1872 3269 2151 3426  Q 2431 3584 2822 3584  Q 2878 3584 2943 3579  Q 3009 3575 3134 3559  L 3138 2547  z "
               transform="scale(0.015625)" />
            <path
               id="DejaVuSans-Bold-62"
               d="M 2400 722  Q 2759 722 2948 984  Q 3138 1247 3138 1747  Q 3138 2247 2948 2509  Q 2759 2772 2400 2772  Q 2041 2772 1848 2508  Q 1656 2244 1656 1747  Q 1656 1250 1848 986  Q 2041 722 2400 722  z M 1656 2988  Q 1888 3294 2169 3439  Q 2450 3584 2816 3584  Q 3463 3584 3878 3070  Q 4294 2556 4294 1747  Q 4294 938 3878 423  Q 3463 -91 2816 -91  Q 2450 -91 2169 54  Q 1888 200 1656 506  L 1656 0  L 538 0  L 538 4863  L 1656 4863  L 1656 2988  z "
               transform="scale(0.015625)" />
            <path
               id="DejaVuSans-Bold-61"
               d="M 2106 1575  Q 1756 1575 1579 1456  Q 1403 1338 1403 1106  Q 1403 894 1545 773  Q 1688 653 1941 653  Q 2256 653 2472 879  Q 2688 1106 2688 1447  L 2688 1575  L 2106 1575  z M 3816 1997  L 3816 0  L 2688 0  L 2688 519  Q 2463 200 2181 54  Q 1900 -91 1497 -91  Q 953 -91 614 226  Q 275 544 275 1050  Q 275 1666 698 1953  Q 1122 2241 2028 2241  L 2688 2241  L 2688 2328  Q 2688 2594 2478 2717  Q 2269 2841 1825 2841  Q 1466 2841 1156 2769  Q 847 2697 581 2553  L 581 3406  Q 941 3494 1303 3539  Q 1666 3584 2028 3584  Q 2975 3584 3395 3211  Q 3816 2838 3816 1997  z "
               transform="scale(0.015625)" />
            <path
               id="DejaVuSans-Bold-6e"
               d="M 4056 2131  L 4056 0  L 2931 0  L 2931 347  L 2931 1631  Q 2931 2084 2911 2256  Q 2891 2428 2841 2509  Q 2775 2619 2662 2680  Q 2550 2741 2406 2741  Q 2056 2741 1856 2470  Q 1656 2200 1656 1722  L 1656 0  L 538 0  L 538 3500  L 1656 3500  L 1656 2988  Q 1909 3294 2193 3439  Q 2478 3584 2822 3584  Q 3428 3584 3742 3212  Q 4056 2841 4056 2131  z "
               transform="scale(0.015625)" />
            <path
               id="DejaVuSans-Bold-20"
               transform="scale(0.015625)" />
            <path
               id="DejaVuSans-Bold-50"
               d="M 588 4666  L 2584 4666  Q 3475 4666 3951 4270  Q 4428 3875 4428 3144  Q 4428 2409 3951 2014  Q 3475 1619 2584 1619  L 1791 1619  L 1791 0  L 588 0  L 588 4666  z M 1791 3794  L 1791 2491  L 2456 2491  Q 2806 2491 2997 2661  Q 3188 2831 3188 3144  Q 3188 3456 2997 3625  Q 2806 3794 2456 3794  L 1791 3794  z "
               transform="scale(0.015625)" />
            <path
               id="DejaVuSans-Bold-6c"
               d="M 538 4863  L 1656 4863  L 1656 0  L 538 0  L 538 4863  z "
               transform="scale(0.015625)" />
            <path
               id="DejaVuSans-Bold-65"
               d="M 4031 1759  L 4031 1441  L 1416 1441  Q 1456 1047 1700 850  Q 1944 653 2381 653  Q 2734 653 3104 758  Q 3475 863 3866 1075  L 3866 213  Q 3469 63 3072 -14  Q 2675 -91 2278 -91  Q 1328 -91 801 392  Q 275 875 275 1747  Q 275 2603 792 3093  Q 1309 3584 2216 3584  Q 3041 3584 3536 3087  Q 4031 2591 4031 1759  z M 2881 2131  Q 2881 2450 2695 2645  Q 2509 2841 2209 2841  Q 1884 2841 1681 2658  Q 1478 2475 1428 2131  L 2881 2131  z "
               transform="scale(0.015625)" />
            <path
               id="DejaVuSans-Bold-74"
               d="M 1759 4494  L 1759 3500  L 2913 3500  L 2913 2700  L 1759 2700  L 1759 1216  Q 1759 972 1856 886  Q 1953 800 2241 800  L 2816 800  L 2816 0  L 1856 0  Q 1194 0 917 276  Q 641 553 641 1216  L 641 2700  L 84 2700  L 84 3500  L 641 3500  L 641 4494  L 1759 4494  z "
               transform="scale(0.015625)" />
          </defs>
          <use
             xlink:href="#DejaVuSans-Bold-55"
             id="use502" />
          <use
             xlink:href="#DejaVuSans-Bold-72"
             x="81.201172"
             id="use504" />
          <use
             xlink:href="#DejaVuSans-Bold-62"
             x="130.517578"
             id="use506" />
          <use
             xlink:href="#DejaVuSans-Bold-61"
             x="202.099609"
             id="use508" />
          <use
             xlink:href="#DejaVuSans-Bold-6e"
             x="269.580078"
             id="use510" />
          <use
             xlink:href="#DejaVuSans-Bold-20"
             x="340.771484"
             id="use512" />
          <use
             xlink:href="#DejaVuSans-Bold-50"
             x="375.585938"
             id="use514" />
          <use
             xlink:href="#DejaVuSans-Bold-6c"
             x="448.876953"
             id="use516" />
          <use
             xlink:href="#DejaVuSans-Bold-61"
             x="483.154297"
             id="use518" />
          <use
             xlink:href="#DejaVuSans-Bold-6e"
             x="550.634766"
             id="use520" />
          <use
             xlink:href="#DejaVuSans-Bold-65"
             x="621.826172"
             id="use522" />
          <use
             xlink:href="#DejaVuSans-Bold-74"
             x="689.648438"
             id="use524" />
        </g>
      </g>
    </g>
  </g>
  <defs
     id="defs534">
    <clipPath
       id="p3f1699f90c">
      <path
         d="M 810.606471 454  C 810.606471 401.577536 800.280389 349.664815 780.21918 301.232774  C 760.157972 252.800733 730.751778 208.791253 693.683498 171.722973  C 656.615219 134.654693 612.605738 105.248499 564.173697 85.187291  C 515.741656 65.126082 463.828935 54.8 411.406471 54.8  C 358.984007 54.8 307.071286 65.126082 258.639245 85.187291  C 210.207204 105.248499 166.197724 134.654693 129.129444 171.722973  C 92.061164 208.791253 62.65497 252.800733 42.593762 301.232774  C 22.532553 349.664815 12.206471 401.577536 12.206471 454  C 12.206471 506.422464 22.532553 558.335185 42.593762 606.767226  C 62.65497 655.199267 92.061164 699.208747 129.129444 736.277027  C 166.197724 773.345307 210.207204 802.751501 258.639245 822.812709  C 307.071286 842.873918 358.984007 853.2 411.406471 853.2  C 463.828935 853.2 515.741656 842.873918 564.173697 822.812709  C 612.605738 802.751501 656.615219 773.345307 693.683498 736.277027  C 730.751778 699.208747 760.157972 655.199267 780.21918 606.767226  C 800.280389 558.335185 810.606471 506.422464 810.606471 454  M 411.406471 454  C 411.406471 454 411.406471 454 411.406471 454  C 411.406471 454 411.406471 454 411.406471 454  C 411.406471 454 411.406471 454 411.406471 454  C 411.406471 454 411.406471 454 411.406471 454  C 411.406471 454 411.406471 454 411.406471 454  C 411.406471 454 411.406471 454 411.406471 454  C 411.406471 454 411.406471 454 411.406471 454  C 411.406471 454 411.406471 454 411.406471 454  C 411.406471 454 411.406471 454 411.406471 454  C 411.406471 454 411.406471 454 411.406471 454  C 411.406471 454 411.406471 454 411.406471 454  C 411.406471 454 411.406471 454 411.406471 454  C 411.406471 454 411.406471 454 411.406471 454  C 411.406471 454 411.406471 454 411.406471 454  C 411.406471 454 411.406471 454 411.406471 454  C 411.406471 454 411.406471 454 411.406471 454  z "
         id="path531" />
    </clipPath>
  </defs>
</svg>
