<?xml version="1.0" encoding="UTF-8" standalone="no"?>
<svg
   xmlns:dc="http://purl.org/dc/elements/1.1/"
   xmlns:cc="http://creativecommons.org/ns#"
   xmlns:rdf="http://www.w3.org/1999/02/22-rdf-syntax-ns#"
   xmlns:svg="http://www.w3.org/2000/svg"
   xmlns="http://www.w3.org/2000/svg"
   xmlns:xlink="http://www.w3.org/1999/xlink"
   xmlns:sodipodi="http://sodipodi.sourceforge.net/DTD/sodipodi-0.dtd"
   xmlns:inkscape="http://www.inkscape.org/namespaces/inkscape"
   width="864pt"
   height="864pt"
   viewBox="0 0 864 864"
   version="1.1"
   id="svg524"
   sodipodi:docname="water_management_clockwork.svg"
   inkscape:export-filename="/home/erikz/SRC/AI/Deep_mind_roundtable/Lit search/lit_review_deepmind/plots/final_new/water_management_clockwork.png"
   inkscape:export-xdpi="96"
   inkscape:export-ydpi="96"
   inkscape:version="0.92.5 (2060ec1f9f, 2020-04-08)">
  <sodipodi:namedview
     pagecolor="#ffffff"
     bordercolor="#666666"
     borderopacity="1"
     objecttolerance="10"
     gridtolerance="10"
     guidetolerance="10"
     inkscape:pageopacity="0"
     inkscape:pageshadow="2"
     inkscape:window-width="1848"
     inkscape:window-height="1016"
     id="namedview526"
     showgrid="false"
     inkscape:zoom="0.20486111"
     inkscape:cx="-305.08475"
     inkscape:cy="576"
     inkscape:window-x="72"
     inkscape:window-y="27"
     inkscape:window-maximized="1"
     inkscape:current-layer="svg524" />
  <metadata
     id="metadata2">
    <rdf:RDF>
      <cc:Work>
        <dc:type
           rdf:resource="http://purl.org/dc/dcmitype/StillImage" />
        <dc:date>2025-05-01T14:38:36.783973</dc:date>
        <dc:format>image/svg+xml</dc:format>
        <dc:creator>
          <cc:Agent>
            <dc:title>Matplotlib v3.7.5, https://matplotlib.org/</dc:title>
          </cc:Agent>
        </dc:creator>
      </cc:Work>
    </rdf:RDF>
  </metadata>
  <defs
     id="defs6">
    <style
       type="text/css"
       id="style4">*{stroke-linejoin: round; stroke-linecap: butt}</style>
  </defs>
  <g
     id="figure_1">
    <g
       id="patch_1">
      <path
         d="M 0 864  L 864 864  L 864 0  L 0 0  L 0 864  z "
         style="fill: none"
         id="path8" />
    </g>
    <g
       id="axes_1">
      <g
         id="PathCollection_1">
        <path
           d="M 433.06287 250.437928  C 451.923272 250.437928 470.013739 242.944611 483.350057 229.608293  C 496.686375 216.271975 504.179692 198.181508 504.179692 179.321106  C 504.179692 160.460704 496.686375 142.370237 483.350057 129.033919  C 470.013739 115.697601 451.923272 108.204284 433.06287 108.204284  C 414.202468 108.204284 396.112001 115.697601 382.775683 129.033919  C 369.439365 142.370237 361.946048 160.460704 361.946048 179.321106  C 361.946048 198.181508 369.439365 216.271975 382.775683 229.608293  C 396.112001 242.944611 414.202468 250.437928 433.06287 250.437928  z "
           clip-path="url(#p5b21c8b773)"
           style="fill: #4682b4; fill-opacity: 0.85; stroke: #ffffff; stroke-opacity: 0.85; stroke-width: 1.5"
           id="path11" />
        <path
           d="M 570.402317 280.047088  C 587.355687 280.047088 603.616974 273.311442 615.604817 261.323599  C 627.59266 249.335756 634.328305 233.07447 634.328305 216.1211  C 634.328305 199.16773 627.59266 182.906443 615.604817 170.9186  C 603.616974 158.930757 587.355687 152.195112 570.402317 152.195112  C 553.448947 152.195112 537.187661 158.930757 525.199818 170.9186  C 513.211975 182.906443 506.476329 199.16773 506.476329 216.1211  C 506.476329 233.07447 513.211975 249.335756 525.199818 261.323599  C 537.187661 273.311442 553.448947 280.047088 570.402317 280.047088  z "
           clip-path="url(#p5b21c8b773)"
           style="fill: #4682b4; fill-opacity: 0.85; stroke: #ffffff; stroke-opacity: 0.85; stroke-width: 1.5"
           id="path13" />
        <path
           d="M 670.94177 379.534687  C 687.616186 379.534687 703.609905 372.909872 715.400497 361.119279  C 727.191089 349.328687 733.815904 333.334968 733.815904 316.660553  C 733.815904 299.986138 727.191089 283.992419 715.400497 272.201826  C 703.609905 260.411234 687.616186 253.786419 670.94177 253.786419  C 654.267355 253.786419 638.273636 260.411234 626.483044 272.201826  C 614.692452 283.992419 608.067636 299.986138 608.067636 316.660553  C 608.067636 333.334968 614.692452 349.328687 626.483044 361.119279  C 638.273636 372.909872 654.267355 379.534687 670.94177 379.534687  z "
           clip-path="url(#p5b21c8b773)"
           style="fill: #4682b4; fill-opacity: 0.85; stroke: #ffffff; stroke-opacity: 0.85; stroke-width: 1.5"
           id="path15" />
        <path
           d="M 707.741764 512.146717  C 723.162454 512.146717 737.953628 506.020012 748.857702 495.115938  C 759.761777 484.211864 765.888482 469.42069 765.888482 454  C 765.888482 438.57931 759.761777 423.788136 748.857702 412.884062  C 737.953628 401.979988 723.162454 395.853283 707.741764 395.853283  C 692.321075 395.853283 677.5299 401.979988 666.625826 412.884062  C 655.721752 423.788136 649.595047 438.57931 649.595047 454  C 649.595047 469.42069 655.721752 484.211864 666.625826 495.115938  C 677.5299 506.020012 692.321075 512.146717 707.741764 512.146717  z "
           clip-path="url(#p5b21c8b773)"
           style="fill: #4682b4; fill-opacity: 0.85; stroke: #ffffff; stroke-opacity: 0.85; stroke-width: 1.5"
           id="path17" />
        <path
           d="M 670.94177 644.593379  C 685.064878 644.593379 698.611441 638.982209 708.597987 628.995664  C 718.584532 619.009118 724.195702 605.462555 724.195702 591.339447  C 724.195702 577.216339 718.584532 563.669776 708.597987 553.683231  C 698.611441 543.696685 685.064878 538.085515 670.94177 538.085515  C 656.818662 538.085515 643.272099 543.696685 633.285554 553.683231  C 623.299008 563.669776 617.687838 577.216339 617.687838 591.339447  C 617.687838 605.462555 623.299008 619.009118 633.285554 628.995664  C 643.272099 638.982209 656.818662 644.593379 670.94177 644.593379  z "
           clip-path="url(#p5b21c8b773)"
           style="fill: #4682b4; fill-opacity: 0.85; stroke: #ffffff; stroke-opacity: 0.85; stroke-width: 1.5"
           id="path19" />
        <path
           d="M 570.402317 740.826464  C 583.383363 740.826464 595.834486 735.66904 605.013472 726.490055  C 614.192457 717.311069 619.349881 704.859946 619.349881 691.8789  C 619.349881 678.897854 614.192457 666.446731 605.013472 657.267746  C 595.834486 648.08876 583.383363 642.931336 570.402317 642.931336  C 557.421271 642.931336 544.970148 648.08876 535.791163 657.267746  C 526.612177 666.446731 521.454753 678.897854 521.454753 691.8789  C 521.454753 704.859946 526.612177 717.311069 535.791163 726.490055  C 544.970148 735.66904 557.421271 740.826464 570.402317 740.826464  z "
           clip-path="url(#p5b21c8b773)"
           style="fill: #4682b4; fill-opacity: 0.85; stroke: #ffffff; stroke-opacity: 0.85; stroke-width: 1.5"
           id="path21" />
        <path
           d="M 433.06287 771.282966  C 444.361602 771.282966 455.199088 766.793932 463.188498 758.804522  C 471.177908 750.815112 475.666942 739.977626 475.666942 728.678894  C 475.666942 717.380162 471.177908 706.542676 463.188498 698.553266  C 455.199088 690.563856 444.361602 686.074822 433.06287 686.074822  C 421.764138 686.074822 410.926652 690.563856 402.937242 698.553266  C 394.947832 706.542676 390.458798 717.380162 390.458798 728.678894  C 390.458798 739.977626 394.947832 750.815112 402.937242 758.804522  C 410.926652 766.793932 421.764138 771.282966 433.06287 771.282966  z "
           clip-path="url(#p5b21c8b773)"
           style="fill: #4682b4; fill-opacity: 0.85; stroke: #ffffff; stroke-opacity: 0.85; stroke-width: 1.5"
           id="path23" />
        <path
           d="M 295.723423 728.543913  C 305.447098 728.543913 314.773826 724.680656 321.649502 717.804979  C 328.525179 710.929303 332.388436 701.602575 332.388436 691.8789  C 332.388436 682.155225 328.525179 672.828498 321.649502 665.952821  C 314.773826 659.077144 305.447098 655.213887 295.723423 655.213887  C 285.999748 655.213887 276.67302 659.077144 269.797344 665.952821  C 262.921667 672.828498 259.05841 682.155225 259.05841 691.8789  C 259.05841 701.602575 262.921667 710.929303 269.797344 717.804979  C 276.67302 724.680656 285.999748 728.543913 295.723423 728.543913  z "
           clip-path="url(#p5b21c8b773)"
           style="fill: #4682b4; fill-opacity: 0.85; stroke: #ffffff; stroke-opacity: 0.85; stroke-width: 1.5"
           id="path25" />
        <path
           d="M 195.18397 623.729516  C 203.773917 623.729516 212.013198 620.316694 218.087207 614.242684  C 224.161216 608.168675 227.574038 599.929394 227.574038 591.339447  C 227.574038 582.7495 224.161216 574.510219 218.087207 568.43621  C 212.013198 562.362201 203.773917 558.949379 195.18397 558.949379  C 186.594023 558.949379 178.354742 562.362201 172.280733 568.43621  C 166.206723 574.510219 162.793901 582.7495 162.793901 591.339447  C 162.793901 599.929394 166.206723 608.168675 172.280733 614.242684  C 178.354742 620.316694 186.594023 623.729516 195.18397 623.729516  z "
           clip-path="url(#p5b21c8b773)"
           style="fill: #4682b4; fill-opacity: 0.85; stroke: #ffffff; stroke-opacity: 0.85; stroke-width: 1.5"
           id="path27" />
        <path
           d="M 158.383976 477.479124  C 164.610713 477.479124 170.583256 475.005216 174.986224 470.602248  C 179.389192 466.19928 181.8631 460.226737 181.8631 454  C 181.8631 447.773263 179.389192 441.80072 174.986224 437.397752  C 170.583256 432.994784 164.610713 430.520876 158.383976 430.520876  C 152.157239 430.520876 146.184696 432.994784 141.781728 437.397752  C 137.37876 441.80072 134.904852 447.773263 134.904852 454  C 134.904852 460.226737 137.37876 466.19928 141.781728 470.602248  C 146.184696 475.005216 152.157239 477.479124 158.383976 477.479124  z "
           clip-path="url(#p5b21c8b773)"
           style="fill: #4682b4; fill-opacity: 0.85; stroke: #ffffff; stroke-opacity: 0.85; stroke-width: 1.5"
           id="path29" />
        <path
           d="M 195.18397 340.139677  C 201.410707 340.139677 207.38325 337.665769 211.786218 333.262801  C 216.189186 328.859833 218.663094 322.88729 218.663094 316.660553  C 218.663094 310.433816 216.189186 304.461272 211.786218 300.058305  C 207.38325 295.655337 201.410707 293.181428 195.18397 293.181428  C 188.957233 293.181428 182.984689 295.655337 178.581722 300.058305  C 174.178754 304.461272 171.704845 310.433816 171.704845 316.660553  C 171.704845 322.88729 174.178754 328.859833 178.581722 333.262801  C 182.984689 337.665769 188.957233 340.139677 195.18397 340.139677  z "
           clip-path="url(#p5b21c8b773)"
           style="fill: #4682b4; fill-opacity: 0.85; stroke: #ffffff; stroke-opacity: 0.85; stroke-width: 1.5"
           id="path31" />
        <path
           d="M 295.723423 231.335396  C 299.758302 231.335396 303.628465 229.732322 306.481555 226.879232  C 309.334645 224.026142 310.937719 220.155978 310.937719 216.1211  C 310.937719 212.086221 309.334645 208.216058 306.481555 205.362968  C 303.628465 202.509878 299.758302 200.906804 295.723423 200.906804  C 291.688545 200.906804 287.818381 202.509878 284.965291 205.362968  C 282.112201 208.216058 280.509127 212.086221 280.509127 216.1211  C 280.509127 220.155978 282.112201 224.026142 284.965291 226.879232  C 287.818381 229.732322 291.688545 231.335396 295.723423 231.335396  z "
           clip-path="url(#p5b21c8b773)"
           style="fill: #4682b4; fill-opacity: 0.85; stroke: #ffffff; stroke-opacity: 0.85; stroke-width: 1.5"
           id="path33" />
      </g>
      <g
         id="PathCollection_2">
        <defs
           id="defs37">
          <path
             id="mfadeab68ab"
             d="M 0 93.541409  C 24.807472 93.541409 48.602233 83.685296 66.143765 66.143765  C 83.685296 48.602233 93.541409 24.807472 93.541409 0  C 93.541409 -24.807472 83.685296 -48.602233 66.143765 -66.143765  C 48.602233 -83.685296 24.807472 -93.541409 0 -93.541409  C -24.807472 -93.541409 -48.602233 -83.685296 -66.143765 -66.143765  C -83.685296 -48.602233 -93.541409 -24.807472 -93.541409 0  C -93.541409 24.807472 -83.685296 48.602233 -66.143765 66.143765  C -48.602233 83.685296 -24.807472 93.541409 0 93.541409  z "
             style="stroke: #ffffff; stroke-opacity: 0.92; stroke-width: 2" />
        </defs>
        <g
           clip-path="url(#p5b21c8b773)"
           id="g41">
          <use
             xlink:href="#mfadeab68ab"
             x="433.06287"
             y="454"
             style="fill: #2a5f7f; fill-opacity: 0.92; stroke: #ffffff; stroke-opacity: 0.92; stroke-width: 2"
             id="use39" />
        </g>
      </g>
      <g
         id="text_1">
        <g
           id="patch_2">
          <path
             d="M 371.527104 101.081494  L 494.598637 101.081494  L 494.598637 81.766227  L 371.527104 81.766227  z "
             style="fill: #ffffff; opacity: 0.78"
             id="path44" />
        </g>
        <!-- neural network -->
        <g
           style="fill: #333333"
           transform="translate(373.572192 95.764757) scale(0.157314 -0.157314)"
           id="g88">
          <defs
             id="defs58">
            <path
               id="DejaVuSans-6e"
               d="M 3513 2113  L 3513 0  L 2938 0  L 2938 2094  Q 2938 2591 2744 2837  Q 2550 3084 2163 3084  Q 1697 3084 1428 2787  Q 1159 2491 1159 1978  L 1159 0  L 581 0  L 581 3500  L 1159 3500  L 1159 2956  Q 1366 3272 1645 3428  Q 1925 3584 2291 3584  Q 2894 3584 3203 3211  Q 3513 2838 3513 2113  z "
               transform="scale(0.015625)" />
            <path
               id="DejaVuSans-65"
               d="M 3597 1894  L 3597 1613  L 953 1613  Q 991 1019 1311 708  Q 1631 397 2203 397  Q 2534 397 2845 478  Q 3156 559 3463 722  L 3463 178  Q 3153 47 2828 -22  Q 2503 -91 2169 -91  Q 1331 -91 842 396  Q 353 884 353 1716  Q 353 2575 817 3079  Q 1281 3584 2069 3584  Q 2775 3584 3186 3129  Q 3597 2675 3597 1894  z M 3022 2063  Q 3016 2534 2758 2815  Q 2500 3097 2075 3097  Q 1594 3097 1305 2825  Q 1016 2553 972 2059  L 3022 2063  z "
               transform="scale(0.015625)" />
            <path
               id="DejaVuSans-75"
               d="M 544 1381  L 544 3500  L 1119 3500  L 1119 1403  Q 1119 906 1312 657  Q 1506 409 1894 409  Q 2359 409 2629 706  Q 2900 1003 2900 1516  L 2900 3500  L 3475 3500  L 3475 0  L 2900 0  L 2900 538  Q 2691 219 2414 64  Q 2138 -91 1772 -91  Q 1169 -91 856 284  Q 544 659 544 1381  z M 1991 3584  L 1991 3584  z "
               transform="scale(0.015625)" />
            <path
               id="DejaVuSans-72"
               d="M 2631 2963  Q 2534 3019 2420 3045  Q 2306 3072 2169 3072  Q 1681 3072 1420 2755  Q 1159 2438 1159 1844  L 1159 0  L 581 0  L 581 3500  L 1159 3500  L 1159 2956  Q 1341 3275 1631 3429  Q 1922 3584 2338 3584  Q 2397 3584 2469 3576  Q 2541 3569 2628 3553  L 2631 2963  z "
               transform="scale(0.015625)" />
            <path
               id="DejaVuSans-61"
               d="M 2194 1759  Q 1497 1759 1228 1600  Q 959 1441 959 1056  Q 959 750 1161 570  Q 1363 391 1709 391  Q 2188 391 2477 730  Q 2766 1069 2766 1631  L 2766 1759  L 2194 1759  z M 3341 1997  L 3341 0  L 2766 0  L 2766 531  Q 2569 213 2275 61  Q 1981 -91 1556 -91  Q 1019 -91 701 211  Q 384 513 384 1019  Q 384 1609 779 1909  Q 1175 2209 1959 2209  L 2766 2209  L 2766 2266  Q 2766 2663 2505 2880  Q 2244 3097 1772 3097  Q 1472 3097 1187 3025  Q 903 2953 641 2809  L 641 3341  Q 956 3463 1253 3523  Q 1550 3584 1831 3584  Q 2591 3584 2966 3190  Q 3341 2797 3341 1997  z "
               transform="scale(0.015625)" />
            <path
               id="DejaVuSans-6c"
               d="M 603 4863  L 1178 4863  L 1178 0  L 603 0  L 603 4863  z "
               transform="scale(0.015625)" />
            <path
               id="DejaVuSans-20"
               transform="scale(0.015625)" />
            <path
               id="DejaVuSans-74"
               d="M 1172 4494  L 1172 3500  L 2356 3500  L 2356 3053  L 1172 3053  L 1172 1153  Q 1172 725 1289 603  Q 1406 481 1766 481  L 2356 481  L 2356 0  L 1766 0  Q 1100 0 847 248  Q 594 497 594 1153  L 594 3053  L 172 3053  L 172 3500  L 594 3500  L 594 4494  L 1172 4494  z "
               transform="scale(0.015625)" />
            <path
               id="DejaVuSans-77"
               d="M 269 3500  L 844 3500  L 1563 769  L 2278 3500  L 2956 3500  L 3675 769  L 4391 3500  L 4966 3500  L 4050 0  L 3372 0  L 2619 2869  L 1863 0  L 1184 0  L 269 3500  z "
               transform="scale(0.015625)" />
            <path
               id="DejaVuSans-6f"
               d="M 1959 3097  Q 1497 3097 1228 2736  Q 959 2375 959 1747  Q 959 1119 1226 758  Q 1494 397 1959 397  Q 2419 397 2687 759  Q 2956 1122 2956 1747  Q 2956 2369 2687 2733  Q 2419 3097 1959 3097  z M 1959 3584  Q 2709 3584 3137 3096  Q 3566 2609 3566 1747  Q 3566 888 3137 398  Q 2709 -91 1959 -91  Q 1206 -91 779 398  Q 353 888 353 1747  Q 353 2609 779 3096  Q 1206 3584 1959 3584  z "
               transform="scale(0.015625)" />
            <path
               id="DejaVuSans-6b"
               d="M 581 4863  L 1159 4863  L 1159 1991  L 2875 3500  L 3609 3500  L 1753 1863  L 3688 0  L 2938 0  L 1159 1709  L 1159 0  L 581 0  L 581 4863  z "
               transform="scale(0.015625)" />
          </defs>
          <use
             xlink:href="#DejaVuSans-6e"
             id="use60" />
          <use
             xlink:href="#DejaVuSans-65"
             x="63.378906"
             id="use62" />
          <use
             xlink:href="#DejaVuSans-75"
             x="124.902344"
             id="use64" />
          <use
             xlink:href="#DejaVuSans-72"
             x="188.28125"
             id="use66" />
          <use
             xlink:href="#DejaVuSans-61"
             x="229.394531"
             id="use68" />
          <use
             xlink:href="#DejaVuSans-6c"
             x="290.673828"
             id="use70" />
          <use
             xlink:href="#DejaVuSans-20"
             x="318.457031"
             id="use72" />
          <use
             xlink:href="#DejaVuSans-6e"
             x="350.244141"
             id="use74" />
          <use
             xlink:href="#DejaVuSans-65"
             x="413.623047"
             id="use76" />
          <use
             xlink:href="#DejaVuSans-74"
             x="475.146484"
             id="use78" />
          <use
             xlink:href="#DejaVuSans-77"
             x="514.355469"
             id="use80" />
          <use
             xlink:href="#DejaVuSans-6f"
             x="596.142578"
             id="use82" />
          <use
             xlink:href="#DejaVuSans-72"
             x="657.324219"
             id="use84" />
          <use
             xlink:href="#DejaVuSans-6b"
             x="698.4375"
             id="use86" />
        </g>
      </g>
      <g
         id="text_2">
        <g
           id="patch_3">
          <path
             d="M 592.110184 149.333748  L 636.591696 149.333748  L 636.591696 130.665957  L 592.110184 130.665957  z "
             style="fill: #ffffff; opacity: 0.78"
             id="path91" />
        </g>
        <!-- LSTM -->
        <g
           style="fill: #333333"
           transform="translate(594.086718 144.195235) scale(0.152041 -0.152041)"
           id="g108">
          <defs
             id="defs98">
            <path
               id="DejaVuSans-4c"
               d="M 628 4666  L 1259 4666  L 1259 531  L 3531 531  L 3531 0  L 628 0  L 628 4666  z "
               transform="scale(0.015625)" />
            <path
               id="DejaVuSans-53"
               d="M 3425 4513  L 3425 3897  Q 3066 4069 2747 4153  Q 2428 4238 2131 4238  Q 1616 4238 1336 4038  Q 1056 3838 1056 3469  Q 1056 3159 1242 3001  Q 1428 2844 1947 2747  L 2328 2669  Q 3034 2534 3370 2195  Q 3706 1856 3706 1288  Q 3706 609 3251 259  Q 2797 -91 1919 -91  Q 1588 -91 1214 -16  Q 841 59 441 206  L 441 856  Q 825 641 1194 531  Q 1563 422 1919 422  Q 2459 422 2753 634  Q 3047 847 3047 1241  Q 3047 1584 2836 1778  Q 2625 1972 2144 2069  L 1759 2144  Q 1053 2284 737 2584  Q 422 2884 422 3419  Q 422 4038 858 4394  Q 1294 4750 2059 4750  Q 2388 4750 2728 4690  Q 3069 4631 3425 4513  z "
               transform="scale(0.015625)" />
            <path
               id="DejaVuSans-54"
               d="M -19 4666  L 3928 4666  L 3928 4134  L 2272 4134  L 2272 0  L 1638 0  L 1638 4134  L -19 4134  L -19 4666  z "
               transform="scale(0.015625)" />
            <path
               id="DejaVuSans-4d"
               d="M 628 4666  L 1569 4666  L 2759 1491  L 3956 4666  L 4897 4666  L 4897 0  L 4281 0  L 4281 4097  L 3078 897  L 2444 897  L 1241 4097  L 1241 0  L 628 0  L 628 4666  z "
               transform="scale(0.015625)" />
          </defs>
          <use
             xlink:href="#DejaVuSans-4c"
             id="use100" />
          <use
             xlink:href="#DejaVuSans-53"
             x="55.712891"
             id="use102" />
          <use
             xlink:href="#DejaVuSans-54"
             x="119.189453"
             id="use104" />
          <use
             xlink:href="#DejaVuSans-4d"
             x="180.273438"
             id="use106" />
        </g>
      </g>
      <g
         id="text_3">
        <g
           id="patch_4">
          <path
             d="M 691.584483 281.995963  L 802.541553 281.995963  L 802.541553 263.427898  L 691.584483 263.427898  z "
             style="fill: #ffffff; opacity: 0.78"
             id="path111" />
        </g>
        <!-- random forest -->
        <g
           style="fill: #333333"
           transform="translate(693.550458 276.884901) scale(0.151229 -0.151229)"
           id="g146">
          <defs
             id="defs118">
            <path
               id="DejaVuSans-64"
               d="M 2906 2969  L 2906 4863  L 3481 4863  L 3481 0  L 2906 0  L 2906 525  Q 2725 213 2448 61  Q 2172 -91 1784 -91  Q 1150 -91 751 415  Q 353 922 353 1747  Q 353 2572 751 3078  Q 1150 3584 1784 3584  Q 2172 3584 2448 3432  Q 2725 3281 2906 2969  z M 947 1747  Q 947 1113 1208 752  Q 1469 391 1925 391  Q 2381 391 2643 752  Q 2906 1113 2906 1747  Q 2906 2381 2643 2742  Q 2381 3103 1925 3103  Q 1469 3103 1208 2742  Q 947 2381 947 1747  z "
               transform="scale(0.015625)" />
            <path
               id="DejaVuSans-6d"
               d="M 3328 2828  Q 3544 3216 3844 3400  Q 4144 3584 4550 3584  Q 5097 3584 5394 3201  Q 5691 2819 5691 2113  L 5691 0  L 5113 0  L 5113 2094  Q 5113 2597 4934 2840  Q 4756 3084 4391 3084  Q 3944 3084 3684 2787  Q 3425 2491 3425 1978  L 3425 0  L 2847 0  L 2847 2094  Q 2847 2600 2669 2842  Q 2491 3084 2119 3084  Q 1678 3084 1418 2786  Q 1159 2488 1159 1978  L 1159 0  L 581 0  L 581 3500  L 1159 3500  L 1159 2956  Q 1356 3278 1631 3431  Q 1906 3584 2284 3584  Q 2666 3584 2933 3390  Q 3200 3197 3328 2828  z "
               transform="scale(0.015625)" />
            <path
               id="DejaVuSans-66"
               d="M 2375 4863  L 2375 4384  L 1825 4384  Q 1516 4384 1395 4259  Q 1275 4134 1275 3809  L 1275 3500  L 2222 3500  L 2222 3053  L 1275 3053  L 1275 0  L 697 0  L 697 3053  L 147 3053  L 147 3500  L 697 3500  L 697 3744  Q 697 4328 969 4595  Q 1241 4863 1831 4863  L 2375 4863  z "
               transform="scale(0.015625)" />
            <path
               id="DejaVuSans-73"
               d="M 2834 3397  L 2834 2853  Q 2591 2978 2328 3040  Q 2066 3103 1784 3103  Q 1356 3103 1142 2972  Q 928 2841 928 2578  Q 928 2378 1081 2264  Q 1234 2150 1697 2047  L 1894 2003  Q 2506 1872 2764 1633  Q 3022 1394 3022 966  Q 3022 478 2636 193  Q 2250 -91 1575 -91  Q 1294 -91 989 -36  Q 684 19 347 128  L 347 722  Q 666 556 975 473  Q 1284 391 1588 391  Q 1994 391 2212 530  Q 2431 669 2431 922  Q 2431 1156 2273 1281  Q 2116 1406 1581 1522  L 1381 1569  Q 847 1681 609 1914  Q 372 2147 372 2553  Q 372 3047 722 3315  Q 1072 3584 1716 3584  Q 2034 3584 2315 3537  Q 2597 3491 2834 3397  z "
               transform="scale(0.015625)" />
          </defs>
          <use
             xlink:href="#DejaVuSans-72"
             id="use120" />
          <use
             xlink:href="#DejaVuSans-61"
             x="41.113281"
             id="use122" />
          <use
             xlink:href="#DejaVuSans-6e"
             x="102.392578"
             id="use124" />
          <use
             xlink:href="#DejaVuSans-64"
             x="165.771484"
             id="use126" />
          <use
             xlink:href="#DejaVuSans-6f"
             x="229.248047"
             id="use128" />
          <use
             xlink:href="#DejaVuSans-6d"
             x="290.429688"
             id="use130" />
          <use
             xlink:href="#DejaVuSans-20"
             x="387.841797"
             id="use132" />
          <use
             xlink:href="#DejaVuSans-66"
             x="419.628906"
             id="use134" />
          <use
             xlink:href="#DejaVuSans-6f"
             x="454.833984"
             id="use136" />
          <use
             xlink:href="#DejaVuSans-72"
             x="516.015625"
             id="use138" />
          <use
             xlink:href="#DejaVuSans-65"
             x="554.878906"
             id="use140" />
          <use
             xlink:href="#DejaVuSans-73"
             x="616.402344"
             id="use142" />
          <use
             xlink:href="#DejaVuSans-74"
             x="668.501953"
             id="use144" />
        </g>
      </g>
      <g
         id="text_4">
        <g
           id="patch_5">
          <path
             d="M 755.173587 463.200719  L 836.104433 463.200719  L 836.104433 444.799281  L 755.173587 444.799281  z "
             style="fill: #ffffff; opacity: 0.78"
             id="path149" />
        </g>
        <!-- regression -->
        <g
           style="fill: #333333"
           transform="translate(757.238161 458.069239) scale(0.14747 -0.14747)"
           id="g176">
          <defs
             id="defs154">
            <path
               id="DejaVuSans-67"
               d="M 2906 1791  Q 2906 2416 2648 2759  Q 2391 3103 1925 3103  Q 1463 3103 1205 2759  Q 947 2416 947 1791  Q 947 1169 1205 825  Q 1463 481 1925 481  Q 2391 481 2648 825  Q 2906 1169 2906 1791  z M 3481 434  Q 3481 -459 3084 -895  Q 2688 -1331 1869 -1331  Q 1566 -1331 1297 -1286  Q 1028 -1241 775 -1147  L 775 -588  Q 1028 -725 1275 -790  Q 1522 -856 1778 -856  Q 2344 -856 2625 -561  Q 2906 -266 2906 331  L 2906 616  Q 2728 306 2450 153  Q 2172 0 1784 0  Q 1141 0 747 490  Q 353 981 353 1791  Q 353 2603 747 3093  Q 1141 3584 1784 3584  Q 2172 3584 2450 3431  Q 2728 3278 2906 2969  L 2906 3500  L 3481 3500  L 3481 434  z "
               transform="scale(0.015625)" />
            <path
               id="DejaVuSans-69"
               d="M 603 3500  L 1178 3500  L 1178 0  L 603 0  L 603 3500  z M 603 4863  L 1178 4863  L 1178 4134  L 603 4134  L 603 4863  z "
               transform="scale(0.015625)" />
          </defs>
          <use
             xlink:href="#DejaVuSans-72"
             id="use156" />
          <use
             xlink:href="#DejaVuSans-65"
             x="38.863281"
             id="use158" />
          <use
             xlink:href="#DejaVuSans-67"
             x="100.386719"
             id="use160" />
          <use
             xlink:href="#DejaVuSans-72"
             x="163.863281"
             id="use162" />
          <use
             xlink:href="#DejaVuSans-65"
             x="202.726562"
             id="use164" />
          <use
             xlink:href="#DejaVuSans-73"
             x="264.25"
             id="use166" />
          <use
             xlink:href="#DejaVuSans-73"
             x="316.349609"
             id="use168" />
          <use
             xlink:href="#DejaVuSans-69"
             x="368.449219"
             id="use170" />
          <use
             xlink:href="#DejaVuSans-6f"
             x="396.232422"
             id="use172" />
          <use
             xlink:href="#DejaVuSans-6e"
             x="457.414062"
             id="use174" />
        </g>
      </g>
      <g
         id="text_5">
        <g
           id="patch_6">
          <path
             d="M 659.404354 644.235895  L 834.721681 644.235895  L 834.721681 626.340244  L 659.404354 626.340244  z "
             style="fill: #ffffff; opacity: 0.78"
             id="path179" />
        </g>
        <!-- support vector machine -->
        <g
           style="fill: #333333"
           transform="translate(661.412181 639.24546) scale(0.143416 -0.143416)"
           id="g232">
          <defs
             id="defs186">
            <path
               id="DejaVuSans-70"
               d="M 1159 525  L 1159 -1331  L 581 -1331  L 581 3500  L 1159 3500  L 1159 2969  Q 1341 3281 1617 3432  Q 1894 3584 2278 3584  Q 2916 3584 3314 3078  Q 3713 2572 3713 1747  Q 3713 922 3314 415  Q 2916 -91 2278 -91  Q 1894 -91 1617 61  Q 1341 213 1159 525  z M 3116 1747  Q 3116 2381 2855 2742  Q 2594 3103 2138 3103  Q 1681 3103 1420 2742  Q 1159 2381 1159 1747  Q 1159 1113 1420 752  Q 1681 391 2138 391  Q 2594 391 2855 752  Q 3116 1113 3116 1747  z "
               transform="scale(0.015625)" />
            <path
               id="DejaVuSans-76"
               d="M 191 3500  L 800 3500  L 1894 563  L 2988 3500  L 3597 3500  L 2284 0  L 1503 0  L 191 3500  z "
               transform="scale(0.015625)" />
            <path
               id="DejaVuSans-63"
               d="M 3122 3366  L 3122 2828  Q 2878 2963 2633 3030  Q 2388 3097 2138 3097  Q 1578 3097 1268 2742  Q 959 2388 959 1747  Q 959 1106 1268 751  Q 1578 397 2138 397  Q 2388 397 2633 464  Q 2878 531 3122 666  L 3122 134  Q 2881 22 2623 -34  Q 2366 -91 2075 -91  Q 1284 -91 818 406  Q 353 903 353 1747  Q 353 2603 823 3093  Q 1294 3584 2113 3584  Q 2378 3584 2631 3529  Q 2884 3475 3122 3366  z "
               transform="scale(0.015625)" />
            <path
               id="DejaVuSans-68"
               d="M 3513 2113  L 3513 0  L 2938 0  L 2938 2094  Q 2938 2591 2744 2837  Q 2550 3084 2163 3084  Q 1697 3084 1428 2787  Q 1159 2491 1159 1978  L 1159 0  L 581 0  L 581 4863  L 1159 4863  L 1159 2956  Q 1366 3272 1645 3428  Q 1925 3584 2291 3584  Q 2894 3584 3203 3211  Q 3513 2838 3513 2113  z "
               transform="scale(0.015625)" />
          </defs>
          <use
             xlink:href="#DejaVuSans-73"
             id="use188" />
          <use
             xlink:href="#DejaVuSans-75"
             x="52.099609"
             id="use190" />
          <use
             xlink:href="#DejaVuSans-70"
             x="115.478516"
             id="use192" />
          <use
             xlink:href="#DejaVuSans-70"
             x="178.955078"
             id="use194" />
          <use
             xlink:href="#DejaVuSans-6f"
             x="242.431641"
             id="use196" />
          <use
             xlink:href="#DejaVuSans-72"
             x="303.613281"
             id="use198" />
          <use
             xlink:href="#DejaVuSans-74"
             x="344.726562"
             id="use200" />
          <use
             xlink:href="#DejaVuSans-20"
             x="383.935547"
             id="use202" />
          <use
             xlink:href="#DejaVuSans-76"
             x="415.722656"
             id="use204" />
          <use
             xlink:href="#DejaVuSans-65"
             x="474.902344"
             id="use206" />
          <use
             xlink:href="#DejaVuSans-63"
             x="536.425781"
             id="use208" />
          <use
             xlink:href="#DejaVuSans-74"
             x="591.40625"
             id="use210" />
          <use
             xlink:href="#DejaVuSans-6f"
             x="630.615234"
             id="use212" />
          <use
             xlink:href="#DejaVuSans-72"
             x="691.796875"
             id="use214" />
          <use
             xlink:href="#DejaVuSans-20"
             x="732.910156"
             id="use216" />
          <use
             xlink:href="#DejaVuSans-6d"
             x="764.697266"
             id="use218" />
          <use
             xlink:href="#DejaVuSans-61"
             x="862.109375"
             id="use220" />
          <use
             xlink:href="#DejaVuSans-63"
             x="923.388672"
             id="use222" />
          <use
             xlink:href="#DejaVuSans-68"
             x="978.369141"
             id="use224" />
          <use
             xlink:href="#DejaVuSans-69"
             x="1041.748047"
             id="use226" />
          <use
             xlink:href="#DejaVuSans-6e"
             x="1069.53125"
             id="use228" />
          <use
             xlink:href="#DejaVuSans-65"
             x="1132.910156"
             id="use230" />
        </g>
      </g>
      <g
         id="text_6">
        <g
           id="patch_7">
          <path
             d="M 597.062241 776.718185  L 631.639639 776.718185  L 631.639639 759.282111  L 597.062241 759.282111  z "
             style="fill: #ffffff; opacity: 0.78"
             id="path235" />
        </g>
        <!-- CNN -->
        <g
           style="fill: #333333"
           transform="translate(599.018505 771.855908) scale(0.139733 -0.139733)"
           id="g248">
          <defs
             id="defs240">
            <path
               id="DejaVuSans-43"
               d="M 4122 4306  L 4122 3641  Q 3803 3938 3442 4084  Q 3081 4231 2675 4231  Q 1875 4231 1450 3742  Q 1025 3253 1025 2328  Q 1025 1406 1450 917  Q 1875 428 2675 428  Q 3081 428 3442 575  Q 3803 722 4122 1019  L 4122 359  Q 3791 134 3420 21  Q 3050 -91 2638 -91  Q 1578 -91 968 557  Q 359 1206 359 2328  Q 359 3453 968 4101  Q 1578 4750 2638 4750  Q 3056 4750 3426 4639  Q 3797 4528 4122 4306  z "
               transform="scale(0.015625)" />
            <path
               id="DejaVuSans-4e"
               d="M 628 4666  L 1478 4666  L 3547 763  L 3547 4666  L 4159 4666  L 4159 0  L 3309 0  L 1241 3903  L 1241 0  L 628 0  L 628 4666  z "
               transform="scale(0.015625)" />
          </defs>
          <use
             xlink:href="#DejaVuSans-43"
             id="use242" />
          <use
             xlink:href="#DejaVuSans-4e"
             x="69.824219"
             id="use244" />
          <use
             xlink:href="#DejaVuSans-4e"
             x="144.628906"
             id="use246" />
        </g>
      </g>
      <g
         id="text_7">
        <g
           id="patch_8">
          <path
             d="M 416.428377 825.078866  L 449.697363 825.078866  L 449.697363 808.073413  L 416.428377 808.073413  z "
             style="fill: #ffffff; opacity: 0.78"
             id="path251" />
        </g>
        <!-- ANN -->
        <g
           style="fill: #333333"
           transform="translate(418.440361 820.277351) scale(0.134132 -0.134132)"
           id="g263">
          <defs
             id="defs255">
            <path
               id="DejaVuSans-41"
               d="M 2188 4044  L 1331 1722  L 3047 1722  L 2188 4044  z M 1831 4666  L 2547 4666  L 4325 0  L 3669 0  L 3244 1197  L 1141 1197  L 716 0  L 50 0  L 1831 4666  z "
               transform="scale(0.015625)" />
          </defs>
          <use
             xlink:href="#DejaVuSans-41"
             id="use257" />
          <use
             xlink:href="#DejaVuSans-4e"
             x="68.408203"
             id="use259" />
          <use
             xlink:href="#DejaVuSans-4e"
             x="143.212891"
             id="use261" />
        </g>
      </g>
      <g
         id="text_8">
        <g
           id="patch_9">
          <path
             d="M 193.767294 776.286791  L 309.782307 776.286791  L 309.782307 759.713505  L 193.767294 759.713505  z "
             style="fill: #ffffff; opacity: 0.78"
             id="path266" />
        </g>
        <!-- machine learning -->
        <g
           style="fill: #333333"
           transform="translate(195.826387 771.551279) scale(0.128693 -0.128693)"
           id="g301">
          <use
             xlink:href="#DejaVuSans-6d"
             id="use269" />
          <use
             xlink:href="#DejaVuSans-61"
             x="97.412109"
             id="use271" />
          <use
             xlink:href="#DejaVuSans-63"
             x="158.691406"
             id="use273" />
          <use
             xlink:href="#DejaVuSans-68"
             x="213.671875"
             id="use275" />
          <use
             xlink:href="#DejaVuSans-69"
             x="277.050781"
             id="use277" />
          <use
             xlink:href="#DejaVuSans-6e"
             x="304.833984"
             id="use279" />
          <use
             xlink:href="#DejaVuSans-65"
             x="368.212891"
             id="use281" />
          <use
             xlink:href="#DejaVuSans-20"
             x="429.736328"
             id="use283" />
          <use
             xlink:href="#DejaVuSans-6c"
             x="461.523438"
             id="use285" />
          <use
             xlink:href="#DejaVuSans-65"
             x="489.306641"
             id="use287" />
          <use
             xlink:href="#DejaVuSans-61"
             x="550.830078"
             id="use289" />
          <use
             xlink:href="#DejaVuSans-72"
             x="612.109375"
             id="use291" />
          <use
             xlink:href="#DejaVuSans-6e"
             x="651.472656"
             id="use293" />
          <use
             xlink:href="#DejaVuSans-69"
             x="714.851562"
             id="use295" />
          <use
             xlink:href="#DejaVuSans-6e"
             x="742.634766"
             id="use297" />
          <use
             xlink:href="#DejaVuSans-67"
             x="806.013672"
             id="use299" />
        </g>
      </g>
      <g
         id="text_9">
        <g
           id="patch_10">
          <path
             d="M 105.311305 643.313219  L 132.81414 643.313219  L 132.81414 627.26292  L 105.311305 627.26292  z "
             style="fill: #ffffff; opacity: 0.78"
             id="path304" />
        </g>
        <!-- mlp -->
        <g
           style="fill: #333333"
           transform="translate(107.305421 638.727141) scale(0.124632 -0.124632)"
           id="g313">
          <use
             xlink:href="#DejaVuSans-6d"
             id="use307" />
          <use
             xlink:href="#DejaVuSans-6c"
             x="97.412109"
             id="use309" />
          <use
             xlink:href="#DejaVuSans-70"
             x="125.195312"
             id="use311" />
        </g>
      </g>
      <g
         id="text_10">
        <g
           id="patch_11">
          <path
             d="M 20.303375 461.548607  L 120.670087 461.548607  L 120.670087 446.451393  L 20.303375 446.451393  z "
             style="fill: #ffffff; opacity: 0.78"
             id="path316" />
        </g>
        <!-- linear regression -->
        <g
           style="fill: #333333"
           transform="translate(22.265832 457.185386) scale(0.115439 -0.115439)"
           id="g353">
          <use
             xlink:href="#DejaVuSans-6c"
             id="use319" />
          <use
             xlink:href="#DejaVuSans-69"
             x="27.783203"
             id="use321" />
          <use
             xlink:href="#DejaVuSans-6e"
             x="55.566406"
             id="use323" />
          <use
             xlink:href="#DejaVuSans-65"
             x="118.945312"
             id="use325" />
          <use
             xlink:href="#DejaVuSans-61"
             x="180.46875"
             id="use327" />
          <use
             xlink:href="#DejaVuSans-72"
             x="241.748047"
             id="use329" />
          <use
             xlink:href="#DejaVuSans-20"
             x="282.861328"
             id="use331" />
          <use
             xlink:href="#DejaVuSans-72"
             x="314.648438"
             id="use333" />
          <use
             xlink:href="#DejaVuSans-65"
             x="353.511719"
             id="use335" />
          <use
             xlink:href="#DejaVuSans-67"
             x="415.035156"
             id="use337" />
          <use
             xlink:href="#DejaVuSans-72"
             x="478.511719"
             id="use339" />
          <use
             xlink:href="#DejaVuSans-65"
             x="517.375"
             id="use341" />
          <use
             xlink:href="#DejaVuSans-73"
             x="578.898438"
             id="use343" />
          <use
             xlink:href="#DejaVuSans-73"
             x="630.998047"
             id="use345" />
          <use
             xlink:href="#DejaVuSans-69"
             x="683.097656"
             id="use347" />
          <use
             xlink:href="#DejaVuSans-6f"
             x="710.880859"
             id="use349" />
          <use
             xlink:href="#DejaVuSans-6e"
             x="772.0625"
             id="use351" />
        </g>
      </g>
      <g
         id="text_11">
        <g
           id="patch_12">
          <path
             d="M 79.864078 280.260537  L 158.261367 280.260537  L 158.261367 265.163323  L 79.864078 265.163323  z "
             style="fill: #ffffff; opacity: 0.78"
             id="path356" />
        </g>
        <!-- decision tree -->
        <g
           style="fill: #333333"
           transform="translate(81.826535 275.897316) scale(0.115439 -0.115439)"
           id="g385">
          <use
             xlink:href="#DejaVuSans-64"
             id="use359" />
          <use
             xlink:href="#DejaVuSans-65"
             x="63.476562"
             id="use361" />
          <use
             xlink:href="#DejaVuSans-63"
             x="125"
             id="use363" />
          <use
             xlink:href="#DejaVuSans-69"
             x="179.980469"
             id="use365" />
          <use
             xlink:href="#DejaVuSans-73"
             x="207.763672"
             id="use367" />
          <use
             xlink:href="#DejaVuSans-69"
             x="259.863281"
             id="use369" />
          <use
             xlink:href="#DejaVuSans-6f"
             x="287.646484"
             id="use371" />
          <use
             xlink:href="#DejaVuSans-6e"
             x="348.828125"
             id="use373" />
          <use
             xlink:href="#DejaVuSans-20"
             x="412.207031"
             id="use375" />
          <use
             xlink:href="#DejaVuSans-74"
             x="443.994141"
             id="use377" />
          <use
             xlink:href="#DejaVuSans-72"
             x="483.203125"
             id="use379" />
          <use
             xlink:href="#DejaVuSans-65"
             x="522.066406"
             id="use381" />
          <use
             xlink:href="#DejaVuSans-65"
             x="583.589844"
             id="use383" />
        </g>
      </g>
      <g
         id="text_12">
        <g
           id="patch_13">
          <path
             d="M 238.739644 146.838915  L 264.809957 146.838915  L 264.809957 133.16079  L 238.739644 133.16079  z "
             style="fill: #ffffff; opacity: 0.78"
             id="path388" />
        </g>
        <!-- GAN -->
        <g
           style="fill: #333333"
           transform="translate(240.739644 142.759227) scale(0.1 -0.1)"
           id="g400">
          <defs
             id="defs392">
            <path
               id="DejaVuSans-47"
               d="M 3809 666  L 3809 1919  L 2778 1919  L 2778 2438  L 4434 2438  L 4434 434  Q 4069 175 3628 42  Q 3188 -91 2688 -91  Q 1594 -91 976 548  Q 359 1188 359 2328  Q 359 3472 976 4111  Q 1594 4750 2688 4750  Q 3144 4750 3555 4637  Q 3966 4525 4313 4306  L 4313 3634  Q 3963 3931 3569 4081  Q 3175 4231 2741 4231  Q 1884 4231 1454 3753  Q 1025 3275 1025 2328  Q 1025 1384 1454 906  Q 1884 428 2741 428  Q 3075 428 3337 486  Q 3600 544 3809 666  z "
               transform="scale(0.015625)" />
          </defs>
          <use
             xlink:href="#DejaVuSans-47"
             id="use394" />
          <use
             xlink:href="#DejaVuSans-41"
             x="77.490234"
             id="use396" />
          <use
             xlink:href="#DejaVuSans-4e"
             x="145.898438"
             id="use398" />
        </g>
      </g>
      <g
         id="text_13">
        <!-- AI methods: Water Management -->
        <g
           style="fill: #2a5f7f"
           transform="translate(287.299433 24.8) scale(0.18 -0.18)"
           id="g464">
          <defs
             id="defs406">
            <path
               id="DejaVuSans-49"
               d="M 628 4666  L 1259 4666  L 1259 0  L 628 0  L 628 4666  z "
               transform="scale(0.015625)" />
            <path
               id="DejaVuSans-3a"
               d="M 750 794  L 1409 794  L 1409 0  L 750 0  L 750 794  z M 750 3309  L 1409 3309  L 1409 2516  L 750 2516  L 750 3309  z "
               transform="scale(0.015625)" />
            <path
               id="DejaVuSans-57"
               d="M 213 4666  L 850 4666  L 1831 722  L 2809 4666  L 3519 4666  L 4500 722  L 5478 4666  L 6119 4666  L 4947 0  L 4153 0  L 3169 4050  L 2175 0  L 1381 0  L 213 4666  z "
               transform="scale(0.015625)" />
          </defs>
          <use
             xlink:href="#DejaVuSans-41"
             id="use408" />
          <use
             xlink:href="#DejaVuSans-49"
             x="68.408203"
             id="use410" />
          <use
             xlink:href="#DejaVuSans-20"
             x="97.900391"
             id="use412" />
          <use
             xlink:href="#DejaVuSans-6d"
             x="129.6875"
             id="use414" />
          <use
             xlink:href="#DejaVuSans-65"
             x="227.099609"
             id="use416" />
          <use
             xlink:href="#DejaVuSans-74"
             x="288.623047"
             id="use418" />
          <use
             xlink:href="#DejaVuSans-68"
             x="327.832031"
             id="use420" />
          <use
             xlink:href="#DejaVuSans-6f"
             x="391.210938"
             id="use422" />
          <use
             xlink:href="#DejaVuSans-64"
             x="452.392578"
             id="use424" />
          <use
             xlink:href="#DejaVuSans-73"
             x="515.869141"
             id="use426" />
          <use
             xlink:href="#DejaVuSans-3a"
             x="567.96875"
             id="use428" />
          <use
             xlink:href="#DejaVuSans-20"
             x="601.660156"
             id="use430" />
          <use
             xlink:href="#DejaVuSans-57"
             x="633.447266"
             id="use432" />
          <use
             xlink:href="#DejaVuSans-61"
             x="725.949219"
             id="use434" />
          <use
             xlink:href="#DejaVuSans-74"
             x="787.228516"
             id="use436" />
          <use
             xlink:href="#DejaVuSans-65"
             x="826.4375"
             id="use438" />
          <use
             xlink:href="#DejaVuSans-72"
             x="887.960938"
             id="use440" />
          <use
             xlink:href="#DejaVuSans-20"
             x="929.074219"
             id="use442" />
          <use
             xlink:href="#DejaVuSans-4d"
             x="960.861328"
             id="use444" />
          <use
             xlink:href="#DejaVuSans-61"
             x="1047.140625"
             id="use446" />
          <use
             xlink:href="#DejaVuSans-6e"
             x="1108.419922"
             id="use448" />
          <use
             xlink:href="#DejaVuSans-61"
             x="1171.798828"
             id="use450" />
          <use
             xlink:href="#DejaVuSans-67"
             x="1233.078125"
             id="use452" />
          <use
             xlink:href="#DejaVuSans-65"
             x="1296.554688"
             id="use454" />
          <use
             xlink:href="#DejaVuSans-6d"
             x="1358.078125"
             id="use456" />
          <use
             xlink:href="#DejaVuSans-65"
             x="1455.490234"
             id="use458" />
          <use
             xlink:href="#DejaVuSans-6e"
             x="1517.013672"
             id="use460" />
          <use
             xlink:href="#DejaVuSans-74"
             x="1580.392578"
             id="use462" />
        </g>
      </g>
      <g
         id="text_14">
        <g
           id="patch_14">
          <path
             d="M 329.20287 435.540031  L 536.92287 435.540031  L 536.92287 410.199406  L 329.20287 410.199406  z "
             style="fill: #ffffff; opacity: 0.85"
             id="path467" />
        </g>
        <!-- Water Management -->
        <g
           style="fill: #2a5f7f"
           transform="translate(333.16287 427.695969) scale(0.18 -0.18)"
           id="g514">
          <defs
             id="defs480">
            <path
               id="DejaVuSans-Bold-57"
               d="M 191 4666  L 1344 4666  L 2150 1275  L 2950 4666  L 4109 4666  L 4909 1275  L 5716 4666  L 6859 4666  L 5759 0  L 4372 0  L 3525 3547  L 2688 0  L 1300 0  L 191 4666  z "
               transform="scale(0.015625)" />
            <path
               id="DejaVuSans-Bold-61"
               d="M 2106 1575  Q 1756 1575 1579 1456  Q 1403 1338 1403 1106  Q 1403 894 1545 773  Q 1688 653 1941 653  Q 2256 653 2472 879  Q 2688 1106 2688 1447  L 2688 1575  L 2106 1575  z M 3816 1997  L 3816 0  L 2688 0  L 2688 519  Q 2463 200 2181 54  Q 1900 -91 1497 -91  Q 953 -91 614 226  Q 275 544 275 1050  Q 275 1666 698 1953  Q 1122 2241 2028 2241  L 2688 2241  L 2688 2328  Q 2688 2594 2478 2717  Q 2269 2841 1825 2841  Q 1466 2841 1156 2769  Q 847 2697 581 2553  L 581 3406  Q 941 3494 1303 3539  Q 1666 3584 2028 3584  Q 2975 3584 3395 3211  Q 3816 2838 3816 1997  z "
               transform="scale(0.015625)" />
            <path
               id="DejaVuSans-Bold-74"
               d="M 1759 4494  L 1759 3500  L 2913 3500  L 2913 2700  L 1759 2700  L 1759 1216  Q 1759 972 1856 886  Q 1953 800 2241 800  L 2816 800  L 2816 0  L 1856 0  Q 1194 0 917 276  Q 641 553 641 1216  L 641 2700  L 84 2700  L 84 3500  L 641 3500  L 641 4494  L 1759 4494  z "
               transform="scale(0.015625)" />
            <path
               id="DejaVuSans-Bold-65"
               d="M 4031 1759  L 4031 1441  L 1416 1441  Q 1456 1047 1700 850  Q 1944 653 2381 653  Q 2734 653 3104 758  Q 3475 863 3866 1075  L 3866 213  Q 3469 63 3072 -14  Q 2675 -91 2278 -91  Q 1328 -91 801 392  Q 275 875 275 1747  Q 275 2603 792 3093  Q 1309 3584 2216 3584  Q 3041 3584 3536 3087  Q 4031 2591 4031 1759  z M 2881 2131  Q 2881 2450 2695 2645  Q 2509 2841 2209 2841  Q 1884 2841 1681 2658  Q 1478 2475 1428 2131  L 2881 2131  z "
               transform="scale(0.015625)" />
            <path
               id="DejaVuSans-Bold-72"
               d="M 3138 2547  Q 2991 2616 2845 2648  Q 2700 2681 2553 2681  Q 2122 2681 1889 2404  Q 1656 2128 1656 1613  L 1656 0  L 538 0  L 538 3500  L 1656 3500  L 1656 2925  Q 1872 3269 2151 3426  Q 2431 3584 2822 3584  Q 2878 3584 2943 3579  Q 3009 3575 3134 3559  L 3138 2547  z "
               transform="scale(0.015625)" />
            <path
               id="DejaVuSans-Bold-20"
               transform="scale(0.015625)" />
            <path
               id="DejaVuSans-Bold-4d"
               d="M 588 4666  L 2119 4666  L 3181 2169  L 4250 4666  L 5778 4666  L 5778 0  L 4641 0  L 4641 3413  L 3566 897  L 2803 897  L 1728 3413  L 1728 0  L 588 0  L 588 4666  z "
               transform="scale(0.015625)" />
            <path
               id="DejaVuSans-Bold-6e"
               d="M 4056 2131  L 4056 0  L 2931 0  L 2931 347  L 2931 1631  Q 2931 2084 2911 2256  Q 2891 2428 2841 2509  Q 2775 2619 2662 2680  Q 2550 2741 2406 2741  Q 2056 2741 1856 2470  Q 1656 2200 1656 1722  L 1656 0  L 538 0  L 538 3500  L 1656 3500  L 1656 2988  Q 1909 3294 2193 3439  Q 2478 3584 2822 3584  Q 3428 3584 3742 3212  Q 4056 2841 4056 2131  z "
               transform="scale(0.015625)" />
            <path
               id="DejaVuSans-Bold-67"
               d="M 2919 594  Q 2688 288 2409 144  Q 2131 0 1766 0  Q 1125 0 706 504  Q 288 1009 288 1791  Q 288 2575 706 3076  Q 1125 3578 1766 3578  Q 2131 3578 2409 3434  Q 2688 3291 2919 2981  L 2919 3500  L 4044 3500  L 4044 353  Q 4044 -491 3511 -936  Q 2978 -1381 1966 -1381  Q 1638 -1381 1331 -1331  Q 1025 -1281 716 -1178  L 716 -306  Q 1009 -475 1290 -558  Q 1572 -641 1856 -641  Q 2406 -641 2662 -400  Q 2919 -159 2919 353  L 2919 594  z M 2181 2772  Q 1834 2772 1640 2515  Q 1447 2259 1447 1791  Q 1447 1309 1634 1061  Q 1822 813 2181 813  Q 2531 813 2725 1069  Q 2919 1325 2919 1791  Q 2919 2259 2725 2515  Q 2531 2772 2181 2772  z "
               transform="scale(0.015625)" />
            <path
               id="DejaVuSans-Bold-6d"
               d="M 3781 2919  Q 3994 3244 4286 3414  Q 4578 3584 4928 3584  Q 5531 3584 5847 3212  Q 6163 2841 6163 2131  L 6163 0  L 5038 0  L 5038 1825  Q 5041 1866 5042 1909  Q 5044 1953 5044 2034  Q 5044 2406 4934 2573  Q 4825 2741 4581 2741  Q 4263 2741 4089 2478  Q 3916 2216 3909 1719  L 3909 0  L 2784 0  L 2784 1825  Q 2784 2406 2684 2573  Q 2584 2741 2328 2741  Q 2006 2741 1831 2477  Q 1656 2213 1656 1722  L 1656 0  L 531 0  L 531 3500  L 1656 3500  L 1656 2988  Q 1863 3284 2130 3434  Q 2397 3584 2719 3584  Q 3081 3584 3359 3409  Q 3638 3234 3781 2919  z "
               transform="scale(0.015625)" />
          </defs>
          <use
             xlink:href="#DejaVuSans-Bold-57"
             id="use482" />
          <use
             xlink:href="#DejaVuSans-Bold-61"
             x="106.677734"
             id="use484" />
          <use
             xlink:href="#DejaVuSans-Bold-74"
             x="174.158203"
             id="use486" />
          <use
             xlink:href="#DejaVuSans-Bold-65"
             x="221.960938"
             id="use488" />
          <use
             xlink:href="#DejaVuSans-Bold-72"
             x="289.783203"
             id="use490" />
          <use
             xlink:href="#DejaVuSans-Bold-20"
             x="339.099609"
             id="use492" />
          <use
             xlink:href="#DejaVuSans-Bold-4d"
             x="373.914062"
             id="use494" />
          <use
             xlink:href="#DejaVuSans-Bold-61"
             x="473.425781"
             id="use496" />
          <use
             xlink:href="#DejaVuSans-Bold-6e"
             x="540.90625"
             id="use498" />
          <use
             xlink:href="#DejaVuSans-Bold-61"
             x="612.097656"
             id="use500" />
          <use
             xlink:href="#DejaVuSans-Bold-67"
             x="679.578125"
             id="use502" />
          <use
             xlink:href="#DejaVuSans-Bold-65"
             x="751.160156"
             id="use504" />
          <use
             xlink:href="#DejaVuSans-Bold-6d"
             x="818.982422"
             id="use506" />
          <use
             xlink:href="#DejaVuSans-Bold-65"
             x="923.181641"
             id="use508" />
          <use
             xlink:href="#DejaVuSans-Bold-6e"
             x="991.003906"
             id="use510" />
          <use
             xlink:href="#DejaVuSans-Bold-74"
             x="1062.195312"
             id="use512" />
        </g>
      </g>
    </g>
  </g>
  <defs
     id="defs522">
    <clipPath
       id="p5b21c8b773">
      <path
         d="M 832.26287 454  C 832.26287 401.577536 821.936788 349.664815 801.87558 301.232774  C 781.814371 252.800733 752.408177 208.791253 715.339897 171.722973  C 678.271618 134.654693 634.262138 105.248499 585.830096 85.187291  C 537.398055 65.126082 485.485334 54.8 433.06287 54.8  C 380.640406 54.8 328.727685 65.126082 280.295644 85.187291  C 231.863603 105.248499 187.854123 134.654693 150.785843 171.722973  C 113.717564 208.791253 84.311369 252.800733 64.250161 301.232774  C 44.188952 349.664815 33.86287 401.577536 33.86287 454  C 33.86287 506.422464 44.188952 558.335185 64.250161 606.767226  C 84.311369 655.199267 113.717564 699.208747 150.785843 736.277027  C 187.854123 773.345307 231.863603 802.751501 280.295644 822.812709  C 328.727685 842.873918 380.640406 853.2 433.06287 853.2  C 485.485334 853.2 537.398055 842.873918 585.830096 822.812709  C 634.262138 802.751501 678.271618 773.345307 715.339897 736.277027  C 752.408177 699.208747 781.814371 655.199267 801.87558 606.767226  C 821.936788 558.335185 832.26287 506.422464 832.26287 454  M 433.06287 454  C 433.06287 454 433.06287 454 433.06287 454  C 433.06287 454 433.06287 454 433.06287 454  C 433.06287 454 433.06287 454 433.06287 454  C 433.06287 454 433.06287 454 433.06287 454  C 433.06287 454 433.06287 454 433.06287 454  C 433.06287 454 433.06287 454 433.06287 454  C 433.06287 454 433.06287 454 433.06287 454  C 433.06287 454 433.06287 454 433.06287 454  C 433.06287 454 433.06287 454 433.06287 454  C 433.06287 454 433.06287 454 433.06287 454  C 433.06287 454 433.06287 454 433.06287 454  C 433.06287 454 433.06287 454 433.06287 454  C 433.06287 454 433.06287 454 433.06287 454  C 433.06287 454 433.06287 454 433.06287 454  C 433.06287 454 433.06287 454 433.06287 454  C 433.06287 454 433.06287 454 433.06287 454  z "
         id="path519" />
    </clipPath>
  </defs>
</svg>
