<?xml version="1.0" encoding="UTF-8" standalone="no"?>
<svg
   xmlns:dc="http://purl.org/dc/elements/1.1/"
   xmlns:cc="http://creativecommons.org/ns#"
   xmlns:rdf="http://www.w3.org/1999/02/22-rdf-syntax-ns#"
   xmlns:svg="http://www.w3.org/2000/svg"
   xmlns="http://www.w3.org/2000/svg"
   xmlns:xlink="http://www.w3.org/1999/xlink"
   xmlns:sodipodi="http://sodipodi.sourceforge.net/DTD/sodipodi-0.dtd"
   xmlns:inkscape="http://www.inkscape.org/namespaces/inkscape"
   width="996.11707pt"
   height="825.55927pt"
   viewBox="0 0 996.11707 825.55927"
   version="1.1"
   id="svg628"
   sodipodi:docname="biodiversity_clockwork.svg"
   inkscape:version="0.92.5 (2060ec1f9f, 2020-04-08)">
  <sodipodi:namedview
     pagecolor="#ffffff"
     bordercolor="#666666"
     borderopacity="1"
     objecttolerance="10"
     gridtolerance="10"
     guidetolerance="10"
     inkscape:pageopacity="0"
     inkscape:pageshadow="2"
     inkscape:window-width="1848"
     inkscape:window-height="1016"
     id="namedview630"
     showgrid="false"
     inkscape:zoom="0.57943472"
     inkscape:cx="155.2234"
     inkscape:cy="573.80759"
     inkscape:window-x="72"
     inkscape:window-y="27"
     inkscape:window-maximized="1"
     inkscape:current-layer="layer2" />
  <metadata
     id="metadata2">
    <rdf:RDF>
      <cc:Work>
        <dc:type
           rdf:resource="http://purl.org/dc/dcmitype/StillImage" />
        <dc:date>2025-04-25T17:03:06.800003</dc:date>
        <dc:format>image/svg+xml</dc:format>
        <dc:creator>
          <cc:Agent>
            <dc:title>Matplotlib v3.7.5, https://matplotlib.org/</dc:title>
          </cc:Agent>
        </dc:creator>
      </cc:Work>
    </rdf:RDF>
  </metadata>
  <defs
     id="defs6"
     style="stroke-linecap:butt;stroke-linejoin:round">
    <style
       type="text/css"
       id="style4">*{stroke-linejoin: round; stroke-linecap: butt}</style>
    <filter
       inkscape:collect="always"
       style="color-interpolation-filters:sRGB;stroke-linecap:butt;stroke-linejoin:round"
       id="filter3150"
       x="-0.0042960262"
       width="1.0085921"
       y="-0.031030139"
       height="1.0620604">
      <feGaussianBlur
         inkscape:collect="always"
         stdDeviation="0.27518794"
         id="feGaussianBlur3152"
         style="stroke-linecap:butt;stroke-linejoin:round" />
    </filter>
    <clipPath
       id="p24627d67b1"
       style="stroke-linecap:butt;stroke-linejoin:round">
      <path
         d="m 830.16934,454 c 0,-52.42246 -10.32608,-104.33519 -30.38729,-152.76723 -20.06121,-48.43204 -49.4674,-92.44152 -86.53568,-129.5098 C 676.17809,134.65469 632.16861,105.2485 583.73657,85.187291 535.30453,65.126082 483.3918,54.8 430.96934,54.8 378.54688,54.8 326.63416,65.126082 278.20211,85.187291 229.77007,105.2485 185.76059,134.65469 148.69231,171.72297 111.62404,208.79125 82.21784,252.80073 62.156632,301.23277 42.095423,349.66481 31.769341,401.57754 31.769341,454 c 0,52.42246 10.326082,104.33519 30.387291,152.76723 20.061208,48.43204 49.467408,92.44152 86.535678,129.5098 37.06828,37.06828 81.07776,66.47447 129.5098,86.53568 48.43205,20.06121 100.34477,30.38729 152.76723,30.38729 52.42246,0 104.33519,-10.32608 152.76723,-30.38729 48.43204,-20.06121 92.44152,-49.4674 129.5098,-86.53568 37.06828,-37.06828 66.47447,-81.07776 86.53568,-129.5098 C 819.84326,558.33519 830.16934,506.42246 830.16934,454 m -399.2,0 c 0,0 0,0 0,0 0,0 0,0 0,0 0,0 0,0 0,0 0,0 0,0 0,0 0,0 0,0 0,0 0,0 0,0 0,0 0,0 0,0 0,0 0,0 0,0 0,0 0,0 0,0 0,0 0,0 0,0 0,0 0,0 0,0 0,0 0,0 0,0 0,0 0,0 0,0 0,0 0,0 0,0 0,0 0,0 0,0 0,0 0,0 0,0 0,0 z"
         id="path494"
         inkscape:connector-curvature="0"
         style="stroke-linecap:butt;stroke-linejoin:round" />
    </clipPath>
    <clipPath
       id="p24627d67b1-6"
       style="stroke-linecap:butt;stroke-linejoin:round">
      <path
         d="m 830.16934,454 c 0,-52.42246 -10.32608,-104.33519 -30.38729,-152.76723 -20.06121,-48.43204 -49.4674,-92.44152 -86.53568,-129.5098 C 676.17809,134.65469 632.16861,105.2485 583.73657,85.187291 535.30453,65.126082 483.3918,54.8 430.96934,54.8 378.54688,54.8 326.63416,65.126082 278.20211,85.187291 229.77007,105.2485 185.76059,134.65469 148.69231,171.72297 111.62404,208.79125 82.21784,252.80073 62.156632,301.23277 42.095423,349.66481 31.769341,401.57754 31.769341,454 c 0,52.42246 10.326082,104.33519 30.387291,152.76723 20.061208,48.43204 49.467408,92.44152 86.535678,129.5098 37.06828,37.06828 81.07776,66.47447 129.5098,86.53568 48.43205,20.06121 100.34477,30.38729 152.76723,30.38729 52.42246,0 104.33519,-10.32608 152.76723,-30.38729 48.43204,-20.06121 92.44152,-49.4674 129.5098,-86.53568 37.06828,-37.06828 66.47447,-81.07776 86.53568,-129.5098 C 819.84326,558.33519 830.16934,506.42246 830.16934,454 m -399.2,0 c 0,0 0,0 0,0 0,0 0,0 0,0 0,0 0,0 0,0 0,0 0,0 0,0 0,0 0,0 0,0 0,0 0,0 0,0 0,0 0,0 0,0 0,0 0,0 0,0 0,0 0,0 0,0 0,0 0,0 0,0 0,0 0,0 0,0 0,0 0,0 0,0 0,0 0,0 0,0 0,0 0,0 0,0 0,0 0,0 0,0 0,0 0,0 0,0 z"
         id="path494-2"
         inkscape:connector-curvature="0"
         style="stroke-linecap:butt;stroke-linejoin:round" />
    </clipPath>
    <path
       id="m8ec1c162b6"
       d="m 0,93.541408 c 24.807471,0 48.602233,-9.856113 66.143764,-27.397644 C 83.685295,48.602233 93.541408,24.807471 93.541408,0 c 0,-24.807471 -9.856113,-48.602233 -27.397644,-66.143764 C 48.602233,-83.685295 24.807471,-93.541408 0,-93.541408 c -24.807471,0 -48.602233,9.856113 -66.143764,27.397644 C -83.685295,-48.602233 -93.541408,-24.807471 -93.541408,0 c 0,24.807471 9.856113,48.602233 27.397644,66.143764 C -48.602233,83.685295 -24.807471,93.541408 0,93.541408 Z"
       style="stroke:#ffffff;stroke-width:2;stroke-linecap:butt;stroke-linejoin:round;stroke-opacity:0.92000002"
       inkscape:connector-curvature="0" />
  </defs>
  <defs
     id="defs626">
    <clipPath
       id="pd43bd3bebb"
       style="stroke-linecap:butt;stroke-linejoin:round">
      <path
         d="m 834.73125,454 c 0,-52.42246 -10.32608,-104.33519 -30.38729,-152.76723 -20.06121,-48.43204 -49.4674,-92.44152 -86.53568,-129.5098 C 680.74,134.65469 636.73052,105.2485 588.29848,85.187291 539.86644,65.126082 487.95371,54.8 435.53125,54.8 383.10879,54.8 331.19606,65.126082 282.76402,85.187291 234.33198,105.2485 190.3225,134.65469 153.25422,171.72297 116.18594,208.79125 86.779749,252.80073 66.718541,301.23277 46.657332,349.66481 36.33125,401.57754 36.33125,454 c 0,52.42246 10.326082,104.33519 30.387291,152.76723 20.061208,48.43204 49.467399,92.44152 86.535679,129.5098 37.06828,37.06828 81.07776,66.47447 129.5098,86.53568 48.43204,20.06121 100.34477,30.38729 152.76723,30.38729 52.42246,0 104.33519,-10.32608 152.76723,-30.38729 48.43204,-20.06121 92.44152,-49.4674 129.5098,-86.53568 37.06828,-37.06828 66.47447,-81.07776 86.53568,-129.5098 C 824.40517,558.33519 834.73125,506.42246 834.73125,454 m -399.2,0 c 0,0 0,0 0,0 0,0 0,0 0,0 0,0 0,0 0,0 0,0 0,0 0,0 0,0 0,0 0,0 0,0 0,0 0,0 0,0 0,0 0,0 0,0 0,0 0,0 0,0 0,0 0,0 0,0 0,0 0,0 0,0 0,0 0,0 0,0 0,0 0,0 0,0 0,0 0,0 0,0 0,0 0,0 0,0 0,0 0,0 0,0 0,0 0,0 z"
         id="path623"
         inkscape:connector-curvature="0"
         style="stroke-linecap:butt;stroke-linejoin:round" />
    </clipPath>
  </defs>
  <g
     inkscape:groupmode="layer"
     id="layer2"
     inkscape:label="Layer 2"
     style="stroke-linecap:butt;stroke-linejoin:round"
     transform="translate(66.321609,-36.796394)">
    <rect
       style="fill:#ffffff;stroke-width:0.69001079;stroke-linecap:butt;stroke-linejoin:round"
       id="rect632"
       width="996.11713"
       height="825.55933"
       x="-66.321609"
       y="36.796394"
       inkscape:export-xdpi="150"
       inkscape:export-ydpi="150" />
  </g>
  <g
     inkscape:groupmode="layer"
     id="layer1"
     inkscape:label="Layer 1"
     style="stroke-linecap:butt;stroke-linejoin:round"
     transform="translate(66.321609,-36.796394)">
    <g
       style="stroke-linecap:butt;stroke-linejoin:round"
       id="figure_1">
      <g
         id="patch_1"
         style="stroke-linecap:butt;stroke-linejoin:round">
        <path
           d="M 0,864 H 864 V 0 H 0 Z"
           style="fill:none;stroke-linecap:butt;stroke-linejoin:round"
           id="path8"
           inkscape:connector-curvature="0" />
      </g>
      <g
         id="axes_1"
         style="stroke-linecap:butt;stroke-linejoin:round">
        <g
           id="PathCollection_1"
           style="stroke-linecap:butt;stroke-linejoin:round">
          <path
             d="m 435.53125,239.56415 c 15.97664,0 31.30107,-6.34759 42.59826,-17.64478 11.29719,-11.29719 17.64478,-26.62162 17.64478,-42.59826 0,-15.97664 -6.34759,-31.30108 -17.64478,-42.59827 -11.29719,-11.29719 -26.62162,-17.64477 -42.59826,-17.64477 -15.97664,0 -31.30107,6.34758 -42.59826,17.64477 -11.29719,11.29719 -17.64478,26.62163 -17.64478,42.59827 0,15.97664 6.34759,31.30107 17.64478,42.59826 11.29719,11.29719 26.62162,17.64478 42.59826,17.64478 z"
             clip-path="url(#pd43bd3bebb)"
             style="fill:#f7be8a;fill-opacity:1;stroke:#ffffff;stroke-width:1.5;stroke-linecap:butt;stroke-linejoin:round;stroke-opacity:0.85"
             id="path11"
             inkscape:connector-curvature="0" />
          <path
             d="m 572.8707,274.08985 c 15.37349,0 30.11939,-6.10795 40.99009,-16.97865 10.8707,-10.8707 16.97866,-25.61661 16.97866,-40.9901 0,-15.37349 -6.10796,-30.1194 -16.97866,-40.9901 -10.8707,-10.8707 -25.6166,-16.97865 -40.99009,-16.97865 -15.3735,0 -30.1194,6.10795 -40.9901,16.97865 -10.8707,10.8707 -16.97865,25.61661 -16.97865,40.9901 0,15.37349 6.10795,30.1194 16.97865,40.9901 10.8707,10.8707 25.6166,16.97865 40.9901,16.97865 z"
             clip-path="url(#pd43bd3bebb)"
             style="fill:#f7be8a;fill-opacity:1;stroke:#ffffff;stroke-width:1.5;stroke-linecap:butt;stroke-linejoin:round;stroke-opacity:0.85"
             id="path13"
             inkscape:connector-curvature="0" />
          <path
             d="m 673.41015,373.60996 c 15.10316,0 29.58976,-6.00055 40.26931,-16.6801 10.67954,-10.67954 16.68009,-25.16615 16.68009,-40.26931 0,-15.10316 -6.00055,-29.58976 -16.68009,-40.2693 -10.67955,-10.67955 -25.16615,-16.6801 -40.26931,-16.6801 -15.10316,0 -29.58976,6.00055 -40.26931,16.6801 -10.67954,10.67954 -16.68009,25.16614 -16.68009,40.2693 0,15.10316 6.00055,29.58977 16.68009,40.26931 10.67955,10.67955 25.16615,16.6801 40.26931,16.6801 z"
             clip-path="url(#pd43bd3bebb)"
             style="fill:#f7be8a;fill-opacity:1;stroke:#ffffff;stroke-width:1.5;stroke-linecap:butt;stroke-linejoin:round;stroke-opacity:0.85"
             id="path15"
             inkscape:connector-curvature="0" />
          <path
             d="m 710.21014,504.37737 c 13.36024,0 26.17507,-5.30807 35.62219,-14.75519 9.44711,-9.44711 14.75519,-22.26194 14.75519,-35.62218 0,-13.36024 -5.30808,-26.17507 -14.75519,-35.62218 -9.44712,-9.44712 -22.26195,-14.75519 -35.62219,-14.75519 -13.36023,0 -26.17507,5.30807 -35.62218,14.75519 -9.44711,9.44711 -14.75519,22.26194 -14.75519,35.62218 0,13.36024 5.30808,26.17507 14.75519,35.62218 9.44711,9.44712 22.26195,14.75519 35.62218,14.75519 z"
             clip-path="url(#pd43bd3bebb)"
             style="fill:#f7be8a;fill-opacity:1;stroke:#ffffff;stroke-width:1.5;stroke-linecap:butt;stroke-linejoin:round;stroke-opacity:0.85"
             id="path17"
             inkscape:connector-curvature="0" />
          <path
             d="m 673.41015,635.59022 c 11.73544,0 22.99181,-4.66254 31.29002,-12.96075 8.29821,-8.29821 12.96075,-19.55458 12.96075,-31.29002 0,-11.73544 -4.66254,-22.99181 -12.96075,-31.29002 -8.29821,-8.29822 -19.55458,-12.96076 -31.29002,-12.96076 -11.73544,0 -22.99181,4.66254 -31.29002,12.96076 -8.29821,8.29821 -12.96075,19.55458 -12.96075,31.29002 0,11.73544 4.66254,22.99181 12.96075,31.29002 8.29821,8.29821 19.55458,12.96075 31.29002,12.96075 z"
             clip-path="url(#pd43bd3bebb)"
             style="fill:#f7be8a;fill-opacity:1;stroke:#ffffff;stroke-width:1.5;stroke-linecap:butt;stroke-linejoin:round;stroke-opacity:0.85"
             id="path19"
             inkscape:connector-curvature="0" />
          <path
             d="m 572.8707,729.90018 c 10.08336,0 19.75509,-4.00616 26.8851,-11.13617 7.13002,-7.13002 11.13618,-16.80175 11.13618,-26.88511 0,-10.08336 -4.00616,-19.75509 -11.13618,-26.88511 -7.13001,-7.13001 -16.80174,-11.13617 -26.8851,-11.13617 -10.08337,0 -19.7551,4.00616 -26.88511,11.13617 -7.13001,7.13002 -11.13617,16.80175 -11.13617,26.88511 0,10.08336 4.00616,19.75509 11.13617,26.88511 7.13001,7.13001 16.80174,11.13617 26.88511,11.13617 z"
             clip-path="url(#pd43bd3bebb)"
             style="fill:#f7be8a;fill-opacity:1;stroke:#ffffff;stroke-width:1.5;stroke-linecap:butt;stroke-linejoin:round;stroke-opacity:0.85"
             id="path21"
             inkscape:connector-curvature="0" />
          <path
             d="m 435.53125,762.2204 c 8.89531,0 17.42749,-3.53415 23.71743,-9.82408 6.28993,-6.28993 9.82408,-14.82212 9.82408,-23.71743 0,-8.89531 -3.53415,-17.42749 -9.82408,-23.71742 -6.28994,-6.28994 -14.82212,-9.82408 -23.71743,-9.82408 -8.89531,0 -17.42749,3.53414 -23.71743,9.82408 -6.28993,6.28993 -9.82408,14.82211 -9.82408,23.71742 0,8.89531 3.53415,17.4275 9.82408,23.71743 6.28994,6.28993 14.82212,9.82408 23.71743,9.82408 z"
             clip-path="url(#pd43bd3bebb)"
             style="fill:#f7be8a;fill-opacity:1;stroke:#ffffff;stroke-width:1.5;stroke-linecap:butt;stroke-linejoin:round;stroke-opacity:0.85"
             id="path23"
             inkscape:connector-curvature="0" />
          <path
             d="m 298.1918,725.42041 c 8.89531,0 17.4275,-3.53415 23.71743,-9.82408 6.28993,-6.28994 9.82408,-14.82212 9.82408,-23.71743 0,-8.89531 -3.53415,-17.42749 -9.82408,-23.71743 -6.28993,-6.28993 -14.82212,-9.82408 -23.71743,-9.82408 -8.89531,0 -17.42749,3.53415 -23.71742,9.82408 -6.28994,6.28994 -9.82408,14.82212 -9.82408,23.71743 0,8.89531 3.53414,17.42749 9.82408,23.71743 6.28993,6.28993 14.82211,9.82408 23.71742,9.82408 z"
             clip-path="url(#pd43bd3bebb)"
             style="fill:#f7be8a;fill-opacity:1;stroke:#ffffff;stroke-width:1.5;stroke-linecap:butt;stroke-linejoin:round;stroke-opacity:0.85"
             id="path25"
             inkscape:connector-curvature="0" />
          <path
             d="m 197.65235,622.0152 c 8.13531,0 15.9385,-3.23219 21.69103,-8.98472 5.75253,-5.75253 8.98473,-13.55573 8.98473,-21.69103 0,-8.13531 -3.2322,-15.93851 -8.98473,-21.69104 -5.75253,-5.75253 -13.55572,-8.98472 -21.69103,-8.98472 -8.13531,0 -15.93851,3.23219 -21.69103,8.98472 -5.75254,5.75253 -8.98473,13.55573 -8.98473,21.69104 0,8.1353 3.23219,15.9385 8.98473,21.69103 5.75252,5.75253 13.55572,8.98472 21.69103,8.98472 z"
             clip-path="url(#pd43bd3bebb)"
             style="fill:#f7be8a;fill-opacity:1;stroke:#ffffff;stroke-width:1.5;stroke-linecap:butt;stroke-linejoin:round;stroke-opacity:0.85"
             id="path27"
             inkscape:connector-curvature="0" />
          <path
             d="m 160.85236,484.67576 c 8.1353,0 15.9385,-3.2322 21.69103,-8.98473 5.75253,-5.75252 8.98472,-13.55572 8.98472,-21.69103 0,-8.13531 -3.23219,-15.93851 -8.98472,-21.69104 -5.75253,-5.75252 -13.55573,-8.98472 -21.69103,-8.98472 -8.13531,0 -15.93851,3.2322 -21.69104,8.98472 -5.75253,5.75253 -8.98472,13.55573 -8.98472,21.69104 0,8.13531 3.23219,15.93851 8.98472,21.69103 5.75253,5.75253 13.55573,8.98473 21.69104,8.98473 z"
             clip-path="url(#pd43bd3bebb)"
             style="fill:#f7be8a;fill-opacity:1;stroke:#ffffff;stroke-width:1.5;stroke-linecap:butt;stroke-linejoin:round;stroke-opacity:0.85"
             id="path29"
             inkscape:connector-curvature="0" />
          <path
             d="m 197.65235,343.79364 c 7.19578,0 14.0978,-2.85891 19.18599,-7.9471 5.08818,-5.08818 7.9471,-11.99021 7.9471,-19.18599 0,-7.19578 -2.85892,-14.0978 -7.9471,-19.18599 -5.08819,-5.08818 -11.99021,-7.94709 -19.18599,-7.94709 -7.19578,0 -14.09781,2.85891 -19.18599,7.94709 -5.08818,5.08819 -7.9471,11.99021 -7.9471,19.18599 0,7.19578 2.85892,14.09781 7.9471,19.18599 5.08818,5.08819 11.99021,7.9471 19.18599,7.9471 z"
             clip-path="url(#pd43bd3bebb)"
             style="fill:#f7be8a;fill-opacity:1;stroke:#ffffff;stroke-width:1.5;stroke-linecap:butt;stroke-linejoin:round;stroke-opacity:0.85"
             id="path31"
             inkscape:connector-curvature="0" />
          <path
             d="m 298.1918,231.59642 c 4.10411,0 8.04067,-1.63058 10.94271,-4.53262 2.90204,-2.90204 4.53261,-6.8386 4.53261,-10.9427 0,-4.1041 -1.63057,-8.04067 -4.53261,-10.9427 -2.90204,-2.90204 -6.8386,-4.53262 -10.94271,-4.53262 -4.1041,0 -8.04066,1.63058 -10.9427,4.53262 -2.90204,2.90203 -4.53262,6.8386 -4.53262,10.9427 0,4.1041 1.63058,8.04066 4.53262,10.9427 2.90204,2.90204 6.8386,4.53262 10.9427,4.53262 z"
             clip-path="url(#pd43bd3bebb)"
             style="fill:#f7be8a;fill-opacity:1;stroke:#ffffff;stroke-width:1.5;stroke-linecap:butt;stroke-linejoin:round;stroke-opacity:0.85"
             id="path33"
             inkscape:connector-curvature="0" />
        </g>
        <g
           id="PathCollection_2"
           style="stroke-linecap:butt;stroke-linejoin:round;fill:#287d3c;fill-opacity:0.7019608">
          <defs
             id="defs37">
            <path
               id="m16cd6d42a2"
               d="m 0,93.541407 c 24.807471,0 48.602232,-9.856113 66.143763,-27.397644 C 83.685294,48.602232 93.541407,24.807471 93.541407,0 c 0,-24.807471 -9.856113,-48.602232 -27.397644,-66.143763 C 48.602232,-83.685294 24.807471,-93.541407 0,-93.541407 c -24.807471,0 -48.602232,9.856113 -66.143763,27.397644 C -83.685294,-48.602232 -93.541407,-24.807471 -93.541407,0 c 0,24.807471 9.856113,48.602232 27.397644,66.143763 C -48.602232,83.685294 -24.807471,93.541407 0,93.541407 Z"
               style="stroke:#ffffff;stroke-width:2;stroke-linecap:butt;stroke-linejoin:round;stroke-opacity:0.92000002"
               inkscape:connector-curvature="0" />
          </defs>
          <g
             clip-path="url(#pd43bd3bebb)"
             id="g41"
             style="stroke-linecap:butt;stroke-linejoin:round;fill:#287d3c;fill-opacity:0.7019608">
            <use
               xlink:href="#m16cd6d42a2"
               x="435.53125"
               y="454"
               style="fill:#287d3c;fill-opacity:0.7019608;stroke:#ffffff;stroke-width:2;stroke-linecap:butt;stroke-linejoin:round;stroke-opacity:0.92000002"
               id="use39"
               width="100%"
               height="100%" />
          </g>
        </g>
        <text
           class="node-label"
           data-notex="1"
           x="499.03885"
           y="100.01189"
           style="font-size:10.5px;font-family:'Open Sans', verdana, arial, sans-serif;text-anchor:end;white-space:pre;display:inline;opacity:1;fill:#051c2c;fill-opacity:1;stroke-width:0.75000006;stroke-linecap:butt;stroke-linejoin:round"
           id="text291-7">
          <tspan
             style="font-style:normal;font-variant:normal;font-weight:bold;font-stretch:normal;font-size:20px;font-family:'Times New Roman';-inkscape-font-specification:'Times New Roman, Bold';stroke-width:0.75000006;stroke-linecap:butt;stroke-linejoin:round"
             id="tspan646-5">Neural network</tspan>
        </text>
        <text
           class="node-label"
           data-notex="1"
           x="634.50726"
           y="147.75647"
           style="font-size:10.5px;font-family:'Open Sans', verdana, arial, sans-serif;text-anchor:end;white-space:pre;display:inline;opacity:1;fill:#051c2c;fill-opacity:1;stroke-width:0.75000006;stroke-linecap:butt;stroke-linejoin:round"
           id="text291-3">
          <tspan
             style="font-style:normal;font-variant:normal;font-weight:bold;font-stretch:normal;font-size:20px;font-family:'Times New Roman';-inkscape-font-specification:'Times New Roman, Bold';stroke-width:0.75000006;stroke-linecap:butt;stroke-linejoin:round"
             id="tspan646-8">CNN</tspan>
        </text>
        <text
           class="node-label"
           data-notex="1"
           x="844.82245"
           y="272.28922"
           style="font-size:10.5px;font-family:'Open Sans', verdana, arial, sans-serif;text-anchor:end;white-space:pre;display:inline;opacity:1;fill:#051c2c;fill-opacity:1;stroke-width:0.75000006;stroke-linecap:butt;stroke-linejoin:round"
           id="text291">
          <tspan
             style="font-style:normal;font-variant:normal;font-weight:bold;font-stretch:normal;font-size:20px;font-family:'Times New Roman';-inkscape-font-specification:'Times New Roman, Bold';stroke-width:0.75000006;stroke-linecap:butt;stroke-linejoin:round"
             id="tspan646">Random forest</tspan>
        </text>
        <text
           class="node-label"
           data-notex="1"
           x="887.05481"
           y="459.96237"
           style="font-size:10.5px;font-family:'Open Sans', verdana, arial, sans-serif;text-anchor:end;white-space:pre;display:inline;opacity:1;fill:#051c2c;fill-opacity:1;stroke-width:0.75000006;stroke-linecap:butt;stroke-linejoin:round"
           id="text291-3-8-3">
          <tspan
             style="font-style:normal;font-variant:normal;font-weight:bold;font-stretch:normal;font-size:20px;font-family:'Times New Roman';-inkscape-font-specification:'Times New Roman, Bold';stroke-width:0.75000006;stroke-linecap:butt;stroke-linejoin:round"
             id="tspan646-8-3-67">Classification</tspan>
        </text>
        <text
           class="node-label"
           data-notex="1"
           x="777.48492"
           y="642.45807"
           style="font-size:10.5px;font-family:'Open Sans', verdana, arial, sans-serif;text-anchor:end;white-space:pre;display:inline;opacity:1;fill:#051c2c;fill-opacity:1;stroke-width:0.75000006;stroke-linecap:butt;stroke-linejoin:round"
           id="text291-3-8-9">
          <tspan
             style="font-style:normal;font-variant:normal;font-weight:bold;font-stretch:normal;font-size:20px;font-family:'Times New Roman';-inkscape-font-specification:'Times New Roman, Bold';stroke-width:0.75000006;stroke-linecap:butt;stroke-linejoin:round"
             id="tspan646-8-3-6">SVM</tspan>
        </text>
        <text
           class="node-label"
           data-notex="1"
           x="513.77551"
           y="827.57184"
           style="font-size:10.50000095px;font-family:'Open Sans', verdana, arial, sans-serif;text-anchor:end;white-space:pre;display:inline;opacity:1;fill:#051c2c;fill-opacity:1;stroke-width:0.75000006;stroke-linecap:butt;stroke-linejoin:round"
           id="text291-3-8-4">
          <tspan
             style="font-style:normal;font-variant:normal;font-weight:bold;font-stretch:normal;font-size:20.00000191px;font-family:'Times New Roman';-inkscape-font-specification:'Times New Roman, Bold';stroke-width:0.75000006;stroke-linecap:butt;stroke-linejoin:round"
             id="tspan646-8-3-3">Transfer learning</tspan>
        </text>
        <text
           class="node-label"
           data-notex="1"
           x="687.22046"
           y="770.61975"
           style="font-size:10.50000095px;font-family:'Open Sans', verdana, arial, sans-serif;text-anchor:end;white-space:pre;display:inline;opacity:1;fill:#051c2c;fill-opacity:1;stroke-width:0.75000006;stroke-linecap:butt;stroke-linejoin:round"
           id="text291-3-8-4-3">
          <tspan
             style="font-style:normal;font-variant:normal;font-weight:bold;font-stretch:normal;font-size:20.00000191px;font-family:'Times New Roman';-inkscape-font-specification:'Times New Roman, Bold';stroke-width:0.75000006;stroke-linecap:butt;stroke-linejoin:round"
             id="tspan646-8-3-3-6">Transformer</tspan>
        </text>
        <text
           class="node-label"
           data-notex="1"
           x="327.38699"
           y="775.79724"
           style="font-size:10.50000095px;font-family:'Open Sans', verdana, arial, sans-serif;text-anchor:end;white-space:pre;display:inline;opacity:1;fill:#051c2c;fill-opacity:1;stroke-width:0.75000006;stroke-linecap:butt;stroke-linejoin:round"
           id="text291-3-8-4-3-7">
          <tspan
             style="font-style:normal;font-variant:normal;font-weight:bold;font-stretch:normal;font-size:20.00000191px;font-family:'Times New Roman';-inkscape-font-specification:'Times New Roman, Bold';stroke-width:0.75000006;stroke-linecap:butt;stroke-linejoin:round"
             id="tspan646-8-3-3-6-5">Multisensor framework</tspan>
        </text>
        <text
           class="node-label"
           data-notex="1"
           x="189.48575"
           y="636.57794"
           style="font-size:10.50000095px;font-family:'Open Sans', verdana, arial, sans-serif;text-anchor:end;white-space:pre;display:inline;opacity:1;fill:#051c2c;fill-opacity:1;stroke-width:0.75000006;stroke-linecap:butt;stroke-linejoin:round"
           id="text291-3-8-1-2-2">
          <tspan
             style="font-style:normal;font-variant:normal;font-weight:bold;font-stretch:normal;font-size:20.00000191px;font-family:'Times New Roman';-inkscape-font-specification:'Times New Roman, Bold';stroke-width:0.75000006;stroke-linecap:butt;stroke-linejoin:round"
             id="tspan646-8-3-8-9-9">Supervised learning</tspan>
        </text>
        <text
           class="node-label"
           data-notex="1"
           x="111.19565"
           y="455.36682"
           style="font-size:10.50000095px;font-family:'Open Sans', verdana, arial, sans-serif;text-anchor:end;white-space:pre;display:inline;opacity:1;fill:#051c2c;fill-opacity:1;stroke-width:0.75000006;stroke-linecap:butt;stroke-linejoin:round"
           id="text291-3-8-4-8">
          <tspan
             style="font-style:normal;font-variant:normal;font-weight:bold;font-stretch:normal;font-size:20.00000191px;font-family:'Times New Roman';-inkscape-font-specification:'Times New Roman, Bold';stroke-width:0.75000006;stroke-linecap:butt;stroke-linejoin:round"
             id="tspan646-8-3-3-6-3">Machine Learning</tspan>
        </text>
        <text
           class="node-label"
           data-notex="1"
           x="183.70714"
           y="276.74445"
           style="font-size:10.50000095px;font-family:'Open Sans', verdana, arial, sans-serif;text-anchor:end;white-space:pre;display:inline;opacity:1;fill:#051c2c;fill-opacity:1;stroke-width:0.75000006;stroke-linecap:butt;stroke-linejoin:round"
           id="text291-3-8-1-2-7">
          <tspan
             style="font-style:normal;font-variant:normal;font-weight:bold;font-stretch:normal;font-size:20.00000191px;font-family:'Times New Roman';-inkscape-font-specification:'Times New Roman, Bold';stroke-width:0.75000006;stroke-linecap:butt;stroke-linejoin:round"
             id="tspan646-8-3-8-9-5">Reinforcement learning</tspan>
        </text>
        <text
           class="node-label"
           data-notex="1"
           x="281.85236"
           y="144.71922"
           style="font-size:10.5px;font-family:'Open Sans', verdana, arial, sans-serif;text-anchor:end;white-space:pre;display:inline;opacity:1;fill:#051c2c;fill-opacity:1;stroke-width:0.75000006;stroke-linecap:butt;stroke-linejoin:round"
           id="text291-3-8">
          <tspan
             style="font-style:normal;font-variant:normal;font-weight:bold;font-stretch:normal;font-size:20px;font-family:'Times New Roman';-inkscape-font-specification:'Times New Roman, Bold';stroke-width:0.75000006;stroke-linecap:butt;stroke-linejoin:round"
             id="tspan646-8-3">Regression</tspan>
        </text>
        <text
           xml:space="preserve"
           style="font-style:normal;font-weight:normal;font-size:30px;line-height:1.25;font-family:sans-serif;letter-spacing:0px;word-spacing:0px;opacity:0.54100001;fill:#000000;fill-opacity:1;stroke:#ffff00;stroke-width:37.95000076;stroke-linecap:round;stroke-linejoin:bevel;stroke-miterlimit:4;stroke-dasharray:none;stroke-opacity:1;paint-order:stroke markers fill;filter:url(#filter3150)"
           x="358.88443"
           y="461.97369"
           id="text585"><tspan
             sodipodi:role="line"
             id="tspan583"
             style="font-style:normal;font-variant:normal;font-weight:bold;font-stretch:normal;font-family:'Times New Roman';-inkscape-font-specification:'Times New Roman,  Bold';fill:#000000;fill-opacity:1;stroke:#ffff00;stroke-width:37.95000076;stroke-linecap:round;stroke-linejoin:bevel;stroke-miterlimit:4;stroke-dasharray:none;stroke-opacity:1;paint-order:stroke markers fill"
             x="358.88443"
             y="461.97369">Biodiversity</tspan></text>
      </g>
    </g>
  </g>
</svg>
