<?xml version="1.0" encoding="UTF-8" standalone="no"?>
<svg
   xmlns:osb="http://www.openswatchbook.org/uri/2009/osb"
   xmlns:dc="http://purl.org/dc/elements/1.1/"
   xmlns:cc="http://creativecommons.org/ns#"
   xmlns:rdf="http://www.w3.org/1999/02/22-rdf-syntax-ns#"
   xmlns:svg="http://www.w3.org/2000/svg"
   xmlns="http://www.w3.org/2000/svg"
   xmlns:xlink="http://www.w3.org/1999/xlink"
   xmlns:sodipodi="http://sodipodi.sourceforge.net/DTD/sodipodi-0.dtd"
   xmlns:inkscape="http://www.inkscape.org/namespaces/inkscape"
   width="874.99066pt"
   height="801.21191pt"
   viewBox="0 0 874.99066 801.21191"
   version="1.1"
   id="svg499"
   sodipodi:docname="global_risks_clockwork.svg"
   inkscape:version="0.92.5 (2060ec1f9f, 2020-04-08)"
   inkscape:export-filename="/home/erikz/SRC/AI/Deep_mind_roundtable/Lit search/plots/new/clockworks/global_risks_clockwork.png"
   inkscape:export-xdpi="150.02766"
   inkscape:export-ydpi="150.02766">
  <sodipodi:namedview
     pagecolor="#ffffff"
     bordercolor="#666666"
     borderopacity="1"
     objecttolerance="10"
     gridtolerance="10"
     guidetolerance="10"
     inkscape:pageopacity="0"
     inkscape:pageshadow="2"
     inkscape:window-width="1920"
     inkscape:window-height="1043"
     id="namedview501"
     showgrid="false"
     inkscape:zoom="0.40972222"
     inkscape:cx="117.91782"
     inkscape:cy="505.24505"
     inkscape:window-x="1920"
     inkscape:window-y="0"
     inkscape:window-maximized="1"
     inkscape:current-layer="layer2" />
  <metadata
     id="metadata2">
    <rdf:RDF>
      <cc:Work>
        <dc:type
           rdf:resource="http://purl.org/dc/dcmitype/StillImage" />
        <dc:date>2025-04-25T16:32:08.538629</dc:date>
        <dc:format>image/svg+xml</dc:format>
        <dc:creator>
          <cc:Agent>
            <dc:title>Matplotlib v3.7.5, https://matplotlib.org/</dc:title>
          </cc:Agent>
        </dc:creator>
      </cc:Work>
    </rdf:RDF>
  </metadata>
  <defs
     id="defs6"
     style="stroke-linecap:butt;stroke-linejoin:round">
    <linearGradient
       id="linearGradient2852"
       osb:paint="solid">
      <stop
         style="stop-color:#ffff00;stop-opacity:1;"
         offset="0"
         id="stop2850" />
    </linearGradient>
    <style
       type="text/css"
       id="style4">*{stroke-linejoin: round; stroke-linecap: butt}</style>
    <filter
       inkscape:collect="always"
       style="color-interpolation-filters:sRGB;stroke-linecap:butt;stroke-linejoin:round"
       id="filter3150"
       x="-0.0042960262"
       width="1.0085921"
       y="-0.031030139"
       height="1.0620604">
      <feGaussianBlur
         inkscape:collect="always"
         stdDeviation="0.27518794"
         id="feGaussianBlur3152"
         style="stroke-linecap:butt;stroke-linejoin:round" />
    </filter>
  </defs>
  <g
     inkscape:groupmode="layer"
     id="layer2"
     inkscape:label="Layer 2"
     style="stroke-linecap:butt;stroke-linejoin:round"
     transform="translate(-1.4168365,4.6031876)">
    <rect
       style="fill:#ffffff;fill-opacity:1;fill-rule:evenodd;stroke-width:2.45888233;stroke-linecap:butt;stroke-linejoin:round"
       id="rect3499"
       width="874.99066"
       height="801.21191"
       x="1.4168365"
       y="-4.6031876"
       inkscape:export-xdpi="150"
       inkscape:export-ydpi="150" />
  </g>
  <g
     id="figure_1"
     style="stroke-linecap:butt;stroke-linejoin:round"
     transform="translate(12.82117,-42.652523)">
    <g
       id="patch_1"
       style="stroke-linecap:butt;stroke-linejoin:round">
      <path
         d="M 0,864 H 864 V 0 H 0 Z"
         style="fill:none;stroke-linecap:butt;stroke-linejoin:round"
         id="path8"
         inkscape:connector-curvature="0" />
    </g>
    <g
       inkscape:groupmode="layer"
       id="layer1"
       inkscape:label="Layer 1"
       style="stroke-linecap:butt;stroke-linejoin:round" />
    <g
       id="axes_1"
       style="stroke-linecap:butt;stroke-linejoin:round">
      <g
         id="PathCollection_1"
         style="stroke-linecap:butt;stroke-linejoin:round">
        <path
           d="m 430.96934,246.19107 c 17.73412,0 34.74429,-7.04584 47.28421,-19.58576 12.53992,-12.53992 19.58576,-29.55008 19.58576,-47.2842 0,-17.73413 -7.04584,-34.74429 -19.58576,-47.28421 -12.53992,-12.53992 -29.55009,-19.58576 -47.28421,-19.58576 -17.73412,0 -34.74429,7.04584 -47.28421,19.58576 -12.53991,12.53992 -19.58576,29.55008 -19.58576,47.28421 0,17.73412 7.04585,34.74428 19.58576,47.2842 12.53992,12.53992 29.55009,19.58576 47.28421,19.58576 z"
           clip-path="url(#p24627d67b1)"
           style="fill:#f7be8a;fill-opacity:1;stroke:#ffffff;stroke-width:1.5;stroke-linecap:butt;stroke-linejoin:round;stroke-opacity:0.85"
           id="path11"
           inkscape:connector-curvature="0" />
        <path
           d="m 568.30879,271.50938 c 14.68914,0 28.77863,-5.83606 39.16543,-16.22285 10.38679,-10.3868 16.22285,-24.47629 16.22285,-39.16543 0,-14.68914 -5.83606,-28.77864 -16.22285,-39.16543 -10.3868,-10.38679 -24.47629,-16.22285 -39.16543,-16.22285 -14.68915,0 -28.77864,5.83606 -39.16543,16.22285 -10.38679,10.38679 -16.22285,24.47629 -16.22285,39.16543 0,14.68914 5.83606,28.77863 16.22285,39.16543 10.38679,10.38679 24.47628,16.22285 39.16543,16.22285 z"
           clip-path="url(#p24627d67b1)"
           style="fill:#f7be8a;fill-opacity:1;stroke:#ffffff;stroke-width:1.5;stroke-linecap:butt;stroke-linejoin:round;stroke-opacity:0.85"
           id="path13"
           inkscape:connector-curvature="0" />
        <path
           d="m 668.84824,371.12723 c 14.44473,0 28.29979,-5.73895 38.51376,-15.95292 10.21397,-10.21397 15.95292,-24.06903 15.95292,-38.51376 0,-14.44473 -5.73895,-28.29979 -15.95292,-38.51376 -10.21397,-10.21396 -24.06903,-15.95292 -38.51376,-15.95292 -14.44473,0 -28.29979,5.73896 -38.51376,15.95292 -10.21397,10.21397 -15.95292,24.06903 -15.95292,38.51376 0,14.44473 5.73895,28.29979 15.95292,38.51376 10.21397,10.21397 24.06903,15.95292 38.51376,15.95292 z"
           clip-path="url(#p24627d67b1)"
           style="fill:#f7be8a;fill-opacity:1;stroke:#ffffff;stroke-width:1.5;stroke-linecap:butt;stroke-linejoin:round;stroke-opacity:0.85"
           id="path15"
           inkscape:connector-curvature="0" />
        <path
           d="m 705.64823,504.13798 c 13.29675,0 26.05069,-5.28285 35.45291,-14.68507 9.40222,-9.40222 14.68508,-22.15616 14.68508,-35.45291 0,-13.29675 -5.28286,-26.05069 -14.68508,-35.45291 -9.40222,-9.40222 -22.15616,-14.68507 -35.45291,-14.68507 -13.29674,0 -26.05068,5.28285 -35.4529,14.68507 -9.40222,9.40222 -14.68508,22.15616 -14.68508,35.45291 0,13.29675 5.28286,26.05069 14.68508,35.45291 9.40222,9.40222 22.15616,14.68507 35.4529,14.68507 z"
           clip-path="url(#p24627d67b1)"
           style="fill:#f7be8a;fill-opacity:1;stroke:#ffffff;stroke-width:1.5;stroke-linecap:butt;stroke-linejoin:round;stroke-opacity:0.85"
           id="path17"
           inkscape:connector-curvature="0" />
        <path
           d="m 668.84824,634.18321 c 11.3623,0 22.26076,-4.51429 30.29511,-12.54865 8.03436,-8.03436 12.54865,-18.93282 12.54865,-30.29511 0,-11.3623 -4.51429,-22.26076 -12.54865,-30.29511 -8.03435,-8.03436 -18.93281,-12.54865 -30.29511,-12.54865 -11.3623,0 -22.26075,4.51429 -30.29511,12.54865 -8.03436,8.03435 -12.54865,18.93281 -12.54865,30.29511 0,11.36229 4.51429,22.26075 12.54865,30.29511 8.03436,8.03436 18.93281,12.54865 30.29511,12.54865 z"
           clip-path="url(#p24627d67b1)"
           style="fill:#f7be8a;fill-opacity:1;stroke:#ffffff;stroke-width:1.5;stroke-linecap:butt;stroke-linejoin:round;stroke-opacity:0.85"
           id="path19"
           inkscape:connector-curvature="0" />
        <path
           d="m 568.30879,732.18052 c 10.68811,0 20.93991,-4.24643 28.49755,-11.80407 7.55764,-7.55764 11.80407,-17.80944 11.80407,-28.49755 0,-10.68812 -4.24643,-20.93991 -11.80407,-28.49755 -7.55764,-7.55764 -17.80944,-11.80407 -28.49755,-11.80407 -10.68812,0 -20.93991,4.24643 -28.49755,11.80407 -7.55764,7.55764 -11.80407,17.80943 -11.80407,28.49755 0,10.68811 4.24643,20.93991 11.80407,28.49755 7.55764,7.55764 17.80943,11.80407 28.49755,11.80407 z"
           clip-path="url(#p24627d67b1)"
           style="fill:#f7be8a;fill-opacity:1;stroke:#ffffff;stroke-width:1.5;stroke-linecap:butt;stroke-linejoin:round;stroke-opacity:0.85"
           id="path21"
           inkscape:connector-curvature="0" />
        <path
           d="m 430.96934,761.65549 c 8.7455,0 17.13398,-3.47462 23.31798,-9.65862 6.18399,-6.184 9.65862,-14.57248 9.65862,-23.31798 0,-8.74549 -3.47463,-17.13397 -9.65862,-23.31797 -6.184,-6.184 -14.57248,-9.65862 -23.31798,-9.65862 -8.74549,0 -17.13397,3.47462 -23.31797,9.65862 -6.184,6.184 -9.65862,14.57248 -9.65862,23.31797 0,8.7455 3.47462,17.13398 9.65862,23.31798 6.184,6.184 14.57248,9.65862 23.31797,9.65862 z"
           clip-path="url(#p24627d67b1)"
           style="fill:#f7be8a;fill-opacity:1;stroke:#ffffff;stroke-width:1.5;stroke-linecap:butt;stroke-linejoin:round;stroke-opacity:0.85"
           id="path23"
           inkscape:connector-curvature="0" />
        <path
           d="m 293.62989,719.40636 c 7.30037,0 14.30272,-2.90046 19.46486,-8.0626 5.16214,-5.16214 8.06261,-12.16449 8.06261,-19.46486 0,-7.30037 -2.90047,-14.30272 -8.06261,-19.46486 -5.16214,-5.16214 -12.16449,-8.0626 -19.46486,-8.0626 -7.30037,0 -14.30271,2.90046 -19.46485,8.0626 -5.16214,5.16214 -8.06261,12.16449 -8.06261,19.46486 0,7.30037 2.90047,14.30272 8.06261,19.46486 5.16214,5.16214 12.16448,8.0626 19.46485,8.0626 z"
           clip-path="url(#p24627d67b1)"
           style="fill:#f7be8a;fill-opacity:1;stroke:#ffffff;stroke-width:1.5;stroke-linecap:butt;stroke-linejoin:round;stroke-opacity:0.85"
           id="path25"
           inkscape:connector-curvature="0" />
        <path
           d="m 193.09044,618.35171 c 7.16374,0 14.03503,-2.84618 19.10056,-7.91171 5.06552,-5.06552 7.91171,-11.93682 7.91171,-19.10055 0,-7.16374 -2.84619,-14.03503 -7.91171,-19.10056 -5.06553,-5.06553 -11.93682,-7.91171 -19.10056,-7.91171 -7.16374,0 -14.03503,2.84618 -19.10056,7.91171 -5.06552,5.06553 -7.9117,11.93682 -7.9117,19.10056 0,7.16373 2.84618,14.03503 7.9117,19.10055 5.06553,5.06553 11.93682,7.91171 19.10056,7.91171 z"
           clip-path="url(#p24627d67b1)"
           style="fill:#f7be8a;fill-opacity:1;stroke:#ffffff;stroke-width:1.5;stroke-linecap:butt;stroke-linejoin:round;stroke-opacity:0.85"
           id="path27"
           inkscape:connector-curvature="0" />
        <path
           d="m 156.29045,478.12481 c 6.39797,0 12.53476,-2.54194 17.05881,-7.06599 4.52405,-4.52406 7.066,-10.66085 7.066,-17.05882 0,-6.39797 -2.54195,-12.53477 -7.066,-17.05882 -4.52405,-4.52405 -10.66084,-7.06599 -17.05881,-7.06599 -6.39798,0 -12.53477,2.54194 -17.05882,7.06599 -4.52405,4.52405 -7.06599,10.66085 -7.06599,17.05882 0,6.39797 2.54194,12.53476 7.06599,17.05882 4.52405,4.52405 10.66084,7.06599 17.05882,7.06599 z"
           clip-path="url(#p24627d67b1)"
           style="fill:#f7be8a;fill-opacity:1;stroke:#ffffff;stroke-width:1.5;stroke-linecap:butt;stroke-linejoin:round;stroke-opacity:0.85"
           id="path29"
           inkscape:connector-curvature="0" />
        <path
           d="m 193.09044,333.39404 c 4.43777,0 8.69438,-1.76315 11.83236,-4.90113 3.13798,-3.13798 4.90113,-7.39459 4.90113,-11.83236 0,-4.43777 -1.76315,-8.69438 -4.90113,-11.83236 -3.13798,-3.13798 -7.39459,-4.90112 -11.83236,-4.90112 -4.43777,0 -8.69438,1.76314 -11.83236,4.90112 -3.13798,3.13798 -4.90113,7.39459 -4.90113,11.83236 0,4.43777 1.76315,8.69438 4.90113,11.83236 3.13798,3.13798 7.39459,4.90113 11.83236,4.90113 z"
           clip-path="url(#p24627d67b1)"
           style="fill:#f7be8a;fill-opacity:1;stroke:#ffffff;stroke-width:1.5;stroke-linecap:butt;stroke-linejoin:round;stroke-opacity:0.85"
           id="path31"
           inkscape:connector-curvature="0" />
        <path
           d="m 293.62989,231.70855 c 4.13384,0 8.09893,-1.64239 11.022,-4.56546 2.92307,-2.92306 4.56546,-6.88815 4.56546,-11.02199 0,-4.13384 -1.64239,-8.09893 -4.56546,-11.02199 -2.92307,-2.92307 -6.88816,-4.56546 -11.022,-4.56546 -4.13384,0 -8.09892,1.64239 -11.02199,4.56546 -2.92307,2.92306 -4.56546,6.88815 -4.56546,11.02199 0,4.13384 1.64239,8.09893 4.56546,11.02199 2.92307,2.92307 6.88815,4.56546 11.02199,4.56546 z"
           clip-path="url(#p24627d67b1)"
           style="fill:#f7be8a;fill-opacity:1;stroke:#ffffff;stroke-width:1.5;stroke-linecap:butt;stroke-linejoin:round;stroke-opacity:0.85"
           id="path33"
           inkscape:connector-curvature="0" />
      </g>
      <g
         id="PathCollection_2"
         style="fill:#287d3c;fill-opacity:0.70196078;stroke-linecap:butt;stroke-linejoin:round">
        <defs
           id="defs37">
          <path
             id="m8ec1c162b6"
             d="m 0,93.541408 c 24.807471,0 48.602233,-9.856113 66.143764,-27.397644 C 83.685295,48.602233 93.541408,24.807471 93.541408,0 c 0,-24.807471 -9.856113,-48.602233 -27.397644,-66.143764 C 48.602233,-83.685295 24.807471,-93.541408 0,-93.541408 c -24.807471,0 -48.602233,9.856113 -66.143764,27.397644 C -83.685295,-48.602233 -93.541408,-24.807471 -93.541408,0 c 0,24.807471 9.856113,48.602233 27.397644,66.143764 C -48.602233,83.685295 -24.807471,93.541408 0,93.541408 Z"
             style="stroke:#ffffff;stroke-width:2;stroke-linecap:butt;stroke-linejoin:round;stroke-opacity:0.92000002"
             inkscape:connector-curvature="0" />
        </defs>
        <g
           clip-path="url(#p24627d67b1)"
           id="g41"
           style="fill:#287d3c;fill-opacity:0.70196078;stroke-linecap:butt;stroke-linejoin:round">
          <use
             xlink:href="#m8ec1c162b6"
             x="430.96933"
             y="454"
             style="fill:#287d3c;fill-opacity:0.70196078;stroke:#ffffff;stroke-width:2;stroke-linecap:butt;stroke-linejoin:round;stroke-opacity:0.92000002"
             id="use39"
             width="100%"
             height="100%" />
        </g>
      </g>
      <text
         class="node-label"
         data-notex="1"
         x="666.78564"
         y="149.64168"
         style="font-size:10.5px;font-family:'Open Sans', verdana, arial, sans-serif;text-anchor:end;white-space:pre;display:inline;opacity:1;fill:#051c2c;fill-opacity:1;stroke-width:0.75;stroke-linecap:butt;stroke-linejoin:round"
         id="text291">
        <tspan
           style="font-style:normal;font-variant:normal;font-weight:bold;font-stretch:normal;font-size:20px;font-family:'Times New Roman';-inkscape-font-specification:'Times New Roman, Bold';stroke-width:0.75;stroke-linecap:butt;stroke-linejoin:round"
           id="tspan646">Random forest</tspan>
      </text>
      <text
         xml:space="preserve"
         style="font-style:normal;font-weight:normal;font-size:30px;line-height:1.25;font-family:sans-serif;letter-spacing:0px;word-spacing:0px;opacity:0.54100001;fill:#000000;fill-opacity:1;stroke:#ffff00;stroke-width:37.95000076;stroke-linecap:round;stroke-linejoin:bevel;stroke-miterlimit:4;stroke-dasharray:none;stroke-opacity:1;paint-order:stroke markers fill;filter:url(#filter3150)"
         x="348.18414"
         y="465.98276"
         id="text585"><tspan
           sodipodi:role="line"
           id="tspan583"
           style="font-style:normal;font-variant:normal;font-weight:bold;font-stretch:normal;font-family:'Times New Roman';-inkscape-font-specification:'Times New Roman,  Bold';fill:#000000;fill-opacity:1;stroke:#ffff00;stroke-width:37.95000076;stroke-linecap:round;stroke-linejoin:bevel;stroke-miterlimit:4;stroke-dasharray:none;stroke-opacity:1;paint-order:stroke markers fill"
           x="348.18414"
           y="465.98276">Global Risks</tspan></text>
      <text
         class="node-label"
         data-notex="1"
         x="496.9472"
         y="99.194221"
         style="font-size:10.5px;font-family:'Open Sans', verdana, arial, sans-serif;text-anchor:end;white-space:pre;display:inline;opacity:1;fill:#051c2c;fill-opacity:1;stroke-width:0.75;stroke-linecap:butt;stroke-linejoin:round"
         id="text291-7">
        <tspan
           style="font-style:normal;font-variant:normal;font-weight:bold;font-stretch:normal;font-size:20px;font-family:'Times New Roman';-inkscape-font-specification:'Times New Roman, Bold';stroke-width:0.75;stroke-linecap:butt;stroke-linejoin:round"
           id="tspan646-5">Neural network</tspan>
      </text>
      <text
         class="node-label"
         data-notex="1"
         x="762.29205"
         y="268.75604"
         style="font-size:10.5px;font-family:'Open Sans', verdana, arial, sans-serif;text-anchor:end;white-space:pre;display:inline;opacity:1;fill:#051c2c;fill-opacity:1;stroke-width:0.75;stroke-linecap:butt;stroke-linejoin:round"
         id="text291-3">
        <tspan
           style="font-style:normal;font-variant:normal;font-weight:bold;font-stretch:normal;font-size:20px;font-family:'Times New Roman';-inkscape-font-specification:'Times New Roman, Bold';stroke-width:0.75;stroke-linecap:butt;stroke-linejoin:round"
           id="tspan646-8">CNN</tspan>
      </text>
      <text
         class="node-label"
         data-notex="1"
         x="702.3399"
         y="751.53949"
         style="font-size:10.5px;font-family:'Open Sans', verdana, arial, sans-serif;text-anchor:end;white-space:pre;display:inline;opacity:1;fill:#051c2c;fill-opacity:1;stroke-width:0.75;stroke-linecap:butt;stroke-linejoin:round"
         id="text291-3-8">
        <tspan
           style="font-style:normal;font-variant:normal;font-weight:bold;font-stretch:normal;font-size:20px;font-family:'Times New Roman';-inkscape-font-specification:'Times New Roman, Bold';stroke-width:0.75;stroke-linecap:butt;stroke-linejoin:round"
           id="tspan646-8-3">Regression</tspan>
      </text>
      <text
         class="node-label"
         data-notex="1"
         x="830.84119"
         y="462.89127"
         style="font-size:10.5px;font-family:'Open Sans', verdana, arial, sans-serif;text-anchor:end;white-space:pre;display:inline;opacity:1;fill:#051c2c;fill-opacity:1;stroke-width:0.75;stroke-linecap:butt;stroke-linejoin:round"
         id="text291-3-8-1">
        <tspan
           style="font-style:normal;font-variant:normal;font-weight:bold;font-stretch:normal;font-size:20px;font-family:'Times New Roman';-inkscape-font-specification:'Times New Roman, Bold';stroke-width:0.75;stroke-linecap:butt;stroke-linejoin:round"
           id="tspan646-8-3-8">LSTM</tspan>
      </text>
      <text
         class="node-label"
         data-notex="1"
         x="759.67279"
         y="649.27979"
         style="font-size:10.5px;font-family:'Open Sans', verdana, arial, sans-serif;text-anchor:end;white-space:pre;display:inline;opacity:1;fill:#051c2c;fill-opacity:1;stroke-width:0.75;stroke-linecap:butt;stroke-linejoin:round"
         id="text291-3-8-9">
        <tspan
           style="font-style:normal;font-variant:normal;font-weight:bold;font-stretch:normal;font-size:20px;font-family:'Times New Roman';-inkscape-font-specification:'Times New Roman, Bold';stroke-width:0.75;stroke-linecap:butt;stroke-linejoin:round"
           id="tspan646-8-3-6">SVM</tspan>
      </text>
      <text
         class="node-label"
         data-notex="1"
         x="289.92749"
         y="759.8924"
         style="font-size:10.5px;font-family:'Open Sans', verdana, arial, sans-serif;text-anchor:end;white-space:pre;display:inline;opacity:1;fill:#051c2c;fill-opacity:1;stroke-width:0.75;stroke-linecap:butt;stroke-linejoin:round"
         id="text291-3-8-4">
        <tspan
           style="font-style:normal;font-variant:normal;font-weight:bold;font-stretch:normal;font-size:20px;font-family:'Times New Roman';-inkscape-font-specification:'Times New Roman, Bold';stroke-width:0.75;stroke-linecap:butt;stroke-linejoin:round"
           id="tspan646-8-3-3">Transformer</tspan>
      </text>
      <text
         class="node-label"
         data-notex="1"
         x="459.01755"
         y="808.33533"
         style="font-size:10.5px;font-family:'Open Sans', verdana, arial, sans-serif;text-anchor:end;white-space:pre;display:inline;opacity:1;fill:#051c2c;fill-opacity:1;stroke-width:0.75;stroke-linecap:butt;stroke-linejoin:round"
         id="text291-3-8-4-3">
        <tspan
           style="font-style:normal;font-variant:normal;font-weight:bold;font-stretch:normal;font-size:20px;font-family:'Times New Roman';-inkscape-font-specification:'Times New Roman, Bold';stroke-width:0.75;stroke-linecap:butt;stroke-linejoin:round"
           id="tspan646-8-3-3-3">U-Net</tspan>
      </text>
      <text
         class="node-label"
         data-notex="1"
         x="162.60796"
         y="631.00732"
         style="font-size:10.5px;font-family:'Open Sans', verdana, arial, sans-serif;text-anchor:end;white-space:pre;display:inline;opacity:1;fill:#051c2c;fill-opacity:1;stroke-width:0.75;stroke-linecap:butt;stroke-linejoin:round"
         id="text291-3-8-4-8">
        <tspan
           style="font-style:normal;font-variant:normal;font-weight:bold;font-stretch:normal;font-size:20px;font-family:'Times New Roman';-inkscape-font-specification:'Times New Roman, Bold';stroke-width:0.75;stroke-linecap:butt;stroke-linejoin:round"
           id="tspan646-8-3-3-6">Machine Learning</tspan>
      </text>
      <text
         class="node-label"
         data-notex="1"
         x="119.89391"
         y="460.15112"
         style="font-size:10.5px;font-family:'Open Sans', verdana, arial, sans-serif;text-anchor:end;white-space:pre;display:inline;opacity:1;fill:#051c2c;fill-opacity:1;stroke-width:0.75;stroke-linecap:butt;stroke-linejoin:round"
         id="text291-3-8-4-0">
        <tspan
           style="font-style:normal;font-variant:normal;font-weight:bold;font-stretch:normal;font-size:20px;font-family:'Times New Roman';-inkscape-font-specification:'Times New Roman, Bold';stroke-width:0.75;stroke-linecap:butt;stroke-linejoin:round"
           id="tspan646-8-3-3-4">Decision tree</tspan>
      </text>
      <text
         class="node-label"
         data-notex="1"
         x="139.30939"
         y="275.05698"
         style="font-size:10.5px;font-family:'Open Sans', verdana, arial, sans-serif;text-anchor:end;white-space:pre;display:inline;opacity:1;fill:#051c2c;fill-opacity:1;stroke-width:0.75;stroke-linecap:butt;stroke-linejoin:round"
         id="text291-3-8-4-88">
        <tspan
           style="font-style:normal;font-variant:normal;font-weight:bold;font-stretch:normal;font-size:20px;font-family:'Times New Roman';-inkscape-font-specification:'Times New Roman, Bold';stroke-width:0.75;stroke-linecap:butt;stroke-linejoin:round"
           id="tspan646-8-3-3-8">ANN</tspan>
      </text>
      <text
         class="node-label"
         data-notex="1"
         x="279.1008"
         y="146.91484"
         style="font-size:10.5px;font-family:'Open Sans', verdana, arial, sans-serif;text-anchor:end;white-space:pre;display:inline;opacity:1;fill:#051c2c;fill-opacity:1;stroke-width:0.75;stroke-linecap:butt;stroke-linejoin:round"
         id="text291-3-8-4-9">
        <tspan
           style="font-style:normal;font-variant:normal;font-weight:bold;font-stretch:normal;font-size:20px;font-family:'Times New Roman';-inkscape-font-specification:'Times New Roman, Bold';stroke-width:0.75;stroke-linecap:butt;stroke-linejoin:round"
           id="tspan646-8-3-3-7">GAN</tspan>
      </text>
    </g>
  </g>
  <defs
     id="defs497">
    <clipPath
       id="p24627d67b1"
       style="stroke-linecap:butt;stroke-linejoin:round">
      <path
         d="m 830.16934,454 c 0,-52.42246 -10.32608,-104.33519 -30.38729,-152.76723 -20.06121,-48.43204 -49.4674,-92.44152 -86.53568,-129.5098 C 676.17809,134.65469 632.16861,105.2485 583.73657,85.187291 535.30453,65.126082 483.3918,54.8 430.96934,54.8 378.54688,54.8 326.63416,65.126082 278.20211,85.187291 229.77007,105.2485 185.76059,134.65469 148.69231,171.72297 111.62404,208.79125 82.21784,252.80073 62.156632,301.23277 42.095423,349.66481 31.769341,401.57754 31.769341,454 c 0,52.42246 10.326082,104.33519 30.387291,152.76723 20.061208,48.43204 49.467408,92.44152 86.535678,129.5098 37.06828,37.06828 81.07776,66.47447 129.5098,86.53568 48.43205,20.06121 100.34477,30.38729 152.76723,30.38729 52.42246,0 104.33519,-10.32608 152.76723,-30.38729 48.43204,-20.06121 92.44152,-49.4674 129.5098,-86.53568 37.06828,-37.06828 66.47447,-81.07776 86.53568,-129.5098 C 819.84326,558.33519 830.16934,506.42246 830.16934,454 m -399.2,0 c 0,0 0,0 0,0 0,0 0,0 0,0 0,0 0,0 0,0 0,0 0,0 0,0 0,0 0,0 0,0 0,0 0,0 0,0 0,0 0,0 0,0 0,0 0,0 0,0 0,0 0,0 0,0 0,0 0,0 0,0 0,0 0,0 0,0 0,0 0,0 0,0 0,0 0,0 0,0 0,0 0,0 0,0 0,0 0,0 0,0 0,0 0,0 0,0 z"
         id="path494"
         inkscape:connector-curvature="0"
         style="stroke-linecap:butt;stroke-linejoin:round" />
    </clipPath>
  </defs>
</svg>
