<?xml version="1.0" encoding="UTF-8" standalone="no"?>
<svg
   xmlns:dc="http://purl.org/dc/elements/1.1/"
   xmlns:cc="http://creativecommons.org/ns#"
   xmlns:rdf="http://www.w3.org/1999/02/22-rdf-syntax-ns#"
   xmlns:svg="http://www.w3.org/2000/svg"
   xmlns="http://www.w3.org/2000/svg"
   xmlns:xlink="http://www.w3.org/1999/xlink"
   xmlns:sodipodi="http://sodipodi.sourceforge.net/DTD/sodipodi-0.dtd"
   xmlns:inkscape="http://www.inkscape.org/namespaces/inkscape"
   width="864pt"
   height="838.11267pt"
   viewBox="0 0 864 838.11267"
   version="1.1"
   id="svg520"
   sodipodi:docname="water_management_clockwork.svg"
   inkscape:version="0.92.5 (2060ec1f9f, 2020-04-08)">
  <sodipodi:namedview
     pagecolor="#ffffff"
     bordercolor="#666666"
     borderopacity="1"
     objecttolerance="10"
     gridtolerance="10"
     guidetolerance="10"
     inkscape:pageopacity="0"
     inkscape:pageshadow="2"
     inkscape:window-width="1848"
     inkscape:window-height="1016"
     id="namedview522"
     showgrid="false"
     inkscape:zoom="0.57943472"
     inkscape:cx="678.68629"
     inkscape:cy="590.05568"
     inkscape:window-x="72"
     inkscape:window-y="27"
     inkscape:window-maximized="1"
     inkscape:current-layer="layer4" />
  <metadata
     id="metadata2">
    <rdf:RDF>
      <cc:Work>
        <dc:type
           rdf:resource="http://purl.org/dc/dcmitype/StillImage" />
        <dc:date>2025-04-25T16:26:57.748174</dc:date>
        <dc:format>image/svg+xml</dc:format>
        <dc:creator>
          <cc:Agent>
            <dc:title>Matplotlib v3.7.5, https://matplotlib.org/</dc:title>
          </cc:Agent>
        </dc:creator>
      </cc:Work>
    </rdf:RDF>
  </metadata>
  <defs
     id="defs6"
     style="stroke-linecap:butt;stroke-linejoin:round">
    <style
       type="text/css"
       id="style4">*{stroke-linejoin: round; stroke-linecap: butt}</style>
    <filter
       inkscape:collect="always"
       style="color-interpolation-filters:sRGB;stroke-linecap:butt;stroke-linejoin:round"
       id="filter3150"
       x="-0.0042960262"
       width="1.0085921"
       y="-0.031030139"
       height="1.0620604">
      <feGaussianBlur
         inkscape:collect="always"
         stdDeviation="0.27518794"
         id="feGaussianBlur3152"
         style="stroke-linecap:butt;stroke-linejoin:round" />
    </filter>
    <clipPath
       id="p24627d67b1"
       style="stroke-linecap:butt;stroke-linejoin:round">
      <path
         d="m 830.16934,454 c 0,-52.42246 -10.32608,-104.33519 -30.38729,-152.76723 -20.06121,-48.43204 -49.4674,-92.44152 -86.53568,-129.5098 C 676.17809,134.65469 632.16861,105.2485 583.73657,85.187291 535.30453,65.126082 483.3918,54.8 430.96934,54.8 378.54688,54.8 326.63416,65.126082 278.20211,85.187291 229.77007,105.2485 185.76059,134.65469 148.69231,171.72297 111.62404,208.79125 82.21784,252.80073 62.156632,301.23277 42.095423,349.66481 31.769341,401.57754 31.769341,454 c 0,52.42246 10.326082,104.33519 30.387291,152.76723 20.061208,48.43204 49.467408,92.44152 86.535678,129.5098 37.06828,37.06828 81.07776,66.47447 129.5098,86.53568 48.43205,20.06121 100.34477,30.38729 152.76723,30.38729 52.42246,0 104.33519,-10.32608 152.76723,-30.38729 48.43204,-20.06121 92.44152,-49.4674 129.5098,-86.53568 37.06828,-37.06828 66.47447,-81.07776 86.53568,-129.5098 C 819.84326,558.33519 830.16934,506.42246 830.16934,454 m -399.2,0 c 0,0 0,0 0,0 0,0 0,0 0,0 0,0 0,0 0,0 0,0 0,0 0,0 0,0 0,0 0,0 0,0 0,0 0,0 0,0 0,0 0,0 0,0 0,0 0,0 0,0 0,0 0,0 0,0 0,0 0,0 0,0 0,0 0,0 0,0 0,0 0,0 0,0 0,0 0,0 0,0 0,0 0,0 0,0 0,0 0,0 0,0 0,0 0,0 z"
         id="path494"
         inkscape:connector-curvature="0"
         style="stroke-linecap:butt;stroke-linejoin:round" />
    </clipPath>
    <path
       id="m8ec1c162b6"
       d="m 0,93.541408 c 24.807471,0 48.602233,-9.856113 66.143764,-27.397644 C 83.685295,48.602233 93.541408,24.807471 93.541408,0 c 0,-24.807471 -9.856113,-48.602233 -27.397644,-66.143764 C 48.602233,-83.685295 24.807471,-93.541408 0,-93.541408 c -24.807471,0 -48.602233,9.856113 -66.143764,27.397644 C -83.685295,-48.602233 -93.541408,-24.807471 -93.541408,0 c 0,24.807471 9.856113,48.602233 27.397644,66.143764 C -48.602233,83.685295 -24.807471,93.541408 0,93.541408 Z"
       style="stroke:#ffffff;stroke-width:2;stroke-linecap:butt;stroke-linejoin:round;stroke-opacity:0.92000002"
       inkscape:connector-curvature="0" />
    <clipPath
       id="p24627d67b1-6"
       style="stroke-linecap:butt;stroke-linejoin:round">
      <path
         d="m 830.16934,454 c 0,-52.42246 -10.32608,-104.33519 -30.38729,-152.76723 -20.06121,-48.43204 -49.4674,-92.44152 -86.53568,-129.5098 C 676.17809,134.65469 632.16861,105.2485 583.73657,85.187291 535.30453,65.126082 483.3918,54.8 430.96934,54.8 378.54688,54.8 326.63416,65.126082 278.20211,85.187291 229.77007,105.2485 185.76059,134.65469 148.69231,171.72297 111.62404,208.79125 82.21784,252.80073 62.156632,301.23277 42.095423,349.66481 31.769341,401.57754 31.769341,454 c 0,52.42246 10.326082,104.33519 30.387291,152.76723 20.061208,48.43204 49.467408,92.44152 86.535678,129.5098 37.06828,37.06828 81.07776,66.47447 129.5098,86.53568 48.43205,20.06121 100.34477,30.38729 152.76723,30.38729 52.42246,0 104.33519,-10.32608 152.76723,-30.38729 48.43204,-20.06121 92.44152,-49.4674 129.5098,-86.53568 37.06828,-37.06828 66.47447,-81.07776 86.53568,-129.5098 C 819.84326,558.33519 830.16934,506.42246 830.16934,454 m -399.2,0 c 0,0 0,0 0,0 0,0 0,0 0,0 0,0 0,0 0,0 0,0 0,0 0,0 0,0 0,0 0,0 0,0 0,0 0,0 0,0 0,0 0,0 0,0 0,0 0,0 0,0 0,0 0,0 0,0 0,0 0,0 0,0 0,0 0,0 0,0 0,0 0,0 0,0 0,0 0,0 0,0 0,0 0,0 0,0 0,0 0,0 0,0 0,0 0,0 z"
         id="path494-2"
         inkscape:connector-curvature="0"
         style="stroke-linecap:butt;stroke-linejoin:round" />
    </clipPath>
  </defs>
  <defs
     id="defs518">
    <clipPath
       id="p4081d4e75a"
       style="stroke-linecap:butt;stroke-linejoin:round">
      <path
         d="m 827.91934,454 c 0,-52.42246 -10.32608,-104.33519 -30.38729,-152.76723 -20.06121,-48.43204 -49.4674,-92.44152 -86.53568,-129.5098 C 673.92809,134.65469 629.91861,105.2485 581.48657,85.187291 533.05453,65.126082 481.1418,54.8 428.71934,54.8 376.29688,54.8 324.38416,65.126082 275.95211,85.187291 227.52007,105.2485 183.51059,134.65469 146.44231,171.72297 109.37403,208.79125 79.96784,252.80073 59.906632,301.23277 39.845423,349.66481 29.519341,401.57754 29.519341,454 c 0,52.42246 10.326082,104.33519 30.387291,152.76723 20.061208,48.43204 49.467398,92.44152 86.535678,129.5098 37.06828,37.06828 81.07776,66.47447 129.5098,86.53568 48.43205,20.06121 100.34477,30.38729 152.76723,30.38729 52.42246,0 104.33519,-10.32608 152.76723,-30.38729 48.43204,-20.06121 92.44152,-49.4674 129.5098,-86.53568 37.06828,-37.06828 66.47447,-81.07776 86.53568,-129.5098 C 817.59326,558.33519 827.91934,506.42246 827.91934,454 m -399.2,0 c 0,0 0,0 0,0 0,0 0,0 0,0 0,0 0,0 0,0 0,0 0,0 0,0 0,0 0,0 0,0 0,0 0,0 0,0 0,0 0,0 0,0 0,0 0,0 0,0 0,0 0,0 0,0 0,0 0,0 0,0 0,0 0,0 0,0 0,0 0,0 0,0 0,0 0,0 0,0 0,0 0,0 0,0 0,0 0,0 0,0 0,0 0,0 0,0 z"
         id="path515"
         inkscape:connector-curvature="0"
         style="stroke-linecap:butt;stroke-linejoin:round" />
    </clipPath>
  </defs>
  <g
     inkscape:groupmode="layer"
     id="layer4"
     inkscape:label="Layer 2"
     style="stroke-linecap:butt;stroke-linejoin:round"
     transform="translate(0,-25.887299)">
    <rect
       style="fill:#ffffff;stroke-width:0.74538785;stroke-linecap:butt;stroke-linejoin:round"
       id="rect1052"
       width="898.94788"
       height="838.11267"
       x="-19.415474"
       y="25.887299"
       inkscape:export-xdpi="150"
       inkscape:export-ydpi="150" />
  </g>
  <g
     inkscape:groupmode="layer"
     id="layer3"
     inkscape:label="Layer 1"
     style="stroke-linecap:butt;stroke-linejoin:round"
     transform="translate(0,-25.887299)">
    <g
       style="stroke-linecap:butt;stroke-linejoin:round"
       id="figure_1">
      <g
         id="patch_1"
         style="stroke-linecap:butt;stroke-linejoin:round">
        <path
           d="M 0,864 H 864 V 0 H 0 Z"
           style="fill:none;stroke-linecap:butt;stroke-linejoin:round"
           id="path8"
           inkscape:connector-curvature="0" />
      </g>
      <g
         id="axes_1"
         style="stroke-linecap:butt;stroke-linejoin:round">
        <g
           id="PathCollection_1"
           style="stroke-linecap:butt;stroke-linejoin:round">
          <path
             d="m 428.71934,249.29354 c 18.55691,0 36.35627,-7.37274 49.47798,-20.49445 13.12172,-13.12172 20.49446,-30.92108 20.49446,-49.47798 0,-18.55691 -7.37274,-36.35627 -20.49446,-49.47799 -13.12171,-13.12171 -30.92107,-20.49445 -49.47798,-20.49445 -18.55691,0 -36.35627,7.37274 -49.47798,20.49445 -13.12172,13.12172 -20.49445,30.92108 -20.49445,49.47799 0,18.5569 7.37273,36.35626 20.49445,49.47798 13.12171,13.12171 30.92107,20.49445 49.47798,20.49445 z"
             clip-path="url(#p4081d4e75a)"
             style="fill:#f7be8a;fill-opacity:1;stroke:#ffffff;stroke-width:1.5;stroke-linecap:butt;stroke-linejoin:round;stroke-opacity:0.85"
             id="path11"
             inkscape:connector-curvature="0" />
          <path
             d="m 566.05879,281.01439 c 17.2099,0 33.71724,-6.83757 45.88648,-19.00681 12.16924,-12.16923 19.00681,-28.67658 19.00681,-45.88648 0,-17.2099 -6.83757,-33.71725 -19.00681,-45.88649 -12.16924,-12.16923 -28.67658,-19.0068 -45.88648,-19.0068 -17.2099,0 -33.71725,6.83757 -45.88649,19.0068 -12.16924,12.16924 -19.0068,28.67659 -19.0068,45.88649 0,17.2099 6.83756,33.71725 19.0068,45.88648 12.16924,12.16924 28.67659,19.00681 45.88649,19.00681 z"
             clip-path="url(#p4081d4e75a)"
             style="fill:#f7be8a;fill-opacity:1;stroke:#ffffff;stroke-width:1.5;stroke-linecap:butt;stroke-linejoin:round;stroke-opacity:0.85"
             id="path13"
             inkscape:connector-curvature="0" />
          <path
             d="m 666.59824,379.43673 c 16.64844,0 32.61724,-6.61449 44.38946,-18.38671 11.77223,-11.77223 18.38672,-27.74103 18.38672,-44.38947 0,-16.64844 -6.61449,-32.61724 -18.38672,-44.38946 -11.77222,-11.77222 -27.74102,-18.38672 -44.38946,-18.38672 -16.64844,0 -32.61724,6.6145 -44.38946,18.38672 -11.77223,11.77222 -18.38672,27.74102 -18.38672,44.38946 0,16.64844 6.61449,32.61724 18.38672,44.38947 11.77222,11.77222 27.74102,18.38671 44.38946,18.38671 z"
             clip-path="url(#p4081d4e75a)"
             style="fill:#f7be8a;fill-opacity:1;stroke:#ffffff;stroke-width:1.5;stroke-linecap:butt;stroke-linejoin:round;stroke-opacity:0.85"
             id="path15"
             inkscape:connector-curvature="0" />
          <path
             d="m 703.39823,510.26609 c 14.92195,0 29.23473,-5.92855 39.78614,-16.47996 10.5514,-10.5514 16.47995,-24.86419 16.47995,-39.78613 0,-14.92194 -5.92855,-29.23473 -16.47995,-39.78613 -10.55141,-10.55141 -24.86419,-16.47996 -39.78614,-16.47996 -14.92194,0 -29.23472,5.92855 -39.78613,16.47996 -10.5514,10.5514 -16.47995,24.86419 -16.47995,39.78613 0,14.92194 5.92855,29.23473 16.47995,39.78613 10.55141,10.55141 24.86419,16.47996 39.78613,16.47996 z"
             clip-path="url(#p4081d4e75a)"
             style="fill:#f7be8a;fill-opacity:1;stroke:#ffffff;stroke-width:1.5;stroke-linecap:butt;stroke-linejoin:round;stroke-opacity:0.85"
             id="path17"
             inkscape:connector-curvature="0" />
          <path
             d="m 666.59824,642.66766 c 13.6124,0 26.66911,-5.40826 36.29453,-15.03368 9.62542,-9.62543 15.03369,-22.68213 15.03369,-36.29453 0,-13.61241 -5.40827,-26.66911 -15.03369,-36.29453 -9.62542,-9.62542 -22.68213,-15.03369 -36.29453,-15.03369 -13.6124,0 -26.66911,5.40827 -36.29453,15.03369 -9.62542,9.62542 -15.03368,22.68212 -15.03368,36.29453 0,13.6124 5.40826,26.6691 15.03368,36.29453 9.62542,9.62542 22.68213,15.03368 36.29453,15.03368 z"
             clip-path="url(#p4081d4e75a)"
             style="fill:#f7be8a;fill-opacity:1;stroke:#ffffff;stroke-width:1.5;stroke-linecap:butt;stroke-linejoin:round;stroke-opacity:0.85"
             id="path19"
             inkscape:connector-curvature="0" />
          <path
             d="m 566.05879,740.77772 c 12.96812,0 25.40684,-5.15228 34.57669,-14.32213 9.16984,-9.16985 14.32213,-21.60857 14.32213,-34.57669 0,-12.96812 -5.15229,-25.40684 -14.32213,-34.57669 -9.16985,-9.16984 -21.60857,-14.32213 -34.57669,-14.32213 -12.96812,0 -25.40685,5.15229 -34.57669,14.32213 -9.16985,9.16985 -14.32213,21.60857 -14.32213,34.57669 0,12.96812 5.15228,25.40684 14.32213,34.57669 9.16984,9.16985 21.60857,14.32213 34.57669,14.32213 z"
             clip-path="url(#p4081d4e75a)"
             style="fill:#f7be8a;fill-opacity:1;stroke:#ffffff;stroke-width:1.5;stroke-linecap:butt;stroke-linejoin:round;stroke-opacity:0.85"
             id="path21"
             inkscape:connector-curvature="0" />
          <path
             d="m 428.71934,770.15215 c 10.99884,0 21.54867,-4.36988 29.32602,-12.14723 7.77736,-7.77735 12.14724,-18.32719 12.14724,-29.32603 0,-10.99883 -4.36988,-21.54867 -12.14724,-29.32602 -7.77735,-7.77735 -18.32718,-12.14724 -29.32602,-12.14724 -10.99884,0 -21.54867,4.36989 -29.32602,12.14724 -7.77736,7.77735 -12.14724,18.32719 -12.14724,29.32602 0,10.99884 4.36988,21.54868 12.14724,29.32603 7.77735,7.77735 18.32718,12.14723 29.32602,12.14723 z"
             clip-path="url(#p4081d4e75a)"
             style="fill:#f7be8a;fill-opacity:1;stroke:#ffffff;stroke-width:1.5;stroke-linecap:butt;stroke-linejoin:round;stroke-opacity:0.85"
             id="path23"
             inkscape:connector-curvature="0" />
          <path
             d="m 291.37989,727.9222 c 9.5588,0 18.72738,-3.79775 25.48647,-10.55684 6.75909,-6.75909 10.55684,-15.92766 10.55684,-25.48646 0,-9.5588 -3.79775,-18.72738 -10.55684,-25.48646 -6.75909,-6.75909 -15.92767,-10.55684 -25.48647,-10.55684 -9.55879,0 -18.72737,3.79775 -25.48646,10.55684 -6.75909,6.75908 -10.55684,15.92766 -10.55684,25.48646 0,9.5588 3.79775,18.72737 10.55684,25.48646 6.75909,6.75909 15.92767,10.55684 25.48646,10.55684 z"
             clip-path="url(#p4081d4e75a)"
             style="fill:#f7be8a;fill-opacity:1;stroke:#ffffff;stroke-width:1.5;stroke-linecap:butt;stroke-linejoin:round;stroke-opacity:0.85"
             id="path25"
             inkscape:connector-curvature="0" />
          <path
             d="m 190.84044,626.23911 c 9.2555,0 18.13316,-3.67725 24.67779,-10.22187 6.54463,-6.54463 10.22187,-15.42229 10.22187,-24.67779 0,-9.2555 -3.67724,-18.13317 -10.22187,-24.67779 -6.54463,-6.54463 -15.42229,-10.22188 -24.67779,-10.22188 -9.2555,0 -18.13316,3.67725 -24.67779,10.22188 -6.54462,6.54462 -10.22187,15.42229 -10.22187,24.67779 0,9.2555 3.67725,18.13316 10.22187,24.67779 6.54463,6.54462 15.42229,10.22187 24.67779,10.22187 z"
             clip-path="url(#p4081d4e75a)"
             style="fill:#f7be8a;fill-opacity:1;stroke:#ffffff;stroke-width:1.5;stroke-linecap:butt;stroke-linejoin:round;stroke-opacity:0.85"
             id="path27"
             inkscape:connector-curvature="0" />
          <path
             d="m 154.04045,469.34077 c 4.06842,0 7.97075,-1.6164 10.84756,-4.49321 2.87681,-2.8768 4.49321,-6.77914 4.49321,-10.84756 0,-4.06842 -1.6164,-7.97076 -4.49321,-10.84756 -2.87681,-2.87681 -6.77914,-4.49321 -10.84756,-4.49321 -4.06842,0 -7.97076,1.6164 -10.84757,4.49321 -2.8768,2.8768 -4.4932,6.77914 -4.4932,10.84756 0,4.06842 1.6164,7.97076 4.4932,10.84756 2.87681,2.87681 6.77915,4.49321 10.84757,4.49321 z"
             clip-path="url(#p4081d4e75a)"
             style="fill:#f7be8a;fill-opacity:1;stroke:#ffffff;stroke-width:1.5;stroke-linecap:butt;stroke-linejoin:round;stroke-opacity:0.85"
             id="path29"
             inkscape:connector-curvature="0" />
          <path
             d="m 190.84044,332.00132 c 4.06842,0 7.97076,-1.6164 10.84756,-4.4932 2.87681,-2.87681 4.49321,-6.77915 4.49321,-10.84757 0,-4.06842 -1.6164,-7.97075 -4.49321,-10.84756 -2.8768,-2.87681 -6.77914,-4.49321 -10.84756,-4.49321 -4.06842,0 -7.97076,1.6164 -10.84756,4.49321 -2.87681,2.87681 -4.49321,6.77914 -4.49321,10.84756 0,4.06842 1.6164,7.97076 4.49321,10.84757 2.8768,2.8768 6.77914,4.4932 10.84756,4.4932 z"
             clip-path="url(#p4081d4e75a)"
             style="fill:#f7be8a;fill-opacity:1;stroke:#ffffff;stroke-width:1.5;stroke-linecap:butt;stroke-linejoin:round;stroke-opacity:0.85"
             id="path31"
             inkscape:connector-curvature="0" />
          <path
             d="m 291.37989,231.46187 c 4.06842,0 7.97076,-1.6164 10.84757,-4.49321 2.8768,-2.87681 4.4932,-6.77914 4.4932,-10.84756 0,-4.06842 -1.6164,-7.97076 -4.4932,-10.84756 -2.87681,-2.87681 -6.77915,-4.49321 -10.84757,-4.49321 -4.06842,0 -7.97075,1.6164 -10.84756,4.49321 -2.87681,2.8768 -4.49321,6.77914 -4.49321,10.84756 0,4.06842 1.6164,7.97075 4.49321,10.84756 2.87681,2.87681 6.77914,4.49321 10.84756,4.49321 z"
             clip-path="url(#p4081d4e75a)"
             style="fill:#f7be8a;fill-opacity:1;stroke:#ffffff;stroke-width:1.5;stroke-linecap:butt;stroke-linejoin:round;stroke-opacity:0.85"
             id="path33"
             inkscape:connector-curvature="0" />
        </g>
        <g
           id="PathCollection_2"
           style="stroke-linecap:butt;stroke-linejoin:round">
          <defs
             id="defs37">
            <path
               id="m39c15b4c3a"
               d="m 0,93.541409 c 24.807472,0 48.602233,-9.856113 66.143764,-27.397645 C 83.685296,48.602233 93.541409,24.807472 93.541409,0 c 0,-24.807472 -9.856113,-48.602233 -27.397645,-66.143764 C 48.602233,-83.685296 24.807472,-93.541409 0,-93.541409 c -24.807472,0 -48.602233,9.856113 -66.143764,27.397645 C -83.685296,-48.602233 -93.541409,-24.807472 -93.541409,0 c 0,24.807472 9.856113,48.602233 27.397645,66.143764 C -48.602233,83.685296 -24.807472,93.541409 0,93.541409 Z"
               style="stroke:#ffffff;stroke-width:2;stroke-linecap:butt;stroke-linejoin:round;stroke-opacity:0.92000002"
               inkscape:connector-curvature="0" />
          </defs>
          <g
             clip-path="url(#p4081d4e75a)"
             id="g41"
             style="stroke-linecap:butt;stroke-linejoin:round;fill:#287d3c;fill-opacity:0.7019608">
            <use
               xlink:href="#m39c15b4c3a"
               x="428.71933"
               y="454"
               style="fill:#287d3c;fill-opacity:0.7019608;stroke:#ffffff;stroke-width:2;stroke-linecap:butt;stroke-linejoin:round;stroke-opacity:0.92000002"
               id="use39"
               width="100%"
               height="100%" />
          </g>
        </g>
        <text
           class="node-label"
           data-notex="1"
           x="494.3963"
           y="97.733818"
           style="font-size:10.5px;font-family:'Open Sans', verdana, arial, sans-serif;text-anchor:end;white-space:pre;display:inline;opacity:1;fill:#051c2c;fill-opacity:1;stroke-width:0.75;stroke-linecap:butt;stroke-linejoin:round"
           id="text291-7">
          <tspan
             style="font-style:normal;font-variant:normal;font-weight:bold;font-stretch:normal;font-size:20px;font-family:'Times New Roman';-inkscape-font-specification:'Times New Roman, Bold';stroke-width:0.75;stroke-linecap:butt;stroke-linejoin:round"
             id="tspan646-5">Neural network</tspan>
        </text>
        <text
           class="node-label"
           data-notex="1"
           x="636.68652"
           y="144.47743"
           style="font-size:10.5px;font-family:'Open Sans', verdana, arial, sans-serif;text-anchor:end;white-space:pre;display:inline;opacity:1;fill:#051c2c;fill-opacity:1;stroke-width:0.75;stroke-linecap:butt;stroke-linejoin:round"
           id="text291-3-8-1">
          <tspan
             style="font-style:normal;font-variant:normal;font-weight:bold;font-stretch:normal;font-size:20px;font-family:'Times New Roman';-inkscape-font-specification:'Times New Roman, Bold';stroke-width:0.75;stroke-linecap:butt;stroke-linejoin:round"
             id="tspan646-8-3-8">LSTM</tspan>
        </text>
        <text
           class="node-label"
           data-notex="1"
           x="851.60321"
           y="273.93344"
           style="font-size:10.5px;font-family:'Open Sans', verdana, arial, sans-serif;text-anchor:end;white-space:pre;display:inline;opacity:1;fill:#051c2c;fill-opacity:1;stroke-width:0.75;stroke-linecap:butt;stroke-linejoin:round"
           id="text291">
          <tspan
             style="font-style:normal;font-variant:normal;font-weight:bold;font-stretch:normal;font-size:20px;font-family:'Times New Roman';-inkscape-font-specification:'Times New Roman, Bold';stroke-width:0.75;stroke-linecap:butt;stroke-linejoin:round"
             id="tspan646">Random forest</tspan>
        </text>
        <text
           class="node-label"
           data-notex="1"
           x="860.74249"
           y="457.01105"
           style="font-size:10.5px;font-family:'Open Sans', verdana, arial, sans-serif;text-anchor:end;white-space:pre;display:inline;opacity:1;fill:#051c2c;fill-opacity:1;stroke-width:0.75;stroke-linecap:butt;stroke-linejoin:round"
           id="text291-3-8">
          <tspan
             style="font-style:normal;font-variant:normal;font-weight:bold;font-stretch:normal;font-size:20px;font-family:'Times New Roman';-inkscape-font-specification:'Times New Roman, Bold';stroke-width:0.75;stroke-linecap:butt;stroke-linejoin:round"
             id="tspan646-8-3">Regression</tspan>
        </text>
        <text
           class="node-label"
           data-notex="1"
           x="772.61646"
           y="644.10229"
           style="font-size:10.5px;font-family:'Open Sans', verdana, arial, sans-serif;text-anchor:end;white-space:pre;display:inline;opacity:1;fill:#051c2c;fill-opacity:1;stroke-width:0.75;stroke-linecap:butt;stroke-linejoin:round"
           id="text291-3-8-9">
          <tspan
             style="font-style:normal;font-variant:normal;font-weight:bold;font-stretch:normal;font-size:20px;font-family:'Times New Roman';-inkscape-font-specification:'Times New Roman, Bold';stroke-width:0.75;stroke-linecap:butt;stroke-linejoin:round"
             id="tspan646-8-3-6">SVM</tspan>
        </text>
        <text
           class="node-label"
           data-notex="1"
           x="637.62164"
           y="772.24933"
           style="font-size:10.5px;font-family:'Open Sans', verdana, arial, sans-serif;text-anchor:end;white-space:pre;display:inline;opacity:1;fill:#051c2c;fill-opacity:1;stroke-width:0.75;stroke-linecap:butt;stroke-linejoin:round"
           id="text291-3">
          <tspan
             style="font-style:normal;font-variant:normal;font-weight:bold;font-stretch:normal;font-size:20px;font-family:'Times New Roman';-inkscape-font-specification:'Times New Roman, Bold';stroke-width:0.75;stroke-linecap:butt;stroke-linejoin:round"
             id="tspan646-8">CNN</tspan>
        </text>
        <text
           class="node-label"
           data-notex="1"
           x="451.55048"
           y="816.2431"
           style="font-size:10.5px;font-family:'Open Sans', verdana, arial, sans-serif;text-anchor:end;white-space:pre;display:inline;opacity:1;fill:#051c2c;fill-opacity:1;stroke-width:0.75;stroke-linecap:butt;stroke-linejoin:round"
           id="text291-3-8-4-88">
          <tspan
             style="font-style:normal;font-variant:normal;font-weight:bold;font-stretch:normal;font-size:20px;font-family:'Times New Roman';-inkscape-font-specification:'Times New Roman, Bold';stroke-width:0.75;stroke-linecap:butt;stroke-linejoin:round"
             id="tspan646-8-3-3-8">ANN</tspan>
        </text>
        <text
           class="node-label"
           data-notex="1"
           x="269.54306"
           y="773.5437"
           style="font-size:10.5px;font-family:'Open Sans', verdana, arial, sans-serif;text-anchor:end;white-space:pre;display:inline;opacity:1;fill:#051c2c;fill-opacity:1;stroke-width:0.75;stroke-linecap:butt;stroke-linejoin:round"
           id="text291-3-8-1-56">
          <tspan
             style="font-style:normal;font-variant:normal;font-weight:bold;font-stretch:normal;font-size:20px;font-family:'Times New Roman';-inkscape-font-specification:'Times New Roman, Bold';stroke-width:0.75;stroke-linecap:butt;stroke-linejoin:round"
             id="tspan646-8-3-8-2">MLP</tspan>
        </text>
        <text
           class="node-label"
           data-notex="1"
           x="165.86797"
           y="636.9278"
           style="font-size:10.5px;font-family:'Open Sans', verdana, arial, sans-serif;text-anchor:end;white-space:pre;display:inline;opacity:1;fill:#051c2c;fill-opacity:1;stroke-width:0.75;stroke-linecap:butt;stroke-linejoin:round"
           id="text291-3-8-4-8">
          <tspan
             style="font-style:normal;font-variant:normal;font-weight:bold;font-stretch:normal;font-size:20px;font-family:'Times New Roman';-inkscape-font-specification:'Times New Roman, Bold';stroke-width:0.75;stroke-linecap:butt;stroke-linejoin:round"
             id="tspan646-8-3-3-6">Machine Learning</tspan>
        </text>
        <text
           class="node-label"
           data-notex="1"
           x="116.71449"
           y="459.02765"
           style="font-size:10.5px;font-family:'Open Sans', verdana, arial, sans-serif;text-anchor:end;white-space:pre;display:inline;opacity:1;fill:#051c2c;fill-opacity:1;stroke-width:0.75;stroke-linecap:butt;stroke-linejoin:round"
           id="text291-3-8-4">
          <tspan
             style="font-style:normal;font-variant:normal;font-weight:bold;font-stretch:normal;font-size:20px;font-family:'Times New Roman';-inkscape-font-specification:'Times New Roman, Bold';stroke-width:0.75;stroke-linecap:butt;stroke-linejoin:round"
             id="tspan646-8-3-3">Transformer</tspan>
        </text>
        <text
           class="node-label"
           data-notex="1"
           x="129.48308"
           y="279.09628"
           style="font-size:10.5px;font-family:'Open Sans', verdana, arial, sans-serif;text-anchor:end;white-space:pre;display:inline;opacity:1;fill:#051c2c;fill-opacity:1;stroke-width:0.75;stroke-linecap:butt;stroke-linejoin:round"
           id="text291-3-8-4-9">
          <tspan
             style="font-style:normal;font-variant:normal;font-weight:bold;font-stretch:normal;font-size:20px;font-family:'Times New Roman';-inkscape-font-specification:'Times New Roman, Bold';stroke-width:0.75;stroke-linecap:butt;stroke-linejoin:round"
             id="tspan646-8-3-3-7">GAN</tspan>
        </text>
        <text
           class="node-label"
           data-notex="1"
           x="291.27869"
           y="141.89359"
           style="font-size:10.5px;font-family:'Open Sans', verdana, arial, sans-serif;text-anchor:end;white-space:pre;display:inline;opacity:1;fill:#051c2c;fill-opacity:1;stroke-width:0.75;stroke-linecap:butt;stroke-linejoin:round"
           id="text291-3-8-4-9-3">
          <tspan
             style="font-style:normal;font-variant:normal;font-weight:bold;font-stretch:normal;font-size:20px;font-family:'Times New Roman';-inkscape-font-specification:'Times New Roman, Bold';stroke-width:0.75;stroke-linecap:butt;stroke-linejoin:round"
             id="tspan646-8-3-3-7-6">Linear regression</tspan>
        </text>
        <text
           xml:space="preserve"
           style="font-style:normal;font-weight:normal;font-size:30px;line-height:1.25;font-family:sans-serif;letter-spacing:0px;word-spacing:0px;opacity:0.54100001;fill:#000000;fill-opacity:1;stroke:#ffff00;stroke-width:37.95000076;stroke-linecap:round;stroke-linejoin:bevel;stroke-miterlimit:4;stroke-dasharray:none;stroke-opacity:1;paint-order:stroke markers fill;filter:url(#filter3150)"
           x="427.77435"
           y="438.85983"
           id="text585"><tspan
             sodipodi:role="line"
             id="tspan583"
             style="font-style:normal;font-variant:normal;font-weight:bold;font-stretch:normal;font-family:'Times New Roman';-inkscape-font-specification:'Times New Roman, Bold';text-align:center;text-anchor:middle;fill:#000000;fill-opacity:1;stroke:#ffff00;stroke-width:37.95000076;stroke-linecap:round;stroke-linejoin:bevel;stroke-miterlimit:4;stroke-dasharray:none;stroke-opacity:1;paint-order:stroke markers fill"
             x="431.38885"
             y="438.85983">Water </tspan><tspan
             sodipodi:role="line"
             style="font-style:normal;font-variant:normal;font-weight:bold;font-stretch:normal;font-family:'Times New Roman';-inkscape-font-specification:'Times New Roman, Bold';text-align:center;text-anchor:middle;fill:#000000;fill-opacity:1;stroke:#ffff00;stroke-width:37.95000076;stroke-linecap:round;stroke-linejoin:bevel;stroke-miterlimit:4;stroke-dasharray:none;stroke-opacity:1;paint-order:stroke markers fill"
             x="427.77435"
             y="476.40268"
             id="tspan650">Management</tspan></text>
      </g>
    </g>
  </g>
</svg>
