<?xml version="1.0" encoding="utf-8" standalone="no"?>
<!DOCTYPE svg PUBLIC "-//W3C//DTD SVG 1.1//EN"
  "http://www.w3.org/Graphics/SVG/1.1/DTD/svg11.dtd">
<svg xmlns:xlink="http://www.w3.org/1999/xlink" width="864pt" height="576pt" viewBox="0 0 864 576" xmlns="http://www.w3.org/2000/svg" version="1.1">
 <metadata>
  <rdf:RDF xmlns:dc="http://purl.org/dc/elements/1.1/" xmlns:cc="http://creativecommons.org/ns#" xmlns:rdf="http://www.w3.org/1999/02/22-rdf-syntax-ns#">
   <cc:Work>
    <dc:type rdf:resource="http://purl.org/dc/dcmitype/StillImage"/>
    <dc:date>2025-06-26T22:58:11.027814</dc:date>
    <dc:format>image/svg+xml</dc:format>
    <dc:creator>
     <cc:Agent>
      <dc:title>Matplotlib v3.7.5, https://matplotlib.org/</dc:title>
     </cc:Agent>
    </dc:creator>
   </cc:Work>
  </rdf:RDF>
 </metadata>
 <defs>
  <style type="text/css">*{stroke-linejoin: round; stroke-linecap: butt}</style>
 </defs>
 <g id="figure_1">
  <g id="patch_1">
   <path d="M 0 576 
L 864 576 
L 864 0 
L 0 0 
z
" style="fill: #ffffff"/>
  </g>
  <g id="axes_1">
   <g id="patch_2">
    <path d="M 240.46 517.54 
L 851.04 517.54 
L 851.04 42.96 
L 240.46 42.96 
z
" style="fill: #ffffff"/>
   </g>
   <g id="matplotlib.axis_1">
    <g id="xtick_1">
     <g id="line2d_1">
      <path d="M 240.46 517.54 
L 240.46 42.96 
" clip-path="url(#pb5198bc948)" style="fill: none; stroke: #cccccc; stroke-linecap: round"/>
     </g>
     <g id="text_1">
      <!-- 0 -->
      <g style="fill: #262626" transform="translate(236.46 538.15) scale(0.16 -0.16)">
       <defs>
        <path id="TimesNewRomanPSMT-30" d="M 231 2094 
Q 231 2819 450 3342 
Q 669 3866 1031 4122 
Q 1313 4325 1613 4325 
Q 2100 4325 2488 3828 
Q 2972 3213 2972 2159 
Q 2972 1422 2759 906 
Q 2547 391 2217 158 
Q 1888 -75 1581 -75 
Q 975 -75 572 641 
Q 231 1244 231 2094 
z
M 844 2016 
Q 844 1141 1059 588 
Q 1238 122 1591 122 
Q 1759 122 1940 273 
Q 2122 425 2216 781 
Q 2359 1319 2359 2297 
Q 2359 3022 2209 3506 
Q 2097 3866 1919 4016 
Q 1791 4119 1609 4119 
Q 1397 4119 1231 3928 
Q 1006 3669 925 3112 
Q 844 2556 844 2016 
z
" transform="scale(0.015625)"/>
       </defs>
       <use xlink:href="#TimesNewRomanPSMT-30"/>
      </g>
     </g>
    </g>
    <g id="xtick_2">
     <g id="line2d_2">
      <path d="M 316.973784 517.54 
L 316.973784 42.96 
" clip-path="url(#pb5198bc948)" style="fill: none; stroke: #cccccc; stroke-linecap: round"/>
     </g>
     <g id="text_2">
      <!-- 5 -->
      <g style="fill: #262626" transform="translate(312.973784 538.15) scale(0.16 -0.16)">
       <defs>
        <path id="TimesNewRomanPSMT-35" d="M 2778 4238 
L 2534 3706 
L 1259 3706 
L 981 3138 
Q 1809 3016 2294 2522 
Q 2709 2097 2709 1522 
Q 2709 1188 2573 903 
Q 2438 619 2231 419 
Q 2025 219 1772 97 
Q 1413 -75 1034 -75 
Q 653 -75 479 54 
Q 306 184 306 341 
Q 306 428 378 495 
Q 450 563 559 563 
Q 641 563 702 538 
Q 763 513 909 409 
Q 1144 247 1384 247 
Q 1750 247 2026 523 
Q 2303 800 2303 1197 
Q 2303 1581 2056 1914 
Q 1809 2247 1375 2428 
Q 1034 2569 447 2591 
L 1259 4238 
L 2778 4238 
z
" transform="scale(0.015625)"/>
       </defs>
       <use xlink:href="#TimesNewRomanPSMT-35"/>
      </g>
     </g>
    </g>
    <g id="xtick_3">
     <g id="line2d_3">
      <path d="M 393.487569 517.54 
L 393.487569 42.96 
" clip-path="url(#pb5198bc948)" style="fill: none; stroke: #cccccc; stroke-linecap: round"/>
     </g>
     <g id="text_3">
      <!-- 10 -->
      <g style="fill: #262626" transform="translate(385.487569 538.15) scale(0.16 -0.16)">
       <defs>
        <path id="TimesNewRomanPSMT-31" d="M 750 3822 
L 1781 4325 
L 1884 4325 
L 1884 747 
Q 1884 391 1914 303 
Q 1944 216 2037 169 
Q 2131 122 2419 116 
L 2419 0 
L 825 0 
L 825 116 
Q 1125 122 1212 167 
Q 1300 213 1334 289 
Q 1369 366 1369 747 
L 1369 3034 
Q 1369 3497 1338 3628 
Q 1316 3728 1258 3775 
Q 1200 3822 1119 3822 
Q 1003 3822 797 3725 
L 750 3822 
z
" transform="scale(0.015625)"/>
       </defs>
       <use xlink:href="#TimesNewRomanPSMT-31"/>
       <use xlink:href="#TimesNewRomanPSMT-30" x="50"/>
      </g>
     </g>
    </g>
    <g id="xtick_4">
     <g id="line2d_4">
      <path d="M 470.001353 517.54 
L 470.001353 42.96 
" clip-path="url(#pb5198bc948)" style="fill: none; stroke: #cccccc; stroke-linecap: round"/>
     </g>
     <g id="text_4">
      <!-- 15 -->
      <g style="fill: #262626" transform="translate(462.001353 538.15) scale(0.16 -0.16)">
       <use xlink:href="#TimesNewRomanPSMT-31"/>
       <use xlink:href="#TimesNewRomanPSMT-35" x="50"/>
      </g>
     </g>
    </g>
    <g id="xtick_5">
     <g id="line2d_5">
      <path d="M 546.515138 517.54 
L 546.515138 42.96 
" clip-path="url(#pb5198bc948)" style="fill: none; stroke: #cccccc; stroke-linecap: round"/>
     </g>
     <g id="text_5">
      <!-- 20 -->
      <g style="fill: #262626" transform="translate(538.515138 538.15) scale(0.16 -0.16)">
       <defs>
        <path id="TimesNewRomanPSMT-32" d="M 2934 816 
L 2638 0 
L 138 0 
L 138 116 
Q 1241 1122 1691 1759 
Q 2141 2397 2141 2925 
Q 2141 3328 1894 3587 
Q 1647 3847 1303 3847 
Q 991 3847 742 3664 
Q 494 3481 375 3128 
L 259 3128 
Q 338 3706 661 4015 
Q 984 4325 1469 4325 
Q 1984 4325 2329 3994 
Q 2675 3663 2675 3213 
Q 2675 2891 2525 2569 
Q 2294 2063 1775 1497 
Q 997 647 803 472 
L 1909 472 
Q 2247 472 2383 497 
Q 2519 522 2628 598 
Q 2738 675 2819 816 
L 2934 816 
z
" transform="scale(0.015625)"/>
       </defs>
       <use xlink:href="#TimesNewRomanPSMT-32"/>
       <use xlink:href="#TimesNewRomanPSMT-30" x="50"/>
      </g>
     </g>
    </g>
    <g id="xtick_6">
     <g id="line2d_6">
      <path d="M 623.028922 517.54 
L 623.028922 42.96 
" clip-path="url(#pb5198bc948)" style="fill: none; stroke: #cccccc; stroke-linecap: round"/>
     </g>
     <g id="text_6">
      <!-- 25 -->
      <g style="fill: #262626" transform="translate(615.028922 538.15) scale(0.16 -0.16)">
       <use xlink:href="#TimesNewRomanPSMT-32"/>
       <use xlink:href="#TimesNewRomanPSMT-35" x="50"/>
      </g>
     </g>
    </g>
    <g id="xtick_7">
     <g id="line2d_7">
      <path d="M 699.542707 517.54 
L 699.542707 42.96 
" clip-path="url(#pb5198bc948)" style="fill: none; stroke: #cccccc; stroke-linecap: round"/>
     </g>
     <g id="text_7">
      <!-- 30 -->
      <g style="fill: #262626" transform="translate(691.542707 538.15) scale(0.16 -0.16)">
       <defs>
        <path id="TimesNewRomanPSMT-33" d="M 325 3431 
Q 506 3859 782 4092 
Q 1059 4325 1472 4325 
Q 1981 4325 2253 3994 
Q 2459 3747 2459 3466 
Q 2459 3003 1878 2509 
Q 2269 2356 2469 2072 
Q 2669 1788 2669 1403 
Q 2669 853 2319 450 
Q 1863 -75 997 -75 
Q 569 -75 414 31 
Q 259 138 259 259 
Q 259 350 332 419 
Q 406 488 509 488 
Q 588 488 669 463 
Q 722 447 909 348 
Q 1097 250 1169 231 
Q 1284 197 1416 197 
Q 1734 197 1970 444 
Q 2206 691 2206 1028 
Q 2206 1275 2097 1509 
Q 2016 1684 1919 1775 
Q 1784 1900 1550 2001 
Q 1316 2103 1072 2103 
L 972 2103 
L 972 2197 
Q 1219 2228 1467 2375 
Q 1716 2522 1828 2728 
Q 1941 2934 1941 3181 
Q 1941 3503 1739 3701 
Q 1538 3900 1238 3900 
Q 753 3900 428 3381 
L 325 3431 
z
" transform="scale(0.015625)"/>
       </defs>
       <use xlink:href="#TimesNewRomanPSMT-33"/>
       <use xlink:href="#TimesNewRomanPSMT-30" x="50"/>
      </g>
     </g>
    </g>
    <g id="xtick_8">
     <g id="line2d_8">
      <path d="M 776.056491 517.54 
L 776.056491 42.96 
" clip-path="url(#pb5198bc948)" style="fill: none; stroke: #cccccc; stroke-linecap: round"/>
     </g>
     <g id="text_8">
      <!-- 35 -->
      <g style="fill: #262626" transform="translate(768.056491 538.15) scale(0.16 -0.16)">
       <use xlink:href="#TimesNewRomanPSMT-33"/>
       <use xlink:href="#TimesNewRomanPSMT-35" x="50"/>
      </g>
     </g>
    </g>
    <g id="text_9">
     <!-- Frequency -->
     <g style="fill: #262626" transform="translate(507.762969 558.0375) scale(0.18 -0.18)">
      <defs>
       <path id="TimesNewRomanPSMT-46" d="M 1309 4006 
L 1309 2341 
L 2081 2341 
Q 2347 2341 2470 2458 
Q 2594 2575 2634 2922 
L 2750 2922 
L 2750 1488 
L 2634 1488 
Q 2631 1734 2570 1850 
Q 2509 1966 2401 2023 
Q 2294 2081 2081 2081 
L 1309 2081 
L 1309 750 
Q 1309 428 1350 325 
Q 1381 247 1481 191 
Q 1619 116 1769 116 
L 1922 116 
L 1922 0 
L 103 0 
L 103 116 
L 253 116 
Q 516 116 634 269 
Q 709 369 709 750 
L 709 3488 
Q 709 3809 669 3913 
Q 638 3991 541 4047 
Q 406 4122 253 4122 
L 103 4122 
L 103 4238 
L 3256 4238 
L 3297 3306 
L 3188 3306 
Q 3106 3603 2998 3742 
Q 2891 3881 2733 3943 
Q 2575 4006 2244 4006 
L 1309 4006 
z
" transform="scale(0.015625)"/>
       <path id="TimesNewRomanPSMT-72" d="M 1038 2947 
L 1038 2303 
Q 1397 2947 1775 2947 
Q 1947 2947 2059 2842 
Q 2172 2738 2172 2600 
Q 2172 2478 2090 2393 
Q 2009 2309 1897 2309 
Q 1788 2309 1652 2417 
Q 1516 2525 1450 2525 
Q 1394 2525 1328 2463 
Q 1188 2334 1038 2041 
L 1038 669 
Q 1038 431 1097 309 
Q 1138 225 1241 169 
Q 1344 113 1538 113 
L 1538 0 
L 72 0 
L 72 113 
Q 291 113 397 181 
Q 475 231 506 341 
Q 522 394 522 644 
L 522 1753 
Q 522 2253 501 2348 
Q 481 2444 426 2487 
Q 372 2531 291 2531 
Q 194 2531 72 2484 
L 41 2597 
L 906 2947 
L 1038 2947 
z
" transform="scale(0.015625)"/>
       <path id="TimesNewRomanPSMT-65" d="M 681 1784 
Q 678 1147 991 784 
Q 1303 422 1725 422 
Q 2006 422 2214 576 
Q 2422 731 2563 1106 
L 2659 1044 
Q 2594 616 2278 264 
Q 1963 -88 1488 -88 
Q 972 -88 605 314 
Q 238 716 238 1394 
Q 238 2128 614 2539 
Q 991 2950 1559 2950 
Q 2041 2950 2350 2633 
Q 2659 2316 2659 1784 
L 681 1784 
z
M 681 1966 
L 2006 1966 
Q 1991 2241 1941 2353 
Q 1863 2528 1708 2628 
Q 1553 2728 1384 2728 
Q 1125 2728 920 2526 
Q 716 2325 681 1966 
z
" transform="scale(0.015625)"/>
       <path id="TimesNewRomanPSMT-71" d="M 2734 2947 
L 2734 -734 
Q 2734 -1009 2771 -1087 
Q 2809 -1166 2889 -1209 
Q 2969 -1253 3200 -1253 
L 3200 -1369 
L 1756 -1369 
L 1756 -1253 
L 1816 -1253 
Q 1991 -1253 2081 -1203 
Q 2144 -1169 2181 -1080 
Q 2219 -991 2219 -734 
L 2219 497 
Q 1934 159 1721 35 
Q 1509 -88 1281 -88 
Q 866 -88 539 290 
Q 213 669 213 1303 
Q 213 2031 644 2489 
Q 1075 2947 1684 2947 
Q 1863 2947 2013 2897 
Q 2163 2847 2281 2747 
Q 2463 2834 2628 2947 
L 2734 2947 
z
M 2219 694 
L 2219 2038 
Q 2219 2272 2158 2406 
Q 2097 2541 1940 2634 
Q 1784 2728 1588 2728 
Q 1238 2728 988 2431 
Q 738 2134 738 1531 
Q 738 953 992 653 
Q 1247 353 1606 353 
Q 1791 353 1934 433 
Q 2078 513 2219 694 
z
" transform="scale(0.015625)"/>
       <path id="TimesNewRomanPSMT-75" d="M 2709 2863 
L 2709 1128 
Q 2709 631 2732 520 
Q 2756 409 2807 365 
Q 2859 322 2928 322 
Q 3025 322 3147 375 
L 3191 266 
L 2334 -88 
L 2194 -88 
L 2194 519 
Q 1825 119 1631 15 
Q 1438 -88 1222 -88 
Q 981 -88 804 51 
Q 628 191 559 409 
Q 491 628 491 1028 
L 491 2306 
Q 491 2509 447 2587 
Q 403 2666 317 2708 
Q 231 2750 6 2747 
L 6 2863 
L 1009 2863 
L 1009 947 
Q 1009 547 1148 422 
Q 1288 297 1484 297 
Q 1619 297 1789 381 
Q 1959 466 2194 703 
L 2194 2325 
Q 2194 2569 2105 2655 
Q 2016 2741 1734 2747 
L 1734 2863 
L 2709 2863 
z
" transform="scale(0.015625)"/>
       <path id="TimesNewRomanPSMT-6e" d="M 1034 2341 
Q 1538 2947 1994 2947 
Q 2228 2947 2397 2830 
Q 2566 2713 2666 2444 
Q 2734 2256 2734 1869 
L 2734 647 
Q 2734 375 2778 278 
Q 2813 200 2889 156 
Q 2966 113 3172 113 
L 3172 0 
L 1756 0 
L 1756 113 
L 1816 113 
Q 2016 113 2095 173 
Q 2175 234 2206 353 
Q 2219 400 2219 647 
L 2219 1819 
Q 2219 2209 2117 2386 
Q 2016 2563 1775 2563 
Q 1403 2563 1034 2156 
L 1034 647 
Q 1034 356 1069 288 
Q 1113 197 1189 155 
Q 1266 113 1500 113 
L 1500 0 
L 84 0 
L 84 113 
L 147 113 
Q 366 113 442 223 
Q 519 334 519 647 
L 519 1709 
Q 519 2225 495 2337 
Q 472 2450 423 2490 
Q 375 2531 294 2531 
Q 206 2531 84 2484 
L 38 2597 
L 900 2947 
L 1034 2947 
L 1034 2341 
z
" transform="scale(0.015625)"/>
       <path id="TimesNewRomanPSMT-63" d="M 2631 1088 
Q 2516 522 2178 217 
Q 1841 -88 1431 -88 
Q 944 -88 581 321 
Q 219 731 219 1428 
Q 219 2103 620 2525 
Q 1022 2947 1584 2947 
Q 2006 2947 2278 2723 
Q 2550 2500 2550 2259 
Q 2550 2141 2473 2067 
Q 2397 1994 2259 1994 
Q 2075 1994 1981 2113 
Q 1928 2178 1911 2362 
Q 1894 2547 1784 2644 
Q 1675 2738 1481 2738 
Q 1169 2738 978 2506 
Q 725 2200 725 1697 
Q 725 1184 976 792 
Q 1228 400 1656 400 
Q 1963 400 2206 609 
Q 2378 753 2541 1131 
L 2631 1088 
z
" transform="scale(0.015625)"/>
       <path id="TimesNewRomanPSMT-79" d="M 38 2863 
L 1372 2863 
L 1372 2747 
L 1306 2747 
Q 1166 2747 1095 2686 
Q 1025 2625 1025 2534 
Q 1025 2413 1128 2197 
L 1825 753 
L 2466 2334 
Q 2519 2463 2519 2588 
Q 2519 2644 2497 2672 
Q 2472 2706 2419 2726 
Q 2366 2747 2231 2747 
L 2231 2863 
L 3163 2863 
L 3163 2747 
Q 3047 2734 2984 2696 
Q 2922 2659 2847 2556 
Q 2819 2513 2741 2316 
L 1575 -541 
Q 1406 -956 1132 -1168 
Q 859 -1381 606 -1381 
Q 422 -1381 303 -1275 
Q 184 -1169 184 -1031 
Q 184 -900 270 -820 
Q 356 -741 506 -741 
Q 609 -741 788 -809 
Q 913 -856 944 -856 
Q 1038 -856 1148 -759 
Q 1259 -663 1372 -384 
L 1575 113 
L 547 2272 
Q 500 2369 397 2513 
Q 319 2622 269 2659 
Q 197 2709 38 2747 
L 38 2863 
z
" transform="scale(0.015625)"/>
      </defs>
      <use xlink:href="#TimesNewRomanPSMT-46"/>
      <use xlink:href="#TimesNewRomanPSMT-72" x="55.615234"/>
      <use xlink:href="#TimesNewRomanPSMT-65" x="88.916016"/>
      <use xlink:href="#TimesNewRomanPSMT-71" x="133.300781"/>
      <use xlink:href="#TimesNewRomanPSMT-75" x="183.300781"/>
      <use xlink:href="#TimesNewRomanPSMT-65" x="233.300781"/>
      <use xlink:href="#TimesNewRomanPSMT-6e" x="277.685547"/>
      <use xlink:href="#TimesNewRomanPSMT-63" x="327.685547"/>
      <use xlink:href="#TimesNewRomanPSMT-79" x="372.070312"/>
     </g>
    </g>
   </g>
   <g id="matplotlib.axis_2">
    <g id="ytick_1">
     <g id="line2d_9">
      <path d="M 240.46 76.19226 
L 851.04 76.19226 
" clip-path="url(#pb5198bc948)" style="fill: none; stroke: #cccccc; stroke-linecap: round"/>
     </g>
     <g id="text_10">
      <!-- identification -->
      <g style="fill: #262626" transform="translate(145.655 81.74726) scale(0.16 -0.16)">
       <defs>
        <path id="TimesNewRomanPSMT-69" d="M 928 4444 
Q 1059 4444 1151 4351 
Q 1244 4259 1244 4128 
Q 1244 3997 1151 3903 
Q 1059 3809 928 3809 
Q 797 3809 703 3903 
Q 609 3997 609 4128 
Q 609 4259 701 4351 
Q 794 4444 928 4444 
z
M 1188 2947 
L 1188 647 
Q 1188 378 1227 289 
Q 1266 200 1342 156 
Q 1419 113 1622 113 
L 1622 0 
L 231 0 
L 231 113 
Q 441 113 512 153 
Q 584 194 626 287 
Q 669 381 669 647 
L 669 1750 
Q 669 2216 641 2353 
Q 619 2453 572 2492 
Q 525 2531 444 2531 
Q 356 2531 231 2484 
L 188 2597 
L 1050 2947 
L 1188 2947 
z
" transform="scale(0.015625)"/>
        <path id="TimesNewRomanPSMT-64" d="M 2222 322 
Q 2013 103 1813 7 
Q 1613 -88 1381 -88 
Q 913 -88 563 304 
Q 213 697 213 1313 
Q 213 1928 600 2439 
Q 988 2950 1597 2950 
Q 1975 2950 2222 2709 
L 2222 3238 
Q 2222 3728 2198 3840 
Q 2175 3953 2125 3993 
Q 2075 4034 2000 4034 
Q 1919 4034 1784 3984 
L 1744 4094 
L 2597 4444 
L 2738 4444 
L 2738 1134 
Q 2738 631 2761 520 
Q 2784 409 2836 365 
Q 2888 322 2956 322 
Q 3041 322 3181 375 
L 3216 266 
L 2366 -88 
L 2222 -88 
L 2222 322 
z
M 2222 541 
L 2222 2016 
Q 2203 2228 2109 2403 
Q 2016 2578 1861 2667 
Q 1706 2756 1559 2756 
Q 1284 2756 1069 2509 
Q 784 2184 784 1559 
Q 784 928 1059 592 
Q 1334 256 1672 256 
Q 1956 256 2222 541 
z
" transform="scale(0.015625)"/>
        <path id="TimesNewRomanPSMT-74" d="M 1031 3803 
L 1031 2863 
L 1700 2863 
L 1700 2644 
L 1031 2644 
L 1031 788 
Q 1031 509 1111 412 
Q 1191 316 1316 316 
Q 1419 316 1516 380 
Q 1613 444 1666 569 
L 1788 569 
Q 1678 263 1478 108 
Q 1278 -47 1066 -47 
Q 922 -47 784 33 
Q 647 113 581 261 
Q 516 409 516 719 
L 516 2644 
L 63 2644 
L 63 2747 
Q 234 2816 414 2980 
Q 594 3144 734 3369 
Q 806 3488 934 3803 
L 1031 3803 
z
" transform="scale(0.015625)"/>
        <path id="TimesNewRomanPSMT-66" d="M 1319 2638 
L 1319 756 
Q 1319 356 1406 250 
Q 1522 113 1716 113 
L 1975 113 
L 1975 0 
L 266 0 
L 266 113 
L 394 113 
Q 519 113 622 175 
Q 725 238 764 344 
Q 803 450 803 756 
L 803 2638 
L 247 2638 
L 247 2863 
L 803 2863 
L 803 3050 
Q 803 3478 940 3775 
Q 1078 4072 1361 4255 
Q 1644 4438 1997 4438 
Q 2325 4438 2600 4225 
Q 2781 4084 2781 3909 
Q 2781 3816 2700 3733 
Q 2619 3650 2525 3650 
Q 2453 3650 2373 3701 
Q 2294 3753 2178 3923 
Q 2063 4094 1966 4153 
Q 1869 4213 1750 4213 
Q 1606 4213 1506 4136 
Q 1406 4059 1362 3898 
Q 1319 3738 1319 3069 
L 1319 2863 
L 2056 2863 
L 2056 2638 
L 1319 2638 
z
" transform="scale(0.015625)"/>
        <path id="TimesNewRomanPSMT-61" d="M 1822 413 
Q 1381 72 1269 19 
Q 1100 -59 909 -59 
Q 613 -59 420 144 
Q 228 347 228 678 
Q 228 888 322 1041 
Q 450 1253 767 1440 
Q 1084 1628 1822 1897 
L 1822 2009 
Q 1822 2438 1686 2597 
Q 1550 2756 1291 2756 
Q 1094 2756 978 2650 
Q 859 2544 859 2406 
L 866 2225 
Q 866 2081 792 2003 
Q 719 1925 600 1925 
Q 484 1925 411 2006 
Q 338 2088 338 2228 
Q 338 2497 613 2722 
Q 888 2947 1384 2947 
Q 1766 2947 2009 2819 
Q 2194 2722 2281 2516 
Q 2338 2381 2338 1966 
L 2338 994 
Q 2338 584 2353 492 
Q 2369 400 2405 369 
Q 2441 338 2488 338 
Q 2538 338 2575 359 
Q 2641 400 2828 588 
L 2828 413 
Q 2478 -56 2159 -56 
Q 2006 -56 1915 50 
Q 1825 156 1822 413 
z
M 1822 616 
L 1822 1706 
Q 1350 1519 1213 1441 
Q 966 1303 859 1153 
Q 753 1003 753 825 
Q 753 600 887 451 
Q 1022 303 1197 303 
Q 1434 303 1822 616 
z
" transform="scale(0.015625)"/>
        <path id="TimesNewRomanPSMT-6f" d="M 1600 2947 
Q 2250 2947 2644 2453 
Q 2978 2031 2978 1484 
Q 2978 1100 2793 706 
Q 2609 313 2286 112 
Q 1963 -88 1566 -88 
Q 919 -88 538 428 
Q 216 863 216 1403 
Q 216 1797 411 2186 
Q 606 2575 925 2761 
Q 1244 2947 1600 2947 
z
M 1503 2744 
Q 1338 2744 1170 2645 
Q 1003 2547 900 2300 
Q 797 2053 797 1666 
Q 797 1041 1045 587 
Q 1294 134 1700 134 
Q 2003 134 2200 384 
Q 2397 634 2397 1244 
Q 2397 2006 2069 2444 
Q 1847 2744 1503 2744 
z
" transform="scale(0.015625)"/>
       </defs>
       <use xlink:href="#TimesNewRomanPSMT-69"/>
       <use xlink:href="#TimesNewRomanPSMT-64" x="27.783203"/>
       <use xlink:href="#TimesNewRomanPSMT-65" x="77.783203"/>
       <use xlink:href="#TimesNewRomanPSMT-6e" x="122.167969"/>
       <use xlink:href="#TimesNewRomanPSMT-74" x="172.167969"/>
       <use xlink:href="#TimesNewRomanPSMT-69" x="199.951172"/>
       <use xlink:href="#TimesNewRomanPSMT-66" x="227.734375"/>
       <use xlink:href="#TimesNewRomanPSMT-69" x="261.035156"/>
       <use xlink:href="#TimesNewRomanPSMT-63" x="288.818359"/>
       <use xlink:href="#TimesNewRomanPSMT-61" x="333.203125"/>
       <use xlink:href="#TimesNewRomanPSMT-74" x="377.587891"/>
       <use xlink:href="#TimesNewRomanPSMT-69" x="405.371094"/>
       <use xlink:href="#TimesNewRomanPSMT-6f" x="433.154297"/>
       <use xlink:href="#TimesNewRomanPSMT-6e" x="483.154297"/>
      </g>
     </g>
    </g>
    <g id="ytick_2">
     <g id="line2d_10">
      <path d="M 240.46 105.343366 
L 851.04 105.343366 
" clip-path="url(#pb5198bc948)" style="fill: none; stroke: #cccccc; stroke-linecap: round"/>
     </g>
     <g id="text_11">
      <!-- citizen science -->
      <g style="fill: #262626" transform="translate(137.235 110.898366) scale(0.16 -0.16)">
       <defs>
        <path id="TimesNewRomanPSMT-7a" d="M 2688 878 
L 2653 0 
L 128 0 
L 128 113 
L 2028 2644 
L 1091 2644 
Q 788 2644 694 2605 
Q 600 2566 541 2456 
Q 456 2300 444 2069 
L 319 2069 
L 338 2863 
L 2738 2863 
L 2738 2747 
L 819 209 
L 1863 209 
Q 2191 209 2308 264 
Q 2425 319 2497 456 
Q 2547 556 2581 878 
L 2688 878 
z
" transform="scale(0.015625)"/>
        <path id="TimesNewRomanPSMT-20" transform="scale(0.015625)"/>
        <path id="TimesNewRomanPSMT-73" d="M 2050 2947 
L 2050 1972 
L 1947 1972 
Q 1828 2431 1642 2597 
Q 1456 2763 1169 2763 
Q 950 2763 815 2647 
Q 681 2531 681 2391 
Q 681 2216 781 2091 
Q 878 1963 1175 1819 
L 1631 1597 
Q 2266 1288 2266 781 
Q 2266 391 1970 151 
Q 1675 -88 1309 -88 
Q 1047 -88 709 6 
Q 606 38 541 38 
Q 469 38 428 -44 
L 325 -44 
L 325 978 
L 428 978 
Q 516 541 762 319 
Q 1009 97 1316 97 
Q 1531 97 1667 223 
Q 1803 350 1803 528 
Q 1803 744 1651 891 
Q 1500 1038 1047 1263 
Q 594 1488 453 1669 
Q 313 1847 313 2119 
Q 313 2472 555 2709 
Q 797 2947 1181 2947 
Q 1350 2947 1591 2875 
Q 1750 2828 1803 2828 
Q 1853 2828 1881 2850 
Q 1909 2872 1947 2947 
L 2050 2947 
z
" transform="scale(0.015625)"/>
       </defs>
       <use xlink:href="#TimesNewRomanPSMT-63"/>
       <use xlink:href="#TimesNewRomanPSMT-69" x="44.384766"/>
       <use xlink:href="#TimesNewRomanPSMT-74" x="72.167969"/>
       <use xlink:href="#TimesNewRomanPSMT-69" x="99.951172"/>
       <use xlink:href="#TimesNewRomanPSMT-7a" x="127.734375"/>
       <use xlink:href="#TimesNewRomanPSMT-65" x="172.119141"/>
       <use xlink:href="#TimesNewRomanPSMT-6e" x="216.503906"/>
       <use xlink:href="#TimesNewRomanPSMT-20" x="266.503906"/>
       <use xlink:href="#TimesNewRomanPSMT-73" x="291.503906"/>
       <use xlink:href="#TimesNewRomanPSMT-63" x="330.419922"/>
       <use xlink:href="#TimesNewRomanPSMT-69" x="374.804688"/>
       <use xlink:href="#TimesNewRomanPSMT-65" x="402.587891"/>
       <use xlink:href="#TimesNewRomanPSMT-6e" x="446.972656"/>
       <use xlink:href="#TimesNewRomanPSMT-63" x="496.972656"/>
       <use xlink:href="#TimesNewRomanPSMT-65" x="541.357422"/>
      </g>
     </g>
    </g>
    <g id="ytick_3">
     <g id="line2d_11">
      <path d="M 240.46 134.494472 
L 851.04 134.494472 
" clip-path="url(#pb5198bc948)" style="fill: none; stroke: #cccccc; stroke-linecap: round"/>
     </g>
     <g id="text_12">
      <!-- camera trap -->
      <g style="fill: #262626" transform="translate(155.9025 140.049472) scale(0.16 -0.16)">
       <defs>
        <path id="TimesNewRomanPSMT-6d" d="M 1050 2338 
Q 1363 2650 1419 2697 
Q 1559 2816 1721 2881 
Q 1884 2947 2044 2947 
Q 2313 2947 2506 2790 
Q 2700 2634 2766 2338 
Q 3088 2713 3309 2830 
Q 3531 2947 3766 2947 
Q 3994 2947 4170 2830 
Q 4347 2713 4450 2447 
Q 4519 2266 4519 1878 
L 4519 647 
Q 4519 378 4559 278 
Q 4591 209 4675 161 
Q 4759 113 4950 113 
L 4950 0 
L 3538 0 
L 3538 113 
L 3597 113 
Q 3781 113 3884 184 
Q 3956 234 3988 344 
Q 4000 397 4000 647 
L 4000 1878 
Q 4000 2228 3916 2372 
Q 3794 2572 3525 2572 
Q 3359 2572 3192 2489 
Q 3025 2406 2788 2181 
L 2781 2147 
L 2788 2013 
L 2788 647 
Q 2788 353 2820 281 
Q 2853 209 2943 161 
Q 3034 113 3253 113 
L 3253 0 
L 1806 0 
L 1806 113 
Q 2044 113 2133 169 
Q 2222 225 2256 338 
Q 2272 391 2272 647 
L 2272 1878 
Q 2272 2228 2169 2381 
Q 2031 2581 1784 2581 
Q 1616 2581 1450 2491 
Q 1191 2353 1050 2181 
L 1050 647 
Q 1050 366 1089 281 
Q 1128 197 1204 155 
Q 1281 113 1516 113 
L 1516 0 
L 100 0 
L 100 113 
Q 297 113 375 155 
Q 453 197 493 289 
Q 534 381 534 647 
L 534 1741 
Q 534 2213 506 2350 
Q 484 2453 437 2492 
Q 391 2531 309 2531 
Q 222 2531 100 2484 
L 53 2597 
L 916 2947 
L 1050 2947 
L 1050 2338 
z
" transform="scale(0.015625)"/>
        <path id="TimesNewRomanPSMT-70" d="M -6 2578 
L 875 2934 
L 994 2934 
L 994 2266 
Q 1216 2644 1439 2795 
Q 1663 2947 1909 2947 
Q 2341 2947 2628 2609 
Q 2981 2197 2981 1534 
Q 2981 794 2556 309 
Q 2206 -88 1675 -88 
Q 1444 -88 1275 -22 
Q 1150 25 994 166 
L 994 -706 
Q 994 -1000 1030 -1079 
Q 1066 -1159 1155 -1206 
Q 1244 -1253 1478 -1253 
L 1478 -1369 
L -22 -1369 
L -22 -1253 
L 56 -1253 
Q 228 -1256 350 -1188 
Q 409 -1153 442 -1076 
Q 475 -1000 475 -688 
L 475 2019 
Q 475 2297 450 2372 
Q 425 2447 370 2484 
Q 316 2522 222 2522 
Q 147 2522 31 2478 
L -6 2578 
z
M 994 2081 
L 994 1013 
Q 994 666 1022 556 
Q 1066 375 1236 237 
Q 1406 100 1666 100 
Q 1978 100 2172 344 
Q 2425 663 2425 1241 
Q 2425 1897 2138 2250 
Q 1938 2494 1663 2494 
Q 1513 2494 1366 2419 
Q 1253 2363 994 2081 
z
" transform="scale(0.015625)"/>
       </defs>
       <use xlink:href="#TimesNewRomanPSMT-63"/>
       <use xlink:href="#TimesNewRomanPSMT-61" x="44.384766"/>
       <use xlink:href="#TimesNewRomanPSMT-6d" x="88.769531"/>
       <use xlink:href="#TimesNewRomanPSMT-65" x="166.552734"/>
       <use xlink:href="#TimesNewRomanPSMT-72" x="210.9375"/>
       <use xlink:href="#TimesNewRomanPSMT-61" x="244.238281"/>
       <use xlink:href="#TimesNewRomanPSMT-20" x="288.623047"/>
       <use xlink:href="#TimesNewRomanPSMT-74" x="313.623047"/>
       <use xlink:href="#TimesNewRomanPSMT-72" x="341.40625"/>
       <use xlink:href="#TimesNewRomanPSMT-61" x="374.707031"/>
       <use xlink:href="#TimesNewRomanPSMT-70" x="419.091797"/>
      </g>
     </g>
    </g>
    <g id="ytick_4">
     <g id="line2d_12">
      <path d="M 240.46 163.645577 
L 851.04 163.645577 
" clip-path="url(#pb5198bc948)" style="fill: none; stroke: #cccccc; stroke-linecap: round"/>
     </g>
     <g id="text_13">
      <!-- tree (set theory) -->
      <g style="fill: #262626" transform="translate(129.6775 169.200577) scale(0.16 -0.16)">
       <defs>
        <path id="TimesNewRomanPSMT-28" d="M 1988 -1253 
L 1988 -1369 
Q 1516 -1131 1200 -813 
Q 750 -359 506 256 
Q 263 872 263 1534 
Q 263 2503 741 3301 
Q 1219 4100 1988 4444 
L 1988 4313 
Q 1603 4100 1356 3731 
Q 1109 3363 987 2797 
Q 866 2231 866 1616 
Q 866 947 969 400 
Q 1050 -31 1165 -292 
Q 1281 -553 1476 -793 
Q 1672 -1034 1988 -1253 
z
" transform="scale(0.015625)"/>
        <path id="TimesNewRomanPSMT-68" d="M 1041 4444 
L 1041 2350 
Q 1388 2731 1591 2839 
Q 1794 2947 1997 2947 
Q 2241 2947 2416 2812 
Q 2591 2678 2675 2391 
Q 2734 2191 2734 1659 
L 2734 647 
Q 2734 375 2778 275 
Q 2809 200 2884 156 
Q 2959 113 3159 113 
L 3159 0 
L 1753 0 
L 1753 113 
L 1819 113 
Q 2019 113 2097 173 
Q 2175 234 2206 353 
Q 2216 403 2216 647 
L 2216 1659 
Q 2216 2128 2167 2275 
Q 2119 2422 2012 2495 
Q 1906 2569 1756 2569 
Q 1603 2569 1437 2487 
Q 1272 2406 1041 2159 
L 1041 647 
Q 1041 353 1073 281 
Q 1106 209 1195 161 
Q 1284 113 1503 113 
L 1503 0 
L 84 0 
L 84 113 
Q 275 113 384 172 
Q 447 203 484 290 
Q 522 378 522 647 
L 522 3238 
Q 522 3728 498 3840 
Q 475 3953 426 3993 
Q 378 4034 297 4034 
Q 231 4034 84 3984 
L 41 4094 
L 897 4444 
L 1041 4444 
z
" transform="scale(0.015625)"/>
        <path id="TimesNewRomanPSMT-29" d="M 144 4313 
L 144 4444 
Q 619 4209 934 3891 
Q 1381 3434 1625 2820 
Q 1869 2206 1869 1541 
Q 1869 572 1392 -226 
Q 916 -1025 144 -1369 
L 144 -1253 
Q 528 -1038 776 -670 
Q 1025 -303 1145 264 
Q 1266 831 1266 1447 
Q 1266 2113 1163 2663 
Q 1084 3094 967 3353 
Q 850 3613 656 3853 
Q 463 4094 144 4313 
z
" transform="scale(0.015625)"/>
       </defs>
       <use xlink:href="#TimesNewRomanPSMT-74"/>
       <use xlink:href="#TimesNewRomanPSMT-72" x="27.783203"/>
       <use xlink:href="#TimesNewRomanPSMT-65" x="61.083984"/>
       <use xlink:href="#TimesNewRomanPSMT-65" x="105.46875"/>
       <use xlink:href="#TimesNewRomanPSMT-20" x="149.853516"/>
       <use xlink:href="#TimesNewRomanPSMT-28" x="174.853516"/>
       <use xlink:href="#TimesNewRomanPSMT-73" x="208.154297"/>
       <use xlink:href="#TimesNewRomanPSMT-65" x="247.070312"/>
       <use xlink:href="#TimesNewRomanPSMT-74" x="291.455078"/>
       <use xlink:href="#TimesNewRomanPSMT-20" x="319.238281"/>
       <use xlink:href="#TimesNewRomanPSMT-74" x="344.238281"/>
       <use xlink:href="#TimesNewRomanPSMT-68" x="372.021484"/>
       <use xlink:href="#TimesNewRomanPSMT-65" x="422.021484"/>
       <use xlink:href="#TimesNewRomanPSMT-6f" x="466.40625"/>
       <use xlink:href="#TimesNewRomanPSMT-72" x="516.40625"/>
       <use xlink:href="#TimesNewRomanPSMT-79" x="549.707031"/>
       <use xlink:href="#TimesNewRomanPSMT-29" x="599.707031"/>
      </g>
     </g>
    </g>
    <g id="ytick_5">
     <g id="line2d_13">
      <path d="M 240.46 192.796683 
L 851.04 192.796683 
" clip-path="url(#pb5198bc948)" style="fill: none; stroke: #cccccc; stroke-linecap: round"/>
     </g>
     <g id="text_14">
      <!-- feature (linguistics) -->
      <g style="fill: #262626" transform="translate(106.115 198.351683) scale(0.16 -0.16)">
       <defs>
        <path id="TimesNewRomanPSMT-6c" d="M 1184 4444 
L 1184 647 
Q 1184 378 1223 290 
Q 1263 203 1344 158 
Q 1425 113 1647 113 
L 1647 0 
L 244 0 
L 244 113 
Q 441 113 512 153 
Q 584 194 625 287 
Q 666 381 666 647 
L 666 3247 
Q 666 3731 644 3842 
Q 622 3953 573 3993 
Q 525 4034 450 4034 
Q 369 4034 244 3984 
L 191 4094 
L 1044 4444 
L 1184 4444 
z
" transform="scale(0.015625)"/>
        <path id="TimesNewRomanPSMT-67" d="M 966 1044 
Q 703 1172 562 1401 
Q 422 1631 422 1909 
Q 422 2334 742 2640 
Q 1063 2947 1563 2947 
Q 1972 2947 2272 2747 
L 2878 2747 
Q 3013 2747 3034 2739 
Q 3056 2731 3066 2713 
Q 3084 2684 3084 2613 
Q 3084 2531 3069 2500 
Q 3059 2484 3036 2475 
Q 3013 2466 2878 2466 
L 2506 2466 
Q 2681 2241 2681 1891 
Q 2681 1491 2375 1206 
Q 2069 922 1553 922 
Q 1341 922 1119 984 
Q 981 866 932 777 
Q 884 688 884 625 
Q 884 572 936 522 
Q 988 472 1138 450 
Q 1225 438 1575 428 
Q 2219 413 2409 384 
Q 2700 344 2873 169 
Q 3047 -6 3047 -263 
Q 3047 -616 2716 -925 
Q 2228 -1381 1444 -1381 
Q 841 -1381 425 -1109 
Q 191 -953 191 -784 
Q 191 -709 225 -634 
Q 278 -519 444 -313 
Q 466 -284 763 25 
Q 600 122 533 198 
Q 466 275 466 372 
Q 466 481 555 628 
Q 644 775 966 1044 
z
M 1509 2797 
Q 1278 2797 1122 2612 
Q 966 2428 966 2047 
Q 966 1553 1178 1281 
Q 1341 1075 1591 1075 
Q 1828 1075 1981 1253 
Q 2134 1431 2134 1813 
Q 2134 2309 1919 2591 
Q 1759 2797 1509 2797 
z
M 934 0 
Q 788 -159 713 -296 
Q 638 -434 638 -550 
Q 638 -700 819 -813 
Q 1131 -1006 1722 -1006 
Q 2284 -1006 2551 -807 
Q 2819 -609 2819 -384 
Q 2819 -222 2659 -153 
Q 2497 -84 2016 -72 
Q 1313 -53 934 0 
z
" transform="scale(0.015625)"/>
       </defs>
       <use xlink:href="#TimesNewRomanPSMT-66"/>
       <use xlink:href="#TimesNewRomanPSMT-65" x="33.300781"/>
       <use xlink:href="#TimesNewRomanPSMT-61" x="77.685547"/>
       <use xlink:href="#TimesNewRomanPSMT-74" x="122.070312"/>
       <use xlink:href="#TimesNewRomanPSMT-75" x="149.853516"/>
       <use xlink:href="#TimesNewRomanPSMT-72" x="199.853516"/>
       <use xlink:href="#TimesNewRomanPSMT-65" x="233.154297"/>
       <use xlink:href="#TimesNewRomanPSMT-20" x="277.539062"/>
       <use xlink:href="#TimesNewRomanPSMT-28" x="302.539062"/>
       <use xlink:href="#TimesNewRomanPSMT-6c" x="335.839844"/>
       <use xlink:href="#TimesNewRomanPSMT-69" x="363.623047"/>
       <use xlink:href="#TimesNewRomanPSMT-6e" x="391.40625"/>
       <use xlink:href="#TimesNewRomanPSMT-67" x="441.40625"/>
       <use xlink:href="#TimesNewRomanPSMT-75" x="491.40625"/>
       <use xlink:href="#TimesNewRomanPSMT-69" x="541.40625"/>
       <use xlink:href="#TimesNewRomanPSMT-73" x="569.189453"/>
       <use xlink:href="#TimesNewRomanPSMT-74" x="608.105469"/>
       <use xlink:href="#TimesNewRomanPSMT-69" x="635.888672"/>
       <use xlink:href="#TimesNewRomanPSMT-63" x="663.671875"/>
       <use xlink:href="#TimesNewRomanPSMT-73" x="708.056641"/>
       <use xlink:href="#TimesNewRomanPSMT-29" x="746.972656"/>
      </g>
     </g>
    </g>
    <g id="ytick_6">
     <g id="line2d_14">
      <path d="M 240.46 221.947789 
L 851.04 221.947789 
" clip-path="url(#pb5198bc948)" style="fill: none; stroke: #cccccc; stroke-linecap: round"/>
     </g>
     <g id="text_15">
      <!-- soundscape -->
      <g style="fill: #262626" transform="translate(157.1975 227.502789) scale(0.16 -0.16)">
       <use xlink:href="#TimesNewRomanPSMT-73"/>
       <use xlink:href="#TimesNewRomanPSMT-6f" x="38.916016"/>
       <use xlink:href="#TimesNewRomanPSMT-75" x="88.916016"/>
       <use xlink:href="#TimesNewRomanPSMT-6e" x="138.916016"/>
       <use xlink:href="#TimesNewRomanPSMT-64" x="188.916016"/>
       <use xlink:href="#TimesNewRomanPSMT-73" x="238.916016"/>
       <use xlink:href="#TimesNewRomanPSMT-63" x="277.832031"/>
       <use xlink:href="#TimesNewRomanPSMT-61" x="322.216797"/>
       <use xlink:href="#TimesNewRomanPSMT-70" x="366.601562"/>
       <use xlink:href="#TimesNewRomanPSMT-65" x="416.601562"/>
      </g>
     </g>
    </g>
    <g id="ytick_7">
     <g id="line2d_15">
      <path d="M 240.46 251.098894 
L 851.04 251.098894 
" clip-path="url(#pb5198bc948)" style="fill: none; stroke: #cccccc; stroke-linecap: round"/>
     </g>
     <g id="text_16">
      <!-- trap (plumbing) -->
      <g style="fill: #262626" transform="translate(130.095 256.653894) scale(0.16 -0.16)">
       <defs>
        <path id="TimesNewRomanPSMT-62" d="M 984 2369 
Q 1400 2947 1881 2947 
Q 2322 2947 2650 2570 
Q 2978 2194 2978 1541 
Q 2978 778 2472 313 
Q 2038 -88 1503 -88 
Q 1253 -88 995 3 
Q 738 94 469 275 
L 469 3241 
Q 469 3728 445 3840 
Q 422 3953 372 3993 
Q 322 4034 247 4034 
Q 159 4034 28 3984 
L -16 4094 
L 844 4444 
L 984 4444 
L 984 2369 
z
M 984 2169 
L 984 456 
Q 1144 300 1314 220 
Q 1484 141 1663 141 
Q 1947 141 2192 453 
Q 2438 766 2438 1363 
Q 2438 1913 2192 2208 
Q 1947 2503 1634 2503 
Q 1469 2503 1303 2419 
Q 1178 2356 984 2169 
z
" transform="scale(0.015625)"/>
       </defs>
       <use xlink:href="#TimesNewRomanPSMT-74"/>
       <use xlink:href="#TimesNewRomanPSMT-72" x="27.783203"/>
       <use xlink:href="#TimesNewRomanPSMT-61" x="61.083984"/>
       <use xlink:href="#TimesNewRomanPSMT-70" x="105.46875"/>
       <use xlink:href="#TimesNewRomanPSMT-20" x="155.46875"/>
       <use xlink:href="#TimesNewRomanPSMT-28" x="180.46875"/>
       <use xlink:href="#TimesNewRomanPSMT-70" x="213.769531"/>
       <use xlink:href="#TimesNewRomanPSMT-6c" x="263.769531"/>
       <use xlink:href="#TimesNewRomanPSMT-75" x="291.552734"/>
       <use xlink:href="#TimesNewRomanPSMT-6d" x="341.552734"/>
       <use xlink:href="#TimesNewRomanPSMT-62" x="419.335938"/>
       <use xlink:href="#TimesNewRomanPSMT-69" x="469.335938"/>
       <use xlink:href="#TimesNewRomanPSMT-6e" x="497.119141"/>
       <use xlink:href="#TimesNewRomanPSMT-67" x="547.119141"/>
       <use xlink:href="#TimesNewRomanPSMT-29" x="597.119141"/>
      </g>
     </g>
    </g>
    <g id="ytick_8">
     <g id="line2d_16">
      <path d="M 240.46 280.25 
L 851.04 280.25 
" clip-path="url(#pb5198bc948)" style="fill: none; stroke: #cccccc; stroke-linecap: round"/>
     </g>
     <g id="text_17">
      <!-- bioacoustics -->
      <g style="fill: #262626" transform="translate(151.8625 285.805) scale(0.16 -0.16)">
       <use xlink:href="#TimesNewRomanPSMT-62"/>
       <use xlink:href="#TimesNewRomanPSMT-69" x="50"/>
       <use xlink:href="#TimesNewRomanPSMT-6f" x="77.783203"/>
       <use xlink:href="#TimesNewRomanPSMT-61" x="127.783203"/>
       <use xlink:href="#TimesNewRomanPSMT-63" x="172.167969"/>
       <use xlink:href="#TimesNewRomanPSMT-6f" x="216.552734"/>
       <use xlink:href="#TimesNewRomanPSMT-75" x="266.552734"/>
       <use xlink:href="#TimesNewRomanPSMT-73" x="316.552734"/>
       <use xlink:href="#TimesNewRomanPSMT-74" x="355.46875"/>
       <use xlink:href="#TimesNewRomanPSMT-69" x="383.251953"/>
       <use xlink:href="#TimesNewRomanPSMT-63" x="411.035156"/>
       <use xlink:href="#TimesNewRomanPSMT-73" x="455.419922"/>
      </g>
     </g>
    </g>
    <g id="ytick_9">
     <g id="line2d_17">
      <path d="M 240.46 309.401106 
L 851.04 309.401106 
" clip-path="url(#pb5198bc948)" style="fill: none; stroke: #cccccc; stroke-linecap: round"/>
     </g>
     <g id="text_18">
      <!-- transfer of learning -->
      <g style="fill: #262626" transform="translate(108.35 314.956106) scale(0.16 -0.16)">
       <use xlink:href="#TimesNewRomanPSMT-74"/>
       <use xlink:href="#TimesNewRomanPSMT-72" x="27.783203"/>
       <use xlink:href="#TimesNewRomanPSMT-61" x="61.083984"/>
       <use xlink:href="#TimesNewRomanPSMT-6e" x="105.46875"/>
       <use xlink:href="#TimesNewRomanPSMT-73" x="155.46875"/>
       <use xlink:href="#TimesNewRomanPSMT-66" x="194.384766"/>
       <use xlink:href="#TimesNewRomanPSMT-65" x="227.685547"/>
       <use xlink:href="#TimesNewRomanPSMT-72" x="272.070312"/>
       <use xlink:href="#TimesNewRomanPSMT-20" x="305.371094"/>
       <use xlink:href="#TimesNewRomanPSMT-6f" x="330.371094"/>
       <use xlink:href="#TimesNewRomanPSMT-66" x="380.371094"/>
       <use xlink:href="#TimesNewRomanPSMT-20" x="413.671875"/>
       <use xlink:href="#TimesNewRomanPSMT-6c" x="438.671875"/>
       <use xlink:href="#TimesNewRomanPSMT-65" x="466.455078"/>
       <use xlink:href="#TimesNewRomanPSMT-61" x="510.839844"/>
       <use xlink:href="#TimesNewRomanPSMT-72" x="555.224609"/>
       <use xlink:href="#TimesNewRomanPSMT-6e" x="588.525391"/>
       <use xlink:href="#TimesNewRomanPSMT-69" x="638.525391"/>
       <use xlink:href="#TimesNewRomanPSMT-6e" x="666.308594"/>
       <use xlink:href="#TimesNewRomanPSMT-67" x="716.308594"/>
      </g>
     </g>
    </g>
    <g id="ytick_10">
     <g id="line2d_18">
      <path d="M 240.46 338.552211 
L 851.04 338.552211 
" clip-path="url(#pb5198bc948)" style="fill: none; stroke: #cccccc; stroke-linecap: round"/>
     </g>
     <g id="text_19">
      <!-- species distribution -->
      <g style="fill: #262626" transform="translate(106.9725 344.107211) scale(0.16 -0.16)">
       <use xlink:href="#TimesNewRomanPSMT-73"/>
       <use xlink:href="#TimesNewRomanPSMT-70" x="38.916016"/>
       <use xlink:href="#TimesNewRomanPSMT-65" x="88.916016"/>
       <use xlink:href="#TimesNewRomanPSMT-63" x="133.300781"/>
       <use xlink:href="#TimesNewRomanPSMT-69" x="177.685547"/>
       <use xlink:href="#TimesNewRomanPSMT-65" x="205.46875"/>
       <use xlink:href="#TimesNewRomanPSMT-73" x="249.853516"/>
       <use xlink:href="#TimesNewRomanPSMT-20" x="288.769531"/>
       <use xlink:href="#TimesNewRomanPSMT-64" x="313.769531"/>
       <use xlink:href="#TimesNewRomanPSMT-69" x="363.769531"/>
       <use xlink:href="#TimesNewRomanPSMT-73" x="391.552734"/>
       <use xlink:href="#TimesNewRomanPSMT-74" x="430.46875"/>
       <use xlink:href="#TimesNewRomanPSMT-72" x="458.251953"/>
       <use xlink:href="#TimesNewRomanPSMT-69" x="491.552734"/>
       <use xlink:href="#TimesNewRomanPSMT-62" x="519.335938"/>
       <use xlink:href="#TimesNewRomanPSMT-75" x="569.335938"/>
       <use xlink:href="#TimesNewRomanPSMT-74" x="619.335938"/>
       <use xlink:href="#TimesNewRomanPSMT-69" x="647.119141"/>
       <use xlink:href="#TimesNewRomanPSMT-6f" x="674.902344"/>
       <use xlink:href="#TimesNewRomanPSMT-6e" x="724.902344"/>
      </g>
     </g>
    </g>
    <g id="ytick_11">
     <g id="line2d_19">
      <path d="M 240.46 367.703317 
L 851.04 367.703317 
" clip-path="url(#pb5198bc948)" style="fill: none; stroke: #cccccc; stroke-linecap: round"/>
     </g>
     <g id="text_20">
      <!-- drone -->
      <g style="fill: #262626" transform="translate(194.53 373.258317) scale(0.16 -0.16)">
       <use xlink:href="#TimesNewRomanPSMT-64"/>
       <use xlink:href="#TimesNewRomanPSMT-72" x="50"/>
       <use xlink:href="#TimesNewRomanPSMT-6f" x="83.300781"/>
       <use xlink:href="#TimesNewRomanPSMT-6e" x="133.300781"/>
       <use xlink:href="#TimesNewRomanPSMT-65" x="183.300781"/>
      </g>
     </g>
    </g>
    <g id="ytick_12">
     <g id="line2d_20">
      <path d="M 240.46 396.854423 
L 851.04 396.854423 
" clip-path="url(#pb5198bc948)" style="fill: none; stroke: #cccccc; stroke-linecap: round"/>
     </g>
     <g id="text_21">
      <!-- land cover -->
      <g style="fill: #262626" transform="translate(163.88 402.409423) scale(0.16 -0.16)">
       <defs>
        <path id="TimesNewRomanPSMT-76" d="M 53 2863 
L 1400 2863 
L 1400 2747 
L 1313 2747 
Q 1191 2747 1127 2687 
Q 1063 2628 1063 2528 
Q 1063 2419 1128 2269 
L 1794 688 
L 2463 2328 
Q 2534 2503 2534 2594 
Q 2534 2638 2509 2666 
Q 2475 2713 2422 2730 
Q 2369 2747 2206 2747 
L 2206 2863 
L 3141 2863 
L 3141 2747 
Q 2978 2734 2916 2681 
Q 2806 2588 2719 2369 
L 1703 -88 
L 1575 -88 
L 553 2328 
Q 484 2497 421 2570 
Q 359 2644 263 2694 
Q 209 2722 53 2747 
L 53 2863 
z
" transform="scale(0.015625)"/>
       </defs>
       <use xlink:href="#TimesNewRomanPSMT-6c"/>
       <use xlink:href="#TimesNewRomanPSMT-61" x="27.783203"/>
       <use xlink:href="#TimesNewRomanPSMT-6e" x="72.167969"/>
       <use xlink:href="#TimesNewRomanPSMT-64" x="122.167969"/>
       <use xlink:href="#TimesNewRomanPSMT-20" x="172.167969"/>
       <use xlink:href="#TimesNewRomanPSMT-63" x="197.167969"/>
       <use xlink:href="#TimesNewRomanPSMT-6f" x="241.552734"/>
       <use xlink:href="#TimesNewRomanPSMT-76" x="291.552734"/>
       <use xlink:href="#TimesNewRomanPSMT-65" x="341.552734"/>
       <use xlink:href="#TimesNewRomanPSMT-72" x="385.9375"/>
      </g>
     </g>
    </g>
    <g id="ytick_13">
     <g id="line2d_21">
      <path d="M 240.46 426.005528 
L 851.04 426.005528 
" clip-path="url(#pb5198bc948)" style="fill: none; stroke: #cccccc; stroke-linecap: round"/>
     </g>
     <g id="text_22">
      <!-- rgb color model -->
      <g style="fill: #262626" transform="translate(129.045 431.560528) scale(0.16 -0.16)">
       <use xlink:href="#TimesNewRomanPSMT-72"/>
       <use xlink:href="#TimesNewRomanPSMT-67" x="31.550781"/>
       <use xlink:href="#TimesNewRomanPSMT-62" x="81.550781"/>
       <use xlink:href="#TimesNewRomanPSMT-20" x="131.550781"/>
       <use xlink:href="#TimesNewRomanPSMT-63" x="156.550781"/>
       <use xlink:href="#TimesNewRomanPSMT-6f" x="200.935547"/>
       <use xlink:href="#TimesNewRomanPSMT-6c" x="250.935547"/>
       <use xlink:href="#TimesNewRomanPSMT-6f" x="278.71875"/>
       <use xlink:href="#TimesNewRomanPSMT-72" x="328.71875"/>
       <use xlink:href="#TimesNewRomanPSMT-20" x="362.019531"/>
       <use xlink:href="#TimesNewRomanPSMT-6d" x="387.019531"/>
       <use xlink:href="#TimesNewRomanPSMT-6f" x="464.802734"/>
       <use xlink:href="#TimesNewRomanPSMT-64" x="514.802734"/>
       <use xlink:href="#TimesNewRomanPSMT-65" x="564.802734"/>
       <use xlink:href="#TimesNewRomanPSMT-6c" x="609.1875"/>
      </g>
     </g>
    </g>
    <g id="ytick_14">
     <g id="line2d_22">
      <path d="M 240.46 455.156634 
L 851.04 455.156634 
" clip-path="url(#pb5198bc948)" style="fill: none; stroke: #cccccc; stroke-linecap: round"/>
     </g>
     <g id="text_23">
      <!-- trait -->
      <g style="fill: #262626" transform="translate(205.195 460.711634) scale(0.16 -0.16)">
       <use xlink:href="#TimesNewRomanPSMT-74"/>
       <use xlink:href="#TimesNewRomanPSMT-72" x="27.783203"/>
       <use xlink:href="#TimesNewRomanPSMT-61" x="61.083984"/>
       <use xlink:href="#TimesNewRomanPSMT-69" x="105.46875"/>
       <use xlink:href="#TimesNewRomanPSMT-74" x="133.251953"/>
      </g>
     </g>
    </g>
    <g id="ytick_15">
     <g id="line2d_23">
      <path d="M 240.46 484.30774 
L 851.04 484.30774 
" clip-path="url(#pb5198bc948)" style="fill: none; stroke: #cccccc; stroke-linecap: round"/>
     </g>
     <g id="text_24">
      <!-- extinction (optical mineralogy) -->
      <g style="fill: #262626" transform="translate(31.9125 489.86274) scale(0.16 -0.16)">
       <defs>
        <path id="TimesNewRomanPSMT-78" d="M 84 2863 
L 1431 2863 
L 1431 2747 
Q 1303 2747 1251 2703 
Q 1200 2659 1200 2588 
Q 1200 2513 1309 2356 
Q 1344 2306 1413 2200 
L 1616 1875 
L 1850 2200 
Q 2075 2509 2075 2591 
Q 2075 2656 2022 2701 
Q 1969 2747 1850 2747 
L 1850 2863 
L 2819 2863 
L 2819 2747 
Q 2666 2738 2553 2663 
Q 2400 2556 2134 2200 
L 1744 1678 
L 2456 653 
Q 2719 275 2831 198 
Q 2944 122 3122 113 
L 3122 0 
L 1772 0 
L 1772 113 
Q 1913 113 1991 175 
Q 2050 219 2050 291 
Q 2050 363 1850 653 
L 1431 1266 
L 972 653 
Q 759 369 759 316 
Q 759 241 829 180 
Q 900 119 1041 113 
L 1041 0 
L 106 0 
L 106 113 
Q 219 128 303 191 
Q 422 281 703 653 
L 1303 1450 
L 759 2238 
Q 528 2575 401 2661 
Q 275 2747 84 2747 
L 84 2863 
z
" transform="scale(0.015625)"/>
       </defs>
       <use xlink:href="#TimesNewRomanPSMT-65"/>
       <use xlink:href="#TimesNewRomanPSMT-78" x="44.384766"/>
       <use xlink:href="#TimesNewRomanPSMT-74" x="94.384766"/>
       <use xlink:href="#TimesNewRomanPSMT-69" x="122.167969"/>
       <use xlink:href="#TimesNewRomanPSMT-6e" x="149.951172"/>
       <use xlink:href="#TimesNewRomanPSMT-63" x="199.951172"/>
       <use xlink:href="#TimesNewRomanPSMT-74" x="244.335938"/>
       <use xlink:href="#TimesNewRomanPSMT-69" x="272.119141"/>
       <use xlink:href="#TimesNewRomanPSMT-6f" x="299.902344"/>
       <use xlink:href="#TimesNewRomanPSMT-6e" x="349.902344"/>
       <use xlink:href="#TimesNewRomanPSMT-20" x="399.902344"/>
       <use xlink:href="#TimesNewRomanPSMT-28" x="424.902344"/>
       <use xlink:href="#TimesNewRomanPSMT-6f" x="458.203125"/>
       <use xlink:href="#TimesNewRomanPSMT-70" x="508.203125"/>
       <use xlink:href="#TimesNewRomanPSMT-74" x="558.203125"/>
       <use xlink:href="#TimesNewRomanPSMT-69" x="585.986328"/>
       <use xlink:href="#TimesNewRomanPSMT-63" x="613.769531"/>
       <use xlink:href="#TimesNewRomanPSMT-61" x="658.154297"/>
       <use xlink:href="#TimesNewRomanPSMT-6c" x="702.539062"/>
       <use xlink:href="#TimesNewRomanPSMT-20" x="730.322266"/>
       <use xlink:href="#TimesNewRomanPSMT-6d" x="755.322266"/>
       <use xlink:href="#TimesNewRomanPSMT-69" x="833.105469"/>
       <use xlink:href="#TimesNewRomanPSMT-6e" x="860.888672"/>
       <use xlink:href="#TimesNewRomanPSMT-65" x="910.888672"/>
       <use xlink:href="#TimesNewRomanPSMT-72" x="955.273438"/>
       <use xlink:href="#TimesNewRomanPSMT-61" x="988.574219"/>
       <use xlink:href="#TimesNewRomanPSMT-6c" x="1032.958984"/>
       <use xlink:href="#TimesNewRomanPSMT-6f" x="1060.742188"/>
       <use xlink:href="#TimesNewRomanPSMT-67" x="1110.742188"/>
       <use xlink:href="#TimesNewRomanPSMT-79" x="1160.742188"/>
       <use xlink:href="#TimesNewRomanPSMT-29" x="1210.742188"/>
      </g>
     </g>
    </g>
    <g id="text_25">
     <!-- Keyword -->
     <g style="fill: #262626" transform="translate(24.028437 313.74125) rotate(-90) scale(0.18 -0.18)">
      <defs>
       <path id="TimesNewRomanPSMT-4b" d="M 1913 2350 
L 3475 797 
Q 3859 413 4131 273 
Q 4403 134 4675 116 
L 4675 0 
L 2659 0 
L 2659 116 
Q 2841 116 2920 177 
Q 3000 238 3000 313 
Q 3000 388 2970 447 
Q 2941 506 2775 669 
L 1313 2116 
L 1313 750 
Q 1313 428 1353 325 
Q 1384 247 1484 191 
Q 1619 116 1769 116 
L 1913 116 
L 1913 0 
L 106 0 
L 106 116 
L 256 116 
Q 519 116 638 269 
Q 713 369 713 750 
L 713 3488 
Q 713 3809 672 3916 
Q 641 3991 544 4047 
Q 406 4122 256 4122 
L 106 4122 
L 106 4238 
L 1913 4238 
L 1913 4122 
L 1769 4122 
Q 1622 4122 1484 4050 
Q 1388 4000 1350 3900 
Q 1313 3800 1313 3488 
L 1313 2191 
Q 1375 2250 1741 2588 
Q 2669 3438 2863 3722 
Q 2947 3847 2947 3941 
Q 2947 4013 2881 4067 
Q 2816 4122 2659 4122 
L 2563 4122 
L 2563 4238 
L 4119 4238 
L 4119 4122 
Q 3981 4119 3868 4084 
Q 3756 4050 3593 3951 
Q 3431 3853 3194 3634 
Q 3125 3572 2559 2994 
L 1913 2350 
z
" transform="scale(0.015625)"/>
       <path id="TimesNewRomanPSMT-77" d="M 41 2863 
L 1241 2863 
L 1241 2747 
Q 1075 2734 1023 2687 
Q 972 2641 972 2553 
Q 972 2456 1025 2319 
L 1638 672 
L 2253 2013 
L 2091 2434 
Q 2016 2622 1894 2694 
Q 1825 2738 1638 2747 
L 1638 2863 
L 3000 2863 
L 3000 2747 
Q 2775 2738 2681 2666 
Q 2619 2616 2619 2506 
Q 2619 2444 2644 2378 
L 3294 734 
L 3897 2319 
Q 3959 2488 3959 2588 
Q 3959 2647 3898 2694 
Q 3838 2741 3659 2747 
L 3659 2863 
L 4563 2863 
L 4563 2747 
Q 4291 2706 4163 2378 
L 3206 -88 
L 3078 -88 
L 2363 1741 
L 1528 -88 
L 1413 -88 
L 494 2319 
Q 403 2547 315 2626 
Q 228 2706 41 2747 
L 41 2863 
z
" transform="scale(0.015625)"/>
      </defs>
      <use xlink:href="#TimesNewRomanPSMT-4b"/>
      <use xlink:href="#TimesNewRomanPSMT-65" x="72.216797"/>
      <use xlink:href="#TimesNewRomanPSMT-79" x="116.601562"/>
      <use xlink:href="#TimesNewRomanPSMT-77" x="166.601562"/>
      <use xlink:href="#TimesNewRomanPSMT-6f" x="238.818359"/>
      <use xlink:href="#TimesNewRomanPSMT-72" x="288.818359"/>
      <use xlink:href="#TimesNewRomanPSMT-64" x="322.119141"/>
     </g>
    </g>
   </g>
   <g id="patch_3">
    <path d="M 240.46 64.531818 
L 821.964762 64.531818 
L 821.964762 87.852703 
L 240.46 87.852703 
z
" clip-path="url(#pb5198bc948)" style="fill: #36729c; stroke: #ffffff; stroke-linejoin: miter"/>
   </g>
   <g id="patch_4">
    <path d="M 240.46 93.682924 
L 668.937193 93.682924 
L 668.937193 117.003808 
L 240.46 117.003808 
z
" clip-path="url(#pb5198bc948)" style="fill: #36729c; stroke: #ffffff; stroke-linejoin: miter"/>
   </g>
   <g id="patch_5">
    <path d="M 240.46 122.834029 
L 454.698596 122.834029 
L 454.698596 146.154914 
L 240.46 146.154914 
z
" clip-path="url(#pb5198bc948)" style="fill: #36729c; stroke: #ffffff; stroke-linejoin: miter"/>
   </g>
   <g id="patch_6">
    <path d="M 240.46 151.985135 
L 454.698596 151.985135 
L 454.698596 175.30602 
L 240.46 175.30602 
z
" clip-path="url(#pb5198bc948)" style="fill: #36729c; stroke: #ffffff; stroke-linejoin: miter"/>
   </g>
   <g id="patch_7">
    <path d="M 240.46 181.136241 
L 424.093083 181.136241 
L 424.093083 204.457125 
L 240.46 204.457125 
z
" clip-path="url(#pb5198bc948)" style="fill: #36729c; stroke: #ffffff; stroke-linejoin: miter"/>
   </g>
   <g id="patch_8">
    <path d="M 240.46 210.287346 
L 362.882055 210.287346 
L 362.882055 233.608231 
L 240.46 233.608231 
z
" clip-path="url(#pb5198bc948)" style="fill: #36729c; stroke: #ffffff; stroke-linejoin: miter"/>
   </g>
   <g id="patch_9">
    <path d="M 240.46 239.438452 
L 362.882055 239.438452 
L 362.882055 262.759337 
L 240.46 262.759337 
z
" clip-path="url(#pb5198bc948)" style="fill: #36729c; stroke: #ffffff; stroke-linejoin: miter"/>
   </g>
   <g id="patch_10">
    <path d="M 240.46 268.589558 
L 347.579298 268.589558 
L 347.579298 291.910442 
L 240.46 291.910442 
z
" clip-path="url(#pb5198bc948)" style="fill: #36729c; stroke: #ffffff; stroke-linejoin: miter"/>
   </g>
   <g id="patch_11">
    <path d="M 240.46 297.740663 
L 347.579298 297.740663 
L 347.579298 321.061548 
L 240.46 321.061548 
z
" clip-path="url(#pb5198bc948)" style="fill: #36729c; stroke: #ffffff; stroke-linejoin: miter"/>
   </g>
   <g id="patch_12">
    <path d="M 240.46 326.891769 
L 332.276541 326.891769 
L 332.276541 350.212654 
L 240.46 350.212654 
z
" clip-path="url(#pb5198bc948)" style="fill: #36729c; stroke: #ffffff; stroke-linejoin: miter"/>
   </g>
   <g id="patch_13">
    <path d="M 240.46 356.042875 
L 332.276541 356.042875 
L 332.276541 379.363759 
L 240.46 379.363759 
z
" clip-path="url(#pb5198bc948)" style="fill: #36729c; stroke: #ffffff; stroke-linejoin: miter"/>
   </g>
   <g id="patch_14">
    <path d="M 240.46 385.19398 
L 316.973784 385.19398 
L 316.973784 408.514865 
L 240.46 408.514865 
z
" clip-path="url(#pb5198bc948)" style="fill: #36729c; stroke: #ffffff; stroke-linejoin: miter"/>
   </g>
   <g id="patch_15">
    <path d="M 240.46 414.345086 
L 316.973784 414.345086 
L 316.973784 437.665971 
L 240.46 437.665971 
z
" clip-path="url(#pb5198bc948)" style="fill: #36729c; stroke: #ffffff; stroke-linejoin: miter"/>
   </g>
   <g id="patch_16">
    <path d="M 240.46 443.496192 
L 316.973784 443.496192 
L 316.973784 466.817076 
L 240.46 466.817076 
z
" clip-path="url(#pb5198bc948)" style="fill: #36729c; stroke: #ffffff; stroke-linejoin: miter"/>
   </g>
   <g id="patch_17">
    <path d="M 240.46 472.647297 
L 316.973784 472.647297 
L 316.973784 495.968182 
L 240.46 495.968182 
z
" clip-path="url(#pb5198bc948)" style="fill: #36729c; stroke: #ffffff; stroke-linejoin: miter"/>
   </g>
   <g id="patch_18">
    <path d="M 240.46 517.54 
L 240.46 42.96 
" style="fill: none; stroke: #cccccc; stroke-width: 1.25; stroke-linejoin: miter; stroke-linecap: square"/>
   </g>
   <g id="patch_19">
    <path d="M 851.04 517.54 
L 851.04 42.96 
" style="fill: none; stroke: #cccccc; stroke-width: 1.25; stroke-linejoin: miter; stroke-linecap: square"/>
   </g>
   <g id="patch_20">
    <path d="M 240.46 517.54 
L 851.04 517.54 
" style="fill: none; stroke: #cccccc; stroke-width: 1.25; stroke-linejoin: miter; stroke-linecap: square"/>
   </g>
   <g id="patch_21">
    <path d="M 240.46 42.96 
L 851.04 42.96 
" style="fill: none; stroke: #cccccc; stroke-width: 1.25; stroke-linejoin: miter; stroke-linecap: square"/>
   </g>
   <g id="text_26">
    <!-- Top 15 Article Keywords for Issue Area: biodiversity -->
    <g style="fill: #262626" transform="translate(311.592656 27.96) scale(0.22 -0.22)">
     <defs>
      <path id="TimesNewRomanPSMT-54" d="M 3703 4238 
L 3750 3244 
L 3631 3244 
Q 3597 3506 3538 3619 
Q 3441 3800 3280 3886 
Q 3119 3972 2856 3972 
L 2259 3972 
L 2259 734 
Q 2259 344 2344 247 
Q 2463 116 2709 116 
L 2856 116 
L 2856 0 
L 1059 0 
L 1059 116 
L 1209 116 
Q 1478 116 1591 278 
Q 1659 378 1659 734 
L 1659 3972 
L 1150 3972 
Q 853 3972 728 3928 
Q 566 3869 450 3700 
Q 334 3531 313 3244 
L 194 3244 
L 244 4238 
L 3703 4238 
z
" transform="scale(0.015625)"/>
      <path id="TimesNewRomanPSMT-41" d="M 2928 1419 
L 1288 1419 
L 1000 750 
Q 894 503 894 381 
Q 894 284 986 211 
Q 1078 138 1384 116 
L 1384 0 
L 50 0 
L 50 116 
Q 316 163 394 238 
Q 553 388 747 847 
L 2238 4334 
L 2347 4334 
L 3822 809 
Q 4000 384 4145 257 
Q 4291 131 4550 116 
L 4550 0 
L 2878 0 
L 2878 116 
Q 3131 128 3220 200 
Q 3309 272 3309 375 
Q 3309 513 3184 809 
L 2928 1419 
z
M 2841 1650 
L 2122 3363 
L 1384 1650 
L 2841 1650 
z
" transform="scale(0.015625)"/>
      <path id="TimesNewRomanPSMT-49" d="M 1975 116 
L 1975 0 
L 159 0 
L 159 116 
L 309 116 
Q 572 116 691 269 
Q 766 369 766 750 
L 766 3488 
Q 766 3809 725 3913 
Q 694 3991 597 4047 
Q 459 4122 309 4122 
L 159 4122 
L 159 4238 
L 1975 4238 
L 1975 4122 
L 1822 4122 
Q 1563 4122 1444 3969 
Q 1366 3869 1366 3488 
L 1366 750 
Q 1366 428 1406 325 
Q 1438 247 1538 191 
Q 1672 116 1822 116 
L 1975 116 
z
" transform="scale(0.015625)"/>
      <path id="TimesNewRomanPSMT-3a" d="M 903 2950 
Q 1047 2950 1148 2848 
Q 1250 2747 1250 2603 
Q 1250 2459 1148 2357 
Q 1047 2256 903 2256 
Q 759 2256 657 2357 
Q 556 2459 556 2603 
Q 556 2747 657 2848 
Q 759 2950 903 2950 
z
M 897 609 
Q 1044 609 1145 506 
Q 1247 403 1247 259 
Q 1247 116 1144 14 
Q 1041 -88 897 -88 
Q 753 -88 651 14 
Q 550 116 550 259 
Q 550 403 651 506 
Q 753 609 897 609 
z
" transform="scale(0.015625)"/>
     </defs>
     <use xlink:href="#TimesNewRomanPSMT-54"/>
     <use xlink:href="#TimesNewRomanPSMT-6f" x="54.083984"/>
     <use xlink:href="#TimesNewRomanPSMT-70" x="104.083984"/>
     <use xlink:href="#TimesNewRomanPSMT-20" x="154.083984"/>
     <use xlink:href="#TimesNewRomanPSMT-31" x="179.083984"/>
     <use xlink:href="#TimesNewRomanPSMT-35" x="229.083984"/>
     <use xlink:href="#TimesNewRomanPSMT-20" x="279.083984"/>
     <use xlink:href="#TimesNewRomanPSMT-41" x="298.583984"/>
     <use xlink:href="#TimesNewRomanPSMT-72" x="370.800781"/>
     <use xlink:href="#TimesNewRomanPSMT-74" x="404.101562"/>
     <use xlink:href="#TimesNewRomanPSMT-69" x="431.884766"/>
     <use xlink:href="#TimesNewRomanPSMT-63" x="459.667969"/>
     <use xlink:href="#TimesNewRomanPSMT-6c" x="504.052734"/>
     <use xlink:href="#TimesNewRomanPSMT-65" x="531.835938"/>
     <use xlink:href="#TimesNewRomanPSMT-20" x="576.220703"/>
     <use xlink:href="#TimesNewRomanPSMT-4b" x="601.220703"/>
     <use xlink:href="#TimesNewRomanPSMT-65" x="673.4375"/>
     <use xlink:href="#TimesNewRomanPSMT-79" x="717.822266"/>
     <use xlink:href="#TimesNewRomanPSMT-77" x="767.822266"/>
     <use xlink:href="#TimesNewRomanPSMT-6f" x="840.039062"/>
     <use xlink:href="#TimesNewRomanPSMT-72" x="890.039062"/>
     <use xlink:href="#TimesNewRomanPSMT-64" x="923.339844"/>
     <use xlink:href="#TimesNewRomanPSMT-73" x="973.339844"/>
     <use xlink:href="#TimesNewRomanPSMT-20" x="1012.255859"/>
     <use xlink:href="#TimesNewRomanPSMT-66" x="1037.255859"/>
     <use xlink:href="#TimesNewRomanPSMT-6f" x="1070.556641"/>
     <use xlink:href="#TimesNewRomanPSMT-72" x="1120.556641"/>
     <use xlink:href="#TimesNewRomanPSMT-20" x="1153.857422"/>
     <use xlink:href="#TimesNewRomanPSMT-49" x="1178.857422"/>
     <use xlink:href="#TimesNewRomanPSMT-73" x="1212.158203"/>
     <use xlink:href="#TimesNewRomanPSMT-73" x="1251.074219"/>
     <use xlink:href="#TimesNewRomanPSMT-75" x="1289.990234"/>
     <use xlink:href="#TimesNewRomanPSMT-65" x="1339.990234"/>
     <use xlink:href="#TimesNewRomanPSMT-20" x="1384.375"/>
     <use xlink:href="#TimesNewRomanPSMT-41" x="1403.875"/>
     <use xlink:href="#TimesNewRomanPSMT-72" x="1476.091797"/>
     <use xlink:href="#TimesNewRomanPSMT-65" x="1509.392578"/>
     <use xlink:href="#TimesNewRomanPSMT-61" x="1553.777344"/>
     <use xlink:href="#TimesNewRomanPSMT-3a" x="1598.162109"/>
     <use xlink:href="#TimesNewRomanPSMT-20" x="1625.945312"/>
     <use xlink:href="#TimesNewRomanPSMT-62" x="1650.945312"/>
     <use xlink:href="#TimesNewRomanPSMT-69" x="1700.945312"/>
     <use xlink:href="#TimesNewRomanPSMT-6f" x="1728.728516"/>
     <use xlink:href="#TimesNewRomanPSMT-64" x="1778.728516"/>
     <use xlink:href="#TimesNewRomanPSMT-69" x="1828.728516"/>
     <use xlink:href="#TimesNewRomanPSMT-76" x="1856.511719"/>
     <use xlink:href="#TimesNewRomanPSMT-65" x="1906.511719"/>
     <use xlink:href="#TimesNewRomanPSMT-72" x="1950.896484"/>
     <use xlink:href="#TimesNewRomanPSMT-73" x="1984.197266"/>
     <use xlink:href="#TimesNewRomanPSMT-69" x="2023.113281"/>
     <use xlink:href="#TimesNewRomanPSMT-74" x="2050.896484"/>
     <use xlink:href="#TimesNewRomanPSMT-79" x="2078.679688"/>
    </g>
   </g>
  </g>
 </g>
 <defs>
  <clipPath id="pb5198bc948">
   <rect x="240.46" y="42.96" width="610.58" height="474.58"/>
  </clipPath>
 </defs>
</svg>
